# FamiTracker text export 0.4.2

# Song information
TITLE           ""
AUTHOR          ""
COPYRIGHT       ""

# Song comment
COMMENT ""

# Global settings
MACHINE         0
FRAMERATE       0
EXPANSION       0
VIBRATO         1
SPLIT           32

# Macros
MACRO       0   0  -1  -1   0 : 9 13 11
MACRO       0   1  -1  -1   0 : 15 15 15 15 15 14 13 13 12 11 10 8 7 6 4 3 1 0 0 0 0 0 0 0 0 0 0 0 0 0 0 0
MACRO       0   2  -1  -1   0 : 14 15 15 15 15 15 14 13 12 11 12
MACRO       0   3  -1  -1   0 : 15 15 15 14 13 12 11 10 9 8 7 7 8 9 10 11 11 11 12 12 12 11 11 10 10 9 8 7 6 5 5 5 6 6 7 7 7 8 8 8 8 7 7 6 6 5 5 4 4 3 3 3 3 3 4 4 4 4 4 4 4 3 3 3 2 2 2 1 1 1 1 1 1 1 0
MACRO       0   4  -1  -1   0 : 0 9 11 11 10 9 7 5 5 6 7 8
MACRO       0   5  -1  -1   0 : 5 10 7
MACRO       0   6  -1  -1   0 : 8 6 5 4 4 3 3 3 3 2 2 1 0
MACRO       0   7  -1  -1   0 : 8 6 6 5 5 5 4 4 3 3 3 2 2 2 1 1 1 0
MACRO       0   8  -1  -1   0 : 15 15 15 15 0
MACRO       0   9  -1  -1   0 : 0 9 11 11 10 9 7 5 5 6 7 8
MACRO       0  10  -1  -1   0 : 5
MACRO       0  11  -1  -1   0 : 7 12 10
MACRO       0  12  -1  -1   0 : 15 15 15 14 13 12 11 10 9 8 7 7 8 9 10 11 11 11 12 12 12 11 11 10 10 9 8 7 6 5 5 5 6 6 7 7 7 8 8 8 8 7 7 6 6 5 5 4 4 3 3 3 3 3 4 4 4 4 4 4 4 3 3 3 2 2 2 1 1 1 1 1 1 1 0
MACRO       0  13  -1  -1   0 : 15 12
MACRO       0  14  -1  -1   0 : 0 15
MACRO       0  15  -1  -1   0 : 15 15 15 14 13 12 11 10 9 8 7 7 8 9 10 11 11 11 12 12 12 11 11 10 10 9 8 7 6 5 5 5 6 6 7 7 7 8 8 8 8 7 7 6 6 5 5 4 4 3 3 3 3 3 4 4 4 4 4 4 4 3 3 3 2 2 2 1 1 1 1 1 1 1 0
MACRO       0  16  -1  -1   0 : 8 14 12
MACRO       0  17  -1  -1   0 : 5
MACRO       0  18  -1  -1   0 : 9 11 12 11 10 9 8 7 6 5 4 3 2 2 3 4 4 4 3 2 1 1 1 2 2 2 2 1 1 0
MACRO       0  19   0  -1   0 : 15 15 15 0
MACRO       0  20  -1  -1   0 : 11 13 14 13 12 11 10 9 8 7 6 5 4 4 5 5 5 4 3 3 2 2 2 3 4 3 2 1 1 0
MACRO       0  21  -1  -1   0 : 11 13 14 13 12 11 10 9 8 7 6 5 4 4 5 5 5 4 3 3 2 2 2 3 4 3 2 1 1 0
MACRO       0  22  -1  -1   0 : 14 15 14 12 10 8 7 6 5 4 3 3 2 2 2 1 1 1 0
MACRO       0  23  -1  -1   0 : 3 3 3 1 0
MACRO       0  24  -1  -1   0 : 15 15 15 14 13 12 11 10 9 8 7 7 8 9 10 11 11 11 12 12 12 11 11 10 10 9 8 7 6 5 5 5 6 6 7 7 7 8 8 8 8 7 7 6 6 5 5 4 4 3 3 3 3 3 4 4 4 4 4 4 4 3 3 3 2 2 2 1 1 1 1 1 1 1 0
MACRO       0  25  -1  -1   0 : 10 15 14
MACRO       0  26  -1  -1   0 : 9 11 12 11 10 9 8 7 6 5 4 3 2 2 3 4 4 4 3 2 1 1 1 2 2 2 2 1 1 0
MACRO       0  27  -1  -1   0 : 9 11 12 11 10 9 8 7 6 5 4 3 2 2 3 4 4 4 3 2 1 1 1 2 2 2 2 1 1 0
MACRO       0  28  -1  -1   0 : 9 11 12 11 10 9 8 7 6 5 4 3 2 2 3 4 4 4 3 2 1 1 1 2 2 2 2 1 1 0
MACRO       0  29  -1  -1   0 : 8 14 12
MACRO       0  30  -1  -1   0 : 8 14 12
MACRO       0  31  -1  -1   0 : 5 14 12 10
MACRO       0  32  -1  -1   0 : 5 14 12 10
MACRO       0  33  -1  -1   0 : 8 14 12
MACRO       0  34  -1  -1   0 : 8 14 12
MACRO       0  35  -1  -1   0 : 8 14 12 8 8 8 8 8 0 0 0 0 8 14 12 8
MACRO       0  36  -1  -1   0 : 5 12 15 13 9
MACRO       0  37  -1  -1   0 : 8 14 12
MACRO       0  38  -1  -1   0 : 3 8 12 9 7 6 6 5 5 5 5 4 4 4 4 4 4 4 3 3 3 3 3 2
MACRO       0  39  -1  -1   0 : 5 13 5 3
MACRO       0  40  -1  -1   0 : 0 15
MACRO       0  41  -1  -1   0 : 1 2 3 4 5 6 7 8 9 10 11 12 13 14 15 15 15 14 13 12 11 10 9 8 7 7 8 9 10 11 11 11 12 12 12 11 11 10 10 9 8 7 6 5 5 5 6 6 7 7 7 8 8 8 8 7 7 6 6 5 5 4 4 3 3 3 3 3 4 4 4 4 4 4 4 3 3 3 2 2 2 1 1 1 1 1 1 1 0
MACRO       0  42  -1  -1   0 : 6 12 10 8 6 5 6 4 3 2 2 3 2 2 1 1 0 1 0
MACRO       0  43  -1  -1   0 : 15
MACRO       0  44  -1  -1   0 : 14
MACRO       0  45  -1  -1   0 : 13
MACRO       0  46  -1  -1   0 : 1 1 1 1 1 1 1 1 1 1 1 2 2 2 2 2 3 3 4 5 5 6 6 6 6 7 7 7 7 7 8 8 8 8 8 8 8 8 8 9 9 9 9 9 10 10 10 11 11 11 11 12 12 12 13 13 13 14 14 14 14 14 14 14 14 14 14 14 14 15 15 15 15 15 15 15 15 15 15 15 15 15 15 15 15 15 15 15 15 15 15 15 15 15 15 15 15 15 15 15 15 15 15 15 15 15 15 15 15 15 15 15 15 15 15 14 14 14 14 14 14 14 14 14 14 14 14 14 13 13 13 13 13 13 13 13 13 13 13 13 12 12 12 12 12 12 12 12 12 12 12 11 11 11 11 11 11 10 10 10 10 10 10 10 10 10 9 9 9 9 9 9 9 8 8 8 8 8 8 8 8 7 7 7 7 7 7 7 6 6 6 6 6 6 6 6 5 5 5 5 5 5 5 5 5 4 4 4 3 3 3 3 3 3 2 2 2 2 2 1 1 1 1 1 1 0 0 0 0 0
MACRO       0  47  -1  -1   0 : 0 0 0 1 1 2 1 3 3 3 4 2 4 4 5 5 5 5 5 5 6 6 6 6 6 7 7 7 7 7 8 8 8 8 8 8 8 8 9 9 9 9 9 9 9 9 9 9 9 9 10 9 10 9 10 9 10 10 10 10 10 10 10 10 10 11 11 11 11 11 11 11 11 11 11 11 11 11 11 11 11 11 11 11 11 11 11 11 11 11 11 11 11 11 11 11 11 11 11 11 11 11 11 11 11 11 11 11 11 11 11 11 11 11 11 11 11 11 11 11 11 11 11 11 11 11 10 10 10 10 10 10 11 10 10 10 10 10 10 10 10 10 10 10 10 10 10 10 10 10 10 9 9 9 9 9 9 9 8 8 8 7 7 7 5 6 6 6 6 5 5 5 5 4 4 4 4 4 4 3 3 3 3 3 2 2 2 2 2 2 2 1 1 1 1 1 1 0 1 0 0 0 0 0
MACRO       0  48  -1  -1   0 : 3 10 13 11 7
MACRO       0  49  -1  -1   0 : 3 10 13 11 7
MACRO       0  50   0  -1   0 : 5 6 7 8 8 8 8 7 7 5 4 3 2 2 3 4
MACRO       0  51  -1  -1   0 : 5 12 15 15 13 12 11 10 10 9 9 9 8 8 7 7 7 6 6 6 5 5 5 5 5 4 4 4 4 4 4 4 3 3 3 3 3 3 3 3 3 3 3 2 2 2 2 2 2 2 2 2 2 2 2 2 2 2 2 2 2 2 2 2 1 1 1 1 1 0
MACRO       0  52  -1  -1   0 : 9 5 5 4 9 5 5 3 1 0
MACRO       0  53  -1  -1   0 : 1 8 5 3 1 0
MACRO       0  54  -1  -1   0 : 0 15
MACRO       0  55  -1  -1   0 : 9 5 5 4 4 4 3 3 3 2 2 1 1 1 0
MACRO       0  56  -1  -1   0 : 15 12
MACRO       0  57  -1  -1   0 : 9
MACRO       0  58  -1  -1   0 : 9 5 5 4 4 4 3 3 3 2 2 1 1 1 0
MACRO       0  59  -1  -1   0 : 15
MACRO       0  60   0  -1   0 : 0 14 9
MACRO       0  61   0  -1   0 : 0 5 3
MACRO       0  62  -1  -1   0 : 14 15 13 11 9 7 5 3 2 1 0
MACRO       0  63  -1  -1   0 : 5 2 2 1 1 1 0
MACRO       0  64  -1  -1   0 : 1 2 4 4 5 4 4 5 6 7 8 9 10 11 12 13 13 14 15 15 15 15 15 15 15 15 0 0 0 0 0 0 0 0 0 0 0 0
MACRO       0  65  -1  -1   0 : 0 15
MACRO       0  66  -1  -1   0 : 0 15
MACRO       0  67  -1  -1   0 : 1 2 3 4 5 7 10 14 12 12 12 12 11 11 11 11 10 10 10 10 9 9 9 9 8 8 8 8 7 7 7 7 6 6 6 6 5 5 5 5 4 4 4 4 3 3 3 3 2 2 2 2 1 1 1 1 0
MACRO       0  68  -1  -1   0 : 0 15
MACRO       0  69  -1  -1   0 : 1 2 3 4 5 7 10 14 12 12 12 12 11 11 11 11 10 10 10 10 9 9 9 9 8 8 8 8 7 7 7 7 6 6 6 6 5 5 5 5 4 4 4 4 3 3 3 3 2 2 2 2 1 1 1 1 0
MACRO       0  70  -1  -1   0 : 0 1 1 2 2 3 5 7 6 6 6 6 5 5 5 5 5 5 5 5 5 4 4 4 4 4 4 4 4 3 3 3 3 3 3 3 3 2 2 2 2 2 2 2 2 1 1 1 1 1 1 1 1 0
MACRO       0  71  -1  -1   0 : 0 15
MACRO       0  72  -1  -1   0 : 0 15
MACRO       0  73  -1  -1   0 : 0 15
MACRO       0  74  -1  -1   0 : 6 10 12 14 12 12 12 12 11 11 11 11 10 10 10 10 9 9 9 9 8 8 8 8 7 7 7 7 6 6 6 6 5 5 5 5 4 4 4 4 3 3 3 3 2 2 2 2 1 1 1 1 0
MACRO       0  75  -1  -1   0 : 6 10 12 14 12 12 12 12 11 11 11 11 10 10 10 10 9 9 9 9 8 8 8 8 7 7 7 7 6 6 6 6 5 5 5 5 4 4 4 4 3 3 3 3 2 2 2 2 1 1 1 1 0
MACRO       0  76  -1  -1   0 : 0 15
MACRO       0  77  -1  -1   0 : 8 8 8 6 6 6 0
MACRO       0  78  -1  -1   0 : 0 15
MACRO       0  79  -1  -1   0 : 0 15
MACRO       0  80  -1  -1   0 : 0 15
MACRO       0  81  -1  -1   0 : 0 15
MACRO       0  82  -1  -1   0 : 0 0 0 15
MACRO       0  83  -1  -1   0 : 0 0 0 15
MACRO       0  84  -1  -1   0 : 0 15
MACRO       0  85  -1  -1   0 : 0 0 0 15
MACRO       0  86  -1  -1   0 : 0 0 0 15
MACRO       0  87  -1  -1   0 : 0 0 0 15
MACRO       0  88  -1  -1   0 : 0 0 0 15
MACRO       0  89  -1  -1   0 : 0 6
MACRO       0  90  -1  -1   0 : 0 15
MACRO       0  91  -1  -1   0 : 0 15
MACRO       0  92  -1  -1   0 : 0 15
MACRO       0  93  -1  -1   0 : 0 15
MACRO       0  94  -1  -1   0 : 0 15
MACRO       0  95  -1  -1   0 : 0 15
MACRO       0  96  -1  -1   0 : 5 14 12 10
MACRO       0  97  -1  -1   0 : 0 15
MACRO       0  98  -1  -1   0 : 8 9 8 8 7 6 6 6 6 7 7 7 7 7 7 8 8 8 8 8 8 8 8 8 8 8 8 8 8 7 7 7 7 7 7 7 7 7 7 8 8 8 8 8 8 8 8 8 7 7 7 6 6 6 6 7 7 7 7 6 6 6 6 6 6 6 6 6 6 6 6 5 5 5 5 6 6 6 6 5 5 5 5 5 5 5 5 5 4 4 4 4 3 3 3 3 3 2 2 3 3 3 3 4 4 4 4 4 4 4 4 4 4 4 4 4 3 3 3 3 3 3 3 3 3 3 3 2 2 2 2 1 1 1 1 1 1 1 1 0 0 0 0 0
MACRO       0  99  -1  -1   0 : 7 7 7 5 5 5 0
MACRO       0 100  -1  -1   0 : 7 7 7 5 5 5 0
MACRO       0 101  -1  -1   0 : 8 8 8 6 6 6 0
MACRO       0 102  -1  -1   0 : 5
MACRO       0 103  -1  -1   0 : 7 7 7 5 5 5 0
MACRO       0 104  -1  -1   0 : 7 7 7 5 5 5 0
MACRO       0 105  -1  -1   0 : 7 7 7 5 5 5 0
MACRO       0 106  -1  -1   0 : 4 9 11 9 6
MACRO       0 107  -1  -1   0 : 0 15
MACRO       1   0  -1  -1   0 : 0 4 0
MACRO       1   1  -1  -1   0 : 0 4 0
MACRO       1   2  -1  -1   0 : 0 0 0 1 2 3 3 3 3 3 2 1 0
MACRO       1   3  -1  -1   0 : 0 -4 -2 0
MACRO       1   4  -1  -1   0 : 0 4 0
MACRO       1   5  -1  -1   0 : 0 1 -1 0
MACRO       1   6  -1  -1   0 : 6 13
MACRO       1   7  -1  -1   0 : 0 -4 -8 -14
MACRO       1   8  -1  -1   0 : 0 -4 -2 0
MACRO       1   9  -1  -1   0 : 0 1 0
MACRO       1  10   0  -1   0 : 0 4 7
MACRO       1  11   0  -1   0 : 0 1
MACRO       1  12  -1  -1   0 : 0 4 0
MACRO       1  13  -1  -1   0 : 0 4 0
MACRO       1  14  -1  -1   0 : 7 4 0
MACRO       1  15  -1  -1   0 : 7 4 0
MACRO       1  16  -1  -1   0 : 7 4 0
MACRO       1  17  -1  -1   0 : 6 13
MACRO       1  18  -1  -1   0 : 0 19 0
MACRO       1  19  -1  -1   0 : -1 0
MACRO       1  20  -1  -1   0 : 7 4 0
MACRO       1  21  -1  -1   0 : 7 4 0
MACRO       1  22  -1  -1   0 : 7 4 0
MACRO       1  23  -1  -1   0 : 0 4 0
MACRO       1  24  -1  -1   0 : 0 4 0
MACRO       1  25  -1  -1   0 : 0 12 0
MACRO       1  26  -1  -1   0 : 0 12 0
MACRO       1  27  -1  -1   0 : 0 4 0 0 3 3 3
MACRO       1  28  -1  -1   0 : 0 4 0 0 -3 -3 -3
MACRO       1  29  -1  -1   0 : 0 4 0
MACRO       1  30  -1  -1   0 : 0 0 0 0
MACRO       1  31  -1  -1   0 : 0 4 0
MACRO       1  32  -1  -1   0 : 0 12 0
MACRO       1  33  -1  -1   0 : 0 1 -1 0
MACRO       1  34  -1  -1   0 : -4 3 0
MACRO       1  35  -1  -1   0 : 0 1 -1 0
MACRO       1  36   0  -1   0 : 0 -2
MACRO       1  37  -1  -1   0 : 0 1 -1 0
MACRO       1  38   2  -1   0 : 7 4 0 1
MACRO       1  39  -1  -1   0 : 7 4 0 1
MACRO       1  40  -1  -1   0 : 7 4 0
MACRO       1  41  -1  -1   0 : 0 4 7
MACRO       1  42   0  -1   0 : 0 0 4 4 12 12
MACRO       1  43   0  -1   0 : 7 4 0 0 7 4 0 0
MACRO       1  44   0  -1   0 : 0 4 0 7
MACRO       1  45   0  -1   0 : -8 0 -8 4
MACRO       1  46   0  -1   0 : 0 3 0 7
MACRO       1  47  -1  -1   0 : -4 0
MACRO       1  48   0  -1   0 : 0 0 7 7
MACRO       1  49   0  -1   0 : 0 0 9 9
MACRO       1  50  -1  -1   0 : 0 0 3 3 7 7
MACRO       1  51   0  -1   0 : 0 0 3 3
MACRO       1  52   0  -1   0 : 0 0 6 6
MACRO       1  53   0  -1   0 : 0 0 7 7
MACRO       1  54   0  -1   0 : 7 7 0 0
MACRO       1  55   0  -1   0 : 0 3 5
MACRO       1  56   0  -1   0 : 3 3 0 0
MACRO       1  57   0  -1   0 : 6 6 0 0
MACRO       1  58   0  -1   0 : 7 7 0 0
MACRO       1  59   0  -1   0 : 0 0 9 9
MACRO       1  60  -1  -1   0 : 1 1
MACRO       1  61  -1  -1   0 : 4 0
MACRO       1  62   0  -1   0 : 0 0 4 4 7 7
MACRO       1  63   0  -1   0 : 0 0 4 4 9 9
MACRO       1  64   0  -1   0 : 0 0 5 5 9 9
MACRO       1  65   0  -1   0 : 0 0 3 3 8 8
MACRO       1  66  -1  -1   0 : 0 -1 0
MACRO       1  67  -1  -1   0 : 0 12 0
MACRO       1  68  -1  -1   0 : 0 0 4 4 7 7
MACRO       1  69  -1  -1   0 : 0 0 7 7 9 9
MACRO       1  70  -1  -1   0 : 0 0 5 5 9 9
MACRO       1  71  -1  -1   0 : 0 0 4 4 9 9
MACRO       1  72  -1  -1   0 : 0 0 5 5 9 9
MACRO       1  73  -1  -1   0 : 0 0 3 3 8 8
MACRO       2   0   4  -1   0 : 0 0 0 0 -3 0 0 3 0 0
MACRO       2   1   7  -1   0 : 16 16 16 16 16 16 16 1
MACRO       2   2  16  -1   0 : 0 0 0 0 0 0 0 0 0 0 0 0 0 0 0 0 1 1 -1 -1 -1 -1 1 1
MACRO       2   3  16  -1   0 : 0 0 0 0 0 0 0 0 0 0 0 0 0 0 0 0 1 2 -2 -1 -1 -2 2 1
MACRO       2   4   0  -1   0 : -1 0
MACRO       2   5  16  -1   0 : 0 0 0 0 0 0 0 0 0 0 0 0 0 0 0 0 2 3 -2 -1 -1 -2 3 2
MACRO       2   6   0  -1   0 : 4 -2
MACRO       2   7  16  -1   0 : 0 0 0 0 0 0 0 0 0 0 0 0 0 0 0 0 1 2 -2 -1 -1 -2 2 1
MACRO       2   8   0  -1   0 : -4
MACRO       2   9   0  -1   0 : 4
MACRO       2  10   0  -1   0 : -4
MACRO       2  11   0  -1   0 : 4
MACRO       2  12   0  -1   0 : -4
MACRO       2  13  16  -1   0 : 0 0 0 0 0 0 0 0 0 0 0 0 0 0 0 0 1 2 -2 -1 -1 -2 2 1
MACRO       2  14   0  -1   0 : -4 2
MACRO       2  15   0  -1   0 : 0 -1 0 1
MACRO       2  16   0  -1   0 : 1 0
MACRO       2  17   0  -1   0 : 0 -1 0 2
MACRO       2  18   0  -1   0 : 0 -2 0 1
MACRO       2  19  -1  -1   0 : 4 -4 1 1 -4 4 -4 1 1 -4 4 -4 1 1 -4 4 -4 1 1 -4 4 -4 1 1 -4 4 -4 1 1 -4 3 -4 1 1 -4 3 -4 1 1 -4 3 -4 1 1 -4 3 -4 1 1 -4 3 -4 1 1 -4 3 -4 1 1 -4 3 -4 1 1 -4 3 -4 1 1 -4 3 -4 1 1 -4 3 -4 1 1 -4
MACRO       2  20   0  -1   0 : 0 -1 0 1
MACRO       2  21   0  -1   0 : 0 -1 0 1
MACRO       2  22   0  -1   0 : 0 -1 0 1
MACRO       2  23   0  -1   0 : 1
MACRO       2  24   0  -1   0 : 1
MACRO       2  25   0  -1   0 : 0 0 0 -1
MACRO       2  26   7  -1   0 : -32 16 8 4 2 1 1 1 3 -3 -2 -1 -3 3 2
MACRO       2  27   7  -1   0 : -32 16 8 4 2 1 1 1 3 -3 -2 -1 -3 3 2
MACRO       2  28   4  -1   0 : 0 0 0 0 -3 0 0 3 0 0
MACRO       2  29  16  -1   0 : 0 0 0 0 0 0 0 0 0 0 0 0 0 0 0 0 2 3 -3 -2 -2 -3 3 2
MACRO       2  30  16  -1   0 : 0 0 0 0 0 0 0 0 0 0 0 0 0 0 0 0 1 2 -2 -1 -1 -2 2 1
MACRO       2  31   0  -1   0 : 0 0 0 0 0 -1
MACRO       2  32   7  -1   0 : -32 16 8 4 2 1 1 1 3 -3 -2 -1 -3 3 2
MACRO       2  33  16  -1   0 : 0 0 0 0 0 0 0 0 0 0 0 0 0 0 0 0 1 2 -2 -1 -1 -2 2 1
MACRO       2  34   7  -1   0 : -32 16 8 4 2 1 1 1 3 -3 -2 -1 -3 3 2
MACRO       2  35   7  -1   0 : -32 16 8 4 2 1 1 1 3 -3 -2 -1 -3 3 2
MACRO       2  36   0  -1   0 : -8 -8 -8 8 8 8 8 8 8 -8 -8 -8
MACRO       2  37   7  -1   0 : -32 16 8 4 2 1 1 1 3 -3 -2 -1 -3 3 2
MACRO       2  38   0  -1   0 : -1
MACRO       2  39   0  -1   0 : -16 -16 -16 -16 4 4 4 4
MACRO       2  40   0  -1   0 : -1 0
MACRO       2  41   7  -1   0 : -32 16 8 4 2 1 1 1 3 -3 -2 -1 -3 3 2
MACRO       2  42   0  -1   0 : 0 -1 0 1
MACRO       2  43   0  -1   0 : 0 5 3 -7 0 3 -4 0 -7
MACRO       2  44   0  -1   0 : 1 0
MACRO       2  45   7  -1   0 : -32 16 8 4 2 1 1 1 3 -3 -2 -1 -3 3 2
MACRO       2  46   0  -1   0 : 0 -1 1
MACRO       2  47   7  -1   0 : -32 16 8 4 2 1 1 1 2 -2 -1 1 2 -2 -1
MACRO       2  48   7  -1   0 : -32 16 8 4 2 1 1 1 2 -2 -1 1 2 -2 -1
MACRO       2  49   7  -1   0 : -32 16 8 4 2 1 1 1 2 2 1 -1 -2 -2 -1
MACRO       2  50   7  -1   0 : -32 16 8 4 2 1 1 1 2 2 1 -1 -2 -2 -1
MACRO       2  51   7  -1   0 : -32 16 8 4 2 1 1 1 2 2 1 -1 -2 -2 -1
MACRO       2  52   7  -1   0 : -32 16 8 4 2 1 1 1 2 2 1 -1 -2 -2 -1
MACRO       2  53   7  -1   0 : -32 16 8 4 2 1 1 1 2 2 1 -1 -2 -2 -1
MACRO       2  54   7  -1   0 : -32 16 8 4 2 1 1 1 2 2 1 -1 -2 -2 -1
MACRO       2  55   7  -1   0 : -32 16 8 4 2 1 1 1 2 2 1 -1 -2 -2 -1
MACRO       2  56   7  -1   0 : -32 16 8 4 2 1 1 1 2 2 1 -1 -2 -2 -1
MACRO       2  57   7  -1   0 : -32 16 8 4 2 1 1 1 2 2 1 -1 -2 -2 -1
MACRO       2  58   7  -1   0 : -32 16 8 4 2 1 1 1 2 2 1 -1 -2 -2 -1
MACRO       2  59   7  -1   0 : -32 16 8 4 2 1 1 1 2 2 1 -1 -2 -2 -1
MACRO       2  60   7  -1   0 : -32 16 8 4 2 1 1 1 2 2 1 -1 -2 -2 -1
MACRO       2  61   7  -1   0 : -32 16 8 4 2 1 1 1 2 2 1 -1 -2 -2 -1
MACRO       2  62   7  -1   0 : -32 16 8 4 2 1 1 1 2 2 1 -1 -2 -2 -1
MACRO       2  63   7  -1   0 : -32 16 8 4 2 1 1 1 2 2 1 -1 -2 -2 -1
MACRO       2  64   3  -1   0 : 0 -2 2 0 1 0 0 -1 0 0 -1 0 0 1 0
MACRO       2  65  -1  -1   0 : 0 -10 15 -5
MACRO       2  66  -1  -1   0 : 8 -6 -2
MACRO       2  67   7  -1   0 : -32 16 8 4 2 1 1 1 3 -3 -2 -1 -3 3 2
MACRO       2  68  16  -1   0 : 0 0 0 0 0 0 0 0 0 0 0 0 0 0 0 0 1 1 -1 -1 -1 -1 1 1
MACRO       4   0  -1  -1   0 : 2
MACRO       4   1  -1  -1   0 : 2
MACRO       4   2  -1  -1   0 : 2
MACRO       4   3  -1  -1   0 : 0 0 2
MACRO       4   4  -1  -1   0 : 1
MACRO       4   5  -1  -1   0 : 2
MACRO       4   6  -1  -1   0 : 0 0 2
MACRO       4   7   0  -1   0 : 2
MACRO       4   8  -1  -1   0 : 2
MACRO       4   9  -1  -1   0 : 2
MACRO       4  10  -1  -1   0 : 2
MACRO       4  11  -1  -1   0 : 1
MACRO       4  12  -1  -1   0 : 1
MACRO       4  13  -1  -1   0 : 2
MACRO       4  14  -1  -1   0 : 0 0 2
MACRO       4  15  -1  -1   0 : 0 0 2
MACRO       4  16  -1  -1   0 : 0 0 2
MACRO       4  17  -1  -1   0 : 1 1 1 2
MACRO       4  18  -1  -1   0 : 3
MACRO       4  19  -1  -1   0 : 2 2 2 1
MACRO       4  20  -1  -1   0 : 2 2 2 1
MACRO       4  21  -1  -1   0 : 2
MACRO       4  22  -1  -1   0 : 2
MACRO       4  23  -1  -1   0 : 2 2 2 1
MACRO       4  24  -1  -1   0 : 1 1 1 2
MACRO       4  25  -1  -1   0 : 1 1 1 2
MACRO       4  26  -1  -1   0 : 0 0 2
MACRO       4  27  -1  -1   0 : 0 0 2
MACRO       4  28   2  -1   0 : 0 0 2
MACRO       4  29  -1  -1   0 : 0 0 2
MACRO       4  30  -1  -1   0 : 0 0 2
MACRO       4  31  -1  -1   0 : 0 0 2
MACRO       4  32  -1  -1   0 : 0 1
MACRO       4  33  -1  -1   0 : 0 0 2
MACRO       4  34  -1  -1   0 : 1 1 0
MACRO       4  35  -1  -1   0 : 0 0 2
MACRO       4  36  -1  -1   0 : 2
MACRO       4  37  -1  -1   0 : 1 1 1 2
MACRO       4  38  -1  -1   0 : 1
MACRO       4  39  -1  -1   0 : 1 1 2
MACRO       4  40   0  -1   0 : 0 0 0 1 1 1
MACRO       4  41   3  -1   0 : 0 0 0 0 2 2 2 0 0 0
MACRO       4  42  -1  -1   0 : 2
MACRO       4  43  -1  -1   0 : 1
MACRO       4  44   3  -1   0 : 0 0 0 0 2 2 2 0 0 0
MACRO       4  45  -1  -1   0 : 1 1 1 2
MACRO       4  46   0  -1   0 : 1 1 2
MACRO       4  47  -1  -1   0 : 0
MACRO       4  48   0  -1   0 : 1 1 2 1 1 1 1 2
MACRO       4  49  -1  -1   0 : 2
MACRO       4  50  -1  -1   0 : 2 2 2 2 2 2 2 1
MACRO       4  51  -1  -1   0 : 1
MACRO       4  52  -1  -1   0 : 2 2 2 2 2 2 2 1
MACRO       4  53  -1  -1   0 : 2 2 2 2 2 2 2 1
MACRO       4  54  -1  -1   0 : 1 1 2 2 0
MACRO       4  55  -1  -1   0 : 1 1 2 2 0
MACRO       4  56  -1  -1   0 : 2 2 2 0 0 0 1
MACRO       4  57  -1  -1   0 : 2
MACRO       4  58  -1  -1   0 : 1
MACRO       4  59   0  -1   0 : 1 1 1 0 0 0
MACRO       4  60   0  -1   0 : 1
MACRO       4  61  -1  -1   0 : 0
MACRO       4  62  -1  -1   0 : 0 0 2
MACRO       4  63  -1  -1   0 : 1 1 1 1 1 1 1 1 1 1 1 1 2
MACRO       4  64  -1  -1   0 : 1 1 1 1 0
MACRO       4  65  -1  -1   0 : 2 2 2 0 0 0 1
MACRO       4  66  -1  -1   0 : 2 2 2 0 0 0 1
MACRO       4  67  -1  -1   0 : 2 2 2 0 0 0 1
MACRO       4  68  -1  -1   0 : 2
MACRO       4  69  -1  -1   0 : 2 2 2 0 0 0 1
MACRO       4  70  -1  -1   0 : 2 2 2 0 0 0 1
MACRO       4  71  -1  -1   0 : 2 2 2 0 0 0 1
MACRO       4  72  -1  -1   0 : 2

# DPCM samples

# Instruments
INST2A03   0     6  -1   4  -1   4 "pluckin"
INST2A03   1    16  13  -1  -1  15 "Lead Guitar"
INST2A03   2     3  -1   2  -1   2 "wahwah"
INST2A03   3     4   3   3  -1   2 "lead2"
INST2A03   4     5   4  -1  -1   3 "Lead Guitar soft"
INST2A03   5     6   5  -1  -1  -1 "FOLLIN Hat"
INST2A03   6     7   6  -1  -1  -1 "FOLLIN Noise Kick"
INST2A03   7     8   7  -1  -1  -1 "Triangle Kick"
INST2A03   8    98  -1  66  -1  64 "accordion"
INST2A03   9    11   9  -1  -1   6 "Lead Guitar kinda soft"
INST2A03  10    13  -1   8  -1   9 "pitch up"
INST2A03  11    13  -1   9  -1  10 "pitch down"
INST2A03  12    30  24  24  -1  27 "Lead Guitar drop"
INST2A03  13    18  14  15  -1  17 "dum"
INST2A03  14    31  25   0  -1   0 "panpipe"
INST2A03  15    26  20  20  -1  23 "de"
INST2A03  16   106  -1  67  -1  -1 "triwah quiet"
INST2A03  17    36  -1  26  -1  -1 "triwah"
INST2A03  18    38  -1  27  -1  -1 "triwah 2"
INST2A03  19    39  32  28  -1  35 "panpipe"
INST2A03  20    40  -1  29  -1  36 "wahwah-tri"
INST2A03  21    42  33  -1  -1  -1 "FOLLIN Noise hat1 loud"
INST2A03  22    48  -1  34  -1  39 "triwah med"
INST2A03  23    97  -1  65  -1  -1 "tripipe"
INST2A03  24    51  -1  37  -1  41 "wahfade"
INST2A03  25    53  36  -1  -1  -1 "noise sweep"
INST2A03  26    54  -1  -1  -1  42 "blank"
INST2A03  27    56  -1  39  -1  42 "pitch up fast"
INST2A03  28    58  -1  40  -1  43 "pluckin"
INST2A03  29   107  -1  68  -1  72 "wahwah-tri hi"
INST2A03  31   102  -1  -1  -1  -1 "blank soft"
INST2A03  32    65  -1  45  -1  -1 "triwah2"
INST2A03  33    67  -1  -1  -1  50 "pluckin boogaloo"
INST2A03  34    70  -1  -1  -1  53 "pluckin troogaloo"
INST2A03  35    74  -1  47  -1  54 "plooky 1"
INST2A03  36    75  -1  48  -1  55 "plooky 2"
INST2A03  37   100  69  -1  -1  66 "0 7 9"
INST2A03  38    99  68  -1  -1  65 "0 4 7"
INST2A03  39    77  50  -1  -1  56 "0 3 7"
INST2A03  40   101  70  -1  -1  67 "0 5 9"
INST2A03  41   103  71  -1  -1  69 "0 4 9"
INST2A03  42   105  73  -1  -1  71 "0 3 8"
INST2A03  48    83  -1  54  -1  -1 "bw 0 delay"
INST2A03  49    88  55  55  -1  -1 "bw 0 4 delay"
INST2A03  50    85  56  56  -1  -1 "bw 0 3 delay"
INST2A03  51    86  57  57  -1  -1 "bw 0 6 delay"
INST2A03  52    87  58  58  -1  -1 "bw 0 7 delay"
INST2A03  53    89  -1  -1  -1  57 "quiet"
INST2A03  54    90  61  -1  -1  59 "rumbl"
INST2A03  55    -1  -1  -1  -1  -1 "New instrument"
INST2A03  56    92  62  60  -1  -1 "0 4 7"
INST2A03  57    93  63  61  -1  -1 "0 4 9"
INST2A03  58    94  64  62  -1  -1 "0 5 9"
INST2A03  59    95  65  63  -1  -1 "0 3 8"
INST2A03  60    -1  -1  -1  -1  63 "New instrument"

# Tracks

TRACK   8   6 150 "blank"
COLUMNS : 1 1 1 1 1

ORDER 00 : 00 00 00 00 00

PATTERN 00
ROW 00 : --- .. . ... : ... .. . ... : ... .. . ... : ... .. . ... : ... .. . ...
ROW 01 : ... .. . ... : ... .. . ... : ... .. . ... : ... .. . ... : ... .. . ...
ROW 02 : ... .. . ... : ... .. . ... : ... .. . ... : ... .. . ... : ... .. . ...
ROW 03 : ... .. . ... : ... .. . ... : ... .. . ... : ... .. . ... : ... .. . ...
ROW 04 : ... .. . ... : ... .. . ... : ... .. . ... : ... .. . ... : ... .. . ...
ROW 05 : ... .. . ... : ... .. . ... : ... .. . ... : ... .. . ... : ... .. . ...
ROW 06 : ... .. . ... : ... .. . ... : ... .. . ... : ... .. . ... : ... .. . ...
ROW 07 : ... .. . ... : ... .. . ... : ... .. . ... : ... .. . ... : ... .. . ...

TRACK  64   6 150 "intro"
COLUMNS : 1 1 1 1 1

ORDER 00 : 03 03 03 03 03
ORDER 01 : 0D 0E 0E 0E 08
ORDER 02 : 0A 0A 0A 0A 07
ORDER 03 : 0C 0D 0D 0D 09
ORDER 04 : 09 09 09 09 06
ORDER 05 : 10 11 11 11 0C
ORDER 06 : 12 13 13 13 0D
ORDER 07 : 13 14 14 14 0E
ORDER 08 : 14 15 15 15 0F
ORDER 09 : 0E 0F 0F 0F 0A
ORDER 0A : 1B 1C 1E 1D 00

PATTERN 00
ROW 00 : --- .. . ... : C-0 0D . ... : G-3 07 . ... : C-# 19 . ... : ... .. . ...
ROW 01 : ... .. . ... : --- .. . ... : C-3 1A . ... : ... .. . ... : ... .. . ...
ROW 02 : ... .. . ... : C-0 0D . ... : G-3 07 . ... : C-# 19 . ... : ... .. . ...
ROW 03 : ... .. . ... : --- .. . ... : C-3 1A . ... : ... .. . ... : ... .. . ...
ROW 04 : C-2 18 . ... : ... .. . ... : ... .. . ... : 8-# 15 . ... : ... .. . ...
ROW 05 : --- .. . ... : ... .. . ... : ... .. . ... : ... .. . ... : ... .. . ...
ROW 06 : ... .. . ... : ... .. . ... : C-3 07 . ... : C-# 19 . ... : ... .. . ...
ROW 07 : C-2 18 . ... : ... .. . ... : ... .. . ... : F-# 15 . ... : ... .. . ...
ROW 08 : --- .. . ... : ... .. . ... : G-3 1A . ... : ... .. . ... : ... .. . ...
ROW 09 : E-2 18 . ... : ... .. . ... : ... .. . ... : F-# 15 . ... : ... .. . ...
ROW 0A : --- .. . ... : ... .. . ... : G-3 07 . ... : C-# 19 . ... : ... .. . ...
ROW 0B : C-2 18 . ... : ... .. . ... : C-3 07 . ... : F-# 15 . ... : ... .. . ...
ROW 0C : E-2 18 . ... : ... .. . ... : ... .. . ... : 8-# 15 . ... : ... .. . ...
ROW 0D : --- .. . ... : ... .. . ... : ... .. . ... : ... .. . ... : ... .. . ...
ROW 0E : ... .. . ... : ... .. . ... : C-3 1A . ... : C-# 19 . ... : ... .. . ...
ROW 0F : G-2 18 . ... : ... .. . ... : ... .. . ... : F-# 15 . ... : ... .. . ...
ROW 10 : --- .. . ... : ... .. . ... : G-3 07 . ... : C-# 19 . ... : ... .. . ...
ROW 11 : ... .. . ... : ... .. . ... : C-3 1A . ... : ... .. . ... : ... .. . ...
ROW 12 : ... .. . ... : ... .. . ... : G-3 07 . ... : C-# 19 . ... : ... .. . ...
ROW 13 : ... .. . ... : ... .. . ... : E-3 1A . ... : ... .. . ... : ... .. . ...
ROW 14 : C-2 18 . ... : ... .. . ... : ... .. . ... : 8-# 15 . ... : ... .. . ...
ROW 15 : --- .. . ... : ... .. . ... : G-3 1A . ... : ... .. . ... : ... .. . ...
ROW 16 : ... .. . ... : ... .. . ... : C-3 07 . ... : C-# 19 . ... : ... .. . ...
ROW 17 : C-2 18 . ... : ... .. . ... : ... .. . ... : F-# 15 . ... : ... .. . ...
ROW 18 : --- .. . ... : ... .. . ... : C-4 1A . ... : ... .. . ... : ... .. . ...
ROW 19 : E-2 18 . ... : ... .. . ... : ... .. . ... : F-# 15 . ... : ... .. . ...
ROW 1A : --- .. . ... : ... .. . ... : G-3 07 . ... : C-# 19 . ... : ... .. . ...
ROW 1B : C-2 18 . ... : ... .. . ... : C-3 07 . ... : F-# 15 . ... : ... .. . ...
ROW 1C : E-2 18 . ... : ... .. . ... : E-3 1A . ... : 8-# 15 . ... : ... .. . ...
ROW 1D : --- .. . ... : ... .. . ... : ... .. . ... : ... .. . ... : ... .. . ...
ROW 1E : ... .. . ... : ... .. . ... : --- .. . ... : C-# 19 . ... : ... .. . ...
ROW 1F : G-2 18 . ... : ... .. . ... : ... .. . ... : F-# 15 . ... : ... .. . ...
ROW 20 : --- .. . ... : ... .. . ... : G-3 07 . ... : C-# 19 . ... : ... .. . ...
ROW 21 : ... .. . ... : ... .. . ... : C-3 1A . ... : ... .. . ... : ... .. . ...
ROW 22 : ... .. . ... : ... .. . ... : G-3 07 . ... : C-# 19 . ... : ... .. . ...
ROW 23 : ... .. . ... : ... .. . ... : C-3 1A . ... : ... .. . ... : ... .. . ...
ROW 24 : D-2 18 . ... : ... .. . ... : ... .. . ... : 8-# 15 . ... : ... .. . ...
ROW 25 : --- .. . ... : ... .. . ... : ... .. . ... : ... .. . ... : ... .. . ...
ROW 26 : ... .. . ... : ... .. . ... : C-3 07 . ... : C-# 19 . ... : ... .. . ...
ROW 27 : D-2 18 . ... : ... .. . ... : ... .. . ... : F-# 15 . ... : ... .. . ...
ROW 28 : --- .. . ... : ... .. . ... : G-3 1A . ... : ... .. . ... : ... .. . ...
ROW 29 : D-2 18 . ... : ... .. . ... : ... .. . ... : F-# 15 . ... : ... .. . ...
ROW 2A : --- .. . ... : ... .. . ... : G-3 07 . ... : C-# 19 . ... : ... .. . ...
ROW 2B : D-2 18 . ... : ... .. . ... : C-3 07 . ... : F-# 15 . ... : ... .. . ...
ROW 2C : D-2 18 . ... : ... .. . ... : ... .. . ... : 8-# 15 . ... : ... .. . ...
ROW 2D : --- .. . ... : ... .. . ... : ... .. . ... : ... .. . ... : ... .. . ...
ROW 2E : D-2 18 . ... : ... .. . ... : C-3 1A . ... : C-# 19 . ... : ... .. . ...
ROW 2F : --- .. . ... : ... .. . ... : ... .. . ... : F-# 15 . ... : ... .. . ...
ROW 30 : ... .. . ... : ... .. . ... : G-3 07 . ... : C-# 19 . ... : ... .. . ...
ROW 31 : ... .. . ... : ... .. . ... : C-3 1A . ... : ... .. . ... : ... .. . ...
ROW 32 : ... .. . ... : ... .. . ... : G-3 07 . ... : C-# 19 . ... : ... .. . ...
ROW 33 : ... .. . ... : ... .. . ... : E-3 1A . ... : ... .. . ... : ... .. . ...
ROW 34 : B-1 18 . ... : ... .. . ... : ... .. . ... : 8-# 15 . ... : ... .. . ...
ROW 35 : --- .. . ... : ... .. . ... : G-3 1A . ... : ... .. . ... : ... .. . ...
ROW 36 : ... .. . ... : ... .. . ... : C-3 07 . ... : C-# 19 . ... : ... .. . ...
ROW 37 : D-2 18 . ... : ... .. . ... : ... .. . ... : F-# 15 . ... : ... .. . ...
ROW 38 : --- .. . ... : ... .. . ... : C-4 1A . ... : ... .. . ... : ... .. . ...
ROW 39 : B-1 18 . ... : ... .. . ... : ... .. . ... : F-# 15 . ... : ... .. . ...
ROW 3A : --- .. . ... : ... .. . ... : G-3 07 . ... : C-# 19 . ... : ... .. . ...
ROW 3B : D-2 18 . ... : ... .. . ... : C-3 07 . ... : F-# 15 . ... : ... .. . ...
ROW 3C : F-2 18 . ... : ... .. . ... : E-3 1A . ... : 8-# 15 . ... : ... .. . ...
ROW 3D : A-2 18 . ... : ... .. . ... : ... .. . ... : ... .. . ... : ... .. . ...
ROW 3E : C-3 18 . ... : ... .. . ... : --- .. . ... : C-# 19 . ... : ... .. . ...
ROW 3F : ... .. . ... : ... .. . ... : ... .. . ... : F-# 15 . ... : ... .. . ...

PATTERN 01
ROW 00 : G-3 02 . ... : C-2 02 . ... : C-3 1A . ... : 1-# 19 . ... : ... .. . ...
ROW 01 : ... .. . ... : ... .. . ... : ... .. . ... : ... .. . ... : ... .. . ...
ROW 02 : ... .. . ... : ... .. . ... : ... .. . ... : 1-# 19 . ... : ... .. . ...
ROW 03 : ... .. . ... : ... .. . ... : ... .. . ... : ... .. . ... : ... .. . ...
ROW 04 : F-3 02 . ... : ... .. . ... : C-4 07 . ... : 8-# 05 . ... : ... .. . ...
ROW 05 : ... .. . ... : ... .. . ... : A-2 1A . ... : ... .. . ... : ... .. . ...
ROW 06 : E-3 02 . ... : ... .. . ... : ... .. . ... : ... .. . ... : ... .. . ...
ROW 07 : ... .. . ... : ... .. . ... : ... .. . ... : ... .. . ... : ... .. . ...
ROW 08 : D-3 02 . ... : A-1 02 . ... : ... .. . ... : 1-# 19 . ... : ... .. . ...
ROW 09 : ... .. . ... : ... .. . ... : ... .. . ... : ... .. . ... : ... .. . ...
ROW 0A : ... .. . ... : ... .. . ... : ... .. . ... : 1-# 19 . ... : ... .. . ...
ROW 0B : ... .. . ... : ... .. . ... : ... .. . ... : ... .. . ... : ... .. . ...
ROW 0C : C-3 02 . ... : E-2 02 . ... : C-4 07 . ... : 8-# 05 . ... : ... .. . ...
ROW 0D : ... .. . ... : ... .. . ... : E-3 1A . ... : ... .. . ... : ... .. . ...
ROW 0E : D-3 02 . ... : ... .. . ... : ... .. . ... : ... .. . ... : ... .. . ...
ROW 0F : ... .. . ... : ... .. . ... : ... .. . ... : ... .. . ... : ... .. . ...
ROW 10 : E-3 02 . ... : G-2 02 . ... : C-3 1A . ... : 1-# 19 . ... : ... .. . ...
ROW 11 : ... .. . ... : ... .. . ... : ... .. . ... : ... .. . ... : ... .. . ...
ROW 12 : ... .. . ... : ... .. . ... : ... .. . ... : 1-# 19 . ... : ... .. . ...
ROW 13 : ... .. . ... : ... .. . ... : ... .. . ... : ... .. . ... : ... .. . ...
ROW 14 : ... .. . ... : ... .. . ... : C-4 07 . ... : 8-# 05 . ... : ... .. . ...
ROW 15 : ... .. . ... : ... .. . ... : A-2 1A . ... : ... .. . ... : ... .. . ...
ROW 16 : ... .. . ... : ... .. . ... : ... .. . ... : ... .. . ... : ... .. . ...
ROW 17 : ... .. . ... : ... .. . ... : ... .. . ... : ... .. . ... : ... .. . ...
ROW 18 : ... .. . ... : ... .. . ... : ... .. . ... : 1-# 19 . ... : ... .. . ...
ROW 19 : ... .. . ... : ... .. . ... : ... .. . ... : ... .. . ... : ... .. . ...
ROW 1A : ... .. . ... : ... .. . ... : ... .. . ... : 1-# 19 . ... : ... .. . ...
ROW 1B : ... .. . ... : ... .. . ... : ... .. . ... : ... .. . ... : ... .. . ...
ROW 1C : ... .. . ... : ... .. . ... : C-4 07 . ... : 8-# 05 . ... : ... .. . ...
ROW 1D : ... .. . ... : ... .. . ... : E-3 1A . ... : ... .. . ... : ... .. . ...
ROW 1E : ... .. . ... : ... .. . ... : ... .. . ... : ... .. . ... : ... .. . ...
ROW 1F : ... .. . ... : ... .. . ... : ... .. . ... : ... .. . ... : ... .. . ...
ROW 20 : ... .. . ... : ... .. . ... : G-3 1A . ... : 1-# 19 . ... : ... .. . ...
ROW 21 : ... .. . ... : ... .. . ... : ... .. . ... : ... .. . ... : ... .. . ...
ROW 22 : ... .. . ... : ... .. . ... : ... .. . ... : 1-# 19 . ... : ... .. . ...
ROW 23 : ... .. . ... : ... .. . ... : ... .. . ... : ... .. . ... : ... .. . ...
ROW 24 : ... .. . ... : ... .. . ... : C-4 07 . ... : 8-# 05 . ... : ... .. . ...
ROW 25 : ... .. . ... : ... .. . ... : E-3 1A . ... : ... .. . ... : ... .. . ...
ROW 26 : ... .. . ... : ... .. . ... : ... .. . ... : ... .. . ... : ... .. . ...
ROW 27 : ... .. . ... : ... .. . ... : ... .. . ... : ... .. . ... : ... .. . ...
ROW 28 : ... .. . ... : ... .. . ... : C-3 1A . ... : 1-# 19 . ... : ... .. . ...
ROW 29 : ... .. . ... : ... .. . ... : ... .. . ... : ... .. . ... : ... .. . ...
ROW 2A : ... .. . ... : ... .. . ... : ... .. . ... : 1-# 19 . ... : ... .. . ...
ROW 2B : ... .. . ... : ... .. . ... : ... .. . ... : ... .. . ... : ... .. . ...
ROW 2C : ... .. . ... : ... .. . ... : C-4 07 . ... : 8-# 05 . ... : ... .. . ...
ROW 2D : ... .. . ... : ... .. . ... : E-3 1A . ... : ... .. . ... : ... .. . ...
ROW 2E : ... .. . ... : ... .. . ... : ... .. . ... : ... .. . ... : ... .. . ...
ROW 2F : ... .. . ... : ... .. . ... : ... .. . ... : ... .. . ... : ... .. . ...
ROW 30 : ... .. . ... : ... .. . ... : G-3 1A . ... : 1-# 19 . ... : ... .. . ...
ROW 31 : ... .. . ... : ... .. . ... : ... .. . ... : ... .. . ... : ... .. . ...
ROW 32 : ... .. . ... : ... .. . ... : ... .. . ... : 1-# 19 . ... : ... .. . ...
ROW 33 : ... .. . ... : ... .. . ... : ... .. . ... : ... .. . ... : ... .. . ...
ROW 34 : ... .. . ... : ... .. . ... : C-4 07 . ... : 8-# 05 . ... : ... .. . ...
ROW 35 : ... .. . ... : ... .. . ... : E-3 1A . ... : ... .. . ... : ... .. . ...
ROW 36 : ... .. . ... : ... .. . ... : ... .. . ... : ... .. . ... : ... .. . ...
ROW 37 : ... .. . ... : ... .. . ... : ... .. . ... : ... .. . ... : ... .. . ...
ROW 38 : ... .. . ... : ... .. . ... : C-3 1A . ... : 1-# 19 . ... : ... .. . ...
ROW 39 : ... .. . ... : ... .. . ... : ... .. . ... : ... .. . ... : ... .. . ...
ROW 3A : ... .. . ... : ... .. . ... : ... .. . ... : 1-# 19 . ... : ... .. . ...
ROW 3B : ... .. . ... : ... .. . ... : ... .. . ... : ... .. . ... : ... .. . ...
ROW 3C : ... .. . ... : ... .. . ... : C-4 07 . ... : 8-# 05 . ... : ... .. . ...
ROW 3D : ... .. . ... : ... .. . ... : E-3 1A . ... : ... .. . ... : ... .. . ...
ROW 3E : ... .. . ... : ... .. . ... : ... .. . ... : ... .. . ... : ... .. . ...
ROW 3F : ... .. . ... : ... .. . ... : ... .. . ... : ... .. . ... : ... .. . ...

PATTERN 02
ROW 00 : A-1 18 . ... : A-0 0D . ... : G-3 07 . ... : C-# 19 . ... : ... .. . ...
ROW 01 : ... .. . ... : ... .. . ... : C-3 1A . ... : ... .. . ... : ... .. . ...
ROW 02 : ... .. . ... : A-0 0D . ... : G-3 07 . ... : C-# 19 . ... : ... .. . ...
ROW 03 : ... .. . ... : ... .. . ... : G-3 1A . ... : ... .. . ... : ... .. . ...
ROW 04 : C-1 18 . ... : A-0 0D . ... : D-4 1A . ... : 8-# 15 . ... : ... .. . ...
ROW 05 : ... .. . ... : ... .. . ... : ... .. . ... : ... .. . ... : ... .. . ...
ROW 06 : ... .. . ... : A-0 0D . ... : C-3 07 . ... : C-# 19 . ... : ... .. . ...
ROW 07 : ... .. . ... : ... .. . ... : E-4 1A . ... : F-# 15 . ... : ... .. . ...
ROW 08 : A-1 18 . ... : A-0 0D . ... : ... .. . ... : ... .. . ... : ... .. . ...
ROW 09 : ... .. . ... : ... .. . ... : ... .. . ... : F-# 15 . ... : ... .. . ...
ROW 0A : ... .. . ... : A-0 0D . ... : G-3 07 . ... : C-# 19 . ... : ... .. . ...
ROW 0B : ... .. . ... : ... .. . ... : C-3 07 . ... : F-# 15 . ... : ... .. . ...
ROW 0C : C-1 18 . ... : A-0 0D . ... : D-4 1A . ... : 8-# 15 . ... : ... .. . ...
ROW 0D : ... .. . ... : ... .. . ... : C-4 1A . ... : ... .. . ... : ... .. . ...
ROW 0E : ... .. . ... : A-0 0D . ... : ... .. . ... : C-# 19 . ... : ... .. . ...
ROW 0F : ... .. . ... : ... .. . ... : ... .. . ... : F-# 15 . ... : ... .. . ...
ROW 10 : B-2 18 . ... : A-0 0D . ... : G-3 07 . ... : C-# 19 . ... : ... .. . ...
ROW 11 : ... .. . ... : ... .. . ... : C-3 1A . ... : ... .. . ... : ... .. . ...
ROW 12 : ... .. . ... : A-0 0D . ... : G-3 07 . ... : C-# 19 . ... : ... .. . ...
ROW 13 : ... .. . ... : ... .. . ... : G-3 1A . ... : ... .. . ... : ... .. . ...
ROW 14 : D-2 18 . ... : A-0 0D . ... : C-4 1A . ... : 8-# 15 . ... : ... .. . ...
ROW 15 : ... .. . ... : ... .. . ... : ... .. . ... : ... .. . ... : ... .. . ...
ROW 16 : ... .. . ... : A-0 0D . ... : C-3 07 . ... : C-# 19 . ... : ... .. . ...
ROW 17 : ... .. . ... : ... .. . ... : D-4 1A . ... : F-# 15 . ... : ... .. . ...
ROW 18 : B-2 18 . ... : A-0 0D . ... : ... .. . ... : ... .. . ... : ... .. . ...
ROW 19 : ... .. . ... : ... .. . ... : ... .. . ... : F-# 15 . ... : ... .. . ...
ROW 1A : ... .. . ... : A-0 0D . ... : G-3 07 . ... : C-# 19 . ... : ... .. . ...
ROW 1B : ... .. . ... : ... .. . ... : C-3 07 . ... : F-# 15 . ... : ... .. . ...
ROW 1C : D-2 18 . ... : A-0 0D . ... : C-4 1A . ... : 8-# 15 . ... : ... .. . ...
ROW 1D : ... .. . ... : ... .. . ... : B-3 1A . ... : ... .. . ... : ... .. . ...
ROW 1E : ... .. . ... : A-0 0D . ... : ... .. . ... : C-# 19 . ... : ... .. . ...
ROW 1F : ... .. . ... : ... .. . ... : ... .. . ... : F-# 15 . ... : ... .. . ...
ROW 20 : C-4 18 . ... : A-0 0D . ... : G-3 07 . ... : C-# 19 . ... : ... .. . ...
ROW 21 : ... .. . ... : ... .. . ... : C-3 1A . ... : ... .. . ... : ... .. . ...
ROW 22 : G-3 18 . ... : A-0 0D . ... : G-3 07 . ... : C-# 19 . ... : ... .. . ...
ROW 23 : ... .. . ... : ... .. . ... : C-3 1A . ... : ... .. . ... : ... .. . ...
ROW 24 : E-3 18 . ... : A-0 0D . ... : ... .. . ... : 8-# 15 . ... : ... .. . ...
ROW 25 : ... .. . ... : ... .. . ... : ... .. . ... : ... .. . ... : ... .. . ...
ROW 26 : G-3 18 . ... : A-0 0D . ... : C-3 07 . ... : C-# 19 . ... : ... .. . ...
ROW 27 : ... .. . ... : ... .. . ... : ... .. . ... : F-# 15 . ... : ... .. . ...
ROW 28 : C-4 18 . ... : A-0 0D . ... : G-3 1A . ... : ... .. . ... : ... .. . ...
ROW 29 : ... .. . ... : ... .. . ... : ... .. . ... : F-# 15 . ... : ... .. . ...
ROW 2A : G-3 18 . ... : A-0 0D . ... : G-3 07 . ... : C-# 19 . ... : ... .. . ...
ROW 2B : ... .. . ... : ... .. . ... : C-3 07 . ... : F-# 15 . ... : ... .. . ...
ROW 2C : E-3 18 . ... : A-0 0D . ... : ... .. . ... : 8-# 15 . ... : ... .. . ...
ROW 2D : ... .. . ... : ... .. . ... : ... .. . ... : ... .. . ... : ... .. . ...
ROW 2E : G-3 18 . ... : A-0 0D . ... : C-3 1A . ... : C-# 19 . ... : ... .. . ...
ROW 2F : ... .. . ... : ... .. . ... : ... .. . ... : F-# 15 . ... : ... .. . ...
ROW 30 : D-4 18 . ... : A-0 0D . ... : G-3 07 . ... : C-# 19 . ... : ... .. . ...
ROW 31 : ... .. . ... : ... .. . ... : C-3 1A . ... : ... .. . ... : ... .. . ...
ROW 32 : G-3 18 . ... : A-0 0D . ... : G-3 07 . ... : C-# 19 . ... : ... .. . ...
ROW 33 : ... .. . ... : ... .. . ... : E-3 1A . ... : ... .. . ... : ... .. . ...
ROW 34 : F-3 18 . ... : A-0 0D . ... : ... .. . ... : 8-# 15 . ... : ... .. . ...
ROW 35 : ... .. . ... : ... .. . ... : G-3 1A . ... : ... .. . ... : ... .. . ...
ROW 36 : A-3 18 . ... : A-0 0D . ... : C-3 07 . ... : C-# 19 . ... : ... .. . ...
ROW 37 : ... .. . ... : ... .. . ... : ... .. . ... : F-# 15 . ... : ... .. . ...
ROW 38 : E-4 18 . ... : A-0 0D . ... : C-4 1A . ... : ... .. . ... : ... .. . ...
ROW 39 : ... .. . ... : ... .. . ... : ... .. . ... : F-# 15 . ... : ... .. . ...
ROW 3A : ... .. . ... : A-0 0D . ... : G-3 07 . ... : C-# 19 . ... : ... .. . ...
ROW 3B : ... .. . ... : ... .. . ... : C-3 07 . ... : F-# 15 . ... : ... .. . ...
ROW 3C : ... .. . ... : A-0 0D . ... : E-3 1A . ... : 8-# 15 . ... : ... .. . ...
ROW 3D : ... .. . ... : ... .. . ... : ... .. . ... : ... .. . ... : ... .. . ...
ROW 3E : ... .. . ... : A-0 0D . ... : --- .. . ... : C-# 19 . ... : ... .. . ...
ROW 3F : ... .. . ... : ... .. . ... : ... .. . ... : F-# 15 . ... : ... .. . ...

PATTERN 03
ROW 00 : --- .. . ... : A-0 0D . ... : --- .. . ... : --- .. . ... : ... .. . ...
ROW 01 : ... .. . ... : ... .. . ... : ... .. . ... : ... .. . ... : ... .. . ...
ROW 02 : ... .. . ... : A-0 0F . ... : ... .. . ... : ... .. . ... : ... .. . ...
ROW 03 : ... .. . ... : ... .. . ... : ... .. . ... : ... .. . ... : ... .. . ...
ROW 04 : C-2 18 . ... : ... .. . ... : ... .. . ... : ... .. . ... : ... .. . ...
ROW 05 : --- .. . ... : ... .. . ... : ... .. . ... : ... .. . ... : ... .. . ...
ROW 06 : ... .. . ... : A-0 0D . ... : ... .. . ... : ... .. . ... : ... .. . ...
ROW 07 : C-2 18 . ... : ... .. . ... : ... .. . ... : ... .. . ... : ... .. . ...
ROW 08 : --- .. . ... : ... .. . ... : ... .. . ... : ... .. . ... : ... .. . ...
ROW 09 : C-2 18 . ... : ... .. . ... : ... .. . ... : ... .. . ... : ... .. . ...
ROW 0A : --- .. . ... : A-0 0D . ... : ... .. . ... : ... .. . ... : ... .. . ...
ROW 0B : C-2 18 . ... : ... .. . ... : ... .. . ... : ... .. . ... : ... .. . ...
ROW 0C : C-2 18 . ... : ... .. . ... : ... .. . ... : ... .. . ... : ... .. . ...
ROW 0D : --- .. . ... : ... .. . ... : ... .. . ... : ... .. . ... : ... .. . ...
ROW 0E : C-2 18 . ... : A-0 0F . ... : ... .. . ... : ... .. . ... : ... .. . ...
ROW 0F : --- .. . ... : ... .. . ... : ... .. . ... : ... .. . ... : ... .. . ...
ROW 10 : ... .. . ... : A-0 0D . ... : ... .. . ... : ... .. . ... : ... .. . ...
ROW 11 : ... .. . ... : ... .. . ... : ... .. . ... : ... .. . ... : ... .. . ...
ROW 12 : ... .. . ... : A-0 0F . ... : ... .. . ... : ... .. . ... : ... .. . ...
ROW 13 : ... .. . ... : ... .. . ... : ... .. . ... : ... .. . ... : ... .. . ...
ROW 14 : C-2 18 . ... : ... .. . ... : ... .. . ... : ... .. . ... : ... .. . ...
ROW 15 : --- .. . ... : ... .. . ... : ... .. . ... : ... .. . ... : ... .. . ...
ROW 16 : ... .. . ... : A-0 0D . ... : ... .. . ... : ... .. . ... : ... .. . ...
ROW 17 : C-2 18 . ... : ... .. . ... : ... .. . ... : ... .. . ... : ... .. . ...
ROW 18 : --- .. . ... : ... .. . ... : ... .. . ... : ... .. . ... : ... .. . ...
ROW 19 : C-2 18 . ... : ... .. . ... : ... .. . ... : ... .. . ... : ... .. . ...
ROW 1A : --- .. . ... : A-0 0D . ... : ... .. . ... : ... .. . ... : ... .. . ...
ROW 1B : C-2 18 . ... : ... .. . ... : ... .. . ... : ... .. . ... : ... .. . ...
ROW 1C : C-2 18 . ... : ... .. . ... : ... .. . ... : ... .. . ... : ... .. . ...
ROW 1D : --- .. . ... : ... .. . ... : ... .. . ... : ... .. . ... : ... .. . ...
ROW 1E : C-2 18 . ... : A-0 0F . ... : ... .. . ... : ... .. . ... : ... .. . ...
ROW 1F : --- .. . ... : ... .. . ... : ... .. . ... : ... .. . ... : ... .. . ...
ROW 20 : ... .. . ... : A-0 0D . ... : ... .. . ... : ... .. . ... : ... .. . ...
ROW 21 : ... .. . ... : ... .. . ... : ... .. . ... : ... .. . ... : ... .. . ...
ROW 22 : ... .. . ... : A-0 0F . ... : ... .. . ... : ... .. . ... : ... .. . ...
ROW 23 : ... .. . ... : ... .. . ... : ... .. . ... : ... .. . ... : ... .. . ...
ROW 24 : D-2 18 . ... : ... .. . ... : ... .. . ... : ... .. . ... : ... .. . ...
ROW 25 : --- .. . ... : ... .. . ... : ... .. . ... : ... .. . ... : ... .. . ...
ROW 26 : ... .. . ... : A-0 0D . ... : ... .. . ... : ... .. . ... : ... .. . ...
ROW 27 : D-2 18 . ... : ... .. . ... : ... .. . ... : ... .. . ... : ... .. . ...
ROW 28 : --- .. . ... : ... .. . ... : ... .. . ... : ... .. . ... : ... .. . ...
ROW 29 : D-2 18 . ... : ... .. . ... : ... .. . ... : ... .. . ... : ... .. . ...
ROW 2A : --- .. . ... : A-0 0D . ... : ... .. . ... : ... .. . ... : ... .. . ...
ROW 2B : D-2 18 . ... : ... .. . ... : ... .. . ... : ... .. . ... : ... .. . ...
ROW 2C : D-2 18 . ... : ... .. . ... : ... .. . ... : ... .. . ... : ... .. . ...
ROW 2D : --- .. . ... : ... .. . ... : ... .. . ... : ... .. . ... : ... .. . ...
ROW 2E : D-2 18 . ... : A-0 0F . ... : ... .. . ... : ... .. . ... : ... .. . ...
ROW 2F : --- .. . ... : ... .. . ... : ... .. . ... : ... .. . ... : ... .. . ...
ROW 30 : ... .. . ... : A-0 0D . ... : ... .. . ... : ... .. . ... : ... .. . ...
ROW 31 : ... .. . ... : ... .. . ... : ... .. . ... : ... .. . ... : ... .. . ...
ROW 32 : ... .. . ... : A-0 0F . ... : ... .. . ... : ... .. . ... : ... .. . ...
ROW 33 : ... .. . ... : ... .. . ... : ... .. . ... : ... .. . ... : ... .. . ...
ROW 34 : B-1 18 . ... : ... .. . ... : ... .. . ... : ... .. . ... : ... .. . ...
ROW 35 : --- .. . ... : ... .. . ... : ... .. . ... : ... .. . ... : ... .. . ...
ROW 36 : ... .. . ... : A-0 0D . ... : ... .. . ... : ... .. . ... : ... .. . ...
ROW 37 : D-2 18 . ... : ... .. . ... : ... .. . ... : ... .. . ... : ... .. . ...
ROW 38 : --- .. . ... : ... .. . ... : ... .. . ... : ... .. . ... : ... .. . ...
ROW 39 : B-1 18 . ... : ... .. . ... : ... .. . ... : ... .. . ... : ... .. . ...
ROW 3A : --- .. . ... : A-0 0D . ... : ... .. . ... : ... .. . ... : ... .. . ...
ROW 3B : B-1 18 . ... : ... .. . ... : ... .. . ... : ... .. . ... : ... .. . ...
ROW 3C : C-2 18 . ... : ... .. . ... : ... .. . ... : ... .. . ... : ... .. . ...
ROW 3D : --- .. . ... : ... .. . ... : ... .. . ... : ... .. . ... : ... .. . ...
ROW 3E : B-1 18 . ... : A-0 0F . ... : ... .. . ... : ... .. . ... : ... .. . ...
ROW 3F : --- .. . ... : ... .. . ... : ... .. . ... : ... .. . ... : ... .. . ...

PATTERN 04
ROW 00 : --- .. . ... : A-0 0D . ... : G-3 07 . ... : C-# 19 . ... : ... .. . ...
ROW 01 : ... .. . ... : ... .. . ... : ... .. . ... : ... .. . ... : ... .. . ...
ROW 02 : ... .. . ... : A-0 0F . ... : G-3 07 . ... : C-# 19 . ... : ... .. . ...
ROW 03 : ... .. . ... : ... .. . ... : ... .. . ... : ... .. . ... : ... .. . ...
ROW 04 : C-2 18 . ... : ... .. . ... : ... .. . ... : 8-# 15 . ... : ... .. . ...
ROW 05 : --- .. . ... : ... .. . ... : ... .. . ... : ... .. . ... : ... .. . ...
ROW 06 : ... .. . ... : A-0 0D . ... : C-3 07 . ... : C-# 19 . ... : ... .. . ...
ROW 07 : C-2 18 . ... : ... .. . ... : ... .. . ... : F-# 15 . ... : ... .. . ...
ROW 08 : --- .. . ... : ... .. . ... : ... .. . ... : ... .. . ... : ... .. . ...
ROW 09 : C-2 18 . ... : ... .. . ... : ... .. . ... : F-# 15 . ... : ... .. . ...
ROW 0A : --- .. . ... : A-0 0D . ... : G-3 07 . ... : C-# 19 . ... : ... .. . ...
ROW 0B : C-2 18 . ... : ... .. . ... : C-3 07 . ... : F-# 15 . ... : ... .. . ...
ROW 0C : C-2 18 . ... : ... .. . ... : ... .. . ... : 8-# 15 . ... : ... .. . ...
ROW 0D : --- .. . ... : ... .. . ... : ... .. . ... : ... .. . ... : ... .. . ...
ROW 0E : ... .. . ... : A-0 0F . ... : ... .. . ... : C-# 19 . ... : ... .. . ...
ROW 0F : C-2 18 . ... : ... .. . ... : ... .. . ... : F-# 15 . ... : ... .. . ...
ROW 10 : --- .. . ... : A-0 0D . ... : G-3 07 . ... : C-# 19 . ... : ... .. . ...
ROW 11 : ... .. . ... : ... .. . ... : ... .. . ... : ... .. . ... : ... .. . ...
ROW 12 : ... .. . ... : A-0 0F . ... : G-3 07 . ... : C-# 19 . ... : ... .. . ...
ROW 13 : ... .. . ... : ... .. . ... : ... .. . ... : ... .. . ... : ... .. . ...
ROW 14 : C-2 18 . ... : ... .. . ... : ... .. . ... : 8-# 15 . ... : ... .. . ...
ROW 15 : --- .. . ... : ... .. . ... : ... .. . ... : ... .. . ... : ... .. . ...
ROW 16 : ... .. . ... : A-0 0D . ... : C-3 07 . ... : C-# 19 . ... : ... .. . ...
ROW 17 : C-2 18 . ... : ... .. . ... : ... .. . ... : F-# 15 . ... : ... .. . ...
ROW 18 : --- .. . ... : ... .. . ... : ... .. . ... : ... .. . ... : ... .. . ...
ROW 19 : C-2 18 . ... : ... .. . ... : ... .. . ... : F-# 15 . ... : ... .. . ...
ROW 1A : --- .. . ... : A-0 0D . ... : G-3 07 . ... : C-# 19 . ... : ... .. . ...
ROW 1B : C-2 18 . ... : ... .. . ... : C-3 07 . ... : F-# 15 . ... : ... .. . ...
ROW 1C : C-2 18 . ... : ... .. . ... : ... .. . ... : 8-# 15 . ... : ... .. . ...
ROW 1D : --- .. . ... : ... .. . ... : ... .. . ... : ... .. . ... : ... .. . ...
ROW 1E : ... .. . ... : A-0 0F . ... : ... .. . ... : C-# 19 . ... : ... .. . ...
ROW 1F : C-2 18 . ... : ... .. . ... : ... .. . ... : F-# 15 . ... : ... .. . ...
ROW 20 : --- .. . ... : A-0 0D . ... : G-3 07 . ... : C-# 19 . ... : ... .. . ...
ROW 21 : ... .. . ... : ... .. . ... : ... .. . ... : ... .. . ... : ... .. . ...
ROW 22 : ... .. . ... : A-0 0F . ... : G-3 07 . ... : C-# 19 . ... : ... .. . ...
ROW 23 : ... .. . ... : ... .. . ... : ... .. . ... : ... .. . ... : ... .. . ...
ROW 24 : D-2 18 . ... : ... .. . ... : ... .. . ... : 8-# 15 . ... : ... .. . ...
ROW 25 : --- .. . ... : ... .. . ... : ... .. . ... : ... .. . ... : ... .. . ...
ROW 26 : ... .. . ... : A-0 0D . ... : C-3 07 . ... : C-# 19 . ... : ... .. . ...
ROW 27 : D-2 18 . ... : ... .. . ... : ... .. . ... : F-# 15 . ... : ... .. . ...
ROW 28 : --- .. . ... : ... .. . ... : ... .. . ... : ... .. . ... : ... .. . ...
ROW 29 : D-2 18 . ... : ... .. . ... : ... .. . ... : F-# 15 . ... : ... .. . ...
ROW 2A : --- .. . ... : A-0 0D . ... : G-3 07 . ... : C-# 19 . ... : ... .. . ...
ROW 2B : D-2 18 . ... : ... .. . ... : C-3 07 . ... : F-# 15 . ... : ... .. . ...
ROW 2C : D-2 18 . ... : ... .. . ... : ... .. . ... : 8-# 15 . ... : ... .. . ...
ROW 2D : --- .. . ... : ... .. . ... : ... .. . ... : ... .. . ... : ... .. . ...
ROW 2E : ... .. . ... : A-0 0F . ... : ... .. . ... : C-# 19 . ... : ... .. . ...
ROW 2F : D-2 18 . ... : ... .. . ... : ... .. . ... : F-# 15 . ... : ... .. . ...
ROW 30 : --- .. . ... : A-0 0D . ... : G-3 07 . ... : C-# 19 . ... : ... .. . ...
ROW 31 : ... .. . ... : ... .. . ... : ... .. . ... : ... .. . ... : ... .. . ...
ROW 32 : ... .. . ... : A-0 0F . ... : G-3 07 . ... : C-# 19 . ... : ... .. . ...
ROW 33 : ... .. . ... : ... .. . ... : ... .. . ... : ... .. . ... : ... .. . ...
ROW 34 : E-2 18 . ... : ... .. . ... : ... .. . ... : 8-# 15 . ... : ... .. . ...
ROW 35 : --- .. . ... : ... .. . ... : ... .. . ... : ... .. . ... : ... .. . ...
ROW 36 : ... .. . ... : A-0 0D . ... : C-3 07 . ... : C-# 19 . ... : ... .. . ...
ROW 37 : E-2 18 . ... : ... .. . ... : ... .. . ... : F-# 15 . ... : ... .. . ...
ROW 38 : --- .. . ... : ... .. . ... : ... .. . ... : ... .. . ... : ... .. . ...
ROW 39 : E-2 18 . ... : ... .. . ... : ... .. . ... : F-# 15 . ... : ... .. . ...
ROW 3A : --- .. . ... : A-0 0D . ... : G-3 07 . ... : C-# 19 . ... : ... .. . ...
ROW 3B : E-2 18 . ... : ... .. . ... : C-3 07 . ... : F-# 15 . ... : ... .. . ...
ROW 3C : E-2 18 . ... : ... .. . ... : ... .. . ... : 8-# 15 . ... : ... .. . ...
ROW 3D : --- .. . ... : ... .. . ... : ... .. . ... : ... .. . ... : ... .. . ...
ROW 3E : ... .. . ... : A-0 0F . ... : ... .. . ... : C-# 19 . ... : ... .. . ...
ROW 3F : E-2 18 . ... : ... .. . ... : ... .. . ... : F-# 15 . ... : ... .. . ...

PATTERN 05
ROW 00 : --- .. . ... : A-0 0D . ... : G-3 07 . ... : C-# 19 . ... : ... .. . ...
ROW 01 : ... .. . ... : ... .. . ... : ... .. . ... : ... .. . ... : ... .. . ...
ROW 02 : ... .. . ... : A-0 0F . ... : G-3 07 . ... : C-# 19 . ... : ... .. . ...
ROW 03 : ... .. . ... : ... .. . ... : ... .. . ... : ... .. . ... : ... .. . ...
ROW 04 : C-2 18 . ... : ... .. . ... : ... .. . ... : 8-# 15 . ... : ... .. . ...
ROW 05 : --- .. . ... : ... .. . ... : ... .. . ... : ... .. . ... : ... .. . ...
ROW 06 : ... .. . ... : A-0 0D . ... : C-3 07 . ... : C-# 19 . ... : ... .. . ...
ROW 07 : D-2 18 . ... : ... .. . ... : ... .. . ... : F-# 15 . ... : ... .. . ...
ROW 08 : --- .. . ... : ... .. . ... : ... .. . ... : ... .. . ... : ... .. . ...
ROW 09 : E-2 18 . ... : ... .. . ... : ... .. . ... : F-# 15 . ... : ... .. . ...
ROW 0A : --- .. . ... : A-0 0D . ... : G-3 07 . ... : C-# 19 . ... : ... .. . ...
ROW 0B : C-2 18 . ... : ... .. . ... : C-3 07 . ... : F-# 15 . ... : ... .. . ...
ROW 0C : D-2 18 . ... : ... .. . ... : ... .. . ... : 8-# 15 . ... : ... .. . ...
ROW 0D : --- .. . ... : ... .. . ... : ... .. . ... : ... .. . ... : ... .. . ...
ROW 0E : ... .. . ... : A-0 0F . ... : ... .. . ... : C-# 19 . ... : ... .. . ...
ROW 0F : E-2 18 . ... : ... .. . ... : ... .. . ... : F-# 15 . ... : ... .. . ...
ROW 10 : --- .. . ... : A-0 0D . ... : G-3 07 . ... : C-# 19 . ... : ... .. . ...
ROW 11 : ... .. . ... : ... .. . ... : ... .. . ... : ... .. . ... : ... .. . ...
ROW 12 : ... .. . ... : A-0 0F . ... : G-3 07 . ... : C-# 19 . ... : ... .. . ...
ROW 13 : ... .. . ... : ... .. . ... : ... .. . ... : ... .. . ... : ... .. . ...
ROW 14 : C-2 18 . ... : ... .. . ... : ... .. . ... : 8-# 15 . ... : ... .. . ...
ROW 15 : --- .. . ... : ... .. . ... : ... .. . ... : ... .. . ... : ... .. . ...
ROW 16 : ... .. . ... : A-0 0D . ... : C-3 07 . ... : C-# 19 . ... : ... .. . ...
ROW 17 : C-2 18 . ... : ... .. . ... : ... .. . ... : F-# 15 . ... : ... .. . ...
ROW 18 : --- .. . ... : ... .. . ... : ... .. . ... : ... .. . ... : ... .. . ...
ROW 19 : C-2 18 . ... : ... .. . ... : ... .. . ... : F-# 15 . ... : ... .. . ...
ROW 1A : --- .. . ... : A-0 0D . ... : G-3 07 . ... : C-# 19 . ... : ... .. . ...
ROW 1B : C-2 18 . ... : ... .. . ... : C-3 07 . ... : F-# 15 . ... : ... .. . ...
ROW 1C : C-2 18 . ... : ... .. . ... : ... .. . ... : 8-# 15 . ... : ... .. . ...
ROW 1D : --- .. . ... : ... .. . ... : ... .. . ... : ... .. . ... : ... .. . ...
ROW 1E : ... .. . ... : A-0 0F . ... : ... .. . ... : C-# 19 . ... : ... .. . ...
ROW 1F : C-2 18 . ... : ... .. . ... : ... .. . ... : F-# 15 . ... : ... .. . ...
ROW 20 : --- .. . ... : A-0 0D . ... : G-3 07 . ... : C-# 19 . ... : ... .. . ...
ROW 21 : ... .. . ... : ... .. . ... : ... .. . ... : ... .. . ... : ... .. . ...
ROW 22 : ... .. . ... : A-0 0F . ... : G-3 07 . ... : C-# 19 . ... : ... .. . ...
ROW 23 : ... .. . ... : ... .. . ... : ... .. . ... : ... .. . ... : ... .. . ...
ROW 24 : E-2 18 . ... : ... .. . ... : ... .. . ... : 8-# 15 . ... : ... .. . ...
ROW 25 : --- .. . ... : ... .. . ... : ... .. . ... : ... .. . ... : ... .. . ...
ROW 26 : ... .. . ... : A-0 0D . ... : C-3 07 . ... : C-# 19 . ... : ... .. . ...
ROW 27 : D-2 18 . ... : ... .. . ... : ... .. . ... : F-# 15 . ... : ... .. . ...
ROW 28 : --- .. . ... : ... .. . ... : ... .. . ... : ... .. . ... : ... .. . ...
ROW 29 : E-2 18 . ... : ... .. . ... : ... .. . ... : F-# 15 . ... : ... .. . ...
ROW 2A : --- .. . ... : A-0 0D . ... : G-3 07 . ... : C-# 19 . ... : ... .. . ...
ROW 2B : F-2 18 . ... : ... .. . ... : C-3 07 . ... : F-# 15 . ... : ... .. . ...
ROW 2C : G-2 18 . ... : ... .. . ... : ... .. . ... : 8-# 15 . ... : ... .. . ...
ROW 2D : --- .. . ... : ... .. . ... : ... .. . ... : ... .. . ... : ... .. . ...
ROW 2E : ... .. . ... : A-0 0F . ... : ... .. . ... : C-# 19 . ... : ... .. . ...
ROW 2F : C-3 18 . ... : ... .. . ... : ... .. . ... : F-# 15 . ... : ... .. . ...
ROW 30 : --- .. . ... : A-0 0D . ... : G-3 07 . ... : C-# 19 . ... : ... .. . ...
ROW 31 : ... .. . ... : ... .. . ... : ... .. . ... : ... .. . ... : ... .. . ...
ROW 32 : ... .. . ... : A-0 0F . ... : G-3 07 . ... : C-# 19 . ... : ... .. . ...
ROW 33 : ... .. . ... : ... .. . ... : ... .. . ... : ... .. . ... : ... .. . ...
ROW 34 : C-2 18 . ... : ... .. . ... : ... .. . ... : 8-# 15 . ... : ... .. . ...
ROW 35 : --- .. . ... : ... .. . ... : ... .. . ... : ... .. . ... : ... .. . ...
ROW 36 : ... .. . ... : A-0 0D . ... : C-3 07 . ... : C-# 19 . ... : ... .. . ...
ROW 37 : C-2 18 . ... : ... .. . ... : ... .. . ... : F-# 15 . ... : ... .. . ...
ROW 38 : --- .. . ... : ... .. . ... : ... .. . ... : ... .. . ... : ... .. . ...
ROW 39 : C-2 18 . ... : ... .. . ... : ... .. . ... : F-# 15 . ... : ... .. . ...
ROW 3A : --- .. . ... : A-0 0D . ... : G-3 07 . ... : C-# 19 . ... : ... .. . ...
ROW 3B : C-2 18 . ... : ... .. . ... : C-3 07 . ... : F-# 15 . ... : ... .. . ...
ROW 3C : C-2 18 . ... : ... .. . ... : ... .. . ... : 8-# 15 . ... : ... .. . ...
ROW 3D : --- .. . ... : ... .. . ... : ... .. . ... : ... .. . ... : ... .. . ...
ROW 3E : ... .. . ... : A-0 0F . ... : ... .. . ... : C-# 19 . ... : ... .. . ...
ROW 3F : C-2 18 . ... : ... .. . ... : ... .. . ... : F-# 15 . ... : ... .. . ...

PATTERN 06
ROW 00 : --- .. . ... : A-0 0D . ... : G-3 07 . ... : C-# 19 . ... : ... .. . ...
ROW 01 : ... .. . ... : ... .. . ... : G-3 07 . ... : C-# 19 . ... : ... .. . ...
ROW 02 : ... .. . ... : ... .. . ... : ... .. . ... : 8-# 15 . ... : ... .. . ...
ROW 03 : ... .. . ... : A-0 0D . ... : G-3 07 . ... : F-# 15 . ... : ... .. . ...
ROW 04 : C-2 18 . ... : ... .. . ... : ... .. . ... : ... .. . ... : ... .. . ...
ROW 05 : --- .. . ... : A-0 0D . ... : G-3 07 . ... : F-# 15 . ... : ... .. . ...
ROW 06 : ... .. . ... : ... .. . ... : G-3 07 . ... : 8-# 15 . ... : ... .. . ...
ROW 07 : C-2 18 . ... : A-0 0F . ... : G-3 07 . ... : F-# 15 . ... : ... .. . ...
ROW 08 : --- .. . ... : A-0 0D . ... : G-3 07 . ... : C-# 19 . ... : ... .. . ...
ROW 09 : E-2 18 . ... : ... .. . ... : G-3 07 . ... : C-# 19 . ... : ... .. . ...
ROW 0A : --- .. . ... : ... .. . ... : ... .. . ... : 8-# 15 . ... : ... .. . ...
ROW 0B : C-2 18 . ... : A-0 0D . ... : G-3 07 . ... : F-# 15 . ... : ... .. . ...
ROW 0C : E-2 18 . ... : ... .. . ... : ... .. . ... : ... .. . ... : ... .. . ...
ROW 0D : --- .. . ... : A-0 0D . ... : G-3 07 . ... : F-# 15 . ... : ... .. . ...
ROW 0E : ... .. . ... : ... .. . ... : G-3 07 . ... : 8-# 15 . ... : ... .. . ...
ROW 0F : G-2 18 . ... : A-0 0F . ... : G-3 07 . ... : F-# 15 . ... : ... .. . ...
ROW 10 : --- .. . ... : A-0 0D . ... : G-3 07 . ... : C-# 19 . ... : ... .. . ...
ROW 11 : ... .. . ... : ... .. . ... : G-3 07 . ... : C-# 19 . ... : ... .. . ...
ROW 12 : ... .. . ... : ... .. . ... : ... .. . ... : 8-# 15 . ... : ... .. . ...
ROW 13 : ... .. . ... : A-0 0D . ... : G-3 07 . ... : F-# 15 . ... : ... .. . ...
ROW 14 : C-2 18 . ... : ... .. . ... : ... .. . ... : ... .. . ... : ... .. . ...
ROW 15 : --- .. . ... : A-0 0D . ... : G-3 07 . ... : F-# 15 . ... : ... .. . ...
ROW 16 : ... .. . ... : ... .. . ... : G-3 07 . ... : 8-# 15 . ... : ... .. . ...
ROW 17 : C-2 18 . ... : A-0 0F . ... : G-3 07 . ... : F-# 15 . ... : ... .. . ...
ROW 18 : --- .. . ... : A-0 0D . ... : G-3 07 . ... : C-# 19 . ... : ... .. . ...
ROW 19 : E-2 18 . ... : ... .. . ... : G-3 07 . ... : C-# 19 . ... : ... .. . ...
ROW 1A : --- .. . ... : ... .. . ... : ... .. . ... : 8-# 15 . ... : ... .. . ...
ROW 1B : C-2 18 . ... : A-0 0D . ... : G-3 07 . ... : F-# 15 . ... : ... .. . ...
ROW 1C : E-2 18 . ... : ... .. . ... : ... .. . ... : ... .. . ... : ... .. . ...
ROW 1D : --- .. . ... : A-0 0D . ... : G-3 07 . ... : F-# 15 . ... : ... .. . ...
ROW 1E : ... .. . ... : ... .. . ... : G-3 07 . ... : 8-# 15 . ... : ... .. . ...
ROW 1F : G-2 18 . ... : A-0 0F . ... : G-3 07 . ... : F-# 15 . ... : ... .. . ...
ROW 20 : --- .. . ... : A-0 0D . ... : ... .. . ... : ... .. . ... : ... .. . ...
ROW 21 : ... .. . ... : ... .. . ... : ... .. . ... : ... .. . ... : ... .. . ...
ROW 22 : ... .. . ... : A-0 0F . ... : ... .. . ... : ... .. . ... : ... .. . ...
ROW 23 : ... .. . ... : ... .. . ... : ... .. . ... : ... .. . ... : ... .. . ...
ROW 24 : ... .. . ... : ... .. . ... : ... .. . ... : ... .. . ... : ... .. . ...
ROW 25 : ... .. . ... : ... .. . ... : ... .. . ... : ... .. . ... : ... .. . ...
ROW 26 : ... .. . ... : A-0 0D . ... : ... .. . ... : ... .. . ... : ... .. . ...
ROW 27 : ... .. . ... : ... .. . ... : ... .. . ... : ... .. . ... : ... .. . ...
ROW 28 : ... .. . ... : ... .. . ... : ... .. . ... : ... .. . ... : ... .. . ...
ROW 29 : ... .. . ... : ... .. . ... : ... .. . ... : ... .. . ... : ... .. . ...
ROW 2A : ... .. . ... : A-0 0D . ... : ... .. . ... : ... .. . ... : ... .. . ...
ROW 2B : ... .. . ... : ... .. . ... : ... .. . ... : ... .. . ... : ... .. . ...
ROW 2C : ... .. . ... : ... .. . ... : ... .. . ... : ... .. . ... : ... .. . ...
ROW 2D : ... .. . ... : ... .. . ... : ... .. . ... : ... .. . ... : ... .. . ...
ROW 2E : ... .. . ... : A-0 0F . ... : ... .. . ... : ... .. . ... : ... .. . ...
ROW 2F : ... .. . ... : ... .. . ... : ... .. . ... : ... .. . ... : ... .. . ...
ROW 30 : ... .. . ... : A-0 0D . ... : ... .. . ... : ... .. . ... : ... .. . ...
ROW 31 : ... .. . ... : ... .. . ... : ... .. . ... : ... .. . ... : ... .. . ...
ROW 32 : ... .. . ... : A-0 0F . ... : ... .. . ... : ... .. . ... : ... .. . ...
ROW 33 : ... .. . ... : ... .. . ... : ... .. . ... : ... .. . ... : ... .. . ...
ROW 34 : ... .. . ... : ... .. . ... : ... .. . ... : ... .. . ... : ... .. . ...
ROW 35 : ... .. . ... : ... .. . ... : ... .. . ... : ... .. . ... : ... .. . ...
ROW 36 : ... .. . ... : A-0 0D . ... : ... .. . ... : ... .. . ... : ... .. . ...
ROW 37 : ... .. . ... : ... .. . ... : ... .. . ... : ... .. . ... : ... .. . ...
ROW 38 : ... .. . ... : ... .. . ... : ... .. . ... : ... .. . ... : ... .. . ...
ROW 39 : ... .. . ... : ... .. . ... : ... .. . ... : ... .. . ... : ... .. . ...
ROW 3A : ... .. . ... : A-0 0D . ... : ... .. . ... : ... .. . ... : ... .. . ...
ROW 3B : ... .. . ... : ... .. . ... : ... .. . ... : ... .. . ... : ... .. . ...
ROW 3C : ... .. . ... : ... .. . ... : ... .. . ... : ... .. . ... : ... .. . ...
ROW 3D : ... .. . ... : ... .. . ... : ... .. . ... : ... .. . ... : ... .. . ...
ROW 3E : ... .. . ... : A-0 0F . ... : ... .. . ... : ... .. . ... : ... .. . ...
ROW 3F : ... .. . ... : ... .. . ... : ... .. . ... : ... .. . ... : ... .. . ...

PATTERN 07
ROW 00 : C-5 0B . ... : ... .. . ... : G-3 07 . ... : C-# 19 . ... : ... .. . ...
ROW 01 : ... .. . ... : C-5 0B . ... : ... .. . ... : ... .. . ... : ... .. . ...
ROW 02 : G-4 0B . ... : --- .. . ... : G-3 07 . ... : C-# 19 . ... : ... .. . ...
ROW 03 : ... .. . ... : G-4 0B . ... : ... .. . ... : ... .. . ... : ... .. . ...
ROW 04 : C-4 0B . ... : --- .. . ... : C-3 07 . ... : 8-# 15 . ... : ... .. . ...
ROW 05 : ... .. . ... : C-4 0B . ... : ... .. . ... : ... .. . ... : ... .. . ...
ROW 06 : G-3 0B . ... : --- .. . ... : ... .. . ... : ... .. . ... : ... .. . ...
ROW 07 : ... .. . ... : G-3 0B . ... : ... .. . ... : ... .. . ... : ... .. . ...
ROW 08 : C-3 0B . ... : --- .. . ... : G-3 07 . ... : C-# 19 . ... : ... .. . ...
ROW 09 : ... .. . ... : C-3 0B . ... : ... .. . ... : ... .. . ... : ... .. . ...
ROW 0A : G-2 0B . ... : --- .. . ... : G-3 07 . ... : C-# 19 . ... : ... .. . ...
ROW 0B : ... .. . ... : G-2 0B . ... : ... .. . ... : ... .. . ... : ... .. . ...
ROW 0C : G-1 0B . ... : --- .. . ... : C-3 07 . ... : 8-# 15 . ... : ... .. . ...
ROW 0D : ... .. . ... : G-1 0B . ... : ... .. . ... : ... .. . ... : ... .. . ...
ROW 0E : C-1 0B . ... : --- .. . ... : ... .. . ... : C-# 19 . ... : ... .. . ...
ROW 0F : ... .. . ... : C-1 0B . ... : ... .. . ... : ... .. . ... : ... .. . ...
ROW 10 : G-0 0B . ... : --- .. . ... : G-3 07 . ... : C-# 19 . ... : ... .. . ...
ROW 11 : ... .. . ... : G-0 0B . ... : ... .. . ... : ... .. . ... : ... .. . ...
ROW 12 : ... .. . ... : --- .. . ... : G-3 07 . ... : C-# 19 . ... : ... .. . ...
ROW 13 : ... .. . ... : ... .. . ... : ... .. . ... : ... .. . ... : ... .. . ...
ROW 14 : ... .. . ... : ... .. . ... : C-3 07 . ... : 8-# 15 . ... : ... .. . ...
ROW 15 : ... .. . ... : ... .. . ... : ... .. . ... : ... .. . ... : ... .. . ...
ROW 16 : ... .. . ... : ... .. . ... : ... .. . ... : ... .. . ... : ... .. . ...
ROW 17 : ... .. . ... : ... .. . ... : ... .. . ... : ... .. . ... : ... .. . ...
ROW 18 : ... .. . ... : ... .. . ... : G-3 07 . ... : C-# 19 . ... : ... .. . ...
ROW 19 : ... .. . ... : ... .. . ... : ... .. . ... : ... .. . ... : ... .. . ...
ROW 1A : ... .. . ... : ... .. . ... : G-3 07 . ... : C-# 19 . ... : ... .. . ...
ROW 1B : ... .. . ... : ... .. . ... : ... .. . ... : ... .. . ... : ... .. . ...
ROW 1C : ... .. . ... : ... .. . ... : C-3 07 . ... : 8-# 15 . ... : ... .. . ...
ROW 1D : ... .. . ... : ... .. . ... : ... .. . ... : ... .. . ... : ... .. . ...
ROW 1E : ... .. . ... : ... .. . ... : ... .. . ... : C-# 19 . ... : ... .. . ...
ROW 1F : ... .. . ... : ... .. . ... : ... .. . ... : ... .. . ... : ... .. . ...
ROW 20 : ... .. . ... : ... .. . ... : G-3 07 . ... : C-# 19 . ... : ... .. . ...
ROW 21 : ... .. . ... : ... .. . ... : ... .. . ... : ... .. . ... : ... .. . ...
ROW 22 : ... .. . ... : ... .. . ... : G-3 07 . ... : C-# 19 . ... : ... .. . ...
ROW 23 : ... .. . ... : ... .. . ... : ... .. . ... : ... .. . ... : ... .. . ...
ROW 24 : ... .. . ... : ... .. . ... : C-3 07 . ... : 8-# 15 . ... : ... .. . ...
ROW 25 : ... .. . ... : ... .. . ... : ... .. . ... : ... .. . ... : ... .. . ...
ROW 26 : ... .. . ... : ... .. . ... : ... .. . ... : ... .. . ... : ... .. . ...
ROW 27 : ... .. . ... : ... .. . ... : ... .. . ... : ... .. . ... : ... .. . ...
ROW 28 : ... .. . ... : ... .. . ... : G-3 07 . ... : C-# 19 . ... : ... .. . ...
ROW 29 : ... .. . ... : ... .. . ... : ... .. . ... : ... .. . ... : ... .. . ...
ROW 2A : ... .. . ... : ... .. . ... : G-3 07 . ... : C-# 19 . ... : ... .. . ...
ROW 2B : ... .. . ... : ... .. . ... : ... .. . ... : ... .. . ... : ... .. . ...
ROW 2C : ... .. . ... : ... .. . ... : C-3 07 . ... : 8-# 15 . ... : ... .. . ...
ROW 2D : ... .. . ... : ... .. . ... : ... .. . ... : ... .. . ... : ... .. . ...
ROW 2E : ... .. . ... : ... .. . ... : ... .. . ... : C-# 19 . ... : ... .. . ...
ROW 2F : ... .. . ... : ... .. . ... : ... .. . ... : ... .. . ... : ... .. . ...
ROW 30 : ... .. . ... : ... .. . ... : G-3 07 . ... : C-# 19 . ... : ... .. . ...
ROW 31 : ... .. . ... : ... .. . ... : ... .. . ... : ... .. . ... : ... .. . ...
ROW 32 : ... .. . ... : ... .. . ... : G-3 07 . ... : C-# 19 . ... : ... .. . ...
ROW 33 : ... .. . ... : ... .. . ... : ... .. . ... : ... .. . ... : ... .. . ...
ROW 34 : ... .. . ... : ... .. . ... : C-3 07 . ... : 8-# 15 . ... : ... .. . ...
ROW 35 : ... .. . ... : ... .. . ... : ... .. . ... : ... .. . ... : ... .. . ...
ROW 36 : ... .. . ... : ... .. . ... : ... .. . ... : ... .. . ... : ... .. . ...
ROW 37 : ... .. . ... : ... .. . ... : ... .. . ... : ... .. . ... : ... .. . ...
ROW 38 : ... .. . ... : ... .. . ... : G-3 07 . ... : C-# 19 . ... : ... .. . ...
ROW 39 : ... .. . ... : ... .. . ... : ... .. . ... : ... .. . ... : ... .. . ...
ROW 3A : ... .. . ... : ... .. . ... : G-3 07 . ... : C-# 19 . ... : ... .. . ...
ROW 3B : ... .. . ... : ... .. . ... : ... .. . ... : ... .. . ... : ... .. . ...
ROW 3C : ... .. . ... : ... .. . ... : C-3 07 . ... : 8-# 15 . ... : ... .. . ...
ROW 3D : ... .. . ... : ... .. . ... : ... .. . ... : ... .. . ... : ... .. . ...
ROW 3E : ... .. . ... : ... .. . ... : ... .. . ... : C-# 19 . ... : ... .. . ...
ROW 3F : ... .. . ... : ... .. . ... : ... .. . ... : ... .. . ... : ... .. . ...

PATTERN 08
ROW 00 : E-1 15 . ... : C-1 15 . ... : G-3 07 . ... : 8-# 15 . ... : ... .. . ...
ROW 01 : ... .. . ... : ... .. . ... : ... .. . ... : ... .. . ... : ... .. . ...
ROW 02 : E-1 15 . ... : C-1 15 . ... : G-3 07 . ... : 8-# 15 . ... : ... .. . ...
ROW 03 : ... .. . ... : ... .. . ... : ... .. . ... : ... .. . ... : ... .. . ...
ROW 04 : E-1 15 . ... : C-1 15 . ... : G-3 07 . ... : 8-# 15 . ... : ... .. . ...
ROW 05 : ... .. . ... : ... .. . ... : ... .. . ... : ... .. . ... : ... .. . ...
ROW 06 : E-1 15 . ... : C-1 15 . ... : G-3 07 . ... : 8-# 15 . ... : ... .. . ...
ROW 07 : ... .. . ... : ... .. . ... : ... .. . ... : ... .. . ... : ... .. . ...
ROW 08 : E-1 15 . ... : C-1 15 . ... : G-3 07 . ... : 8-# 15 . ... : ... .. . ...
ROW 09 : ... .. . ... : ... .. . ... : ... .. . ... : ... .. . ... : ... .. . ...
ROW 0A : E-1 15 . ... : C-1 15 . ... : G-3 07 . ... : 8-# 15 . ... : ... .. . ...
ROW 0B : ... .. . ... : ... .. . ... : ... .. . ... : ... .. . ... : ... .. . ...
ROW 0C : E-1 15 . ... : C-1 15 . ... : G-3 07 . ... : 8-# 15 . ... : ... .. . ...
ROW 0D : ... .. . DD0 : ... .. . ... : ... .. . ... : ... .. . ... : ... .. . ...
ROW 0E : ... .. . ... : ... .. . ... : ... .. . ... : ... .. . ... : ... .. . ...
ROW 0F : ... .. . ... : ... .. . ... : ... .. . ... : ... .. . ... : ... .. . ...
ROW 10 : ... .. . ... : ... .. . ... : ... .. . ... : ... .. . ... : ... .. . ...
ROW 11 : ... .. . ... : ... .. . ... : ... .. . ... : ... .. . ... : ... .. . ...
ROW 12 : ... .. . ... : ... .. . ... : ... .. . ... : ... .. . ... : ... .. . ...
ROW 13 : ... .. . ... : ... .. . ... : ... .. . ... : ... .. . ... : ... .. . ...
ROW 14 : ... .. . ... : ... .. . ... : ... .. . ... : ... .. . ... : ... .. . ...
ROW 15 : ... .. . ... : ... .. . ... : ... .. . ... : ... .. . ... : ... .. . ...
ROW 16 : ... .. . ... : ... .. . ... : ... .. . ... : ... .. . ... : ... .. . ...
ROW 17 : ... .. . ... : ... .. . ... : ... .. . ... : ... .. . ... : ... .. . ...
ROW 18 : ... .. . ... : ... .. . ... : ... .. . ... : ... .. . ... : ... .. . ...
ROW 19 : ... .. . ... : ... .. . ... : ... .. . ... : ... .. . ... : ... .. . ...
ROW 1A : ... .. . ... : ... .. . ... : ... .. . ... : ... .. . ... : ... .. . ...
ROW 1B : ... .. . ... : ... .. . ... : ... .. . ... : ... .. . ... : ... .. . ...
ROW 1C : ... .. . ... : ... .. . ... : ... .. . ... : ... .. . ... : ... .. . ...
ROW 1D : ... .. . ... : ... .. . ... : ... .. . ... : ... .. . ... : ... .. . ...
ROW 1E : ... .. . ... : ... .. . ... : ... .. . ... : ... .. . ... : ... .. . ...
ROW 1F : ... .. . ... : ... .. . ... : ... .. . ... : ... .. . ... : ... .. . ...
ROW 20 : ... .. . ... : ... .. . ... : ... .. . ... : ... .. . ... : ... .. . ...
ROW 21 : ... .. . ... : ... .. . ... : ... .. . ... : ... .. . ... : ... .. . ...
ROW 22 : ... .. . ... : ... .. . ... : ... .. . ... : ... .. . ... : ... .. . ...
ROW 23 : ... .. . ... : ... .. . ... : ... .. . ... : ... .. . ... : ... .. . ...
ROW 24 : ... .. . ... : ... .. . ... : ... .. . ... : ... .. . ... : ... .. . ...
ROW 25 : ... .. . ... : ... .. . ... : ... .. . ... : ... .. . ... : ... .. . ...
ROW 26 : ... .. . ... : ... .. . ... : ... .. . ... : ... .. . ... : ... .. . ...
ROW 27 : ... .. . ... : ... .. . ... : ... .. . ... : ... .. . ... : ... .. . ...
ROW 28 : ... .. . ... : ... .. . ... : ... .. . ... : ... .. . ... : ... .. . ...
ROW 29 : ... .. . ... : ... .. . ... : ... .. . ... : ... .. . ... : ... .. . ...
ROW 2A : ... .. . ... : ... .. . ... : ... .. . ... : ... .. . ... : ... .. . ...
ROW 2B : ... .. . ... : ... .. . ... : ... .. . ... : ... .. . ... : ... .. . ...
ROW 2C : ... .. . ... : ... .. . ... : ... .. . ... : ... .. . ... : ... .. . ...
ROW 2D : ... .. . ... : ... .. . ... : ... .. . ... : ... .. . ... : ... .. . ...
ROW 2E : ... .. . ... : ... .. . ... : ... .. . ... : ... .. . ... : ... .. . ...
ROW 2F : ... .. . ... : ... .. . ... : ... .. . ... : ... .. . ... : ... .. . ...
ROW 30 : ... .. . ... : ... .. . ... : ... .. . ... : ... .. . ... : ... .. . ...
ROW 31 : ... .. . ... : ... .. . ... : ... .. . ... : ... .. . ... : ... .. . ...
ROW 32 : ... .. . ... : ... .. . ... : ... .. . ... : ... .. . ... : ... .. . ...
ROW 33 : ... .. . ... : ... .. . ... : ... .. . ... : ... .. . ... : ... .. . ...
ROW 34 : ... .. . ... : ... .. . ... : ... .. . ... : ... .. . ... : ... .. . ...
ROW 35 : ... .. . ... : ... .. . ... : ... .. . ... : ... .. . ... : ... .. . ...
ROW 36 : ... .. . ... : ... .. . ... : ... .. . ... : ... .. . ... : ... .. . ...
ROW 37 : ... .. . ... : ... .. . ... : ... .. . ... : ... .. . ... : ... .. . ...
ROW 38 : ... .. . ... : ... .. . ... : ... .. . ... : ... .. . ... : ... .. . ...
ROW 39 : ... .. . ... : ... .. . ... : ... .. . ... : ... .. . ... : ... .. . ...
ROW 3A : ... .. . ... : ... .. . ... : ... .. . ... : ... .. . ... : ... .. . ...
ROW 3B : ... .. . ... : ... .. . ... : ... .. . ... : ... .. . ... : ... .. . ...
ROW 3C : ... .. . ... : ... .. . ... : ... .. . ... : ... .. . ... : ... .. . ...
ROW 3D : ... .. . ... : ... .. . ... : ... .. . ... : ... .. . ... : ... .. . ...
ROW 3E : ... .. . ... : ... .. . ... : ... .. . ... : ... .. . ... : ... .. . ...
ROW 3F : ... .. . ... : ... .. . ... : ... .. . ... : ... .. . ... : ... .. . ...

PATTERN 09
ROW 00 : --- .. . ... : A-1 0D . ... : G-3 07 . ... : C-# 19 . ... : ... .. . ...
ROW 01 : ... .. . ... : ... .. . ... : ... .. . ... : ... .. . ... : ... .. . ...
ROW 02 : ... .. . ... : A-1 0F . ... : G-3 07 . ... : C-# 19 . ... : ... .. . ...
ROW 03 : ... .. . ... : ... .. . ... : ... .. . ... : ... .. . ... : ... .. . ...
ROW 04 : C-2 18 . ... : A-1 00 . ... : ... .. . ... : 8-# 15 . ... : ... .. . ...
ROW 05 : --- .. . ... : ... .. . ... : ... .. . ... : ... .. . ... : ... .. . ...
ROW 06 : ... .. . ... : A-1 0D . ... : C-3 07 . ... : C-# 19 . ... : ... .. . ...
ROW 07 : C-2 18 . ... : ... .. . ... : ... .. . ... : ... .. . ... : ... .. . ...
ROW 08 : --- .. . ... : A-1 00 . ... : ... .. . ... : F-# 05 . ... : ... .. . ...
ROW 09 : E-2 18 . ... : ... .. . ... : ... .. . ... : F-# 15 . ... : ... .. . ...
ROW 0A : --- .. . ... : A-1 0D . ... : G-3 07 . ... : C-# 19 . ... : ... .. . ...
ROW 0B : C-2 18 . ... : ... .. . ... : C-3 07 . ... : ... .. . ... : ... .. . ...
ROW 0C : E-2 18 . ... : A-1 00 . ... : ... .. . ... : 8-# 15 . ... : ... .. . ...
ROW 0D : --- .. . ... : ... .. . ... : ... .. . ... : ... .. . ... : ... .. . ...
ROW 0E : ... .. . ... : A-1 0F . ... : ... .. . ... : C-# 19 . ... : ... .. . ...
ROW 0F : G-2 18 . ... : ... .. . ... : ... .. . ... : F-# 15 . ... : ... .. . ...
ROW 10 : --- .. . ... : A-1 0D . ... : G-3 07 . ... : C-# 19 . ... : ... .. . ...
ROW 11 : ... .. . ... : ... .. . ... : ... .. . ... : ... .. . ... : ... .. . ...
ROW 12 : ... .. . ... : A-1 0F . ... : G-3 07 . ... : C-# 19 . ... : ... .. . ...
ROW 13 : ... .. . ... : ... .. . ... : ... .. . ... : ... .. . ... : ... .. . ...
ROW 14 : C-2 18 . ... : A-1 00 . ... : ... .. . ... : 8-# 15 . ... : ... .. . ...
ROW 15 : --- .. . ... : ... .. . ... : ... .. . ... : ... .. . ... : ... .. . ...
ROW 16 : ... .. . ... : A-1 0D . ... : C-3 07 . ... : C-# 19 . ... : ... .. . ...
ROW 17 : C-2 18 . ... : ... .. . ... : ... .. . ... : ... .. . ... : ... .. . ...
ROW 18 : --- .. . ... : A-1 00 . ... : ... .. . ... : F-# 05 . ... : ... .. . ...
ROW 19 : E-2 18 . ... : ... .. . ... : ... .. . ... : F-# 15 . ... : ... .. . ...
ROW 1A : --- .. . ... : A-1 0D . ... : G-3 07 . ... : C-# 19 . ... : ... .. . ...
ROW 1B : C-2 18 . ... : ... .. . ... : C-3 07 . ... : ... .. . ... : ... .. . ...
ROW 1C : E-2 18 . ... : A-1 00 . ... : ... .. . ... : 8-# 15 . ... : ... .. . ...
ROW 1D : --- .. . ... : ... .. . ... : ... .. . ... : ... .. . ... : ... .. . ...
ROW 1E : ... .. . ... : A-1 0F . ... : ... .. . ... : C-# 19 . ... : ... .. . ...
ROW 1F : G-2 18 . ... : ... .. . ... : ... .. . ... : F-# 15 . ... : ... .. . ...
ROW 20 : --- .. . ... : A-1 0D . ... : G-3 07 . ... : C-# 19 . ... : ... .. . ...
ROW 21 : ... .. . ... : ... .. . ... : ... .. . ... : ... .. . ... : ... .. . ...
ROW 22 : ... .. . ... : A-1 0F . ... : G-3 07 . ... : C-# 19 . ... : ... .. . ...
ROW 23 : ... .. . ... : ... .. . ... : ... .. . ... : ... .. . ... : ... .. . ...
ROW 24 : D-2 18 . ... : A-1 00 . ... : ... .. . ... : 8-# 15 . ... : ... .. . ...
ROW 25 : --- .. . ... : ... .. . ... : ... .. . ... : ... .. . ... : ... .. . ...
ROW 26 : ... .. . ... : A-1 0D . ... : C-3 07 . ... : C-# 19 . ... : ... .. . ...
ROW 27 : D-2 18 . ... : ... .. . ... : ... .. . ... : ... .. . ... : ... .. . ...
ROW 28 : --- .. . ... : A-1 00 . ... : ... .. . ... : F-# 05 . ... : ... .. . ...
ROW 29 : D-2 18 . ... : ... .. . ... : ... .. . ... : F-# 15 . ... : ... .. . ...
ROW 2A : --- .. . ... : A-1 0D . ... : G-3 07 . ... : C-# 19 . ... : ... .. . ...
ROW 2B : D-2 18 . ... : ... .. . ... : C-3 07 . ... : ... .. . ... : ... .. . ...
ROW 2C : D-2 18 . ... : A-1 00 . ... : ... .. . ... : 8-# 15 . ... : ... .. . ...
ROW 2D : --- .. . ... : ... .. . ... : ... .. . ... : ... .. . ... : ... .. . ...
ROW 2E : D-2 18 . ... : A-1 0F . ... : ... .. . ... : C-# 19 . ... : ... .. . ...
ROW 2F : --- .. . ... : ... .. . ... : ... .. . ... : F-# 15 . ... : ... .. . ...
ROW 30 : ... .. . ... : A-1 0D . ... : G-3 07 . ... : C-# 19 . ... : ... .. . ...
ROW 31 : ... .. . ... : ... .. . ... : ... .. . ... : ... .. . ... : ... .. . ...
ROW 32 : ... .. . ... : A-1 0F . ... : G-3 07 . ... : C-# 19 . ... : ... .. . ...
ROW 33 : ... .. . ... : ... .. . ... : ... .. . ... : ... .. . ... : ... .. . ...
ROW 34 : B-1 18 . ... : A-1 00 . ... : ... .. . ... : 8-# 15 . ... : ... .. . ...
ROW 35 : --- .. . ... : ... .. . ... : ... .. . ... : ... .. . ... : ... .. . ...
ROW 36 : ... .. . ... : A-1 0D . ... : C-3 07 . ... : C-# 19 . ... : ... .. . ...
ROW 37 : D-2 18 . ... : ... .. . ... : ... .. . ... : ... .. . ... : ... .. . ...
ROW 38 : --- .. . ... : A-1 00 . ... : ... .. . ... : F-# 05 . ... : ... .. . ...
ROW 39 : B-1 18 . ... : ... .. . ... : ... .. . ... : F-# 15 . ... : ... .. . ...
ROW 3A : --- .. . ... : A-1 0D . ... : G-3 07 . ... : C-# 19 . ... : ... .. . ...
ROW 3B : D-2 18 . ... : ... .. . ... : C-3 07 . ... : ... .. . ... : ... .. . ...
ROW 3C : F-2 18 . ... : F-1 0D . ... : ... .. . ... : 8-# 15 . ... : ... .. . ...
ROW 3D : A-2 18 . ... : A-1 0D . ... : ... .. . ... : ... .. . ... : ... .. . ...
ROW 3E : C-3 18 . ... : C-2 0D . ... : G-4 18 . ... : C-# 19 . ... : ... .. . ...
ROW 3F : ... .. . ... : --- .. . ... : ... .. . ... : F-# 15 . ... : ... .. . ...

PATTERN 0A
ROW 00 : A-3 18 . ... : A-1 0D . ... : C-4 07 . ... : C-# 19 . ... : ... .. . ...
ROW 01 : ... .. . ... : ... .. . ... : ... .. . ... : ... .. . ... : ... .. . ...
ROW 02 : C-3 18 . ... : A-1 0F . ... : C-4 07 . ... : C-# 19 . ... : ... .. . ...
ROW 03 : ... .. . ... : ... .. . ... : ... .. . ... : ... .. . ... : ... .. . ...
ROW 04 : --- .. . ... : A-1 00 . ... : G-3 07 . ... : 8-# 15 . ... : ... .. . ...
ROW 05 : ... .. . ... : ... .. . ... : ... .. . ... : ... .. . ... : ... .. . ...
ROW 06 : G-2 18 . ... : A-1 0D . ... : C-3 07 . ... : C-# 19 . ... : ... .. . ...
ROW 07 : ... .. . ... : ... .. . ... : ... .. . ... : ... .. . ... : ... .. . ...
ROW 08 : --- .. . ... : A-1 00 . ... : C-3 07 . ... : F-# 05 . ... : ... .. . ...
ROW 09 : ... .. . ... : ... .. . ... : ... .. . ... : F-# 15 . ... : ... .. . ...
ROW 0A : D-3 18 . ... : A-1 0D . ... : C-3 07 . ... : C-# 19 . ... : ... .. . ...
ROW 0B : ... .. . ... : ... .. . ... : ... .. . ... : ... .. . ... : ... .. . ...
ROW 0C : ... .. . ... : A-1 00 . ... : G-3 07 . ... : 8-# 15 . ... : ... .. . ...
ROW 0D : ... .. . ... : ... .. . ... : ... .. . ... : ... .. . ... : ... .. . ...
ROW 0E : ... .. . ... : A-1 0F . ... : C-3 07 . ... : C-# 19 . ... : ... .. . ...
ROW 0F : --- .. . ... : ... .. . ... : G-3 07 . ... : F-# 15 . ... : ... .. . ...
ROW 10 : C-3 18 . ... : A-1 0D . ... : C-3 07 . ... : C-# 19 . ... : ... .. . ...
ROW 11 : --- .. . ... : ... .. . ... : ... .. . ... : ... .. . ... : ... .. . ...
ROW 12 : A-3 18 . ... : A-1 0F . ... : C-3 07 . ... : C-# 19 . ... : ... .. . ...
ROW 13 : ... .. . ... : ... .. . ... : ... .. . ... : ... .. . ... : ... .. . ...
ROW 14 : B-3 18 . ... : A-1 00 . ... : G-3 07 . ... : 8-# 15 . ... : ... .. . ...
ROW 15 : ... .. . ... : ... .. . ... : ... .. . ... : ... .. . ... : ... .. . ...
ROW 16 : C-4 18 . ... : A-1 0D . ... : C-3 07 . ... : C-# 19 . ... : ... .. . ...
ROW 17 : ... .. . ... : ... .. . ... : ... .. . ... : ... .. . ... : ... .. . ...
ROW 18 : ... .. . ... : A-1 00 . ... : C-3 07 . ... : F-# 05 . ... : ... .. . ...
ROW 19 : ... .. . ... : ... .. . ... : ... .. . ... : F-# 15 . ... : ... .. . ...
ROW 1A : ... .. . ... : A-1 0D . ... : C-3 07 . ... : C-# 19 . ... : ... .. . ...
ROW 1B : ... .. . ... : ... .. . ... : ... .. . ... : ... .. . ... : ... .. . ...
ROW 1C : ... .. . ... : A-1 00 . ... : G-3 07 . ... : 8-# 15 . ... : ... .. . ...
ROW 1D : ... .. . ... : ... .. . ... : ... .. . ... : ... .. . ... : ... .. . ...
ROW 1E : ... .. . ... : A-1 0F . ... : C-3 07 . ... : C-# 19 . ... : ... .. . ...
ROW 1F : ... .. . ... : ... .. . ... : G-3 07 . ... : F-# 15 . ... : ... .. . ...
ROW 20 : G-3 18 . ... : A-1 0D . ... : C-3 07 . ... : C-# 19 . ... : ... .. . ...
ROW 21 : ... .. . ... : ... .. . ... : ... .. . ... : ... .. . ... : ... .. . ...
ROW 22 : E-3 18 . ... : A-1 0F . ... : C-3 07 . ... : C-# 19 . ... : ... .. . ...
ROW 23 : ... .. . ... : ... .. . ... : ... .. . ... : ... .. . ... : ... .. . ...
ROW 24 : E-3 18 . ... : A-1 00 . ... : G-3 07 . ... : 8-# 15 . ... : ... .. . ...
ROW 25 : ... .. . ... : ... .. . ... : ... .. . ... : ... .. . ... : ... .. . ...
ROW 26 : G-3 18 . ... : A-1 0D . ... : C-3 07 . ... : C-# 19 . ... : ... .. . ...
ROW 27 : ... .. . ... : ... .. . ... : ... .. . ... : ... .. . ... : ... .. . ...
ROW 28 : A-3 18 . ... : A-1 00 . ... : C-3 07 . ... : F-# 05 . ... : ... .. . ...
ROW 29 : ... .. . ... : ... .. . ... : ... .. . ... : F-# 15 . ... : ... .. . ...
ROW 2A : ... .. . ... : A-1 0D . ... : C-3 07 . ... : C-# 19 . ... : ... .. . ...
ROW 2B : ... .. . ... : ... .. . ... : ... .. . ... : ... .. . ... : ... .. . ...
ROW 2C : ... .. . ... : A-1 00 . ... : G-3 07 . ... : 8-# 15 . ... : ... .. . ...
ROW 2D : ... .. . ... : ... .. . ... : ... .. . ... : ... .. . ... : ... .. . ...
ROW 2E : G-3 18 . ... : A-1 0F . ... : C-3 07 . ... : C-# 19 . ... : ... .. . ...
ROW 2F : --- .. . ... : ... .. . ... : G-3 07 . ... : F-# 15 . ... : ... .. . ...
ROW 30 : A-3 18 . ... : A-1 0D . ... : C-3 07 . ... : C-# 19 . ... : ... .. . ...
ROW 31 : ... .. . ... : ... .. . ... : ... .. . ... : ... .. . ... : ... .. . ...
ROW 32 : G-3 18 . ... : A-1 0F . ... : C-3 07 . ... : C-# 19 . ... : ... .. . ...
ROW 33 : ... .. . ... : ... .. . ... : ... .. . ... : ... .. . ... : ... .. . ...
ROW 34 : E-3 18 . ... : A-1 00 . ... : G-3 07 . ... : 8-# 15 . ... : ... .. . ...
ROW 35 : ... .. . ... : ... .. . ... : ... .. . ... : ... .. . ... : ... .. . ...
ROW 36 : G-3 18 . ... : A-1 0D . ... : C-3 07 . ... : C-# 19 . ... : ... .. . ...
ROW 37 : ... .. . ... : ... .. . ... : ... .. . ... : ... .. . ... : ... .. . ...
ROW 38 : A-3 18 . ... : A-1 00 . ... : C-3 07 . ... : F-# 05 . ... : ... .. . ...
ROW 39 : ... .. . ... : ... .. . ... : ... .. . ... : F-# 15 . ... : ... .. . ...
ROW 3A : G-3 18 . ... : A-1 0D . ... : C-3 07 . ... : C-# 19 . ... : ... .. . ...
ROW 3B : ... .. . ... : ... .. . ... : ... .. . ... : ... .. . ... : ... .. . ...
ROW 3C : E-3 18 . ... : A-1 00 . ... : G-3 07 . ... : 8-# 15 . ... : ... .. . ...
ROW 3D : ... .. . ... : ... .. . ... : ... .. . ... : ... .. . ... : ... .. . ...
ROW 3E : G-3 18 . ... : A-1 0F . ... : C-3 07 . ... : C-# 19 . ... : ... .. . ...
ROW 3F : ... .. . ... : ... .. . ... : G-3 07 . ... : F-# 15 . ... : ... .. . ...

PATTERN 0B
ROW 00 : --- .. . ... : A-0 0D . ... : G-3 07 . ... : C-# 19 . ... : ... .. . ...
ROW 01 : ... .. . ... : ... .. . ... : ... .. . ... : ... .. . ... : ... .. . ...
ROW 02 : ... .. . ... : A-0 0F . ... : G-3 07 . ... : C-# 19 . ... : ... .. . ...
ROW 03 : ... .. . ... : ... .. . ... : ... .. . ... : ... .. . ... : ... .. . ...
ROW 04 : C-2 18 . ... : ... .. . ... : G-3 07 . ... : 8-# 15 . ... : ... .. . ...
ROW 05 : --- .. . ... : ... .. . ... : ... .. . ... : ... .. . ... : ... .. . ...
ROW 06 : ... .. . ... : A-0 0D . ... : C-3 07 . ... : C-# 19 . ... : ... .. . ...
ROW 07 : C-2 18 . ... : ... .. . ... : ... .. . ... : F-# 15 . ... : ... .. . ...
ROW 08 : --- .. . ... : ... .. . ... : G-3 07 . ... : ... .. . ... : ... .. . ...
ROW 09 : E-2 18 . ... : ... .. . ... : ... .. . ... : F-# 15 . ... : ... .. . ...
ROW 0A : --- .. . ... : A-0 0D . ... : G-3 07 . ... : C-# 19 . ... : ... .. . ...
ROW 0B : C-2 18 . ... : ... .. . ... : C-3 07 . ... : F-# 15 . ... : ... .. . ...
ROW 0C : E-2 18 . ... : ... .. . ... : G-3 07 . ... : 8-# 15 . ... : ... .. . ...
ROW 0D : --- .. . ... : ... .. . ... : ... .. . ... : ... .. . ... : ... .. . ...
ROW 0E : ... .. . ... : A-0 0F . ... : G-3 07 . ... : C-# 19 . ... : ... .. . ...
ROW 0F : G-2 18 . ... : ... .. . ... : ... .. . ... : F-# 15 . ... : ... .. . ...
ROW 10 : --- .. . ... : A-0 0D . ... : G-3 07 . ... : C-# 19 . ... : ... .. . ...
ROW 11 : ... .. . ... : ... .. . ... : ... .. . ... : ... .. . ... : ... .. . ...
ROW 12 : ... .. . ... : A-0 0F . ... : G-3 07 . ... : C-# 19 . ... : ... .. . ...
ROW 13 : ... .. . ... : ... .. . ... : ... .. . ... : ... .. . ... : ... .. . ...
ROW 14 : C-2 18 . ... : ... .. . ... : G-3 07 . ... : 8-# 15 . ... : ... .. . ...
ROW 15 : --- .. . ... : ... .. . ... : ... .. . ... : ... .. . ... : ... .. . ...
ROW 16 : ... .. . ... : A-0 0D . ... : C-3 07 . ... : C-# 19 . ... : ... .. . ...
ROW 17 : C-2 18 . ... : ... .. . ... : ... .. . ... : F-# 15 . ... : ... .. . ...
ROW 18 : --- .. . ... : ... .. . ... : G-3 07 . ... : ... .. . ... : ... .. . ...
ROW 19 : E-2 18 . ... : ... .. . ... : ... .. . ... : F-# 15 . ... : ... .. . ...
ROW 1A : --- .. . ... : A-0 0D . ... : G-3 07 . ... : C-# 19 . ... : ... .. . ...
ROW 1B : C-2 18 . ... : ... .. . ... : C-3 07 . ... : F-# 15 . ... : ... .. . ...
ROW 1C : E-2 18 . ... : ... .. . ... : G-3 07 . ... : 8-# 15 . ... : ... .. . ...
ROW 1D : --- .. . ... : ... .. . ... : ... .. . ... : ... .. . ... : ... .. . ...
ROW 1E : ... .. . ... : A-0 0F . ... : G-3 07 . ... : C-# 19 . ... : ... .. . ...
ROW 1F : G-2 18 . ... : ... .. . ... : ... .. . ... : F-# 15 . ... : ... .. . ...
ROW 20 : --- .. . ... : A-0 0D . ... : G-3 07 . ... : C-# 19 . ... : ... .. . ...
ROW 21 : ... .. . ... : ... .. . ... : ... .. . ... : ... .. . ... : ... .. . ...
ROW 22 : ... .. . ... : A-0 0F . ... : G-3 07 . ... : C-# 19 . ... : ... .. . ...
ROW 23 : ... .. . ... : ... .. . ... : ... .. . ... : ... .. . ... : ... .. . ...
ROW 24 : D-2 18 . ... : ... .. . ... : G-3 07 . ... : 8-# 15 . ... : ... .. . ...
ROW 25 : --- .. . ... : ... .. . ... : ... .. . ... : ... .. . ... : ... .. . ...
ROW 26 : ... .. . ... : A-0 0D . ... : C-3 07 . ... : C-# 19 . ... : ... .. . ...
ROW 27 : D-2 18 . ... : ... .. . ... : ... .. . ... : F-# 15 . ... : ... .. . ...
ROW 28 : --- .. . ... : ... .. . ... : G-3 07 . ... : ... .. . ... : ... .. . ...
ROW 29 : D-2 18 . ... : ... .. . ... : ... .. . ... : F-# 15 . ... : ... .. . ...
ROW 2A : --- .. . ... : A-0 0D . ... : G-3 07 . ... : C-# 19 . ... : ... .. . ...
ROW 2B : D-2 18 . ... : ... .. . ... : C-3 07 . ... : F-# 15 . ... : ... .. . ...
ROW 2C : D-2 18 . ... : ... .. . ... : G-3 07 . ... : 8-# 15 . ... : ... .. . ...
ROW 2D : --- .. . ... : ... .. . ... : ... .. . ... : ... .. . ... : ... .. . ...
ROW 2E : ... .. . ... : A-0 0F . ... : G-3 07 . ... : C-# 19 . ... : ... .. . ...
ROW 2F : D-2 18 . ... : ... .. . ... : ... .. . ... : F-# 15 . ... : ... .. . ...
ROW 30 : --- .. . ... : A-0 0D . ... : G-3 07 . ... : C-# 19 . ... : ... .. . ...
ROW 31 : ... .. . ... : ... .. . ... : ... .. . ... : ... .. . ... : ... .. . ...
ROW 32 : ... .. . ... : A-0 0F . ... : G-3 07 . ... : C-# 19 . ... : ... .. . ...
ROW 33 : ... .. . ... : ... .. . ... : ... .. . ... : ... .. . ... : ... .. . ...
ROW 34 : C-2 18 . ... : ... .. . ... : G-3 07 . ... : 8-# 15 . ... : ... .. . ...
ROW 35 : --- .. . ... : ... .. . ... : ... .. . ... : ... .. . ... : ... .. . ...
ROW 36 : ... .. . ... : A-0 0D . ... : C-3 07 . ... : C-# 19 . ... : ... .. . ...
ROW 37 : C-2 18 . ... : ... .. . ... : ... .. . ... : F-# 15 . ... : ... .. . ...
ROW 38 : --- .. . ... : ... .. . ... : G-3 07 . ... : ... .. . ... : ... .. . ...
ROW 39 : C-2 18 . ... : ... .. . ... : ... .. . ... : F-# 15 . ... : ... .. . ...
ROW 3A : --- .. . ... : A-0 0D . ... : G-3 07 . ... : C-# 19 . ... : ... .. . ...
ROW 3B : C-2 18 . ... : ... .. . ... : C-3 07 . ... : F-# 15 . ... : ... .. . ...
ROW 3C : C-2 18 . ... : ... .. . ... : G-3 07 . ... : 8-# 15 . ... : ... .. . ...
ROW 3D : --- .. . ... : ... .. . ... : ... .. . ... : ... .. . ... : ... .. . ...
ROW 3E : ... .. . ... : A-0 0F . ... : G-3 07 . ... : C-# 19 . ... : ... .. . ...
ROW 3F : C-2 18 . ... : ... .. . ... : ... .. . ... : F-# 15 . ... : ... .. . ...

PATTERN 0C
ROW 00 : A-3 18 . ... : A-0 0D . ... : G-3 07 . ... : C-# 19 . ... : ... .. . ...
ROW 01 : ... .. . ... : ... .. . ... : ... .. . ... : ... .. . ... : ... .. . ...
ROW 02 : C-3 18 . ... : A-0 0F . ... : G-3 07 . ... : C-# 19 . ... : ... .. . ...
ROW 03 : ... .. . ... : ... .. . ... : ... .. . ... : ... .. . ... : ... .. . ...
ROW 04 : --- .. . ... : ... .. . ... : ... .. . ... : 8-# 15 . ... : ... .. . ...
ROW 05 : ... .. . ... : ... .. . ... : ... .. . ... : ... .. . ... : ... .. . ...
ROW 06 : G-2 18 . ... : A-0 0D . ... : C-3 07 . ... : C-# 19 . ... : ... .. . ...
ROW 07 : ... .. . ... : ... .. . ... : ... .. . ... : F-# 15 . ... : ... .. . ...
ROW 08 : --- .. . ... : ... .. . ... : ... .. . ... : ... .. . ... : ... .. . ...
ROW 09 : ... .. . ... : ... .. . ... : ... .. . ... : F-# 15 . ... : ... .. . ...
ROW 0A : D-3 18 . ... : A-0 0D . ... : G-3 07 . ... : C-# 19 . ... : ... .. . ...
ROW 0B : ... .. . ... : ... .. . ... : C-3 07 . ... : F-# 15 . ... : ... .. . ...
ROW 0C : ... .. . ... : ... .. . ... : ... .. . ... : 8-# 15 . ... : ... .. . ...
ROW 0D : ... .. . ... : ... .. . ... : ... .. . ... : ... .. . ... : ... .. . ...
ROW 0E : ... .. . ... : A-0 0F . ... : ... .. . ... : C-# 19 . ... : ... .. . ...
ROW 0F : --- .. . ... : ... .. . ... : ... .. . ... : F-# 15 . ... : ... .. . ...
ROW 10 : C-3 18 . ... : A-0 0D . ... : G-3 07 . ... : C-# 19 . ... : ... .. . ...
ROW 11 : --- .. . ... : ... .. . ... : ... .. . ... : ... .. . ... : ... .. . ...
ROW 12 : A-3 18 . ... : A-0 0F . ... : G-3 07 . ... : C-# 19 . ... : ... .. . ...
ROW 13 : ... .. . ... : ... .. . ... : ... .. . ... : ... .. . ... : ... .. . ...
ROW 14 : B-3 18 . ... : ... .. . ... : ... .. . ... : 8-# 15 . ... : ... .. . ...
ROW 15 : ... .. . ... : ... .. . ... : ... .. . ... : ... .. . ... : ... .. . ...
ROW 16 : C-4 18 . ... : A-0 0D . ... : C-3 07 . ... : C-# 19 . ... : ... .. . ...
ROW 17 : ... .. . ... : ... .. . ... : ... .. . ... : F-# 15 . ... : ... .. . ...
ROW 18 : ... .. . ... : ... .. . ... : ... .. . ... : ... .. . ... : ... .. . ...
ROW 19 : ... .. . ... : ... .. . ... : ... .. . ... : F-# 15 . ... : ... .. . ...
ROW 1A : ... .. . ... : A-0 0D . ... : G-3 07 . ... : C-# 19 . ... : ... .. . ...
ROW 1B : ... .. . ... : ... .. . ... : C-3 07 . ... : F-# 15 . ... : ... .. . ...
ROW 1C : ... .. . ... : ... .. . ... : ... .. . ... : 8-# 15 . ... : ... .. . ...
ROW 1D : ... .. . ... : ... .. . ... : ... .. . ... : ... .. . ... : ... .. . ...
ROW 1E : ... .. . ... : A-0 0F . ... : ... .. . ... : C-# 19 . ... : ... .. . ...
ROW 1F : ... .. . ... : ... .. . ... : ... .. . ... : F-# 15 . ... : ... .. . ...
ROW 20 : G-3 18 . ... : A-0 0D . ... : G-3 07 . ... : C-# 19 . ... : ... .. . ...
ROW 21 : ... .. . ... : ... .. . ... : ... .. . ... : ... .. . ... : ... .. . ...
ROW 22 : E-3 18 . ... : A-0 0F . ... : G-3 07 . ... : C-# 19 . ... : ... .. . ...
ROW 23 : ... .. . ... : ... .. . ... : ... .. . ... : ... .. . ... : ... .. . ...
ROW 24 : E-3 18 . ... : ... .. . ... : ... .. . ... : 8-# 15 . ... : ... .. . ...
ROW 25 : ... .. . ... : ... .. . ... : ... .. . ... : ... .. . ... : ... .. . ...
ROW 26 : G-3 18 . ... : A-0 0D . ... : C-3 07 . ... : C-# 19 . ... : ... .. . ...
ROW 27 : ... .. . ... : ... .. . ... : ... .. . ... : F-# 15 . ... : ... .. . ...
ROW 28 : A-3 18 . ... : ... .. . ... : ... .. . ... : ... .. . ... : ... .. . ...
ROW 29 : ... .. . ... : ... .. . ... : ... .. . ... : F-# 15 . ... : ... .. . ...
ROW 2A : ... .. . ... : A-0 0D . ... : G-3 07 . ... : C-# 19 . ... : ... .. . ...
ROW 2B : ... .. . ... : ... .. . ... : C-3 07 . ... : F-# 15 . ... : ... .. . ...
ROW 2C : ... .. . ... : ... .. . ... : ... .. . ... : 8-# 15 . ... : ... .. . ...
ROW 2D : ... .. . ... : ... .. . ... : ... .. . ... : ... .. . ... : ... .. . ...
ROW 2E : G-3 18 . ... : A-0 0F . ... : ... .. . ... : C-# 19 . ... : ... .. . ...
ROW 2F : --- .. . ... : ... .. . ... : ... .. . ... : F-# 15 . ... : ... .. . ...
ROW 30 : A-3 18 . ... : A-0 0D . ... : G-3 07 . ... : C-# 19 . ... : ... .. . ...
ROW 31 : ... .. . ... : ... .. . ... : ... .. . ... : ... .. . ... : ... .. . ...
ROW 32 : G-3 18 . ... : A-0 0F . ... : G-3 07 . ... : C-# 19 . ... : ... .. . ...
ROW 33 : ... .. . ... : ... .. . ... : ... .. . ... : ... .. . ... : ... .. . ...
ROW 34 : E-3 18 . ... : ... .. . ... : ... .. . ... : 8-# 15 . ... : ... .. . ...
ROW 35 : ... .. . ... : ... .. . ... : ... .. . ... : ... .. . ... : ... .. . ...
ROW 36 : G-3 18 . ... : A-0 0D . ... : C-3 07 . ... : C-# 19 . ... : ... .. . ...
ROW 37 : ... .. . ... : ... .. . ... : ... .. . ... : F-# 15 . ... : ... .. . ...
ROW 38 : A-3 18 . ... : ... .. . ... : ... .. . ... : ... .. . ... : ... .. . ...
ROW 39 : ... .. . ... : ... .. . ... : ... .. . ... : F-# 15 . ... : ... .. . ...
ROW 3A : G-3 18 . ... : A-0 0D . ... : G-3 07 . ... : C-# 19 . ... : ... .. . ...
ROW 3B : ... .. . ... : ... .. . ... : C-3 07 . ... : F-# 15 . ... : ... .. . ...
ROW 3C : E-3 18 . ... : ... .. . ... : ... .. . ... : 8-# 15 . ... : ... .. . ...
ROW 3D : ... .. . ... : ... .. . ... : ... .. . ... : ... .. . ... : ... .. . ...
ROW 3E : G-3 18 . ... : A-0 0F . ... : ... .. . ... : C-# 19 . ... : ... .. . ...
ROW 3F : ... .. . ... : ... .. . ... : ... .. . ... : F-# 15 . ... : ... .. . ...

PATTERN 0D
ROW 00 : ... .. . ... : A-1 0D . ... : C-3 07 . ... : C-# 19 . ... : ... .. . ...
ROW 01 : ... .. . ... : ... .. . ... : ... .. . ... : ... .. . ... : ... .. . ...
ROW 02 : ... .. . ... : A-1 0F . ... : C-3 07 . ... : C-# 19 . ... : ... .. . ...
ROW 03 : ... .. . ... : ... .. . ... : ... .. . ... : ... .. . ... : ... .. . ...
ROW 04 : C-2 18 . ... : A-1 00 . ... : G-3 07 . ... : 8-# 15 . ... : ... .. . ...
ROW 05 : --- .. . ... : ... .. . ... : ... .. . ... : ... .. . ... : ... .. . ...
ROW 06 : ... .. . ... : A-1 0D . ... : C-3 07 . ... : C-# 19 . ... : ... .. . ...
ROW 07 : C-2 18 . ... : ... .. . ... : ... .. . ... : ... .. . ... : ... .. . ...
ROW 08 : --- .. . ... : A-1 00 . ... : C-3 07 . ... : F-# 05 . ... : ... .. . ...
ROW 09 : C-2 18 . ... : ... .. . ... : ... .. . ... : F-# 15 . ... : ... .. . ...
ROW 0A : --- .. . ... : A-1 0D . ... : C-3 07 . ... : C-# 19 . ... : ... .. . ...
ROW 0B : C-2 18 . ... : ... .. . ... : ... .. . ... : ... .. . ... : ... .. . ...
ROW 0C : C-2 18 . ... : A-1 00 . ... : G-3 07 . ... : 8-# 15 . ... : ... .. . ...
ROW 0D : --- .. . ... : ... .. . ... : ... .. . ... : ... .. . ... : ... .. . ...
ROW 0E : C-2 18 . ... : A-1 0F . ... : C-3 07 . ... : C-# 19 . ... : ... .. . ...
ROW 0F : --- .. . ... : ... .. . ... : G-3 07 . ... : F-# 15 . ... : ... .. . ...
ROW 10 : ... .. . ... : A-1 0D . ... : C-3 07 . ... : C-# 19 . ... : ... .. . ...
ROW 11 : ... .. . ... : ... .. . ... : ... .. . ... : ... .. . ... : ... .. . ...
ROW 12 : ... .. . ... : A-1 0F . ... : C-3 07 . ... : C-# 19 . ... : ... .. . ...
ROW 13 : ... .. . ... : ... .. . ... : ... .. . ... : ... .. . ... : ... .. . ...
ROW 14 : C-2 18 . ... : A-1 00 . ... : G-3 07 . ... : 8-# 15 . ... : ... .. . ...
ROW 15 : --- .. . ... : ... .. . ... : ... .. . ... : ... .. . ... : ... .. . ...
ROW 16 : ... .. . ... : A-1 0D . ... : C-3 07 . ... : C-# 19 . ... : ... .. . ...
ROW 17 : C-2 18 . ... : ... .. . ... : ... .. . ... : ... .. . ... : ... .. . ...
ROW 18 : --- .. . ... : A-1 00 . ... : C-3 07 . ... : F-# 05 . ... : ... .. . ...
ROW 19 : C-2 18 . ... : ... .. . ... : ... .. . ... : F-# 15 . ... : ... .. . ...
ROW 1A : --- .. . ... : A-1 0D . ... : C-3 07 . ... : C-# 19 . ... : ... .. . ...
ROW 1B : C-2 18 . ... : ... .. . ... : ... .. . ... : ... .. . ... : ... .. . ...
ROW 1C : C-2 18 . ... : A-1 00 . ... : G-3 07 . ... : 8-# 15 . ... : ... .. . ...
ROW 1D : --- .. . ... : ... .. . ... : ... .. . ... : ... .. . ... : ... .. . ...
ROW 1E : C-2 18 . ... : A-1 0F . ... : C-3 07 . ... : C-# 19 . ... : ... .. . ...
ROW 1F : --- .. . ... : ... .. . ... : G-3 07 . ... : F-# 15 . ... : ... .. . ...
ROW 20 : ... .. . ... : A-1 0D . ... : C-3 07 . ... : C-# 19 . ... : ... .. . ...
ROW 21 : ... .. . ... : ... .. . ... : ... .. . ... : ... .. . ... : ... .. . ...
ROW 22 : ... .. . ... : A-1 0F . ... : C-3 07 . ... : C-# 19 . ... : ... .. . ...
ROW 23 : ... .. . ... : ... .. . ... : ... .. . ... : ... .. . ... : ... .. . ...
ROW 24 : D-2 18 . ... : A-1 00 . ... : G-3 07 . ... : 8-# 15 . ... : ... .. . ...
ROW 25 : --- .. . ... : ... .. . ... : ... .. . ... : ... .. . ... : ... .. . ...
ROW 26 : ... .. . ... : A-1 0D . ... : C-3 07 . ... : C-# 19 . ... : ... .. . ...
ROW 27 : D-2 18 . ... : ... .. . ... : ... .. . ... : ... .. . ... : ... .. . ...
ROW 28 : --- .. . ... : A-1 00 . ... : C-3 07 . ... : F-# 05 . ... : ... .. . ...
ROW 29 : D-2 18 . ... : ... .. . ... : ... .. . ... : F-# 15 . ... : ... .. . ...
ROW 2A : --- .. . ... : A-1 0D . ... : C-3 07 . ... : C-# 19 . ... : ... .. . ...
ROW 2B : D-2 18 . ... : ... .. . ... : ... .. . ... : ... .. . ... : ... .. . ...
ROW 2C : D-2 18 . ... : A-1 00 . ... : G-3 07 . ... : 8-# 15 . ... : ... .. . ...
ROW 2D : --- .. . ... : ... .. . ... : ... .. . ... : ... .. . ... : ... .. . ...
ROW 2E : D-2 18 . ... : A-1 0F . ... : C-3 07 . ... : C-# 19 . ... : ... .. . ...
ROW 2F : --- .. . ... : ... .. . ... : G-3 07 . ... : F-# 15 . ... : ... .. . ...
ROW 30 : ... .. . ... : A-1 0D . ... : C-3 07 . ... : C-# 19 . ... : ... .. . ...
ROW 31 : ... .. . ... : ... .. . ... : ... .. . ... : ... .. . ... : ... .. . ...
ROW 32 : ... .. . ... : A-1 0F . ... : C-3 07 . ... : C-# 19 . ... : ... .. . ...
ROW 33 : ... .. . ... : ... .. . ... : ... .. . ... : ... .. . ... : ... .. . ...
ROW 34 : B-1 18 . ... : A-1 00 . ... : G-3 07 . ... : 8-# 15 . ... : ... .. . ...
ROW 35 : --- .. . ... : ... .. . ... : ... .. . ... : ... .. . ... : ... .. . ...
ROW 36 : ... .. . ... : A-1 0D . ... : C-3 07 . ... : C-# 19 . ... : ... .. . ...
ROW 37 : D-2 18 . ... : ... .. . ... : ... .. . ... : ... .. . ... : ... .. . ...
ROW 38 : --- .. . ... : A-1 00 . ... : C-3 07 . ... : F-# 05 . ... : ... .. . ...
ROW 39 : B-1 18 . ... : ... .. . ... : ... .. . ... : F-# 15 . ... : ... .. . ...
ROW 3A : --- .. . ... : A-1 0D . ... : C-3 07 . ... : C-# 19 . ... : ... .. . ...
ROW 3B : D-2 18 . ... : ... .. . ... : ... .. . ... : ... .. . ... : ... .. . ...
ROW 3C : F-2 18 . ... : A-1 00 . ... : G-3 07 . ... : 8-# 15 . ... : ... .. . ...
ROW 3D : A-2 18 . ... : ... .. . ... : ... .. . ... : ... .. . ... : ... .. . ...
ROW 3E : C-3 18 . ... : A-1 0F . ... : C-3 07 . ... : C-# 19 . ... : ... .. . ...
ROW 3F : ... .. . ... : ... .. . ... : G-3 07 . ... : F-# 15 . ... : ... .. . ...

PATTERN 0E
ROW 00 : ... .. . ... : A-0 0D . ... : G-3 07 . ... : C-# 19 . ... : ... .. . ...
ROW 01 : ... .. . ... : ... .. . ... : ... .. . ... : ... .. . ... : ... .. . ...
ROW 02 : ... .. . ... : A-0 0F . ... : ... .. . ... : ... .. . ... : ... .. . ...
ROW 03 : ... .. . ... : ... .. . ... : ... .. . ... : ... .. . ... : ... .. . ...
ROW 04 : ... .. . ... : ... .. . ... : ... .. . ... : 8-# 15 . ... : ... .. . ...
ROW 05 : ... .. . ... : ... .. . ... : ... .. . ... : ... .. . ... : ... .. . ...
ROW 06 : G-2 18 . ... : A-0 0D . ... : C-3 07 . ... : ... .. . ... : ... .. . ...
ROW 07 : ... .. . ... : ... .. . ... : ... .. . ... : ... .. . ... : ... .. . ...
ROW 08 : --- .. . ... : ... .. . ... : ... .. . ... : ... .. . ... : ... .. . ...
ROW 09 : ... .. . ... : ... .. . ... : ... .. . ... : F-# 15 . ... : ... .. . ...
ROW 0A : D-3 18 . ... : A-0 0D . ... : G-3 07 . ... : C-# 19 . ... : ... .. . ...
ROW 0B : ... .. . ... : ... .. . ... : ... .. . ... : ... .. . ... : ... .. . ...
ROW 0C : ... .. . ... : ... .. . ... : ... .. . ... : 8-# 15 . ... : ... .. . ...
ROW 0D : ... .. . ... : ... .. . ... : ... .. . ... : ... .. . ... : ... .. . ...
ROW 0E : ... .. . ... : A-0 0F . ... : ... .. . ... : C-# 19 . ... : ... .. . ...
ROW 0F : --- .. . ... : ... .. . ... : ... .. . ... : F-# 15 . ... : ... .. . ...
ROW 10 : C-3 18 . ... : A-0 0D . ... : G-3 07 . ... : C-# 19 . ... : ... .. . ...
ROW 11 : ... .. . ... : ... .. . ... : ... .. . ... : ... .. . ... : ... .. . ...
ROW 12 : ... .. . ... : A-0 0F . ... : ... .. . ... : ... .. . ... : ... .. . ...
ROW 13 : ... .. . ... : ... .. . ... : ... .. . ... : ... .. . ... : ... .. . ...
ROW 14 : --- .. . ... : ... .. . ... : ... .. . ... : 8-# 15 . ... : ... .. . ...
ROW 15 : ... .. . ... : ... .. . ... : ... .. . ... : ... .. . ... : ... .. . ...
ROW 16 : C-4 18 . ... : A-0 0D . ... : C-3 07 . ... : ... .. . ... : ... .. . ...
ROW 17 : ... .. . ... : ... .. . ... : ... .. . ... : ... .. . ... : ... .. . ...
ROW 18 : ... .. . ... : ... .. . ... : ... .. . ... : ... .. . ... : ... .. . ...
ROW 19 : ... .. . ... : ... .. . ... : ... .. . ... : F-# 15 . ... : ... .. . ...
ROW 1A : ... .. . ... : A-0 0D . ... : G-3 07 . ... : C-# 19 . ... : ... .. . ...
ROW 1B : ... .. . ... : ... .. . ... : ... .. . ... : ... .. . ... : ... .. . ...
ROW 1C : ... .. . ... : ... .. . ... : ... .. . ... : 8-# 15 . ... : ... .. . ...
ROW 1D : ... .. . ... : ... .. . ... : ... .. . ... : ... .. . ... : ... .. . ...
ROW 1E : ... .. . ... : A-0 0F . ... : ... .. . ... : C-# 19 . ... : ... .. . ...
ROW 1F : ... .. . ... : ... .. . ... : ... .. . ... : F-# 15 . ... : ... .. . ...
ROW 20 : G-3 18 . ... : A-0 0D . ... : G-3 07 . ... : C-# 19 . ... : ... .. . ...
ROW 21 : ... .. . ... : ... .. . ... : ... .. . ... : ... .. . ... : ... .. . ...
ROW 22 : E-3 18 . ... : A-0 0F . ... : ... .. . ... : ... .. . ... : ... .. . ...
ROW 23 : ... .. . ... : ... .. . ... : ... .. . ... : ... .. . ... : ... .. . ...
ROW 24 : E-3 18 . ... : ... .. . ... : ... .. . ... : 8-# 15 . ... : ... .. . ...
ROW 25 : ... .. . ... : ... .. . ... : ... .. . ... : ... .. . ... : ... .. . ...
ROW 26 : G-3 18 . ... : A-0 0D . ... : C-3 07 . ... : ... .. . ... : ... .. . ...
ROW 27 : ... .. . ... : ... .. . ... : ... .. . ... : ... .. . ... : ... .. . ...
ROW 28 : A-3 18 . ... : ... .. . ... : ... .. . ... : ... .. . ... : ... .. . ...
ROW 29 : ... .. . ... : ... .. . ... : ... .. . ... : F-# 15 . ... : ... .. . ...
ROW 2A : ... .. . ... : A-0 0D . ... : G-3 07 . ... : C-# 19 . ... : ... .. . ...
ROW 2B : ... .. . ... : ... .. . ... : ... .. . ... : ... .. . ... : ... .. . ...
ROW 2C : ... .. . ... : ... .. . ... : ... .. . ... : 8-# 15 . ... : ... .. . ...
ROW 2D : ... .. . ... : ... .. . ... : ... .. . ... : ... .. . ... : ... .. . ...
ROW 2E : G-3 18 . ... : A-0 0F . ... : ... .. . ... : C-# 19 . ... : ... .. . ...
ROW 2F : --- .. . ... : ... .. . ... : ... .. . ... : F-# 15 . ... : ... .. . ...
ROW 30 : A-3 18 . ... : A-0 0D . ... : G-3 07 . ... : C-# 19 . ... : ... .. . ...
ROW 31 : ... .. . ... : ... .. . ... : ... .. . ... : ... .. . ... : ... .. . ...
ROW 32 : G-3 18 . ... : A-0 0F . ... : ... .. . ... : ... .. . ... : ... .. . ...
ROW 33 : ... .. . ... : ... .. . ... : ... .. . ... : ... .. . ... : ... .. . ...
ROW 34 : E-3 18 . ... : ... .. . ... : ... .. . ... : 8-# 15 . ... : ... .. . ...
ROW 35 : ... .. . ... : ... .. . ... : ... .. . ... : ... .. . ... : ... .. . ...
ROW 36 : G-3 18 . ... : A-0 0D . ... : C-3 07 . ... : ... .. . ... : ... .. . ...
ROW 37 : ... .. . ... : --- .. . ... : ... .. . ... : ... .. . ... : ... .. . ...
ROW 38 : A-3 18 . ... : ... .. . ... : ... .. . ... : ... .. . ... : ... .. . ...
ROW 39 : ... .. . ... : ... .. . ... : ... .. . ... : F-# 15 . ... : ... .. . ...
ROW 3A : G-3 18 . ... : A-0 0D . ... : G-3 07 . ... : C-# 19 . ... : ... .. . ...
ROW 3B : ... .. . ... : ... .. . ... : ... .. . ... : ... .. . ... : ... .. . ...
ROW 3C : E-3 18 . ... : F-1 0D . ... : C-3 07 . ... : 8-# 15 . ... : ... .. . ...
ROW 3D : ... .. . ... : A-1 0D . ... : C-3 07 . ... : 8-# 15 . ... : ... .. . ...
ROW 3E : G-3 18 . ... : C-2 0D . ... : C-3 07 . ... : 9-# 15 . ... : ... .. . ...
ROW 3F : ... .. . ... : --- .. . ... : ... .. . ... : ... .. . ... : ... .. . ...

PATTERN 0F
ROW 00 : B-3 0D . ... : A-1 0D . ... : ... .. . ... : 3-# 05 . ... : ... .. . ...
ROW 01 : G-3 18 . ... : ... .. . ... : ... .. . ... : ... .. . ... : ... .. . ...
ROW 02 : B-3 0F . ... : A-1 0F . ... : ... .. . ... : ... .. . ... : ... .. . ...
ROW 03 : ... .. . ... : ... .. . ... : ... .. . ... : ... .. . ... : ... .. . ...
ROW 04 : B-3 00 . ... : A-1 00 . ... : ... .. . ... : 3-# 05 . ... : ... .. . ...
ROW 05 : G-3 18 . ... : ... .. . ... : ... .. . ... : ... .. . ... : ... .. . ...
ROW 06 : B-3 0D . ... : A-1 0D . ... : ... .. . ... : ... .. . ... : ... .. . ...
ROW 07 : ... .. . ... : ... .. . ... : ... .. . ... : ... .. . ... : ... .. . ...
ROW 08 : B-3 00 . ... : A-1 00 . ... : B-4 14 . ... : 3-# 05 . ... : ... .. . ...
ROW 09 : G-3 18 . ... : ... .. . ... : ... .. . ... : ... .. . ... : ... .. . ...
ROW 0A : B-3 0D . ... : A-1 0D . ... : ... .. . ... : ... .. . ... : ... .. . ...
ROW 0B : ... .. . ... : ... .. . ... : ... .. . ... : ... .. . ... : ... .. . ...
ROW 0C : B-3 00 . ... : A-1 00 . ... : ... .. . ... : 3-# 05 . ... : ... .. . ...
ROW 0D : G-3 18 . ... : ... .. . ... : ... .. . ... : ... .. . ... : ... .. . ...
ROW 0E : B-3 0F . ... : A-1 0F . ... : ... .. . ... : ... .. . ... : ... .. . ...
ROW 0F : ... .. . ... : ... .. . ... : ... .. . ... : ... .. . ... : ... .. . ...
ROW 10 : B-3 0D . ... : A-1 0D . ... : C-5 14 . ... : 3-# 05 . ... : ... .. . ...
ROW 11 : ... .. . ... : ... .. . ... : ... .. . ... : ... .. . ... : ... .. . ...
ROW 12 : B-3 0F . ... : A-1 0F . ... : ... .. . ... : ... .. . ... : ... .. . ...
ROW 13 : ... .. . ... : ... .. . ... : ... .. . ... : ... .. . ... : ... .. . ...
ROW 14 : B-3 00 . ... : A-1 00 . ... : B-4 14 . ... : 3-# 05 . ... : ... .. . ...
ROW 15 : ... .. . ... : ... .. . ... : ... .. . ... : ... .. . ... : ... .. . ...
ROW 16 : B-3 0D . ... : A-1 0D . ... : A-4 14 . ... : ... .. . ... : ... .. . ...
ROW 17 : ... .. . ... : ... .. . ... : ... .. . ... : ... .. . ... : ... .. . ...
ROW 18 : B-3 00 . ... : A-1 00 . ... : B-4 14 . ... : 3-# 05 . ... : ... .. . ...
ROW 19 : ... .. . ... : ... .. . ... : ... .. . ... : ... .. . ... : ... .. . ...
ROW 1A : B-3 0D . ... : A-1 0D . ... : ... .. . ... : ... .. . ... : ... .. . ...
ROW 1B : ... .. . ... : ... .. . ... : ... .. . ... : ... .. . ... : ... .. . ...
ROW 1C : B-3 00 . ... : A-1 00 . ... : D-5 14 . ... : 3-# 05 . ... : ... .. . ...
ROW 1D : ... .. . ... : ... .. . ... : ... .. . ... : ... .. . ... : ... .. . ...
ROW 1E : B-3 0F . ... : A-1 0F . ... : ... .. . ... : ... .. . ... : ... .. . ...
ROW 1F : ... .. . ... : ... .. . ... : ... .. . ... : ... .. . ... : ... .. . ...
ROW 20 : B-3 0D . ... : A-1 0D . ... : E-5 14 . ... : 3-# 05 . ... : ... .. . ...
ROW 21 : G-3 18 . ... : ... .. . ... : ... .. . ... : ... .. . ... : ... .. . ...
ROW 22 : B-3 0F . ... : A-1 0F . ... : ... .. . ... : ... .. . ... : ... .. . ...
ROW 23 : ... .. . ... : ... .. . ... : ... .. . ... : ... .. . ... : ... .. . ...
ROW 24 : B-3 00 . ... : A-1 00 . ... : ... .. . ... : 3-# 05 . ... : ... .. . ...
ROW 25 : G-3 18 . ... : ... .. . ... : ... .. . ... : ... .. . ... : ... .. . ...
ROW 26 : B-3 0D . ... : A-1 0D . ... : ... .. . ... : ... .. . ... : ... .. . ...
ROW 27 : ... .. . ... : ... .. . ... : ... .. . ... : ... .. . ... : ... .. . ...
ROW 28 : B-3 00 . ... : A-1 00 . ... : ... .. . ... : 3-# 05 . ... : ... .. . ...
ROW 29 : G-3 18 . ... : ... .. . ... : ... .. . ... : ... .. . ... : ... .. . ...
ROW 2A : B-3 0D . ... : A-1 0D . ... : ... .. . ... : ... .. . ... : ... .. . ...
ROW 2B : ... .. . ... : ... .. . ... : ... .. . ... : ... .. . ... : ... .. . ...
ROW 2C : B-3 00 . ... : A-1 00 . ... : ... .. . ... : 3-# 05 . ... : ... .. . ...
ROW 2D : G-3 18 . ... : ... .. . ... : --- .. . ... : ... .. . ... : ... .. . ...
ROW 2E : B-3 0F . ... : A-1 0F . ... : E-5 14 . ... : ... .. . ... : ... .. . ...
ROW 2F : ... .. . ... : ... .. . ... : --- .. . ... : ... .. . ... : ... .. . ...
ROW 30 : B-3 0D . ... : A-1 0D . ... : G-5 14 . ... : 3-# 05 . ... : ... .. . ...
ROW 31 : ... .. . ... : ... .. . ... : ... .. . ... : ... .. . ... : ... .. . ...
ROW 32 : B-3 0F . ... : A-1 0F . ... : F-5 14 . ... : ... .. . ... : ... .. . ...
ROW 33 : ... .. . ... : ... .. . ... : ... .. . ... : ... .. . ... : ... .. . ...
ROW 34 : B-3 00 . ... : A-1 00 . ... : E-5 14 . ... : 3-# 05 . ... : ... .. . ...
ROW 35 : ... .. . ... : ... .. . ... : ... .. . ... : ... .. . ... : ... .. . ...
ROW 36 : B-3 0D . ... : A-1 0D . ... : F-5 14 . ... : ... .. . ... : ... .. . ...
ROW 37 : ... .. . ... : ... .. . ... : ... .. . ... : ... .. . ... : ... .. . ...
ROW 38 : B-3 00 . ... : A-1 00 . ... : ... .. . ... : 3-# 05 . ... : ... .. . ...
ROW 39 : ... .. . ... : ... .. . ... : ... .. . ... : ... .. . ... : ... .. . ...
ROW 3A : B-3 0D . ... : A-1 0D . ... : E-5 14 . ... : 3-# 05 . ... : ... .. . ...
ROW 3B : ... .. . ... : ... .. . ... : ... .. . ... : ... .. . ... : ... .. . ...
ROW 3C : B-3 00 . ... : A-1 00 . ... : C-5 14 . ... : 3-# 05 . ... : ... .. . ...
ROW 3D : ... .. . ... : ... .. . ... : ... .. . ... : ... .. . ... : ... .. . ...
ROW 3E : B-3 0F . ... : A-1 0F . ... : D-5 14 . ... : 3-# 05 . ... : ... .. . ...
ROW 3F : ... .. . ... : ... .. . ... : ... .. . ... : C-# 19 . ... : ... .. . ...

PATTERN 10
ROW 00 : A-0 0D . ... : B-2 0D . ... : G-3 07 . ... : C-# 19 . ... : ... .. . ...
ROW 01 : ... .. . ... : ... .. . ... : ... .. . ... : ... .. . ... : ... .. . ...
ROW 02 : A-0 0D . ... : B-2 0F . ... : ... .. . ... : ... .. . ... : ... .. . ...
ROW 03 : ... .. . ... : ... .. . ... : ... .. . ... : ... .. . ... : ... .. . ...
ROW 04 : A-0 0D . ... : B-2 00 . ... : ... .. . ... : 8-# 15 . ... : ... .. . ...
ROW 05 : ... .. . ... : ... .. . ... : ... .. . ... : ... .. . ... : ... .. . ...
ROW 06 : A-0 0D . ... : B-2 0D . ... : C-3 07 . ... : C-# 19 . ... : ... .. . ...
ROW 07 : ... .. . ... : ... .. . ... : ... .. . ... : ... .. . ... : ... .. . ...
ROW 08 : A-0 0D . ... : B-2 00 . ... : ... .. . ... : ... .. . ... : ... .. . ...
ROW 09 : ... .. . ... : ... .. . ... : ... .. . ... : F-# 15 . ... : ... .. . ...
ROW 0A : A-0 0D . ... : B-2 0D . ... : G-3 07 . ... : C-# 19 . ... : ... .. . ...
ROW 0B : ... .. . ... : ... .. . ... : ... .. . ... : ... .. . ... : ... .. . ...
ROW 0C : A-0 0D . ... : B-2 00 . ... : ... .. . ... : 8-# 15 . ... : ... .. . ...
ROW 0D : ... .. . ... : ... .. . ... : ... .. . ... : ... .. . ... : ... .. . ...
ROW 0E : A-0 0D . ... : B-2 0F . ... : ... .. . ... : C-# 19 . ... : ... .. . ...
ROW 0F : ... .. . ... : ... .. . ... : ... .. . ... : F-# 15 . ... : ... .. . ...
ROW 10 : A-0 0D . ... : B-2 0D . ... : G-3 07 . ... : C-# 19 . ... : ... .. . ...
ROW 11 : ... .. . ... : ... .. . ... : ... .. . ... : ... .. . ... : ... .. . ...
ROW 12 : A-0 0D . ... : B-2 0F . ... : ... .. . ... : ... .. . ... : ... .. . ...
ROW 13 : ... .. . ... : ... .. . ... : ... .. . ... : ... .. . ... : ... .. . ...
ROW 14 : A-0 0D . ... : B-2 00 . ... : ... .. . ... : 8-# 15 . ... : ... .. . ...
ROW 15 : ... .. . ... : ... .. . ... : ... .. . ... : ... .. . ... : ... .. . ...
ROW 16 : A-0 0D . ... : B-2 0D . ... : C-3 07 . ... : C-# 19 . ... : ... .. . ...
ROW 17 : ... .. . ... : ... .. . ... : ... .. . ... : ... .. . ... : ... .. . ...
ROW 18 : A-0 0D . ... : B-2 00 . ... : ... .. . ... : ... .. . ... : ... .. . ...
ROW 19 : ... .. . ... : ... .. . ... : ... .. . ... : F-# 15 . ... : ... .. . ...
ROW 1A : A-0 0D . ... : B-2 0D . ... : G-3 07 . ... : C-# 19 . ... : ... .. . ...
ROW 1B : ... .. . ... : ... .. . ... : ... .. . ... : ... .. . ... : ... .. . ...
ROW 1C : A-0 0D . ... : B-2 00 . ... : ... .. . ... : 8-# 15 . ... : ... .. . ...
ROW 1D : ... .. . ... : ... .. . ... : ... .. . ... : ... .. . ... : ... .. . ...
ROW 1E : A-0 0D . ... : B-2 0F . ... : ... .. . ... : C-# 19 . ... : ... .. . ...
ROW 1F : ... .. . ... : ... .. . ... : ... .. . ... : F-# 15 . ... : ... .. . ...
ROW 20 : A-0 0D . ... : B-2 0D . ... : G-3 07 . ... : C-# 19 . ... : ... .. . ...
ROW 21 : ... .. . ... : ... .. . ... : ... .. . ... : ... .. . ... : ... .. . ...
ROW 22 : A-0 0D . ... : B-2 0F . ... : ... .. . ... : ... .. . ... : ... .. . ...
ROW 23 : ... .. . ... : ... .. . ... : ... .. . ... : ... .. . ... : ... .. . ...
ROW 24 : A-0 0D . ... : B-2 00 . ... : ... .. . ... : 8-# 15 . ... : ... .. . ...
ROW 25 : ... .. . ... : ... .. . ... : ... .. . ... : ... .. . ... : ... .. . ...
ROW 26 : A-0 0D . ... : B-2 0D . ... : C-3 07 . ... : C-# 19 . ... : ... .. . ...
ROW 27 : ... .. . ... : ... .. . ... : ... .. . ... : ... .. . ... : ... .. . ...
ROW 28 : A-0 0D . ... : B-2 00 . ... : ... .. . ... : ... .. . ... : ... .. . ...
ROW 29 : ... .. . ... : ... .. . ... : ... .. . ... : F-# 15 . ... : ... .. . ...
ROW 2A : A-0 0D . ... : B-2 0D . ... : G-3 07 . ... : C-# 19 . ... : ... .. . ...
ROW 2B : ... .. . ... : ... .. . ... : ... .. . ... : ... .. . ... : ... .. . ...
ROW 2C : A-0 0D . ... : B-2 00 . ... : ... .. . ... : 8-# 15 . ... : ... .. . ...
ROW 2D : ... .. . ... : ... .. . ... : ... .. . ... : ... .. . ... : ... .. . ...
ROW 2E : A-0 0D . ... : B-2 0F . ... : ... .. . ... : C-# 19 . ... : ... .. . ...
ROW 2F : ... .. . ... : ... .. . ... : ... .. . ... : F-# 15 . ... : ... .. . ...
ROW 30 : A-0 0D . ... : B-2 0D . ... : G-3 07 . ... : C-# 19 . ... : ... .. . ...
ROW 31 : ... .. . ... : ... .. . ... : ... .. . ... : ... .. . ... : ... .. . ...
ROW 32 : A-0 0D . ... : B-2 0F . ... : ... .. . ... : ... .. . ... : ... .. . ...
ROW 33 : ... .. . ... : ... .. . ... : ... .. . ... : ... .. . ... : ... .. . ...
ROW 34 : A-0 0D . ... : B-2 00 . ... : ... .. . ... : 8-# 15 . ... : ... .. . ...
ROW 35 : ... .. . ... : ... .. . ... : ... .. . ... : ... .. . ... : ... .. . ...
ROW 36 : A-0 0D . ... : B-2 0D . ... : C-3 07 . ... : C-# 19 . ... : ... .. . ...
ROW 37 : ... .. . ... : ... .. . ... : ... .. . ... : ... .. . ... : ... .. . ...
ROW 38 : A-0 0D . ... : B-2 00 . ... : ... .. . ... : ... .. . ... : ... .. . ...
ROW 39 : ... .. . ... : ... .. . ... : ... .. . ... : F-# 15 . ... : ... .. . ...
ROW 3A : A-0 0D . ... : B-2 0D . ... : G-3 07 . ... : C-# 19 . ... : ... .. . ...
ROW 3B : ... .. . ... : ... .. . ... : ... .. . ... : ... .. . ... : ... .. . ...
ROW 3C : A-0 0D . ... : B-2 00 . ... : ... .. . ... : 8-# 15 . ... : ... .. . ...
ROW 3D : ... .. . ... : ... .. . ... : ... .. . ... : ... .. . ... : ... .. . ...
ROW 3E : A-0 0D . ... : B-2 0F . ... : ... .. . ... : C-# 19 . ... : ... .. . ...
ROW 3F : ... .. . ... : ... .. . ... : ... .. . ... : F-# 15 . ... : ... .. . ...

PATTERN 11
ROW 00 : A-0 0D . ... : A-1 0D . ... : A-4 14 . ... : C-# 19 . ... : ... .. . ...
ROW 01 : ... .. . ... : ... .. . ... : ... .. . ... : ... .. . ... : ... .. . ...
ROW 02 : A-0 0D . ... : A-1 0F . ... : C-4 14 . ... : ... .. . ... : ... .. . ...
ROW 03 : ... .. . ... : ... .. . ... : ... .. . ... : ... .. . ... : ... .. . ...
ROW 04 : A-0 0D . ... : A-1 00 . ... : --- .. . ... : 8-# 15 . ... : ... .. . ...
ROW 05 : ... .. . ... : ... .. . ... : ... .. . ... : ... .. . ... : ... .. . ...
ROW 06 : A-0 0D . ... : A-1 0D . ... : A-4 14 . ... : F-# 15 . ... : ... .. . ...
ROW 07 : ... .. . ... : ... .. . ... : ... .. . ... : ... .. . ... : ... .. . ...
ROW 08 : A-0 0D . ... : A-1 00 . ... : C-4 14 . ... : ... .. . ... : ... .. . ...
ROW 09 : ... .. . ... : ... .. . ... : ... .. . ... : F-# 15 . ... : ... .. . ...
ROW 0A : A-0 0D . ... : A-1 0D . ... : --- .. . ... : C-# 19 . ... : ... .. . ...
ROW 0B : ... .. . ... : ... .. . ... : ... .. . ... : ... .. . ... : ... .. . ...
ROW 0C : A-0 0D . ... : A-1 00 . ... : A-4 14 . ... : 8-# 15 . ... : ... .. . ...
ROW 0D : ... .. . ... : ... .. . ... : ... .. . ... : ... .. . ... : ... .. . ...
ROW 0E : A-0 0D . ... : A-1 0F . ... : C-4 14 . ... : C-# 19 . ... : ... .. . ...
ROW 0F : ... .. . ... : ... .. . ... : ... .. . ... : F-# 15 . ... : ... .. . ...
ROW 10 : A-0 0D . ... : A-1 0D . ... : --- .. . ... : C-# 19 . ... : ... .. . ...
ROW 11 : ... .. . ... : ... .. . ... : ... .. . ... : ... .. . ... : ... .. . ...
ROW 12 : A-0 0D . ... : A-1 0F . ... : A-4 14 . ... : ... .. . ... : ... .. . ...
ROW 13 : ... .. . ... : ... .. . ... : ... .. . ... : ... .. . ... : ... .. . ...
ROW 14 : A-0 0D . ... : A-1 00 . ... : B-4 14 . ... : 8-# 15 . ... : ... .. . ...
ROW 15 : ... .. . ... : ... .. . ... : ... .. . ... : ... .. . ... : ... .. . ...
ROW 16 : A-0 0D . ... : A-1 0D . ... : C-5 14 . ... : ... .. . ... : ... .. . ...
ROW 17 : ... .. . ... : ... .. . ... : ... .. . ... : ... .. . ... : ... .. . ...
ROW 18 : A-0 0D . ... : A-1 00 . ... : ... .. . ... : ... .. . ... : ... .. . ...
ROW 19 : ... .. . ... : ... .. . ... : ... .. . ... : F-# 15 . ... : ... .. . ...
ROW 1A : A-0 0D . ... : A-1 0D . ... : ... .. . ... : C-# 19 . ... : ... .. . ...
ROW 1B : ... .. . ... : ... .. . ... : ... .. . ... : ... .. . ... : ... .. . ...
ROW 1C : A-0 0D . ... : A-1 00 . ... : B-4 14 . ... : 8-# 15 . ... : ... .. . ...
ROW 1D : ... .. . ... : ... .. . ... : ... .. . ... : ... .. . ... : ... .. . ...
ROW 1E : A-0 0D . ... : A-1 0F . ... : ... .. . ... : C-# 19 . ... : ... .. . ...
ROW 1F : ... .. . ... : ... .. . ... : --- .. . ... : F-# 15 . ... : ... .. . ...
ROW 20 : A-0 0D . ... : A-1 0D . ... : A-4 14 . ... : C-# 19 . ... : ... .. . ...
ROW 21 : ... .. . ... : ... .. . ... : ... .. . ... : ... .. . ... : ... .. . ...
ROW 22 : A-0 0D . ... : A-1 0F . ... : C-4 14 . ... : ... .. . ... : ... .. . ...
ROW 23 : ... .. . ... : ... .. . ... : ... .. . ... : ... .. . ... : ... .. . ...
ROW 24 : A-0 0D . ... : A-1 00 . ... : --- .. . ... : 8-# 15 . ... : ... .. . ...
ROW 25 : ... .. . ... : ... .. . ... : ... .. . ... : ... .. . ... : ... .. . ...
ROW 26 : A-0 0D . ... : A-1 0D . ... : A-4 14 . ... : F-# 15 . ... : ... .. . ...
ROW 27 : ... .. . ... : ... .. . ... : ... .. . ... : ... .. . ... : ... .. . ...
ROW 28 : A-0 0D . ... : A-1 00 . ... : C-4 14 . ... : ... .. . ... : ... .. . ...
ROW 29 : ... .. . ... : ... .. . ... : ... .. . ... : F-# 15 . ... : ... .. . ...
ROW 2A : A-0 0D . ... : A-1 0D . ... : --- .. . ... : C-# 19 . ... : ... .. . ...
ROW 2B : ... .. . ... : ... .. . ... : ... .. . ... : ... .. . ... : ... .. . ...
ROW 2C : A-0 0D . ... : A-1 00 . ... : A-4 14 . ... : 8-# 15 . ... : ... .. . ...
ROW 2D : ... .. . ... : ... .. . ... : ... .. . ... : ... .. . ... : ... .. . ...
ROW 2E : A-0 0D . ... : A-1 0F . ... : C-4 14 . ... : C-# 19 . ... : ... .. . ...
ROW 2F : ... .. . ... : ... .. . ... : ... .. . ... : F-# 15 . ... : ... .. . ...
ROW 30 : A-0 0D . ... : A-1 0D . ... : --- .. . ... : C-# 19 . ... : ... .. . ...
ROW 31 : ... .. . ... : ... .. . ... : ... .. . ... : ... .. . ... : ... .. . ...
ROW 32 : A-0 0D . ... : A-1 0F . ... : A-4 14 . ... : ... .. . ... : ... .. . ...
ROW 33 : ... .. . ... : ... .. . ... : ... .. . ... : ... .. . ... : ... .. . ...
ROW 34 : A-0 0D . ... : A-1 00 . ... : B-4 14 . ... : 8-# 15 . ... : ... .. . ...
ROW 35 : ... .. . ... : ... .. . ... : ... .. . ... : ... .. . ... : ... .. . ...
ROW 36 : A-0 0D . ... : A-1 0D . ... : C-5 14 . ... : ... .. . ... : ... .. . ...
ROW 37 : ... .. . ... : ... .. . ... : --- .. . ... : ... .. . ... : ... .. . ...
ROW 38 : A-0 0D . ... : A-1 00 . ... : C-5 14 . ... : ... .. . ... : ... .. . ...
ROW 39 : ... .. . ... : ... .. . ... : ... .. . ... : F-# 15 . ... : ... .. . ...
ROW 3A : A-0 0D . ... : A-1 0D . ... : G-4 14 . ... : C-# 19 . ... : ... .. . ...
ROW 3B : ... .. . ... : ... .. . ... : ... .. . ... : ... .. . ... : ... .. . ...
ROW 3C : A-0 0D . ... : A-1 00 . ... : E-4 14 . ... : 8-# 15 . ... : ... .. . ...
ROW 3D : ... .. . ... : ... .. . ... : ... .. . ... : ... .. . ... : ... .. . ...
ROW 3E : A-0 0D . ... : A-1 0F . ... : G-4 14 . ... : C-# 19 . ... : ... .. . ...
ROW 3F : ... .. . ... : ... .. . ... : ... .. . ... : F-# 15 . ... : ... .. . ...

PATTERN 12
ROW 00 : A-2 11 . ... : A-2 0D . ... : A-5 11 . ... : C-# 19 . ... : ... .. . ...
ROW 01 : ... .. . ... : ... .. . ... : ... .. . ... : ... .. . ... : ... .. . ...
ROW 02 : C-2 11 . ... : A-2 0F . ... : C-5 11 . ... : C-# 19 . ... : ... .. . ...
ROW 03 : ... .. . ... : ... .. . ... : ... .. . ... : ... .. . ... : ... .. . ...
ROW 04 : --- .. . ... : A-2 00 . ... : --- .. . ... : 8-# 15 . ... : ... .. . ...
ROW 05 : ... .. . ... : ... .. . ... : ... .. . ... : ... .. . ... : ... .. . ...
ROW 06 : A-2 11 . ... : A-2 0D . ... : A-5 11 . ... : C-# 19 . ... : ... .. . ...
ROW 07 : ... .. . ... : ... .. . ... : ... .. . ... : ... .. . ... : ... .. . ...
ROW 08 : C-2 11 . ... : A-2 00 . ... : C-5 11 . ... : ... .. . ... : ... .. . ...
ROW 09 : ... .. . ... : ... .. . ... : ... .. . ... : F-# 15 . ... : ... .. . ...
ROW 0A : --- .. . ... : A-2 0D . ... : --- .. . ... : C-# 19 . ... : ... .. . ...
ROW 0B : ... .. . ... : ... .. . ... : ... .. . ... : ... .. . ... : ... .. . ...
ROW 0C : A-2 11 . ... : A-2 00 . ... : A-5 11 . ... : 8-# 15 . ... : ... .. . ...
ROW 0D : ... .. . ... : ... .. . ... : ... .. . ... : ... .. . ... : ... .. . ...
ROW 0E : C-2 11 . ... : A-2 0F . ... : C-5 11 . ... : C-# 19 . ... : ... .. . ...
ROW 0F : ... .. . ... : ... .. . ... : ... .. . ... : F-# 15 . ... : ... .. . ...
ROW 10 : --- .. . ... : A-2 0D . ... : --- .. . ... : C-# 19 . ... : ... .. . ...
ROW 11 : ... .. . ... : ... .. . ... : ... .. . ... : ... .. . ... : ... .. . ...
ROW 12 : A-2 11 . ... : A-2 0F . ... : A-5 11 . ... : C-# 19 . ... : ... .. . ...
ROW 13 : ... .. . ... : ... .. . ... : ... .. . ... : ... .. . ... : ... .. . ...
ROW 14 : B-2 11 . ... : A-2 00 . ... : B-5 11 . ... : 8-# 15 . ... : ... .. . ...
ROW 15 : ... .. . ... : ... .. . ... : ... .. . ... : ... .. . ... : ... .. . ...
ROW 16 : C-3 11 . ... : A-2 0D . ... : C-6 11 . ... : C-# 19 . ... : ... .. . ...
ROW 17 : ... .. . ... : ... .. . ... : ... .. . ... : ... .. . ... : ... .. . ...
ROW 18 : ... .. . ... : A-2 00 . ... : ... .. . ... : ... .. . ... : ... .. . ...
ROW 19 : ... .. . ... : ... .. . ... : ... .. . ... : F-# 15 . ... : ... .. . ...
ROW 1A : ... .. . ... : A-2 0D . ... : ... .. . ... : C-# 19 . ... : ... .. . ...
ROW 1B : ... .. . ... : ... .. . ... : ... .. . ... : ... .. . ... : ... .. . ...
ROW 1C : B-2 11 . ... : A-2 00 . ... : B-5 11 . ... : 8-# 15 . ... : ... .. . ...
ROW 1D : ... .. . ... : ... .. . ... : ... .. . ... : ... .. . ... : ... .. . ...
ROW 1E : ... .. . ... : A-2 0F . ... : ... .. . ... : C-# 19 . ... : ... .. . ...
ROW 1F : --- .. . ... : ... .. . ... : --- .. . ... : F-# 15 . ... : ... .. . ...
ROW 20 : A-2 11 . ... : A-2 0D . ... : A-5 11 . ... : C-# 19 . ... : ... .. . ...
ROW 21 : ... .. . ... : ... .. . ... : ... .. . ... : ... .. . ... : ... .. . ...
ROW 22 : C-2 11 . ... : A-2 0F . ... : C-5 11 . ... : C-# 19 . ... : ... .. . ...
ROW 23 : ... .. . ... : ... .. . ... : ... .. . ... : ... .. . ... : ... .. . ...
ROW 24 : --- .. . ... : A-2 00 . ... : --- .. . ... : 8-# 15 . ... : ... .. . ...
ROW 25 : ... .. . ... : ... .. . ... : ... .. . ... : ... .. . ... : ... .. . ...
ROW 26 : A-2 11 . ... : A-2 0D . ... : A-5 11 . ... : C-# 19 . ... : ... .. . ...
ROW 27 : ... .. . ... : ... .. . ... : ... .. . ... : ... .. . ... : ... .. . ...
ROW 28 : C-2 11 . ... : A-2 00 . ... : C-5 11 . ... : ... .. . ... : ... .. . ...
ROW 29 : ... .. . ... : ... .. . ... : ... .. . ... : F-# 15 . ... : ... .. . ...
ROW 2A : --- .. . ... : A-2 0D . ... : --- .. . ... : C-# 19 . ... : ... .. . ...
ROW 2B : ... .. . ... : ... .. . ... : ... .. . ... : ... .. . ... : ... .. . ...
ROW 2C : A-2 11 . ... : A-2 00 . ... : A-5 11 . ... : 8-# 15 . ... : ... .. . ...
ROW 2D : ... .. . ... : ... .. . ... : ... .. . ... : ... .. . ... : ... .. . ...
ROW 2E : C-2 11 . ... : A-2 0F . ... : C-5 11 . ... : C-# 19 . ... : ... .. . ...
ROW 2F : ... .. . ... : ... .. . ... : ... .. . ... : F-# 15 . ... : ... .. . ...
ROW 30 : --- .. . ... : A-2 0D . ... : --- .. . ... : C-# 19 . ... : ... .. . ...
ROW 31 : ... .. . ... : ... .. . ... : ... .. . ... : ... .. . ... : ... .. . ...
ROW 32 : A-2 11 . ... : A-2 0F . ... : A-5 11 . ... : C-# 19 . ... : ... .. . ...
ROW 33 : ... .. . ... : ... .. . ... : ... .. . ... : ... .. . ... : ... .. . ...
ROW 34 : B-2 11 . ... : A-2 00 . ... : B-5 11 . ... : 8-# 15 . ... : ... .. . ...
ROW 35 : ... .. . ... : ... .. . ... : ... .. . ... : ... .. . ... : ... .. . ...
ROW 36 : C-3 11 . ... : A-2 0D . ... : C-6 11 . ... : C-# 19 . ... : ... .. . ...
ROW 37 : ... .. . ... : ... .. . ... : ... .. . ... : ... .. . ... : ... .. . ...
ROW 38 : C-3 11 . ... : A-2 00 . ... : ... .. . ... : ... .. . ... : ... .. . ...
ROW 39 : ... .. . ... : ... .. . ... : ... .. . ... : F-# 15 . ... : ... .. . ...
ROW 3A : G-2 11 . ... : A-2 0D . ... : G-5 11 . ... : C-# 19 . ... : ... .. . ...
ROW 3B : ... .. . ... : ... .. . ... : ... .. . ... : ... .. . ... : ... .. . ...
ROW 3C : E-2 11 . ... : A-2 00 . ... : E-5 11 . ... : 8-# 15 . ... : ... .. . ...
ROW 3D : ... .. . ... : ... .. . ... : ... .. . ... : ... .. . ... : ... .. . ...
ROW 3E : G-2 11 . ... : A-2 0F . ... : G-5 11 . ... : C-# 19 . ... : ... .. . ...
ROW 3F : ... .. . ... : ... .. . ... : ... .. . ... : F-# 15 . ... : ... .. . ...

PATTERN 13
ROW 00 : A-1 0D . ... : F-1 0D . ... : A-5 14 . ... : C-# 19 . ... : ... .. . ...
ROW 01 : ... .. . ... : ... .. . ... : ... .. . ... : ... .. . ... : ... .. . ...
ROW 02 : A-1 0D . ... : F-1 0F . ... : C-5 14 . ... : F-# 15 . ... : ... .. . ...
ROW 03 : ... .. . ... : ... .. . ... : ... .. . ... : ... .. . ... : ... .. . ...
ROW 04 : A-1 0D . ... : F-1 00 . ... : --- 14 . ... : 8-# 15 . ... : ... .. . ...
ROW 05 : ... .. . ... : ... .. . ... : ... .. . ... : ... .. . ... : ... .. . ...
ROW 06 : A-1 0D . ... : F-1 0D . ... : A-5 14 . ... : F-# 15 . ... : ... .. . ...
ROW 07 : ... .. . ... : ... .. . ... : ... .. . ... : ... .. . ... : ... .. . ...
ROW 08 : A-1 0D . ... : F-1 00 . ... : C-5 14 . ... : ... .. . ... : ... .. . ...
ROW 09 : ... .. . ... : ... .. . ... : ... .. . ... : F-# 15 . ... : ... .. . ...
ROW 0A : A-1 0D . ... : F-1 0D . ... : --- .. . ... : C-# 19 . ... : ... .. . ...
ROW 0B : ... .. . ... : ... .. . ... : ... .. . ... : ... .. . ... : ... .. . ...
ROW 0C : A-1 0D . ... : F-1 00 . ... : A-5 14 . ... : 8-# 15 . ... : ... .. . ...
ROW 0D : ... .. . ... : ... .. . ... : ... .. . ... : ... .. . ... : ... .. . ...
ROW 0E : A-1 0D . ... : F-1 0F . ... : C-5 14 . ... : C-# 19 . ... : ... .. . ...
ROW 0F : ... .. . ... : ... .. . ... : ... .. . ... : F-# 15 . ... : ... .. . ...
ROW 10 : A-1 0D . ... : F-1 0D . ... : --- .. . ... : C-# 19 . ... : ... .. . ...
ROW 11 : ... .. . ... : ... .. . ... : ... .. . ... : ... .. . ... : ... .. . ...
ROW 12 : A-1 0D . ... : F-1 0F . ... : A-5 14 . ... : F-# 15 . ... : ... .. . ...
ROW 13 : ... .. . ... : ... .. . ... : ... .. . ... : ... .. . ... : ... .. . ...
ROW 14 : A-1 0D . ... : F-1 00 . ... : B-5 14 . ... : 8-# 15 . ... : ... .. . ...
ROW 15 : ... .. . ... : ... .. . ... : ... .. . ... : ... .. . ... : ... .. . ...
ROW 16 : A-1 0D . ... : F-1 0D . ... : C-6 14 . ... : F-# 15 . ... : ... .. . ...
ROW 17 : ... .. . ... : ... .. . ... : ... .. . ... : ... .. . ... : ... .. . ...
ROW 18 : A-1 0D . ... : F-1 00 . ... : E-6 14 . ... : ... .. . ... : ... .. . ...
ROW 19 : ... .. . ... : ... .. . ... : ... .. . ... : F-# 15 . ... : ... .. . ...
ROW 1A : A-1 0D . ... : F-1 0D . ... : D-6 14 . ... : C-# 19 . ... : ... .. . ...
ROW 1B : ... .. . ... : ... .. . ... : ... .. . ... : ... .. . ... : ... .. . ...
ROW 1C : A-1 0D . ... : F-1 00 . ... : C-6 14 . ... : 8-# 15 . ... : ... .. . ...
ROW 1D : ... .. . ... : ... .. . ... : ... .. . ... : ... .. . ... : ... .. . ...
ROW 1E : A-1 0D . ... : F-1 0F . ... : D-6 14 . ... : C-# 19 . ... : ... .. . ...
ROW 1F : ... .. . ... : ... .. . ... : --- .. . ... : F-# 15 . ... : ... .. . ...
ROW 20 : A-1 0D . ... : F-1 0D . ... : A-5 14 . ... : C-# 19 . ... : ... .. . ...
ROW 21 : ... .. . ... : ... .. . ... : ... .. . ... : ... .. . ... : ... .. . ...
ROW 22 : A-1 0D . ... : F-1 0F . ... : C-5 14 . ... : F-# 15 . ... : ... .. . ...
ROW 23 : ... .. . ... : ... .. . ... : ... .. . ... : ... .. . ... : ... .. . ...
ROW 24 : A-1 0D . ... : F-1 00 . ... : G-5 14 . ... : 8-# 15 . ... : ... .. . ...
ROW 25 : ... .. . ... : ... .. . ... : ... .. . ... : ... .. . ... : ... .. . ...
ROW 26 : A-1 0D . ... : F-1 0D . ... : A-5 14 . ... : F-# 15 . ... : ... .. . ...
ROW 27 : ... .. . ... : ... .. . ... : ... .. . ... : ... .. . ... : ... .. . ...
ROW 28 : A-1 0D . ... : F-1 00 . ... : C-5 14 . ... : ... .. . ... : ... .. . ...
ROW 29 : ... .. . ... : ... .. . ... : ... .. . ... : F-# 15 . ... : ... .. . ...
ROW 2A : A-1 0D . ... : F-1 0D . ... : --- .. . ... : C-# 19 . ... : ... .. . ...
ROW 2B : ... .. . ... : ... .. . ... : ... .. . ... : ... .. . ... : ... .. . ...
ROW 2C : A-1 0D . ... : F-1 00 . ... : A-5 14 . ... : 8-# 15 . ... : ... .. . ...
ROW 2D : ... .. . ... : ... .. . ... : ... .. . ... : ... .. . ... : ... .. . ...
ROW 2E : A-1 0D . ... : F-1 0F . ... : C-5 14 . ... : C-# 19 . ... : ... .. . ...
ROW 2F : ... .. . ... : ... .. . ... : ... .. . ... : F-# 15 . ... : ... .. . ...
ROW 30 : A-1 0D . ... : F-1 0D . ... : --- .. . ... : C-# 19 . ... : ... .. . ...
ROW 31 : ... .. . ... : ... .. . ... : ... .. . ... : ... .. . ... : ... .. . ...
ROW 32 : A-1 0D . ... : F-1 0F . ... : A-5 14 . ... : F-# 15 . ... : ... .. . ...
ROW 33 : ... .. . ... : ... .. . ... : ... .. . ... : ... .. . ... : ... .. . ...
ROW 34 : A-1 0D . ... : F-1 00 . ... : B-5 14 . ... : 8-# 15 . ... : ... .. . ...
ROW 35 : ... .. . ... : ... .. . ... : ... .. . ... : ... .. . ... : ... .. . ...
ROW 36 : A-1 0D . ... : F-1 0D . ... : C-6 14 . ... : F-# 15 . ... : ... .. . ...
ROW 37 : ... .. . ... : ... .. . ... : --- .. . ... : ... .. . ... : ... .. . ...
ROW 38 : A-1 0D . ... : F-1 00 . ... : C-6 14 . ... : ... .. . ... : ... .. . ...
ROW 39 : ... .. . ... : ... .. . ... : ... .. . ... : F-# 15 . ... : ... .. . ...
ROW 3A : A-1 0D . ... : F-1 0D . ... : G-5 14 . ... : C-# 19 . ... : ... .. . ...
ROW 3B : ... .. . ... : ... .. . ... : ... .. . ... : ... .. . ... : ... .. . ...
ROW 3C : A-1 0D . ... : F-1 00 . ... : E-5 14 . ... : 8-# 15 . ... : ... .. . ...
ROW 3D : ... .. . ... : ... .. . ... : ... .. . ... : ... .. . ... : ... .. . ...
ROW 3E : A-1 0D . ... : F-1 0F . ... : G-5 14 . ... : C-# 19 . ... : ... .. . ...
ROW 3F : ... .. . ... : ... .. . ... : ... .. . ... : F-# 15 . ... : ... .. . ...

PATTERN 14
ROW 00 : C-3 11 . ... : A-2 0D . ... : C-4 14 . ... : C-# 19 . ... : ... .. . ...
ROW 01 : ... .. . ... : ... .. . ... : ... .. . ... : ... .. . ... : ... .. . ...
ROW 02 : A-2 11 . ... : A-2 0F . ... : E-4 14 . ... : ... .. . ... : ... .. . ...
ROW 03 : ... .. . ... : ... .. . ... : ... .. . ... : ... .. . ... : ... .. . ...
ROW 04 : --- 11 . ... : A-2 00 . ... : --- .. . ... : 8-# 15 . ... : ... .. . ...
ROW 05 : ... .. . ... : ... .. . ... : ... .. . ... : ... .. . ... : ... .. . ...
ROW 06 : G-3 11 . ... : A-2 0D . ... : C-4 14 . ... : F-# 15 . ... : ... .. . ...
ROW 07 : ... .. . ... : ... .. . ... : ... .. . ... : ... .. . ... : ... .. . ...
ROW 08 : C-4 11 . ... : A-2 00 . ... : A-4 14 . ... : ... .. . ... : ... .. . ...
ROW 09 : ... .. . ... : ... .. . ... : ... .. . ... : F-# 15 . ... : ... .. . ...
ROW 0A : --- 11 . ... : A-2 0D . ... : --- .. . ... : C-# 19 . ... : ... .. . ...
ROW 0B : ... .. . ... : ... .. . ... : ... .. . ... : ... .. . ... : ... .. . ...
ROW 0C : A-2 11 . ... : A-2 00 . ... : C-4 14 . ... : 8-# 15 . ... : ... .. . ...
ROW 0D : ... .. . ... : ... .. . ... : ... .. . ... : ... .. . ... : ... .. . ...
ROW 0E : C-3 11 . ... : A-2 0F . ... : D-4 14 . ... : C-# 19 . ... : ... .. . ...
ROW 0F : ... .. . ... : ... .. . ... : ... .. . ... : F-# 15 . ... : ... .. . ...
ROW 10 : A-3 11 . ... : A-2 0D . ... : E-4 14 . ... : C-# 19 . ... : ... .. . ...
ROW 11 : ... .. . ... : ... .. . ... : ... .. . ... : ... .. . ... : ... .. . ...
ROW 12 : G-3 11 . ... : A-2 0F . ... : D-4 14 . ... : ... .. . ... : ... .. . ...
ROW 13 : ... .. . ... : ... .. . ... : ... .. . ... : ... .. . ... : ... .. . ...
ROW 14 : A-3 11 . ... : A-2 00 . ... : E-4 14 . ... : 8-# 15 . ... : ... .. . ...
ROW 15 : ... .. . ... : ... .. . ... : ... .. . ... : ... .. . ... : ... .. . ...
ROW 16 : C-4 11 . ... : A-2 0D . ... : G-4 14 . ... : ... .. . ... : ... .. . ...
ROW 17 : ... .. . ... : ... .. . ... : ... .. . ... : ... .. . ... : ... .. . ...
ROW 18 : ... .. . ... : A-2 00 . ... : ... .. . ... : ... .. . ... : ... .. . ...
ROW 19 : ... .. . ... : ... .. . ... : ... .. . ... : F-# 15 . ... : ... .. . ...
ROW 1A : E-3 11 . ... : A-2 0D . ... : E-4 14 . ... : C-# 19 . ... : ... .. . ...
ROW 1B : ... .. . ... : ... .. . ... : ... .. . ... : ... .. . ... : ... .. . ...
ROW 1C : B-3 11 . ... : A-2 00 . ... : B-4 14 . ... : 8-# 15 . ... : ... .. . ...
ROW 1D : ... .. . ... : ... .. . ... : ... .. . ... : ... .. . ... : ... .. . ...
ROW 1E : ... .. . ... : A-2 0F . ... : ... .. . ... : C-# 19 . ... : ... .. . ...
ROW 1F : --- .. . ... : ... .. . ... : --- .. . ... : F-# 15 . ... : ... .. . ...
ROW 20 : A-3 11 . ... : A-2 0D . ... : A-4 14 . ... : C-# 19 . ... : ... .. . ...
ROW 21 : ... .. . ... : ... .. . ... : ... .. . ... : ... .. . ... : ... .. . ...
ROW 22 : G-3 11 . ... : A-2 0F . ... : G-4 14 . ... : ... .. . ... : ... .. . ...
ROW 23 : ... .. . ... : ... .. . ... : ... .. . ... : ... .. . ... : ... .. . ...
ROW 24 : E-3 11 . ... : A-2 00 . ... : E-4 14 . ... : 8-# 15 . ... : ... .. . ...
ROW 25 : ... .. . ... : ... .. . ... : ... .. . ... : ... .. . ... : ... .. . ...
ROW 26 : G-3 11 . ... : A-2 0D . ... : G-4 14 . ... : F-# 15 . ... : ... .. . ...
ROW 27 : ... .. . ... : ... .. . ... : ... .. . ... : ... .. . ... : ... .. . ...
ROW 28 : C-3 11 . ... : A-2 00 . ... : C-4 14 . ... : ... .. . ... : ... .. . ...
ROW 29 : ... .. . ... : ... .. . ... : ... .. . ... : F-# 15 . ... : ... .. . ...
ROW 2A : --- .. . ... : A-2 0D . ... : --- .. . ... : C-# 19 . ... : ... .. . ...
ROW 2B : ... .. . ... : ... .. . ... : ... .. . ... : ... .. . ... : ... .. . ...
ROW 2C : A-3 11 . ... : A-2 00 . ... : A-4 14 . ... : 8-# 15 . ... : ... .. . ...
ROW 2D : ... .. . ... : ... .. . ... : ... .. . ... : ... .. . ... : ... .. . ...
ROW 2E : G-3 11 . ... : A-2 0F . ... : G-4 14 . ... : C-# 19 . ... : ... .. . ...
ROW 2F : ... .. . ... : ... .. . ... : ... .. . ... : F-# 15 . ... : ... .. . ...
ROW 30 : E-3 11 . ... : A-2 0D . ... : E-4 14 . ... : C-# 19 . ... : ... .. . ...
ROW 31 : ... .. . ... : ... .. . ... : ... .. . ... : ... .. . ... : ... .. . ...
ROW 32 : G-3 11 . ... : A-2 0F . ... : G-4 14 . ... : ... .. . ... : ... .. . ...
ROW 33 : ... .. . ... : ... .. . ... : ... .. . ... : ... .. . ... : ... .. . ...
ROW 34 : C-3 11 . ... : A-2 00 . ... : C-4 14 . ... : 8-# 15 . ... : ... .. . ...
ROW 35 : ... .. . ... : ... .. . ... : --- .. . ... : ... .. . ... : ... .. . ...
ROW 36 : D-3 11 . ... : A-2 0D . ... : G-3 14 . ... : ... .. . ... : ... .. . ...
ROW 37 : E-3 11 . ... : ... .. . ... : A-3 14 . ... : ... .. . ... : ... .. . ...
ROW 38 : D-3 11 . ... : A-2 00 . ... : C-4 14 . ... : ... .. . ... : ... .. . ...
ROW 39 : ... .. . ... : ... .. . ... : ... .. . ... : F-# 15 . ... : ... .. . ...
ROW 3A : ... .. . ... : A-2 0D . ... : D-4 14 . ... : C-# 19 . ... : ... .. . ...
ROW 3B : ... .. . ... : ... .. . ... : ... .. . ... : ... .. . ... : ... .. . ...
ROW 3C : C-3 11 . ... : A-2 00 . ... : E-4 14 . ... : 8-# 15 . ... : ... .. . ...
ROW 3D : ... .. . ... : ... .. . ... : ... .. . ... : ... .. . ... : ... .. . ...
ROW 3E : A-2 11 . ... : A-2 0F . ... : A-4 14 . ... : C-# 19 . ... : ... .. . ...
ROW 3F : ... .. . ... : ... .. . ... : ... .. . ... : F-# 15 . ... : ... .. . ...

PATTERN 15
ROW 00 : A-3 0D . ... : F-1 0D . ... : C-5 14 . ... : C-# 19 . ... : ... .. . ...
ROW 01 : F-3 18 . ... : ... .. . ... : --- .. . ... : ... .. . ... : ... .. . ...
ROW 02 : A-3 0F . ... : F-1 0F . ... : A-4 14 . ... : F-# 15 . ... : ... .. . ...
ROW 03 : ... .. . ... : ... .. . ... : ... .. . ... : ... .. . ... : ... .. . ...
ROW 04 : A-3 00 . ... : F-1 00 . ... : E-5 14 . ... : 8-# 15 . ... : ... .. . ...
ROW 05 : F-3 18 . ... : ... .. . ... : ... .. . ... : ... .. . ... : ... .. . ...
ROW 06 : A-3 0D . ... : F-1 0D . ... : G-5 14 . ... : F-# 15 . ... : ... .. . ...
ROW 07 : ... .. . ... : ... .. . ... : --- .. . ... : ... .. . ... : ... .. . ...
ROW 08 : A-3 00 . ... : F-1 00 . ... : C-6 14 . ... : ... .. . ... : ... .. . ...
ROW 09 : F-3 18 . ... : ... .. . ... : ... .. . ... : F-# 15 . ... : ... .. . ...
ROW 0A : A-3 0D . ... : F-1 0D . ... : G-4 14 . ... : C-# 19 . ... : ... .. . ...
ROW 0B : ... .. . ... : ... .. . ... : ... .. . ... : ... .. . ... : ... .. . ...
ROW 0C : A-3 00 . ... : F-1 00 . ... : A-4 14 . ... : 8-# 15 . ... : ... .. . ...
ROW 0D : F-3 18 . ... : ... .. . ... : ... .. . ... : ... .. . ... : ... .. . ...
ROW 0E : A-3 0F . ... : F-1 0F . ... : C-5 14 . ... : C-# 19 . ... : ... .. . ...
ROW 0F : ... .. . ... : ... .. . ... : ... .. . ... : F-# 15 . ... : ... .. . ...
ROW 10 : A-3 0D . ... : F-1 0D . ... : A-5 14 . ... : C-# 19 . ... : ... .. . ...
ROW 11 : ... .. . ... : ... .. . ... : ... .. . ... : ... .. . ... : ... .. . ...
ROW 12 : A-3 0F . ... : F-1 0F . ... : G-5 14 . ... : F-# 15 . ... : ... .. . ...
ROW 13 : ... .. . ... : ... .. . ... : ... .. . ... : ... .. . ... : ... .. . ...
ROW 14 : A-3 00 . ... : F-1 00 . ... : A-5 14 . ... : 8-# 15 . ... : ... .. . ...
ROW 15 : ... .. . ... : ... .. . ... : ... .. . ... : ... .. . ... : ... .. . ...
ROW 16 : A-3 0D . ... : F-1 0D . ... : C-6 14 . ... : F-# 15 . ... : ... .. . ...
ROW 17 : ... .. . ... : ... .. . ... : ... .. . ... : ... .. . ... : ... .. . ...
ROW 18 : A-3 00 . ... : F-1 00 . ... : ... .. . ... : ... .. . ... : ... .. . ...
ROW 19 : ... .. . ... : ... .. . ... : ... .. . ... : F-# 15 . ... : ... .. . ...
ROW 1A : A-3 0D . ... : F-1 0D . ... : E-5 14 . ... : C-# 19 . ... : ... .. . ...
ROW 1B : ... .. . ... : ... .. . ... : ... .. . ... : ... .. . ... : ... .. . ...
ROW 1C : A-3 00 . ... : F-1 00 . ... : B-5 14 . ... : 8-# 15 . ... : ... .. . ...
ROW 1D : ... .. . ... : ... .. . ... : ... .. . ... : ... .. . ... : ... .. . ...
ROW 1E : A-3 0F . ... : F-1 0F . ... : ... .. . ... : C-# 19 . ... : ... .. . ...
ROW 1F : ... .. . ... : ... .. . ... : --- .. . ... : F-# 15 . ... : ... .. . ...
ROW 20 : A-3 0D . ... : F-1 0D . ... : A-5 14 . ... : C-# 19 . ... : ... .. . ...
ROW 21 : F-3 18 . ... : ... .. . ... : ... .. . ... : ... .. . ... : ... .. . ...
ROW 22 : A-3 0F . ... : F-1 0F . ... : G-5 14 . ... : F-# 15 . ... : ... .. . ...
ROW 23 : ... .. . ... : ... .. . ... : ... .. . ... : ... .. . ... : ... .. . ...
ROW 24 : A-3 00 . ... : F-1 00 . ... : E-5 14 . ... : 8-# 15 . ... : ... .. . ...
ROW 25 : F-3 18 . ... : ... .. . ... : ... .. . ... : ... .. . ... : ... .. . ...
ROW 26 : A-3 0D . ... : F-1 0D . ... : G-5 14 . ... : F-# 15 . ... : ... .. . ...
ROW 27 : ... .. . ... : ... .. . ... : ... .. . ... : ... .. . ... : ... .. . ...
ROW 28 : A-3 00 . ... : F-1 00 . ... : C-5 14 . ... : ... .. . ... : ... .. . ...
ROW 29 : F-3 18 . ... : ... .. . ... : ... .. . ... : F-# 15 . ... : ... .. . ...
ROW 2A : A-3 0D . ... : F-1 0D . ... : ... .. . ... : C-# 19 . ... : ... .. . ...
ROW 2B : ... .. . ... : ... .. . ... : --- .. . ... : ... .. . ... : ... .. . ...
ROW 2C : A-3 00 . ... : F-1 00 . ... : A-5 14 . ... : 8-# 15 . ... : ... .. . ...
ROW 2D : F-3 18 . ... : ... .. . ... : ... .. . ... : ... .. . ... : ... .. . ...
ROW 2E : A-3 0F . ... : F-1 0F . ... : G-5 14 . ... : C-# 19 . ... : ... .. . ...
ROW 2F : ... .. . ... : ... .. . ... : ... .. . ... : F-# 15 . ... : ... .. . ...
ROW 30 : A-3 0D . ... : F-1 0D . ... : E-5 14 . ... : C-# 19 . ... : ... .. . ...
ROW 31 : ... .. . ... : ... .. . ... : ... .. . ... : ... .. . ... : ... .. . ...
ROW 32 : A-3 0F . ... : F-1 0F . ... : G-5 14 . ... : F-# 15 . ... : ... .. . ...
ROW 33 : ... .. . ... : ... .. . ... : ... .. . ... : ... .. . ... : ... .. . ...
ROW 34 : A-3 00 . ... : F-1 00 . ... : C-5 14 . ... : 8-# 15 . ... : ... .. . ...
ROW 35 : ... .. . ... : ... .. . ... : --- .. . ... : ... .. . ... : ... .. . ...
ROW 36 : A-3 0D . ... : F-1 0D . ... : D-5 14 . ... : F-# 15 . ... : ... .. . ...
ROW 37 : ... .. . ... : ... .. . ... : E-5 14 . ... : ... .. . ... : ... .. . ...
ROW 38 : A-3 00 . ... : F-1 00 . ... : D-5 14 . ... : ... .. . ... : ... .. . ...
ROW 39 : ... .. . ... : ... .. . ... : ... .. . ... : F-# 15 . ... : ... .. . ...
ROW 3A : A-3 0D . ... : F-1 0D . ... : --- .. . ... : C-# 19 . ... : ... .. . ...
ROW 3B : ... .. . ... : ... .. . ... : ... .. . ... : ... .. . ... : ... .. . ...
ROW 3C : A-3 00 . ... : F-1 00 . ... : C-5 14 . ... : 8-# 15 . ... : ... .. . ...
ROW 3D : ... .. . ... : ... .. . ... : ... .. . ... : ... .. . ... : ... .. . ...
ROW 3E : A-3 0F . ... : F-1 0F . ... : A-4 14 . ... : C-# 19 . ... : ... .. . ...
ROW 3F : ... .. . ... : ... .. . ... : ... .. . ... : F-# 15 . ... : ... .. . ...

PATTERN 16
ROW 00 : --- .. . ... : A-2 0D . ... : G-3 07 . ... : C-# 19 . ... : ... .. . ...
ROW 01 : ... .. . ... : ... .. . ... : ... .. . ... : ... .. . ... : ... .. . ...
ROW 02 : ... .. . ... : A-2 0F . ... : ... .. . ... : ... .. . ... : ... .. . ...
ROW 03 : ... .. . ... : ... .. . ... : ... .. . ... : ... .. . ... : ... .. . ...
ROW 04 : C-2 18 . ... : A-2 00 . ... : ... .. . ... : 8-# 15 . ... : ... .. . ...
ROW 05 : --- .. . ... : ... .. . ... : ... .. . ... : ... .. . ... : ... .. . ...
ROW 06 : ... .. . ... : A-2 0D . ... : C-3 07 . ... : C-# 19 . ... : ... .. . ...
ROW 07 : C-2 18 . ... : ... .. . ... : ... .. . ... : ... .. . ... : ... .. . ...
ROW 08 : --- .. . ... : A-2 00 . ... : ... .. . ... : ... .. . ... : ... .. . ...
ROW 09 : E-2 18 . ... : ... .. . ... : ... .. . ... : F-# 15 . ... : ... .. . ...
ROW 0A : --- .. . ... : A-2 0D . ... : G-3 07 . ... : C-# 19 . ... : ... .. . ...
ROW 0B : C-2 18 . ... : ... .. . ... : ... .. . ... : ... .. . ... : ... .. . ...
ROW 0C : E-2 18 . ... : A-2 00 . ... : ... .. . ... : 8-# 15 . ... : ... .. . ...
ROW 0D : --- .. . ... : ... .. . ... : ... .. . ... : ... .. . ... : ... .. . ...
ROW 0E : ... .. . ... : A-2 0F . ... : ... .. . ... : C-# 19 . ... : ... .. . ...
ROW 0F : G-2 18 . ... : ... .. . ... : ... .. . ... : F-# 15 . ... : ... .. . ...
ROW 10 : --- .. . ... : A-2 0D . ... : G-3 07 . ... : C-# 19 . ... : ... .. . ...
ROW 11 : ... .. . ... : ... .. . ... : ... .. . ... : ... .. . ... : ... .. . ...
ROW 12 : ... .. . ... : A-2 0F . ... : ... .. . ... : ... .. . ... : ... .. . ...
ROW 13 : ... .. . ... : ... .. . ... : ... .. . ... : ... .. . ... : ... .. . ...
ROW 14 : C-2 18 . ... : A-2 00 . ... : ... .. . ... : 8-# 15 . ... : ... .. . ...
ROW 15 : --- .. . ... : ... .. . ... : ... .. . ... : ... .. . ... : ... .. . ...
ROW 16 : ... .. . ... : A-2 0D . ... : C-3 07 . ... : C-# 19 . ... : ... .. . ...
ROW 17 : C-2 18 . ... : ... .. . ... : ... .. . ... : ... .. . ... : ... .. . ...
ROW 18 : --- .. . ... : A-2 00 . ... : ... .. . ... : ... .. . ... : ... .. . ...
ROW 19 : E-2 18 . ... : ... .. . ... : ... .. . ... : F-# 15 . ... : ... .. . ...
ROW 1A : --- .. . ... : A-2 0D . ... : G-3 07 . ... : C-# 19 . ... : ... .. . ...
ROW 1B : C-2 18 . ... : ... .. . ... : ... .. . ... : ... .. . ... : ... .. . ...
ROW 1C : E-2 18 . ... : A-2 00 . ... : ... .. . ... : 8-# 15 . ... : ... .. . ...
ROW 1D : --- .. . ... : ... .. . ... : ... .. . ... : ... .. . ... : ... .. . ...
ROW 1E : ... .. . ... : A-2 0F . ... : ... .. . ... : C-# 19 . ... : ... .. . ...
ROW 1F : G-2 18 . ... : ... .. . ... : ... .. . ... : F-# 15 . ... : ... .. . ...
ROW 20 : --- .. . ... : A-2 0D . ... : G-3 07 . ... : C-# 19 . ... : ... .. . ...
ROW 21 : ... .. . ... : ... .. . ... : ... .. . ... : ... .. . ... : ... .. . ...
ROW 22 : ... .. . ... : A-2 0F . ... : ... .. . ... : ... .. . ... : ... .. . ...
ROW 23 : ... .. . ... : ... .. . ... : ... .. . ... : ... .. . ... : ... .. . ...
ROW 24 : D-2 18 . ... : A-2 00 . ... : ... .. . ... : 8-# 15 . ... : ... .. . ...
ROW 25 : --- .. . ... : ... .. . ... : ... .. . ... : ... .. . ... : ... .. . ...
ROW 26 : ... .. . ... : A-2 0D . ... : C-3 07 . ... : C-# 19 . ... : ... .. . ...
ROW 27 : D-2 18 . ... : ... .. . ... : ... .. . ... : ... .. . ... : ... .. . ...
ROW 28 : --- .. . ... : A-2 00 . ... : ... .. . ... : ... .. . ... : ... .. . ...
ROW 29 : D-2 18 . ... : ... .. . ... : ... .. . ... : F-# 15 . ... : ... .. . ...
ROW 2A : --- .. . ... : A-2 0D . ... : G-3 07 . ... : C-# 19 . ... : ... .. . ...
ROW 2B : D-2 18 . ... : ... .. . ... : ... .. . ... : ... .. . ... : ... .. . ...
ROW 2C : D-2 18 . ... : A-2 00 . ... : ... .. . ... : 8-# 15 . ... : ... .. . ...
ROW 2D : --- .. . ... : ... .. . ... : ... .. . ... : ... .. . ... : ... .. . ...
ROW 2E : D-2 18 . ... : A-2 0F . ... : ... .. . ... : C-# 19 . ... : ... .. . ...
ROW 2F : --- .. . ... : ... .. . ... : ... .. . ... : F-# 15 . ... : ... .. . ...
ROW 30 : ... .. . ... : A-2 0D . ... : G-3 07 . ... : C-# 19 . ... : ... .. . ...
ROW 31 : ... .. . ... : ... .. . ... : ... .. . ... : ... .. . ... : ... .. . ...
ROW 32 : ... .. . ... : A-2 0F . ... : ... .. . ... : ... .. . ... : ... .. . ...
ROW 33 : ... .. . ... : ... .. . ... : ... .. . ... : ... .. . ... : ... .. . ...
ROW 34 : B-1 18 . ... : A-2 00 . ... : ... .. . ... : 8-# 15 . ... : ... .. . ...
ROW 35 : --- .. . ... : ... .. . ... : ... .. . ... : ... .. . ... : ... .. . ...
ROW 36 : ... .. . ... : A-2 0D . ... : C-3 07 . ... : C-# 19 . ... : ... .. . ...
ROW 37 : D-2 18 . ... : ... .. . ... : ... .. . ... : ... .. . ... : ... .. . ...
ROW 38 : --- .. . ... : A-2 00 . ... : ... .. . ... : ... .. . ... : ... .. . ...
ROW 39 : B-1 18 . ... : ... .. . ... : ... .. . ... : F-# 15 . ... : ... .. . ...
ROW 3A : --- .. . ... : A-2 0D . ... : G-3 07 . ... : C-# 19 . ... : ... .. . ...
ROW 3B : D-2 18 . ... : ... .. . ... : ... .. . ... : ... .. . ... : ... .. . ...
ROW 3C : F-2 18 . ... : A-2 00 . ... : ... .. . ... : 8-# 15 . ... : ... .. . ...
ROW 3D : A-2 18 . ... : ... .. . ... : ... .. . ... : ... .. . ... : ... .. . ...
ROW 3E : C-3 18 . ... : A-2 0F . ... : ... .. . ... : C-# 19 . ... : ... .. . ...
ROW 3F : ... .. . ... : ... .. . ... : ... .. . ... : F-# 15 . ... : ... .. . ...

PATTERN 17
ROW 00 : A-3 18 . ... : A-2 0D . ... : G-3 07 . ... : C-# 19 . ... : ... .. . ...
ROW 01 : ... .. . ... : ... .. . ... : G-3 07 . ... : C-# 19 . ... : ... .. . ...
ROW 02 : C-3 18 . ... : A-2 0F . ... : ... .. . ... : 8-# 15 . ... : ... .. . ...
ROW 03 : ... .. . ... : ... .. . ... : G-3 07 . ... : F-# 15 . ... : ... .. . ...
ROW 04 : --- .. . ... : A-2 00 . ... : ... .. . ... : ... .. . ... : ... .. . ...
ROW 05 : ... .. . ... : ... .. . ... : G-3 07 . ... : F-# 15 . ... : ... .. . ...
ROW 06 : G-2 18 . ... : A-2 0D . ... : G-3 07 . ... : 8-# 15 . ... : ... .. . ...
ROW 07 : ... .. . ... : ... .. . ... : G-3 07 . ... : F-# 15 . ... : ... .. . ...
ROW 08 : --- .. . ... : A-2 00 . ... : G-3 07 . ... : C-# 19 . ... : ... .. . ...
ROW 09 : ... .. . ... : ... .. . ... : G-3 07 . ... : C-# 19 . ... : ... .. . ...
ROW 0A : D-3 18 . ... : A-2 0D . ... : ... .. . ... : 8-# 15 . ... : ... .. . ...
ROW 0B : ... .. . ... : ... .. . ... : G-3 07 . ... : F-# 15 . ... : ... .. . ...
ROW 0C : ... .. . ... : A-2 00 . ... : ... .. . ... : ... .. . ... : ... .. . ...
ROW 0D : ... .. . ... : ... .. . ... : G-3 07 . ... : F-# 15 . ... : ... .. . ...
ROW 0E : --- .. . ... : A-2 0F . ... : G-3 07 . ... : 8-# 15 . ... : ... .. . ...
ROW 0F : ... .. . ... : ... .. . ... : G-3 07 . ... : F-# 15 . ... : ... .. . ...
ROW 10 : C-3 18 . ... : A-2 0D . ... : G-3 07 . ... : C-# 19 . ... : ... .. . ...
ROW 11 : --- .. . ... : ... .. . ... : G-3 07 . ... : C-# 19 . ... : ... .. . ...
ROW 12 : A-3 18 . ... : A-2 0F . ... : ... .. . ... : 8-# 15 . ... : ... .. . ...
ROW 13 : ... .. . ... : ... .. . ... : G-3 07 . ... : F-# 15 . ... : ... .. . ...
ROW 14 : B-3 18 . ... : A-2 00 . ... : ... .. . ... : ... .. . ... : ... .. . ...
ROW 15 : ... .. . ... : ... .. . ... : G-3 07 . ... : F-# 15 . ... : ... .. . ...
ROW 16 : C-4 18 . ... : A-2 0D . ... : G-3 07 . ... : 8-# 15 . ... : ... .. . ...
ROW 17 : ... .. . ... : ... .. . ... : G-3 07 . ... : F-# 15 . ... : ... .. . ...
ROW 18 : ... .. . ... : A-2 00 . ... : G-3 07 . ... : C-# 19 . ... : ... .. . ...
ROW 19 : ... .. . ... : ... .. . ... : G-3 07 . ... : C-# 19 . ... : ... .. . ...
ROW 1A : ... .. . ... : A-2 0D . ... : ... .. . ... : 8-# 15 . ... : ... .. . ...
ROW 1B : ... .. . ... : ... .. . ... : G-3 07 . ... : F-# 15 . ... : ... .. . ...
ROW 1C : ... .. . ... : A-2 00 . ... : ... .. . ... : ... .. . ... : ... .. . ...
ROW 1D : ... .. . ... : ... .. . ... : G-3 07 . ... : F-# 15 . ... : ... .. . ...
ROW 1E : ... .. . ... : A-2 0F . ... : G-3 07 . ... : 8-# 15 . ... : ... .. . ...
ROW 1F : ... .. . ... : ... .. . ... : G-3 07 . ... : F-# 15 . ... : ... .. . ...
ROW 20 : G-3 18 . ... : A-2 0D . ... : ... .. . ... : C-# 19 . ... : ... .. . ...
ROW 21 : ... .. . ... : ... .. . ... : ... .. . ... : ... .. . ... : ... .. . ...
ROW 22 : E-3 18 . ... : A-2 0F . ... : ... .. . ... : ... .. . ... : ... .. . ...
ROW 23 : ... .. . ... : ... .. . ... : ... .. . ... : ... .. . ... : ... .. . ...
ROW 24 : E-3 18 . ... : A-2 00 . ... : ... .. . ... : 8-# 15 . ... : ... .. . ...
ROW 25 : ... .. . ... : ... .. . ... : ... .. . ... : ... .. . ... : ... .. . ...
ROW 26 : G-3 18 . ... : A-2 0D . ... : ... .. . ... : C-# 19 . ... : ... .. . ...
ROW 27 : ... .. . ... : ... .. . ... : ... .. . ... : ... .. . ... : ... .. . ...
ROW 28 : A-3 18 . ... : A-2 00 . ... : ... .. . ... : ... .. . ... : ... .. . ...
ROW 29 : ... .. . ... : ... .. . ... : ... .. . ... : F-# 15 . ... : ... .. . ...
ROW 2A : ... .. . ... : A-2 0D . ... : ... .. . ... : C-# 19 . ... : ... .. . ...
ROW 2B : ... .. . ... : ... .. . ... : ... .. . ... : ... .. . ... : ... .. . ...
ROW 2C : ... .. . ... : A-2 00 . ... : ... .. . ... : 8-# 15 . ... : ... .. . ...
ROW 2D : ... .. . ... : ... .. . ... : ... .. . ... : ... .. . ... : ... .. . ...
ROW 2E : G-3 18 . ... : A-2 0F . ... : ... .. . ... : C-# 19 . ... : ... .. . ...
ROW 2F : ... .. . ... : ... .. . ... : ... .. . ... : F-# 15 . ... : ... .. . ...
ROW 30 : A-3 18 . ... : A-2 0D . ... : ... .. . ... : C-# 19 . ... : ... .. . ...
ROW 31 : ... .. . ... : ... .. . ... : ... .. . ... : ... .. . ... : ... .. . ...
ROW 32 : G-3 18 . ... : A-2 0F . ... : ... .. . ... : ... .. . ... : ... .. . ...
ROW 33 : ... .. . ... : ... .. . ... : ... .. . ... : ... .. . ... : ... .. . ...
ROW 34 : E-3 18 . ... : A-2 00 . ... : ... .. . ... : 8-# 15 . ... : ... .. . ...
ROW 35 : ... .. . ... : ... .. . ... : ... .. . ... : ... .. . ... : ... .. . ...
ROW 36 : G-3 18 . ... : A-2 0D . ... : ... .. . ... : C-# 19 . ... : ... .. . ...
ROW 37 : ... .. . ... : ... .. . ... : ... .. . ... : ... .. . ... : ... .. . ...
ROW 38 : A-3 18 . ... : A-2 00 . ... : ... .. . ... : ... .. . ... : ... .. . ...
ROW 39 : ... .. . ... : ... .. . ... : ... .. . ... : F-# 15 . ... : ... .. . ...
ROW 3A : G-3 18 . ... : A-2 0D . ... : ... .. . ... : C-# 19 . ... : ... .. . ...
ROW 3B : ... .. . ... : ... .. . ... : ... .. . ... : ... .. . ... : ... .. . ...
ROW 3C : E-3 18 . ... : A-2 00 . ... : ... .. . ... : 8-# 15 . ... : ... .. . ...
ROW 3D : ... .. . ... : ... .. . ... : ... .. . ... : ... .. . ... : ... .. . ...
ROW 3E : G-3 18 . ... : A-2 0F . ... : ... .. . ... : C-# 19 . ... : ... .. . ...
ROW 3F : ... .. . ... : ... .. . ... : ... .. . ... : F-# 15 . ... : ... .. . ...

PATTERN 18
ROW 00 : A-3 18 . ... : A-2 0D . ... : A-4 14 . ... : C-# 19 . ... : ... .. . ...
ROW 01 : ... .. . ... : A-2 0F . ... : ... .. . ... : C-# 19 . ... : ... .. . ...
ROW 02 : C-3 18 . ... : A-2 00 . ... : ... .. . ... : 8-# 15 . ... : ... .. . ...
ROW 03 : ... .. . ... : A-2 0D . ... : ... .. . ... : F-# 15 . ... : ... .. . ...
ROW 04 : --- .. . ... : A-2 00 . ... : ... .. . ... : ... .. . ... : ... .. . ...
ROW 05 : ... .. . ... : A-2 0D . ... : ... .. . ... : F-# 15 . ... : ... .. . ...
ROW 06 : G-2 18 . ... : A-2 00 . ... : ... .. . ... : 8-# 15 . ... : ... .. . ...
ROW 07 : ... .. . ... : A-2 0F . ... : ... .. . ... : F-# 15 . ... : ... .. . ...
ROW 08 : --- .. . ... : A-2 0D . ... : ... .. . ... : C-# 19 . ... : ... .. . ...
ROW 09 : ... .. . ... : A-2 0F . ... : ... .. . ... : C-# 19 . ... : ... .. . ...
ROW 0A : D-3 18 . ... : A-2 00 . ... : ... .. . ... : 8-# 15 . ... : ... .. . ...
ROW 0B : ... .. . ... : A-2 0D . ... : ... .. . ... : F-# 15 . ... : ... .. . ...
ROW 0C : ... .. . ... : A-2 00 . ... : ... .. . ... : ... .. . ... : ... .. . ...
ROW 0D : ... .. . ... : A-2 0D . ... : ... .. . ... : F-# 15 . ... : ... .. . ...
ROW 0E : --- .. . ... : A-2 00 . ... : ... .. . ... : 8-# 15 . ... : ... .. . ...
ROW 0F : ... .. . ... : A-2 0F . ... : ... .. . ... : F-# 15 . ... : ... .. . ...
ROW 10 : C-3 18 . ... : A-2 0D . ... : ... .. . ... : C-# 19 . ... : ... .. . ...
ROW 11 : --- .. . ... : A-2 0F . ... : ... .. . ... : C-# 19 . ... : ... .. . ...
ROW 12 : A-3 18 . ... : A-2 00 . ... : ... .. . ... : 8-# 15 . ... : ... .. . ...
ROW 13 : ... .. . ... : A-2 0D . ... : ... .. . ... : F-# 15 . ... : ... .. . ...
ROW 14 : B-3 18 . ... : A-2 00 . ... : ... .. . ... : ... .. . ... : ... .. . ...
ROW 15 : ... .. . ... : A-2 0D . ... : ... .. . ... : F-# 15 . ... : ... .. . ...
ROW 16 : C-4 18 . ... : A-2 00 . ... : ... .. . ... : 8-# 15 . ... : ... .. . ...
ROW 17 : ... .. . ... : A-2 0F . ... : ... .. . ... : F-# 15 . ... : ... .. . ...
ROW 18 : ... .. . ... : A-2 0D . ... : ... .. . ... : C-# 19 . ... : ... .. . ...
ROW 19 : ... .. . ... : A-2 0F . ... : ... .. . ... : C-# 19 . ... : ... .. . ...
ROW 1A : ... .. . ... : A-2 00 . ... : ... .. . ... : 8-# 15 . ... : ... .. . ...
ROW 1B : ... .. . ... : A-2 0D . ... : ... .. . ... : F-# 15 . ... : ... .. . ...
ROW 1C : ... .. . ... : A-2 00 . ... : ... .. . ... : ... .. . ... : ... .. . ...
ROW 1D : ... .. . ... : A-2 0D . ... : ... .. . ... : F-# 15 . ... : ... .. . ...
ROW 1E : ... .. . ... : A-2 00 . ... : ... .. . ... : 8-# 15 . ... : ... .. . ...
ROW 1F : ... .. . ... : A-2 0F . ... : ... .. . ... : F-# 15 . ... : ... .. . ...
ROW 20 : G-3 18 . ... : A-2 0D . ... : ... .. . ... : C-# 19 . ... : ... .. . ...
ROW 21 : ... .. . ... : A-2 0F . ... : ... .. . ... : C-# 19 . ... : ... .. . ...
ROW 22 : E-3 18 . ... : A-2 00 . ... : ... .. . ... : 8-# 15 . ... : ... .. . ...
ROW 23 : ... .. . ... : A-2 0D . ... : ... .. . ... : F-# 15 . ... : ... .. . ...
ROW 24 : E-3 18 . ... : A-2 00 . ... : ... .. . ... : ... .. . ... : ... .. . ...
ROW 25 : ... .. . ... : A-2 0D . ... : ... .. . ... : F-# 15 . ... : ... .. . ...
ROW 26 : G-3 18 . ... : A-2 00 . ... : ... .. . ... : 8-# 15 . ... : ... .. . ...
ROW 27 : ... .. . ... : A-2 0F . ... : ... .. . ... : F-# 15 . ... : ... .. . ...
ROW 28 : A-3 18 . ... : A-2 0D . ... : ... .. . ... : C-# 19 . ... : ... .. . ...
ROW 29 : ... .. . ... : A-2 0F . ... : ... .. . ... : C-# 19 . ... : ... .. . ...
ROW 2A : ... .. . ... : A-2 00 . ... : ... .. . ... : 8-# 15 . ... : ... .. . ...
ROW 2B : ... .. . ... : A-2 0D . ... : ... .. . ... : F-# 15 . ... : ... .. . ...
ROW 2C : ... .. . ... : A-2 00 . ... : ... .. . ... : ... .. . ... : ... .. . ...
ROW 2D : ... .. . ... : A-2 0D . ... : ... .. . ... : F-# 15 . ... : ... .. . ...
ROW 2E : G-3 18 . ... : A-2 00 . ... : ... .. . ... : 8-# 15 . ... : ... .. . ...
ROW 2F : ... .. . ... : A-2 0F . ... : ... .. . ... : F-# 15 . ... : ... .. . ...
ROW 30 : A-3 18 . ... : A-2 0D . ... : ... .. . ... : C-# 19 . ... : ... .. . ...
ROW 31 : ... .. . ... : A-2 0F . ... : ... .. . ... : C-# 19 . ... : ... .. . ...
ROW 32 : G-3 18 . ... : A-2 00 . ... : ... .. . ... : 8-# 15 . ... : ... .. . ...
ROW 33 : ... .. . ... : A-2 0D . ... : ... .. . ... : F-# 15 . ... : ... .. . ...
ROW 34 : E-3 18 . ... : A-2 00 . ... : ... .. . ... : ... .. . ... : ... .. . ...
ROW 35 : ... .. . ... : A-2 0D . ... : ... .. . ... : F-# 15 . ... : ... .. . ...
ROW 36 : G-3 18 . ... : A-2 00 . ... : ... .. . ... : 8-# 15 . ... : ... .. . ...
ROW 37 : ... .. . ... : A-2 0F . ... : ... .. . ... : F-# 15 . ... : ... .. . ...
ROW 38 : A-3 18 . ... : A-2 0D . ... : ... .. . ... : C-# 19 . ... : ... .. . ...
ROW 39 : ... .. . ... : A-2 0F . ... : ... .. . ... : C-# 19 . ... : ... .. . ...
ROW 3A : G-3 18 . ... : A-2 00 . ... : ... .. . ... : 8-# 15 . ... : ... .. . ...
ROW 3B : ... .. . ... : A-2 0D . ... : ... .. . ... : F-# 15 . ... : ... .. . ...
ROW 3C : E-3 18 . ... : A-2 00 . ... : ... .. . ... : ... .. . ... : ... .. . ...
ROW 3D : ... .. . ... : A-2 0D . ... : ... .. . ... : F-# 15 . ... : ... .. . ...
ROW 3E : G-3 18 . ... : A-2 00 . ... : ... .. . ... : 8-# 15 . ... : ... .. . ...
ROW 3F : ... .. . ... : A-2 0F . ... : --- .. . ... : F-# 15 . ... : ... .. . ...

PATTERN 19
ROW 00 : --- .. . ... : A-1 0D . ... : A-4 14 . ... : C-# 19 . ... : ... .. . ...
ROW 01 : ... .. . ... : ... .. . ... : ... .. . ... : C-# 19 . ... : ... .. . ...
ROW 02 : ... .. . ... : A-1 0F . ... : ... .. . ... : 8-# 15 . ... : ... .. . ...
ROW 03 : ... .. . ... : ... .. . ... : ... .. . ... : F-# 15 . ... : ... .. . ...
ROW 04 : C-2 18 . ... : A-1 00 . ... : ... .. . ... : ... .. . ... : ... .. . ...
ROW 05 : --- .. . ... : ... .. . ... : ... .. . ... : F-# 15 . ... : ... .. . ...
ROW 06 : ... .. . ... : A-1 0D . ... : ... .. . ... : 8-# 15 . ... : ... .. . ...
ROW 07 : C-2 18 . ... : ... .. . ... : ... .. . ... : F-# 15 . ... : ... .. . ...
ROW 08 : --- .. . ... : A-1 00 . ... : ... .. . ... : C-# 19 . ... : ... .. . ...
ROW 09 : C-2 18 . ... : ... .. . ... : ... .. . ... : C-# 19 . ... : ... .. . ...
ROW 0A : --- .. . ... : A-1 0D . ... : ... .. . ... : 8-# 15 . ... : ... .. . ...
ROW 0B : C-2 18 . ... : ... .. . ... : ... .. . ... : F-# 15 . ... : ... .. . ...
ROW 0C : C-2 18 . ... : A-1 00 . ... : ... .. . ... : ... .. . ... : ... .. . ...
ROW 0D : --- .. . ... : ... .. . ... : ... .. . ... : F-# 15 . ... : ... .. . ...
ROW 0E : C-2 18 . ... : A-1 0F . ... : ... .. . ... : 8-# 15 . ... : ... .. . ...
ROW 0F : --- .. . ... : ... .. . ... : ... .. . ... : F-# 15 . ... : ... .. . ...
ROW 10 : ... .. . ... : A-1 0D . ... : ... .. . ... : C-# 19 . ... : ... .. . ...
ROW 11 : ... .. . ... : ... .. . ... : ... .. . ... : C-# 19 . ... : ... .. . ...
ROW 12 : ... .. . ... : A-1 0F . ... : ... .. . ... : 8-# 15 . ... : ... .. . ...
ROW 13 : ... .. . ... : ... .. . ... : ... .. . ... : F-# 15 . ... : ... .. . ...
ROW 14 : C-2 18 . ... : A-1 00 . ... : C-5 10 . ... : ... .. . ... : ... .. . ...
ROW 15 : --- .. . ... : ... .. . ... : ... .. . ... : F-# 15 . ... : ... .. . ...
ROW 16 : ... .. . ... : A-1 0D . ... : ... .. . ... : 8-# 15 . ... : ... .. . ...
ROW 17 : C-2 18 . ... : ... .. . ... : ... .. . ... : F-# 15 . ... : ... .. . ...
ROW 18 : --- .. . ... : A-1 00 . ... : ... .. . ... : C-# 19 . ... : ... .. . ...
ROW 19 : C-2 18 . ... : ... .. . ... : ... .. . ... : C-# 19 . ... : ... .. . ...
ROW 1A : --- .. . ... : A-1 0D . ... : ... .. . ... : 8-# 15 . ... : ... .. . ...
ROW 1B : C-2 18 . ... : ... .. . ... : ... .. . ... : F-# 15 . ... : ... .. . ...
ROW 1C : C-2 18 . ... : A-1 00 . ... : ... .. . ... : ... .. . ... : ... .. . ...
ROW 1D : --- .. . ... : ... .. . ... : ... .. . ... : F-# 15 . ... : ... .. . ...
ROW 1E : C-2 18 . ... : A-1 0F . ... : ... .. . ... : 8-# 15 . ... : ... .. . ...
ROW 1F : --- .. . ... : ... .. . ... : ... .. . ... : F-# 15 . ... : ... .. . ...
ROW 20 : ... .. . ... : A-1 0D . ... : ... .. . ... : C-# 19 . ... : ... .. . ...
ROW 21 : ... .. . ... : ... .. . ... : ... .. . ... : C-# 19 . ... : ... .. . ...
ROW 22 : ... .. . ... : A-1 0F . ... : ... .. . ... : 8-# 15 . ... : ... .. . ...
ROW 23 : ... .. . ... : ... .. . ... : ... .. . ... : F-# 15 . ... : ... .. . ...
ROW 24 : D-2 18 . ... : A-1 00 . ... : ... .. . ... : ... .. . ... : ... .. . ...
ROW 25 : --- .. . ... : ... .. . ... : ... .. . ... : F-# 15 . ... : ... .. . ...
ROW 26 : ... .. . ... : A-1 0D . ... : ... .. . ... : 8-# 15 . ... : ... .. . ...
ROW 27 : D-2 18 . ... : ... .. . ... : ... .. . ... : F-# 15 . ... : ... .. . ...
ROW 28 : --- .. . ... : A-1 00 . ... : ... .. . ... : C-# 19 . ... : ... .. . ...
ROW 29 : D-2 18 . ... : ... .. . ... : ... .. . ... : C-# 19 . ... : ... .. . ...
ROW 2A : --- .. . ... : A-1 0D . ... : ... .. . ... : 8-# 15 . ... : ... .. . ...
ROW 2B : D-2 18 . ... : ... .. . ... : ... .. . ... : F-# 15 . ... : ... .. . ...
ROW 2C : D-2 18 . ... : A-1 00 . ... : ... .. . ... : ... .. . ... : ... .. . ...
ROW 2D : --- .. . ... : ... .. . ... : ... .. . ... : F-# 15 . ... : ... .. . ...
ROW 2E : D-2 18 . ... : A-1 0F . ... : ... .. . ... : 8-# 15 . ... : ... .. . ...
ROW 2F : --- .. . ... : ... .. . ... : ... .. . ... : F-# 15 . ... : ... .. . ...
ROW 30 : ... .. . ... : D-4 0E . ... : ... .. . ... : C-# 19 . ... : ... .. . ...
ROW 31 : ... .. . ... : ... .. . ... : ... .. . ... : C-# 19 . ... : ... .. . ...
ROW 32 : ... .. . ... : G-3 0E . ... : ... .. . ... : 8-# 15 . ... : ... .. . ...
ROW 33 : ... .. . ... : ... .. . ... : ... .. . ... : F-# 15 . ... : ... .. . ...
ROW 34 : B-1 18 . ... : F-3 0E . ... : ... .. . ... : ... .. . ... : ... .. . ...
ROW 35 : --- .. . ... : ... .. . ... : ... .. . ... : F-# 15 . ... : ... .. . ...
ROW 36 : ... .. . ... : A-3 0E . ... : ... .. . ... : 8-# 15 . ... : ... .. . ...
ROW 37 : D-2 18 . ... : ... .. . ... : ... .. . ... : F-# 15 . ... : ... .. . ...
ROW 38 : --- .. . ... : E-4 0E . ... : ... .. . ... : C-# 19 . ... : ... .. . ...
ROW 39 : B-1 18 . ... : ... .. . ... : ... .. . ... : ... .. . ... : ... .. . ...
ROW 3A : --- .. . ... : ... .. . ... : ... .. . ... : ... .. . ... : ... .. . ...
ROW 3B : B-1 18 . ... : ... .. . ... : ... .. . ... : ... .. . ... : ... .. . ...
ROW 3C : C-2 18 . ... : ... .. . ... : ... .. . ... : ... .. . ... : ... .. . ...
ROW 3D : --- .. . ... : ... .. . ... : ... .. . ... : ... .. . ... : ... .. . ...
ROW 3E : B-1 18 . ... : ... .. . ... : ... .. . ... : ... .. . ... : ... .. . ...
ROW 3F : --- .. . ... : ... .. . ... : ... .. . ... : ... .. . ... : ... .. . ...

PATTERN 1A
ROW 00 : A-0 14 . ... : A-0 0D . ... : --- .. . ... : --- .. . ... : ... .. . ...
ROW 01 : ... .. . ... : ... .. . ... : ... .. . ... : ... .. . ... : ... .. . ...
ROW 02 : ... .. . ... : A-0 0F . ... : ... .. . ... : ... .. . ... : ... .. . ...
ROW 03 : ... .. . ... : ... .. . ... : ... .. . ... : ... .. . ... : ... .. . ...
ROW 04 : ... .. . ... : ... .. . ... : ... .. . ... : ... .. . ... : ... .. . ...
ROW 05 : ... .. . ... : ... .. . ... : ... .. . ... : ... .. . ... : ... .. . ...
ROW 06 : ... .. . ... : A-0 0D . ... : ... .. . ... : ... .. . ... : ... .. . ...
ROW 07 : ... .. . ... : ... .. . ... : ... .. . ... : ... .. . ... : ... .. . ...
ROW 08 : ... .. . ... : ... .. . ... : ... .. . ... : ... .. . ... : ... .. . ...
ROW 09 : ... .. . ... : ... .. . ... : ... .. . ... : ... .. . ... : ... .. . ...
ROW 0A : ... .. . ... : A-0 0D . ... : ... .. . ... : ... .. . ... : ... .. . ...
ROW 0B : ... .. . ... : ... .. . ... : ... .. . ... : ... .. . ... : ... .. . ...
ROW 0C : ... .. . ... : ... .. . ... : ... .. . ... : ... .. . ... : ... .. . ...
ROW 0D : ... .. . ... : ... .. . ... : ... .. . ... : ... .. . ... : ... .. . ...
ROW 0E : ... .. . ... : A-0 0F . ... : ... .. . ... : ... .. . ... : ... .. . ...
ROW 0F : ... .. . ... : ... .. . ... : ... .. . ... : ... .. . ... : ... .. . ...
ROW 10 : --- .. . ... : A-0 0D . ... : ... .. . ... : ... .. . ... : ... .. . ...
ROW 11 : ... .. . ... : ... .. . ... : ... .. . ... : ... .. . ... : ... .. . ...
ROW 12 : ... .. . ... : A-0 0F . ... : ... .. . ... : ... .. . ... : ... .. . ...
ROW 13 : ... .. . ... : ... .. . ... : ... .. . ... : ... .. . ... : ... .. . ...
ROW 14 : ... .. . ... : ... .. . ... : ... .. . ... : ... .. . ... : ... .. . ...
ROW 15 : ... .. . ... : ... .. . ... : ... .. . ... : ... .. . ... : ... .. . ...
ROW 16 : ... .. . ... : A-0 0D . ... : ... .. . ... : ... .. . ... : ... .. . ...
ROW 17 : ... .. . ... : ... .. . ... : ... .. . ... : ... .. . ... : ... .. . ...
ROW 18 : ... .. . ... : ... .. . ... : ... .. . ... : ... .. . ... : ... .. . ...
ROW 19 : ... .. . ... : ... .. . ... : ... .. . ... : ... .. . ... : ... .. . ...
ROW 1A : ... .. . ... : A-0 0D . ... : ... .. . ... : ... .. . ... : ... .. . ...
ROW 1B : ... .. . ... : ... .. . ... : ... .. . ... : ... .. . ... : ... .. . ...
ROW 1C : ... .. . ... : ... .. . ... : ... .. . ... : ... .. . ... : ... .. . ...
ROW 1D : ... .. . ... : ... .. . ... : ... .. . ... : ... .. . ... : ... .. . ...
ROW 1E : ... .. . ... : A-0 0F . ... : ... .. . ... : ... .. . ... : ... .. . ...
ROW 1F : ... .. . ... : ... .. . ... : ... .. . ... : ... .. . ... : ... .. . ...
ROW 20 : ... .. . ... : A-0 0D . ... : ... .. . ... : ... .. . ... : ... .. . ...
ROW 21 : ... .. . ... : ... .. . ... : ... .. . ... : ... .. . ... : ... .. . ...
ROW 22 : ... .. . ... : A-0 0F . ... : ... .. . ... : ... .. . ... : ... .. . ...
ROW 23 : ... .. . ... : ... .. . ... : ... .. . ... : ... .. . ... : ... .. . ...
ROW 24 : ... .. . ... : ... .. . ... : ... .. . ... : ... .. . ... : ... .. . ...
ROW 25 : ... .. . ... : ... .. . ... : ... .. . ... : ... .. . ... : ... .. . ...
ROW 26 : ... .. . ... : A-0 0D . ... : ... .. . ... : ... .. . ... : ... .. . ...
ROW 27 : ... .. . ... : ... .. . ... : ... .. . ... : ... .. . ... : ... .. . ...
ROW 28 : ... .. . ... : ... .. . ... : ... .. . ... : ... .. . ... : ... .. . ...
ROW 29 : ... .. . ... : ... .. . ... : ... .. . ... : ... .. . ... : ... .. . ...
ROW 2A : ... .. . ... : A-0 0D . ... : ... .. . ... : ... .. . ... : ... .. . ...
ROW 2B : ... .. . ... : ... .. . ... : ... .. . ... : ... .. . ... : ... .. . ...
ROW 2C : ... .. . ... : ... .. . ... : ... .. . ... : ... .. . ... : ... .. . ...
ROW 2D : ... .. . ... : ... .. . ... : ... .. . ... : ... .. . ... : ... .. . ...
ROW 2E : ... .. . ... : A-0 0F . ... : ... .. . ... : ... .. . ... : ... .. . ...
ROW 2F : ... .. . ... : ... .. . ... : ... .. . ... : ... .. . ... : ... .. . ...
ROW 30 : ... .. . ... : A-0 0D . ... : ... .. . ... : ... .. . ... : ... .. . ...
ROW 31 : ... .. . ... : ... .. . ... : ... .. . ... : ... .. . ... : ... .. . ...
ROW 32 : ... .. . ... : A-0 0F . ... : ... .. . ... : ... .. . ... : ... .. . ...
ROW 33 : ... .. . ... : ... .. . ... : ... .. . ... : ... .. . ... : ... .. . ...
ROW 34 : ... .. . ... : ... .. . ... : ... .. . ... : ... .. . ... : ... .. . ...
ROW 35 : ... .. . ... : ... .. . ... : ... .. . ... : ... .. . ... : ... .. . ...
ROW 36 : ... .. . ... : A-0 0D . ... : ... .. . ... : ... .. . ... : ... .. . ...
ROW 37 : ... .. . ... : ... .. . ... : ... .. . ... : ... .. . ... : ... .. . ...
ROW 38 : ... .. . ... : ... .. . ... : ... .. . ... : ... .. . ... : ... .. . ...
ROW 39 : ... .. . ... : ... .. . ... : ... .. . ... : ... .. . ... : ... .. . ...
ROW 3A : ... .. . ... : A-0 0D . ... : ... .. . ... : ... .. . ... : ... .. . ...
ROW 3B : ... .. . ... : ... .. . ... : ... .. . ... : ... .. . ... : ... .. . ...
ROW 3C : ... .. . ... : ... .. . ... : ... .. . ... : ... .. . ... : ... .. . ...
ROW 3D : ... .. . ... : ... .. . ... : ... .. . ... : ... .. . ... : ... .. . ...
ROW 3E : ... .. . ... : A-0 0F . ... : ... .. . ... : ... .. . ... : ... .. . ...
ROW 3F : ... .. . ... : ... .. . ... : ... .. . ... : ... .. . ... : ... .. . ...

PATTERN 1B
ROW 00 : A-3 18 . ... : E-3 02 . ... : A-4 14 . ... : C-# 19 . ... : ... .. . ...
ROW 01 : ... .. . ... : ... .. . ... : ... .. . ... : C-# 19 . ... : ... .. . ...
ROW 02 : C-3 18 . ... : ... .. . ... : --- .. . ... : 8-# 15 . ... : ... .. . ...
ROW 03 : ... .. . ... : ... .. . ... : ... .. . ... : F-# 15 . ... : ... .. . ...
ROW 04 : --- .. . ... : ... .. . ... : C-4 14 . ... : ... .. . ... : ... .. . ...
ROW 05 : ... .. . ... : ... .. . ... : ... .. . ... : F-# 15 . ... : ... .. . ...
ROW 06 : G-2 18 . ... : ... .. . ... : --- .. . ... : 8-# 15 . ... : ... .. . ...
ROW 07 : ... .. . ... : ... .. . ... : ... .. . ... : F-# 15 . ... : ... .. . ...
ROW 08 : --- .. . ... : ... .. . ... : A-4 14 . ... : C-# 19 . ... : ... .. . ...
ROW 09 : ... .. . ... : ... .. . ... : ... .. . ... : C-# 19 . ... : ... .. . ...
ROW 0A : D-3 18 . ... : ... .. . ... : --- .. . ... : 8-# 15 . ... : ... .. . ...
ROW 0B : ... .. . ... : ... .. . ... : ... .. . ... : F-# 15 . ... : ... .. . ...
ROW 0C : ... .. . ... : ... .. . ... : C-4 14 . ... : ... .. . ... : ... .. . ...
ROW 0D : ... .. . ... : ... .. . ... : ... .. . ... : F-# 15 . ... : ... .. . ...
ROW 0E : ... .. . ... : ... .. . ... : --- .. . ... : 8-# 15 . ... : ... .. . ...
ROW 0F : --- .. . ... : ... .. . ... : ... .. . ... : F-# 15 . ... : ... .. . ...
ROW 10 : C-3 18 . ... : ... .. . ... : A-4 14 . ... : C-# 19 . ... : ... .. . ...
ROW 11 : --- .. . ... : ... .. . ... : ... .. . ... : C-# 19 . ... : ... .. . ...
ROW 12 : A-3 18 . ... : ... .. . ... : --- .. . ... : 8-# 15 . ... : ... .. . ...
ROW 13 : ... .. . ... : ... .. . ... : ... .. . ... : F-# 15 . ... : ... .. . ...
ROW 14 : B-3 18 . ... : ... .. . ... : C-4 14 . ... : ... .. . ... : ... .. . ...
ROW 15 : ... .. . ... : ... .. . ... : ... .. . ... : F-# 15 . ... : ... .. . ...
ROW 16 : C-4 18 . ... : ... .. . ... : --- .. . ... : 8-# 15 . ... : ... .. . ...
ROW 17 : ... .. . ... : ... .. . ... : ... .. . ... : F-# 15 . ... : ... .. . ...
ROW 18 : ... .. . ... : ... .. . ... : A-4 14 . ... : C-# 19 . ... : ... .. . ...
ROW 19 : ... .. . ... : ... .. . ... : ... .. . ... : C-# 19 . ... : ... .. . ...
ROW 1A : ... .. . ... : ... .. . ... : --- .. . ... : 8-# 15 . ... : ... .. . ...
ROW 1B : ... .. . ... : ... .. . ... : ... .. . ... : F-# 15 . ... : ... .. . ...
ROW 1C : ... .. . ... : ... .. . ... : C-4 14 . ... : ... .. . ... : ... .. . ...
ROW 1D : ... .. . ... : ... .. . ... : ... .. . ... : F-# 15 . ... : ... .. . ...
ROW 1E : ... .. . ... : ... .. . ... : --- .. . ... : 8-# 15 . ... : ... .. . ...
ROW 1F : ... .. . ... : ... .. . D00 : ... .. . ... : F-# 15 . ... : ... .. . ...
ROW 20 : G-3 18 . ... : ... .. . ... : ... .. . ... : C-# 19 . ... : ... .. . ...
ROW 21 : ... .. . ... : ... .. . ... : ... .. . ... : ... .. . ... : ... .. . ...
ROW 22 : E-3 18 . ... : ... .. . ... : ... .. . ... : 3-# 05 . ... : ... .. . ...
ROW 23 : ... .. . ... : ... .. . ... : ... .. . ... : ... .. . ... : ... .. . ...
ROW 24 : E-3 18 . ... : ... .. . ... : ... .. . ... : 3-# 05 . ... : ... .. . ...
ROW 25 : ... .. . ... : ... .. . ... : ... .. . ... : ... .. . ... : ... .. . ...
ROW 26 : G-3 18 . ... : ... .. . ... : ... .. . ... : ... .. . ... : ... .. . ...
ROW 27 : ... .. . ... : ... .. . ... : ... .. . ... : ... .. . ... : ... .. . ...
ROW 28 : A-3 18 . ... : ... .. . ... : ... .. . ... : ... .. . ... : ... .. . ...
ROW 29 : ... .. . ... : ... .. . ... : ... .. . ... : ... .. . ... : ... .. . ...
ROW 2A : ... .. . ... : ... .. . ... : ... .. . ... : ... .. . ... : ... .. . ...
ROW 2B : ... .. . ... : ... .. . ... : ... .. . ... : ... .. . ... : ... .. . ...
ROW 2C : ... .. . ... : ... .. . ... : ... .. . ... : ... .. . ... : ... .. . ...
ROW 2D : ... .. . ... : ... .. . ... : ... .. . ... : ... .. . ... : ... .. . ...
ROW 2E : G-3 18 . ... : ... .. . ... : ... .. . ... : ... .. . ... : ... .. . ...
ROW 2F : --- .. . ... : ... .. . ... : ... .. . ... : ... .. . ... : ... .. . ...
ROW 30 : A-3 18 . ... : ... .. . ... : ... .. . ... : ... .. . ... : ... .. . ...
ROW 31 : ... .. . ... : ... .. . ... : ... .. . ... : ... .. . ... : ... .. . ...
ROW 32 : G-3 18 . ... : ... .. . ... : ... .. . ... : ... .. . ... : ... .. . ...
ROW 33 : ... .. . ... : ... .. . ... : ... .. . ... : ... .. . ... : ... .. . ...
ROW 34 : E-3 18 . ... : ... .. . ... : ... .. . ... : ... .. . ... : ... .. . ...
ROW 35 : ... .. . ... : ... .. . ... : ... .. . ... : ... .. . ... : ... .. . ...
ROW 36 : G-3 18 . ... : ... .. . ... : ... .. . ... : ... .. . ... : ... .. . ...
ROW 37 : ... .. . ... : ... .. . ... : ... .. . ... : ... .. . ... : ... .. . ...
ROW 38 : A-3 18 . ... : ... .. . ... : ... .. . ... : ... .. . ... : ... .. . ...
ROW 39 : ... .. . ... : ... .. . ... : ... .. . ... : ... .. . ... : ... .. . ...
ROW 3A : G-3 18 . ... : ... .. . ... : ... .. . ... : ... .. . ... : ... .. . ...
ROW 3B : ... .. . ... : ... .. . ... : ... .. . ... : ... .. . ... : ... .. . ...
ROW 3C : E-3 18 . ... : ... .. . ... : ... .. . ... : ... .. . ... : ... .. . ...
ROW 3D : ... .. . ... : ... .. . ... : ... .. . ... : ... .. . ... : ... .. . ...
ROW 3E : G-3 18 . ... : ... .. . ... : ... .. . ... : ... .. . ... : ... .. . ...
ROW 3F : ... .. . ... : ... .. . ... : ... .. . ... : ... .. . ... : ... .. . ...

PATTERN 1C
ROW 00 : ... .. . ... : A-1 0D . ... : A-4 14 . ... : 8-# 15 . ... : ... .. . ...
ROW 01 : ... .. . ... : ... .. . ... : ... .. . ... : ... .. . ... : ... .. . ...
ROW 02 : ... .. . ... : A-1 0F . ... : --- .. . ... : ... .. . ... : ... .. . ...
ROW 03 : ... .. . ... : ... .. . ... : ... .. . ... : ... .. . ... : ... .. . ...
ROW 04 : ... .. . ... : A-1 00 . ... : C-4 14 . ... : ... .. . ... : ... .. . ...
ROW 05 : ... .. . ... : ... .. . ... : ... .. . ... : ... .. . ... : ... .. . ...
ROW 06 : ... .. . ... : A-1 0D . ... : --- .. . ... : ... .. . ... : ... .. . ...
ROW 07 : ... .. . ... : ... .. . ... : ... .. . ... : ... .. . ... : ... .. . ...
ROW 08 : ... .. . ... : A-1 00 . ... : A-4 14 . ... : ... .. . ... : ... .. . ...
ROW 09 : ... .. . ... : ... .. . ... : ... .. . ... : ... .. . ... : ... .. . ...
ROW 0A : ... .. . ... : A-1 0D . ... : --- .. . ... : ... .. . ... : ... .. . ...
ROW 0B : ... .. . ... : ... .. . ... : ... .. . ... : ... .. . ... : ... .. . ...
ROW 0C : ... .. . ... : A-1 00 . ... : C-4 14 . ... : ... .. . ... : ... .. . ...
ROW 0D : ... .. . ... : ... .. . ... : ... .. . ... : ... .. . ... : ... .. . ...
ROW 0E : ... .. . ... : A-1 0F . ... : --- .. . ... : ... .. . ... : ... .. . ...
ROW 0F : ... .. . ... : ... .. . ... : ... .. . ... : ... .. . ... : ... .. . ...
ROW 10 : ... .. . ... : A-1 0D . ... : B-4 14 . ... : F-# 15 . ... : ... .. . ...
ROW 11 : ... .. . ... : ... .. . ... : ... .. . ... : ... .. . ... : ... .. . ...
ROW 12 : ... .. . ... : A-1 0F . ... : --- .. . ... : ... .. . ... : ... .. . ...
ROW 13 : ... .. . ... : ... .. . ... : ... .. . ... : ... .. . ... : ... .. . ...
ROW 14 : ... .. . ... : A-1 00 . ... : D-4 14 . ... : ... .. . ... : ... .. . ...
ROW 15 : ... .. . ... : ... .. . ... : ... .. . ... : ... .. . ... : ... .. . ...
ROW 16 : ... .. . ... : A-1 0D . ... : --- .. . ... : ... .. . ... : ... .. . ...
ROW 17 : ... .. . ... : ... .. . ... : ... .. . ... : ... .. . ... : ... .. . ...
ROW 18 : ... .. . ... : A-1 00 . ... : B-4 14 . ... : ... .. . ... : ... .. . ...
ROW 19 : ... .. . ... : ... .. . ... : ... .. . ... : ... .. . ... : ... .. . ...
ROW 1A : ... .. . ... : A-1 0D . ... : --- .. . ... : ... .. . ... : ... .. . ...
ROW 1B : ... .. . ... : ... .. . ... : ... .. . ... : ... .. . ... : ... .. . ...
ROW 1C : ... .. . ... : A-1 00 . ... : D-4 14 . ... : ... .. . ... : ... .. . ...
ROW 1D : ... .. . ... : ... .. . ... : ... .. . ... : ... .. . ... : ... .. . ...
ROW 1E : ... .. . ... : A-1 0F . ... : --- .. . ... : ... .. . ... : ... .. . ...
ROW 1F : ... .. . ... : ... .. . ... : ... .. . ... : ... .. . ... : ... .. . ...
ROW 20 : ... .. . ... : A-1 0D . ... : C-5 14 . ... : ... .. . ... : ... .. . ...
ROW 21 : ... .. . ... : ... .. . ... : ... .. . ... : ... .. . ... : ... .. . ...
ROW 22 : ... .. . ... : A-1 0F . ... : G-4 14 . ... : ... .. . ... : ... .. . ...
ROW 23 : ... .. . ... : ... .. . ... : ... .. . ... : ... .. . ... : ... .. . ...
ROW 24 : ... .. . ... : A-1 00 . ... : E-4 14 . ... : ... .. . ... : ... .. . ...
ROW 25 : ... .. . ... : ... .. . ... : ... .. . ... : ... .. . ... : ... .. . ...
ROW 26 : ... .. . ... : A-1 0D . ... : G-4 14 . ... : ... .. . ... : ... .. . ...
ROW 27 : ... .. . ... : ... .. . ... : ... .. . ... : ... .. . ... : ... .. . ...
ROW 28 : ... .. . ... : A-1 00 . ... : C-5 14 . ... : ... .. . ... : ... .. . ...
ROW 29 : ... .. . ... : ... .. . ... : ... .. . ... : ... .. . ... : ... .. . ...
ROW 2A : ... .. . ... : A-1 0D . ... : G-4 14 . ... : ... .. . ... : ... .. . ...
ROW 2B : ... .. . ... : ... .. . ... : ... .. . ... : ... .. . ... : ... .. . ...
ROW 2C : ... .. . ... : A-1 00 . ... : E-4 14 . ... : ... .. . ... : ... .. . ...
ROW 2D : ... .. . ... : ... .. . ... : ... .. . ... : ... .. . ... : ... .. . ...
ROW 2E : ... .. . ... : A-1 0F . ... : G-4 14 . ... : ... .. . ... : ... .. . ...
ROW 2F : ... .. . ... : ... .. . ... : ... .. . ... : ... .. . ... : ... .. . ...
ROW 30 : ... .. . ... : ... .. . ... : D-5 14 . ... : ... .. . ... : ... .. . ...
ROW 31 : ... .. . ... : ... .. . ... : ... .. . ... : ... .. . ... : ... .. . ...
ROW 32 : ... .. . ... : ... .. . ... : G-4 14 . ... : ... .. . ... : ... .. . ...
ROW 33 : ... .. . ... : ... .. . ... : ... .. . ... : ... .. . ... : ... .. . ...
ROW 34 : ... .. . ... : ... .. . ... : F-4 14 . ... : ... .. . ... : ... .. . ...
ROW 35 : ... .. . ... : ... .. . ... : ... .. . ... : ... .. . ... : ... .. . ...
ROW 36 : ... .. . ... : ... .. . ... : A-4 14 . ... : ... .. . ... : ... .. . ...
ROW 37 : ... .. . ... : ... .. . ... : ... .. . ... : ... .. . ... : ... .. . ...
ROW 38 : ... .. . ... : ... .. . ... : E-5 14 . ... : ... .. . ... : ... .. . ...
ROW 39 : ... .. . ... : ... .. . ... : ... .. . ... : ... .. . ... : ... .. . ...
ROW 3A : ... .. . ... : ... .. . ... : ... .. . ... : ... .. . ... : ... .. . ...
ROW 3B : ... .. . ... : ... .. . ... : ... .. . ... : ... .. . ... : ... .. . ...
ROW 3C : ... .. . ... : ... .. . ... : ... .. . ... : ... .. . ... : ... .. . ...
ROW 3D : ... .. . ... : ... .. . ... : ... .. . ... : ... .. . ... : ... .. . ...
ROW 3E : ... .. . ... : ... .. . ... : ... .. . ... : ... .. . ... : ... .. . ...
ROW 3F : ... .. . ... : ... .. . ... : ... .. . ... : ... .. . ... : ... .. . ...

PATTERN 1D
ROW 00 : ... .. . ... : ... .. . ... : C#3 14 . ... : C-# 19 . ... : ... .. . ...
ROW 01 : ... .. . ... : ... .. . ... : ... .. . ... : ... .. . ... : ... .. . ...
ROW 02 : ... .. . ... : ... .. . ... : --- .. . ... : ... .. . ... : ... .. . ...
ROW 03 : ... .. . ... : ... .. . ... : ... .. . ... : ... .. . ... : ... .. . ...
ROW 04 : ... .. . ... : ... .. . ... : ... .. . ... : 8-# 15 . ... : ... .. . ...
ROW 05 : ... .. . ... : ... .. . ... : ... .. . ... : ... .. . ... : ... .. . ...
ROW 06 : ... .. . ... : ... .. . ... : ... .. . ... : F-# 15 . ... : ... .. . ...
ROW 07 : ... .. . ... : ... .. . ... : ... .. . ... : ... .. . ... : ... .. . ...
ROW 08 : ... .. . ... : ... .. . ... : ... .. . ... : ... .. . ... : ... .. . ...
ROW 09 : ... .. . ... : ... .. . ... : ... .. . ... : F-# 15 . ... : ... .. . ...
ROW 0A : ... .. . ... : ... .. . ... : ... .. . ... : C-# 19 . ... : ... .. . ...
ROW 0B : ... .. . ... : ... .. . ... : ... .. . ... : ... .. . ... : ... .. . ...
ROW 0C : ... .. . ... : ... .. . ... : ... .. . ... : 8-# 15 . ... : ... .. . ...
ROW 0D : ... .. . ... : ... .. . ... : ... .. . ... : ... .. . ... : ... .. . ...
ROW 0E : ... .. . ... : ... .. . ... : ... .. . ... : C-# 19 . ... : ... .. . ...
ROW 0F : ... .. . ... : ... .. . ... : ... .. . ... : F-# 15 . ... : ... .. . ...
ROW 10 : ... .. . ... : ... .. . ... : ... .. . ... : C-# 19 . ... : ... .. . ...
ROW 11 : ... .. . ... : ... .. . ... : ... .. . ... : ... .. . ... : ... .. . ...
ROW 12 : ... .. . ... : ... .. . ... : ... .. . ... : ... .. . ... : ... .. . ...
ROW 13 : ... .. . ... : ... .. . ... : ... .. . ... : ... .. . ... : ... .. . ...
ROW 14 : ... .. . ... : ... .. . ... : ... .. . ... : 8-# 15 . ... : ... .. . ...
ROW 15 : ... .. . ... : ... .. . ... : ... .. . ... : ... .. . ... : ... .. . ...
ROW 16 : ... .. . ... : ... .. . ... : ... .. . ... : ... .. . ... : ... .. . ...
ROW 17 : ... .. . ... : ... .. . ... : ... .. . ... : ... .. . ... : ... .. . ...
ROW 18 : ... .. . ... : ... .. . ... : ... .. . ... : ... .. . ... : ... .. . ...
ROW 19 : ... .. . ... : ... .. . ... : ... .. . ... : F-# 15 . ... : ... .. . ...
ROW 1A : ... .. . ... : ... .. . ... : ... .. . ... : C-# 19 . ... : ... .. . ...
ROW 1B : ... .. . ... : ... .. . ... : ... .. . ... : ... .. . ... : ... .. . ...
ROW 1C : ... .. . ... : ... .. . ... : ... .. . ... : 8-# 15 . ... : ... .. . ...
ROW 1D : ... .. . ... : ... .. . ... : ... .. . ... : ... .. . ... : ... .. . ...
ROW 1E : ... .. . ... : ... .. . ... : ... .. . ... : C-# 19 . ... : ... .. . ...
ROW 1F : ... .. . ... : ... .. . ... : ... .. . ... : F-# 15 . ... : ... .. . ...
ROW 20 : ... .. . ... : ... .. . ... : ... .. . ... : C-# 19 . ... : ... .. . ...
ROW 21 : ... .. . ... : ... .. . ... : ... .. . ... : ... .. . ... : ... .. . ...
ROW 22 : ... .. . ... : ... .. . ... : ... .. . ... : ... .. . ... : ... .. . ...
ROW 23 : ... .. . ... : ... .. . ... : ... .. . ... : ... .. . ... : ... .. . ...
ROW 24 : ... .. . ... : ... .. . ... : ... .. . ... : 8-# 15 . ... : ... .. . ...
ROW 25 : ... .. . ... : ... .. . ... : ... .. . ... : ... .. . ... : ... .. . ...
ROW 26 : ... .. . ... : ... .. . ... : ... .. . ... : F-# 15 . ... : ... .. . ...
ROW 27 : ... .. . ... : ... .. . ... : ... .. . ... : ... .. . ... : ... .. . ...
ROW 28 : ... .. . ... : ... .. . ... : ... .. . ... : ... .. . ... : ... .. . ...
ROW 29 : ... .. . ... : ... .. . ... : ... .. . ... : F-# 15 . ... : ... .. . ...
ROW 2A : ... .. . ... : ... .. . ... : ... .. . ... : C-# 19 . ... : ... .. . ...
ROW 2B : ... .. . ... : ... .. . ... : ... .. . ... : ... .. . ... : ... .. . ...
ROW 2C : ... .. . ... : ... .. . ... : ... .. . ... : 8-# 15 . ... : ... .. . ...
ROW 2D : ... .. . ... : ... .. . ... : ... .. . ... : ... .. . ... : ... .. . ...
ROW 2E : ... .. . ... : ... .. . ... : ... .. . ... : C-# 19 . ... : ... .. . ...
ROW 2F : ... .. . ... : ... .. . ... : ... .. . ... : F-# 15 . ... : ... .. . ...
ROW 30 : ... .. . ... : ... .. . ... : ... .. . ... : C-# 19 . ... : ... .. . ...
ROW 31 : ... .. . ... : ... .. . ... : ... .. . ... : ... .. . ... : ... .. . ...
ROW 32 : ... .. . ... : ... .. . ... : ... .. . ... : ... .. . ... : ... .. . ...
ROW 33 : ... .. . ... : ... .. . ... : ... .. . ... : ... .. . ... : ... .. . ...
ROW 34 : ... .. . ... : ... .. . ... : ... .. . ... : 8-# 15 . ... : ... .. . ...
ROW 35 : ... .. . ... : ... .. . ... : ... .. . ... : ... .. . ... : ... .. . ...
ROW 36 : ... .. . ... : ... .. . ... : ... .. . ... : ... .. . ... : ... .. . ...
ROW 37 : ... .. . ... : ... .. . ... : ... .. . ... : ... .. . ... : ... .. . ...
ROW 38 : ... .. . ... : ... .. . ... : ... .. . ... : ... .. . ... : ... .. . ...
ROW 39 : ... .. . ... : ... .. . ... : ... .. . ... : F-# 15 . ... : ... .. . ...
ROW 3A : ... .. . ... : ... .. . ... : ... .. . ... : C-# 19 . ... : ... .. . ...
ROW 3B : ... .. . ... : ... .. . ... : ... .. . ... : ... .. . ... : ... .. . ...
ROW 3C : ... .. . ... : ... .. . ... : ... .. . ... : 8-# 15 . ... : ... .. . ...
ROW 3D : ... .. . ... : ... .. . ... : ... .. . ... : ... .. . ... : ... .. . ...
ROW 3E : ... .. . ... : ... .. . ... : ... .. . ... : C-# 19 . ... : ... .. . ...
ROW 3F : ... .. . ... : ... .. . ... : ... .. . ... : F-# 15 . ... : ... .. . ...

PATTERN 1E
ROW 00 : ... .. . ... : ... .. . ... : A-4 14 . ... : ... .. . ... : ... .. . ...
ROW 01 : ... .. . ... : ... .. . ... : ... .. . ... : ... .. . ... : ... .. . ...
ROW 02 : ... .. . ... : ... .. . ... : ... .. . ... : ... .. . ... : ... .. . ...
ROW 03 : ... .. . ... : ... .. . ... : ... .. . ... : ... .. . ... : ... .. . ...
ROW 04 : ... .. . ... : ... .. . ... : ... .. . ... : ... .. . ... : ... .. . ...
ROW 05 : ... .. . ... : ... .. . ... : ... .. . ... : ... .. . ... : ... .. . ...
ROW 06 : ... .. . ... : ... .. . ... : ... .. . ... : ... .. . ... : ... .. . ...
ROW 07 : ... .. . ... : ... .. . ... : ... .. . ... : ... .. . ... : ... .. . ...
ROW 08 : ... .. . ... : ... .. . ... : ... .. . ... : ... .. . ... : ... .. . ...
ROW 09 : ... .. . ... : ... .. . ... : ... .. . ... : ... .. . ... : ... .. . ...
ROW 0A : ... .. . ... : ... .. . ... : ... .. . ... : ... .. . ... : ... .. . ...
ROW 0B : ... .. . ... : ... .. . ... : ... .. . ... : ... .. . ... : ... .. . ...
ROW 0C : ... .. . ... : ... .. . ... : ... .. . ... : ... .. . ... : ... .. . ...
ROW 0D : ... .. . ... : ... .. . ... : ... .. . ... : ... .. . ... : ... .. . ...
ROW 0E : ... .. . ... : ... .. . ... : ... .. . ... : ... .. . ... : ... .. . ...
ROW 0F : ... .. . ... : ... .. . ... : ... .. . ... : ... .. . ... : ... .. . ...
ROW 10 : ... .. . ... : ... .. . ... : --- 14 . ... : ... .. . ... : ... .. . ...
ROW 11 : ... .. . ... : ... .. . ... : ... .. . ... : ... .. . ... : ... .. . ...
ROW 12 : ... .. . ... : ... .. . ... : ... .. . ... : ... .. . ... : ... .. . ...
ROW 13 : ... .. . ... : ... .. . ... : ... .. . ... : ... .. . ... : ... .. . ...
ROW 14 : ... .. . ... : ... .. . ... : ... .. . ... : ... .. . ... : ... .. . ...
ROW 15 : ... .. . ... : ... .. . ... : ... .. . ... : ... .. . ... : ... .. . ...
ROW 16 : ... .. . ... : ... .. . ... : ... .. . ... : ... .. . ... : ... .. . ...
ROW 17 : ... .. . ... : ... .. . ... : ... .. . ... : ... .. . ... : ... .. . ...
ROW 18 : ... .. . ... : ... .. . ... : ... .. . ... : ... .. . ... : ... .. . ...
ROW 19 : ... .. . ... : ... .. . ... : ... .. . ... : ... .. . ... : ... .. . ...
ROW 1A : ... .. . ... : ... .. . ... : ... .. . ... : ... .. . ... : ... .. . ...
ROW 1B : ... .. . ... : ... .. . ... : ... .. . ... : ... .. . ... : ... .. . ...
ROW 1C : ... .. . ... : ... .. . ... : ... .. . ... : ... .. . ... : ... .. . ...
ROW 1D : ... .. . ... : ... .. . ... : ... .. . ... : ... .. . ... : ... .. . ...
ROW 1E : ... .. . ... : ... .. . ... : ... .. . ... : ... .. . ... : ... .. . ...
ROW 1F : ... .. . ... : ... .. . ... : ... .. . ... : ... .. . ... : ... .. . ...
ROW 20 : ... .. . ... : ... .. . ... : ... .. . ... : ... .. . ... : ... .. . ...
ROW 21 : ... .. . ... : ... .. . ... : ... .. . ... : ... .. . ... : ... .. . ...
ROW 22 : ... .. . ... : ... .. . ... : ... .. . ... : ... .. . ... : ... .. . ...
ROW 23 : ... .. . ... : ... .. . ... : ... .. . ... : ... .. . ... : ... .. . ...
ROW 24 : ... .. . ... : ... .. . ... : ... .. . ... : ... .. . ... : ... .. . ...
ROW 25 : ... .. . ... : ... .. . ... : ... .. . ... : ... .. . ... : ... .. . ...
ROW 26 : ... .. . ... : ... .. . ... : ... .. . ... : ... .. . ... : ... .. . ...
ROW 27 : ... .. . ... : ... .. . ... : ... .. . ... : ... .. . ... : ... .. . ...
ROW 28 : ... .. . ... : ... .. . ... : ... .. . ... : ... .. . ... : ... .. . ...
ROW 29 : ... .. . ... : ... .. . ... : ... .. . ... : ... .. . ... : ... .. . ...
ROW 2A : ... .. . ... : ... .. . ... : ... .. . ... : ... .. . ... : ... .. . ...
ROW 2B : ... .. . ... : ... .. . ... : ... .. . ... : ... .. . ... : ... .. . ...
ROW 2C : ... .. . ... : ... .. . ... : ... .. . ... : ... .. . ... : ... .. . ...
ROW 2D : ... .. . ... : ... .. . ... : ... .. . ... : ... .. . ... : ... .. . ...
ROW 2E : ... .. . ... : ... .. . ... : ... .. . ... : ... .. . ... : ... .. . ...
ROW 2F : ... .. . ... : ... .. . ... : ... .. . ... : ... .. . ... : ... .. . ...
ROW 30 : ... .. . ... : ... .. . ... : ... .. . ... : ... .. . ... : ... .. . ...
ROW 31 : ... .. . ... : ... .. . ... : ... .. . ... : ... .. . ... : ... .. . ...
ROW 32 : ... .. . ... : ... .. . ... : ... .. . ... : ... .. . ... : ... .. . ...
ROW 33 : ... .. . ... : ... .. . ... : ... .. . ... : ... .. . ... : ... .. . ...
ROW 34 : ... .. . ... : ... .. . ... : ... .. . ... : ... .. . ... : ... .. . ...
ROW 35 : ... .. . ... : ... .. . ... : ... .. . ... : ... .. . ... : ... .. . ...
ROW 36 : ... .. . ... : ... .. . ... : ... .. . ... : ... .. . ... : ... .. . ...
ROW 37 : ... .. . ... : ... .. . ... : ... .. . ... : ... .. . ... : ... .. . ...
ROW 38 : ... .. . ... : ... .. . ... : ... .. . ... : ... .. . ... : ... .. . ...
ROW 39 : ... .. . ... : ... .. . ... : ... .. . ... : ... .. . ... : ... .. . ...
ROW 3A : ... .. . ... : ... .. . ... : ... .. . ... : ... .. . ... : ... .. . ...
ROW 3B : ... .. . ... : ... .. . ... : ... .. . ... : ... .. . ... : ... .. . ...
ROW 3C : ... .. . ... : ... .. . ... : ... .. . ... : ... .. . ... : ... .. . ...
ROW 3D : ... .. . ... : ... .. . ... : ... .. . ... : ... .. . ... : ... .. . ...
ROW 3E : ... .. . ... : ... .. . ... : ... .. . ... : ... .. . ... : ... .. . ...
ROW 3F : ... .. . ... : ... .. . ... : ... .. . ... : ... .. . ... : ... .. . ...

TRACK  32   6 150 "menu"
COLUMNS : 1 1 1 1 1

ORDER 00 : 02 02 02 02 01
ORDER 01 : 06 06 06 06 05
ORDER 02 : 03 03 03 03 02
ORDER 03 : 04 04 04 04 03
ORDER 04 : 05 05 05 05 04
ORDER 05 : 07 07 07 07 06

PATTERN 00
ROW 00 : G-4 00 . ... : C-1 00 . ... : G-3 07 . ... : 0-# 05 . ... : ... .. . ...
ROW 01 : ... .. . ... : ... .. . ... : ... .. . ... : ... .. . ... : ... .. . ...
ROW 02 : ... .. . ... : ... .. . ... : ... .. . ... : ... .. . ... : ... .. . ...
ROW 03 : G-4 00 . ... : C-1 00 . ... : ... .. . ... : 0-# 05 . ... : ... .. . ...
ROW 04 : C-4 00 . ... : C-1 00 . ... : G-3 07 . ... : 7-# 05 . ... : ... .. . ...
ROW 05 : ... .. . ... : ... .. . ... : ... .. . ... : ... .. . ... : ... .. . ...
ROW 06 : C-4 00 . ... : C-1 00 . ... : ... .. . ... : 0-# 05 . ... : ... .. . ...
ROW 07 : ... .. . ... : ... .. . ... : ... .. . ... : ... .. . ... : ... .. . ...
ROW 08 : G-4 00 . ... : C-1 00 . ... : G-3 07 . ... : 0-# 05 . ... : ... .. . ...
ROW 09 : ... .. . ... : ... .. . ... : ... .. . ... : ... .. . ... : ... .. . ...
ROW 0A : G-4 00 . ... : C-1 00 . ... : ... .. . ... : 0-# 05 . ... : ... .. . ...
ROW 0B : G-4 00 . ... : C-1 00 . ... : ... .. . ... : 0-# 05 . ... : ... .. . ...
ROW 0C : C-4 00 . ... : C-1 00 . ... : G-3 07 . ... : 7-# 05 . ... : ... .. . ...
ROW 0D : ... .. . ... : ... .. . ... : ... .. . ... : ... .. . ... : ... .. . ...
ROW 0E : ... .. . ... : ... .. . ... : ... .. . ... : ... .. . ... : ... .. . ...
ROW 0F : ... .. . ... : ... .. . ... : ... .. . ... : ... .. . ... : ... .. . ...
ROW 10 : G-4 08 . ... : C-1 00 . ... : G-3 07 . ... : 0-# 05 . ... : ... .. . ...
ROW 11 : ... .. . ... : ... .. . ... : ... .. . ... : ... .. . ... : ... .. . ...
ROW 12 : ... .. . ... : ... .. . ... : ... .. . ... : ... .. . ... : ... .. . ...
ROW 13 : C-5 08 . ... : C-1 00 . ... : ... .. . ... : 0-# 05 . ... : ... .. . ...
ROW 14 : G-5 08 . ... : C-1 00 . ... : G-3 07 . ... : 7-# 05 . ... : ... .. . ...
ROW 15 : ... .. . ... : ... .. . ... : ... .. . ... : ... .. . ... : ... .. . ...
ROW 16 : ... .. . ... : C-1 00 . ... : ... .. . ... : 0-# 05 . ... : ... .. . ...
ROW 17 : G-4 08 . ... : ... .. . ... : ... .. . ... : ... .. . ... : ... .. . ...
ROW 18 : C-4 08 . ... : C-1 00 . ... : G-3 07 . ... : 0-# 05 . ... : ... .. . ...
ROW 19 : ... .. . ... : ... .. . ... : ... .. . ... : ... .. . ... : ... .. . ...
ROW 1A : C-4 08 . ... : C-1 00 . ... : ... .. . ... : 0-# 05 . ... : ... .. . ...
ROW 1B : ... .. . ... : C-1 00 . ... : ... .. . ... : 0-# 05 . ... : ... .. . ...
ROW 1C : G-4 08 . ... : C-1 00 . ... : G-3 07 . ... : 7-# 05 . ... : ... .. . ...
ROW 1D : ... .. . ... : ... .. . ... : ... .. . ... : ... .. . ... : ... .. . ...
ROW 1E : ... .. . ... : ... .. . ... : ... .. . ... : ... .. . ... : ... .. . ...
ROW 1F : ... .. . ... : ... .. . ... : ... .. . ... : ... .. . ... : ... .. . ...

PATTERN 01
ROW 00 : G-4 00 . ... : C-1 00 . ... : G-3 07 . ... : 0-# 05 . ... : ... .. . ...
ROW 01 : ... .. . ... : ... .. . ... : ... .. . ... : ... .. . ... : ... .. . ...
ROW 02 : ... .. . ... : ... .. . ... : ... .. . ... : ... .. . ... : ... .. . ...
ROW 03 : G-4 00 . ... : C-1 00 . ... : ... .. . ... : 0-# 05 . ... : ... .. . ...
ROW 04 : C-4 00 . ... : C-1 00 . ... : G-3 07 . ... : 7-# 05 . ... : ... .. . ...
ROW 05 : ... .. . ... : ... .. . ... : ... .. . ... : ... .. . ... : ... .. . ...
ROW 06 : C-4 00 . ... : C-1 00 . ... : ... .. . ... : 0-# 05 . ... : ... .. . ...
ROW 07 : ... .. . ... : ... .. . ... : ... .. . ... : ... .. . ... : ... .. . ...
ROW 08 : G-4 00 . ... : C-1 00 . ... : G-3 07 . ... : 0-# 05 . ... : ... .. . ...
ROW 09 : ... .. . ... : ... .. . ... : ... .. . ... : ... .. . ... : ... .. . ...
ROW 0A : G-4 00 . ... : C-1 00 . ... : ... .. . ... : 0-# 05 . ... : ... .. . ...
ROW 0B : G-4 00 . ... : C-1 00 . ... : ... .. . ... : 0-# 05 . ... : ... .. . ...
ROW 0C : C-4 00 . ... : C-1 00 . ... : G-3 07 . ... : 7-# 05 . ... : ... .. . ...
ROW 0D : ... .. . ... : ... .. . ... : ... .. . ... : ... .. . ... : ... .. . ...
ROW 0E : ... .. . ... : ... .. . ... : ... .. . ... : ... .. . ... : ... .. . ...
ROW 0F : ... .. . ... : ... .. . ... : ... .. . ... : ... .. . ... : ... .. . ...
ROW 10 : ... .. . ... : C-1 00 . ... : G-3 07 . ... : 0-# 05 . ... : ... .. . ...
ROW 11 : ... .. . ... : ... .. . ... : ... .. . ... : ... .. . ... : ... .. . ...
ROW 12 : ... .. . ... : ... .. . ... : ... .. . ... : ... .. . ... : ... .. . ...
ROW 13 : ... .. . ... : C-1 00 . ... : ... .. . ... : 0-# 05 . ... : ... .. . ...
ROW 14 : ... .. . ... : C-1 00 . ... : G-3 07 . ... : 7-# 05 . ... : ... .. . ...
ROW 15 : ... .. . ... : ... .. . ... : ... .. . ... : ... .. . ... : ... .. . ...
ROW 16 : ... .. . ... : C-1 00 . ... : ... .. . ... : 0-# 05 . ... : ... .. . ...
ROW 17 : ... .. . ... : ... .. . ... : ... .. . ... : ... .. . ... : ... .. . ...
ROW 18 : ... .. . ... : C-1 00 . ... : G-3 07 . ... : 0-# 05 . ... : ... .. . ...
ROW 19 : ... .. . ... : ... .. . ... : ... .. . ... : ... .. . ... : ... .. . ...
ROW 1A : ... .. . ... : C-1 00 . ... : ... .. . ... : 0-# 05 . ... : ... .. . ...
ROW 1B : ... .. . ... : C-1 00 . ... : ... .. . ... : 0-# 05 . ... : ... .. . ...
ROW 1C : ... .. . ... : C-1 00 . ... : G-3 07 . ... : 7-# 05 . ... : ... .. . ...
ROW 1D : ... .. . ... : ... .. . ... : ... .. . ... : ... .. . ... : ... .. . ...
ROW 1E : ... .. . ... : ... .. . ... : ... .. . ... : ... .. . ... : ... .. . ...
ROW 1F : ... .. . ... : ... .. . ... : ... .. . ... : ... .. . ... : ... .. . ...

PATTERN 02
ROW 00 : D#1 0F . ... : D#2 0D . ... : C-4 07 . ... : 0-# 05 . ... : ... .. . ...
ROW 01 : ... .. . ... : --- .. . ... : ... .. . ... : ... .. . ... : ... .. . ...
ROW 02 : D#1 0E . ... : D#2 0E . ... : ... .. . ... : ... .. . ... : ... .. . ...
ROW 03 : ... .. . ... : --- .. . ... : ... .. . ... : 0-# 05 . ... : ... .. . ...
ROW 04 : D#1 0F . ... : D#2 0F . ... : C-4 07 . ... : 7-# 05 . ... : ... .. . ...
ROW 05 : ... .. . ... : --- .. . ... : ... .. . ... : ... .. . ... : ... .. . ...
ROW 06 : ... .. . ... : ... .. . ... : ... .. . ... : ... .. . ... : ... .. . ...
ROW 07 : ... .. . ... : ... .. . ... : ... .. . ... : ... .. . ... : ... .. . ...
ROW 08 : F#1 0F . ... : F#2 0D . ... : C-4 07 . ... : 0-# 05 . ... : ... .. . ...
ROW 09 : ... .. . ... : --- .. . ... : ... .. . ... : ... .. . ... : ... .. . ...
ROW 0A : D#1 0E . ... : D#2 0E . ... : ... .. . ... : 0-# 05 . ... : ... .. . ...
ROW 0B : ... .. . ... : --- .. . ... : ... .. . ... : 0-# 05 . ... : ... .. . ...
ROW 0C : D#1 0F . ... : D#2 0F . ... : C-4 07 . ... : 7-# 05 . ... : ... .. . ...
ROW 0D : ... .. . ... : --- .. . ... : ... .. . ... : ... .. . ... : ... .. . ...
ROW 0E : F#1 0F . ... : F#2 0F . ... : ... .. . ... : ... .. . ... : ... .. . ...
ROW 0F : --- .. . ... : ... .. . ... : ... .. . ... : ... .. . ... : ... .. . ...
ROW 10 : G#1 0F . ... : G#2 0D . ... : C-4 07 . ... : 0-# 05 . ... : ... .. . ...
ROW 11 : ... .. . ... : --- .. . ... : ... .. . ... : ... .. . ... : ... .. . ...
ROW 12 : D#1 0E . ... : D#2 0E . ... : ... .. . ... : ... .. . ... : ... .. . ...
ROW 13 : ... .. . ... : ... .. . ... : ... .. . ... : 0-# 05 . ... : ... .. . ...
ROW 14 : D#1 0F . ... : D#2 0F . ... : C-4 07 . ... : 7-# 05 . ... : ... .. . ...
ROW 15 : ... .. . ... : ... .. . ... : ... .. . ... : ... .. . ... : ... .. . ...
ROW 16 : G#1 0F . ... : G#2 0F . ... : ... .. . ... : 0-# 05 . ... : ... .. . ...
ROW 17 : --- .. . ... : ... .. . ... : ... .. . ... : ... .. . ... : ... .. . ...
ROW 18 : A#1 0F . ... : A#2 0D . ... : C-4 07 . ... : 0-# 05 . ... : ... .. . ...
ROW 19 : ... .. . ... : --- .. . ... : ... .. . ... : ... .. . ... : ... .. . ...
ROW 1A : D#1 0E . ... : D#2 0E . ... : ... .. . ... : 0-# 05 . ... : ... .. . ...
ROW 1B : ... .. . ... : ... .. . ... : ... .. . ... : 0-# 05 . ... : ... .. . ...
ROW 1C : D#1 0F . ... : D#2 0F . ... : C-4 07 . ... : 7-# 05 . ... : ... .. . ...
ROW 1D : ... .. . ... : ... .. . ... : ... .. . ... : ... .. . ... : ... .. . ...
ROW 1E : F#1 0F . ... : F#2 0F . ... : ... .. . ... : 7-# 05 . ... : ... .. . ...
ROW 1F : ... .. . ... : ... .. . ... : ... .. . ... : ... .. . ... : ... .. . ...

PATTERN 03
ROW 00 : C#1 0F . ... : C#2 0F . ... : C-4 07 . ... : 0-# 05 . ... : ... .. . ...
ROW 01 : ... .. . ... : --- 0D . ... : ... .. . ... : ... .. . ... : ... .. . ...
ROW 02 : C#1 0F . ... : C#2 0F . ... : G-3 07 . ... : ... .. . ... : ... .. . ...
ROW 03 : ... .. . ... : --- 0D . ... : ... .. . ... : 0-# 05 . ... : ... .. . ...
ROW 04 : C#1 0F . ... : C#2 0F . ... : C-4 07 . ... : 7-# 05 . ... : ... .. . ...
ROW 05 : ... .. . ... : --- .. . ... : ... .. . ... : ... .. . ... : ... .. . ...
ROW 06 : ... .. . ... : ... .. . ... : C-3 07 . ... : ... .. . ... : ... .. . ...
ROW 07 : ... .. . ... : ... .. . ... : ... .. . ... : ... .. . ... : ... .. . ...
ROW 08 : D#1 0F . ... : D#2 0F . ... : C-4 07 . ... : 0-# 05 . ... : ... .. . ...
ROW 09 : ... .. . ... : --- .. . ... : ... .. . ... : ... .. . ... : ... .. . ...
ROW 0A : D#1 0F . ... : D#2 0F . ... : G-3 07 . ... : 0-# 05 . ... : ... .. . ...
ROW 0B : ... .. . ... : --- .. . ... : G-3 07 . ... : 0-# 05 . ... : ... .. . ...
ROW 0C : D#1 0F . ... : D#2 0F . ... : C-4 07 . ... : 7-# 05 . ... : ... .. . ...
ROW 0D : ... .. . ... : --- .. . ... : ... .. . ... : ... .. . ... : ... .. . ...
ROW 0E : D#1 0E . ... : D#2 0E . ... : C-4 07 . ... : ... .. . ... : ... .. . ...
ROW 0F : ... .. . ... : ... .. . ... : ... .. . ... : ... .. . ... : ... .. . ...
ROW 10 : G#1 0F . ... : G#2 0F . ... : C-4 07 . ... : 0-# 05 . ... : ... .. . ...
ROW 11 : ... .. . ... : ... .. . ... : ... .. . ... : ... .. . ... : ... .. . ...
ROW 12 : D#1 0E . ... : --- .. . ... : G-3 07 . ... : ... .. . ... : ... .. . ...
ROW 13 : ... .. . ... : ... .. . ... : G-3 07 . ... : 0-# 05 . ... : ... .. . ...
ROW 14 : D#1 0F . ... : D#2 0F . ... : C-4 07 . ... : 7-# 05 . ... : ... .. . ...
ROW 15 : ... .. . ... : --- .. . ... : ... .. . ... : ... .. . ... : ... .. . ...
ROW 16 : F#1 0F . ... : F#2 0F . ... : C-4 07 . ... : 0-# 05 . ... : ... .. . ...
ROW 17 : ... .. . ... : --- .. . ... : ... .. . ... : ... .. . ... : ... .. . ...
ROW 18 : G#1 0F . ... : G#2 0F . ... : C-4 07 . ... : 0-# 05 . ... : ... .. . ...
ROW 19 : ... .. . ... : ... .. . ... : ... .. . ... : ... .. . ... : ... .. . ...
ROW 1A : D#1 0E . ... : --- 0E . ... : G-3 07 . ... : 0-# 05 . ... : ... .. . ...
ROW 1B : ... .. . ... : ... .. . ... : G-3 07 . ... : 0-# 05 . ... : ... .. . ...
ROW 1C : D#1 0F . ... : D#2 0F . ... : C-4 07 . ... : 7-# 05 . ... : ... .. . ...
ROW 1D : ... .. . ... : --- .. . ... : ... .. . ... : ... .. . ... : ... .. . ...
ROW 1E : ... .. . ... : ... .. . ... : C-3 07 . ... : 7-# 05 . ... : ... .. . ...
ROW 1F : ... .. . ... : ... .. . ... : ... .. . ... : ... .. . ... : ... .. . ...

PATTERN 04
ROW 00 : D#1 0F . ... : C-2 00 . ... : C-4 07 . ... : 0-# 05 . ... : ... .. . ...
ROW 01 : ... .. . ... : ... .. . ... : ... .. . ... : ... .. . ... : ... .. . ...
ROW 02 : ... .. . ... : ... .. . ... : ... .. . ... : ... .. . ... : ... .. . ...
ROW 03 : ... .. . ... : C-2 00 . ... : ... .. . ... : 0-# 05 . ... : ... .. . ...
ROW 04 : D#1 0F . ... : C-2 00 . ... : C-4 07 . ... : 7-# 05 . ... : ... .. . ...
ROW 05 : ... .. . ... : ... .. . ... : ... .. . ... : ... .. . ... : ... .. . ...
ROW 06 : ... .. . ... : ... .. . ... : ... .. . ... : ... .. . ... : ... .. . ...
ROW 07 : ... .. . ... : ... .. . ... : ... .. . ... : ... .. . ... : ... .. . ...
ROW 08 : D#1 0F . ... : C-2 00 . ... : C-4 07 . ... : 0-# 05 . ... : ... .. . ...
ROW 09 : ... .. . ... : ... .. . ... : ... .. . ... : ... .. . ... : ... .. . ...
ROW 0A : D#1 0E . ... : C-2 00 . ... : C-4 07 . ... : 0-# 05 . ... : ... .. . ...
ROW 0B : ... .. . ... : C-2 00 . ... : C-4 07 . ... : 0-# 05 . ... : ... .. . ...
ROW 0C : D#1 0F . ... : C-2 00 . ... : C-4 07 . ... : 7-# 05 . ... : ... .. . ...
ROW 0D : ... .. . ... : ... .. . ... : ... .. . ... : ... .. . ... : ... .. . ...
ROW 0E : ... .. . ... : ... .. . ... : ... .. . ... : ... .. . ... : ... .. . ...
ROW 0F : ... .. . ... : ... .. . ... : ... .. . ... : ... .. . ... : ... .. . ...
ROW 10 : D#1 0F . ... : C-2 00 . ... : C-4 07 . ... : 0-# 05 . ... : ... .. . ...
ROW 11 : ... .. . ... : ... .. . ... : ... .. . ... : ... .. . ... : ... .. . ...
ROW 12 : D#1 0E . ... : ... .. . ... : C-4 07 . ... : ... .. . ... : ... .. . ...
ROW 13 : ... .. . ... : C-2 00 . ... : C-4 07 . ... : 0-# 05 . ... : ... .. . ...
ROW 14 : D#1 0F . ... : C-2 00 . ... : C-4 07 . ... : 7-# 05 . ... : ... .. . ...
ROW 15 : ... .. . ... : ... .. . ... : ... .. . ... : ... .. . ... : ... .. . ...
ROW 16 : D#1 0E . ... : C-2 00 . ... : C-4 07 . ... : 0-# 05 . ... : ... .. . ...
ROW 17 : ... .. . ... : ... .. . ... : ... .. . ... : ... .. . ... : ... .. . ...
ROW 18 : D#1 0F . ... : C-2 00 . ... : C-4 07 . ... : 0-# 05 . ... : ... .. . ...
ROW 19 : ... .. . ... : ... .. . ... : ... .. . ... : ... .. . ... : ... .. . ...
ROW 1A : D#1 0E . ... : C-2 00 . ... : C-4 07 . ... : 0-# 05 . ... : ... .. . ...
ROW 1B : ... .. . ... : C-2 00 . ... : C-4 07 . ... : 0-# 05 . ... : ... .. . ...
ROW 1C : D#1 0F . ... : C-2 00 . ... : C-4 07 . ... : 7-# 05 . ... : ... .. . ...
ROW 1D : ... .. . ... : ... .. . ... : ... .. . ... : ... .. . ... : ... .. . ...
ROW 1E : F#1 0F . ... : F#2 0F . ... : C-4 07 . ... : 7-# 05 . ... : ... .. . ...
ROW 1F : ... .. . ... : ... .. . ... : ... .. . ... : ... .. . ... : ... .. . ...

PATTERN 05
ROW 00 : F#1 0F . ... : F#2 0F . ... : C-4 07 . ... : 0-# 05 . ... : ... .. . ...
ROW 01 : ... .. . ... : ... .. . ... : ... .. . ... : ... .. . ... : ... .. . ...
ROW 02 : D#1 0E . ... : --- 0E . ... : ... .. . ... : ... .. . ... : ... .. . ...
ROW 03 : ... .. . ... : ... .. . ... : ... .. . ... : 0-# 05 . ... : ... .. . ...
ROW 04 : D#1 0F . ... : D#2 0F . ... : C-4 07 . ... : 7-# 05 . ... : ... .. . ...
ROW 05 : ... .. . ... : ... .. . ... : ... .. . ... : ... .. . ... : ... .. . ...
ROW 06 : D#1 0E . ... : --- 0E . ... : ... .. . ... : ... .. . ... : ... .. . ...
ROW 07 : ... .. . ... : ... .. . ... : ... .. . ... : ... .. . ... : ... .. . ...
ROW 08 : A#1 0F . ... : A#2 0F . ... : C-4 07 . ... : 0-# 05 . ... : ... .. . ...
ROW 09 : ... .. . ... : ... .. . ... : ... .. . ... : ... .. . ... : ... .. . ...
ROW 0A : D#1 0E . ... : --- 0E . ... : C-4 07 . ... : 0-# 05 . ... : ... .. . ...
ROW 0B : ... .. . ... : ... .. . ... : C-4 07 . ... : 0-# 05 . ... : ... .. . ...
ROW 0C : D#1 0F . ... : D#2 0F . ... : C-4 07 . ... : 7-# 05 . ... : ... .. . ...
ROW 0D : ... .. . ... : ... .. . ... : ... .. . ... : ... .. . ... : ... .. . ...
ROW 0E : C#1 0E . ... : C#2 0E . ... : ... .. . ... : ... .. . ... : ... .. . ...
ROW 0F : ... .. . ... : ... .. . ... : ... .. . ... : ... .. . ... : ... .. . ...
ROW 10 : D#1 0F . ... : D#2 0F . ... : C-4 07 . ... : 0-# 05 . ... : ... .. . ...
ROW 11 : ... .. . ... : ... .. . ... : ... .. . ... : ... .. . ... : ... .. . ...
ROW 12 : F#1 0E . ... : F#2 0E . ... : C-4 07 . ... : ... .. . ... : ... .. . ...
ROW 13 : ... .. . ... : ... .. . ... : C-4 07 . ... : 0-# 05 . ... : ... .. . ...
ROW 14 : D#1 0F . ... : D#2 0F . ... : C-4 07 . ... : 7-# 05 . ... : ... .. . ...
ROW 15 : ... .. . ... : ... .. . ... : ... .. . ... : ... .. . ... : ... .. . ...
ROW 16 : C#1 0E . ... : C#2 0E . ... : C-4 07 . ... : 0-# 05 . ... : ... .. . ...
ROW 17 : ... .. . ... : ... .. . ... : ... .. . ... : ... .. . ... : ... .. . ...
ROW 18 : F#1 0F . ... : F#2 0F . ... : C-4 07 . ... : 0-# 05 . ... : ... .. . ...
ROW 19 : ... .. . ... : ... .. . ... : ... .. . ... : ... .. . ... : ... .. . ...
ROW 1A : G#1 0E . ... : --- 0E . ... : C-4 07 . ... : 0-# 05 . ... : ... .. . ...
ROW 1B : ... .. . ... : ... .. . ... : C-4 07 . ... : 0-# 05 . ... : ... .. . ...
ROW 1C : D#1 0F . ... : D#2 0F . ... : C-4 07 . ... : 7-# 05 . ... : ... .. . ...
ROW 1D : ... .. . ... : ... .. . ... : ... .. . ... : ... .. . ... : ... .. . ...
ROW 1E : ... .. . ... : --- .. . ... : C-4 07 . ... : 7-# 05 . ... : ... .. . ...
ROW 1F : ... .. . ... : ... .. . ... : ... .. . ... : ... .. . ... : ... .. . ...

PATTERN 06
ROW 00 : D#1 0F . ... : C-2 00 . ... : C-4 07 . ... : 0-# 05 . ... : ... .. . ...
ROW 01 : ... .. . ... : --- .. . ... : ... .. . ... : ... .. . ... : ... .. . ...
ROW 02 : D#1 0E . ... : ... .. . ... : G-3 07 . ... : ... .. . ... : ... .. . ...
ROW 03 : ... .. . ... : C-2 00 . ... : ... .. . ... : 0-# 05 . ... : ... .. . ...
ROW 04 : D#1 0F . ... : C-2 00 . ... : C-4 07 . ... : 7-# 05 . ... : ... .. . ...
ROW 05 : ... .. . ... : --- .. . ... : ... .. . ... : ... .. . ... : ... .. . ...
ROW 06 : ... .. . ... : ... .. . ... : C-3 07 . ... : ... .. . ... : ... .. . ...
ROW 07 : ... .. . ... : ... .. . ... : ... .. . ... : ... .. . ... : ... .. . ...
ROW 08 : F#1 0F . ... : C-2 00 . ... : C-4 07 . ... : 0-# 05 . ... : ... .. . ...
ROW 09 : ... .. . ... : --- .. . ... : ... .. . ... : ... .. . ... : ... .. . ...
ROW 0A : D#1 0E . ... : C-2 00 . ... : G-3 07 . ... : 0-# 05 . ... : ... .. . ...
ROW 0B : ... .. . ... : C-2 00 . ... : G-3 07 . ... : 0-# 05 . ... : ... .. . ...
ROW 0C : D#1 0F . ... : C-2 00 . ... : C-4 07 . ... : 7-# 05 . ... : ... .. . ...
ROW 0D : ... .. . ... : --- .. . ... : ... .. . ... : ... .. . ... : ... .. . ...
ROW 0E : F#1 0F . ... : ... .. . ... : C-4 07 . ... : ... .. . ... : ... .. . ...
ROW 0F : ... .. . ... : ... .. . ... : ... .. . ... : ... .. . ... : ... .. . ...
ROW 10 : G#1 0F . ... : C-2 00 . ... : C-4 07 . ... : 0-# 05 . ... : ... .. . ...
ROW 11 : ... .. . ... : --- .. . ... : ... .. . ... : ... .. . ... : ... .. . ...
ROW 12 : D#1 0E . ... : ... .. . ... : G-3 07 . ... : ... .. . ... : ... .. . ...
ROW 13 : ... .. . ... : C-2 00 . ... : G-3 07 . ... : 0-# 05 . ... : ... .. . ...
ROW 14 : D#1 0F . ... : C-2 00 . ... : C-4 07 . ... : 7-# 05 . ... : ... .. . ...
ROW 15 : ... .. . ... : --- .. . ... : ... .. . ... : ... .. . ... : ... .. . ...
ROW 16 : G#1 0F . ... : C-2 00 . ... : C-4 07 . ... : 0-# 05 . ... : ... .. . ...
ROW 17 : ... .. . ... : --- .. . ... : ... .. . ... : ... .. . ... : ... .. . ...
ROW 18 : A#1 0F . ... : C-2 00 . ... : C-4 07 . ... : 0-# 05 . ... : ... .. . ...
ROW 19 : ... .. . ... : --- .. . ... : ... .. . ... : ... .. . ... : ... .. . ...
ROW 1A : D#1 0E . ... : C-2 00 . ... : G-3 07 . ... : 0-# 05 . ... : ... .. . ...
ROW 1B : ... .. . ... : C-2 00 . ... : G-3 07 . ... : 0-# 05 . ... : ... .. . ...
ROW 1C : D#1 0F . ... : C-2 00 . ... : C-4 07 . ... : 7-# 05 . ... : ... .. . ...
ROW 1D : ... .. . ... : --- .. . ... : ... .. . ... : ... .. . ... : ... .. . ...
ROW 1E : F#1 0F . ... : ... .. . ... : C-3 07 . ... : 7-# 05 . ... : ... .. . ...
ROW 1F : ... .. . ... : ... .. . ... : ... .. . ... : ... .. . ... : ... .. . ...

PATTERN 07
ROW 00 : C#1 0F . ... : C#2 0F . ... : C-4 07 . ... : 0-# 05 . ... : ... .. . ...
ROW 01 : ... .. . ... : ... .. . ... : ... .. . ... : ... .. . ... : ... .. . ...
ROW 02 : ... .. . ... : ... .. . ... : G-3 07 . ... : ... .. . ... : ... .. . ...
ROW 03 : ... .. . ... : ... .. . ... : ... .. . ... : 0-# 05 . ... : ... .. . ...
ROW 04 : C#1 0F . ... : C#2 0F . ... : C-4 07 . ... : 7-# 05 . ... : ... .. . ...
ROW 05 : ... .. . ... : ... .. . ... : ... .. . ... : ... .. . ... : ... .. . ...
ROW 06 : ... .. . ... : ... .. . ... : C-3 07 . ... : ... .. . ... : ... .. . ...
ROW 07 : ... .. . ... : ... .. . ... : ... .. . ... : ... .. . ... : ... .. . ...
ROW 08 : D#1 0F . ... : D#2 0F . ... : C-4 07 . ... : 0-# 05 . ... : ... .. . ...
ROW 09 : ... .. . ... : ... .. . ... : ... .. . ... : ... .. . ... : ... .. . ...
ROW 0A : ... .. . ... : ... .. . ... : G-3 07 . ... : 0-# 05 . ... : ... .. . ...
ROW 0B : ... .. . ... : ... .. . ... : G-3 07 . ... : 0-# 05 . ... : ... .. . ...
ROW 0C : D#1 0F . ... : D#2 0F . ... : C-4 07 . ... : 7-# 05 . ... : ... .. . ...
ROW 0D : ... .. . ... : ... .. . ... : ... .. . ... : ... .. . ... : ... .. . ...
ROW 0E : D#1 0E . ... : D#2 0E . ... : C-4 07 . ... : ... .. . ... : ... .. . ...
ROW 0F : ... .. . ... : --- .. . ... : ... .. . ... : ... .. . ... : ... .. . ...
ROW 10 : G#1 0F . ... : G#2 0F . ... : C-4 07 . ... : 0-# 05 . ... : ... .. . ...
ROW 11 : ... .. . ... : ... .. . ... : ... .. . ... : ... .. . ... : ... .. . ...
ROW 12 : D#1 0E . ... : D#2 0E . ... : G-3 07 . ... : ... .. . ... : ... .. . ...
ROW 13 : ... .. . ... : --- .. . ... : G-3 07 . ... : 0-# 05 . ... : ... .. . ...
ROW 14 : D#1 0F . ... : D#2 0F . ... : C-4 07 . ... : 7-# 05 . ... : ... .. . ...
ROW 15 : ... .. . ... : ... .. . ... : ... .. . ... : ... .. . ... : ... .. . ...
ROW 16 : F#1 0F . ... : F#2 0F . ... : C-4 07 . ... : 0-# 05 . ... : ... .. . ...
ROW 17 : ... .. . ... : --- .. . ... : ... .. . ... : ... .. . ... : ... .. . ...
ROW 18 : G#1 0F . ... : G#2 0F . ... : C-4 07 . ... : 0-# 05 . ... : ... .. . ...
ROW 19 : ... .. . ... : ... .. . ... : ... .. . ... : ... .. . ... : ... .. . ...
ROW 1A : D#1 0E . ... : D#2 0E . ... : G-3 07 . ... : 0-# 05 . ... : ... .. . ...
ROW 1B : ... .. . ... : --- .. . ... : G-3 07 . ... : 0-# 05 . ... : ... .. . ...
ROW 1C : D#1 0F . ... : D#2 0F . ... : C-4 07 . ... : 7-# 05 . ... : ... .. . ...
ROW 1D : ... .. . ... : ... .. . ... : ... .. . ... : ... .. . ... : ... .. . ...
ROW 1E : F#1 0F . ... : F#1 0F . ... : C-3 07 . ... : 7-# 05 . ... : ... .. . ...
ROW 1F : ... .. . ... : --- .. . ... : ... .. . ... : ... .. . ... : ... .. . ...

TRACK  32   4 152 "results"
COLUMNS : 1 1 1 1 1

ORDER 00 : 01 01 01 01 01
ORDER 01 : 02 02 02 02 02
ORDER 02 : 03 03 03 03 03
ORDER 03 : 04 04 04 04 04
ORDER 04 : 07 07 07 07 05
ORDER 05 : 08 08 08 08 00
ORDER 06 : 0A 0A 0A 0A 06
ORDER 07 : 0B 0B 0B 0B 07
ORDER 08 : 0C 0C 0C 0C 08
ORDER 09 : 0D 0D 0D 0D 09
ORDER 0A : 0E 0E 0E 0E 0A
ORDER 0B : 0F 0F 0F 0F 0B
ORDER 0C : 10 10 10 10 0C
ORDER 0D : 11 11 11 11 0D

PATTERN 00
ROW 00 : D#3 02 . ... : G#1 0E . ... : D#3 07 . ... : A-# 06 . ... : ... .. . ...
ROW 01 : ... .. . ... : ... .. . ... : D#2 01 . ... : ... .. . ... : ... .. . ...
ROW 02 : ... .. . ... : G#1 0E . ... : C#2 01 . ... : ... .. . ... : ... .. . ...
ROW 03 : ... .. . ... : ... .. . ... : D#2 01 . ... : ... .. . ... : ... .. . ...
ROW 04 : C#3 02 . ... : A#1 0E . ... : D#3 07 . ... : A-# 06 . ... : ... .. . ...
ROW 05 : ... .. . ... : A#1 0E . ... : F#2 01 . ... : ... .. . ... : ... .. . ...
ROW 06 : D#3 02 . ... : A#1 0E . ... : C#2 01 . ... : ... .. . ... : ... .. . ...
ROW 07 : ... .. . ... : A#1 0E . ... : F#2 01 . ... : ... .. . ... : ... .. . ...
ROW 08 : F#3 02 . ... : C#2 0E . ... : D#3 07 . ... : A-# 06 . ... : ... .. . ...
ROW 09 : ... .. . ... : ... .. . ... : G#2 01 . ... : ... .. . ... : ... .. . ...
ROW 0A : G#3 02 . ... : C#2 0E . ... : F#2 01 . ... : ... .. . ... : ... .. . ...
ROW 0B : ... .. . ... : ... .. . ... : G#2 01 . ... : ... .. . ... : ... .. . ...
ROW 0C : F#3 02 . ... : D#2 0E . ... : D#3 07 . ... : A-# 06 . ... : ... .. . ...
ROW 0D : ... .. . ... : ... .. . ... : F#2 01 . ... : ... .. . ... : ... .. . ...
ROW 0E : D#3 02 . ... : D#2 0E . ... : D#3 07 . ... : ... .. . ... : ... .. . ...
ROW 0F : ... .. . ... : ... .. . ... : D#3 07 . ... : ... .. . ... : ... .. . ...
ROW 10 : D#3 02 . ... : G#1 0E . ... : D#3 07 . ... : A-# 06 . ... : ... .. . ...
ROW 11 : ... .. . ... : ... .. . ... : D#2 01 . ... : ... .. . ... : ... .. . ...
ROW 12 : ... .. . ... : G#1 0E . ... : C#2 01 . ... : ... .. . ... : ... .. . ...
ROW 13 : ... .. . ... : ... .. . ... : D#2 01 . ... : ... .. . ... : ... .. . ...
ROW 14 : C#3 02 . ... : A#1 0E . ... : D#3 07 . ... : A-# 06 . ... : ... .. . ...
ROW 15 : ... .. . ... : A#1 0E . ... : F#2 01 . ... : ... .. . ... : ... .. . ...
ROW 16 : D#3 02 . ... : A#1 0E . ... : C#2 01 . ... : ... .. . ... : ... .. . ...
ROW 17 : ... .. . ... : A#1 0E . ... : F#2 01 . ... : ... .. . ... : ... .. . ...
ROW 18 : F#3 02 . ... : C#2 0E . ... : D#3 07 . ... : A-# 06 . ... : ... .. . ...
ROW 19 : ... .. . ... : ... .. . ... : G#2 01 . ... : ... .. . ... : ... .. . ...
ROW 1A : G#3 02 . ... : C#2 0E . ... : F#2 01 . ... : ... .. . ... : ... .. . ...
ROW 1B : ... .. . ... : ... .. . ... : G#2 01 . ... : ... .. . ... : ... .. . ...
ROW 1C : F#3 02 . ... : D#2 0E . ... : D#3 07 . ... : A-# 06 . ... : ... .. . ...
ROW 1D : ... .. . ... : ... .. . ... : F#2 01 . ... : ... .. . ... : ... .. . ...
ROW 1E : D#3 02 . ... : D#2 0E . ... : D#3 07 . ... : ... .. . ... : ... .. . ...
ROW 1F : ... .. . ... : ... .. . ... : D#3 07 . ... : ... .. . ... : ... .. . ...

PATTERN 01
ROW 00 : --- .. . ... : G-3 11 . ... : G-3 07 . ... : C-# 05 . ... : ... .. . ...
ROW 01 : ... .. . ... : ... .. . ... : ... .. . ... : ... .. . ... : ... .. . ...
ROW 02 : ... .. . ... : F-3 11 . ... : ... .. . ... : ... .. . ... : ... .. . ...
ROW 03 : ... .. . ... : ... .. . ... : ... .. . ... : ... .. . ... : ... .. . ...
ROW 04 : ... .. . ... : E-3 11 . ... : ... .. . ... : ... .. . ... : ... .. . ...
ROW 05 : ... .. . ... : ... .. . ... : ... .. . ... : ... .. . ... : ... .. . ...
ROW 06 : ... .. . ... : F-3 11 . ... : G-3 07 . ... : F-# 05 . ... : ... .. . ...
ROW 07 : ... .. . ... : ... .. . ... : ... .. . ... : ... .. . ... : ... .. . ...
ROW 08 : ... .. . ... : C-3 11 . ... : G-3 07 . ... : C-# 05 . ... : ... .. . ...
ROW 09 : ... .. . ... : ... .. . ... : ... .. . ... : ... .. . ... : ... .. . ...
ROW 0A : ... .. . ... : ... .. . ... : ... .. . ... : ... .. . ... : ... .. . ...
ROW 0B : ... .. . ... : ... .. . ... : ... .. . ... : ... .. . ... : ... .. . ...
ROW 0C : ... .. . ... : C-3 12 . ... : G-3 07 . ... : 3-# 06 . ... : ... .. . ...
ROW 0D : ... .. . ... : ... .. . ... : ... .. . ... : ... .. . ... : ... .. . ...
ROW 0E : ... .. . ... : ... .. . ... : ... .. . ... : ... .. . ... : ... .. . ...
ROW 0F : ... .. . ... : ... .. . ... : ... .. . ... : ... .. . ... : ... .. . ...
ROW 10 : ... .. . ... : F-3 11 . ... : G-3 07 . ... : C-# 05 . ... : ... .. . ...
ROW 11 : ... .. . ... : ... .. . ... : ... .. . ... : ... .. . ... : ... .. . ...
ROW 12 : ... .. . ... : G-3 11 . ... : ... .. . ... : ... .. . ... : ... .. . ...
ROW 13 : ... .. . ... : ... .. . ... : ... .. . ... : ... .. . ... : ... .. . ...
ROW 14 : ... .. . ... : A-3 11 . ... : ... .. . ... : ... .. . ... : ... .. . ...
ROW 15 : ... .. . ... : ... .. . ... : ... .. . ... : ... .. . ... : ... .. . ...
ROW 16 : ... .. . ... : G-3 11 . ... : G-3 07 . ... : F-# 05 . ... : ... .. . ...
ROW 17 : ... .. . ... : ... .. . ... : ... .. . ... : ... .. . ... : ... .. . ...
ROW 18 : ... .. . ... : F-3 11 . ... : G-3 07 . ... : C-# 05 . ... : ... .. . ...
ROW 19 : ... .. . ... : ... .. . ... : ... .. . ... : ... .. . ... : ... .. . ...
ROW 1A : ... .. . ... : G-3 11 . ... : ... .. . ... : ... .. . ... : ... .. . ...
ROW 1B : ... .. . ... : ... .. . ... : ... .. . ... : ... .. . ... : ... .. . ...
ROW 1C : ... .. . ... : F-3 11 . ... : G-3 07 . ... : 3-# 06 . ... : ... .. . ...
ROW 1D : ... .. . ... : ... .. . ... : ... .. . ... : ... .. . ... : ... .. . ...
ROW 1E : ... .. . ... : E-3 11 . ... : ... .. . ... : ... .. . ... : ... .. . ...
ROW 1F : ... .. . ... : ... .. . ... : ... .. . ... : ... .. . ... : ... .. . ...

PATTERN 02
ROW 00 : B-2 12 . ... : G-3 11 . ... : G-3 07 . ... : C-# 05 . ... : ... .. . ...
ROW 01 : ... .. . ... : ... .. . ... : ... .. . ... : ... .. . ... : ... .. . ...
ROW 02 : C-3 11 . ... : A-3 11 . ... : ... .. . ... : ... .. . ... : ... .. . ...
ROW 03 : ... .. . ... : ... .. . ... : ... .. . ... : ... .. . ... : ... .. . ...
ROW 04 : D-3 11 . ... : B-3 11 . ... : ... .. . ... : ... .. . ... : ... .. . ...
ROW 05 : ... .. . ... : ... .. . ... : ... .. . ... : ... .. . ... : ... .. . ...
ROW 06 : C-3 11 . ... : A-3 11 . ... : G-3 07 . ... : F-# 05 . ... : ... .. . ...
ROW 07 : ... .. . ... : ... .. . ... : ... .. . ... : ... .. . ... : ... .. . ...
ROW 08 : D-3 11 . ... : B-3 11 . ... : G-3 07 . ... : C-# 05 . ... : ... .. . ...
ROW 09 : ... .. . ... : ... .. . ... : ... .. . ... : ... .. . ... : ... .. . ...
ROW 0A : E-3 11 . ... : C-4 11 . ... : ... .. . ... : ... .. . ... : ... .. . ...
ROW 0B : ... .. . ... : ... .. . ... : ... .. . ... : ... .. . ... : ... .. . ...
ROW 0C : F-3 11 . ... : D-4 11 . ... : G-3 07 . ... : 3-# 06 . ... : ... .. . ...
ROW 0D : ... .. . ... : ... .. . ... : ... .. . ... : ... .. . ... : ... .. . ...
ROW 0E : G-3 11 . ... : E-4 11 . ... : ... .. . ... : ... .. . ... : ... .. . ...
ROW 0F : ... .. . ... : ... .. . ... : ... .. . ... : ... .. . ... : ... .. . ...
ROW 10 : F-3 11 . ... : D-4 11 . ... : G-3 07 . ... : C-# 05 . ... : ... .. . ...
ROW 11 : ... .. . ... : ... .. . ... : ... .. . ... : ... .. . ... : ... .. . ...
ROW 12 : E-3 11 . ... : C-4 11 . ... : ... .. . ... : ... .. . ... : ... .. . ...
ROW 13 : ... .. . ... : ... .. . ... : ... .. . ... : ... .. . ... : ... .. . ...
ROW 14 : D-3 11 . ... : B-3 11 . ... : ... .. . ... : ... .. . ... : ... .. . ...
ROW 15 : ... .. . ... : ... .. . ... : ... .. . ... : ... .. . ... : ... .. . ...
ROW 16 : E-3 11 . ... : C-4 11 . ... : G-3 07 . ... : F-# 05 . ... : ... .. . ...
ROW 17 : ... .. . ... : ... .. . ... : ... .. . ... : ... .. . ... : ... .. . ...
ROW 18 : D-3 11 . ... : B-3 11 . ... : G-3 07 . ... : C-# 05 . ... : ... .. . ...
ROW 19 : ... .. . ... : ... .. . ... : ... .. . ... : ... .. . ... : ... .. . ...
ROW 1A : C-3 11 . ... : A-3 11 . ... : ... .. . ... : ... .. . ... : ... .. . ...
ROW 1B : ... .. . ... : ... .. . ... : ... .. . ... : ... .. . ... : ... .. . ...
ROW 1C : ... .. . ... : ... .. . ... : G-3 07 . ... : 3-# 06 . ... : ... .. . ...
ROW 1D : ... .. . ... : ... .. . ... : ... .. . ... : ... .. . ... : ... .. . ...
ROW 1E : --- .. . ... : --- 12 . ... : ... .. . ... : ... .. . ... : ... .. . ...
ROW 1F : ... .. . ... : ... .. . ... : ... .. . ... : ... .. . ... : ... .. . ...

PATTERN 03
ROW 00 : B-2 11 . ... : G-3 11 . ... : G-3 07 . ... : C-# 05 . ... : ... .. . ...
ROW 01 : ... .. . ... : ... .. . ... : ... .. . ... : ... .. . ... : ... .. . ...
ROW 02 : ... .. . ... : ... .. . ... : ... .. . ... : ... .. . ... : ... .. . ...
ROW 03 : ... .. . ... : ... .. . ... : ... .. . ... : ... .. . ... : ... .. . ...
ROW 04 : B-2 11 . ... : G-3 12 . ... : ... .. . ... : ... .. . ... : ... .. . ...
ROW 05 : ... .. . ... : ... .. . ... : ... .. . ... : ... .. . ... : ... .. . ...
ROW 06 : --- .. . ... : ... .. . ... : G-3 07 . ... : F-# 05 . ... : ... .. . ...
ROW 07 : ... .. . ... : ... .. . ... : ... .. . ... : ... .. . ... : ... .. . ...
ROW 08 : A-2 11 . ... : F-3 11 . ... : G-3 07 . ... : C-# 05 . ... : ... .. . ...
ROW 09 : ... .. . ... : ... .. . ... : ... .. . ... : ... .. . ... : ... .. . ...
ROW 0A : B-2 11 . ... : G-3 11 . ... : ... .. . ... : ... .. . ... : ... .. . ...
ROW 0B : ... .. . ... : ... .. . ... : ... .. . ... : ... .. . ... : ... .. . ...
ROW 0C : C-3 11 . ... : A-3 11 . ... : G-3 07 . ... : 3-# 06 . ... : ... .. . ...
ROW 0D : ... .. . ... : ... .. . ... : ... .. . ... : ... .. . ... : ... .. . ...
ROW 0E : ... .. . ... : ... .. . ... : ... .. . ... : ... .. . ... : ... .. . ...
ROW 0F : ... .. . ... : ... .. . ... : ... .. . ... : ... .. . ... : ... .. . ...
ROW 10 : C-3 11 . ... : F-3 12 . ... : G-3 07 . ... : C-# 05 . ... : ... .. . ...
ROW 11 : ... .. . ... : ... .. . ... : ... .. . ... : ... .. . ... : ... .. . ...
ROW 12 : --- .. . ... : ... .. . ... : ... .. . ... : ... .. . ... : ... .. . ...
ROW 13 : ... .. . ... : ... .. . ... : ... .. . ... : ... .. . ... : ... .. . ...
ROW 14 : C-3 11 . ... : A-3 11 . ... : ... .. . ... : ... .. . ... : ... .. . ...
ROW 15 : ... .. . ... : ... .. . ... : ... .. . ... : ... .. . ... : ... .. . ...
ROW 16 : D-3 11 . ... : B-3 11 . ... : G-3 07 . ... : F-# 05 . ... : ... .. . ...
ROW 17 : ... .. . ... : ... .. . ... : ... .. . ... : ... .. . ... : ... .. . ...
ROW 18 : E-3 11 . ... : C-4 11 . ... : G-3 07 . ... : C-# 05 . ... : ... .. . ...
ROW 19 : ... .. . ... : ... .. . ... : ... .. . ... : ... .. . ... : ... .. . ...
ROW 1A : ... .. . ... : ... .. . ... : ... .. . ... : ... .. . ... : ... .. . ...
ROW 1B : ... .. . ... : ... .. . ... : ... .. . ... : ... .. . ... : ... .. . ...
ROW 1C : --- .. . ... : F-3 12 . ... : G-3 07 . ... : 3-# 06 . ... : ... .. . ...
ROW 1D : ... .. . ... : ... .. . ... : ... .. . ... : ... .. . ... : ... .. . ...
ROW 1E : ... .. . ... : ... .. . ... : ... .. . ... : ... .. . ... : ... .. . ...
ROW 1F : ... .. . ... : ... .. . ... : ... .. . ... : ... .. . ... : ... .. . ...

PATTERN 04
ROW 00 : D-3 11 . ... : B-3 11 . ... : G-3 07 . ... : C-# 05 . ... : ... .. . ...
ROW 01 : ... .. . ... : ... .. . ... : ... .. . ... : ... .. . ... : ... .. . ...
ROW 02 : C-3 11 . ... : A-3 11 . ... : ... .. . ... : ... .. . ... : ... .. . ...
ROW 03 : ... .. . ... : ... .. . ... : ... .. . ... : ... .. . ... : ... .. . ...
ROW 04 : D-3 11 . ... : B-3 11 . ... : ... .. . ... : ... .. . ... : ... .. . ...
ROW 05 : ... .. . ... : ... .. . ... : ... .. . ... : ... .. . ... : ... .. . ...
ROW 06 : ... .. . ... : ... .. . ... : G-3 07 . ... : F-# 05 . ... : ... .. . ...
ROW 07 : ... .. . ... : ... .. . ... : ... .. . ... : ... .. . ... : ... .. . ...
ROW 08 : B-2 11 . ... : G-3 11 . ... : G-3 07 . ... : C-# 05 . ... : ... .. . ...
ROW 09 : ... .. . ... : ... .. . ... : ... .. . ... : ... .. . ... : ... .. . ...
ROW 0A : --- .. . ... : --- .. . ... : ... .. . ... : ... .. . ... : ... .. . ...
ROW 0B : ... .. . ... : ... .. . ... : ... .. . ... : ... .. . ... : ... .. . ...
ROW 0C : B-2 11 . ... : G-3 11 . ... : G-3 07 . ... : 3-# 06 . ... : ... .. . ...
ROW 0D : ... .. . ... : ... .. . ... : ... .. . ... : ... .. . ... : ... .. . ...
ROW 0E : ... .. . ... : ... .. . ... : ... .. . ... : ... .. . ... : ... .. . ...
ROW 0F : ... .. . ... : ... .. . ... : ... .. . ... : ... .. . ... : ... .. . ...
ROW 10 : F-3 11 . ... : D-4 11 . ... : G-3 07 . ... : C-# 05 . ... : ... .. . ...
ROW 11 : ... .. . ... : ... .. . ... : ... .. . ... : ... .. . ... : ... .. . ...
ROW 12 : ... .. . ... : ... .. . ... : ... .. . ... : ... .. . ... : ... .. . ...
ROW 13 : ... .. . ... : ... .. . ... : ... .. . ... : ... .. . ... : ... .. . ...
ROW 14 : ... .. . ... : ... .. . ... : ... .. . ... : ... .. . ... : ... .. . ...
ROW 15 : ... .. . ... : ... .. . ... : ... .. . ... : ... .. . ... : ... .. . ...
ROW 16 : ... .. . ... : ... .. . ... : G-3 07 . ... : F-# 05 . ... : ... .. . ...
ROW 17 : ... .. . ... : ... .. . ... : ... .. . ... : ... .. . ... : ... .. . ...
ROW 18 : G-3 11 . ... : ... .. . ... : G-3 07 . ... : C-# 05 . ... : ... .. . ...
ROW 19 : ... .. . ... : ... .. . ... : ... .. . ... : ... .. . ... : ... .. . ...
ROW 1A : ... .. . ... : ... .. . ... : ... .. . ... : ... .. . ... : ... .. . ...
ROW 1B : ... .. . ... : ... .. . ... : ... .. . ... : ... .. . ... : ... .. . ...
ROW 1C : ... .. . ... : ... .. . ... : G-3 07 . ... : 3-# 06 . ... : ... .. . ...
ROW 1D : ... .. . ... : ... .. . ... : ... .. . ... : ... .. . ... : ... .. . ...
ROW 1E : ... .. . ... : ... .. . ... : ... .. . ... : ... .. . ... : ... .. . ...
ROW 1F : ... .. . ... : ... .. . ... : ... .. . ... : ... .. . ... : ... .. . ...

PATTERN 05
ROW 00 : G-4 12 . ... : G-3 11 . ... : G-3 07 . ... : C-# 05 . ... : ... .. . ...
ROW 01 : ... .. . ... : ... .. . ... : G-2 02 . ... : ... .. . ... : ... .. . ...
ROW 02 : A-4 12 . ... : F-3 11 . ... : ... .. . ... : ... .. . ... : ... .. . ...
ROW 03 : ... .. . ... : ... .. . ... : ... .. . ... : ... .. . ... : ... .. . ...
ROW 04 : B-4 12 . ... : E-3 11 . ... : F-2 02 . ... : ... .. . ... : ... .. . ...
ROW 05 : ... .. . ... : ... .. . ... : ... .. . ... : ... .. . ... : ... .. . ...
ROW 06 : A-4 12 . ... : F-3 11 . ... : G-3 07 . ... : F-# 05 . ... : ... .. . ...
ROW 07 : ... .. . ... : ... .. . ... : ... .. . ... : ... .. . ... : ... .. . ...
ROW 08 : B-4 12 . ... : C-3 11 . ... : G-3 07 . ... : C-# 05 . ... : ... .. . ...
ROW 09 : ... .. . ... : ... .. . ... : G-2 02 . ... : ... .. . ... : ... .. . ...
ROW 0A : C-5 12 . ... : ... .. . ... : ... .. . ... : ... .. . ... : ... .. . ...
ROW 0B : ... .. . ... : ... .. . ... : ... .. . ... : ... .. . ... : ... .. . ...
ROW 0C : D-5 12 . ... : --- .. . ... : G-3 07 . ... : 3-# 06 . ... : ... .. . ...
ROW 0D : ... .. . ... : ... .. . ... : F-2 02 . ... : ... .. . ... : ... .. . ...
ROW 0E : E-5 12 . ... : ... .. . ... : ... .. . ... : ... .. . ... : ... .. . ...
ROW 0F : ... .. . ... : ... .. . ... : ... .. . ... : ... .. . ... : ... .. . ...
ROW 10 : D-5 12 . ... : F-3 11 . ... : G-3 07 . ... : C-# 05 . ... : ... .. . ...
ROW 11 : ... .. . ... : ... .. . ... : G-2 02 . ... : ... .. . ... : ... .. . ...
ROW 12 : C-5 12 . ... : G-3 11 . ... : ... .. . ... : ... .. . ... : ... .. . ...
ROW 13 : ... .. . ... : ... .. . ... : ... .. . ... : ... .. . ... : ... .. . ...
ROW 14 : B-4 12 . ... : A-3 11 . ... : F-2 02 . ... : ... .. . ... : ... .. . ...
ROW 15 : ... .. . ... : ... .. . ... : ... .. . ... : ... .. . ... : ... .. . ...
ROW 16 : C-5 12 . ... : G-3 11 . ... : G-3 07 . ... : F-# 05 . ... : ... .. . ...
ROW 17 : ... .. . ... : ... .. . ... : ... .. . ... : ... .. . ... : ... .. . ...
ROW 18 : B-4 12 . ... : F-3 11 . ... : G-3 07 . ... : C-# 05 . ... : ... .. . ...
ROW 19 : ... .. . ... : ... .. . ... : G-2 02 . ... : ... .. . ... : ... .. . ...
ROW 1A : A-4 12 . ... : G-3 11 . ... : ... .. . ... : ... .. . ... : ... .. . ...
ROW 1B : ... .. . ... : ... .. . ... : ... .. . ... : ... .. . ... : ... .. . ...
ROW 1C : ... .. . ... : F-3 11 . ... : G-3 07 . ... : 3-# 06 . ... : ... .. . ...
ROW 1D : ... .. . ... : ... .. . ... : F-2 02 . ... : ... .. . ... : ... .. . ...
ROW 1E : --- .. . ... : E-3 11 . ... : ... .. . ... : ... .. . ... : ... .. . ...
ROW 1F : ... .. . ... : ... .. . ... : ... .. . ... : ... .. . ... : ... .. . ...

PATTERN 06
ROW 00 : G-3 11 . ... : G-3 11 . ... : G-3 07 . ... : C-# 05 . ... : ... .. . ...
ROW 01 : ... .. . ... : ... .. . ... : G-2 02 . ... : ... .. . ... : ... .. . ...
ROW 02 : ... .. . ... : A-3 11 . ... : ... .. . ... : ... .. . ... : ... .. . ...
ROW 03 : ... .. . ... : ... .. . ... : ... .. . ... : ... .. . ... : ... .. . ...
ROW 04 : --- .. . ... : B-3 11 . ... : F-2 02 . ... : ... .. . ... : ... .. . ...
ROW 05 : ... .. . ... : ... .. . ... : ... .. . ... : ... .. . ... : ... .. . ...
ROW 06 : ... .. . ... : A-3 11 . ... : G-3 07 . ... : F-# 05 . ... : ... .. . ...
ROW 07 : ... .. . ... : ... .. . ... : ... .. . ... : ... .. . ... : ... .. . ...
ROW 08 : F-3 11 . ... : B-3 11 . ... : G-3 07 . ... : C-# 05 . ... : ... .. . ...
ROW 09 : ... .. . ... : ... .. . ... : G-2 02 . ... : ... .. . ... : ... .. . ...
ROW 0A : G-3 11 . ... : C-4 11 . ... : ... .. . ... : ... .. . ... : ... .. . ...
ROW 0B : ... .. . ... : ... .. . ... : ... .. . ... : ... .. . ... : ... .. . ...
ROW 0C : A-3 11 . ... : D-4 11 . ... : G-3 07 . ... : 3-# 06 . ... : ... .. . ...
ROW 0D : ... .. . ... : ... .. . ... : F-2 02 . ... : ... .. . ... : ... .. . ...
ROW 0E : ... .. . ... : E-4 11 . ... : ... .. . ... : ... .. . ... : ... .. . ...
ROW 0F : ... .. . ... : ... .. . ... : ... .. . ... : ... .. . ... : ... .. . ...
ROW 10 : --- .. . ... : D-4 11 . ... : G-3 07 . ... : C-# 05 . ... : ... .. . ...
ROW 11 : ... .. . ... : ... .. . ... : G-2 02 . ... : ... .. . ... : ... .. . ...
ROW 12 : ... .. . ... : C-4 11 . ... : ... .. . ... : ... .. . ... : ... .. . ...
ROW 13 : ... .. . ... : ... .. . ... : ... .. . ... : ... .. . ... : ... .. . ...
ROW 14 : A-3 11 . ... : B-3 11 . ... : F-2 02 . ... : ... .. . ... : ... .. . ...
ROW 15 : ... .. . ... : ... .. . ... : ... .. . ... : ... .. . ... : ... .. . ...
ROW 16 : B-3 11 . ... : C-4 11 . ... : G-3 07 . ... : F-# 05 . ... : ... .. . ...
ROW 17 : ... .. . ... : ... .. . ... : ... .. . ... : ... .. . ... : ... .. . ...
ROW 18 : C-4 11 . ... : B-3 11 . ... : G-3 07 . ... : C-# 05 . ... : ... .. . ...
ROW 19 : ... .. . ... : ... .. . ... : G-2 02 . ... : ... .. . ... : ... .. . ...
ROW 1A : ... .. . ... : A-3 11 . ... : ... .. . ... : ... .. . ... : ... .. . ...
ROW 1B : ... .. . ... : ... .. . ... : ... .. . ... : ... .. . ... : ... .. . ...
ROW 1C : --- .. . ... : ... .. . ... : G-3 07 . ... : 3-# 06 . ... : ... .. . ...
ROW 1D : ... .. . ... : ... .. . ... : F-2 02 . ... : ... .. . ... : ... .. . ...
ROW 1E : ... .. . ... : --- .. . ... : ... .. . ... : ... .. . ... : ... .. . ...
ROW 1F : ... .. . ... : ... .. . ... : ... .. . ... : ... .. . ... : ... .. . ...

PATTERN 07
ROW 00 : G-1 0E . ... : G-3 03 . ... : G-3 07 . ... : C-# 05 . ... : ... .. . ...
ROW 01 : ... .. . ... : ... .. . ... : ... .. . ... : ... .. . ... : ... .. . ...
ROW 02 : ... .. . ... : ... .. . ... : ... .. . ... : ... .. . ... : ... .. . ...
ROW 03 : ... .. . ... : ... .. . ... : ... .. . ... : ... .. . ... : ... .. . ...
ROW 04 : E-1 0E . ... : ... .. . ... : ... .. . ... : ... .. . ... : ... .. . ...
ROW 05 : ... .. . ... : ... .. . ... : ... .. . ... : ... .. . ... : ... .. . ...
ROW 06 : ... .. . ... : ... .. . ... : G-3 07 . ... : F-# 05 . ... : ... .. . ...
ROW 07 : ... .. . ... : ... .. . ... : ... .. . ... : ... .. . ... : ... .. . ...
ROW 08 : C-1 0E . ... : F-3 03 . ... : G-3 07 . ... : C-# 05 . ... : ... .. . ...
ROW 09 : ... .. . ... : ... .. . ... : ... .. . ... : ... .. . ... : ... .. . ...
ROW 0A : ... .. . ... : ... .. . ... : ... .. . ... : ... .. . ... : ... .. . ...
ROW 0B : ... .. . ... : ... .. . ... : ... .. . ... : ... .. . ... : ... .. . ...
ROW 0C : E-1 0E . ... : E-3 03 . ... : G-3 07 . ... : 3-# 06 . ... : ... .. . ...
ROW 0D : ... .. . ... : ... .. . ... : ... .. . ... : ... .. . ... : ... .. . ...
ROW 0E : ... .. . ... : ... .. . ... : ... .. . ... : ... .. . ... : ... .. . ...
ROW 0F : ... .. . ... : ... .. . ... : ... .. . ... : ... .. . ... : ... .. . ...
ROW 10 : A-1 0E . ... : A-3 03 . ... : G-3 07 . ... : C-# 05 . ... : ... .. . ...
ROW 11 : ... .. . ... : ... .. . ... : ... .. . ... : ... .. . ... : ... .. . ...
ROW 12 : B-1 0E . ... : ... .. . ... : ... .. . ... : ... .. . ... : ... .. . ...
ROW 13 : ... .. . ... : ... .. . ... : ... .. . ... : ... .. . ... : ... .. . ...
ROW 14 : C-2 0E . ... : ... .. . ... : ... .. . ... : ... .. . ... : ... .. . ...
ROW 15 : ... .. . ... : ... .. . ... : ... .. . ... : ... .. . ... : ... .. . ...
ROW 16 : D-2 0E . ... : ... .. . ... : G-3 07 . ... : F-# 05 . ... : ... .. . ...
ROW 17 : ... .. . ... : ... .. . ... : ... .. . ... : ... .. . ... : ... .. . ...
ROW 18 : ... .. . ... : ... .. . ... : G-3 07 . ... : C-# 05 . ... : ... .. . ...
ROW 19 : ... .. . ... : ... .. . ... : ... .. . ... : ... .. . ... : ... .. . ...
ROW 1A : G-1 0E . ... : ... .. . ... : ... .. . ... : ... .. . ... : ... .. . ...
ROW 1B : ... .. . ... : ... .. . ... : ... .. . ... : ... .. . ... : ... .. . ...
ROW 1C : A-1 0E . ... : ... .. . ... : G-3 07 . ... : 3-# 06 . ... : ... .. . ...
ROW 1D : ... .. . ... : ... .. . ... : ... .. . ... : ... .. . ... : ... .. . ...
ROW 1E : B-1 0E . ... : ... .. . ... : ... .. . ... : ... .. . ... : ... .. . ...
ROW 1F : ... .. . ... : ... .. . ... : ... .. . ... : ... .. . ... : ... .. . ...

PATTERN 08
ROW 00 : E-4 0E . ... : E-4 03 . ... : G-3 07 . ... : C-# 05 . ... : ... .. . ...
ROW 01 : ... .. . ... : ... .. . ... : ... .. . ... : ... .. . ... : ... .. . ...
ROW 02 : ... .. . ... : ... .. . ... : ... .. . ... : ... .. . ... : ... .. . ...
ROW 03 : ... .. . ... : ... .. . ... : ... .. . ... : ... .. . ... : ... .. . ...
ROW 04 : D-4 0E . ... : ... .. . ... : ... .. . ... : ... .. . ... : ... .. . ...
ROW 05 : ... .. . ... : ... .. . ... : ... .. . ... : ... .. . ... : ... .. . ...
ROW 06 : ... .. . ... : ... .. . ... : G-3 07 . ... : F-# 05 . ... : ... .. . ...
ROW 07 : ... .. . ... : ... .. . ... : ... .. . ... : ... .. . ... : ... .. . ...
ROW 08 : C-4 0E . ... : D-4 03 . ... : G-3 07 . ... : 3-# 06 . ... : ... .. . ...
ROW 09 : ... .. . ... : ... .. . ... : ... .. . ... : ... .. . ... : ... .. . ...
ROW 0A : ... .. . ... : ... .. . ... : ... .. . ... : ... .. . ... : ... .. . ...
ROW 0B : ... .. . ... : ... .. . ... : ... .. . ... : ... .. . ... : ... .. . ...
ROW 0C : A-3 0E . ... : C-4 03 . ... : G-3 07 . ... : 3-# 06 . ... : ... .. . ...
ROW 0D : ... .. . ... : ... .. . ... : ... .. . ... : ... .. . ... : ... .. . ...
ROW 0E : C-4 0E . ... : ... .. . ... : ... .. . ... : ... .. . ... : ... .. . ...
ROW 0F : ... .. . ... : ... .. . ... : ... .. . ... : ... .. . ... : ... .. . ...
ROW 10 : D-4 0E . ... : G-4 03 . ... : G-3 07 . ... : C-# 05 . ... : ... .. . ...
ROW 11 : ... .. . ... : ... .. . ... : ... .. . ... : ... .. . ... : ... .. . ...
ROW 12 : E-4 0E . ... : ... .. . ... : ... .. . ... : ... .. . ... : ... .. . ...
ROW 13 : ... .. . ... : ... .. . ... : ... .. . ... : ... .. . ... : ... .. . ...
ROW 14 : ... .. . ... : ... .. . ... : ... .. . ... : ... .. . ... : ... .. . ...
ROW 15 : ... .. . ... : ... .. . ... : ... .. . ... : ... .. . ... : ... .. . ...
ROW 16 : ... .. . ... : ... .. . ... : G-3 07 . ... : F-# 05 . ... : ... .. . ...
ROW 17 : ... .. . ... : ... .. . ... : ... .. . ... : ... .. . ... : ... .. . ...
ROW 18 : G-4 0E . ... : --- .. . ... : G-3 07 . ... : 3-# 06 . ... : ... .. . ...
ROW 19 : ... .. . ... : ... .. . ... : ... .. . ... : ... .. . ... : ... .. . ...
ROW 1A : G-4 0E . ... : ... .. . ... : ... .. . ... : ... .. . ... : ... .. . ...
ROW 1B : ... .. . ... : ... .. . ... : ... .. . ... : ... .. . ... : ... .. . ...
ROW 1C : A-4 0E . ... : ... .. . ... : G-3 07 . ... : 3-# 06 . ... : ... .. . ...
ROW 1D : ... .. . ... : ... .. . ... : ... .. . ... : ... .. . ... : ... .. . ...
ROW 1E : ... .. . ... : ... .. . ... : ... .. . ... : ... .. . ... : ... .. . ...
ROW 1F : ... .. . ... : ... .. . ... : ... .. . ... : ... .. . ... : ... .. . ...

PATTERN 09
ROW 00 : D-3 11 . ... : G-3 11 . ... : G-3 07 . ... : C-# 05 . ... : ... .. . ...
ROW 01 : ... .. . ... : ... .. . ... : G-2 02 . ... : ... .. . ... : ... .. . ...
ROW 02 : ... .. . ... : F-3 11 . ... : ... .. . ... : ... .. . ... : ... .. . ...
ROW 03 : ... .. . ... : ... .. . ... : ... .. . ... : ... .. . ... : ... .. . ...
ROW 04 : ... .. . ... : E-3 11 . ... : F-2 02 . ... : ... .. . ... : ... .. . ...
ROW 05 : ... .. . ... : ... .. . ... : ... .. . ... : ... .. . ... : ... .. . ...
ROW 06 : ... .. . ... : F-3 11 . ... : G-3 07 . ... : F-# 05 . ... : ... .. . ...
ROW 07 : ... .. . ... : ... .. . ... : ... .. . ... : ... .. . ... : ... .. . ...
ROW 08 : G-2 11 . ... : C-3 11 . ... : G-3 07 . ... : C-# 05 . ... : ... .. . ...
ROW 09 : ... .. . ... : ... .. . ... : G-2 02 . ... : ... .. . ... : ... .. . ...
ROW 0A : ... .. . ... : ... .. . ... : ... .. . ... : ... .. . ... : ... .. . ...
ROW 0B : ... .. . ... : ... .. . ... : ... .. . ... : ... .. . ... : ... .. . ...
ROW 0C : ... .. . ... : C-3 12 . ... : G-3 07 . ... : 3-# 06 . ... : ... .. . ...
ROW 0D : ... .. . ... : ... .. . ... : F-2 02 . ... : ... .. . ... : ... .. . ...
ROW 0E : ... .. . ... : ... .. . ... : ... .. . ... : ... .. . ... : ... .. . ...
ROW 0F : ... .. . ... : ... .. . ... : ... .. . ... : ... .. . ... : ... .. . ...
ROW 10 : C-3 11 . ... : F-3 11 . ... : G-3 07 . ... : C-# 05 . ... : ... .. . ...
ROW 11 : ... .. . ... : ... .. . ... : G-2 02 . ... : ... .. . ... : ... .. . ...
ROW 12 : ... .. . ... : G-3 11 . ... : ... .. . ... : ... .. . ... : ... .. . ...
ROW 13 : ... .. . ... : ... .. . ... : ... .. . ... : ... .. . ... : ... .. . ...
ROW 14 : E-3 11 . ... : A-3 11 . ... : F-2 02 . ... : ... .. . ... : ... .. . ...
ROW 15 : ... .. . ... : ... .. . ... : ... .. . ... : ... .. . ... : ... .. . ...
ROW 16 : ... .. . ... : G-3 11 . ... : G-3 07 . ... : F-# 05 . ... : ... .. . ...
ROW 17 : ... .. . ... : ... .. . ... : ... .. . ... : ... .. . ... : ... .. . ...
ROW 18 : C-3 11 . ... : F-3 11 . ... : G-3 07 . ... : C-# 05 . ... : ... .. . ...
ROW 19 : ... .. . ... : ... .. . ... : G-2 02 . ... : ... .. . ... : ... .. . ...
ROW 1A : ... .. . ... : G-3 11 . ... : ... .. . ... : ... .. . ... : ... .. . ...
ROW 1B : ... .. . ... : ... .. . ... : ... .. . ... : ... .. . ... : ... .. . ...
ROW 1C : C-3 11 . ... : F-3 11 . ... : G-3 07 . ... : 3-# 06 . ... : ... .. . ...
ROW 1D : ... .. . ... : ... .. . ... : F-2 02 . ... : ... .. . ... : ... .. . ...
ROW 1E : ... .. . ... : E-3 11 . ... : ... .. . ... : ... .. . ... : ... .. . ...
ROW 1F : ... .. . ... : ... .. . ... : ... .. . ... : ... .. . ... : ... .. . ...

PATTERN 0A
ROW 00 : G-4 0E . ... : ... .. . ... : G-3 07 . ... : C-# 05 . ... : ... .. . ...
ROW 01 : ... .. . ... : ... .. . ... : ... .. . ... : ... .. . ... : ... .. . ...
ROW 02 : ... .. . ... : ... .. . ... : ... .. . ... : ... .. . ... : ... .. . ...
ROW 03 : ... .. . ... : ... .. . ... : ... .. . ... : ... .. . ... : ... .. . ...
ROW 04 : C-4 0E . ... : ... .. . ... : ... .. . ... : ... .. . ... : ... .. . ...
ROW 05 : ... .. . ... : ... .. . ... : ... .. . ... : ... .. . ... : ... .. . ...
ROW 06 : ... .. . ... : ... .. . ... : G-3 07 . ... : F-# 05 . ... : ... .. . ...
ROW 07 : ... .. . ... : ... .. . ... : ... .. . ... : ... .. . ... : ... .. . ...
ROW 08 : D-4 0E . ... : ... .. . ... : G-3 07 . ... : 3-# 06 . ... : ... .. . ...
ROW 09 : ... .. . ... : ... .. . ... : ... .. . ... : ... .. . ... : ... .. . ...
ROW 0A : E-4 0E . ... : ... .. . ... : ... .. . ... : ... .. . ... : ... .. . ...
ROW 0B : ... .. . ... : ... .. . ... : ... .. . ... : ... .. . ... : ... .. . ...
ROW 0C : G-4 0E . ... : ... .. . ... : G-3 07 . ... : 3-# 06 . ... : ... .. . ...
ROW 0D : ... .. . ... : ... .. . ... : ... .. . ... : ... .. . ... : ... .. . ...
ROW 0E : A-4 0E . ... : ... .. . ... : ... .. . ... : ... .. . ... : ... .. . ...
ROW 0F : ... .. . ... : ... .. . ... : ... .. . ... : ... .. . ... : ... .. . ...
ROW 10 : G-4 0E . ... : ... .. . ... : G-3 07 . ... : C-# 05 . ... : ... .. . ...
ROW 11 : ... .. . ... : ... .. . ... : ... .. . ... : ... .. . ... : ... .. . ...
ROW 12 : ... .. . ... : ... .. . ... : ... .. . ... : ... .. . ... : ... .. . ...
ROW 13 : ... .. . ... : ... .. . ... : ... .. . ... : ... .. . ... : ... .. . ...
ROW 14 : C-4 0E . ... : ... .. . ... : ... .. . ... : ... .. . ... : ... .. . ...
ROW 15 : ... .. . ... : ... .. . ... : ... .. . ... : ... .. . ... : ... .. . ...
ROW 16 : ... .. . ... : ... .. . ... : G-3 07 . ... : F-# 05 . ... : ... .. . ...
ROW 17 : ... .. . ... : ... .. . ... : ... .. . ... : ... .. . ... : ... .. . ...
ROW 18 : D-4 0E . ... : ... .. . ... : G-3 07 . ... : 3-# 06 . ... : ... .. . ...
ROW 19 : ... .. . ... : ... .. . ... : ... .. . ... : ... .. . ... : ... .. . ...
ROW 1A : E-4 0E . ... : ... .. . ... : ... .. . ... : ... .. . ... : ... .. . ...
ROW 1B : ... .. . ... : ... .. . ... : ... .. . ... : ... .. . ... : ... .. . ...
ROW 1C : ... .. . ... : ... .. . ... : G-3 07 . ... : 3-# 06 . ... : ... .. . ...
ROW 1D : ... .. . ... : ... .. . ... : ... .. . ... : ... .. . ... : ... .. . ...
ROW 1E : ... .. . ... : ... .. . ... : ... .. . ... : ... .. . ... : ... .. . ...
ROW 1F : ... .. . ... : ... .. . ... : ... .. . ... : ... .. . ... : ... .. . ...

PATTERN 0B
ROW 00 : ... .. . ... : G-3 11 . ... : G-3 07 . ... : C-# 05 . ... : ... .. . ...
ROW 01 : ... .. . ... : ... .. . ... : ... .. . ... : ... .. . ... : ... .. . ...
ROW 02 : ... .. . ... : ... .. . ... : ... .. . ... : ... .. . ... : ... .. . ...
ROW 03 : ... .. . ... : ... .. . ... : ... .. . ... : ... .. . ... : ... .. . ...
ROW 04 : ... .. . ... : C-3 11 . ... : ... .. . ... : ... .. . ... : ... .. . ...
ROW 05 : ... .. . ... : ... .. . ... : ... .. . ... : ... .. . ... : ... .. . ...
ROW 06 : ... .. . ... : ... .. . ... : G-3 07 . ... : F-# 05 . ... : ... .. . ...
ROW 07 : ... .. . ... : ... .. . ... : ... .. . ... : ... .. . ... : ... .. . ...
ROW 08 : ... .. . ... : D-3 11 . ... : G-3 07 . ... : C-# 05 . ... : ... .. . ...
ROW 09 : ... .. . ... : ... .. . ... : ... .. . ... : ... .. . ... : ... .. . ...
ROW 0A : ... .. . ... : E-3 11 . ... : ... .. . ... : ... .. . ... : ... .. . ...
ROW 0B : ... .. . ... : ... .. . ... : ... .. . ... : ... .. . ... : ... .. . ...
ROW 0C : ... .. . ... : G-3 11 . ... : G-3 07 . ... : 3-# 06 . ... : ... .. . ...
ROW 0D : ... .. . ... : ... .. . ... : ... .. . ... : ... .. . ... : ... .. . ...
ROW 0E : ... .. . ... : A-3 11 . ... : ... .. . ... : ... .. . ... : ... .. . ...
ROW 0F : ... .. . ... : ... .. . ... : ... .. . ... : ... .. . ... : ... .. . ...
ROW 10 : ... .. . ... : G-3 11 . ... : G-3 07 . ... : C-# 05 . ... : ... .. . ...
ROW 11 : ... .. . ... : ... .. . ... : ... .. . ... : ... .. . ... : ... .. . ...
ROW 12 : ... .. . ... : ... .. . ... : ... .. . ... : ... .. . ... : ... .. . ...
ROW 13 : ... .. . ... : ... .. . ... : ... .. . ... : ... .. . ... : ... .. . ...
ROW 14 : ... .. . ... : C-3 11 . ... : ... .. . ... : ... .. . ... : ... .. . ...
ROW 15 : ... .. . ... : ... .. . ... : ... .. . ... : ... .. . ... : ... .. . ...
ROW 16 : ... .. . ... : ... .. . ... : G-3 07 . ... : F-# 05 . ... : ... .. . ...
ROW 17 : ... .. . ... : ... .. . ... : ... .. . ... : ... .. . ... : ... .. . ...
ROW 18 : ... .. . ... : D-3 11 . ... : G-3 07 . ... : C-# 05 . ... : ... .. . ...
ROW 19 : ... .. . ... : ... .. . ... : ... .. . ... : ... .. . ... : ... .. . ...
ROW 1A : ... .. . ... : E-3 11 . ... : ... .. . ... : ... .. . ... : ... .. . ...
ROW 1B : ... .. . ... : ... .. . ... : ... .. . ... : ... .. . ... : ... .. . ...
ROW 1C : ... .. . ... : ... .. . ... : G-3 07 . ... : 3-# 06 . ... : ... .. . ...
ROW 1D : ... .. . ... : ... .. . ... : ... .. . ... : ... .. . ... : ... .. . ...
ROW 1E : ... .. . ... : ... .. . ... : ... .. . ... : ... .. . ... : ... .. . ...
ROW 1F : ... .. . ... : ... .. . ... : ... .. . ... : ... .. . ... : ... .. . ...

PATTERN 0C
ROW 00 : G-4 0E . ... : --- .. . ... : G-3 07 . ... : C-# 05 . ... : ... .. . ...
ROW 01 : ... .. . ... : ... .. . ... : ... .. . ... : ... .. . ... : ... .. . ...
ROW 02 : ... .. . ... : ... .. . ... : ... .. . ... : ... .. . ... : ... .. . ...
ROW 03 : ... .. . ... : ... .. . ... : ... .. . ... : ... .. . ... : ... .. . ...
ROW 04 : C-4 0E . ... : ... .. . ... : ... .. . ... : ... .. . ... : ... .. . ...
ROW 05 : ... .. . ... : ... .. . ... : ... .. . ... : ... .. . ... : ... .. . ...
ROW 06 : ... .. . ... : ... .. . ... : G-3 07 . ... : F-# 05 . ... : ... .. . ...
ROW 07 : ... .. . ... : ... .. . ... : ... .. . ... : ... .. . ... : ... .. . ...
ROW 08 : D-4 0E . ... : ... .. . ... : G-3 07 . ... : 3-# 06 . ... : ... .. . ...
ROW 09 : ... .. . ... : ... .. . ... : ... .. . ... : ... .. . ... : ... .. . ...
ROW 0A : E-4 0E . ... : ... .. . ... : ... .. . ... : ... .. . ... : ... .. . ...
ROW 0B : ... .. . ... : ... .. . ... : ... .. . ... : ... .. . ... : ... .. . ...
ROW 0C : G-4 0E . ... : ... .. . ... : G-3 07 . ... : 3-# 06 . ... : ... .. . ...
ROW 0D : ... .. . ... : ... .. . ... : ... .. . ... : ... .. . ... : ... .. . ...
ROW 0E : A-4 0E . ... : ... .. . ... : ... .. . ... : ... .. . ... : ... .. . ...
ROW 0F : ... .. . ... : ... .. . ... : ... .. . ... : ... .. . ... : ... .. . ...
ROW 10 : G-4 0E . ... : ... .. . ... : G-3 07 . ... : C-# 05 . ... : ... .. . ...
ROW 11 : ... .. . ... : ... .. . ... : ... .. . ... : ... .. . ... : ... .. . ...
ROW 12 : ... .. . ... : ... .. . ... : ... .. . ... : ... .. . ... : ... .. . ...
ROW 13 : ... .. . ... : ... .. . ... : ... .. . ... : ... .. . ... : ... .. . ...
ROW 14 : C-4 0E . ... : ... .. . ... : ... .. . ... : ... .. . ... : ... .. . ...
ROW 15 : ... .. . ... : ... .. . ... : ... .. . ... : ... .. . ... : ... .. . ...
ROW 16 : ... .. . ... : ... .. . ... : G-3 07 . ... : F-# 05 . ... : ... .. . ...
ROW 17 : ... .. . ... : ... .. . ... : ... .. . ... : ... .. . ... : ... .. . ...
ROW 18 : D-4 0E . ... : ... .. . ... : G-3 07 . ... : 3-# 06 . ... : ... .. . ...
ROW 19 : ... .. . ... : ... .. . ... : ... .. . ... : ... .. . ... : ... .. . ...
ROW 1A : E-4 0E . ... : ... .. . ... : ... .. . ... : ... .. . ... : ... .. . ...
ROW 1B : ... .. . ... : ... .. . ... : ... .. . ... : ... .. . ... : ... .. . ...
ROW 1C : ... .. . ... : ... .. . ... : G-3 07 . ... : 3-# 06 . ... : ... .. . ...
ROW 1D : ... .. . ... : ... .. . ... : ... .. . ... : ... .. . ... : ... .. . ...
ROW 1E : ... .. . ... : ... .. . ... : ... .. . ... : ... .. . ... : ... .. . ...
ROW 1F : ... .. . ... : ... .. . ... : ... .. . ... : ... .. . ... : ... .. . ...

PATTERN 0D
ROW 00 : ... .. . ... : G-3 11 . ... : G-3 07 . ... : C-# 05 . ... : ... .. . ...
ROW 01 : ... .. . ... : ... .. . ... : ... .. . ... : ... .. . ... : ... .. . ...
ROW 02 : ... .. . ... : F-3 11 . ... : ... .. . ... : ... .. . ... : ... .. . ...
ROW 03 : ... .. . ... : ... .. . ... : ... .. . ... : ... .. . ... : ... .. . ...
ROW 04 : ... .. . ... : E-3 11 . ... : ... .. . ... : ... .. . ... : ... .. . ...
ROW 05 : ... .. . ... : ... .. . ... : ... .. . ... : ... .. . ... : ... .. . ...
ROW 06 : ... .. . ... : D-3 11 . ... : G-3 07 . ... : F-# 05 . ... : ... .. . ...
ROW 07 : ... .. . ... : ... .. . ... : ... .. . ... : ... .. . ... : ... .. . ...
ROW 08 : ... .. . ... : C-3 11 . ... : G-3 07 . ... : C-# 05 . ... : ... .. . ...
ROW 09 : ... .. . ... : ... .. . ... : ... .. . ... : ... .. . ... : ... .. . ...
ROW 0A : ... .. . ... : D-3 11 . ... : ... .. . ... : ... .. . ... : ... .. . ...
ROW 0B : ... .. . ... : ... .. . ... : ... .. . ... : ... .. . ... : ... .. . ...
ROW 0C : ... .. . ... : E-3 11 . ... : G-3 07 . ... : 3-# 06 . ... : ... .. . ...
ROW 0D : ... .. . ... : ... .. . ... : ... .. . ... : ... .. . ... : ... .. . ...
ROW 0E : ... .. . ... : F-3 11 . ... : ... .. . ... : ... .. . ... : ... .. . ...
ROW 0F : ... .. . ... : ... .. . ... : ... .. . ... : ... .. . ... : ... .. . ...
ROW 10 : ... .. . ... : G-3 11 . ... : G-3 07 . ... : C-# 05 . ... : ... .. . ...
ROW 11 : ... .. . ... : ... .. . ... : ... .. . ... : ... .. . ... : ... .. . ...
ROW 12 : ... .. . ... : F-3 11 . ... : ... .. . ... : ... .. . ... : ... .. . ...
ROW 13 : ... .. . ... : ... .. . ... : ... .. . ... : ... .. . ... : ... .. . ...
ROW 14 : ... .. . ... : E-3 11 . ... : ... .. . ... : ... .. . ... : ... .. . ...
ROW 15 : ... .. . ... : ... .. . ... : ... .. . ... : ... .. . ... : ... .. . ...
ROW 16 : ... .. . ... : D-3 11 . ... : G-3 07 . ... : F-# 05 . ... : ... .. . ...
ROW 17 : ... .. . ... : ... .. . ... : ... .. . ... : ... .. . ... : ... .. . ...
ROW 18 : ... .. . ... : C-3 11 . ... : G-3 07 . ... : C-# 05 . ... : ... .. . ...
ROW 19 : ... .. . ... : ... .. . ... : ... .. . ... : ... .. . ... : ... .. . ...
ROW 1A : ... .. . ... : ... .. . ... : ... .. . ... : ... .. . ... : ... .. . ...
ROW 1B : ... .. . ... : ... .. . ... : ... .. . ... : ... .. . ... : ... .. . ...
ROW 1C : ... .. . ... : ... .. . ... : G-3 07 . ... : 3-# 06 . ... : ... .. . ...
ROW 1D : ... .. . ... : ... .. . ... : ... .. . ... : ... .. . ... : ... .. . ...
ROW 1E : ... .. . ... : ... .. . ... : ... .. . ... : ... .. . ... : ... .. . ...
ROW 1F : ... .. . ... : ... .. . ... : ... .. . ... : ... .. . ... : ... .. . ...

PATTERN 0E
ROW 00 : G-4 0E . ... : G-3 11 . ... : G-3 07 . ... : C-# 05 . ... : ... .. . ...
ROW 01 : ... .. . ... : ... .. . ... : ... .. . ... : ... .. . ... : ... .. . ...
ROW 02 : F-4 0E . ... : F-3 11 . ... : ... .. . ... : ... .. . ... : ... .. . ...
ROW 03 : ... .. . ... : ... .. . ... : ... .. . ... : ... .. . ... : ... .. . ...
ROW 04 : E-4 0E . ... : E-3 11 . ... : ... .. . ... : ... .. . ... : ... .. . ...
ROW 05 : ... .. . ... : ... .. . ... : ... .. . ... : ... .. . ... : ... .. . ...
ROW 06 : D-4 0E . ... : F-3 11 . ... : G-3 07 . ... : F-# 05 . ... : ... .. . ...
ROW 07 : ... .. . ... : ... .. . ... : ... .. . ... : ... .. . ... : ... .. . ...
ROW 08 : C-4 0E . ... : C-3 11 . ... : G-3 07 . ... : 3-# 06 . ... : ... .. . ...
ROW 09 : ... .. . ... : ... .. . ... : ... .. . ... : ... .. . ... : ... .. . ...
ROW 0A : D-4 0E . ... : ... .. . ... : ... .. . ... : ... .. . ... : ... .. . ...
ROW 0B : ... .. . ... : ... .. . ... : ... .. . ... : ... .. . ... : ... .. . ...
ROW 0C : E-4 0E . ... : C-3 12 . ... : G-3 07 . ... : 3-# 06 . ... : ... .. . ...
ROW 0D : ... .. . ... : ... .. . ... : ... .. . ... : ... .. . ... : ... .. . ...
ROW 0E : F-4 0E . ... : ... .. . ... : ... .. . ... : ... .. . ... : ... .. . ...
ROW 0F : ... .. . ... : ... .. . ... : ... .. . ... : ... .. . ... : ... .. . ...
ROW 10 : G-4 0E . ... : F-3 11 . ... : G-3 07 . ... : C-# 05 . ... : ... .. . ...
ROW 11 : ... .. . ... : ... .. . ... : ... .. . ... : ... .. . ... : ... .. . ...
ROW 12 : F-4 0E . ... : G-3 11 . ... : ... .. . ... : ... .. . ... : ... .. . ...
ROW 13 : ... .. . ... : ... .. . ... : ... .. . ... : ... .. . ... : ... .. . ...
ROW 14 : E-4 0E . ... : A-3 11 . ... : ... .. . ... : ... .. . ... : ... .. . ...
ROW 15 : ... .. . ... : ... .. . ... : ... .. . ... : ... .. . ... : ... .. . ...
ROW 16 : D-4 0E . ... : G-3 11 . ... : G-3 07 . ... : F-# 05 . ... : ... .. . ...
ROW 17 : ... .. . ... : ... .. . ... : ... .. . ... : ... .. . ... : ... .. . ...
ROW 18 : C-4 0E . ... : F-3 11 . ... : G-3 07 . ... : 3-# 06 . ... : ... .. . ...
ROW 19 : ... .. . ... : ... .. . ... : ... .. . ... : ... .. . ... : ... .. . ...
ROW 1A : E-5 0E . ... : G-3 11 . ... : ... .. . ... : ... .. . ... : ... .. . ...
ROW 1B : ... .. . ... : ... .. . ... : ... .. . ... : ... .. . ... : ... .. . ...
ROW 1C : ... .. . ... : F-3 11 . ... : G-3 07 . ... : 3-# 06 . ... : ... .. . ...
ROW 1D : ... .. . ... : ... .. . ... : ... .. . ... : ... .. . ... : ... .. . ...
ROW 1E : --- .. . ... : E-3 11 . ... : ... .. . ... : ... .. . ... : ... .. . ...
ROW 1F : ... .. . ... : ... .. . ... : ... .. . ... : ... .. . ... : ... .. . ...

PATTERN 0F
ROW 00 : B-2 0E . ... : G-3 11 . ... : G-3 07 . ... : C-# 05 . ... : ... .. . ...
ROW 01 : ... .. . ... : ... .. . ... : ... .. . ... : ... .. . ... : ... .. . ...
ROW 02 : C-3 0E . ... : A-3 11 . ... : ... .. . ... : ... .. . ... : ... .. . ...
ROW 03 : ... .. . ... : ... .. . ... : ... .. . ... : ... .. . ... : ... .. . ...
ROW 04 : D-3 0E . ... : B-3 11 . ... : ... .. . ... : ... .. . ... : ... .. . ...
ROW 05 : ... .. . ... : ... .. . ... : ... .. . ... : ... .. . ... : ... .. . ...
ROW 06 : C-3 0E . ... : A-3 11 . ... : G-3 07 . ... : F-# 05 . ... : ... .. . ...
ROW 07 : ... .. . ... : ... .. . ... : ... .. . ... : ... .. . ... : ... .. . ...
ROW 08 : D-3 0E . ... : B-3 11 . ... : G-3 07 . ... : C-# 05 . ... : ... .. . ...
ROW 09 : ... .. . ... : ... .. . ... : ... .. . ... : ... .. . ... : ... .. . ...
ROW 0A : E-3 0E . ... : C-4 11 . ... : ... .. . ... : ... .. . ... : ... .. . ...
ROW 0B : ... .. . ... : ... .. . ... : ... .. . ... : ... .. . ... : ... .. . ...
ROW 0C : F-3 0E . ... : D-4 11 . ... : G-3 07 . ... : 3-# 06 . ... : ... .. . ...
ROW 0D : ... .. . ... : ... .. . ... : ... .. . ... : ... .. . ... : ... .. . ...
ROW 0E : G-3 0E . ... : E-4 11 . ... : ... .. . ... : ... .. . ... : ... .. . ...
ROW 0F : ... .. . ... : ... .. . ... : ... .. . ... : ... .. . ... : ... .. . ...
ROW 10 : F-3 0E . ... : D-4 11 . ... : G-3 07 . ... : C-# 05 . ... : ... .. . ...
ROW 11 : ... .. . ... : ... .. . ... : ... .. . ... : ... .. . ... : ... .. . ...
ROW 12 : E-3 0E . ... : C-4 11 . ... : ... .. . ... : ... .. . ... : ... .. . ...
ROW 13 : ... .. . ... : ... .. . ... : ... .. . ... : ... .. . ... : ... .. . ...
ROW 14 : D-3 0E . ... : B-3 11 . ... : ... .. . ... : ... .. . ... : ... .. . ...
ROW 15 : ... .. . ... : ... .. . ... : ... .. . ... : ... .. . ... : ... .. . ...
ROW 16 : E-3 0E . ... : C-4 11 . ... : G-3 07 . ... : F-# 05 . ... : ... .. . ...
ROW 17 : ... .. . ... : ... .. . ... : ... .. . ... : ... .. . ... : ... .. . ...
ROW 18 : D-3 0E . ... : B-3 11 . ... : G-3 07 . ... : C-# 05 . ... : ... .. . ...
ROW 19 : ... .. . ... : ... .. . ... : ... .. . ... : ... .. . ... : ... .. . ...
ROW 1A : C-3 0E . ... : A-3 11 . ... : ... .. . ... : ... .. . ... : ... .. . ...
ROW 1B : ... .. . ... : ... .. . ... : ... .. . ... : ... .. . ... : ... .. . ...
ROW 1C : ... .. . ... : ... .. . ... : G-3 07 . ... : 3-# 06 . ... : ... .. . ...
ROW 1D : ... .. . ... : ... .. . ... : ... .. . ... : ... .. . ... : ... .. . ...
ROW 1E : --- .. . ... : --- 12 . ... : ... .. . ... : ... .. . ... : ... .. . ...
ROW 1F : ... .. . ... : ... .. . ... : ... .. . ... : ... .. . ... : ... .. . ...

PATTERN 10
ROW 00 : B-2 11 . ... : G-3 11 . ... : G-3 07 . ... : C-# 05 . ... : ... .. . ...
ROW 01 : ... .. . ... : ... .. . ... : ... .. . ... : ... .. . ... : ... .. . ...
ROW 02 : ... .. . ... : ... .. . ... : ... .. . ... : ... .. . ... : ... .. . ...
ROW 03 : ... .. . ... : ... .. . ... : ... .. . ... : ... .. . ... : ... .. . ...
ROW 04 : B-2 11 . ... : G-3 12 . ... : ... .. . ... : ... .. . ... : ... .. . ...
ROW 05 : ... .. . ... : ... .. . ... : ... .. . ... : ... .. . ... : ... .. . ...
ROW 06 : --- .. . ... : ... .. . ... : G-3 07 . ... : F-# 05 . ... : ... .. . ...
ROW 07 : ... .. . ... : ... .. . ... : ... .. . ... : ... .. . ... : ... .. . ...
ROW 08 : A-2 11 . ... : F-3 11 . ... : G-3 07 . ... : C-# 05 . ... : ... .. . ...
ROW 09 : ... .. . ... : ... .. . ... : ... .. . ... : ... .. . ... : ... .. . ...
ROW 0A : B-2 11 . ... : G-3 11 . ... : ... .. . ... : ... .. . ... : ... .. . ...
ROW 0B : ... .. . ... : ... .. . ... : ... .. . ... : ... .. . ... : ... .. . ...
ROW 0C : C-3 11 . ... : A-3 11 . ... : G-3 07 . ... : 3-# 06 . ... : ... .. . ...
ROW 0D : ... .. . ... : ... .. . ... : ... .. . ... : ... .. . ... : ... .. . ...
ROW 0E : ... .. . ... : ... .. . ... : ... .. . ... : ... .. . ... : ... .. . ...
ROW 0F : ... .. . ... : ... .. . ... : ... .. . ... : ... .. . ... : ... .. . ...
ROW 10 : C-3 11 . ... : F-3 12 . ... : G-3 07 . ... : C-# 05 . ... : ... .. . ...
ROW 11 : ... .. . ... : ... .. . ... : ... .. . ... : ... .. . ... : ... .. . ...
ROW 12 : --- .. . ... : ... .. . ... : ... .. . ... : ... .. . ... : ... .. . ...
ROW 13 : ... .. . ... : ... .. . ... : ... .. . ... : ... .. . ... : ... .. . ...
ROW 14 : C-3 11 . ... : A-3 11 . ... : ... .. . ... : ... .. . ... : ... .. . ...
ROW 15 : ... .. . ... : ... .. . ... : ... .. . ... : ... .. . ... : ... .. . ...
ROW 16 : D-3 11 . ... : B-3 11 . ... : G-3 07 . ... : F-# 05 . ... : ... .. . ...
ROW 17 : ... .. . ... : ... .. . ... : ... .. . ... : ... .. . ... : ... .. . ...
ROW 18 : E-3 11 . ... : C-4 11 . ... : G-3 07 . ... : C-# 05 . ... : ... .. . ...
ROW 19 : ... .. . ... : ... .. . ... : ... .. . ... : ... .. . ... : ... .. . ...
ROW 1A : ... .. . ... : ... .. . ... : ... .. . ... : ... .. . ... : ... .. . ...
ROW 1B : ... .. . ... : ... .. . ... : ... .. . ... : ... .. . ... : ... .. . ...
ROW 1C : --- .. . ... : F-3 12 . ... : G-3 07 . ... : 3-# 06 . ... : ... .. . ...
ROW 1D : ... .. . ... : ... .. . ... : ... .. . ... : ... .. . ... : ... .. . ...
ROW 1E : ... .. . ... : ... .. . ... : ... .. . ... : ... .. . ... : ... .. . ...
ROW 1F : ... .. . ... : ... .. . ... : ... .. . ... : ... .. . ... : ... .. . ...

PATTERN 11
ROW 00 : D-3 11 . ... : B-3 11 . ... : G-3 07 . ... : C-# 05 . ... : ... .. . ...
ROW 01 : ... .. . ... : ... .. . ... : ... .. . ... : ... .. . ... : ... .. . ...
ROW 02 : C-3 11 . ... : A-3 11 . ... : ... .. . ... : ... .. . ... : ... .. . ...
ROW 03 : ... .. . ... : ... .. . ... : ... .. . ... : ... .. . ... : ... .. . ...
ROW 04 : D-3 11 . ... : B-3 11 . ... : ... .. . ... : ... .. . ... : ... .. . ...
ROW 05 : ... .. . ... : ... .. . ... : ... .. . ... : ... .. . ... : ... .. . ...
ROW 06 : ... .. . ... : ... .. . ... : G-3 07 . ... : F-# 05 . ... : ... .. . ...
ROW 07 : ... .. . ... : ... .. . ... : ... .. . ... : ... .. . ... : ... .. . ...
ROW 08 : B-2 11 . ... : G-3 11 . ... : G-3 07 . ... : C-# 05 . ... : ... .. . ...
ROW 09 : ... .. . ... : ... .. . ... : ... .. . ... : ... .. . ... : ... .. . ...
ROW 0A : --- .. . ... : --- .. . ... : ... .. . ... : ... .. . ... : ... .. . ...
ROW 0B : ... .. . ... : ... .. . ... : ... .. . ... : ... .. . ... : ... .. . ...
ROW 0C : B-2 11 . ... : G-3 11 . ... : G-3 07 . ... : 3-# 06 . ... : ... .. . ...
ROW 0D : ... .. . ... : ... .. . ... : ... .. . ... : ... .. . ... : ... .. . ...
ROW 0E : ... .. . ... : ... .. . ... : ... .. . ... : ... .. . ... : ... .. . ...
ROW 0F : ... .. . ... : ... .. . ... : ... .. . ... : ... .. . ... : ... .. . ...
ROW 10 : F-3 11 . ... : D-4 11 . ... : G-3 07 . ... : C-# 05 . ... : ... .. . ...
ROW 11 : ... .. . ... : ... .. . ... : ... .. . ... : ... .. . ... : ... .. . ...
ROW 12 : ... .. . ... : ... .. . ... : ... .. . ... : ... .. . ... : ... .. . ...
ROW 13 : ... .. . ... : ... .. . ... : ... .. . ... : ... .. . ... : ... .. . ...
ROW 14 : ... .. . ... : ... .. . ... : ... .. . ... : ... .. . ... : ... .. . ...
ROW 15 : ... .. . ... : ... .. . ... : ... .. . ... : ... .. . ... : ... .. . ...
ROW 16 : ... .. . ... : ... .. . ... : G-3 07 . ... : F-# 05 . ... : ... .. . ...
ROW 17 : ... .. . ... : ... .. . ... : ... .. . ... : ... .. . ... : ... .. . ...
ROW 18 : G-3 11 . ... : ... .. . ... : G-3 07 . ... : C-# 05 . ... : ... .. . ...
ROW 19 : ... .. . ... : ... .. . ... : ... .. . ... : ... .. . ... : ... .. . ...
ROW 1A : ... .. . ... : ... .. . ... : ... .. . ... : ... .. . ... : ... .. . ...
ROW 1B : ... .. . ... : ... .. . ... : ... .. . ... : ... .. . ... : ... .. . ...
ROW 1C : ... .. . ... : ... .. . ... : G-3 07 . ... : 3-# 06 . ... : ... .. . ...
ROW 1D : ... .. . ... : ... .. . ... : ... .. . ... : ... .. . ... : ... .. . ...
ROW 1E : ... .. . ... : ... .. . ... : ... .. . ... : ... .. . ... : ... .. . ...
ROW 1F : ... .. . ... : ... .. . ... : ... .. . ... : ... .. . ... : ... .. . ...

PATTERN 12
ROW 00 : --- .. . ... : G-3 11 . ... : G-3 07 . ... : C-# 05 . ... : ... .. . ...
ROW 01 : ... .. . ... : ... .. . ... : G-2 02 . ... : ... .. . ... : ... .. . ...
ROW 02 : ... .. . ... : F-3 11 . ... : ... .. . ... : ... .. . ... : ... .. . ...
ROW 03 : ... .. . ... : ... .. . ... : ... .. . ... : ... .. . ... : ... .. . ...
ROW 04 : ... .. . ... : E-3 11 . ... : F-2 02 . ... : ... .. . ... : ... .. . ...
ROW 05 : ... .. . ... : ... .. . ... : ... .. . ... : ... .. . ... : ... .. . ...
ROW 06 : ... .. . ... : F-3 11 . ... : G-3 07 . ... : F-# 05 . ... : ... .. . ...
ROW 07 : ... .. . ... : ... .. . ... : ... .. . ... : ... .. . ... : ... .. . ...
ROW 08 : ... .. . ... : C-3 11 . ... : G-3 07 . ... : C-# 05 . ... : ... .. . ...
ROW 09 : ... .. . ... : ... .. . ... : G-2 02 . ... : ... .. . ... : ... .. . ...
ROW 0A : ... .. . ... : ... .. . ... : ... .. . ... : ... .. . ... : ... .. . ...
ROW 0B : ... .. . ... : ... .. . ... : ... .. . ... : ... .. . ... : ... .. . ...
ROW 0C : ... .. . ... : C-3 12 . ... : G-3 07 . ... : 3-# 06 . ... : ... .. . ...
ROW 0D : ... .. . ... : ... .. . ... : F-2 02 . ... : ... .. . ... : ... .. . ...
ROW 0E : ... .. . ... : ... .. . ... : ... .. . ... : ... .. . ... : ... .. . ...
ROW 0F : ... .. . ... : ... .. . ... : ... .. . ... : ... .. . ... : ... .. . ...
ROW 10 : ... .. . ... : F-3 11 . ... : G-3 07 . ... : C-# 05 . ... : ... .. . ...
ROW 11 : ... .. . ... : ... .. . ... : G-2 02 . ... : ... .. . ... : ... .. . ...
ROW 12 : ... .. . ... : G-3 11 . ... : ... .. . ... : ... .. . ... : ... .. . ...
ROW 13 : ... .. . ... : ... .. . ... : ... .. . ... : ... .. . ... : ... .. . ...
ROW 14 : ... .. . ... : A-3 11 . ... : F-2 02 . ... : ... .. . ... : ... .. . ...
ROW 15 : ... .. . ... : ... .. . ... : ... .. . ... : ... .. . ... : ... .. . ...
ROW 16 : ... .. . ... : G-3 11 . ... : G-3 07 . ... : F-# 05 . ... : ... .. . ...
ROW 17 : ... .. . ... : ... .. . ... : ... .. . ... : ... .. . ... : ... .. . ...
ROW 18 : ... .. . ... : F-3 11 . ... : G-3 07 . ... : C-# 05 . ... : ... .. . ...
ROW 19 : ... .. . ... : ... .. . ... : G-2 02 . ... : ... .. . ... : ... .. . ...
ROW 1A : ... .. . ... : G-3 11 . ... : ... .. . ... : ... .. . ... : ... .. . ...
ROW 1B : ... .. . ... : ... .. . ... : ... .. . ... : ... .. . ... : ... .. . ...
ROW 1C : ... .. . ... : F-3 11 . ... : G-3 07 . ... : 3-# 06 . ... : ... .. . ...
ROW 1D : ... .. . ... : ... .. . ... : F-2 02 . ... : ... .. . ... : ... .. . ...
ROW 1E : ... .. . ... : E-3 11 . ... : ... .. . ... : ... .. . ... : ... .. . ...
ROW 1F : ... .. . ... : ... .. . ... : ... .. . ... : ... .. . ... : ... .. . ...

PATTERN 13
ROW 00 : B-2 12 . ... : G-3 11 . ... : G-3 07 . ... : C-# 05 . ... : ... .. . ...
ROW 01 : ... .. . ... : ... .. . ... : G-2 02 . ... : ... .. . ... : ... .. . ...
ROW 02 : C-3 11 . ... : A-3 11 . ... : ... .. . ... : ... .. . ... : ... .. . ...
ROW 03 : ... .. . ... : ... .. . ... : ... .. . ... : ... .. . ... : ... .. . ...
ROW 04 : D-3 11 . ... : B-3 11 . ... : F-2 02 . ... : ... .. . ... : ... .. . ...
ROW 05 : ... .. . ... : ... .. . ... : ... .. . ... : ... .. . ... : ... .. . ...
ROW 06 : C-3 11 . ... : A-3 11 . ... : G-3 07 . ... : F-# 05 . ... : ... .. . ...
ROW 07 : ... .. . ... : ... .. . ... : ... .. . ... : ... .. . ... : ... .. . ...
ROW 08 : D-3 11 . ... : B-3 11 . ... : G-3 07 . ... : C-# 05 . ... : ... .. . ...
ROW 09 : ... .. . ... : ... .. . ... : G-2 02 . ... : ... .. . ... : ... .. . ...
ROW 0A : E-3 11 . ... : C-4 11 . ... : ... .. . ... : ... .. . ... : ... .. . ...
ROW 0B : ... .. . ... : ... .. . ... : ... .. . ... : ... .. . ... : ... .. . ...
ROW 0C : F-3 11 . ... : D-4 11 . ... : G-3 07 . ... : 3-# 06 . ... : ... .. . ...
ROW 0D : ... .. . ... : ... .. . ... : F-2 02 . ... : ... .. . ... : ... .. . ...
ROW 0E : G-3 11 . ... : E-4 11 . ... : ... .. . ... : ... .. . ... : ... .. . ...
ROW 0F : ... .. . ... : ... .. . ... : ... .. . ... : ... .. . ... : ... .. . ...
ROW 10 : F-3 11 . ... : D-4 11 . ... : G-3 07 . ... : C-# 05 . ... : ... .. . ...
ROW 11 : ... .. . ... : ... .. . ... : G-2 02 . ... : ... .. . ... : ... .. . ...
ROW 12 : E-3 11 . ... : C-4 11 . ... : ... .. . ... : ... .. . ... : ... .. . ...
ROW 13 : ... .. . ... : ... .. . ... : ... .. . ... : ... .. . ... : ... .. . ...
ROW 14 : D-3 11 . ... : B-3 11 . ... : F-2 02 . ... : ... .. . ... : ... .. . ...
ROW 15 : ... .. . ... : ... .. . ... : ... .. . ... : ... .. . ... : ... .. . ...
ROW 16 : E-3 11 . ... : C-4 11 . ... : G-3 07 . ... : F-# 05 . ... : ... .. . ...
ROW 17 : ... .. . ... : ... .. . ... : ... .. . ... : ... .. . ... : ... .. . ...
ROW 18 : D-3 11 . ... : B-3 11 . ... : G-3 07 . ... : C-# 05 . ... : ... .. . ...
ROW 19 : ... .. . ... : ... .. . ... : G-2 02 . ... : ... .. . ... : ... .. . ...
ROW 1A : C-3 11 . ... : A-3 11 . ... : ... .. . ... : ... .. . ... : ... .. . ...
ROW 1B : ... .. . ... : ... .. . ... : ... .. . ... : ... .. . ... : ... .. . ...
ROW 1C : ... .. . ... : ... .. . ... : G-3 07 . ... : 3-# 06 . ... : ... .. . ...
ROW 1D : ... .. . ... : ... .. . ... : F-2 02 . ... : ... .. . ... : ... .. . ...
ROW 1E : --- .. . ... : --- 12 . ... : ... .. . ... : ... .. . ... : ... .. . ...
ROW 1F : ... .. . ... : ... .. . ... : ... .. . ... : ... .. . ... : ... .. . ...

TRACK  64   4 150 "icy"
COLUMNS : 1 1 1 1 1

ORDER 00 : 06 04 06 06 04
ORDER 01 : 07 05 07 07 05
ORDER 02 : 01 01 01 01 01
ORDER 03 : 00 00 00 00 00
ORDER 04 : 04 02 04 04 02
ORDER 05 : 09 07 09 09 03
ORDER 06 : 0D 0B 0D 0D 08
ORDER 07 : 10 0E 10 10 0B
ORDER 08 : 14 12 14 14 0C
ORDER 09 : 17 15 17 17 0A
ORDER 0A : 18 16 18 18 0E
ORDER 0B : 16 14 16 16 0D
ORDER 0C : 1C 19 1B 1C 07

PATTERN 00
ROW 00 : G-2 02 . ... : D-4 02 . ... : F-4 14 . ... : ... .. . ... : ... .. . ...
ROW 01 : ... .. . ... : ... .. . ... : ... .. . ... : ... .. . ... : ... .. . ...
ROW 02 : ... .. . ... : F-4 02 . ... : D-4 14 . ... : ... .. . ... : ... .. . ...
ROW 03 : ... .. . ... : ... .. . ... : ... .. . ... : ... .. . ... : ... .. . ...
ROW 04 : ... .. . ... : C-5 02 . ... : C-4 14 . ... : ... .. . ... : ... .. . ...
ROW 05 : ... .. . ... : ... .. . ... : ... .. . ... : ... .. . ... : ... .. . ...
ROW 06 : ... .. . ... : A-4 02 . ... : D-4 14 . ... : ... .. . ... : ... .. . ...
ROW 07 : ... .. . ... : ... .. . ... : ... .. . ... : ... .. . ... : ... .. . ...
ROW 08 : ... .. . ... : G-4 02 . ... : F-4 14 . ... : ... .. . ... : ... .. . ...
ROW 09 : ... .. . ... : ... .. . ... : ... .. . ... : ... .. . ... : ... .. . ...
ROW 0A : ... .. . ... : ... .. . ... : D-4 14 . ... : ... .. . ... : ... .. . ...
ROW 0B : ... .. . ... : ... .. . ... : ... .. . ... : ... .. . ... : ... .. . ...
ROW 0C : ... .. . ... : ... .. . ... : C-4 14 . ... : ... .. . ... : ... .. . ...
ROW 0D : ... .. . ... : ... .. . ... : ... .. . ... : ... .. . ... : ... .. . ...
ROW 0E : ... .. . ... : ... .. . ... : D-4 14 . ... : ... .. . ... : ... .. . ...
ROW 0F : ... .. . ... : ... .. . ... : ... .. . ... : ... .. . ... : ... .. . ...
ROW 10 : F-2 02 . ... : E-4 02 . ... : G-4 14 . ... : ... .. . ... : ... .. . ...
ROW 11 : ... .. . ... : ... .. . ... : ... .. . ... : ... .. . ... : ... .. . ...
ROW 12 : ... .. . ... : ... .. . ... : A-4 14 . ... : ... .. . ... : ... .. . ...
ROW 13 : ... .. . ... : ... .. . ... : ... .. . ... : ... .. . ... : ... .. . ...
ROW 14 : ... .. . ... : A-4 02 . ... : G-4 14 . ... : ... .. . ... : ... .. . ...
ROW 15 : ... .. . ... : ... .. . ... : ... .. . ... : ... .. . ... : ... .. . ...
ROW 16 : ... .. . ... : G-4 02 . ... : C-5 14 . ... : ... .. . ... : ... .. . ...
ROW 17 : ... .. . ... : ... .. . ... : ... .. . ... : ... .. . ... : ... .. . ...
ROW 18 : ... .. . ... : F-4 02 . ... : ... .. . ... : ... .. . ... : ... .. . ...
ROW 19 : ... .. . ... : ... .. . ... : ... .. . ... : ... .. . ... : ... .. . ...
ROW 1A : ... .. . ... : D-4 02 . ... : ... .. . ... : ... .. . ... : ... .. . ...
ROW 1B : ... .. . ... : F-4 02 . ... : ... .. . ... : ... .. . ... : ... .. . ...
ROW 1C : ... .. . ... : G-4 02 . ... : A-4 14 . ... : ... .. . ... : ... .. . ...
ROW 1D : ... .. . ... : ... .. . ... : ... .. . ... : ... .. . ... : ... .. . ...
ROW 1E : ... .. . ... : ... .. . ... : ... .. . ... : ... .. . ... : ... .. . ...
ROW 1F : ... .. . ... : ... .. . ... : ... .. . ... : ... .. . ... : ... .. . ...
ROW 20 : E-2 02 . ... : A-4 02 . ... : A-4 14 . ... : ... .. . ... : ... .. . ...
ROW 21 : ... .. . ... : ... .. . ... : ... .. . ... : ... .. . ... : ... .. . ...
ROW 22 : ... .. . ... : G-4 02 . ... : G-4 14 . ... : ... .. . ... : ... .. . ...
ROW 23 : ... .. . ... : ... .. . ... : ... .. . ... : ... .. . ... : ... .. . ...
ROW 24 : ... .. . ... : F-4 02 . ... : F-4 14 . ... : ... .. . ... : ... .. . ...
ROW 25 : ... .. . ... : ... .. . ... : ... .. . ... : ... .. . ... : ... .. . ...
ROW 26 : ... .. . ... : D-4 02 . ... : D-4 14 . ... : ... .. . ... : ... .. . ...
ROW 27 : ... .. . ... : ... .. . ... : ... .. . ... : ... .. . ... : ... .. . ...
ROW 28 : F-2 02 . ... : G-4 02 . ... : G-4 14 . ... : ... .. . ... : ... .. . ...
ROW 29 : ... .. . ... : ... .. . ... : ... .. . ... : ... .. . ... : ... .. . ...
ROW 2A : ... .. . ... : ... .. . ... : ... .. . ... : ... .. . ... : ... .. . ...
ROW 2B : ... .. . ... : ... .. . ... : ... .. . ... : ... .. . ... : ... .. . ...
ROW 2C : ... .. . ... : F-4 02 . ... : F-4 14 . ... : ... .. . ... : ... .. . ...
ROW 2D : ... .. . ... : ... .. . ... : ... .. . ... : ... .. . ... : ... .. . ...
ROW 2E : ... .. . ... : ... .. . ... : ... .. . ... : ... .. . ... : ... .. . ...
ROW 2F : ... .. . ... : ... .. . ... : ... .. . ... : ... .. . ... : ... .. . ...
ROW 30 : C-3 02 . ... : A-4 02 . ... : A-4 14 . ... : ... .. . ... : ... .. . ...
ROW 31 : ... .. . ... : ... .. . ... : ... .. . ... : ... .. . ... : ... .. . ...
ROW 32 : ... .. . ... : G-4 02 . ... : G-4 14 . ... : ... .. . ... : ... .. . ...
ROW 33 : ... .. . ... : ... .. . ... : ... .. . ... : ... .. . ... : ... .. . ...
ROW 34 : ... .. . ... : E-4 02 . ... : E-4 14 . ... : ... .. . ... : ... .. . ...
ROW 35 : ... .. . ... : ... .. . ... : ... .. . ... : ... .. . ... : ... .. . ...
ROW 36 : ... .. . ... : C-4 02 . ... : C-4 14 . ... : ... .. . ... : ... .. . ...
ROW 37 : ... .. . ... : ... .. . ... : ... .. . ... : ... .. . ... : ... .. . ...
ROW 38 : D-3 02 . ... : D-4 02 . ... : D-4 14 . ... : ... .. . ... : ... .. . ...
ROW 39 : ... .. . ... : ... .. . ... : ... .. . ... : ... .. . ... : ... .. . ...
ROW 3A : ... .. . ... : ... .. . ... : ... .. . ... : ... .. . ... : ... .. . ...
ROW 3B : ... .. . ... : ... .. . ... : ... .. . ... : ... .. . ... : ... .. . ...
ROW 3C : ... .. . ... : ... .. . ... : ... .. . ... : ... .. . ... : ... .. . ...
ROW 3D : ... .. . ... : ... .. . ... : ... .. . ... : ... .. . ... : ... .. . ...
ROW 3E : ... .. . ... : ... .. . ... : ... .. . ... : ... .. . ... : ... .. . ...
ROW 3F : ... .. . ... : ... .. . ... : ... .. . ... : ... .. . ... : ... .. . ...

PATTERN 01
ROW 00 : G-2 02 . ... : A-4 02 . ... : F-4 14 . ... : ... .. . ... : ... .. . ...
ROW 01 : ... .. . ... : ... .. . ... : ... .. . ... : ... .. . ... : ... .. . ...
ROW 02 : ... .. . ... : ... .. . ... : ... .. . ... : ... .. . ... : ... .. . ...
ROW 03 : ... .. . ... : ... .. . ... : ... .. . ... : ... .. . ... : ... .. . ...
ROW 04 : ... .. . ... : G-4 02 . ... : D-4 14 . ... : ... .. . ... : ... .. . ...
ROW 05 : ... .. . ... : ... .. . ... : ... .. . ... : ... .. . ... : ... .. . ...
ROW 06 : ... .. . ... : ... .. . ... : C-4 14 . ... : ... .. . ... : ... .. . ...
ROW 07 : ... .. . ... : ... .. . ... : ... .. . ... : ... .. . ... : ... .. . ...
ROW 08 : ... .. . ... : ... .. . ... : ... .. . ... : ... .. . ... : ... .. . ...
ROW 09 : ... .. . ... : ... .. . ... : ... .. . ... : ... .. . ... : ... .. . ...
ROW 0A : ... .. . ... : F-4 02 . ... : D-4 14 . ... : ... .. . ... : ... .. . ...
ROW 0B : ... .. . ... : ... .. . ... : ... .. . ... : ... .. . ... : ... .. . ...
ROW 0C : ... .. . ... : A-4 02 . ... : F-4 14 . ... : ... .. . ... : ... .. . ...
ROW 0D : ... .. . ... : ... .. . ... : ... .. . ... : ... .. . ... : ... .. . ...
ROW 0E : ... .. . ... : ... .. . ... : D-4 14 . ... : ... .. . ... : ... .. . ...
ROW 0F : ... .. . ... : ... .. . ... : ... .. . ... : ... .. . ... : ... .. . ...
ROW 10 : F-2 02 . ... : B-4 02 . ... : G-4 14 . ... : ... .. . ... : ... .. . ...
ROW 11 : ... .. . ... : ... .. . ... : ... .. . ... : ... .. . ... : ... .. . ...
ROW 12 : ... .. . ... : C-5 02 . ... : A-4 14 . ... : ... .. . ... : ... .. . ...
ROW 13 : ... .. . ... : ... .. . ... : ... .. . ... : ... .. . ... : ... .. . ...
ROW 14 : ... .. . ... : B-4 02 . ... : G-4 14 . ... : ... .. . ... : ... .. . ...
ROW 15 : ... .. . ... : ... .. . ... : ... .. . ... : ... .. . ... : ... .. . ...
ROW 16 : ... .. . ... : ... .. . ... : C-5 14 . ... : ... .. . ... : ... .. . ...
ROW 17 : ... .. . ... : ... .. . ... : ... .. . ... : ... .. . ... : ... .. . ...
ROW 18 : ... .. . ... : ... .. . ... : ... .. . ... : ... .. . ... : ... .. . ...
ROW 19 : ... .. . ... : ... .. . ... : ... .. . ... : ... .. . ... : ... .. . ...
ROW 1A : ... .. . ... : ... .. . ... : ... .. . ... : ... .. . ... : ... .. . ...
ROW 1B : ... .. . ... : ... .. . ... : ... .. . ... : ... .. . ... : ... .. . ...
ROW 1C : ... .. . ... : D-5 02 . ... : D-5 14 . ... : ... .. . ... : ... .. . ...
ROW 1D : ... .. . ... : ... .. . ... : ... .. . ... : ... .. . ... : ... .. . ...
ROW 1E : ... .. . ... : ... .. . ... : ... .. . ... : ... .. . ... : ... .. . ...
ROW 1F : ... .. . ... : ... .. . ... : ... .. . ... : ... .. . ... : ... .. . ...
ROW 20 : E-2 02 . ... : F-5 02 . ... : F-5 14 . ... : ... .. . ... : ... .. . ...
ROW 21 : ... .. . ... : ... .. . ... : ... .. . ... : ... .. . ... : ... .. . ...
ROW 22 : ... .. . ... : E-5 02 . ... : E-5 14 . ... : ... .. . ... : ... .. . ...
ROW 23 : ... .. . ... : ... .. . ... : ... .. . ... : ... .. . ... : ... .. . ...
ROW 24 : ... .. . ... : D-5 02 . ... : D-5 14 . ... : ... .. . ... : ... .. . ...
ROW 25 : ... .. . ... : ... .. . ... : ... .. . ... : ... .. . ... : ... .. . ...
ROW 26 : ... .. . ... : C-5 02 . ... : C-5 14 . ... : ... .. . ... : ... .. . ...
ROW 27 : ... .. . ... : ... .. . ... : ... .. . ... : ... .. . ... : ... .. . ...
ROW 28 : F-2 02 . ... : A-4 02 . ... : A-4 14 . ... : ... .. . ... : ... .. . ...
ROW 29 : ... .. . ... : ... .. . ... : ... .. . ... : ... .. . ... : ... .. . ...
ROW 2A : ... .. . ... : G-4 02 . ... : G-4 14 . ... : ... .. . ... : ... .. . ...
ROW 2B : ... .. . ... : ... .. . ... : ... .. . ... : ... .. . ... : ... .. . ...
ROW 2C : ... .. . ... : F-4 02 . ... : F-4 14 . ... : ... .. . ... : ... .. . ...
ROW 2D : ... .. . ... : ... .. . ... : ... .. . ... : ... .. . ... : ... .. . ...
ROW 2E : ... .. . ... : ... .. . ... : ... .. . ... : ... .. . ... : ... .. . ...
ROW 2F : ... .. . ... : ... .. . ... : ... .. . ... : ... .. . ... : ... .. . ...
ROW 30 : C-3 02 . ... : C-4 02 . ... : ... .. . ... : ... .. . ... : ... .. . ...
ROW 31 : ... .. . ... : ... .. . ... : ... .. . ... : ... .. . ... : ... .. . ...
ROW 32 : ... .. . ... : E-4 02 . ... : ... .. . ... : ... .. . ... : ... .. . ...
ROW 33 : ... .. . ... : ... .. . ... : ... .. . ... : ... .. . ... : ... .. . ...
ROW 34 : ... .. . ... : G-4 02 . ... : A-3 14 . ... : ... .. . ... : ... .. . ...
ROW 35 : ... .. . ... : ... .. . ... : ... .. . ... : ... .. . ... : ... .. . ...
ROW 36 : ... .. . ... : A-4 02 . ... : ... .. . ... : ... .. . ... : ... .. . ...
ROW 37 : ... .. . ... : ... .. . ... : ... .. . ... : ... .. . ... : ... .. . ...
ROW 38 : D-3 02 . ... : C-5 02 . ... : C-4 14 . ... : ... .. . ... : ... .. . ...
ROW 39 : ... .. . ... : ... .. . ... : ... .. . ... : ... .. . ... : ... .. . ...
ROW 3A : ... .. . ... : A-4 02 . ... : ... .. . ... : ... .. . ... : ... .. . ...
ROW 3B : ... .. . ... : ... .. . ... : ... .. . ... : ... .. . ... : ... .. . ...
ROW 3C : ... .. . ... : G-4 02 . ... : ... .. . ... : ... .. . ... : ... .. . ...
ROW 3D : ... .. . ... : ... .. . ... : ... .. . ... : ... .. . ... : ... .. . ...
ROW 3E : ... .. . ... : E-4 02 . ... : E-4 14 . ... : ... .. . ... : ... .. . ...
ROW 3F : ... .. . ... : ... .. . ... : ... .. . ... : ... .. . ... : ... .. . ...

PATTERN 02
ROW 00 : G-2 02 . ... : ... .. . ... : F-4 02 . ... : 4-# 05 . ... : ... .. . ...
ROW 01 : ... .. . ... : ... .. . ... : ... .. . ... : ... .. . ... : ... .. . ...
ROW 02 : ... .. . ... : ... .. . ... : ... .. . ... : ... .. . ... : ... .. . ...
ROW 03 : ... .. . ... : ... .. . ... : ... .. . ... : ... .. . ... : ... .. . ...
ROW 04 : ... .. . ... : D-4 0A . ... : D-4 02 . ... : 4-# 05 . ... : ... .. . ...
ROW 05 : ... .. . ... : ... .. . ... : ... .. . ... : ... .. . ... : ... .. . ...
ROW 06 : ... .. . ... : ... .. . ... : C-4 02 . ... : 6-# 05 . ... : ... .. . ...
ROW 07 : ... .. . ... : ... .. . ... : ... .. . ... : ... .. . ... : ... .. . ...
ROW 08 : ... .. . ... : A-4 0A . ... : ... .. . ... : ... .. . ... : ... .. . ...
ROW 09 : ... .. . ... : A-4 0B . ... : ... .. . ... : ... .. . ... : ... .. . ...
ROW 0A : ... .. . ... : A-4 0A . ... : D-4 02 . ... : ... .. . ... : ... .. . ...
ROW 0B : ... .. . ... : A-4 0B . ... : ... .. . ... : ... .. . ... : ... .. . ...
ROW 0C : ... .. . ... : A-4 0A . ... : F-4 02 . ... : 4-# 05 . ... : ... .. . ...
ROW 0D : ... .. . ... : ... .. . ... : ... .. . ... : ... .. . ... : ... .. . ...
ROW 0E : ... .. . ... : ... .. . ... : D-4 02 . ... : ... .. . ... : ... .. . ...
ROW 0F : ... .. . ... : ... .. . ... : ... .. . ... : ... .. . ... : ... .. . ...
ROW 10 : F-2 02 . ... : ... .. . ... : G-4 02 . ... : 4-# 05 . ... : ... .. . ...
ROW 11 : ... .. . ... : ... .. . ... : ... .. . ... : ... .. . ... : ... .. . ...
ROW 12 : ... .. . ... : A-4 0B . ... : A-4 02 . ... : 4-# 05 . ... : ... .. . ...
ROW 13 : ... .. . ... : --- .. . ... : ... .. . ... : ... .. . ... : ... .. . ...
ROW 14 : ... .. . ... : A-4 0B . ... : G-4 02 . ... : 6-# 05 . ... : ... .. . ...
ROW 15 : ... .. . ... : ... .. . ... : ... .. . ... : ... .. . ... : ... .. . ...
ROW 16 : ... .. . ... : ... .. . ... : ... .. . ... : ... .. . ... : ... .. . ...
ROW 17 : ... .. . ... : ... .. . ... : ... .. . ... : ... .. . ... : ... .. . ...
ROW 18 : ... .. . ... : A-4 0B . ... : ... .. . ... : ... .. . ... : ... .. . ...
ROW 19 : ... .. . ... : ... .. . ... : ... .. . ... : ... .. . ... : ... .. . ...
ROW 1A : ... .. . ... : A-4 0B . ... : ... .. . ... : ... .. . ... : ... .. . ...
ROW 1B : ... .. . ... : ... .. . ... : ... .. . ... : ... .. . ... : ... .. . ...
ROW 1C : ... .. . ... : A-4 0B . ... : A-4 02 . ... : 4-# 05 . ... : ... .. . ...
ROW 1D : ... .. . ... : ... .. . ... : ... .. . ... : ... .. . ... : ... .. . ...
ROW 1E : ... .. . ... : ... .. . ... : ... .. . ... : ... .. . ... : ... .. . ...
ROW 1F : ... .. . ... : ... .. . ... : ... .. . ... : ... .. . ... : ... .. . ...
ROW 20 : E-2 02 . ... : ... .. . ... : C-5 02 . ... : 4-# 05 . ... : ... .. . ...
ROW 21 : ... .. . ... : ... .. . ... : ... .. . ... : ... .. . ... : ... .. . ...
ROW 22 : ... .. . ... : ... .. . ... : A-4 02 . ... : ... .. . ... : ... .. . ...
ROW 23 : ... .. . ... : ... .. . ... : ... .. . ... : ... .. . ... : ... .. . ...
ROW 24 : ... .. . ... : ... .. . ... : G-4 02 . ... : 4-# 05 . ... : ... .. . ...
ROW 25 : ... .. . ... : ... .. . ... : ... .. . ... : ... .. . ... : ... .. . ...
ROW 26 : ... .. . ... : ... .. . ... : A-4 02 . ... : 6-# 05 . ... : ... .. . ...
ROW 27 : ... .. . ... : ... .. . ... : ... .. . ... : ... .. . ... : ... .. . ...
ROW 28 : F-2 02 . ... : ... .. . ... : G-4 02 . ... : ... .. . ... : ... .. . ...
ROW 29 : ... .. . ... : ... .. . ... : ... .. . ... : ... .. . ... : ... .. . ...
ROW 2A : ... .. . ... : ... .. . ... : F-4 02 . ... : ... .. . ... : ... .. . ...
ROW 2B : ... .. . ... : ... .. . ... : ... .. . ... : ... .. . ... : ... .. . ...
ROW 2C : ... .. . ... : ... .. . ... : D-4 02 . ... : 4-# 05 . ... : ... .. . ...
ROW 2D : ... .. . ... : ... .. . ... : ... .. . ... : ... .. . ... : ... .. . ...
ROW 2E : ... .. . ... : ... .. . ... : F-4 02 . ... : ... .. . ... : ... .. . ...
ROW 2F : ... .. . ... : ... .. . ... : E-4 02 . ... : ... .. . ... : ... .. . ...
ROW 30 : C-3 02 . ... : ... .. . ... : F-4 02 . ... : 4-# 05 . ... : ... .. . ...
ROW 31 : ... .. . ... : ... .. . ... : ... .. . ... : ... .. . ... : ... .. . ...
ROW 32 : ... .. . ... : ... .. . ... : ... .. . ... : 4-# 05 . ... : ... .. . ...
ROW 33 : ... .. . ... : ... .. . ... : ... .. . ... : ... .. . ... : ... .. . ...
ROW 34 : ... .. . ... : ... .. . ... : ... .. . ... : 6-# 05 . ... : ... .. . ...
ROW 35 : ... .. . ... : ... .. . ... : ... .. . ... : ... .. . ... : ... .. . ...
ROW 36 : ... .. . ... : ... .. . ... : ... .. . ... : ... .. . ... : ... .. . ...
ROW 37 : ... .. . ... : ... .. . ... : ... .. . ... : ... .. . ... : ... .. . ...
ROW 38 : D-3 02 . ... : ... .. . ... : ... .. . ... : ... .. . ... : ... .. . ...
ROW 39 : ... .. . ... : ... .. . ... : ... .. . ... : ... .. . ... : ... .. . ...
ROW 3A : ... .. . ... : ... .. . ... : ... .. . ... : ... .. . ... : ... .. . ...
ROW 3B : ... .. . ... : ... .. . ... : ... .. . ... : ... .. . ... : ... .. . ...
ROW 3C : ... .. . ... : ... .. . ... : ... .. . ... : ... .. . ... : ... .. . ...
ROW 3D : ... .. . ... : ... .. . ... : ... .. . ... : ... .. . ... : ... .. . ...
ROW 3E : ... .. . ... : ... .. . ... : ... .. . ... : ... .. . ... : ... .. . ...
ROW 3F : ... .. . ... : ... .. . ... : ... .. . ... : ... .. . ... : ... .. . ...

PATTERN 03
ROW 00 : G-2 02 . ... : A-4 02 . ... : F-4 02 . ... : 4-# 05 . ... : ... .. . ...
ROW 01 : ... .. . ... : ... .. . ... : ... .. . ... : ... .. . ... : ... .. . ...
ROW 02 : ... .. . ... : ... .. . ... : D-4 02 . ... : ... .. . ... : ... .. . ...
ROW 03 : ... .. . ... : ... .. . ... : ... .. . ... : ... .. . ... : ... .. . ...
ROW 04 : ... .. . ... : G-4 02 . ... : C-4 02 . ... : 4-# 05 . ... : ... .. . ...
ROW 05 : ... .. . ... : ... .. . ... : ... .. . ... : ... .. . ... : ... .. . ...
ROW 06 : ... .. . ... : ... .. . ... : D-4 02 . ... : 6-# 05 . ... : ... .. . ...
ROW 07 : ... .. . ... : ... .. . ... : ... .. . ... : ... .. . ... : ... .. . ...
ROW 08 : ... .. . ... : ... .. . ... : ... .. . ... : ... .. . ... : ... .. . ...
ROW 09 : ... .. . ... : ... .. . ... : ... .. . ... : ... .. . ... : ... .. . ...
ROW 0A : ... .. . ... : F-4 02 . ... : D-4 02 . ... : ... .. . ... : ... .. . ...
ROW 0B : ... .. . ... : ... .. . ... : ... .. . ... : ... .. . ... : ... .. . ...
ROW 0C : ... .. . ... : A-4 02 . ... : F-4 02 . ... : 4-# 05 . ... : ... .. . ...
ROW 0D : ... .. . ... : ... .. . ... : ... .. . ... : ... .. . ... : ... .. . ...
ROW 0E : ... .. . ... : ... .. . ... : D-4 02 . ... : ... .. . ... : ... .. . ...
ROW 0F : ... .. . ... : ... .. . ... : ... .. . ... : ... .. . ... : ... .. . ...
ROW 10 : F-2 02 . ... : B-4 02 . ... : G-4 02 . ... : 4-# 05 . ... : ... .. . ...
ROW 11 : ... .. . ... : ... .. . ... : ... .. . ... : ... .. . ... : ... .. . ...
ROW 12 : ... .. . ... : C-5 02 . ... : A-4 02 . ... : 4-# 05 . ... : ... .. . ...
ROW 13 : ... .. . ... : ... .. . ... : ... .. . ... : ... .. . ... : ... .. . ...
ROW 14 : ... .. . ... : B-4 02 . ... : G-4 02 . ... : 6-# 05 . ... : ... .. . ...
ROW 15 : ... .. . ... : ... .. . ... : ... .. . ... : ... .. . ... : ... .. . ...
ROW 16 : ... .. . ... : ... .. . ... : ... .. . ... : ... .. . ... : ... .. . ...
ROW 17 : ... .. . ... : ... .. . ... : ... .. . ... : ... .. . ... : ... .. . ...
ROW 18 : ... .. . ... : ... .. . ... : ... .. . ... : ... .. . ... : ... .. . ...
ROW 19 : ... .. . ... : ... .. . ... : ... .. . ... : ... .. . ... : ... .. . ...
ROW 1A : ... .. . ... : ... .. . ... : ... .. . ... : ... .. . ... : ... .. . ...
ROW 1B : ... .. . ... : ... .. . ... : ... .. . ... : ... .. . ... : ... .. . ...
ROW 1C : ... .. . ... : D-5 02 . ... : A-4 02 . ... : 4-# 05 . ... : ... .. . ...
ROW 1D : ... .. . ... : ... .. . ... : ... .. . ... : ... .. . ... : ... .. . ...
ROW 1E : ... .. . ... : ... .. . ... : ... .. . ... : ... .. . ... : ... .. . ...
ROW 1F : ... .. . ... : ... .. . ... : ... .. . ... : ... .. . ... : ... .. . ...
ROW 20 : E-2 02 . ... : F-5 02 . ... : C-5 02 . ... : 4-# 05 . ... : ... .. . ...
ROW 21 : ... .. . ... : ... .. . ... : ... .. . ... : ... .. . ... : ... .. . ...
ROW 22 : ... .. . ... : E-5 02 . ... : A-4 02 . ... : ... .. . ... : ... .. . ...
ROW 23 : ... .. . ... : ... .. . ... : ... .. . ... : ... .. . ... : ... .. . ...
ROW 24 : ... .. . ... : D-5 02 . ... : G-4 02 . ... : 4-# 05 . ... : ... .. . ...
ROW 25 : ... .. . ... : ... .. . ... : ... .. . ... : ... .. . ... : ... .. . ...
ROW 26 : ... .. . ... : C-5 02 . ... : A-4 02 . ... : 6-# 05 . ... : ... .. . ...
ROW 27 : ... .. . ... : ... .. . ... : ... .. . ... : ... .. . ... : ... .. . ...
ROW 28 : F-2 02 . ... : A-4 02 . ... : G-4 02 . ... : ... .. . ... : ... .. . ...
ROW 29 : ... .. . ... : ... .. . ... : ... .. . ... : ... .. . ... : ... .. . ...
ROW 2A : ... .. . ... : G-4 02 . ... : F-4 02 . ... : ... .. . ... : ... .. . ...
ROW 2B : ... .. . ... : ... .. . ... : ... .. . ... : ... .. . ... : ... .. . ...
ROW 2C : ... .. . ... : F-4 02 . ... : D-4 02 . ... : 4-# 05 . ... : ... .. . ...
ROW 2D : ... .. . ... : ... .. . ... : ... .. . ... : ... .. . ... : ... .. . ...
ROW 2E : ... .. . ... : ... .. . ... : F-4 02 . ... : ... .. . ... : ... .. . ...
ROW 2F : ... .. . ... : ... .. . ... : E-4 02 . ... : ... .. . ... : ... .. . ...
ROW 30 : C-3 02 . ... : C-4 02 . ... : F-4 02 . ... : 4-# 05 . ... : ... .. . ...
ROW 31 : ... .. . ... : ... .. . ... : ... .. . ... : ... .. . ... : ... .. . ...
ROW 32 : ... .. . ... : E-4 02 . ... : ... .. . ... : 4-# 05 . ... : ... .. . ...
ROW 33 : ... .. . ... : ... .. . ... : ... .. . ... : ... .. . ... : ... .. . ...
ROW 34 : ... .. . ... : G-4 02 . ... : ... .. . ... : 6-# 05 . ... : ... .. . ...
ROW 35 : ... .. . ... : ... .. . ... : ... .. . ... : ... .. . ... : ... .. . ...
ROW 36 : ... .. . ... : A-4 02 . ... : ... .. . ... : ... .. . ... : ... .. . ...
ROW 37 : ... .. . ... : ... .. . ... : ... .. . ... : ... .. . ... : ... .. . ...
ROW 38 : D-3 02 . ... : C-5 02 . ... : ... .. . ... : ... .. . ... : ... .. . ...
ROW 39 : ... .. . ... : ... .. . ... : ... .. . ... : ... .. . ... : ... .. . ...
ROW 3A : ... .. . ... : A-4 02 . ... : ... .. . ... : ... .. . ... : ... .. . ...
ROW 3B : ... .. . ... : ... .. . ... : ... .. . ... : ... .. . ... : ... .. . ...
ROW 3C : ... .. . ... : G-4 02 . ... : ... .. . ... : ... .. . ... : ... .. . ...
ROW 3D : ... .. . ... : ... .. . ... : ... .. . ... : ... .. . ... : ... .. . ...
ROW 3E : ... .. . ... : E-4 02 . ... : ... .. . ... : ... .. . ... : ... .. . ...
ROW 3F : ... .. . ... : ... .. . ... : ... .. . ... : ... .. . ... : ... .. . ...

PATTERN 04
ROW 00 : F-4 0A . ... : ... .. . ... : --- .. . ... : ... .. . ... : ... .. . ...
ROW 01 : ... .. . ... : ... .. . ... : ... .. . ... : ... .. . ... : ... .. . ...
ROW 02 : ... .. . ... : ... .. . ... : ... .. . ... : ... .. . ... : ... .. . ...
ROW 03 : ... .. . ... : ... .. . ... : ... .. . ... : ... .. . ... : ... .. . ...
ROW 04 : ... .. . ... : ... .. . ... : ... .. . ... : ... .. . ... : ... .. . ...
ROW 05 : ... .. . ... : ... .. . ... : ... .. . ... : ... .. . ... : ... .. . ...
ROW 06 : ... .. . ... : ... .. . ... : ... .. . ... : ... .. . ... : ... .. . ...
ROW 07 : ... .. . ... : ... .. . ... : ... .. . ... : ... .. . ... : ... .. . ...
ROW 08 : F-4 0A . ... : ... .. . ... : ... .. . ... : ... .. . ... : ... .. . ...
ROW 09 : F-4 0B . ... : ... .. . ... : ... .. . ... : ... .. . ... : ... .. . ...
ROW 0A : F-4 0A . ... : ... .. . ... : ... .. . ... : ... .. . ... : ... .. . ...
ROW 0B : F-4 0B . ... : ... .. . ... : ... .. . ... : ... .. . ... : ... .. . ...
ROW 0C : F-4 0A . ... : ... .. . ... : ... .. . ... : ... .. . ... : ... .. . ...
ROW 0D : ... .. . ... : ... .. . ... : ... .. . ... : ... .. . ... : ... .. . ...
ROW 0E : ... .. . ... : ... .. . ... : ... .. . ... : ... .. . ... : ... .. . ...
ROW 0F : ... .. . ... : ... .. . ... : ... .. . ... : ... .. . ... : ... .. . ...
ROW 10 : F-4 0B . ... : ... .. . ... : ... .. . ... : ... .. . ... : ... .. . ...
ROW 11 : ... .. . ... : ... .. . ... : ... .. . ... : ... .. . ... : ... .. . ...
ROW 12 : ... .. . ... : ... .. . ... : ... .. . ... : ... .. . ... : ... .. . ...
ROW 13 : ... .. . ... : ... .. . ... : ... .. . ... : ... .. . ... : ... .. . ...
ROW 14 : ... .. . ... : ... .. . ... : ... .. . ... : ... .. . ... : ... .. . ...
ROW 15 : ... .. . ... : ... .. . ... : ... .. . ... : ... .. . ... : ... .. . ...
ROW 16 : ... .. . ... : ... .. . ... : ... .. . ... : ... .. . ... : ... .. . ...
ROW 17 : ... .. . ... : ... .. . ... : ... .. . ... : ... .. . ... : ... .. . ...
ROW 18 : F-4 0B . ... : ... .. . ... : ... .. . ... : ... .. . ... : ... .. . ...
ROW 19 : ... .. . ... : ... .. . ... : ... .. . ... : ... .. . ... : ... .. . ...
ROW 1A : F-4 0B . ... : ... .. . ... : ... .. . ... : ... .. . ... : ... .. . ...
ROW 1B : ... .. . ... : ... .. . ... : ... .. . ... : ... .. . ... : ... .. . ...
ROW 1C : F-4 0B . ... : ... .. . ... : ... .. . ... : ... .. . ... : ... .. . ...
ROW 1D : ... .. . ... : ... .. . ... : ... .. . ... : ... .. . ... : ... .. . ...
ROW 1E : ... .. . ... : ... .. . ... : ... .. . ... : ... .. . ... : ... .. . ...
ROW 1F : ... .. . D00 : ... .. . ... : ... .. . ... : ... .. . ... : ... .. . ...
ROW 20 : F-4 0A . D00 : ... .. . ... : ... .. . ... : 4-# 05 . ... : ... .. . ...
ROW 21 : ... .. . ... : ... .. . ... : ... .. . ... : ... .. . ... : ... .. . ...
ROW 22 : ... .. . ... : ... .. . ... : ... .. . ... : ... .. . ... : ... .. . ...
ROW 23 : ... .. . ... : ... .. . ... : ... .. . ... : ... .. . ... : ... .. . ...
ROW 24 : ... .. . ... : ... .. . ... : ... .. . ... : 4-# 05 . ... : ... .. . ...
ROW 25 : ... .. . ... : ... .. . ... : ... .. . ... : ... .. . ... : ... .. . ...
ROW 26 : ... .. . ... : ... .. . ... : ... .. . ... : 6-# 05 . ... : ... .. . ...
ROW 27 : ... .. . ... : ... .. . ... : ... .. . ... : ... .. . ... : ... .. . ...
ROW 28 : F-4 0A . ... : ... .. . ... : ... .. . ... : 0-# 06 . ... : ... .. . ...
ROW 29 : ... .. . ... : ... .. . ... : ... .. . ... : ... .. . ... : ... .. . ...
ROW 2A : F-4 0A . ... : ... .. . ... : ... .. . ... : 0-# 06 . ... : ... .. . ...
ROW 2B : ... .. . ... : ... .. . ... : ... .. . ... : ... .. . ... : ... .. . ...
ROW 2C : F-4 0A . ... : ... .. . ... : ... .. . ... : 4-# 05 . ... : ... .. . ...
ROW 2D : ... .. . ... : ... .. . ... : ... .. . ... : ... .. . ... : ... .. . ...
ROW 2E : ... .. . ... : ... .. . ... : ... .. . ... : ... .. . ... : ... .. . ...
ROW 2F : ... .. . ... : ... .. . ... : ... .. . ... : ... .. . ... : ... .. . ...
ROW 30 : F-4 0B . ... : ... .. . ... : ... .. . ... : 4-# 05 . ... : ... .. . ...
ROW 31 : ... .. . ... : ... .. . ... : ... .. . ... : ... .. . ... : ... .. . ...
ROW 32 : ... .. . ... : ... .. . ... : ... .. . ... : 4-# 05 . ... : ... .. . ...
ROW 33 : ... .. . ... : ... .. . ... : ... .. . ... : ... .. . ... : ... .. . ...
ROW 34 : ... .. . ... : ... .. . ... : ... .. . ... : 6-# 05 . ... : ... .. . ...
ROW 35 : ... .. . ... : ... .. . ... : ... .. . ... : ... .. . ... : ... .. . ...
ROW 36 : ... .. . ... : ... .. . ... : ... .. . ... : 0-# 06 . ... : ... .. . ...
ROW 37 : ... .. . ... : ... .. . ... : ... .. . ... : ... .. . ... : ... .. . ...
ROW 38 : F-4 0B . ... : ... .. . ... : ... .. . ... : 0-# 06 . ... : ... .. . ...
ROW 39 : ... .. . ... : ... .. . ... : ... .. . ... : ... .. . ... : ... .. . ...
ROW 3A : F-4 0B . ... : ... .. . ... : ... .. . ... : 0-# 06 . ... : ... .. . ...
ROW 3B : ... .. . ... : ... .. . ... : ... .. . ... : ... .. . ... : ... .. . ...
ROW 3C : F-4 0B . ... : ... .. . ... : ... .. . ... : 0-# 06 . ... : ... .. . ...
ROW 3D : ... .. . ... : ... .. . ... : ... .. . ... : ... .. . ... : ... .. . ...
ROW 3E : ... .. . ... : ... .. . ... : ... .. . ... : 0-# 06 . ... : ... .. . ...
ROW 3F : ... .. . ... : ... .. . ... : ... .. . ... : ... .. . ... : ... .. . ...

PATTERN 05
ROW 00 : G-2 02 . ... : ... .. . ... : F-4 02 . ... : 4-# 05 . ... : ... .. . ...
ROW 01 : ... .. . ... : ... .. . ... : ... .. . ... : ... .. . ... : ... .. . ...
ROW 02 : ... .. . ... : ... .. . ... : ... .. . ... : ... .. . ... : ... .. . ...
ROW 03 : ... .. . ... : ... .. . ... : ... .. . ... : ... .. . ... : ... .. . ...
ROW 04 : ... .. . ... : ... .. . ... : D-4 02 . ... : 4-# 05 . ... : ... .. . ...
ROW 05 : ... .. . ... : ... .. . ... : ... .. . ... : ... .. . ... : ... .. . ...
ROW 06 : ... .. . ... : ... .. . ... : C-4 02 . ... : 6-# 05 . ... : ... .. . ...
ROW 07 : ... .. . ... : ... .. . ... : ... .. . ... : ... .. . ... : ... .. . ...
ROW 08 : ... .. . ... : ... .. . ... : ... .. . ... : ... .. . ... : ... .. . ...
ROW 09 : ... .. . ... : ... .. . ... : ... .. . ... : ... .. . ... : ... .. . ...
ROW 0A : ... .. . ... : ... .. . ... : D-4 02 . ... : ... .. . ... : ... .. . ...
ROW 0B : ... .. . ... : ... .. . ... : ... .. . ... : ... .. . ... : ... .. . ...
ROW 0C : ... .. . ... : ... .. . ... : F-4 02 . ... : 4-# 05 . ... : ... .. . ...
ROW 0D : ... .. . ... : ... .. . ... : ... .. . ... : ... .. . ... : ... .. . ...
ROW 0E : ... .. . ... : ... .. . ... : D-4 02 . ... : ... .. . ... : ... .. . ...
ROW 0F : ... .. . ... : ... .. . ... : ... .. . ... : ... .. . ... : ... .. . ...
ROW 10 : F-2 02 . ... : ... .. . ... : G-4 02 . ... : 4-# 05 . ... : ... .. . ...
ROW 11 : ... .. . ... : ... .. . ... : ... .. . ... : ... .. . ... : ... .. . ...
ROW 12 : ... .. . ... : ... .. . ... : A-4 02 . ... : 4-# 05 . ... : ... .. . ...
ROW 13 : ... .. . ... : ... .. . ... : ... .. . ... : ... .. . ... : ... .. . ...
ROW 14 : ... .. . ... : ... .. . ... : G-4 02 . ... : 6-# 05 . ... : ... .. . ...
ROW 15 : ... .. . ... : ... .. . ... : ... .. . ... : ... .. . ... : ... .. . ...
ROW 16 : ... .. . ... : ... .. . ... : ... .. . ... : ... .. . ... : ... .. . ...
ROW 17 : ... .. . ... : ... .. . ... : ... .. . ... : ... .. . ... : ... .. . ...
ROW 18 : ... .. . ... : ... .. . ... : ... .. . ... : ... .. . ... : ... .. . ...
ROW 19 : ... .. . ... : ... .. . ... : ... .. . ... : ... .. . ... : ... .. . ...
ROW 1A : ... .. . ... : ... .. . ... : ... .. . ... : ... .. . ... : ... .. . ...
ROW 1B : ... .. . ... : ... .. . ... : ... .. . ... : ... .. . ... : ... .. . ...
ROW 1C : ... .. . ... : ... .. . ... : A-4 02 . ... : 4-# 05 . ... : ... .. . ...
ROW 1D : ... .. . ... : ... .. . ... : ... .. . ... : ... .. . ... : ... .. . ...
ROW 1E : ... .. . ... : ... .. . ... : ... .. . ... : ... .. . ... : ... .. . ...
ROW 1F : ... .. . ... : ... .. . ... : ... .. . ... : ... .. . ... : ... .. . ...
ROW 20 : E-2 02 . ... : ... .. . ... : C-5 02 . ... : 4-# 05 . ... : ... .. . ...
ROW 21 : ... .. . ... : ... .. . ... : ... .. . ... : ... .. . ... : ... .. . ...
ROW 22 : ... .. . ... : ... .. . ... : A-4 02 . ... : ... .. . ... : ... .. . ...
ROW 23 : ... .. . ... : ... .. . ... : ... .. . ... : ... .. . ... : ... .. . ...
ROW 24 : ... .. . ... : ... .. . ... : G-4 02 . ... : 4-# 05 . ... : ... .. . ...
ROW 25 : ... .. . ... : ... .. . ... : ... .. . ... : ... .. . ... : ... .. . ...
ROW 26 : ... .. . ... : ... .. . ... : A-4 02 . ... : 6-# 05 . ... : ... .. . ...
ROW 27 : ... .. . ... : ... .. . ... : ... .. . ... : ... .. . ... : ... .. . ...
ROW 28 : F-2 02 . ... : ... .. . ... : G-4 02 . ... : ... .. . ... : ... .. . ...
ROW 29 : ... .. . ... : ... .. . ... : ... .. . ... : ... .. . ... : ... .. . ...
ROW 2A : ... .. . ... : ... .. . ... : F-4 02 . ... : ... .. . ... : ... .. . ...
ROW 2B : ... .. . ... : ... .. . ... : ... .. . ... : ... .. . ... : ... .. . ...
ROW 2C : ... .. . ... : ... .. . ... : D-4 02 . ... : 4-# 05 . ... : ... .. . ...
ROW 2D : ... .. . ... : ... .. . ... : ... .. . ... : ... .. . ... : ... .. . ...
ROW 2E : ... .. . ... : ... .. . ... : F-4 02 . ... : ... .. . ... : ... .. . ...
ROW 2F : ... .. . ... : ... .. . ... : E-4 02 . ... : ... .. . ... : ... .. . ...
ROW 30 : C-3 02 . ... : ... .. . ... : F-4 02 . ... : 4-# 05 . ... : ... .. . ...
ROW 31 : ... .. . ... : ... .. . ... : ... .. . ... : ... .. . ... : ... .. . ...
ROW 32 : ... .. . ... : ... .. . ... : ... .. . ... : 4-# 05 . ... : ... .. . ...
ROW 33 : ... .. . ... : ... .. . ... : ... .. . ... : ... .. . ... : ... .. . ...
ROW 34 : ... .. . ... : ... .. . ... : ... .. . ... : 6-# 05 . ... : ... .. . ...
ROW 35 : ... .. . ... : ... .. . ... : ... .. . ... : ... .. . ... : ... .. . ...
ROW 36 : ... .. . ... : ... .. . ... : ... .. . ... : ... .. . ... : ... .. . ...
ROW 37 : ... .. . ... : ... .. . ... : ... .. . ... : ... .. . ... : ... .. . ...
ROW 38 : D-3 02 . ... : ... .. . ... : ... .. . ... : ... .. . ... : ... .. . ...
ROW 39 : ... .. . ... : ... .. . ... : ... .. . ... : ... .. . ... : ... .. . ...
ROW 3A : ... .. . ... : ... .. . ... : ... .. . ... : ... .. . ... : ... .. . ...
ROW 3B : ... .. . ... : ... .. . ... : ... .. . ... : ... .. . ... : ... .. . ...
ROW 3C : ... .. . ... : ... .. . ... : ... .. . ... : ... .. . ... : ... .. . ...
ROW 3D : ... .. . ... : ... .. . ... : ... .. . ... : ... .. . ... : ... .. . ...
ROW 3E : ... .. . ... : ... .. . ... : ... .. . ... : ... .. . ... : ... .. . ...
ROW 3F : ... .. . ... : ... .. . ... : ... .. . ... : ... .. . ... : ... .. . ...

PATTERN 06
ROW 00 : G-2 02 . ... : D-4 02 . ... : F-4 14 . ... : ... .. . ... : ... .. . ...
ROW 01 : ... .. . ... : ... .. . ... : ... .. . ... : ... .. . ... : ... .. . ...
ROW 02 : ... .. . ... : F-4 02 . ... : ... .. . ... : ... .. . ... : ... .. . ...
ROW 03 : ... .. . ... : ... .. . ... : ... .. . ... : ... .. . ... : ... .. . ...
ROW 04 : ... .. . ... : C-5 02 . ... : D-4 14 . ... : ... .. . ... : ... .. . ...
ROW 05 : ... .. . ... : ... .. . ... : ... .. . ... : ... .. . ... : ... .. . ...
ROW 06 : ... .. . ... : A-4 02 . ... : C-4 14 . ... : ... .. . ... : ... .. . ...
ROW 07 : ... .. . ... : ... .. . ... : ... .. . ... : ... .. . ... : ... .. . ...
ROW 08 : ... .. . ... : G-4 02 . ... : ... .. . ... : ... .. . ... : ... .. . ...
ROW 09 : ... .. . ... : ... .. . ... : ... .. . ... : ... .. . ... : ... .. . ...
ROW 0A : ... .. . ... : ... .. . ... : D-4 14 . ... : ... .. . ... : ... .. . ...
ROW 0B : ... .. . ... : ... .. . ... : ... .. . ... : ... .. . ... : ... .. . ...
ROW 0C : ... .. . ... : ... .. . ... : F-4 14 . ... : ... .. . ... : ... .. . ...
ROW 0D : ... .. . ... : ... .. . ... : ... .. . ... : ... .. . ... : ... .. . ...
ROW 0E : ... .. . ... : ... .. . ... : D-4 14 . ... : ... .. . ... : ... .. . ...
ROW 0F : ... .. . ... : ... .. . ... : ... .. . ... : ... .. . ... : ... .. . ...
ROW 10 : F-2 02 . ... : E-4 02 . ... : G-4 14 . ... : ... .. . ... : ... .. . ...
ROW 11 : ... .. . ... : ... .. . ... : ... .. . ... : ... .. . ... : ... .. . ...
ROW 12 : ... .. . ... : ... .. . ... : A-4 14 . ... : ... .. . ... : ... .. . ...
ROW 13 : ... .. . ... : ... .. . ... : ... .. . ... : ... .. . ... : ... .. . ...
ROW 14 : ... .. . ... : A-4 02 . ... : G-4 14 . ... : ... .. . ... : ... .. . ...
ROW 15 : ... .. . ... : ... .. . ... : ... .. . ... : ... .. . ... : ... .. . ...
ROW 16 : ... .. . ... : G-4 02 . ... : ... .. . ... : ... .. . ... : ... .. . ...
ROW 17 : ... .. . ... : ... .. . ... : ... .. . ... : ... .. . ... : ... .. . ...
ROW 18 : ... .. . ... : F-4 02 . ... : ... .. . ... : ... .. . ... : ... .. . ...
ROW 19 : ... .. . ... : ... .. . ... : ... .. . ... : ... .. . ... : ... .. . ...
ROW 1A : ... .. . ... : D-4 02 . ... : ... .. . ... : ... .. . ... : ... .. . ...
ROW 1B : ... .. . ... : F-4 02 . ... : ... .. . ... : ... .. . ... : ... .. . ...
ROW 1C : ... .. . ... : G-4 02 . ... : A-4 14 . ... : ... .. . ... : ... .. . ...
ROW 1D : ... .. . ... : ... .. . ... : ... .. . ... : ... .. . ... : ... .. . ...
ROW 1E : ... .. . ... : ... .. . ... : ... .. . ... : ... .. . ... : ... .. . ...
ROW 1F : ... .. . ... : ... .. . ... : ... .. . ... : ... .. . ... : ... .. . ...
ROW 20 : E-2 02 . ... : A-4 02 . ... : C-5 14 . ... : ... .. . ... : ... .. . ...
ROW 21 : ... .. . ... : ... .. . ... : ... .. . ... : ... .. . ... : ... .. . ...
ROW 22 : ... .. . ... : G-4 02 . ... : A-4 14 . ... : ... .. . ... : ... .. . ...
ROW 23 : ... .. . ... : ... .. . ... : ... .. . ... : ... .. . ... : ... .. . ...
ROW 24 : ... .. . ... : F-4 02 . ... : G-4 14 . ... : ... .. . ... : ... .. . ...
ROW 25 : ... .. . ... : ... .. . ... : ... .. . ... : ... .. . ... : ... .. . ...
ROW 26 : ... .. . ... : D-4 02 . ... : A-4 14 . ... : ... .. . ... : ... .. . ...
ROW 27 : ... .. . ... : ... .. . ... : ... .. . ... : ... .. . ... : ... .. . ...
ROW 28 : F-2 02 . ... : G-4 02 . ... : G-4 14 . ... : ... .. . ... : ... .. . ...
ROW 29 : ... .. . ... : ... .. . ... : ... .. . ... : ... .. . ... : ... .. . ...
ROW 2A : ... .. . ... : ... .. . ... : F-4 14 . ... : ... .. . ... : ... .. . ...
ROW 2B : ... .. . ... : ... .. . ... : ... .. . ... : ... .. . ... : ... .. . ...
ROW 2C : ... .. . ... : F-4 02 . ... : D-4 14 . ... : ... .. . ... : ... .. . ...
ROW 2D : ... .. . ... : ... .. . ... : ... .. . ... : ... .. . ... : ... .. . ...
ROW 2E : ... .. . ... : ... .. . ... : ... .. . ... : ... .. . ... : ... .. . ...
ROW 2F : ... .. . ... : ... .. . ... : ... .. . ... : ... .. . ... : ... .. . ...
ROW 30 : C-3 02 . ... : A-4 02 . ... : C-4 14 . ... : ... .. . ... : ... .. . ...
ROW 31 : ... .. . ... : ... .. . ... : ... .. . ... : ... .. . ... : ... .. . ...
ROW 32 : ... .. . ... : G-4 02 . ... : D-4 14 . ... : ... .. . ... : ... .. . ...
ROW 33 : ... .. . ... : ... .. . ... : ... .. . ... : ... .. . ... : ... .. . ...
ROW 34 : ... .. . ... : E-4 02 . ... : E-4 14 . ... : ... .. . ... : ... .. . ...
ROW 35 : ... .. . ... : ... .. . ... : ... .. . ... : ... .. . ... : ... .. . ...
ROW 36 : ... .. . ... : C-4 02 . ... : F-4 14 . ... : ... .. . ... : ... .. . ...
ROW 37 : ... .. . ... : ... .. . ... : ... .. . ... : ... .. . ... : ... .. . ...
ROW 38 : D-3 02 . ... : D-4 02 . ... : ... .. . ... : ... .. . ... : ... .. . ...
ROW 39 : ... .. . ... : ... .. . ... : ... .. . ... : ... .. . ... : ... .. . ...
ROW 3A : ... .. . ... : ... .. . ... : ... .. . ... : ... .. . ... : ... .. . ...
ROW 3B : ... .. . ... : ... .. . ... : ... .. . ... : ... .. . ... : ... .. . ...
ROW 3C : ... .. . ... : ... .. . ... : D-4 14 . ... : ... .. . ... : ... .. . ...
ROW 3D : ... .. . ... : ... .. . ... : ... .. . ... : ... .. . ... : ... .. . ...
ROW 3E : ... .. . ... : ... .. . ... : ... .. . ... : ... .. . ... : ... .. . ...
ROW 3F : ... .. . ... : ... .. . ... : ... .. . ... : ... .. . ... : ... .. . ...

PATTERN 07
ROW 00 : G-2 02 . ... : A-4 02 . ... : F-4 14 . ... : ... .. . ... : ... .. . ...
ROW 01 : ... .. . ... : ... .. . ... : ... .. . ... : ... .. . ... : ... .. . ...
ROW 02 : ... .. . ... : G-4 02 . ... : ... .. . ... : ... .. . ... : ... .. . ...
ROW 03 : ... .. . ... : ... .. . ... : ... .. . ... : ... .. . ... : ... .. . ...
ROW 04 : ... .. . ... : F-4 02 . ... : D-4 14 . ... : ... .. . ... : ... .. . ...
ROW 05 : ... .. . ... : ... .. . ... : ... .. . ... : ... .. . ... : ... .. . ...
ROW 06 : ... .. . ... : E-4 02 . ... : C-4 14 . ... : ... .. . ... : ... .. . ...
ROW 07 : ... .. . ... : ... .. . ... : ... .. . ... : ... .. . ... : ... .. . ...
ROW 08 : ... .. . ... : D-4 02 . ... : ... .. . ... : ... .. . ... : ... .. . ...
ROW 09 : ... .. . ... : ... .. . ... : ... .. . ... : ... .. . ... : ... .. . ...
ROW 0A : ... .. . ... : F-4 02 . ... : D-4 14 . ... : ... .. . ... : ... .. . ...
ROW 0B : ... .. . ... : ... .. . ... : ... .. . ... : ... .. . ... : ... .. . ...
ROW 0C : ... .. . ... : A-4 02 . ... : F-4 14 . ... : ... .. . ... : ... .. . ...
ROW 0D : ... .. . ... : ... .. . ... : ... .. . ... : ... .. . ... : ... .. . ...
ROW 0E : ... .. . ... : ... .. . ... : D-4 14 . ... : ... .. . ... : ... .. . ...
ROW 0F : ... .. . ... : ... .. . ... : ... .. . ... : ... .. . ... : ... .. . ...
ROW 10 : F-2 02 . ... : A-4 02 . ... : G-4 14 . ... : ... .. . ... : ... .. . ...
ROW 11 : ... .. . ... : ... .. . ... : ... .. . ... : ... .. . ... : ... .. . ...
ROW 12 : ... .. . ... : G-4 02 . ... : A-4 14 . ... : ... .. . ... : ... .. . ...
ROW 13 : ... .. . ... : ... .. . ... : ... .. . ... : ... .. . ... : ... .. . ...
ROW 14 : ... .. . ... : F-4 02 . ... : G-4 14 . ... : ... .. . ... : ... .. . ...
ROW 15 : ... .. . ... : ... .. . ... : ... .. . ... : ... .. . ... : ... .. . ...
ROW 16 : ... .. . ... : E-4 02 . ... : ... .. . ... : ... .. . ... : ... .. . ...
ROW 17 : ... .. . ... : ... .. . ... : ... .. . ... : ... .. . ... : ... .. . ...
ROW 18 : ... .. . ... : D-4 02 . ... : ... .. . ... : ... .. . ... : ... .. . ...
ROW 19 : ... .. . ... : ... .. . ... : ... .. . ... : ... .. . ... : ... .. . ...
ROW 1A : ... .. . ... : F-4 02 . ... : ... .. . ... : ... .. . ... : ... .. . ...
ROW 1B : ... .. . ... : ... .. . ... : ... .. . ... : ... .. . ... : ... .. . ...
ROW 1C : ... .. . ... : A-4 02 . ... : A-4 14 . ... : ... .. . ... : ... .. . ...
ROW 1D : ... .. . ... : ... .. . ... : ... .. . ... : ... .. . ... : ... .. . ...
ROW 1E : ... .. . ... : ... .. . ... : ... .. . ... : ... .. . ... : ... .. . ...
ROW 1F : ... .. . ... : ... .. . ... : ... .. . ... : ... .. . ... : ... .. . ...
ROW 20 : E-2 02 . ... : F-5 02 . ... : C-5 14 . ... : ... .. . ... : ... .. . ...
ROW 21 : ... .. . ... : ... .. . ... : ... .. . ... : ... .. . ... : ... .. . ...
ROW 22 : ... .. . ... : E-5 02 . ... : A-4 14 . ... : ... .. . ... : ... .. . ...
ROW 23 : ... .. . ... : ... .. . ... : ... .. . ... : ... .. . ... : ... .. . ...
ROW 24 : ... .. . ... : D-5 02 . ... : G-4 14 . ... : ... .. . ... : ... .. . ...
ROW 25 : ... .. . ... : ... .. . ... : ... .. . ... : ... .. . ... : ... .. . ...
ROW 26 : ... .. . ... : C-5 02 . ... : A-4 14 . ... : ... .. . ... : ... .. . ...
ROW 27 : ... .. . ... : ... .. . ... : ... .. . ... : ... .. . ... : ... .. . ...
ROW 28 : F-2 02 . ... : A-4 02 . ... : G-4 14 . ... : ... .. . ... : ... .. . ...
ROW 29 : ... .. . ... : ... .. . ... : ... .. . ... : ... .. . ... : ... .. . ...
ROW 2A : ... .. . ... : G-4 02 . ... : F-4 14 . ... : ... .. . ... : ... .. . ...
ROW 2B : ... .. . ... : ... .. . ... : ... .. . ... : ... .. . ... : ... .. . ...
ROW 2C : ... .. . ... : F-4 02 . ... : D-4 14 . ... : ... .. . ... : ... .. . ...
ROW 2D : ... .. . ... : ... .. . ... : ... .. . ... : ... .. . ... : ... .. . ...
ROW 2E : ... .. . ... : E-4 02 . ... : F-4 14 . ... : ... .. . ... : ... .. . ...
ROW 2F : ... .. . ... : ... .. . ... : E-4 14 . ... : ... .. . ... : ... .. . ...
ROW 30 : C-3 02 . ... : F-4 02 . ... : F-4 14 . ... : ... .. . ... : ... .. . ...
ROW 31 : ... .. . ... : ... .. . ... : ... .. . ... : ... .. . ... : ... .. . ...
ROW 32 : ... .. . ... : G-4 02 . ... : ... .. . ... : ... .. . ... : ... .. . ...
ROW 33 : ... .. . ... : ... .. . ... : ... .. . ... : ... .. . ... : ... .. . ...
ROW 34 : ... .. . ... : A-4 02 . ... : ... .. . ... : ... .. . ... : ... .. . ...
ROW 35 : ... .. . ... : ... .. . ... : ... .. . ... : ... .. . ... : ... .. . ...
ROW 36 : ... .. . ... : B-4 02 . ... : ... .. . ... : ... .. . ... : ... .. . ...
ROW 37 : ... .. . ... : ... .. . ... : ... .. . ... : ... .. . ... : ... .. . ...
ROW 38 : D-3 02 . ... : C-5 02 . ... : ... .. . ... : ... .. . ... : ... .. . ...
ROW 39 : ... .. . ... : ... .. . ... : ... .. . ... : ... .. . ... : ... .. . ...
ROW 3A : ... .. . ... : D-5 02 . ... : ... .. . ... : ... .. . ... : ... .. . ...
ROW 3B : ... .. . ... : ... .. . ... : ... .. . ... : ... .. . ... : ... .. . ...
ROW 3C : ... .. . ... : E-5 02 . ... : ... .. . ... : ... .. . ... : ... .. . ...
ROW 3D : ... .. . ... : ... .. . ... : ... .. . ... : ... .. . ... : ... .. . ...
ROW 3E : ... .. . ... : F-5 02 . ... : ... .. . ... : ... .. . ... : ... .. . ...
ROW 3F : ... .. . ... : ... .. . ... : ... .. . ... : ... .. . ... : ... .. . ...

PATTERN 08
ROW 00 : G-2 02 . ... : D-4 02 . ... : F-4 02 . ... : 4-# 05 . ... : ... .. . ...
ROW 01 : ... .. . ... : ... .. . ... : ... .. . ... : ... .. . ... : ... .. . ...
ROW 02 : ... .. . ... : F-4 02 . ... : D-4 02 . ... : 0-# 06 . ... : ... .. . ...
ROW 03 : ... .. . ... : ... .. . ... : ... .. . ... : ... .. . ... : ... .. . ...
ROW 04 : ... .. . ... : C-5 02 . ... : C-4 02 . ... : 4-# 05 . ... : ... .. . ...
ROW 05 : ... .. . ... : ... .. . ... : ... .. . ... : ... .. . ... : ... .. . ...
ROW 06 : ... .. . ... : A-4 02 . ... : D-4 02 . ... : 6-# 05 . ... : ... .. . ...
ROW 07 : ... .. . ... : ... .. . ... : ... .. . ... : ... .. . ... : ... .. . ...
ROW 08 : ... .. . ... : G-4 02 . ... : F-4 02 . ... : 0-# 06 . ... : ... .. . ...
ROW 09 : ... .. . ... : ... .. . ... : ... .. . ... : ... .. . ... : ... .. . ...
ROW 0A : ... .. . ... : ... .. . ... : D-4 02 . ... : 0-# 06 . ... : ... .. . ...
ROW 0B : ... .. . ... : ... .. . ... : ... .. . ... : ... .. . ... : ... .. . ...
ROW 0C : ... .. . ... : ... .. . ... : C-4 02 . ... : 4-# 05 . ... : ... .. . ...
ROW 0D : ... .. . ... : ... .. . ... : ... .. . ... : ... .. . ... : ... .. . ...
ROW 0E : ... .. . ... : ... .. . ... : D-4 02 . ... : ... .. . ... : ... .. . ...
ROW 0F : ... .. . ... : ... .. . ... : ... .. . ... : ... .. . ... : ... .. . ...
ROW 10 : F-2 02 . ... : E-4 02 . ... : G-4 02 . ... : 4-# 05 . ... : ... .. . ...
ROW 11 : ... .. . ... : ... .. . ... : ... .. . ... : ... .. . ... : ... .. . ...
ROW 12 : ... .. . ... : ... .. . ... : A-4 02 . ... : 4-# 05 . ... : ... .. . ...
ROW 13 : ... .. . ... : ... .. . ... : ... .. . ... : ... .. . ... : ... .. . ...
ROW 14 : ... .. . ... : A-4 02 . ... : G-4 02 . ... : 6-# 05 . ... : ... .. . ...
ROW 15 : ... .. . ... : ... .. . ... : ... .. . ... : ... .. . ... : ... .. . ...
ROW 16 : ... .. . ... : G-4 02 . ... : C-5 02 . ... : ... .. . ... : ... .. . ...
ROW 17 : ... .. . ... : ... .. . ... : ... .. . ... : ... .. . ... : ... .. . ...
ROW 18 : ... .. . ... : F-4 02 . ... : ... .. . ... : 0-# 06 . ... : ... .. . ...
ROW 19 : ... .. . ... : ... .. . ... : ... .. . ... : ... .. . ... : ... .. . ...
ROW 1A : ... .. . ... : D-4 02 . ... : ... .. . ... : 0-# 06 . ... : ... .. . ...
ROW 1B : ... .. . ... : F-4 02 . ... : ... .. . ... : ... .. . ... : ... .. . ...
ROW 1C : ... .. . ... : G-4 02 . ... : A-4 02 . ... : 4-# 05 . ... : ... .. . ...
ROW 1D : ... .. . ... : ... .. . ... : ... .. . ... : ... .. . ... : ... .. . ...
ROW 1E : ... .. . ... : ... .. . ... : ... .. . ... : ... .. . ... : ... .. . ...
ROW 1F : ... .. . ... : ... .. . ... : ... .. . ... : ... .. . ... : ... .. . ...
ROW 20 : E-2 02 . ... : A-4 02 . ... : C-5 02 . ... : 4-# 05 . ... : ... .. . ...
ROW 21 : ... .. . ... : ... .. . ... : ... .. . ... : ... .. . ... : ... .. . ...
ROW 22 : ... .. . ... : G-4 02 . ... : A-4 02 . ... : ... .. . ... : ... .. . ...
ROW 23 : ... .. . ... : ... .. . ... : ... .. . ... : ... .. . ... : ... .. . ...
ROW 24 : ... .. . ... : F-4 02 . ... : G-4 02 . ... : 4-# 05 . ... : ... .. . ...
ROW 25 : ... .. . ... : ... .. . ... : ... .. . ... : ... .. . ... : ... .. . ...
ROW 26 : ... .. . ... : D-4 02 . ... : A-4 02 . ... : 6-# 05 . ... : ... .. . ...
ROW 27 : ... .. . ... : ... .. . ... : ... .. . ... : ... .. . ... : ... .. . ...
ROW 28 : F-2 02 . ... : G-4 02 . ... : G-4 02 . ... : 0-# 06 . ... : ... .. . ...
ROW 29 : ... .. . ... : ... .. . ... : ... .. . ... : ... .. . ... : ... .. . ...
ROW 2A : ... .. . ... : ... .. . ... : F-4 02 . ... : 0-# 06 . ... : ... .. . ...
ROW 2B : ... .. . ... : ... .. . ... : ... .. . ... : ... .. . ... : ... .. . ...
ROW 2C : ... .. . ... : F-4 02 . ... : D-4 02 . ... : 4-# 05 . ... : ... .. . ...
ROW 2D : ... .. . ... : ... .. . ... : ... .. . ... : ... .. . ... : ... .. . ...
ROW 2E : ... .. . ... : ... .. . ... : F-4 02 . ... : ... .. . ... : ... .. . ...
ROW 2F : ... .. . ... : ... .. . ... : E-4 02 . ... : ... .. . ... : ... .. . ...
ROW 30 : C-3 02 . ... : A-4 02 . ... : F-4 02 . ... : 4-# 05 . ... : ... .. . ...
ROW 31 : ... .. . ... : ... .. . ... : ... .. . ... : ... .. . ... : ... .. . ...
ROW 32 : ... .. . ... : G-4 02 . ... : ... .. . ... : 4-# 05 . ... : ... .. . ...
ROW 33 : ... .. . ... : ... .. . ... : ... .. . ... : ... .. . ... : ... .. . ...
ROW 34 : ... .. . ... : E-4 02 . ... : ... .. . ... : 6-# 05 . ... : ... .. . ...
ROW 35 : ... .. . ... : ... .. . ... : ... .. . ... : ... .. . ... : ... .. . ...
ROW 36 : ... .. . ... : C-4 02 . ... : ... .. . ... : 0-# 06 . ... : ... .. . ...
ROW 37 : ... .. . ... : ... .. . ... : ... .. . ... : ... .. . ... : ... .. . ...
ROW 38 : D-3 02 . ... : D-4 02 . ... : ... .. . ... : 0-# 06 . ... : ... .. . ...
ROW 39 : ... .. . ... : ... .. . ... : ... .. . ... : ... .. . ... : ... .. . ...
ROW 3A : ... .. . ... : ... .. . ... : ... .. . ... : 0-# 06 . ... : ... .. . ...
ROW 3B : ... .. . ... : ... .. . ... : ... .. . ... : ... .. . ... : ... .. . ...
ROW 3C : ... .. . ... : ... .. . ... : ... .. . ... : 0-# 06 . ... : ... .. . ...
ROW 3D : ... .. . ... : ... .. . ... : ... .. . ... : ... .. . ... : ... .. . ...
ROW 3E : ... .. . ... : ... .. . ... : ... .. . ... : 0-# 06 . ... : ... .. . ...
ROW 3F : ... .. . ... : ... .. . ... : ... .. . ... : ... .. . ... : ... .. . ...

PATTERN 09
ROW 00 : G-2 02 . ... : D-4 02 . ... : A-4 14 . ... : ... .. . ... : ... .. . ...
ROW 01 : ... .. . ... : ... .. . ... : ... .. . ... : ... .. . ... : ... .. . ...
ROW 02 : ... .. . ... : F-4 02 . ... : G-4 14 . ... : ... .. . ... : ... .. . ...
ROW 03 : ... .. . ... : ... .. . ... : ... .. . ... : ... .. . ... : ... .. . ...
ROW 04 : ... .. . ... : C-5 02 . ... : F-4 14 . ... : ... .. . ... : ... .. . ...
ROW 05 : ... .. . ... : ... .. . ... : ... .. . ... : ... .. . ... : ... .. . ...
ROW 06 : ... .. . ... : A-4 02 . ... : E-4 14 . ... : ... .. . ... : ... .. . ...
ROW 07 : ... .. . ... : ... .. . ... : ... .. . ... : ... .. . ... : ... .. . ...
ROW 08 : ... .. . ... : G-4 02 . ... : D-4 14 . ... : ... .. . ... : ... .. . ...
ROW 09 : ... .. . ... : ... .. . ... : ... .. . ... : ... .. . ... : ... .. . ...
ROW 0A : ... .. . ... : ... .. . ... : F-4 14 . ... : ... .. . ... : ... .. . ...
ROW 0B : ... .. . ... : ... .. . ... : ... .. . ... : ... .. . ... : ... .. . ...
ROW 0C : ... .. . ... : ... .. . ... : A-4 14 . ... : ... .. . ... : ... .. . ...
ROW 0D : ... .. . ... : ... .. . ... : ... .. . ... : ... .. . ... : ... .. . ...
ROW 0E : ... .. . ... : ... .. . ... : ... .. . ... : ... .. . ... : ... .. . ...
ROW 0F : ... .. . ... : ... .. . ... : ... .. . ... : ... .. . ... : ... .. . ...
ROW 10 : F-2 02 . ... : E-4 02 . ... : B-4 14 . ... : ... .. . ... : ... .. . ...
ROW 11 : ... .. . ... : ... .. . ... : ... .. . ... : ... .. . ... : ... .. . ...
ROW 12 : ... .. . ... : ... .. . ... : C-5 14 . ... : ... .. . ... : ... .. . ...
ROW 13 : ... .. . ... : ... .. . ... : ... .. . ... : ... .. . ... : ... .. . ...
ROW 14 : ... .. . ... : A-4 02 . ... : B-4 14 . ... : ... .. . ... : ... .. . ...
ROW 15 : ... .. . ... : ... .. . ... : ... .. . ... : ... .. . ... : ... .. . ...
ROW 16 : ... .. . ... : G-4 02 . ... : D-5 14 . ... : ... .. . ... : ... .. . ...
ROW 17 : ... .. . ... : ... .. . ... : ... .. . ... : ... .. . ... : ... .. . ...
ROW 18 : ... .. . ... : F-4 02 . ... : ... .. . ... : ... .. . ... : ... .. . ...
ROW 19 : ... .. . ... : ... .. . ... : ... .. . ... : ... .. . ... : ... .. . ...
ROW 1A : ... .. . ... : D-4 02 . ... : C-5 14 . ... : ... .. . ... : ... .. . ...
ROW 1B : ... .. . ... : F-4 02 . ... : ... .. . ... : ... .. . ... : ... .. . ...
ROW 1C : ... .. . ... : G-4 02 . ... : ... .. . ... : ... .. . ... : ... .. . ...
ROW 1D : ... .. . ... : ... .. . ... : ... .. . ... : ... .. . ... : ... .. . ...
ROW 1E : ... .. . ... : ... .. . ... : ... .. . ... : ... .. . ... : ... .. . ...
ROW 1F : ... .. . ... : ... .. . ... : ... .. . ... : ... .. . ... : ... .. . ...
ROW 20 : E-2 02 . ... : A-4 02 . ... : F-5 14 . ... : ... .. . ... : ... .. . ...
ROW 21 : ... .. . ... : ... .. . ... : ... .. . ... : ... .. . ... : ... .. . ...
ROW 22 : ... .. . ... : G-4 02 . ... : E-5 14 . ... : ... .. . ... : ... .. . ...
ROW 23 : ... .. . ... : ... .. . ... : ... .. . ... : ... .. . ... : ... .. . ...
ROW 24 : ... .. . ... : F-4 02 . ... : D-5 14 . ... : ... .. . ... : ... .. . ...
ROW 25 : ... .. . ... : ... .. . ... : ... .. . ... : ... .. . ... : ... .. . ...
ROW 26 : ... .. . ... : D-4 02 . ... : C-5 14 . ... : ... .. . ... : ... .. . ...
ROW 27 : ... .. . ... : ... .. . ... : ... .. . ... : ... .. . ... : ... .. . ...
ROW 28 : F-2 02 . ... : G-4 02 . ... : A-4 14 . ... : ... .. . ... : ... .. . ...
ROW 29 : ... .. . ... : ... .. . ... : ... .. . ... : ... .. . ... : ... .. . ...
ROW 2A : ... .. . ... : ... .. . ... : G-4 14 . ... : ... .. . ... : ... .. . ...
ROW 2B : ... .. . ... : ... .. . ... : ... .. . ... : ... .. . ... : ... .. . ...
ROW 2C : ... .. . ... : F-4 02 . ... : F-4 14 . ... : ... .. . ... : ... .. . ...
ROW 2D : ... .. . ... : ... .. . ... : ... .. . ... : ... .. . ... : ... .. . ...
ROW 2E : ... .. . ... : ... .. . ... : G-4 14 . ... : ... .. . ... : ... .. . ...
ROW 2F : ... .. . ... : ... .. . ... : ... .. . ... : ... .. . ... : ... .. . ...
ROW 30 : C-3 02 . ... : A-4 02 . ... : A-4 14 . ... : ... .. . ... : ... .. . ...
ROW 31 : ... .. . ... : ... .. . ... : ... .. . ... : ... .. . ... : ... .. . ...
ROW 32 : ... .. . ... : G-4 02 . ... : ... .. . ... : ... .. . ... : ... .. . ...
ROW 33 : ... .. . ... : ... .. . ... : ... .. . ... : ... .. . ... : ... .. . ...
ROW 34 : ... .. . ... : E-4 02 . ... : B-4 14 . ... : ... .. . ... : ... .. . ...
ROW 35 : ... .. . ... : ... .. . ... : ... .. . ... : ... .. . ... : ... .. . ...
ROW 36 : ... .. . ... : C-4 02 . ... : ... .. . ... : ... .. . ... : ... .. . ...
ROW 37 : ... .. . ... : ... .. . ... : ... .. . ... : ... .. . ... : ... .. . ...
ROW 38 : D-3 02 . ... : D-4 02 . ... : C-5 14 . ... : ... .. . ... : ... .. . ...
ROW 39 : ... .. . ... : ... .. . ... : ... .. . ... : ... .. . ... : ... .. . ...
ROW 3A : ... .. . ... : ... .. . ... : ... .. . ... : ... .. . ... : ... .. . ...
ROW 3B : ... .. . ... : ... .. . ... : ... .. . ... : ... .. . ... : ... .. . ...
ROW 3C : ... .. . ... : ... .. . ... : E-5 14 . ... : ... .. . ... : ... .. . ...
ROW 3D : ... .. . ... : ... .. . ... : ... .. . ... : ... .. . ... : ... .. . ...
ROW 3E : ... .. . ... : ... .. . ... : ... .. . ... : ... .. . ... : ... .. . ...
ROW 3F : ... .. . ... : ... .. . ... : ... .. . ... : ... .. . ... : ... .. . ...

PATTERN 0A
ROW 00 : G-2 02 . ... : A-4 02 . ... : F-4 02 . ... : 4-# 05 . ... : ... .. . ...
ROW 01 : ... .. . ... : ... .. . ... : ... .. . ... : ... .. . ... : ... .. . ...
ROW 02 : ... .. . ... : ... .. . ... : D-4 02 . ... : 0-# 06 . ... : ... .. . ...
ROW 03 : ... .. . ... : ... .. . ... : ... .. . ... : ... .. . ... : ... .. . ...
ROW 04 : ... .. . ... : G-4 02 . ... : C-4 02 . ... : 4-# 05 . ... : ... .. . ...
ROW 05 : ... .. . ... : ... .. . ... : ... .. . ... : ... .. . ... : ... .. . ...
ROW 06 : ... .. . ... : ... .. . ... : D-4 02 . ... : 6-# 05 . ... : ... .. . ...
ROW 07 : ... .. . ... : ... .. . ... : ... .. . ... : ... .. . ... : ... .. . ...
ROW 08 : ... .. . ... : A-4 02 . ... : F-4 02 . ... : 0-# 06 . ... : ... .. . ...
ROW 09 : ... .. . ... : ... .. . ... : ... .. . ... : ... .. . ... : ... .. . ...
ROW 0A : ... .. . ... : ... .. . ... : D-4 02 . ... : 0-# 06 . ... : ... .. . ...
ROW 0B : ... .. . ... : ... .. . ... : ... .. . ... : ... .. . ... : ... .. . ...
ROW 0C : ... .. . ... : G-4 02 . ... : C-4 02 . ... : 4-# 05 . ... : ... .. . ...
ROW 0D : ... .. . ... : ... .. . ... : ... .. . ... : ... .. . ... : ... .. . ...
ROW 0E : ... .. . ... : ... .. . ... : D-4 02 . ... : ... .. . ... : ... .. . ...
ROW 0F : ... .. . ... : ... .. . ... : ... .. . ... : ... .. . ... : ... .. . ...
ROW 10 : F-2 02 . ... : B-4 02 . ... : G-4 02 . ... : 4-# 05 . ... : ... .. . ...
ROW 11 : ... .. . ... : ... .. . ... : ... .. . ... : ... .. . ... : ... .. . ...
ROW 12 : ... .. . ... : A-4 02 . ... : A-4 02 . ... : 4-# 05 . ... : ... .. . ...
ROW 13 : ... .. . ... : ... .. . ... : ... .. . ... : ... .. . ... : ... .. . ...
ROW 14 : ... .. . ... : G-4 02 . ... : G-4 02 . ... : 6-# 05 . ... : ... .. . ...
ROW 15 : ... .. . ... : ... .. . ... : ... .. . ... : ... .. . ... : ... .. . ...
ROW 16 : ... .. . ... : F-4 02 . ... : C-5 02 . ... : ... .. . ... : ... .. . ...
ROW 17 : ... .. . ... : ... .. . ... : ... .. . ... : ... .. . ... : ... .. . ...
ROW 18 : ... .. . ... : G-4 02 . ... : ... .. . ... : 0-# 06 . ... : ... .. . ...
ROW 19 : ... .. . ... : ... .. . ... : ... .. . ... : ... .. . ... : ... .. . ...
ROW 1A : ... .. . ... : A-4 02 . ... : ... .. . ... : 0-# 06 . ... : ... .. . ...
ROW 1B : ... .. . ... : ... .. . ... : ... .. . ... : ... .. . ... : ... .. . ...
ROW 1C : ... .. . ... : B-4 02 . ... : A-4 02 . ... : 4-# 05 . ... : ... .. . ...
ROW 1D : ... .. . ... : ... .. . ... : ... .. . ... : ... .. . ... : ... .. . ...
ROW 1E : ... .. . ... : D-5 02 . ... : ... .. . ... : ... .. . ... : ... .. . ...
ROW 1F : ... .. . ... : ... .. . ... : ... .. . ... : ... .. . ... : ... .. . ...
ROW 20 : E-2 02 . ... : B-4 02 . ... : C-5 02 . ... : 4-# 05 . ... : ... .. . ...
ROW 21 : ... .. . ... : ... .. . ... : ... .. . ... : ... .. . ... : ... .. . ...
ROW 22 : ... .. . ... : ... .. . ... : A-4 02 . ... : ... .. . ... : ... .. . ...
ROW 23 : ... .. . ... : ... .. . ... : ... .. . ... : ... .. . ... : ... .. . ...
ROW 24 : ... .. . ... : ... .. . ... : G-4 02 . ... : 4-# 05 . ... : ... .. . ...
ROW 25 : ... .. . ... : ... .. . ... : ... .. . ... : ... .. . ... : ... .. . ...
ROW 26 : ... .. . ... : ... .. . ... : A-4 02 . ... : 6-# 05 . ... : ... .. . ...
ROW 27 : ... .. . ... : ... .. . ... : ... .. . ... : ... .. . ... : ... .. . ...
ROW 28 : F-2 02 . ... : A-4 02 . ... : G-4 02 . ... : 0-# 06 . ... : ... .. . ...
ROW 29 : ... .. . ... : ... .. . ... : ... .. . ... : ... .. . ... : ... .. . ...
ROW 2A : ... .. . ... : ... .. . ... : F-4 02 . ... : 0-# 06 . ... : ... .. . ...
ROW 2B : ... .. . ... : ... .. . ... : ... .. . ... : ... .. . ... : ... .. . ...
ROW 2C : ... .. . ... : ... .. . ... : D-4 02 . ... : 4-# 05 . ... : ... .. . ...
ROW 2D : ... .. . ... : ... .. . ... : ... .. . ... : ... .. . ... : ... .. . ...
ROW 2E : ... .. . ... : ... .. . ... : F-4 02 . ... : ... .. . ... : ... .. . ...
ROW 2F : ... .. . ... : ... .. . ... : E-4 02 . ... : ... .. . ... : ... .. . ...
ROW 30 : C-3 02 . ... : C-4 02 . ... : F-4 02 . ... : 4-# 05 . ... : ... .. . ...
ROW 31 : ... .. . ... : ... .. . ... : ... .. . ... : ... .. . ... : ... .. . ...
ROW 32 : ... .. . ... : ... .. . ... : ... .. . ... : 4-# 05 . ... : ... .. . ...
ROW 33 : ... .. . ... : ... .. . ... : ... .. . ... : ... .. . ... : ... .. . ...
ROW 34 : ... .. . ... : ... .. . ... : ... .. . ... : 6-# 05 . ... : ... .. . ...
ROW 35 : ... .. . ... : ... .. . ... : ... .. . ... : ... .. . ... : ... .. . ...
ROW 36 : ... .. . ... : ... .. . ... : ... .. . ... : 0-# 06 . ... : ... .. . ...
ROW 37 : ... .. . ... : ... .. . ... : ... .. . ... : ... .. . ... : ... .. . ...
ROW 38 : D-3 02 . ... : C-5 02 . ... : ... .. . ... : 0-# 06 . ... : ... .. . ...
ROW 39 : ... .. . ... : ... .. . ... : ... .. . ... : ... .. . ... : ... .. . ...
ROW 3A : ... .. . ... : ... .. . ... : ... .. . ... : 0-# 06 . ... : ... .. . ...
ROW 3B : ... .. . ... : ... .. . ... : ... .. . ... : ... .. . ... : ... .. . ...
ROW 3C : ... .. . ... : ... .. . ... : ... .. . ... : 0-# 06 . ... : ... .. . ...
ROW 3D : ... .. . ... : ... .. . ... : ... .. . ... : ... .. . ... : ... .. . ...
ROW 3E : ... .. . ... : ... .. . ... : ... .. . ... : 0-# 06 . ... : ... .. . ...
ROW 3F : ... .. . ... : ... .. . ... : ... .. . ... : ... .. . ... : ... .. . ...

PATTERN 0B
ROW 00 : G-2 02 . ... : D-4 02 . ... : G-4 14 . ... : 4-# 05 . ... : ... .. . ...
ROW 01 : ... .. . ... : ... .. . ... : ... .. . ... : ... .. . ... : ... .. . ...
ROW 02 : ... .. . ... : F-4 02 . ... : ... .. . ... : 0-# 06 . ... : ... .. . ...
ROW 03 : ... .. . ... : ... .. . ... : ... .. . ... : ... .. . ... : ... .. . ...
ROW 04 : ... .. . ... : C-5 02 . ... : ... .. . ... : 4-# 05 . ... : ... .. . ...
ROW 05 : ... .. . ... : ... .. . ... : ... .. . ... : ... .. . ... : ... .. . ...
ROW 06 : ... .. . ... : A-4 02 . ... : ... .. . ... : 6-# 05 . ... : ... .. . ...
ROW 07 : ... .. . ... : ... .. . ... : ... .. . ... : ... .. . ... : ... .. . ...
ROW 08 : ... .. . ... : G-4 02 . ... : A-4 14 . ... : 0-# 06 . ... : ... .. . ...
ROW 09 : ... .. . ... : ... .. . ... : ... .. . ... : ... .. . ... : ... .. . ...
ROW 0A : ... .. . ... : A-4 02 . ... : B-4 14 . ... : 0-# 06 . ... : ... .. . ...
ROW 0B : ... .. . ... : ... .. . ... : ... .. . ... : ... .. . ... : ... .. . ...
ROW 0C : ... .. . ... : G-4 02 . ... : ... .. . ... : 4-# 05 . ... : ... .. . ...
ROW 0D : ... .. . ... : ... .. . ... : ... .. . ... : ... .. . ... : ... .. . ...
ROW 0E : ... .. . ... : F-4 02 . ... : ... .. . ... : ... .. . ... : ... .. . ...
ROW 0F : ... .. . ... : ... .. . ... : ... .. . ... : ... .. . ... : ... .. . ...
ROW 10 : F-2 02 . ... : E-4 02 . ... : C-4 14 . ... : 4-# 05 . ... : ... .. . ...
ROW 11 : ... .. . ... : ... .. . ... : ... .. . ... : ... .. . ... : ... .. . ...
ROW 12 : ... .. . ... : F-4 02 . ... : ... .. . ... : 4-# 05 . ... : ... .. . ...
ROW 13 : ... .. . ... : ... .. . ... : ... .. . ... : ... .. . ... : ... .. . ...
ROW 14 : ... .. . ... : G-4 02 . ... : ... .. . ... : 6-# 05 . ... : ... .. . ...
ROW 15 : ... .. . ... : ... .. . ... : ... .. . ... : ... .. . ... : ... .. . ...
ROW 16 : ... .. . ... : A-4 02 . ... : ... .. . ... : ... .. . ... : ... .. . ...
ROW 17 : ... .. . ... : ... .. . ... : ... .. . ... : ... .. . ... : ... .. . ...
ROW 18 : ... .. . ... : B-4 02 . ... : ... .. . ... : 0-# 06 . ... : ... .. . ...
ROW 19 : ... .. . ... : ... .. . ... : ... .. . ... : ... .. . ... : ... .. . ...
ROW 1A : ... .. . ... : C-5 02 . ... : ... .. . ... : 0-# 06 . ... : ... .. . ...
ROW 1B : ... .. . ... : ... .. . ... : ... .. . ... : ... .. . ... : ... .. . ...
ROW 1C : ... .. . ... : ... .. . ... : ... .. . ... : 4-# 05 . ... : ... .. . ...
ROW 1D : ... .. . ... : ... .. . ... : ... .. . ... : ... .. . ... : ... .. . ...
ROW 1E : ... .. . ... : ... .. . ... : ... .. . ... : ... .. . ... : ... .. . ...
ROW 1F : ... .. . ... : ... .. . ... : ... .. . ... : ... .. . ... : ... .. . ...
ROW 20 : E-2 02 . ... : A-4 02 . ... : E-2 14 . ... : 4-# 05 . ... : ... .. . ...
ROW 21 : ... .. . ... : ... .. . ... : ... .. . ... : ... .. . ... : ... .. . ...
ROW 22 : ... .. . ... : G-4 02 . ... : ... .. . ... : ... .. . ... : ... .. . ...
ROW 23 : ... .. . ... : ... .. . ... : ... .. . ... : ... .. . ... : ... .. . ...
ROW 24 : ... .. . ... : F-4 02 . ... : ... .. . ... : 4-# 05 . ... : ... .. . ...
ROW 25 : ... .. . ... : ... .. . ... : ... .. . ... : ... .. . ... : ... .. . ...
ROW 26 : ... .. . ... : D-4 02 . ... : ... .. . ... : 6-# 05 . ... : ... .. . ...
ROW 27 : ... .. . ... : ... .. . ... : ... .. . ... : ... .. . ... : ... .. . ...
ROW 28 : F-2 02 . ... : G-4 02 . ... : F-2 14 . ... : 0-# 06 . ... : ... .. . ...
ROW 29 : ... .. . ... : ... .. . ... : ... .. . ... : ... .. . ... : ... .. . ...
ROW 2A : ... .. . ... : ... .. . ... : ... .. . ... : 0-# 06 . ... : ... .. . ...
ROW 2B : ... .. . ... : ... .. . ... : ... .. . ... : ... .. . ... : ... .. . ...
ROW 2C : ... .. . ... : F-4 02 . ... : ... .. . ... : 4-# 05 . ... : ... .. . ...
ROW 2D : ... .. . ... : ... .. . ... : ... .. . ... : ... .. . ... : ... .. . ...
ROW 2E : ... .. . ... : ... .. . ... : ... .. . ... : ... .. . ... : ... .. . ...
ROW 2F : ... .. . ... : ... .. . ... : ... .. . ... : ... .. . ... : ... .. . ...
ROW 30 : C-3 02 . ... : A-4 02 . ... : C-3 14 . ... : 4-# 05 . ... : ... .. . ...
ROW 31 : ... .. . ... : ... .. . ... : ... .. . ... : ... .. . ... : ... .. . ...
ROW 32 : ... .. . ... : G-4 02 . ... : ... .. . ... : 4-# 05 . ... : ... .. . ...
ROW 33 : ... .. . ... : ... .. . ... : ... .. . ... : ... .. . ... : ... .. . ...
ROW 34 : ... .. . ... : E-4 02 . ... : ... .. . ... : 6-# 05 . ... : ... .. . ...
ROW 35 : ... .. . ... : ... .. . ... : ... .. . ... : ... .. . ... : ... .. . ...
ROW 36 : ... .. . ... : C-4 02 . ... : ... .. . ... : 0-# 06 . ... : ... .. . ...
ROW 37 : ... .. . ... : ... .. . ... : ... .. . ... : ... .. . ... : ... .. . ...
ROW 38 : D-3 02 . ... : D-4 02 . ... : D-3 14 . ... : 0-# 06 . ... : ... .. . ...
ROW 39 : ... .. . ... : ... .. . ... : ... .. . ... : ... .. . ... : ... .. . ...
ROW 3A : ... .. . ... : ... .. . ... : ... .. . ... : 0-# 06 . ... : ... .. . ...
ROW 3B : ... .. . ... : ... .. . ... : ... .. . ... : ... .. . ... : ... .. . ...
ROW 3C : ... .. . ... : ... .. . ... : ... .. . ... : 0-# 06 . ... : ... .. . ...
ROW 3D : ... .. . ... : ... .. . ... : ... .. . ... : ... .. . ... : ... .. . ...
ROW 3E : ... .. . ... : ... .. . ... : ... .. . ... : 0-# 06 . ... : ... .. . ...
ROW 3F : ... .. . ... : ... .. . ... : ... .. . ... : ... .. . ... : ... .. . ...

PATTERN 0C
ROW 00 : C-3 11 . ... : A-4 02 . ... : C-5 14 . ... : 4-# 05 . ... : ... .. . ...
ROW 01 : ... .. . ... : ... .. . ... : ... .. . ... : ... .. . ... : ... .. . ...
ROW 02 : ... .. . ... : ... .. . ... : ... .. . ... : ... .. . ... : ... .. . ...
ROW 03 : ... .. . ... : ... .. . ... : ... .. . ... : ... .. . ... : ... .. . ...
ROW 04 : D-3 11 . ... : G-4 02 . ... : D-5 14 . ... : 4-# 05 . ... : ... .. . ...
ROW 05 : ... .. . ... : ... .. . ... : ... .. . ... : ... .. . ... : ... .. . ...
ROW 06 : ... .. . ... : ... .. . ... : ... .. . ... : 6-# 05 . ... : ... .. . ...
ROW 07 : ... .. . ... : ... .. . ... : ... .. . ... : ... .. . ... : ... .. . ...
ROW 08 : E-3 11 . ... : ... .. . ... : E-5 14 . ... : ... .. . ... : ... .. . ...
ROW 09 : ... .. . ... : ... .. . ... : ... .. . ... : ... .. . ... : ... .. . ...
ROW 0A : D-3 11 . ... : F-4 02 . ... : D-5 14 . ... : ... .. . ... : ... .. . ...
ROW 0B : ... .. . ... : ... .. . ... : ... .. . ... : ... .. . ... : ... .. . ...
ROW 0C : C-3 11 . ... : A-4 02 . ... : C-5 14 . ... : 4-# 05 . ... : ... .. . ...
ROW 0D : ... .. . ... : ... .. . ... : ... .. . ... : ... .. . ... : ... .. . ...
ROW 0E : D-3 11 . ... : ... .. . ... : D-5 14 . ... : ... .. . ... : ... .. . ...
ROW 0F : ... .. . ... : ... .. . ... : ... .. . ... : ... .. . ... : ... .. . ...
ROW 10 : B-2 11 . ... : B-4 02 . ... : B-4 14 . ... : 4-# 05 . ... : ... .. . ...
ROW 11 : ... .. . ... : ... .. . ... : ... .. . ... : ... .. . ... : ... .. . ...
ROW 12 : A-2 11 . ... : C-5 02 . ... : A-4 14 . ... : 4-# 05 . ... : ... .. . ...
ROW 13 : ... .. . ... : ... .. . ... : ... .. . ... : ... .. . ... : ... .. . ...
ROW 14 : G-2 11 . ... : B-4 02 . ... : G-4 14 . ... : 6-# 05 . ... : ... .. . ...
ROW 15 : ... .. . ... : ... .. . ... : ... .. . ... : ... .. . ... : ... .. . ...
ROW 16 : A-2 11 . ... : ... .. . ... : A-4 14 . ... : ... .. . ... : ... .. . ...
ROW 17 : ... .. . ... : ... .. . ... : ... .. . ... : ... .. . ... : ... .. . ...
ROW 18 : C-3 11 . ... : ... .. . ... : C-5 14 . ... : ... .. . ... : ... .. . ...
ROW 19 : ... .. . ... : ... .. . ... : ... .. . ... : ... .. . ... : ... .. . ...
ROW 1A : A-2 11 . ... : ... .. . ... : A-4 14 . ... : ... .. . ... : ... .. . ...
ROW 1B : ... .. . ... : ... .. . ... : ... .. . ... : ... .. . ... : ... .. . ...
ROW 1C : C-3 11 . ... : D-5 02 . ... : C-5 14 . ... : 4-# 05 . ... : ... .. . ...
ROW 1D : ... .. . ... : ... .. . ... : ... .. . ... : ... .. . ... : ... .. . ...
ROW 1E : D-3 11 . ... : ... .. . ... : D-5 14 . ... : ... .. . ... : ... .. . ...
ROW 1F : ... .. . ... : ... .. . ... : ... .. . ... : ... .. . ... : ... .. . ...
ROW 20 : E-3 11 . ... : F-5 02 . ... : E-5 14 . ... : 4-# 05 . ... : ... .. . ...
ROW 21 : ... .. . ... : ... .. . ... : ... .. . ... : ... .. . ... : ... .. . ...
ROW 22 : ... .. . ... : E-5 02 . ... : ... .. . ... : ... .. . ... : ... .. . ...
ROW 23 : ... .. . ... : ... .. . ... : ... .. . ... : ... .. . ... : ... .. . ...
ROW 24 : ... .. . ... : D-5 02 . ... : ... .. . ... : 4-# 05 . ... : ... .. . ...
ROW 25 : ... .. . ... : ... .. . ... : ... .. . ... : ... .. . ... : ... .. . ...
ROW 26 : ... .. . ... : C-5 02 . ... : ... .. . ... : 6-# 05 . ... : ... .. . ...
ROW 27 : ... .. . ... : ... .. . ... : ... .. . ... : ... .. . ... : ... .. . ...
ROW 28 : G-3 11 . ... : A-4 02 . ... : G-5 14 . ... : ... .. . ... : ... .. . ...
ROW 29 : ... .. . ... : ... .. . ... : ... .. . ... : ... .. . ... : ... .. . ...
ROW 2A : ... .. . ... : G-4 02 . ... : ... .. . ... : ... .. . ... : ... .. . ...
ROW 2B : ... .. . ... : ... .. . ... : ... .. . ... : ... .. . ... : ... .. . ...
ROW 2C : A-3 11 . ... : F-4 02 . ... : A-5 14 . ... : 4-# 05 . ... : ... .. . ...
ROW 2D : ... .. . ... : ... .. . ... : ... .. . ... : ... .. . ... : ... .. . ...
ROW 2E : ... .. . ... : ... .. . ... : ... .. . ... : ... .. . ... : ... .. . ...
ROW 2F : ... .. . ... : ... .. . ... : ... .. . ... : ... .. . ... : ... .. . ...
ROW 30 : G-3 11 . ... : C-4 02 . ... : G-5 14 . ... : 4-# 05 . ... : ... .. . ...
ROW 31 : ... .. . ... : ... .. . ... : ... .. . ... : ... .. . ... : ... .. . ...
ROW 32 : E-3 11 . ... : E-4 02 . ... : E-5 14 . ... : 4-# 05 . ... : ... .. . ...
ROW 33 : ... .. . ... : ... .. . ... : ... .. . ... : ... .. . ... : ... .. . ...
ROW 34 : G-3 11 . ... : G-4 02 . ... : G-5 14 . ... : 6-# 05 . ... : ... .. . ...
ROW 35 : ... .. . ... : ... .. . ... : ... .. . ... : ... .. . ... : ... .. . ...
ROW 36 : E-3 11 . ... : A-4 02 . ... : E-5 14 . ... : ... .. . ... : ... .. . ...
ROW 37 : ... .. . ... : ... .. . ... : ... .. . ... : ... .. . ... : ... .. . ...
ROW 38 : D-3 11 . ... : C-5 02 . ... : D-5 14 . ... : ... .. . ... : ... .. . ...
ROW 39 : ... .. . ... : ... .. . ... : ... .. . ... : ... .. . ... : ... .. . ...
ROW 3A : C-3 11 . ... : A-4 02 . ... : C-5 14 . ... : ... .. . ... : ... .. . ...
ROW 3B : ... .. . ... : ... .. . ... : ... .. . ... : ... .. . ... : ... .. . ...
ROW 3C : ... .. . ... : G-4 02 . ... : ... .. . ... : ... .. . ... : ... .. . ...
ROW 3D : ... .. . ... : ... .. . ... : ... .. . ... : ... .. . ... : ... .. . ...
ROW 3E : ... .. . ... : E-4 02 . ... : ... .. . ... : ... .. . ... : ... .. . ...
ROW 3F : ... .. . ... : ... .. . ... : ... .. . ... : ... .. . ... : ... .. . ...

PATTERN 0D
ROW 00 : G-2 02 . ... : D-4 0B . ... : D-4 14 . ... : ... .. . ... : ... .. . ...
ROW 01 : ... .. . ... : ... .. . ... : ... .. . ... : ... .. . ... : ... .. . ...
ROW 02 : ... .. . ... : ... .. . ... : F-4 14 . ... : ... .. . ... : ... .. . ...
ROW 03 : ... .. . ... : ... .. . ... : ... .. . ... : ... .. . ... : ... .. . ...
ROW 04 : ... .. . ... : ... .. . ... : C-5 14 . ... : ... .. . ... : ... .. . ...
ROW 05 : ... .. . ... : ... .. . ... : ... .. . ... : ... .. . ... : ... .. . ...
ROW 06 : ... .. . ... : ... .. . ... : A-4 14 . ... : ... .. . ... : ... .. . ...
ROW 07 : ... .. . ... : ... .. . ... : ... .. . ... : ... .. . ... : ... .. . ...
ROW 08 : ... .. . ... : D-4 0A . ... : G-4 14 . ... : ... .. . ... : ... .. . ...
ROW 09 : ... .. . ... : ... .. . ... : ... .. . ... : ... .. . ... : ... .. . ...
ROW 0A : ... .. . ... : D-4 0A . ... : ... .. . ... : ... .. . ... : ... .. . ...
ROW 0B : ... .. . ... : ... .. . ... : ... .. . ... : ... .. . ... : ... .. . ...
ROW 0C : ... .. . ... : D-4 0A . ... : ... .. . ... : ... .. . ... : ... .. . ...
ROW 0D : ... .. . ... : ... .. . ... : ... .. . ... : ... .. . ... : ... .. . ...
ROW 0E : ... .. . ... : ... .. . ... : ... .. . ... : ... .. . ... : ... .. . ...
ROW 0F : ... .. . ... : ... .. . ... : ... .. . ... : ... .. . ... : ... .. . ...
ROW 10 : F-2 02 . ... : ... .. . ... : E-4 14 . ... : ... .. . ... : ... .. . ...
ROW 11 : ... .. . ... : ... .. . ... : ... .. . ... : ... .. . ... : ... .. . ...
ROW 12 : ... .. . ... : ... .. . ... : ... .. . ... : ... .. . ... : ... .. . ...
ROW 13 : ... .. . ... : ... .. . ... : ... .. . ... : ... .. . ... : ... .. . ...
ROW 14 : ... .. . ... : ... .. . ... : A-4 14 . ... : ... .. . ... : ... .. . ...
ROW 15 : ... .. . ... : ... .. . ... : ... .. . ... : ... .. . ... : ... .. . ...
ROW 16 : ... .. . ... : ... .. . ... : G-4 14 . ... : ... .. . ... : ... .. . ...
ROW 17 : ... .. . ... : ... .. . ... : ... .. . ... : ... .. . ... : ... .. . ...
ROW 18 : ... .. . ... : ... .. . ... : F-4 14 . ... : ... .. . ... : ... .. . ...
ROW 19 : ... .. . ... : ... .. . ... : ... .. . ... : ... .. . ... : ... .. . ...
ROW 1A : ... .. . ... : ... .. . ... : D-4 14 . ... : ... .. . ... : ... .. . ...
ROW 1B : ... .. . ... : ... .. . ... : ... .. . ... : ... .. . ... : ... .. . ...
ROW 1C : ... .. . ... : ... .. . ... : G-4 14 . ... : ... .. . ... : ... .. . ...
ROW 1D : ... .. . ... : ... .. . ... : ... .. . ... : ... .. . ... : ... .. . ...
ROW 1E : ... .. . ... : ... .. . ... : ... .. . ... : ... .. . ... : ... .. . ...
ROW 1F : ... .. . ... : ... .. . ... : ... .. . ... : ... .. . ... : ... .. . ...
ROW 20 : E-2 02 . ... : ... .. . ... : A-4 14 . ... : ... .. . ... : ... .. . ...
ROW 21 : ... .. . ... : ... .. . ... : ... .. . ... : ... .. . ... : ... .. . ...
ROW 22 : ... .. . ... : ... .. . ... : G-4 14 . ... : ... .. . ... : ... .. . ...
ROW 23 : ... .. . ... : ... .. . ... : ... .. . ... : ... .. . ... : ... .. . ...
ROW 24 : ... .. . ... : ... .. . ... : F-4 14 . ... : ... .. . ... : ... .. . ...
ROW 25 : ... .. . ... : ... .. . ... : ... .. . ... : ... .. . ... : ... .. . ...
ROW 26 : ... .. . ... : ... .. . ... : D-4 14 . ... : ... .. . ... : ... .. . ...
ROW 27 : ... .. . ... : ... .. . ... : ... .. . ... : ... .. . ... : ... .. . ...
ROW 28 : F-2 02 . ... : ... .. . ... : G-4 14 . ... : ... .. . ... : ... .. . ...
ROW 29 : ... .. . ... : ... .. . ... : ... .. . ... : ... .. . ... : ... .. . ...
ROW 2A : ... .. . ... : ... .. . ... : ... .. . ... : ... .. . ... : ... .. . ...
ROW 2B : ... .. . ... : ... .. . ... : ... .. . ... : ... .. . ... : ... .. . ...
ROW 2C : ... .. . ... : ... .. . ... : F-4 14 . ... : ... .. . ... : ... .. . ...
ROW 2D : ... .. . ... : ... .. . ... : ... .. . ... : ... .. . ... : ... .. . ...
ROW 2E : ... .. . ... : ... .. . ... : ... .. . ... : ... .. . ... : ... .. . ...
ROW 2F : ... .. . ... : ... .. . ... : ... .. . ... : ... .. . ... : ... .. . ...
ROW 30 : C-3 02 . ... : ... .. . ... : A-4 14 . ... : ... .. . ... : ... .. . ...
ROW 31 : ... .. . ... : ... .. . ... : ... .. . ... : ... .. . ... : ... .. . ...
ROW 32 : ... .. . ... : ... .. . ... : G-4 14 . ... : ... .. . ... : ... .. . ...
ROW 33 : ... .. . ... : ... .. . ... : ... .. . ... : ... .. . ... : ... .. . ...
ROW 34 : ... .. . ... : ... .. . ... : E-4 14 . ... : ... .. . ... : ... .. . ...
ROW 35 : ... .. . ... : ... .. . ... : ... .. . ... : ... .. . ... : ... .. . ...
ROW 36 : ... .. . ... : ... .. . ... : C-4 14 . ... : ... .. . ... : ... .. . ...
ROW 37 : ... .. . ... : ... .. . ... : ... .. . ... : ... .. . ... : ... .. . ...
ROW 38 : D-3 02 . ... : ... .. . ... : D-4 14 . ... : ... .. . ... : ... .. . ...
ROW 39 : ... .. . ... : ... .. . ... : ... .. . ... : ... .. . ... : ... .. . ...
ROW 3A : ... .. . ... : ... .. . ... : ... .. . ... : ... .. . ... : ... .. . ...
ROW 3B : ... .. . ... : ... .. . ... : ... .. . ... : ... .. . ... : ... .. . ...
ROW 3C : ... .. . ... : ... .. . ... : ... .. . ... : ... .. . ... : ... .. . ...
ROW 3D : ... .. . ... : ... .. . ... : ... .. . ... : ... .. . ... : ... .. . ...
ROW 3E : ... .. . ... : ... .. . ... : ... .. . ... : ... .. . ... : ... .. . ...
ROW 3F : ... .. . ... : ... .. . ... : ... .. . ... : ... .. . ... : ... .. . ...

PATTERN 0E
ROW 00 : G-2 02 . ... : F-3 02 . ... : G-4 14 . ... : 4-# 05 . ... : ... .. . ...
ROW 01 : ... .. . ... : ... .. . ... : ... .. . ... : ... .. . ... : ... .. . ...
ROW 02 : ... .. . ... : ... .. . ... : ... .. . ... : ... .. . ... : ... .. . ...
ROW 03 : ... .. . ... : ... .. . ... : ... .. . ... : ... .. . ... : ... .. . ...
ROW 04 : ... .. . ... : ... .. . ... : ... .. . ... : 4-# 05 . ... : ... .. . ...
ROW 05 : ... .. . ... : ... .. . ... : ... .. . ... : ... .. . ... : ... .. . ...
ROW 06 : ... .. . ... : ... .. . ... : ... .. . ... : 6-# 05 . ... : ... .. . ...
ROW 07 : ... .. . ... : ... .. . ... : ... .. . ... : ... .. . ... : ... .. . ...
ROW 08 : ... .. . ... : ... .. . ... : A-4 14 . ... : ... .. . ... : ... .. . ...
ROW 09 : ... .. . ... : ... .. . ... : ... .. . ... : ... .. . ... : ... .. . ...
ROW 0A : ... .. . ... : ... .. . ... : B-4 14 . ... : ... .. . ... : ... .. . ...
ROW 0B : ... .. . ... : ... .. . ... : ... .. . ... : ... .. . ... : ... .. . ...
ROW 0C : ... .. . ... : G-3 02 . ... : ... .. . ... : 4-# 05 . ... : ... .. . ...
ROW 0D : ... .. . ... : ... .. . ... : ... .. . ... : ... .. . ... : ... .. . ...
ROW 0E : ... .. . ... : ... .. . ... : ... .. . ... : ... .. . ... : ... .. . ...
ROW 0F : ... .. . ... : ... .. . ... : ... .. . ... : ... .. . ... : ... .. . ...
ROW 10 : F-2 02 . ... : A-3 02 . ... : G-4 14 . ... : 4-# 05 . ... : ... .. . ...
ROW 11 : ... .. . ... : ... .. . ... : ... .. . ... : ... .. . ... : ... .. . ...
ROW 12 : ... .. . ... : ... .. . ... : ... .. . ... : 4-# 05 . ... : ... .. . ...
ROW 13 : ... .. . ... : ... .. . ... : ... .. . ... : ... .. . ... : ... .. . ...
ROW 14 : ... .. . ... : ... .. . ... : ... .. . ... : 6-# 05 . ... : ... .. . ...
ROW 15 : ... .. . ... : ... .. . ... : ... .. . ... : ... .. . ... : ... .. . ...
ROW 16 : ... .. . ... : ... .. . ... : ... .. . ... : ... .. . ... : ... .. . ...
ROW 17 : ... .. . ... : ... .. . ... : ... .. . ... : ... .. . ... : ... .. . ...
ROW 18 : ... .. . ... : ... .. . ... : C-5 14 . ... : ... .. . ... : ... .. . ...
ROW 19 : ... .. . ... : ... .. . ... : ... .. . ... : ... .. . ... : ... .. . ...
ROW 1A : ... .. . ... : ... .. . ... : ... .. . ... : ... .. . ... : ... .. . ...
ROW 1B : ... .. . ... : ... .. . ... : ... .. . ... : ... .. . ... : ... .. . ...
ROW 1C : ... .. . ... : ... .. . ... : ... .. . ... : 4-# 05 . ... : ... .. . ...
ROW 1D : ... .. . ... : ... .. . ... : ... .. . ... : ... .. . ... : ... .. . ...
ROW 1E : ... .. . ... : ... .. . ... : ... .. . ... : ... .. . ... : ... .. . ...
ROW 1F : ... .. . ... : ... .. . ... : ... .. . ... : ... .. . ... : ... .. . ...
ROW 20 : E-2 02 . ... : C-4 02 . ... : E-2 14 . ... : 4-# 05 . ... : ... .. . ...
ROW 21 : ... .. . ... : ... .. . ... : ... .. . ... : ... .. . ... : ... .. . ...
ROW 22 : ... .. . ... : ... .. . ... : ... .. . ... : ... .. . ... : ... .. . ...
ROW 23 : ... .. . ... : ... .. . ... : ... .. . ... : ... .. . ... : ... .. . ...
ROW 24 : ... .. . ... : ... .. . ... : ... .. . ... : 4-# 05 . ... : ... .. . ...
ROW 25 : ... .. . ... : ... .. . ... : ... .. . ... : ... .. . ... : ... .. . ...
ROW 26 : ... .. . ... : ... .. . ... : ... .. . ... : 6-# 05 . ... : ... .. . ...
ROW 27 : ... .. . ... : ... .. . ... : ... .. . ... : ... .. . ... : ... .. . ...
ROW 28 : F-2 02 . ... : ... .. . ... : F-2 14 . ... : ... .. . ... : ... .. . ...
ROW 29 : ... .. . ... : ... .. . ... : ... .. . ... : ... .. . ... : ... .. . ...
ROW 2A : ... .. . ... : ... .. . ... : ... .. . ... : ... .. . ... : ... .. . ...
ROW 2B : ... .. . ... : ... .. . ... : ... .. . ... : ... .. . ... : ... .. . ...
ROW 2C : ... .. . ... : ... .. . ... : ... .. . ... : 4-# 05 . ... : ... .. . ...
ROW 2D : ... .. . ... : ... .. . ... : ... .. . ... : ... .. . ... : ... .. . ...
ROW 2E : ... .. . ... : ... .. . ... : ... .. . ... : ... .. . ... : ... .. . ...
ROW 2F : ... .. . ... : ... .. . ... : ... .. . ... : ... .. . ... : ... .. . ...
ROW 30 : C-3 02 . ... : ... .. . ... : C-3 14 . ... : 4-# 05 . ... : ... .. . ...
ROW 31 : ... .. . ... : ... .. . ... : ... .. . ... : ... .. . ... : ... .. . ...
ROW 32 : ... .. . ... : ... .. . ... : ... .. . ... : 4-# 05 . ... : ... .. . ...
ROW 33 : ... .. . ... : ... .. . ... : ... .. . ... : ... .. . ... : ... .. . ...
ROW 34 : ... .. . ... : ... .. . ... : ... .. . ... : 6-# 05 . ... : ... .. . ...
ROW 35 : ... .. . ... : ... .. . ... : ... .. . ... : ... .. . ... : ... .. . ...
ROW 36 : ... .. . ... : ... .. . ... : ... .. . ... : ... .. . ... : ... .. . ...
ROW 37 : ... .. . ... : ... .. . ... : ... .. . ... : ... .. . ... : ... .. . ...
ROW 38 : D-3 02 . ... : ... .. . ... : D-3 14 . ... : ... .. . ... : ... .. . ...
ROW 39 : ... .. . ... : ... .. . ... : ... .. . ... : ... .. . ... : ... .. . ...
ROW 3A : ... .. . ... : ... .. . ... : ... .. . ... : ... .. . ... : ... .. . ...
ROW 3B : ... .. . ... : ... .. . ... : ... .. . ... : ... .. . ... : ... .. . ...
ROW 3C : ... .. . ... : E-3 02 . ... : ... .. . ... : ... .. . ... : ... .. . ...
ROW 3D : ... .. . ... : ... .. . ... : ... .. . ... : ... .. . ... : ... .. . ...
ROW 3E : ... .. . ... : ... .. . ... : ... .. . ... : ... .. . ... : ... .. . ...
ROW 3F : ... .. . ... : ... .. . ... : ... .. . ... : ... .. . ... : ... .. . ...

PATTERN 0F
ROW 00 : F-4 0B . ... : A-4 02 . ... : A-4 0B . ... : 4-# 05 . ... : ... .. . ...
ROW 01 : ... .. . ... : ... .. . ... : ... .. . ... : ... .. . ... : ... .. . ...
ROW 02 : ... .. . ... : ... .. . ... : ... .. . ... : 4-# 05 . ... : ... .. . ...
ROW 03 : ... .. . ... : ... .. . ... : ... .. . ... : ... .. . ... : ... .. . ...
ROW 04 : ... .. . ... : G-4 02 . ... : ... .. . ... : 6-# 05 . ... : ... .. . ...
ROW 05 : ... .. . ... : ... .. . ... : ... .. . ... : ... .. . ... : ... .. . ...
ROW 06 : ... .. . ... : ... .. . ... : ... .. . ... : ... .. . ... : ... .. . ...
ROW 07 : ... .. . ... : ... .. . ... : ... .. . ... : ... .. . ... : ... .. . ...
ROW 08 : F-4 0A . ... : A-4 02 . ... : A-4 0A . ... : 0-# 06 . ... : ... .. . ...
ROW 09 : ... .. . ... : ... .. . ... : ... .. . ... : ... .. . ... : ... .. . ...
ROW 0A : F-4 0A . ... : ... .. . ... : A-4 0A . ... : 0-# 06 . ... : ... .. . ...
ROW 0B : ... .. . ... : ... .. . ... : ... .. . ... : ... .. . ... : ... .. . ...
ROW 0C : F-4 0A . ... : G-4 02 . ... : A-4 0A . ... : 0-# 06 . ... : ... .. . ...
ROW 0D : ... .. . ... : ... .. . ... : ... .. . ... : ... .. . ... : ... .. . ...
ROW 0E : ... .. . ... : ... .. . ... : ... .. . ... : ... .. . ... : ... .. . ...
ROW 0F : ... .. . D00 : ... .. . ... : ... .. . ... : ... .. . ... : ... .. . ...
ROW 10 : ... .. . ... : B-4 02 . ... : ... .. . ... : ... .. . ... : ... .. . ...
ROW 11 : ... .. . ... : ... .. . ... : ... .. . ... : ... .. . ... : ... .. . ...
ROW 12 : ... .. . ... : A-4 02 . ... : ... .. . ... : ... .. . ... : ... .. . ...
ROW 13 : ... .. . ... : ... .. . ... : ... .. . ... : ... .. . ... : ... .. . ...
ROW 14 : ... .. . ... : G-4 02 . ... : ... .. . ... : ... .. . ... : ... .. . ...
ROW 15 : ... .. . ... : ... .. . ... : ... .. . ... : ... .. . ... : ... .. . ...
ROW 16 : ... .. . ... : F-4 02 . ... : ... .. . ... : ... .. . ... : ... .. . ...
ROW 17 : ... .. . ... : ... .. . ... : ... .. . ... : ... .. . ... : ... .. . ...
ROW 18 : ... .. . ... : G-4 02 . ... : ... .. . ... : ... .. . ... : ... .. . ...
ROW 19 : ... .. . ... : ... .. . ... : ... .. . ... : ... .. . ... : ... .. . ...
ROW 1A : ... .. . ... : A-4 02 . ... : ... .. . ... : ... .. . ... : ... .. . ...
ROW 1B : ... .. . ... : ... .. . ... : ... .. . ... : ... .. . ... : ... .. . ...
ROW 1C : ... .. . ... : B-4 02 . ... : ... .. . ... : ... .. . ... : ... .. . ...
ROW 1D : ... .. . ... : ... .. . ... : ... .. . ... : ... .. . ... : ... .. . ...
ROW 1E : ... .. . ... : D-5 02 . ... : ... .. . ... : ... .. . ... : ... .. . ...
ROW 1F : ... .. . ... : ... .. . ... : ... .. . ... : ... .. . ... : ... .. . ...
ROW 20 : ... .. . ... : B-4 02 . ... : ... .. . ... : ... .. . ... : ... .. . ...
ROW 21 : ... .. . ... : ... .. . ... : ... .. . ... : ... .. . ... : ... .. . ...
ROW 22 : ... .. . ... : ... .. . ... : ... .. . ... : ... .. . ... : ... .. . ...
ROW 23 : ... .. . ... : ... .. . ... : ... .. . ... : ... .. . ... : ... .. . ...
ROW 24 : ... .. . ... : ... .. . ... : ... .. . ... : ... .. . ... : ... .. . ...
ROW 25 : ... .. . ... : ... .. . ... : ... .. . ... : ... .. . ... : ... .. . ...
ROW 26 : ... .. . ... : ... .. . ... : ... .. . ... : ... .. . ... : ... .. . ...
ROW 27 : ... .. . ... : ... .. . ... : ... .. . ... : ... .. . ... : ... .. . ...
ROW 28 : ... .. . ... : A-4 02 . ... : ... .. . ... : ... .. . ... : ... .. . ...
ROW 29 : ... .. . ... : ... .. . ... : ... .. . ... : ... .. . ... : ... .. . ...
ROW 2A : ... .. . ... : ... .. . ... : ... .. . ... : ... .. . ... : ... .. . ...
ROW 2B : ... .. . ... : ... .. . ... : ... .. . ... : ... .. . ... : ... .. . ...
ROW 2C : ... .. . ... : ... .. . ... : ... .. . ... : ... .. . ... : ... .. . ...
ROW 2D : ... .. . ... : ... .. . ... : ... .. . ... : ... .. . ... : ... .. . ...
ROW 2E : ... .. . ... : ... .. . ... : ... .. . ... : ... .. . ... : ... .. . ...
ROW 2F : ... .. . ... : ... .. . ... : ... .. . ... : ... .. . ... : ... .. . ...
ROW 30 : ... .. . ... : C-4 02 . ... : ... .. . ... : ... .. . ... : ... .. . ...
ROW 31 : ... .. . ... : ... .. . ... : ... .. . ... : ... .. . ... : ... .. . ...
ROW 32 : ... .. . ... : ... .. . ... : ... .. . ... : ... .. . ... : ... .. . ...
ROW 33 : ... .. . ... : ... .. . ... : ... .. . ... : ... .. . ... : ... .. . ...
ROW 34 : ... .. . ... : ... .. . ... : ... .. . ... : ... .. . ... : ... .. . ...
ROW 35 : ... .. . ... : ... .. . ... : ... .. . ... : ... .. . ... : ... .. . ...
ROW 36 : ... .. . ... : ... .. . ... : ... .. . ... : ... .. . ... : ... .. . ...
ROW 37 : ... .. . ... : ... .. . ... : ... .. . ... : ... .. . ... : ... .. . ...
ROW 38 : ... .. . ... : C-5 02 . ... : ... .. . ... : ... .. . ... : ... .. . ...
ROW 39 : ... .. . ... : ... .. . ... : ... .. . ... : ... .. . ... : ... .. . ...
ROW 3A : ... .. . ... : ... .. . ... : ... .. . ... : ... .. . ... : ... .. . ...
ROW 3B : ... .. . ... : ... .. . ... : ... .. . ... : ... .. . ... : ... .. . ...
ROW 3C : ... .. . ... : ... .. . ... : ... .. . ... : ... .. . ... : ... .. . ...
ROW 3D : ... .. . ... : ... .. . ... : ... .. . ... : ... .. . ... : ... .. . ...
ROW 3E : ... .. . ... : ... .. . ... : ... .. . ... : ... .. . ... : ... .. . ...
ROW 3F : ... .. . ... : ... .. . ... : ... .. . ... : ... .. . ... : ... .. . ...

PATTERN 10
ROW 00 : D-3 02 . ... : F-4 14 . ... : --- .. . ... : ... .. . ... : ... .. . ...
ROW 01 : ... .. . ... : ... .. . ... : ... .. . ... : ... .. . ... : ... .. . ...
ROW 02 : ... .. . ... : ... .. . ... : ... .. . ... : ... .. . ... : ... .. . ...
ROW 03 : ... .. . ... : ... .. . ... : ... .. . ... : ... .. . ... : ... .. . ...
ROW 04 : ... .. . ... : D-4 14 . ... : ... .. . ... : ... .. . ... : ... .. . ...
ROW 05 : ... .. . ... : ... .. . ... : ... .. . ... : ... .. . ... : ... .. . ...
ROW 06 : ... .. . ... : C-4 14 . ... : ... .. . ... : ... .. . ... : ... .. . ...
ROW 07 : ... .. . ... : ... .. . ... : ... .. . ... : ... .. . ... : ... .. . ...
ROW 08 : ... .. . ... : ... .. . ... : ... .. . ... : ... .. . ... : ... .. . ...
ROW 09 : ... .. . ... : ... .. . ... : ... .. . ... : ... .. . ... : ... .. . ...
ROW 0A : ... .. . ... : D-4 14 . ... : ... .. . ... : ... .. . ... : ... .. . ...
ROW 0B : ... .. . ... : ... .. . ... : ... .. . ... : ... .. . ... : ... .. . ...
ROW 0C : ... .. . ... : F-4 14 . ... : ... .. . ... : ... .. . ... : ... .. . ...
ROW 0D : ... .. . ... : ... .. . ... : ... .. . ... : ... .. . ... : ... .. . ...
ROW 0E : ... .. . ... : D-4 14 . ... : ... .. . ... : ... .. . ... : ... .. . ...
ROW 0F : ... .. . ... : ... .. . ... : ... .. . ... : ... .. . ... : ... .. . ...
ROW 10 : ... .. . ... : G-4 14 . ... : E-4 14 . ... : ... .. . ... : ... .. . ...
ROW 11 : ... .. . ... : ... .. . ... : ... .. . ... : ... .. . ... : ... .. . ...
ROW 12 : ... .. . ... : A-4 14 . ... : ... .. . ... : ... .. . ... : ... .. . ...
ROW 13 : ... .. . ... : ... .. . ... : ... .. . ... : ... .. . ... : ... .. . ...
ROW 14 : ... .. . ... : G-4 14 . ... : G-4 14 . ... : ... .. . ... : ... .. . ...
ROW 15 : ... .. . ... : ... .. . ... : ... .. . ... : ... .. . ... : ... .. . ...
ROW 16 : ... .. . ... : ... .. . ... : ... .. . ... : ... .. . ... : ... .. . ...
ROW 17 : ... .. . ... : ... .. . ... : ... .. . ... : ... .. . ... : ... .. . ...
ROW 18 : ... .. . ... : ... .. . ... : ... .. . ... : ... .. . ... : ... .. . ...
ROW 19 : ... .. . ... : ... .. . ... : ... .. . ... : ... .. . ... : ... .. . ...
ROW 1A : ... .. . ... : ... .. . ... : ... .. . ... : ... .. . ... : ... .. . ...
ROW 1B : ... .. . ... : ... .. . ... : ... .. . ... : ... .. . ... : ... .. . ...
ROW 1C : ... .. . ... : A-4 14 . ... : ... .. . ... : ... .. . ... : ... .. . ...
ROW 1D : ... .. . ... : ... .. . ... : ... .. . ... : ... .. . ... : ... .. . ...
ROW 1E : ... .. . ... : ... .. . ... : ... .. . ... : ... .. . ... : ... .. . ...
ROW 1F : ... .. . ... : ... .. . ... : ... .. . ... : ... .. . ... : ... .. . ...
ROW 20 : A-3 02 . ... : C-5 14 . ... : A-4 14 . ... : ... .. . ... : ... .. . ...
ROW 21 : ... .. . ... : ... .. . ... : ... .. . ... : ... .. . ... : ... .. . ...
ROW 22 : ... .. . ... : A-4 14 . ... : ... .. . ... : ... .. . ... : ... .. . ...
ROW 23 : ... .. . ... : ... .. . ... : ... .. . ... : ... .. . ... : ... .. . ...
ROW 24 : ... .. . ... : G-4 14 . ... : ... .. . ... : ... .. . ... : ... .. . ...
ROW 25 : ... .. . ... : ... .. . ... : ... .. . ... : ... .. . ... : ... .. . ...
ROW 26 : ... .. . ... : A-4 14 . ... : ... .. . ... : ... .. . ... : ... .. . ...
ROW 27 : ... .. . ... : ... .. . ... : ... .. . ... : ... .. . ... : ... .. . ...
ROW 28 : ... .. . ... : G-4 14 . ... : ... .. . ... : ... .. . ... : ... .. . ...
ROW 29 : ... .. . ... : ... .. . ... : ... .. . ... : ... .. . ... : ... .. . ...
ROW 2A : ... .. . ... : F-4 14 . ... : ... .. . ... : ... .. . ... : ... .. . ...
ROW 2B : ... .. . ... : ... .. . ... : ... .. . ... : ... .. . ... : ... .. . ...
ROW 2C : ... .. . ... : D-4 14 . ... : ... .. . ... : ... .. . ... : ... .. . ...
ROW 2D : ... .. . ... : ... .. . ... : ... .. . ... : ... .. . ... : ... .. . ...
ROW 2E : ... .. . ... : ... .. . ... : ... .. . ... : ... .. . ... : ... .. . ...
ROW 2F : ... .. . ... : ... .. . ... : ... .. . ... : ... .. . ... : ... .. . ...
ROW 30 : ... .. . ... : C-4 14 . ... : D-5 14 . ... : ... .. . ... : ... .. . ...
ROW 31 : ... .. . ... : ... .. . ... : ... .. . ... : ... .. . ... : ... .. . ...
ROW 32 : ... .. . ... : D-4 14 . ... : C-5 14 . ... : ... .. . ... : ... .. . ...
ROW 33 : ... .. . ... : ... .. . ... : ... .. . ... : ... .. . ... : ... .. . ...
ROW 34 : ... .. . ... : E-4 14 . ... : B-4 14 . ... : ... .. . ... : ... .. . ...
ROW 35 : ... .. . ... : ... .. . ... : ... .. . ... : ... .. . ... : ... .. . ...
ROW 36 : ... .. . ... : F-4 14 . ... : C-5 14 . ... : ... .. . ... : ... .. . ...
ROW 37 : ... .. . ... : ... .. . ... : ... .. . ... : ... .. . ... : ... .. . ...
ROW 38 : ... .. . ... : ... .. . ... : B-4 14 . ... : ... .. . ... : ... .. . ...
ROW 39 : ... .. . ... : ... .. . ... : ... .. . ... : ... .. . ... : ... .. . ...
ROW 3A : ... .. . ... : ... .. . ... : ... .. . ... : ... .. . ... : ... .. . ...
ROW 3B : ... .. . ... : ... .. . ... : ... .. . ... : ... .. . ... : ... .. . ...
ROW 3C : ... .. . ... : D-4 14 . ... : G-4 14 . ... : ... .. . ... : ... .. . ...
ROW 3D : ... .. . ... : ... .. . ... : ... .. . ... : ... .. . ... : ... .. . ...
ROW 3E : ... .. . ... : ... .. . ... : ... .. . ... : ... .. . ... : ... .. . ...
ROW 3F : ... .. . ... : ... .. . ... : ... .. . ... : ... .. . ... : ... .. . ...

PATTERN 11
ROW 00 : C-5 02 . ... : A-4 02 . ... : C-5 02 . ... : 4-# 05 . ... : ... .. . ...
ROW 01 : ... .. . ... : ... .. . ... : ... .. . ... : ... .. . ... : ... .. . ...
ROW 02 : ... .. . ... : G-4 02 . ... : ... .. . ... : ... .. . ... : ... .. . ...
ROW 03 : ... .. . ... : ... .. . ... : ... .. . ... : ... .. . ... : ... .. . ...
ROW 04 : ... .. . ... : F-4 02 . ... : D-5 02 . ... : 4-# 05 . ... : ... .. . ...
ROW 05 : ... .. . ... : ... .. . ... : ... .. . ... : ... .. . ... : ... .. . ...
ROW 06 : ... .. . ... : E-4 02 . ... : ... .. . ... : 6-# 05 . ... : ... .. . ...
ROW 07 : ... .. . ... : ... .. . ... : ... .. . ... : ... .. . ... : ... .. . ...
ROW 08 : ... .. . ... : D-4 02 . ... : E-5 02 . ... : ... .. . ... : ... .. . ...
ROW 09 : ... .. . ... : ... .. . ... : ... .. . ... : ... .. . ... : ... .. . ...
ROW 0A : ... .. . ... : F-4 02 . ... : D-5 02 . ... : ... .. . ... : ... .. . ...
ROW 0B : ... .. . ... : ... .. . ... : ... .. . ... : ... .. . ... : ... .. . ...
ROW 0C : ... .. . ... : A-4 02 . ... : C-5 02 . ... : 4-# 05 . ... : ... .. . ...
ROW 0D : ... .. . ... : ... .. . ... : ... .. . ... : ... .. . ... : ... .. . ...
ROW 0E : ... .. . ... : ... .. . ... : D-5 02 . ... : ... .. . ... : ... .. . ...
ROW 0F : ... .. . ... : ... .. . ... : ... .. . ... : ... .. . ... : ... .. . ...
ROW 10 : ... .. . ... : A-4 02 . ... : B-4 02 . ... : 4-# 05 . ... : ... .. . ...
ROW 11 : ... .. . ... : ... .. . ... : ... .. . ... : ... .. . ... : ... .. . ...
ROW 12 : ... .. . ... : G-4 02 . ... : A-4 02 . ... : 4-# 05 . ... : ... .. . ...
ROW 13 : ... .. . ... : ... .. . ... : ... .. . ... : ... .. . ... : ... .. . ...
ROW 14 : ... .. . ... : F-4 02 . ... : G-4 02 . ... : 6-# 05 . ... : ... .. . ...
ROW 15 : ... .. . ... : ... .. . ... : ... .. . ... : ... .. . ... : ... .. . ...
ROW 16 : ... .. . ... : E-4 02 . ... : A-4 02 . ... : ... .. . ... : ... .. . ...
ROW 17 : ... .. . ... : ... .. . ... : ... .. . ... : ... .. . ... : ... .. . ...
ROW 18 : ... .. . ... : D-4 02 . ... : C-5 02 . ... : ... .. . ... : ... .. . ...
ROW 19 : ... .. . ... : ... .. . ... : ... .. . ... : ... .. . ... : ... .. . ...
ROW 1A : ... .. . ... : F-4 02 . ... : A-4 02 . ... : ... .. . ... : ... .. . ...
ROW 1B : ... .. . ... : ... .. . ... : ... .. . ... : ... .. . ... : ... .. . ...
ROW 1C : ... .. . ... : A-4 02 . ... : C-5 02 . ... : 4-# 05 . ... : ... .. . ...
ROW 1D : ... .. . ... : ... .. . ... : ... .. . ... : ... .. . ... : ... .. . ...
ROW 1E : ... .. . ... : ... .. . ... : D-5 02 . ... : ... .. . ... : ... .. . ...
ROW 1F : ... .. . ... : ... .. . ... : ... .. . ... : ... .. . ... : ... .. . ...
ROW 20 : ... .. . ... : F-5 02 . ... : E-5 02 . ... : 4-# 05 . ... : ... .. . ...
ROW 21 : ... .. . ... : ... .. . ... : ... .. . ... : ... .. . ... : ... .. . ...
ROW 22 : ... .. . ... : E-5 02 . ... : ... .. . ... : ... .. . ... : ... .. . ...
ROW 23 : ... .. . ... : ... .. . ... : ... .. . ... : ... .. . ... : ... .. . ...
ROW 24 : ... .. . ... : D-5 02 . ... : ... .. . ... : 4-# 05 . ... : ... .. . ...
ROW 25 : ... .. . ... : ... .. . ... : ... .. . ... : ... .. . ... : ... .. . ...
ROW 26 : ... .. . ... : C-5 02 . ... : ... .. . ... : 6-# 05 . ... : ... .. . ...
ROW 27 : ... .. . ... : ... .. . ... : ... .. . ... : ... .. . ... : ... .. . ...
ROW 28 : ... .. . ... : A-4 02 . ... : G-5 02 . ... : ... .. . ... : ... .. . ...
ROW 29 : ... .. . ... : ... .. . ... : ... .. . ... : ... .. . ... : ... .. . ...
ROW 2A : ... .. . ... : G-4 02 . ... : ... .. . ... : ... .. . ... : ... .. . ...
ROW 2B : ... .. . ... : ... .. . ... : ... .. . ... : ... .. . ... : ... .. . ...
ROW 2C : ... .. . ... : F-4 02 . ... : A-5 02 . ... : 4-# 05 . ... : ... .. . ...
ROW 2D : ... .. . ... : ... .. . ... : ... .. . ... : ... .. . ... : ... .. . ...
ROW 2E : ... .. . ... : E-4 02 . ... : ... .. . ... : ... .. . ... : ... .. . ...
ROW 2F : ... .. . ... : ... .. . ... : ... .. . ... : ... .. . ... : ... .. . ...
ROW 30 : ... .. . ... : F-4 02 . ... : G-5 02 . ... : 4-# 05 . ... : ... .. . ...
ROW 31 : ... .. . ... : ... .. . ... : ... .. . ... : ... .. . ... : ... .. . ...
ROW 32 : ... .. . ... : G-4 02 . ... : E-5 02 . ... : 4-# 05 . ... : ... .. . ...
ROW 33 : ... .. . ... : ... .. . ... : ... .. . ... : ... .. . ... : ... .. . ...
ROW 34 : ... .. . ... : A-4 02 . ... : G-5 02 . ... : 6-# 05 . ... : ... .. . ...
ROW 35 : ... .. . ... : ... .. . ... : ... .. . ... : ... .. . ... : ... .. . ...
ROW 36 : ... .. . ... : B-4 02 . ... : E-5 02 . ... : ... .. . ... : ... .. . ...
ROW 37 : ... .. . ... : ... .. . ... : ... .. . ... : ... .. . ... : ... .. . ...
ROW 38 : ... .. . ... : C-5 02 . ... : D-5 02 . ... : ... .. . ... : ... .. . ...
ROW 39 : ... .. . ... : ... .. . ... : ... .. . ... : ... .. . ... : ... .. . ...
ROW 3A : ... .. . ... : D-5 02 . ... : C-5 02 . ... : ... .. . ... : ... .. . ...
ROW 3B : ... .. . ... : ... .. . ... : ... .. . ... : ... .. . ... : ... .. . ...
ROW 3C : ... .. . ... : E-5 02 . ... : ... .. . ... : ... .. . ... : ... .. . ...
ROW 3D : ... .. . ... : ... .. . ... : ... .. . ... : ... .. . ... : ... .. . ...
ROW 3E : ... .. . ... : F-5 02 . ... : ... .. . ... : ... .. . ... : ... .. . ...
ROW 3F : ... .. . ... : ... .. . ... : ... .. . ... : ... .. . ... : ... .. . ...

PATTERN 12
ROW 00 : C-3 11 . ... : F-3 02 . ... : C-5 14 . ... : 4-# 05 . ... : ... .. . ...
ROW 01 : ... .. . ... : ... .. . ... : ... .. . ... : ... .. . ... : ... .. . ...
ROW 02 : ... .. . ... : ... .. . ... : ... .. . ... : ... .. . ... : ... .. . ...
ROW 03 : ... .. . ... : ... .. . ... : ... .. . ... : ... .. . ... : ... .. . ...
ROW 04 : D-3 11 . ... : ... .. . ... : D-5 14 . ... : 4-# 05 . ... : ... .. . ...
ROW 05 : ... .. . ... : ... .. . ... : ... .. . ... : ... .. . ... : ... .. . ...
ROW 06 : ... .. . ... : ... .. . ... : ... .. . ... : 6-# 05 . ... : ... .. . ...
ROW 07 : ... .. . ... : ... .. . ... : ... .. . ... : ... .. . ... : ... .. . ...
ROW 08 : E-3 11 . ... : ... .. . ... : E-5 14 . ... : ... .. . ... : ... .. . ...
ROW 09 : ... .. . ... : ... .. . ... : ... .. . ... : ... .. . ... : ... .. . ...
ROW 0A : D-3 11 . ... : ... .. . ... : D-5 14 . ... : ... .. . ... : ... .. . ...
ROW 0B : ... .. . ... : ... .. . ... : ... .. . ... : ... .. . ... : ... .. . ...
ROW 0C : C-3 11 . ... : G-3 02 . ... : C-5 14 . ... : 4-# 05 . ... : ... .. . ...
ROW 0D : ... .. . ... : ... .. . ... : ... .. . ... : ... .. . ... : ... .. . ...
ROW 0E : D-3 11 . ... : ... .. . ... : D-5 14 . ... : ... .. . ... : ... .. . ...
ROW 0F : ... .. . ... : ... .. . ... : ... .. . ... : ... .. . ... : ... .. . ...
ROW 10 : B-2 11 . ... : A-3 02 . ... : B-4 14 . ... : 4-# 05 . ... : ... .. . ...
ROW 11 : ... .. . ... : ... .. . ... : ... .. . ... : ... .. . ... : ... .. . ...
ROW 12 : A-2 11 . ... : ... .. . ... : A-4 14 . ... : 4-# 05 . ... : ... .. . ...
ROW 13 : ... .. . ... : ... .. . ... : ... .. . ... : ... .. . ... : ... .. . ...
ROW 14 : G-2 11 . ... : ... .. . ... : G-4 14 . ... : 6-# 05 . ... : ... .. . ...
ROW 15 : ... .. . ... : ... .. . ... : ... .. . ... : ... .. . ... : ... .. . ...
ROW 16 : A-2 11 . ... : ... .. . ... : A-4 14 . ... : ... .. . ... : ... .. . ...
ROW 17 : ... .. . ... : ... .. . ... : ... .. . ... : ... .. . ... : ... .. . ...
ROW 18 : C-3 11 . ... : ... .. . ... : C-5 14 . ... : ... .. . ... : ... .. . ...
ROW 19 : ... .. . ... : ... .. . ... : ... .. . ... : ... .. . ... : ... .. . ...
ROW 1A : A-2 11 . ... : ... .. . ... : A-4 14 . ... : ... .. . ... : ... .. . ...
ROW 1B : ... .. . ... : ... .. . ... : ... .. . ... : ... .. . ... : ... .. . ...
ROW 1C : C-3 11 . ... : ... .. . ... : C-5 14 . ... : 4-# 05 . ... : ... .. . ...
ROW 1D : ... .. . ... : ... .. . ... : ... .. . ... : ... .. . ... : ... .. . ...
ROW 1E : D-3 11 . ... : ... .. . ... : D-5 14 . ... : ... .. . ... : ... .. . ...
ROW 1F : ... .. . ... : ... .. . ... : ... .. . ... : ... .. . ... : ... .. . ...
ROW 20 : E-3 11 . ... : ... .. . ... : E-5 14 . ... : 4-# 05 . ... : ... .. . ...
ROW 21 : ... .. . ... : ... .. . ... : ... .. . ... : ... .. . ... : ... .. . ...
ROW 22 : ... .. . ... : ... .. . ... : ... .. . ... : ... .. . ... : ... .. . ...
ROW 23 : ... .. . ... : ... .. . ... : ... .. . ... : ... .. . ... : ... .. . ...
ROW 24 : ... .. . ... : ... .. . ... : ... .. . ... : 4-# 05 . ... : ... .. . ...
ROW 25 : ... .. . ... : ... .. . ... : ... .. . ... : ... .. . ... : ... .. . ...
ROW 26 : ... .. . ... : ... .. . ... : ... .. . ... : 6-# 05 . ... : ... .. . ...
ROW 27 : ... .. . ... : ... .. . ... : ... .. . ... : ... .. . ... : ... .. . ...
ROW 28 : G-3 11 . ... : ... .. . ... : G-5 14 . ... : ... .. . ... : ... .. . ...
ROW 29 : ... .. . ... : ... .. . ... : ... .. . ... : ... .. . ... : ... .. . ...
ROW 2A : ... .. . ... : ... .. . ... : ... .. . ... : ... .. . ... : ... .. . ...
ROW 2B : ... .. . ... : ... .. . ... : ... .. . ... : ... .. . ... : ... .. . ...
ROW 2C : A-3 11 . ... : ... .. . ... : A-5 14 . ... : 4-# 05 . ... : ... .. . ...
ROW 2D : ... .. . ... : ... .. . ... : ... .. . ... : ... .. . ... : ... .. . ...
ROW 2E : ... .. . ... : ... .. . ... : ... .. . ... : ... .. . ... : ... .. . ...
ROW 2F : ... .. . ... : ... .. . ... : ... .. . ... : ... .. . ... : ... .. . ...
ROW 30 : G-3 11 . ... : ... .. . ... : G-5 14 . ... : 4-# 05 . ... : ... .. . ...
ROW 31 : ... .. . ... : ... .. . ... : ... .. . ... : ... .. . ... : ... .. . ...
ROW 32 : E-3 11 . ... : ... .. . ... : E-5 14 . ... : 4-# 05 . ... : ... .. . ...
ROW 33 : ... .. . ... : ... .. . ... : ... .. . ... : ... .. . ... : ... .. . ...
ROW 34 : G-3 11 . ... : ... .. . ... : G-5 14 . ... : 6-# 05 . ... : ... .. . ...
ROW 35 : ... .. . ... : ... .. . ... : ... .. . ... : ... .. . ... : ... .. . ...
ROW 36 : E-3 11 . ... : ... .. . ... : E-5 14 . ... : ... .. . ... : ... .. . ...
ROW 37 : ... .. . ... : ... .. . ... : ... .. . ... : ... .. . ... : ... .. . ...
ROW 38 : D-3 11 . ... : ... .. . ... : D-5 14 . ... : ... .. . ... : ... .. . ...
ROW 39 : ... .. . ... : ... .. . ... : ... .. . ... : ... .. . ... : ... .. . ...
ROW 3A : C-3 11 . ... : ... .. . ... : C-5 14 . ... : ... .. . ... : ... .. . ...
ROW 3B : ... .. . ... : ... .. . ... : ... .. . ... : ... .. . ... : ... .. . ...
ROW 3C : ... .. . ... : ... .. . ... : ... .. . ... : ... .. . ... : ... .. . ...
ROW 3D : ... .. . ... : ... .. . ... : ... .. . ... : ... .. . ... : ... .. . ...
ROW 3E : ... .. . ... : ... .. . ... : ... .. . ... : ... .. . ... : ... .. . ...
ROW 3F : ... .. . ... : ... .. . ... : ... .. . ... : ... .. . ... : ... .. . ...

PATTERN 13
ROW 00 : G-2 02 . ... : D-4 0B . ... : A-4 14 . ... : 4-# 05 . ... : ... .. . ...
ROW 01 : ... .. . ... : ... .. . ... : ... .. . ... : ... .. . ... : ... .. . ...
ROW 02 : ... .. . ... : ... .. . ... : G-4 14 . ... : ... .. . ... : ... .. . ...
ROW 03 : ... .. . ... : ... .. . ... : ... .. . ... : ... .. . ... : ... .. . ...
ROW 04 : ... .. . ... : ... .. . ... : F-4 14 . ... : 4-# 05 . ... : ... .. . ...
ROW 05 : ... .. . ... : ... .. . ... : ... .. . ... : ... .. . ... : ... .. . ...
ROW 06 : ... .. . ... : ... .. . ... : E-4 14 . ... : 6-# 05 . ... : ... .. . ...
ROW 07 : ... .. . ... : ... .. . ... : ... .. . ... : ... .. . ... : ... .. . ...
ROW 08 : ... .. . ... : D-4 0A . ... : D-4 14 . ... : ... .. . ... : ... .. . ...
ROW 09 : ... .. . ... : ... .. . ... : ... .. . ... : ... .. . ... : ... .. . ...
ROW 0A : ... .. . ... : D-4 0A . ... : F-4 14 . ... : ... .. . ... : ... .. . ...
ROW 0B : ... .. . ... : ... .. . ... : ... .. . ... : ... .. . ... : ... .. . ...
ROW 0C : ... .. . ... : D-4 0A . ... : A-4 14 . ... : 4-# 05 . ... : ... .. . ...
ROW 0D : ... .. . ... : ... .. . ... : ... .. . ... : ... .. . ... : ... .. . ...
ROW 0E : ... .. . ... : ... .. . ... : ... .. . ... : ... .. . ... : ... .. . ...
ROW 0F : ... .. . ... : ... .. . ... : ... .. . ... : ... .. . ... : ... .. . ...
ROW 10 : F-2 02 . ... : ... .. . ... : B-4 14 . ... : 4-# 05 . ... : ... .. . ...
ROW 11 : ... .. . ... : ... .. . ... : ... .. . ... : ... .. . ... : ... .. . ...
ROW 12 : ... .. . ... : ... .. . ... : C-5 14 . ... : 4-# 05 . ... : ... .. . ...
ROW 13 : ... .. . ... : ... .. . ... : ... .. . ... : ... .. . ... : ... .. . ...
ROW 14 : ... .. . ... : ... .. . ... : B-4 14 . ... : 6-# 05 . ... : ... .. . ...
ROW 15 : ... .. . ... : ... .. . ... : ... .. . ... : ... .. . ... : ... .. . ...
ROW 16 : ... .. . ... : ... .. . ... : D-5 14 . ... : ... .. . ... : ... .. . ...
ROW 17 : ... .. . ... : ... .. . ... : ... .. . ... : ... .. . ... : ... .. . ...
ROW 18 : ... .. . ... : ... .. . ... : ... .. . ... : ... .. . ... : ... .. . ...
ROW 19 : ... .. . ... : ... .. . ... : ... .. . ... : ... .. . ... : ... .. . ...
ROW 1A : ... .. . ... : ... .. . ... : C-5 14 . ... : ... .. . ... : ... .. . ...
ROW 1B : ... .. . ... : ... .. . ... : ... .. . ... : ... .. . ... : ... .. . ...
ROW 1C : ... .. . ... : ... .. . ... : ... .. . ... : 4-# 05 . ... : ... .. . ...
ROW 1D : ... .. . ... : ... .. . ... : ... .. . ... : ... .. . ... : ... .. . ...
ROW 1E : ... .. . ... : ... .. . ... : ... .. . ... : ... .. . ... : ... .. . ...
ROW 1F : ... .. . ... : ... .. . ... : ... .. . ... : ... .. . ... : ... .. . ...
ROW 20 : E-2 02 . ... : ... .. . ... : F-5 14 . ... : 4-# 05 . ... : ... .. . ...
ROW 21 : ... .. . ... : ... .. . ... : ... .. . ... : ... .. . ... : ... .. . ...
ROW 22 : ... .. . ... : ... .. . ... : E-5 14 . ... : ... .. . ... : ... .. . ...
ROW 23 : ... .. . ... : ... .. . ... : ... .. . ... : ... .. . ... : ... .. . ...
ROW 24 : ... .. . ... : ... .. . ... : D-5 14 . ... : 4-# 05 . ... : ... .. . ...
ROW 25 : ... .. . ... : ... .. . ... : ... .. . ... : ... .. . ... : ... .. . ...
ROW 26 : ... .. . ... : ... .. . ... : C-5 14 . ... : 6-# 05 . ... : ... .. . ...
ROW 27 : ... .. . ... : ... .. . ... : ... .. . ... : ... .. . ... : ... .. . ...
ROW 28 : F-2 02 . ... : ... .. . ... : A-4 14 . ... : ... .. . ... : ... .. . ...
ROW 29 : ... .. . ... : ... .. . ... : ... .. . ... : ... .. . ... : ... .. . ...
ROW 2A : ... .. . ... : ... .. . ... : G-4 14 . ... : ... .. . ... : ... .. . ...
ROW 2B : ... .. . ... : ... .. . ... : ... .. . ... : ... .. . ... : ... .. . ...
ROW 2C : ... .. . ... : ... .. . ... : F-4 14 . ... : 4-# 05 . ... : ... .. . ...
ROW 2D : ... .. . ... : ... .. . ... : ... .. . ... : ... .. . ... : ... .. . ...
ROW 2E : ... .. . ... : ... .. . ... : G-4 14 . ... : ... .. . ... : ... .. . ...
ROW 2F : ... .. . ... : ... .. . ... : ... .. . ... : ... .. . ... : ... .. . ...
ROW 30 : C-3 02 . ... : ... .. . ... : A-4 14 . ... : 4-# 05 . ... : ... .. . ...
ROW 31 : ... .. . ... : ... .. . ... : ... .. . ... : ... .. . ... : ... .. . ...
ROW 32 : ... .. . ... : ... .. . ... : ... .. . ... : 4-# 05 . ... : ... .. . ...
ROW 33 : ... .. . ... : ... .. . ... : ... .. . ... : ... .. . ... : ... .. . ...
ROW 34 : ... .. . ... : ... .. . ... : B-4 14 . ... : 6-# 05 . ... : ... .. . ...
ROW 35 : ... .. . ... : ... .. . ... : ... .. . ... : ... .. . ... : ... .. . ...
ROW 36 : ... .. . ... : ... .. . ... : ... .. . ... : ... .. . ... : ... .. . ...
ROW 37 : ... .. . ... : ... .. . ... : ... .. . ... : ... .. . ... : ... .. . ...
ROW 38 : D-3 02 . ... : ... .. . ... : C-5 14 . ... : ... .. . ... : ... .. . ...
ROW 39 : ... .. . ... : ... .. . ... : ... .. . ... : ... .. . ... : ... .. . ...
ROW 3A : ... .. . ... : ... .. . ... : ... .. . ... : ... .. . ... : ... .. . ...
ROW 3B : ... .. . ... : ... .. . ... : ... .. . ... : ... .. . ... : ... .. . ...
ROW 3C : ... .. . ... : ... .. . ... : E-5 14 . ... : ... .. . ... : ... .. . ...
ROW 3D : ... .. . ... : ... .. . ... : ... .. . ... : ... .. . ... : ... .. . ...
ROW 3E : ... .. . ... : ... .. . ... : ... .. . ... : ... .. . ... : ... .. . ...
ROW 3F : ... .. . ... : ... .. . ... : ... .. . ... : ... .. . ... : ... .. . ...

PATTERN 14
ROW 00 : A-3 02 . ... : ... .. . ... : A-4 14 . ... : ... .. . ... : ... .. . ...
ROW 01 : ... .. . ... : ... .. . ... : ... .. . ... : ... .. . ... : ... .. . ...
ROW 02 : ... .. . ... : ... .. . ... : ... .. . ... : ... .. . ... : ... .. . ...
ROW 03 : ... .. . ... : ... .. . ... : ... .. . ... : ... .. . ... : ... .. . ...
ROW 04 : ... .. . ... : ... .. . ... : ... .. . ... : ... .. . ... : ... .. . ...
ROW 05 : ... .. . ... : ... .. . ... : ... .. . ... : ... .. . ... : ... .. . ...
ROW 06 : ... .. . ... : ... .. . ... : ... .. . ... : ... .. . ... : ... .. . ...
ROW 07 : ... .. . ... : ... .. . ... : ... .. . ... : ... .. . ... : ... .. . ...
ROW 08 : ... .. . ... : ... .. . ... : ... .. . ... : ... .. . ... : ... .. . ...
ROW 09 : ... .. . ... : ... .. . ... : ... .. . ... : ... .. . ... : ... .. . ...
ROW 0A : ... .. . ... : ... .. . ... : ... .. . ... : ... .. . ... : ... .. . ...
ROW 0B : ... .. . ... : ... .. . ... : ... .. . ... : ... .. . ... : ... .. . ...
ROW 0C : B-3 02 . ... : ... .. . ... : B-4 14 . ... : ... .. . ... : ... .. . ...
ROW 0D : ... .. . ... : ... .. . ... : ... .. . ... : ... .. . ... : ... .. . ...
ROW 0E : ... .. . ... : ... .. . ... : ... .. . ... : ... .. . ... : ... .. . ...
ROW 0F : ... .. . ... : ... .. . ... : ... .. . ... : ... .. . ... : ... .. . ...
ROW 10 : C-4 02 . ... : ... .. . ... : C-5 14 . ... : ... .. . ... : ... .. . ...
ROW 11 : ... .. . ... : ... .. . ... : ... .. . ... : ... .. . ... : ... .. . ...
ROW 12 : ... .. . ... : ... .. . ... : ... .. . ... : ... .. . ... : ... .. . ...
ROW 13 : ... .. . ... : ... .. . ... : ... .. . ... : ... .. . ... : ... .. . ...
ROW 14 : ... .. . ... : ... .. . ... : ... .. . ... : ... .. . ... : ... .. . ...
ROW 15 : ... .. . ... : ... .. . ... : ... .. . ... : ... .. . ... : ... .. . ...
ROW 16 : ... .. . ... : ... .. . ... : ... .. . ... : ... .. . ... : ... .. . ...
ROW 17 : ... .. . ... : ... .. . ... : ... .. . ... : ... .. . ... : ... .. . ...
ROW 18 : ... .. . ... : ... .. . ... : ... .. . ... : ... .. . ... : ... .. . ...
ROW 19 : ... .. . ... : ... .. . ... : ... .. . ... : ... .. . ... : ... .. . ...
ROW 1A : ... .. . ... : ... .. . ... : ... .. . ... : ... .. . ... : ... .. . ...
ROW 1B : ... .. . ... : ... .. . ... : ... .. . ... : ... .. . ... : ... .. . ...
ROW 1C : ... .. . ... : ... .. . ... : D-5 14 . ... : ... .. . ... : ... .. . ...
ROW 1D : ... .. . ... : ... .. . ... : ... .. . ... : ... .. . ... : ... .. . ...
ROW 1E : ... .. . ... : ... .. . ... : ... .. . ... : ... .. . ... : ... .. . ...
ROW 1F : ... .. . ... : ... .. . ... : ... .. . ... : ... .. . ... : ... .. . ...
ROW 20 : E-4 02 . ... : ... .. . ... : E-5 14 . ... : ... .. . ... : ... .. . ...
ROW 21 : ... .. . ... : ... .. . ... : ... .. . ... : ... .. . ... : ... .. . ...
ROW 22 : ... .. . ... : ... .. . ... : ... .. . ... : ... .. . ... : ... .. . ...
ROW 23 : ... .. . ... : ... .. . ... : ... .. . ... : ... .. . ... : ... .. . ...
ROW 24 : D-4 02 . ... : ... .. . ... : ... .. . ... : ... .. . ... : ... .. . ...
ROW 25 : ... .. . ... : ... .. . ... : ... .. . ... : ... .. . ... : ... .. . ...
ROW 26 : ... .. . ... : ... .. . ... : ... .. . ... : ... .. . ... : ... .. . ...
ROW 27 : ... .. . ... : ... .. . ... : ... .. . ... : ... .. . ... : ... .. . ...
ROW 28 : C-4 02 . ... : ... .. . ... : D-5 14 . ... : ... .. . ... : ... .. . ...
ROW 29 : ... .. . ... : ... .. . ... : ... .. . ... : ... .. . ... : ... .. . ...
ROW 2A : ... .. . ... : ... .. . ... : ... .. . ... : ... .. . ... : ... .. . ...
ROW 2B : ... .. . ... : ... .. . ... : ... .. . ... : ... .. . ... : ... .. . ...
ROW 2C : D-4 02 . ... : ... .. . ... : ... .. . ... : ... .. . ... : ... .. . ...
ROW 2D : ... .. . ... : ... .. . ... : ... .. . ... : ... .. . ... : ... .. . ...
ROW 2E : ... .. . ... : ... .. . ... : ... .. . ... : ... .. . ... : ... .. . ...
ROW 2F : ... .. . ... : ... .. . ... : ... .. . ... : ... .. . ... : ... .. . ...
ROW 30 : E-4 02 . ... : ... .. . ... : C-5 14 . ... : ... .. . ... : ... .. . ...
ROW 31 : ... .. . ... : ... .. . ... : ... .. . ... : ... .. . ... : ... .. . ...
ROW 32 : ... .. . ... : ... .. . ... : ... .. . ... : ... .. . ... : ... .. . ...
ROW 33 : ... .. . ... : ... .. . ... : ... .. . ... : ... .. . ... : ... .. . ...
ROW 34 : F-4 02 . ... : ... .. . ... : D-5 14 . ... : ... .. . ... : ... .. . ...
ROW 35 : ... .. . ... : ... .. . ... : ... .. . ... : ... .. . ... : ... .. . ...
ROW 36 : ... .. . ... : ... .. . ... : ... .. . ... : ... .. . ... : ... .. . ...
ROW 37 : ... .. . ... : ... .. . ... : ... .. . ... : ... .. . ... : ... .. . ...
ROW 38 : G-4 02 . ... : ... .. . ... : E-5 14 . ... : ... .. . ... : ... .. . ...
ROW 39 : ... .. . ... : ... .. . ... : ... .. . ... : ... .. . ... : ... .. . ...
ROW 3A : ... .. . ... : ... .. . ... : ... .. . ... : ... .. . ... : ... .. . ...
ROW 3B : ... .. . ... : ... .. . ... : ... .. . ... : ... .. . ... : ... .. . ...
ROW 3C : ... .. . ... : ... .. . ... : G-5 14 . ... : ... .. . ... : ... .. . ...
ROW 3D : ... .. . ... : ... .. . ... : ... .. . ... : ... .. . ... : ... .. . ...
ROW 3E : ... .. . ... : ... .. . ... : ... .. . ... : ... .. . ... : ... .. . ...
ROW 3F : ... .. . ... : ... .. . ... : ... .. . ... : ... .. . ... : ... .. . ...

PATTERN 15
ROW 00 : F-4 0B . ... : F-3 02 . ... : A-4 0B . ... : 4-# 05 . ... : ... .. . ...
ROW 01 : ... .. . ... : ... .. . ... : ... .. . ... : ... .. . ... : ... .. . ...
ROW 02 : ... .. . ... : ... .. . ... : ... .. . ... : 4-# 05 . ... : ... .. . ...
ROW 03 : ... .. . ... : ... .. . ... : ... .. . ... : ... .. . ... : ... .. . ...
ROW 04 : ... .. . ... : ... .. . ... : ... .. . ... : 6-# 05 . ... : ... .. . ...
ROW 05 : ... .. . ... : ... .. . ... : ... .. . ... : ... .. . ... : ... .. . ...
ROW 06 : ... .. . ... : ... .. . ... : ... .. . ... : ... .. . ... : ... .. . ...
ROW 07 : ... .. . ... : ... .. . ... : ... .. . ... : ... .. . ... : ... .. . ...
ROW 08 : F-4 0A . ... : ... .. . ... : A-4 0A . ... : 0-# 06 . ... : ... .. . ...
ROW 09 : ... .. . ... : ... .. . ... : ... .. . ... : ... .. . ... : ... .. . ...
ROW 0A : F-4 0A . ... : ... .. . ... : A-4 0A . ... : 0-# 06 . ... : ... .. . ...
ROW 0B : ... .. . ... : ... .. . ... : ... .. . ... : ... .. . ... : ... .. . ...
ROW 0C : F-4 0A . ... : G-3 02 . ... : A-4 0A . ... : 0-# 06 . ... : ... .. . ...
ROW 0D : ... .. . ... : ... .. . ... : ... .. . ... : ... .. . ... : ... .. . ...
ROW 0E : ... .. . ... : ... .. . ... : ... .. . ... : ... .. . ... : ... .. . ...
ROW 0F : ... .. . D00 : ... .. . ... : ... .. . ... : ... .. . ... : ... .. . ...
ROW 10 : ... .. . ... : A-3 02 . ... : ... .. . ... : ... .. . ... : ... .. . ...
ROW 11 : ... .. . ... : ... .. . ... : ... .. . ... : ... .. . ... : ... .. . ...
ROW 12 : ... .. . ... : ... .. . ... : ... .. . ... : ... .. . ... : ... .. . ...
ROW 13 : ... .. . ... : ... .. . ... : ... .. . ... : ... .. . ... : ... .. . ...
ROW 14 : ... .. . ... : ... .. . ... : ... .. . ... : ... .. . ... : ... .. . ...
ROW 15 : ... .. . ... : ... .. . ... : ... .. . ... : ... .. . ... : ... .. . ...
ROW 16 : ... .. . ... : ... .. . ... : ... .. . ... : ... .. . ... : ... .. . ...
ROW 17 : ... .. . ... : ... .. . ... : ... .. . ... : ... .. . ... : ... .. . ...
ROW 18 : ... .. . ... : ... .. . ... : ... .. . ... : ... .. . ... : ... .. . ...
ROW 19 : ... .. . ... : ... .. . ... : ... .. . ... : ... .. . ... : ... .. . ...
ROW 1A : ... .. . ... : ... .. . ... : ... .. . ... : ... .. . ... : ... .. . ...
ROW 1B : ... .. . ... : ... .. . ... : ... .. . ... : ... .. . ... : ... .. . ...
ROW 1C : ... .. . ... : ... .. . ... : ... .. . ... : ... .. . ... : ... .. . ...
ROW 1D : ... .. . ... : ... .. . ... : ... .. . ... : ... .. . ... : ... .. . ...
ROW 1E : ... .. . ... : ... .. . ... : ... .. . ... : ... .. . ... : ... .. . ...
ROW 1F : ... .. . ... : ... .. . ... : ... .. . ... : ... .. . ... : ... .. . ...
ROW 20 : ... .. . ... : ... .. . ... : ... .. . ... : ... .. . ... : ... .. . ...
ROW 21 : ... .. . ... : ... .. . ... : ... .. . ... : ... .. . ... : ... .. . ...
ROW 22 : ... .. . ... : ... .. . ... : ... .. . ... : ... .. . ... : ... .. . ...
ROW 23 : ... .. . ... : ... .. . ... : ... .. . ... : ... .. . ... : ... .. . ...
ROW 24 : ... .. . ... : ... .. . ... : ... .. . ... : ... .. . ... : ... .. . ...
ROW 25 : ... .. . ... : ... .. . ... : ... .. . ... : ... .. . ... : ... .. . ...
ROW 26 : ... .. . ... : ... .. . ... : ... .. . ... : ... .. . ... : ... .. . ...
ROW 27 : ... .. . ... : ... .. . ... : ... .. . ... : ... .. . ... : ... .. . ...
ROW 28 : ... .. . ... : ... .. . ... : ... .. . ... : ... .. . ... : ... .. . ...
ROW 29 : ... .. . ... : ... .. . ... : ... .. . ... : ... .. . ... : ... .. . ...
ROW 2A : ... .. . ... : ... .. . ... : ... .. . ... : ... .. . ... : ... .. . ...
ROW 2B : ... .. . ... : ... .. . ... : ... .. . ... : ... .. . ... : ... .. . ...
ROW 2C : ... .. . ... : ... .. . ... : ... .. . ... : ... .. . ... : ... .. . ...
ROW 2D : ... .. . ... : ... .. . ... : ... .. . ... : ... .. . ... : ... .. . ...
ROW 2E : ... .. . ... : ... .. . ... : ... .. . ... : ... .. . ... : ... .. . ...
ROW 2F : ... .. . ... : ... .. . ... : ... .. . ... : ... .. . ... : ... .. . ...
ROW 30 : ... .. . ... : ... .. . ... : ... .. . ... : ... .. . ... : ... .. . ...
ROW 31 : ... .. . ... : ... .. . ... : ... .. . ... : ... .. . ... : ... .. . ...
ROW 32 : ... .. . ... : ... .. . ... : ... .. . ... : ... .. . ... : ... .. . ...
ROW 33 : ... .. . ... : ... .. . ... : ... .. . ... : ... .. . ... : ... .. . ...
ROW 34 : ... .. . ... : ... .. . ... : ... .. . ... : ... .. . ... : ... .. . ...
ROW 35 : ... .. . ... : ... .. . ... : ... .. . ... : ... .. . ... : ... .. . ...
ROW 36 : ... .. . ... : ... .. . ... : ... .. . ... : ... .. . ... : ... .. . ...
ROW 37 : ... .. . ... : ... .. . ... : ... .. . ... : ... .. . ... : ... .. . ...
ROW 38 : ... .. . ... : ... .. . ... : ... .. . ... : ... .. . ... : ... .. . ...
ROW 39 : ... .. . ... : ... .. . ... : ... .. . ... : ... .. . ... : ... .. . ...
ROW 3A : ... .. . ... : ... .. . ... : ... .. . ... : ... .. . ... : ... .. . ...
ROW 3B : ... .. . ... : ... .. . ... : ... .. . ... : ... .. . ... : ... .. . ...
ROW 3C : ... .. . ... : ... .. . ... : ... .. . ... : ... .. . ... : ... .. . ...
ROW 3D : ... .. . ... : ... .. . ... : ... .. . ... : ... .. . ... : ... .. . ...
ROW 3E : ... .. . ... : ... .. . ... : ... .. . ... : ... .. . ... : ... .. . ...
ROW 3F : ... .. . ... : ... .. . ... : ... .. . ... : ... .. . ... : ... .. . ...

PATTERN 16
ROW 00 : G-2 02 . ... : F-3 02 . ... : A-4 0B . ... : ... .. . ... : ... .. . ...
ROW 01 : ... .. . ... : ... .. . ... : ... .. . ... : ... .. . ... : ... .. . ...
ROW 02 : ... .. . ... : ... .. . ... : ... .. . ... : ... .. . ... : ... .. . ...
ROW 03 : ... .. . ... : ... .. . ... : ... .. . ... : ... .. . ... : ... .. . ...
ROW 04 : ... .. . ... : ... .. . ... : ... .. . ... : ... .. . ... : ... .. . ...
ROW 05 : ... .. . ... : ... .. . ... : ... .. . ... : ... .. . ... : ... .. . ...
ROW 06 : ... .. . ... : ... .. . ... : ... .. . ... : ... .. . ... : ... .. . ...
ROW 07 : ... .. . ... : ... .. . ... : ... .. . ... : ... .. . ... : ... .. . ...
ROW 08 : ... .. . ... : ... .. . ... : ... .. . ... : ... .. . ... : ... .. . ...
ROW 09 : ... .. . ... : ... .. . ... : ... .. . ... : ... .. . ... : ... .. . ...
ROW 0A : ... .. . ... : ... .. . ... : ... .. . ... : ... .. . ... : ... .. . ...
ROW 0B : ... .. . ... : ... .. . ... : ... .. . ... : ... .. . ... : ... .. . ...
ROW 0C : ... .. . ... : G-3 02 . ... : ... .. . ... : ... .. . ... : ... .. . ...
ROW 0D : ... .. . ... : ... .. . ... : ... .. . ... : ... .. . ... : ... .. . ...
ROW 0E : ... .. . ... : ... .. . ... : ... .. . ... : ... .. . ... : ... .. . ...
ROW 0F : ... .. . ... : ... .. . ... : ... .. . ... : ... .. . ... : ... .. . ...
ROW 10 : F-2 02 . ... : A-3 02 . ... : ... .. . ... : ... .. . ... : ... .. . ...
ROW 11 : ... .. . ... : ... .. . ... : ... .. . ... : ... .. . ... : ... .. . ...
ROW 12 : ... .. . ... : ... .. . ... : ... .. . ... : ... .. . ... : ... .. . ...
ROW 13 : ... .. . ... : ... .. . ... : ... .. . ... : ... .. . ... : ... .. . ...
ROW 14 : ... .. . ... : ... .. . ... : ... .. . ... : ... .. . ... : ... .. . ...
ROW 15 : ... .. . ... : ... .. . ... : ... .. . ... : ... .. . ... : ... .. . ...
ROW 16 : ... .. . ... : ... .. . ... : ... .. . ... : ... .. . ... : ... .. . ...
ROW 17 : ... .. . ... : ... .. . ... : ... .. . ... : ... .. . ... : ... .. . ...
ROW 18 : ... .. . ... : ... .. . ... : ... .. . ... : ... .. . ... : ... .. . ...
ROW 19 : ... .. . ... : ... .. . ... : ... .. . ... : ... .. . ... : ... .. . ...
ROW 1A : ... .. . ... : ... .. . ... : ... .. . ... : ... .. . ... : ... .. . ...
ROW 1B : ... .. . ... : ... .. . ... : ... .. . ... : ... .. . ... : ... .. . ...
ROW 1C : ... .. . ... : ... .. . ... : ... .. . ... : ... .. . ... : ... .. . ...
ROW 1D : ... .. . ... : ... .. . ... : ... .. . ... : ... .. . ... : ... .. . ...
ROW 1E : ... .. . ... : ... .. . ... : ... .. . ... : ... .. . ... : ... .. . ...
ROW 1F : ... .. . ... : ... .. . ... : ... .. . ... : ... .. . ... : ... .. . ...
ROW 20 : E-2 02 . ... : ... .. . ... : ... .. . ... : ... .. . ... : ... .. . ...
ROW 21 : ... .. . ... : ... .. . ... : ... .. . ... : ... .. . ... : ... .. . ...
ROW 22 : ... .. . ... : ... .. . ... : ... .. . ... : ... .. . ... : ... .. . ...
ROW 23 : ... .. . ... : ... .. . ... : ... .. . ... : ... .. . ... : ... .. . ...
ROW 24 : ... .. . ... : ... .. . ... : ... .. . ... : ... .. . ... : ... .. . ...
ROW 25 : ... .. . ... : ... .. . ... : ... .. . ... : ... .. . ... : ... .. . ...
ROW 26 : ... .. . ... : ... .. . ... : ... .. . ... : ... .. . ... : ... .. . ...
ROW 27 : ... .. . ... : ... .. . ... : ... .. . ... : ... .. . ... : ... .. . ...
ROW 28 : F-2 02 . ... : ... .. . ... : ... .. . ... : ... .. . ... : ... .. . ...
ROW 29 : ... .. . ... : ... .. . ... : ... .. . ... : ... .. . ... : ... .. . ...
ROW 2A : ... .. . ... : ... .. . ... : ... .. . ... : ... .. . ... : ... .. . ...
ROW 2B : ... .. . ... : ... .. . ... : ... .. . ... : ... .. . ... : ... .. . ...
ROW 2C : ... .. . ... : ... .. . ... : ... .. . ... : ... .. . ... : ... .. . ...
ROW 2D : ... .. . ... : ... .. . ... : ... .. . ... : ... .. . ... : ... .. . ...
ROW 2E : ... .. . ... : ... .. . ... : ... .. . ... : ... .. . ... : ... .. . ...
ROW 2F : ... .. . ... : ... .. . ... : ... .. . ... : ... .. . ... : ... .. . ...
ROW 30 : C-3 02 . ... : ... .. . ... : --- .. . ... : ... .. . ... : ... .. . ...
ROW 31 : ... .. . ... : ... .. . ... : ... .. . ... : ... .. . ... : ... .. . ...
ROW 32 : ... .. . ... : ... .. . ... : ... .. . ... : ... .. . ... : ... .. . ...
ROW 33 : ... .. . ... : ... .. . ... : ... .. . ... : ... .. . ... : ... .. . ...
ROW 34 : ... .. . ... : ... .. . ... : ... .. . ... : ... .. . ... : ... .. . ...
ROW 35 : ... .. . ... : ... .. . ... : ... .. . ... : ... .. . ... : ... .. . ...
ROW 36 : ... .. . ... : ... .. . ... : ... .. . ... : ... .. . ... : ... .. . ...
ROW 37 : ... .. . ... : ... .. . ... : ... .. . ... : ... .. . ... : ... .. . ...
ROW 38 : D-3 02 . ... : ... .. . ... : ... .. . ... : ... .. . ... : ... .. . ...
ROW 39 : ... .. . ... : ... .. . ... : ... .. . ... : ... .. . ... : ... .. . ...
ROW 3A : ... .. . ... : ... .. . ... : ... .. . ... : ... .. . ... : ... .. . ...
ROW 3B : ... .. . ... : ... .. . ... : ... .. . ... : ... .. . ... : ... .. . ...
ROW 3C : ... .. . ... : ... .. . ... : ... .. . ... : ... .. . ... : ... .. . ...
ROW 3D : ... .. . ... : ... .. . ... : ... .. . ... : ... .. . ... : ... .. . ...
ROW 3E : ... .. . ... : ... .. . ... : ... .. . ... : ... .. . ... : ... .. . ...
ROW 3F : ... .. . ... : ... .. . ... : ... .. . ... : ... .. . ... : ... .. . ...

PATTERN 17
ROW 00 : A-4 02 . ... : D-4 0B . ... : A-4 14 . ... : ... .. . ... : ... .. . ...
ROW 01 : ... .. . ... : ... .. . ... : ... .. . ... : ... .. . ... : ... .. . ...
ROW 02 : ... .. . ... : ... .. . ... : ... .. . ... : ... .. . ... : ... .. . ...
ROW 03 : ... .. . ... : ... .. . ... : ... .. . ... : ... .. . ... : ... .. . ...
ROW 04 : ... .. . ... : ... .. . ... : ... .. . ... : ... .. . ... : ... .. . ...
ROW 05 : ... .. . ... : ... .. . ... : ... .. . ... : ... .. . ... : ... .. . ...
ROW 06 : ... .. . ... : ... .. . ... : ... .. . ... : ... .. . ... : ... .. . ...
ROW 07 : ... .. . ... : ... .. . ... : ... .. . ... : ... .. . ... : ... .. . ...
ROW 08 : ... .. . ... : D-4 0A . ... : ... .. . ... : ... .. . ... : ... .. . ...
ROW 09 : ... .. . ... : ... .. . ... : ... .. . ... : ... .. . ... : ... .. . ...
ROW 0A : ... .. . ... : D-4 0A . ... : ... .. . ... : ... .. . ... : ... .. . ...
ROW 0B : ... .. . ... : ... .. . ... : ... .. . ... : ... .. . ... : ... .. . ...
ROW 0C : B-4 02 . ... : D-4 0A . ... : B-4 14 . ... : ... .. . ... : ... .. . ...
ROW 0D : ... .. . ... : ... .. . ... : ... .. . ... : ... .. . ... : ... .. . ...
ROW 0E : ... .. . ... : ... .. . ... : ... .. . ... : ... .. . ... : ... .. . ...
ROW 0F : ... .. . ... : ... .. . ... : ... .. . ... : ... .. . ... : ... .. . ...
ROW 10 : C-5 02 . ... : ... .. . ... : C-5 14 . ... : ... .. . ... : ... .. . ...
ROW 11 : ... .. . ... : ... .. . ... : ... .. . ... : ... .. . ... : ... .. . ...
ROW 12 : ... .. . ... : ... .. . ... : ... .. . ... : ... .. . ... : ... .. . ...
ROW 13 : ... .. . ... : ... .. . ... : ... .. . ... : ... .. . ... : ... .. . ...
ROW 14 : ... .. . ... : ... .. . ... : ... .. . ... : ... .. . ... : ... .. . ...
ROW 15 : ... .. . ... : ... .. . ... : ... .. . ... : ... .. . ... : ... .. . ...
ROW 16 : ... .. . ... : ... .. . ... : ... .. . ... : ... .. . ... : ... .. . ...
ROW 17 : ... .. . ... : ... .. . ... : ... .. . ... : ... .. . ... : ... .. . ...
ROW 18 : ... .. . ... : ... .. . ... : ... .. . ... : ... .. . ... : ... .. . ...
ROW 19 : ... .. . ... : ... .. . ... : ... .. . ... : ... .. . ... : ... .. . ...
ROW 1A : ... .. . ... : ... .. . ... : ... .. . ... : ... .. . ... : ... .. . ...
ROW 1B : ... .. . ... : ... .. . ... : ... .. . ... : ... .. . ... : ... .. . ...
ROW 1C : ... .. . ... : ... .. . ... : D-5 14 . ... : ... .. . ... : ... .. . ...
ROW 1D : ... .. . ... : ... .. . ... : ... .. . ... : ... .. . ... : ... .. . ...
ROW 1E : ... .. . ... : ... .. . ... : ... .. . ... : ... .. . ... : ... .. . ...
ROW 1F : ... .. . ... : ... .. . ... : ... .. . ... : ... .. . ... : ... .. . ...
ROW 20 : E-5 02 . ... : ... .. . ... : E-5 14 . ... : ... .. . ... : ... .. . ...
ROW 21 : ... .. . ... : ... .. . ... : ... .. . ... : ... .. . ... : ... .. . ...
ROW 22 : ... .. . ... : ... .. . ... : ... .. . ... : ... .. . ... : ... .. . ...
ROW 23 : ... .. . ... : ... .. . ... : ... .. . ... : ... .. . ... : ... .. . ...
ROW 24 : D-5 02 . ... : ... .. . ... : ... .. . ... : ... .. . ... : ... .. . ...
ROW 25 : ... .. . ... : ... .. . ... : ... .. . ... : ... .. . ... : ... .. . ...
ROW 26 : ... .. . ... : ... .. . ... : ... .. . ... : ... .. . ... : ... .. . ...
ROW 27 : ... .. . ... : ... .. . ... : ... .. . ... : ... .. . ... : ... .. . ...
ROW 28 : C-5 02 . ... : ... .. . ... : D-5 14 . ... : ... .. . ... : ... .. . ...
ROW 29 : ... .. . ... : ... .. . ... : ... .. . ... : ... .. . ... : ... .. . ...
ROW 2A : ... .. . ... : ... .. . ... : ... .. . ... : ... .. . ... : ... .. . ...
ROW 2B : ... .. . ... : ... .. . ... : ... .. . ... : ... .. . ... : ... .. . ...
ROW 2C : B-4 02 . ... : ... .. . ... : ... .. . ... : ... .. . ... : ... .. . ...
ROW 2D : ... .. . ... : ... .. . ... : ... .. . ... : ... .. . ... : ... .. . ...
ROW 2E : ... .. . ... : ... .. . ... : ... .. . ... : ... .. . ... : ... .. . ...
ROW 2F : ... .. . ... : ... .. . ... : ... .. . ... : ... .. . ... : ... .. . ...
ROW 30 : G-4 02 . ... : ... .. . ... : C-5 14 . ... : ... .. . ... : ... .. . ...
ROW 31 : ... .. . ... : ... .. . ... : ... .. . ... : ... .. . ... : ... .. . ...
ROW 32 : ... .. . ... : ... .. . ... : ... .. . ... : ... .. . ... : ... .. . ...
ROW 33 : ... .. . ... : ... .. . ... : ... .. . ... : ... .. . ... : ... .. . ...
ROW 34 : A-4 02 . ... : ... .. . ... : D-5 14 . ... : ... .. . ... : ... .. . ...
ROW 35 : ... .. . ... : ... .. . ... : ... .. . ... : ... .. . ... : ... .. . ...
ROW 36 : ... .. . ... : ... .. . ... : ... .. . ... : ... .. . ... : ... .. . ...
ROW 37 : ... .. . ... : ... .. . ... : ... .. . ... : ... .. . ... : ... .. . ...
ROW 38 : B-4 02 . ... : ... .. . ... : C-5 14 . ... : ... .. . ... : ... .. . ...
ROW 39 : ... .. . ... : ... .. . ... : ... .. . ... : ... .. . ... : ... .. . ...
ROW 3A : ... .. . ... : ... .. . ... : ... .. . ... : ... .. . ... : ... .. . ...
ROW 3B : ... .. . ... : ... .. . ... : ... .. . ... : ... .. . ... : ... .. . ...
ROW 3C : D-5 02 . ... : ... .. . ... : A-4 14 . ... : ... .. . ... : ... .. . ...
ROW 3D : ... .. . ... : ... .. . ... : ... .. . ... : ... .. . ... : ... .. . ...
ROW 3E : ... .. . ... : ... .. . ... : ... .. . ... : ... .. . ... : ... .. . ...
ROW 3F : ... .. . ... : ... .. . ... : ... .. . ... : ... .. . ... : ... .. . ...

PATTERN 18
ROW 00 : A-5 02 . ... : ... .. . ... : A-4 14 . ... : ... .. . ... : ... .. . ...
ROW 01 : ... .. . ... : ... .. . ... : ... .. . ... : ... .. . ... : ... .. . ...
ROW 02 : ... .. . ... : ... .. . ... : ... .. . ... : ... .. . ... : ... .. . ...
ROW 03 : ... .. . ... : ... .. . ... : ... .. . ... : ... .. . ... : ... .. . ...
ROW 04 : ... .. . ... : ... .. . ... : ... .. . ... : ... .. . ... : ... .. . ...
ROW 05 : ... .. . ... : ... .. . ... : ... .. . ... : ... .. . ... : ... .. . ...
ROW 06 : ... .. . ... : ... .. . ... : ... .. . ... : ... .. . ... : ... .. . ...
ROW 07 : ... .. . ... : ... .. . ... : ... .. . ... : ... .. . ... : ... .. . ...
ROW 08 : ... .. . ... : ... .. . ... : ... .. . ... : ... .. . ... : ... .. . ...
ROW 09 : ... .. . ... : ... .. . ... : ... .. . ... : ... .. . ... : ... .. . ...
ROW 0A : ... .. . ... : ... .. . ... : ... .. . ... : ... .. . ... : ... .. . ...
ROW 0B : ... .. . ... : ... .. . ... : ... .. . ... : ... .. . ... : ... .. . ...
ROW 0C : B-5 02 . ... : ... .. . ... : B-4 14 . ... : ... .. . ... : ... .. . ...
ROW 0D : ... .. . ... : ... .. . ... : ... .. . ... : ... .. . ... : ... .. . ...
ROW 0E : ... .. . ... : ... .. . ... : ... .. . ... : ... .. . ... : ... .. . ...
ROW 0F : ... .. . ... : ... .. . ... : ... .. . ... : ... .. . ... : ... .. . ...
ROW 10 : C-6 02 . ... : ... .. . ... : C-5 14 . ... : ... .. . ... : ... .. . ...
ROW 11 : ... .. . ... : ... .. . ... : ... .. . ... : ... .. . ... : ... .. . ...
ROW 12 : ... .. . ... : ... .. . ... : ... .. . ... : ... .. . ... : ... .. . ...
ROW 13 : ... .. . ... : ... .. . ... : ... .. . ... : ... .. . ... : ... .. . ...
ROW 14 : ... .. . ... : ... .. . ... : ... .. . ... : ... .. . ... : ... .. . ...
ROW 15 : ... .. . ... : ... .. . ... : ... .. . ... : ... .. . ... : ... .. . ...
ROW 16 : ... .. . ... : ... .. . ... : ... .. . ... : ... .. . ... : ... .. . ...
ROW 17 : ... .. . ... : ... .. . ... : ... .. . ... : ... .. . ... : ... .. . ...
ROW 18 : ... .. . ... : ... .. . ... : ... .. . ... : ... .. . ... : ... .. . ...
ROW 19 : ... .. . ... : ... .. . ... : ... .. . ... : ... .. . ... : ... .. . ...
ROW 1A : ... .. . ... : ... .. . ... : ... .. . ... : ... .. . ... : ... .. . ...
ROW 1B : ... .. . ... : ... .. . ... : ... .. . ... : ... .. . ... : ... .. . ...
ROW 1C : D-4 02 . ... : ... .. . ... : D-5 14 . ... : ... .. . ... : ... .. . ...
ROW 1D : ... .. . ... : ... .. . ... : ... .. . ... : ... .. . ... : ... .. . ...
ROW 1E : ... .. . ... : ... .. . ... : ... .. . ... : ... .. . ... : ... .. . ...
ROW 1F : --- .. . ... : ... .. . ... : ... .. . ... : ... .. . ... : ... .. . ...
ROW 20 : E-4 02 . ... : ... .. . ... : E-5 14 . ... : ... .. . ... : ... .. . ...
ROW 21 : ... .. . ... : ... .. . ... : ... .. . ... : ... .. . ... : ... .. . ...
ROW 22 : ... .. . ... : ... .. . ... : --- 14 . ... : ... .. . ... : ... .. . ...
ROW 23 : --- .. . ... : ... .. . ... : ... .. . ... : ... .. . ... : ... .. . ...
ROW 24 : C-4 02 . ... : ... .. . ... : C-5 14 . ... : ... .. . ... : ... .. . ...
ROW 25 : ... .. . ... : ... .. . ... : ... .. . ... : ... .. . ... : ... .. . ...
ROW 26 : ... .. . ... : ... .. . ... : --- 14 . ... : ... .. . ... : ... .. . ...
ROW 27 : --- .. . ... : ... .. . ... : ... .. . ... : ... .. . ... : ... .. . ...
ROW 28 : D-4 02 . ... : ... .. . ... : D-5 14 . ... : ... .. . ... : ... .. . ...
ROW 29 : ... .. . ... : ... .. . ... : ... .. . ... : ... .. . ... : ... .. . ...
ROW 2A : ... .. . ... : ... .. . ... : --- 14 . ... : ... .. . ... : ... .. . ...
ROW 2B : --- .. . ... : ... .. . ... : ... .. . ... : ... .. . ... : ... .. . ...
ROW 2C : B-3 02 . ... : ... .. . ... : B-4 14 . ... : ... .. . ... : ... .. . ...
ROW 2D : ... .. . ... : ... .. . ... : ... .. . ... : ... .. . ... : ... .. . ...
ROW 2E : ... .. . ... : ... .. . ... : --- .. . ... : ... .. . ... : ... .. . ...
ROW 2F : --- .. . ... : ... .. . ... : ... .. . ... : ... .. . ... : ... .. . ...
ROW 30 : A-3 02 . ... : ... .. . ... : A-4 14 . ... : ... .. . ... : ... .. . ...
ROW 31 : ... .. . ... : ... .. . ... : ... .. . ... : ... .. . ... : ... .. . ...
ROW 32 : ... .. . ... : ... .. . ... : --- .. . ... : ... .. . ... : ... .. . ...
ROW 33 : --- .. . ... : ... .. . ... : ... .. . ... : ... .. . ... : ... .. . ...
ROW 34 : E-3 02 . ... : ... .. . ... : E-4 14 . ... : ... .. . ... : ... .. . ...
ROW 35 : ... .. . ... : ... .. . ... : ... .. . ... : ... .. . ... : ... .. . ...
ROW 36 : ... .. . ... : ... .. . ... : --- .. . ... : ... .. . ... : ... .. . ...
ROW 37 : --- .. . ... : ... .. . ... : ... .. . ... : ... .. . ... : ... .. . ...
ROW 38 : A-3 02 . ... : ... .. . ... : A-4 14 . ... : ... .. . ... : ... .. . ...
ROW 39 : ... .. . ... : ... .. . ... : ... .. . ... : ... .. . ... : ... .. . ...
ROW 3A : ... .. . ... : ... .. . ... : ... .. . ... : ... .. . ... : ... .. . ...
ROW 3B : ... .. . ... : ... .. . ... : ... .. . ... : ... .. . ... : ... .. . ...
ROW 3C : ... .. . ... : ... .. . ... : ... .. . ... : ... .. . ... : ... .. . ...
ROW 3D : ... .. . ... : ... .. . ... : ... .. . ... : ... .. . ... : ... .. . ...
ROW 3E : ... .. . ... : ... .. . ... : ... .. . ... : ... .. . ... : ... .. . ...
ROW 3F : ... .. . ... : ... .. . ... : ... .. . ... : ... .. . ... : ... .. . ...

PATTERN 19
ROW 00 : F-4 0B . ... : ... .. . ... : A-4 0B . ... : 4-# 05 . ... : ... .. . ...
ROW 01 : ... .. . ... : ... .. . ... : ... .. . ... : ... .. . ... : ... .. . ...
ROW 02 : ... .. . ... : ... .. . ... : ... .. . ... : 4-# 05 . ... : ... .. . ...
ROW 03 : ... .. . ... : ... .. . ... : ... .. . ... : ... .. . ... : ... .. . ...
ROW 04 : ... .. . ... : ... .. . ... : ... .. . ... : 6-# 05 . ... : ... .. . ...
ROW 05 : ... .. . ... : ... .. . ... : ... .. . ... : ... .. . ... : ... .. . ...
ROW 06 : ... .. . ... : ... .. . ... : ... .. . ... : ... .. . ... : ... .. . ...
ROW 07 : ... .. . ... : ... .. . ... : ... .. . ... : ... .. . ... : ... .. . ...
ROW 08 : F-4 0A . ... : ... .. . ... : A-4 0A . ... : 0-# 06 . ... : ... .. . ...
ROW 09 : ... .. . ... : ... .. . ... : ... .. . ... : ... .. . ... : ... .. . ...
ROW 0A : F-4 0A . ... : ... .. . ... : A-4 0A . ... : 0-# 06 . ... : ... .. . ...
ROW 0B : ... .. . ... : ... .. . ... : ... .. . ... : ... .. . ... : ... .. . ...
ROW 0C : F-4 0A . ... : ... .. . ... : A-4 0A . ... : 0-# 06 . ... : ... .. . ...
ROW 0D : ... .. . ... : ... .. . ... : ... .. . ... : ... .. . ... : ... .. . ...
ROW 0E : ... .. . ... : ... .. . ... : ... .. . ... : ... .. . ... : ... .. . ...
ROW 0F : ... .. . D00 : ... .. . ... : ... .. . ... : ... .. . ... : ... .. . ...
ROW 10 : ... .. . ... : ... .. . ... : ... .. . ... : ... .. . ... : ... .. . ...
ROW 11 : ... .. . ... : ... .. . ... : ... .. . ... : ... .. . ... : ... .. . ...
ROW 12 : ... .. . ... : ... .. . ... : ... .. . ... : ... .. . ... : ... .. . ...
ROW 13 : ... .. . ... : ... .. . ... : ... .. . ... : ... .. . ... : ... .. . ...
ROW 14 : ... .. . ... : ... .. . ... : ... .. . ... : ... .. . ... : ... .. . ...
ROW 15 : ... .. . ... : ... .. . ... : ... .. . ... : ... .. . ... : ... .. . ...
ROW 16 : ... .. . ... : ... .. . ... : ... .. . ... : ... .. . ... : ... .. . ...
ROW 17 : ... .. . ... : ... .. . ... : ... .. . ... : ... .. . ... : ... .. . ...
ROW 18 : ... .. . ... : ... .. . ... : ... .. . ... : ... .. . ... : ... .. . ...
ROW 19 : ... .. . ... : ... .. . ... : ... .. . ... : ... .. . ... : ... .. . ...
ROW 1A : ... .. . ... : ... .. . ... : ... .. . ... : ... .. . ... : ... .. . ...
ROW 1B : ... .. . ... : ... .. . ... : ... .. . ... : ... .. . ... : ... .. . ...
ROW 1C : ... .. . ... : ... .. . ... : ... .. . ... : ... .. . ... : ... .. . ...
ROW 1D : ... .. . ... : ... .. . ... : ... .. . ... : ... .. . ... : ... .. . ...
ROW 1E : ... .. . ... : ... .. . ... : ... .. . ... : ... .. . ... : ... .. . ...
ROW 1F : ... .. . ... : ... .. . ... : ... .. . ... : ... .. . ... : ... .. . ...
ROW 20 : ... .. . ... : ... .. . ... : ... .. . ... : ... .. . ... : ... .. . ...
ROW 21 : ... .. . ... : ... .. . ... : ... .. . ... : ... .. . ... : ... .. . ...
ROW 22 : ... .. . ... : ... .. . ... : ... .. . ... : ... .. . ... : ... .. . ...
ROW 23 : ... .. . ... : ... .. . ... : ... .. . ... : ... .. . ... : ... .. . ...
ROW 24 : ... .. . ... : ... .. . ... : ... .. . ... : ... .. . ... : ... .. . ...
ROW 25 : ... .. . ... : ... .. . ... : ... .. . ... : ... .. . ... : ... .. . ...
ROW 26 : ... .. . ... : ... .. . ... : ... .. . ... : ... .. . ... : ... .. . ...
ROW 27 : ... .. . ... : ... .. . ... : ... .. . ... : ... .. . ... : ... .. . ...
ROW 28 : ... .. . ... : ... .. . ... : ... .. . ... : ... .. . ... : ... .. . ...
ROW 29 : ... .. . ... : ... .. . ... : ... .. . ... : ... .. . ... : ... .. . ...
ROW 2A : ... .. . ... : ... .. . ... : ... .. . ... : ... .. . ... : ... .. . ...
ROW 2B : ... .. . ... : ... .. . ... : ... .. . ... : ... .. . ... : ... .. . ...
ROW 2C : ... .. . ... : ... .. . ... : ... .. . ... : ... .. . ... : ... .. . ...
ROW 2D : ... .. . ... : ... .. . ... : ... .. . ... : ... .. . ... : ... .. . ...
ROW 2E : ... .. . ... : ... .. . ... : ... .. . ... : ... .. . ... : ... .. . ...
ROW 2F : ... .. . ... : ... .. . ... : ... .. . ... : ... .. . ... : ... .. . ...
ROW 30 : ... .. . ... : ... .. . ... : ... .. . ... : ... .. . ... : ... .. . ...
ROW 31 : ... .. . ... : ... .. . ... : ... .. . ... : ... .. . ... : ... .. . ...
ROW 32 : ... .. . ... : ... .. . ... : ... .. . ... : ... .. . ... : ... .. . ...
ROW 33 : ... .. . ... : ... .. . ... : ... .. . ... : ... .. . ... : ... .. . ...
ROW 34 : ... .. . ... : ... .. . ... : ... .. . ... : ... .. . ... : ... .. . ...
ROW 35 : ... .. . ... : ... .. . ... : ... .. . ... : ... .. . ... : ... .. . ...
ROW 36 : ... .. . ... : ... .. . ... : ... .. . ... : ... .. . ... : ... .. . ...
ROW 37 : ... .. . ... : ... .. . ... : ... .. . ... : ... .. . ... : ... .. . ...
ROW 38 : ... .. . ... : ... .. . ... : ... .. . ... : ... .. . ... : ... .. . ...
ROW 39 : ... .. . ... : ... .. . ... : ... .. . ... : ... .. . ... : ... .. . ...
ROW 3A : ... .. . ... : ... .. . ... : ... .. . ... : ... .. . ... : ... .. . ...
ROW 3B : ... .. . ... : ... .. . ... : ... .. . ... : ... .. . ... : ... .. . ...
ROW 3C : ... .. . ... : ... .. . ... : ... .. . ... : ... .. . ... : ... .. . ...
ROW 3D : ... .. . ... : ... .. . ... : ... .. . ... : ... .. . ... : ... .. . ...
ROW 3E : ... .. . ... : ... .. . ... : ... .. . ... : ... .. . ... : ... .. . ...
ROW 3F : ... .. . ... : ... .. . ... : ... .. . ... : ... .. . ... : ... .. . ...

PATTERN 1A
ROW 00 : G-2 02 . ... : ... .. . ... : F-4 14 . ... : 4-# 05 . ... : ... .. . ...
ROW 01 : ... .. . ... : ... .. . ... : ... .. . ... : ... .. . ... : ... .. . ...
ROW 02 : ... .. . ... : ... .. . ... : ... .. . ... : ... .. . ... : ... .. . ...
ROW 03 : ... .. . ... : ... .. . ... : ... .. . ... : ... .. . ... : ... .. . ...
ROW 04 : ... .. . ... : ... .. . ... : ... .. . ... : 4-# 05 . ... : ... .. . ...
ROW 05 : ... .. . ... : ... .. . ... : ... .. . ... : ... .. . ... : ... .. . ...
ROW 06 : ... .. . ... : ... .. . ... : ... .. . ... : 6-# 05 . ... : ... .. . ...
ROW 07 : ... .. . ... : ... .. . ... : ... .. . ... : ... .. . ... : ... .. . ...
ROW 08 : ... .. . ... : ... .. . ... : ... .. . ... : ... .. . ... : ... .. . ...
ROW 09 : ... .. . ... : ... .. . ... : ... .. . ... : ... .. . ... : ... .. . ...
ROW 0A : ... .. . ... : ... .. . ... : ... .. . ... : ... .. . ... : ... .. . ...
ROW 0B : ... .. . ... : ... .. . ... : ... .. . ... : ... .. . ... : ... .. . ...
ROW 0C : ... .. . ... : ... .. . ... : ... .. . ... : 4-# 05 . ... : ... .. . ...
ROW 0D : ... .. . ... : ... .. . ... : ... .. . ... : ... .. . ... : ... .. . ...
ROW 0E : ... .. . ... : ... .. . ... : ... .. . ... : ... .. . ... : ... .. . ...
ROW 0F : ... .. . ... : ... .. . ... : ... .. . ... : ... .. . ... : ... .. . ...
ROW 10 : F-2 02 . ... : ... .. . ... : E-4 14 . ... : 4-# 05 . ... : ... .. . ...
ROW 11 : ... .. . ... : ... .. . ... : ... .. . ... : ... .. . ... : ... .. . ...
ROW 12 : ... .. . ... : ... .. . ... : ... .. . ... : 4-# 05 . ... : ... .. . ...
ROW 13 : ... .. . ... : ... .. . ... : ... .. . ... : ... .. . ... : ... .. . ...
ROW 14 : ... .. . ... : ... .. . ... : ... .. . ... : 6-# 05 . ... : ... .. . ...
ROW 15 : ... .. . ... : ... .. . ... : ... .. . ... : ... .. . ... : ... .. . ...
ROW 16 : ... .. . ... : ... .. . ... : ... .. . ... : ... .. . ... : ... .. . ...
ROW 17 : ... .. . ... : ... .. . ... : ... .. . ... : ... .. . ... : ... .. . ...
ROW 18 : ... .. . ... : ... .. . ... : ... .. . ... : ... .. . ... : ... .. . ...
ROW 19 : ... .. . ... : ... .. . ... : ... .. . ... : ... .. . ... : ... .. . ...
ROW 1A : ... .. . ... : ... .. . ... : ... .. . ... : ... .. . ... : ... .. . ...
ROW 1B : ... .. . ... : ... .. . ... : ... .. . ... : ... .. . ... : ... .. . ...
ROW 1C : ... .. . ... : ... .. . ... : ... .. . ... : 4-# 05 . ... : ... .. . ...
ROW 1D : ... .. . ... : ... .. . ... : ... .. . ... : ... .. . ... : ... .. . ...
ROW 1E : ... .. . ... : ... .. . ... : ... .. . ... : ... .. . ... : ... .. . ...
ROW 1F : ... .. . ... : ... .. . ... : ... .. . ... : ... .. . ... : ... .. . ...
ROW 20 : E-2 02 . ... : ... .. . ... : G-4 14 . ... : 4-# 05 . ... : ... .. . ...
ROW 21 : ... .. . ... : ... .. . ... : ... .. . ... : ... .. . ... : ... .. . ...
ROW 22 : ... .. . ... : ... .. . ... : ... .. . ... : ... .. . ... : ... .. . ...
ROW 23 : ... .. . ... : ... .. . ... : ... .. . ... : ... .. . ... : ... .. . ...
ROW 24 : ... .. . ... : ... .. . ... : A-4 14 . ... : 4-# 05 . ... : ... .. . ...
ROW 25 : ... .. . ... : ... .. . ... : ... .. . ... : ... .. . ... : ... .. . ...
ROW 26 : ... .. . ... : ... .. . ... : ... .. . ... : 6-# 05 . ... : ... .. . ...
ROW 27 : ... .. . ... : ... .. . ... : ... .. . ... : ... .. . ... : ... .. . ...
ROW 28 : F-2 02 . ... : ... .. . ... : G-4 14 . ... : ... .. . ... : ... .. . ...
ROW 29 : ... .. . ... : ... .. . ... : ... .. . ... : ... .. . ... : ... .. . ...
ROW 2A : ... .. . ... : ... .. . ... : ... .. . ... : ... .. . ... : ... .. . ...
ROW 2B : ... .. . ... : ... .. . ... : ... .. . ... : ... .. . ... : ... .. . ...
ROW 2C : ... .. . ... : ... .. . ... : F-4 14 . ... : 4-# 05 . ... : ... .. . ...
ROW 2D : ... .. . ... : ... .. . ... : ... .. . ... : ... .. . ... : ... .. . ...
ROW 2E : ... .. . ... : ... .. . ... : ... .. . ... : ... .. . ... : ... .. . ...
ROW 2F : ... .. . ... : ... .. . ... : ... .. . ... : ... .. . ... : ... .. . ...
ROW 30 : C-3 02 . ... : ... .. . ... : G-4 14 . ... : 4-# 05 . ... : ... .. . ...
ROW 31 : ... .. . ... : ... .. . ... : ... .. . ... : ... .. . ... : ... .. . ...
ROW 32 : ... .. . ... : ... .. . ... : ... .. . ... : 4-# 05 . ... : ... .. . ...
ROW 33 : ... .. . ... : ... .. . ... : ... .. . ... : ... .. . ... : ... .. . ...
ROW 34 : ... .. . ... : ... .. . ... : A-4 14 . ... : 6-# 05 . ... : ... .. . ...
ROW 35 : ... .. . ... : ... .. . ... : ... .. . ... : ... .. . ... : ... .. . ...
ROW 36 : ... .. . ... : ... .. . ... : ... .. . ... : ... .. . ... : ... .. . ...
ROW 37 : ... .. . ... : ... .. . ... : ... .. . ... : ... .. . ... : ... .. . ...
ROW 38 : D-3 02 . ... : ... .. . ... : C-5 14 . ... : ... .. . ... : ... .. . ...
ROW 39 : ... .. . ... : ... .. . ... : ... .. . ... : ... .. . ... : ... .. . ...
ROW 3A : ... .. . ... : ... .. . ... : ... .. . ... : ... .. . ... : ... .. . ...
ROW 3B : ... .. . ... : ... .. . ... : ... .. . ... : ... .. . ... : ... .. . ...
ROW 3C : ... .. . ... : ... .. . ... : A-4 14 . ... : ... .. . ... : ... .. . ...
ROW 3D : ... .. . ... : ... .. . ... : ... .. . ... : ... .. . ... : ... .. . ...
ROW 3E : ... .. . ... : ... .. . ... : ... .. . ... : ... .. . ... : ... .. . ...
ROW 3F : ... .. . ... : ... .. . ... : ... .. . ... : ... .. . ... : ... .. . ...

PATTERN 1B
ROW 00 : G-2 02 . ... : ... .. . ... : ... .. . ... : 4-# 05 . ... : ... .. . ...
ROW 01 : ... .. . ... : ... .. . ... : ... .. . ... : ... .. . ... : ... .. . ...
ROW 02 : ... .. . ... : ... .. . ... : ... .. . ... : ... .. . ... : ... .. . ...
ROW 03 : ... .. . ... : ... .. . ... : ... .. . ... : ... .. . ... : ... .. . ...
ROW 04 : ... .. . ... : ... .. . ... : ... .. . ... : 4-# 05 . ... : ... .. . ...
ROW 05 : ... .. . ... : ... .. . ... : ... .. . ... : ... .. . ... : ... .. . ...
ROW 06 : ... .. . ... : ... .. . ... : ... .. . ... : 6-# 05 . ... : ... .. . ...
ROW 07 : ... .. . ... : ... .. . ... : ... .. . ... : ... .. . ... : ... .. . ...
ROW 08 : ... .. . ... : ... .. . ... : ... .. . ... : ... .. . ... : ... .. . ...
ROW 09 : ... .. . ... : ... .. . ... : ... .. . ... : ... .. . ... : ... .. . ...
ROW 0A : ... .. . ... : ... .. . ... : ... .. . ... : ... .. . ... : ... .. . ...
ROW 0B : ... .. . ... : ... .. . ... : ... .. . ... : ... .. . ... : ... .. . ...
ROW 0C : ... .. . ... : ... .. . ... : ... .. . ... : 4-# 05 . ... : ... .. . ...
ROW 0D : ... .. . ... : ... .. . ... : ... .. . ... : ... .. . ... : ... .. . ...
ROW 0E : ... .. . ... : ... .. . ... : ... .. . ... : ... .. . ... : ... .. . ...
ROW 0F : ... .. . ... : ... .. . ... : ... .. . ... : ... .. . ... : ... .. . ...
ROW 10 : F-2 02 . ... : ... .. . ... : ... .. . ... : 4-# 05 . ... : ... .. . ...
ROW 11 : ... .. . ... : ... .. . ... : ... .. . ... : ... .. . ... : ... .. . ...
ROW 12 : ... .. . ... : ... .. . ... : ... .. . ... : 4-# 05 . ... : ... .. . ...
ROW 13 : ... .. . ... : ... .. . ... : ... .. . ... : ... .. . ... : ... .. . ...
ROW 14 : ... .. . ... : ... .. . ... : ... .. . ... : 6-# 05 . ... : ... .. . ...
ROW 15 : ... .. . ... : ... .. . ... : ... .. . ... : ... .. . ... : ... .. . ...
ROW 16 : ... .. . ... : ... .. . ... : ... .. . ... : ... .. . ... : ... .. . ...
ROW 17 : ... .. . ... : ... .. . ... : ... .. . ... : ... .. . ... : ... .. . ...
ROW 18 : ... .. . ... : ... .. . ... : ... .. . ... : ... .. . ... : ... .. . ...
ROW 19 : ... .. . ... : ... .. . ... : ... .. . ... : ... .. . ... : ... .. . ...
ROW 1A : ... .. . ... : ... .. . ... : ... .. . ... : ... .. . ... : ... .. . ...
ROW 1B : ... .. . ... : ... .. . ... : ... .. . ... : ... .. . ... : ... .. . ...
ROW 1C : ... .. . ... : ... .. . ... : ... .. . ... : 4-# 05 . ... : ... .. . ...
ROW 1D : ... .. . ... : ... .. . ... : ... .. . ... : ... .. . ... : ... .. . ...
ROW 1E : ... .. . ... : ... .. . ... : ... .. . ... : ... .. . ... : ... .. . ...
ROW 1F : ... .. . ... : ... .. . ... : ... .. . ... : ... .. . ... : ... .. . ...
ROW 20 : E-2 02 . ... : ... .. . ... : ... .. . ... : 4-# 05 . ... : ... .. . ...
ROW 21 : ... .. . ... : ... .. . ... : ... .. . ... : ... .. . ... : ... .. . ...
ROW 22 : ... .. . ... : ... .. . ... : ... .. . ... : ... .. . ... : ... .. . ...
ROW 23 : ... .. . ... : ... .. . ... : ... .. . ... : ... .. . ... : ... .. . ...
ROW 24 : ... .. . ... : ... .. . ... : ... .. . ... : 4-# 05 . ... : ... .. . ...
ROW 25 : ... .. . ... : ... .. . ... : ... .. . ... : ... .. . ... : ... .. . ...
ROW 26 : ... .. . ... : ... .. . ... : ... .. . ... : 6-# 05 . ... : ... .. . ...
ROW 27 : ... .. . ... : ... .. . ... : ... .. . ... : ... .. . ... : ... .. . ...
ROW 28 : F-2 02 . ... : ... .. . ... : ... .. . ... : ... .. . ... : ... .. . ...
ROW 29 : ... .. . ... : ... .. . ... : ... .. . ... : ... .. . ... : ... .. . ...
ROW 2A : ... .. . ... : ... .. . ... : ... .. . ... : ... .. . ... : ... .. . ...
ROW 2B : ... .. . ... : ... .. . ... : ... .. . ... : ... .. . ... : ... .. . ...
ROW 2C : ... .. . ... : ... .. . ... : ... .. . ... : 4-# 05 . ... : ... .. . ...
ROW 2D : ... .. . ... : ... .. . ... : ... .. . ... : ... .. . ... : ... .. . ...
ROW 2E : ... .. . ... : ... .. . ... : ... .. . ... : ... .. . ... : ... .. . ...
ROW 2F : ... .. . ... : ... .. . ... : ... .. . ... : ... .. . ... : ... .. . ...
ROW 30 : C-3 02 . ... : ... .. . ... : ... .. . ... : 4-# 05 . ... : ... .. . ...
ROW 31 : ... .. . ... : ... .. . ... : ... .. . ... : ... .. . ... : ... .. . ...
ROW 32 : ... .. . ... : ... .. . ... : ... .. . ... : 4-# 05 . ... : ... .. . ...
ROW 33 : ... .. . ... : ... .. . ... : ... .. . ... : ... .. . ... : ... .. . ...
ROW 34 : ... .. . ... : ... .. . ... : ... .. . ... : 6-# 05 . ... : ... .. . ...
ROW 35 : ... .. . ... : ... .. . ... : ... .. . ... : ... .. . ... : ... .. . ...
ROW 36 : ... .. . ... : ... .. . ... : ... .. . ... : ... .. . ... : ... .. . ...
ROW 37 : ... .. . ... : ... .. . ... : ... .. . ... : ... .. . ... : ... .. . ...
ROW 38 : D-3 02 . ... : ... .. . ... : ... .. . ... : ... .. . ... : ... .. . ...
ROW 39 : ... .. . ... : ... .. . ... : ... .. . ... : ... .. . ... : ... .. . ...
ROW 3A : ... .. . ... : ... .. . ... : ... .. . ... : ... .. . ... : ... .. . ...
ROW 3B : ... .. . ... : ... .. . ... : ... .. . ... : ... .. . ... : ... .. . ...
ROW 3C : ... .. . ... : ... .. . ... : ... .. . ... : ... .. . ... : ... .. . ...
ROW 3D : ... .. . ... : ... .. . ... : ... .. . ... : ... .. . ... : ... .. . ...
ROW 3E : ... .. . ... : ... .. . ... : ... .. . ... : ... .. . ... : ... .. . ...
ROW 3F : ... .. . ... : ... .. . ... : ... .. . ... : ... .. . ... : ... .. . ...

PATTERN 1C
ROW 00 : G-2 02 . ... : ... .. . ... : ... .. . ... : ... .. . ... : ... .. . ...
ROW 01 : ... .. . ... : ... .. . ... : ... .. . ... : ... .. . ... : ... .. . ...
ROW 02 : ... .. . ... : ... .. . ... : ... .. . ... : ... .. . ... : ... .. . ...
ROW 03 : ... .. . ... : ... .. . ... : ... .. . ... : ... .. . ... : ... .. . ...
ROW 04 : ... .. . ... : ... .. . ... : ... .. . ... : ... .. . ... : ... .. . ...
ROW 05 : ... .. . ... : ... .. . ... : ... .. . ... : ... .. . ... : ... .. . ...
ROW 06 : ... .. . ... : ... .. . ... : ... .. . ... : ... .. . ... : ... .. . ...
ROW 07 : ... .. . ... : ... .. . ... : ... .. . ... : ... .. . ... : ... .. . ...
ROW 08 : ... .. . ... : ... .. . ... : ... .. . ... : ... .. . ... : ... .. . ...
ROW 09 : ... .. . ... : ... .. . ... : ... .. . ... : ... .. . ... : ... .. . ...
ROW 0A : ... .. . ... : ... .. . ... : ... .. . ... : ... .. . ... : ... .. . ...
ROW 0B : ... .. . ... : ... .. . ... : ... .. . ... : ... .. . ... : ... .. . ...
ROW 0C : ... .. . ... : ... .. . ... : ... .. . ... : ... .. . ... : ... .. . ...
ROW 0D : ... .. . ... : ... .. . ... : ... .. . ... : ... .. . ... : ... .. . ...
ROW 0E : ... .. . ... : ... .. . ... : ... .. . ... : ... .. . ... : ... .. . ...
ROW 0F : ... .. . ... : ... .. . ... : ... .. . ... : ... .. . ... : ... .. . ...
ROW 10 : F-2 02 . ... : ... .. . ... : ... .. . ... : ... .. . ... : ... .. . ...
ROW 11 : ... .. . ... : ... .. . ... : ... .. . ... : ... .. . ... : ... .. . ...
ROW 12 : ... .. . ... : ... .. . ... : ... .. . ... : ... .. . ... : ... .. . ...
ROW 13 : ... .. . ... : ... .. . ... : ... .. . ... : ... .. . ... : ... .. . ...
ROW 14 : ... .. . ... : ... .. . ... : ... .. . ... : ... .. . ... : ... .. . ...
ROW 15 : ... .. . ... : ... .. . ... : ... .. . ... : ... .. . ... : ... .. . ...
ROW 16 : ... .. . ... : ... .. . ... : ... .. . ... : ... .. . ... : ... .. . ...
ROW 17 : ... .. . ... : ... .. . ... : ... .. . ... : ... .. . ... : ... .. . ...
ROW 18 : ... .. . ... : ... .. . ... : ... .. . ... : ... .. . ... : ... .. . ...
ROW 19 : ... .. . ... : ... .. . ... : ... .. . ... : ... .. . ... : ... .. . ...
ROW 1A : ... .. . ... : ... .. . ... : ... .. . ... : ... .. . ... : ... .. . ...
ROW 1B : ... .. . ... : ... .. . ... : ... .. . ... : ... .. . ... : ... .. . ...
ROW 1C : ... .. . ... : ... .. . ... : ... .. . ... : ... .. . ... : ... .. . ...
ROW 1D : ... .. . ... : ... .. . ... : ... .. . ... : ... .. . ... : ... .. . ...
ROW 1E : ... .. . ... : ... .. . ... : ... .. . ... : ... .. . ... : ... .. . ...
ROW 1F : ... .. . ... : ... .. . ... : ... .. . ... : ... .. . ... : ... .. . ...
ROW 20 : E-2 02 . ... : ... .. . ... : ... .. . ... : ... .. . ... : ... .. . ...
ROW 21 : ... .. . ... : ... .. . ... : ... .. . ... : ... .. . ... : ... .. . ...
ROW 22 : ... .. . ... : ... .. . ... : ... .. . ... : ... .. . ... : ... .. . ...
ROW 23 : ... .. . ... : ... .. . ... : ... .. . ... : ... .. . ... : ... .. . ...
ROW 24 : ... .. . ... : ... .. . ... : ... .. . ... : ... .. . ... : ... .. . ...
ROW 25 : ... .. . ... : ... .. . ... : ... .. . ... : ... .. . ... : ... .. . ...
ROW 26 : ... .. . ... : ... .. . ... : ... .. . ... : ... .. . ... : ... .. . ...
ROW 27 : ... .. . ... : ... .. . ... : ... .. . ... : ... .. . ... : ... .. . ...
ROW 28 : F-2 02 . ... : ... .. . ... : ... .. . ... : ... .. . ... : ... .. . ...
ROW 29 : ... .. . ... : ... .. . ... : ... .. . ... : ... .. . ... : ... .. . ...
ROW 2A : ... .. . ... : ... .. . ... : ... .. . ... : ... .. . ... : ... .. . ...
ROW 2B : ... .. . ... : ... .. . ... : ... .. . ... : ... .. . ... : ... .. . ...
ROW 2C : ... .. . ... : ... .. . ... : ... .. . ... : ... .. . ... : ... .. . ...
ROW 2D : ... .. . ... : ... .. . ... : ... .. . ... : ... .. . ... : ... .. . ...
ROW 2E : ... .. . ... : ... .. . ... : ... .. . ... : ... .. . ... : ... .. . ...
ROW 2F : ... .. . ... : ... .. . ... : ... .. . ... : ... .. . ... : ... .. . ...
ROW 30 : C-3 02 . ... : ... .. . ... : ... .. . ... : ... .. . ... : ... .. . ...
ROW 31 : ... .. . ... : ... .. . ... : ... .. . ... : ... .. . ... : ... .. . ...
ROW 32 : ... .. . ... : ... .. . ... : ... .. . ... : ... .. . ... : ... .. . ...
ROW 33 : ... .. . ... : ... .. . ... : ... .. . ... : ... .. . ... : ... .. . ...
ROW 34 : ... .. . ... : ... .. . ... : ... .. . ... : ... .. . ... : ... .. . ...
ROW 35 : ... .. . ... : ... .. . ... : ... .. . ... : ... .. . ... : ... .. . ...
ROW 36 : ... .. . ... : ... .. . ... : ... .. . ... : ... .. . ... : ... .. . ...
ROW 37 : ... .. . ... : ... .. . ... : ... .. . ... : ... .. . ... : ... .. . ...
ROW 38 : D-3 02 . ... : ... .. . ... : ... .. . ... : ... .. . ... : ... .. . ...
ROW 39 : ... .. . ... : ... .. . ... : ... .. . ... : ... .. . ... : ... .. . ...
ROW 3A : ... .. . ... : ... .. . ... : ... .. . ... : ... .. . ... : ... .. . ...
ROW 3B : ... .. . ... : ... .. . ... : ... .. . ... : ... .. . ... : ... .. . ...
ROW 3C : ... .. . ... : ... .. . ... : ... .. . ... : ... .. . ... : ... .. . ...
ROW 3D : ... .. . ... : ... .. . ... : ... .. . ... : ... .. . ... : ... .. . ...
ROW 3E : ... .. . ... : ... .. . ... : ... .. . ... : ... .. . ... : ... .. . ...
ROW 3F : ... .. . ... : ... .. . ... : ... .. . ... : ... .. . ... : ... .. . ...

TRACK  64   8 150 "spicy"
COLUMNS : 1 1 1 1 1

ORDER 00 : 06 06 06 06 06
ORDER 01 : 01 01 01 01 01
ORDER 02 : 07 07 00 07 00
ORDER 03 : 08 08 07 08 07
ORDER 04 : 05 05 05 05 05
ORDER 05 : 0A 09 08 09 03
ORDER 06 : 09 03 03 03 02
ORDER 07 : 0C 0A 0A 0A 04
ORDER 08 : 0D 0B 0B 0B 08

PATTERN 00
ROW 00 : ... .. . ... : ... .. . ... : ... .. . ... : ... .. . ... : ... .. . ...
ROW 01 : ... .. . ... : ... .. . ... : ... .. . ... : ... .. . ... : ... .. . ...
ROW 02 : ... .. . ... : ... .. . ... : ... .. . ... : ... .. . ... : ... .. . ...
ROW 03 : ... .. . ... : ... .. . ... : ... .. . ... : ... .. . ... : ... .. . ...
ROW 04 : ... .. . ... : ... .. . ... : ... .. . ... : ... .. . ... : ... .. . ...
ROW 05 : ... .. . ... : ... .. . ... : ... .. . ... : ... .. . ... : ... .. . ...
ROW 06 : ... .. . ... : ... .. . ... : ... .. . ... : ... .. . ... : ... .. . ...
ROW 07 : ... .. . ... : ... .. . ... : ... .. . ... : ... .. . ... : ... .. . ...
ROW 08 : ... .. . ... : ... .. . ... : ... .. . ... : ... .. . ... : ... .. . ...
ROW 09 : ... .. . ... : ... .. . ... : ... .. . ... : ... .. . ... : ... .. . ...
ROW 0A : ... .. . ... : ... .. . ... : ... .. . ... : ... .. . ... : ... .. . ...
ROW 0B : ... .. . ... : ... .. . ... : ... .. . ... : ... .. . ... : ... .. . ...
ROW 0C : ... .. . ... : ... .. . ... : ... .. . ... : ... .. . ... : ... .. . ...
ROW 0D : ... .. . ... : ... .. . ... : ... .. . ... : ... .. . ... : ... .. . ...
ROW 0E : ... .. . ... : ... .. . ... : ... .. . ... : ... .. . ... : ... .. . ...
ROW 0F : ... .. . ... : ... .. . ... : ... .. . ... : ... .. . ... : ... .. . ...
ROW 10 : ... .. . ... : ... .. . ... : ... .. . ... : ... .. . ... : ... .. . ...
ROW 11 : ... .. . ... : ... .. . ... : ... .. . ... : ... .. . ... : ... .. . ...
ROW 12 : ... .. . ... : ... .. . ... : ... .. . ... : ... .. . ... : ... .. . ...
ROW 13 : ... .. . ... : ... .. . ... : ... .. . ... : ... .. . ... : ... .. . ...
ROW 14 : ... .. . ... : ... .. . ... : ... .. . ... : ... .. . ... : ... .. . ...
ROW 15 : ... .. . ... : ... .. . ... : ... .. . ... : ... .. . ... : ... .. . ...
ROW 16 : ... .. . ... : ... .. . ... : ... .. . ... : ... .. . ... : ... .. . ...
ROW 17 : ... .. . ... : ... .. . ... : ... .. . ... : ... .. . ... : ... .. . ...
ROW 18 : ... .. . ... : ... .. . ... : ... .. . ... : ... .. . ... : ... .. . ...
ROW 19 : ... .. . ... : ... .. . ... : ... .. . ... : ... .. . ... : ... .. . ...
ROW 1A : ... .. . ... : ... .. . ... : ... .. . ... : ... .. . ... : ... .. . ...
ROW 1B : ... .. . ... : ... .. . ... : ... .. . ... : ... .. . ... : ... .. . ...
ROW 1C : ... .. . ... : ... .. . ... : ... .. . ... : ... .. . ... : ... .. . ...
ROW 1D : ... .. . ... : ... .. . ... : ... .. . ... : ... .. . ... : ... .. . ...
ROW 1E : ... .. . ... : ... .. . ... : ... .. . ... : ... .. . ... : ... .. . ...
ROW 1F : ... .. . ... : ... .. . ... : ... .. . ... : ... .. . ... : ... .. . ...
ROW 20 : G-4 03 . ... : ... .. . ... : ... .. . ... : C-# 05 . ... : ... .. . ...
ROW 21 : ... .. . ... : ... .. . ... : ... .. . ... : C-# 05 . ... : ... .. . ...
ROW 22 : A-4 03 . ... : ... .. . ... : ... .. . ... : C-# 06 . ... : ... .. . ...
ROW 23 : B-4 03 . ... : ... .. . ... : ... .. . ... : D-# 05 . ... : ... .. . ...
ROW 24 : ... .. . ... : ... .. . ... : ... .. . ... : C-# 05 . ... : ... .. . ...
ROW 25 : ... .. . ... : ... .. . ... : ... .. . ... : C-# 05 . ... : ... .. . ...
ROW 26 : G-4 03 . ... : ... .. . ... : ... .. . ... : C-# 06 . ... : ... .. . ...
ROW 27 : ... .. . ... : ... .. . ... : ... .. . ... : D-# 05 . ... : ... .. . ...
ROW 28 : F#4 03 . ... : ... .. . ... : ... .. . ... : C-# 05 . ... : ... .. . ...
ROW 29 : E-4 03 . ... : ... .. . ... : ... .. . ... : C-# 05 . ... : ... .. . ...
ROW 2A : D-4 03 . ... : ... .. . ... : ... .. . ... : C-# 06 . ... : ... .. . ...
ROW 2B : ... .. . ... : ... .. . ... : ... .. . ... : D-# 05 . ... : ... .. . ...
ROW 2C : G-4 03 . ... : ... .. . ... : ... .. . ... : C-# 05 . ... : ... .. . ...
ROW 2D : E-4 03 . ... : ... .. . ... : ... .. . ... : C-# 05 . ... : ... .. . ...
ROW 2E : C-4 01 . ... : C-4 03 . ... : ... .. . ... : C-# 06 . ... : ... .. . ...
ROW 2F : ... .. . ... : ... .. . ... : ... .. . ... : D-# 05 . ... : ... .. . ...
ROW 30 : G-4 00 . ... : G-4 03 . ... : ... .. . ... : C-# 05 . ... : ... .. . ...
ROW 31 : F#4 00 . ... : ... .. . ... : ... .. . ... : C-# 05 . ... : ... .. . ...
ROW 32 : D-4 00 . ... : ... .. . ... : ... .. . ... : C-# 06 . ... : ... .. . ...
ROW 33 : E-4 00 . ... : ... .. . ... : ... .. . ... : D-# 05 . ... : ... .. . ...
ROW 34 : G-4 00 . ... : ... .. . ... : ... .. . ... : C-# 05 . ... : ... .. . ...
ROW 35 : F#4 00 . ... : ... .. . ... : ... .. . ... : C-# 05 . ... : ... .. . ...
ROW 36 : D-4 00 . ... : ... .. . ... : ... .. . ... : C-# 06 . ... : ... .. . ...
ROW 37 : C-4 00 . ... : ... .. . ... : ... .. . ... : D-# 05 . ... : ... .. . ...
ROW 38 : B-4 00 . ... : ... .. . ... : ... .. . ... : C-# 05 . ... : ... .. . ...
ROW 39 : G-4 00 . ... : ... .. . ... : ... .. . ... : C-# 05 . ... : ... .. . ...
ROW 3A : E-4 00 . ... : ... .. . ... : ... .. . ... : C-# 06 . ... : ... .. . ...
ROW 3B : G-4 00 . ... : ... .. . ... : ... .. . ... : D-# 05 . ... : ... .. . ...
ROW 3C : B-4 00 . ... : C-4 03 . ... : ... .. . ... : C-# 05 . ... : ... .. . ...
ROW 3D : G-4 00 . ... : ... .. . ... : ... .. . ... : C-# 05 . ... : ... .. . ...
ROW 3E : E-4 00 . ... : G-4 03 . ... : ... .. . ... : 7-# 02 . ... : ... .. . ...
ROW 3F : G-4 00 . ... : ... .. . ... : ... .. . ... : ... .. . ... : ... .. . ...

PATTERN 01
ROW 00 : G-4 04 . ... : G-4 00 . ... : ... .. . ... : ... .. . ... : ... .. . ...
ROW 01 : F#4 04 . ... : F#4 00 . ... : ... .. . ... : ... .. . ... : ... .. . ...
ROW 02 : D-4 04 . ... : D-4 00 . ... : ... .. . ... : ... .. . ... : ... .. . ...
ROW 03 : E-4 04 . ... : E-4 00 . ... : ... .. . ... : ... .. . ... : ... .. . ...
ROW 04 : G-4 04 . ... : G-4 00 . ... : ... .. . ... : ... .. . ... : ... .. . ...
ROW 05 : F#4 04 . ... : F#4 00 . ... : ... .. . ... : ... .. . ... : ... .. . ...
ROW 06 : D-4 04 . ... : D-4 00 . ... : ... .. . ... : ... .. . ... : ... .. . ...
ROW 07 : C-4 04 . ... : C-4 00 . ... : ... .. . ... : ... .. . ... : ... .. . ...
ROW 08 : B-4 09 . ... : B-4 00 . ... : ... .. . ... : ... .. . ... : ... .. . ...
ROW 09 : G-4 09 . ... : G-4 00 . ... : ... .. . ... : ... .. . ... : ... .. . ...
ROW 0A : E-4 09 . ... : E-4 00 . ... : ... .. . ... : ... .. . ... : ... .. . ...
ROW 0B : G-4 09 . ... : G-4 00 . ... : ... .. . ... : ... .. . ... : ... .. . ...
ROW 0C : B-4 09 . ... : B-4 00 . ... : ... .. . ... : ... .. . ... : ... .. . ...
ROW 0D : G-4 09 . ... : G-4 00 . ... : ... .. . ... : ... .. . ... : ... .. . ...
ROW 0E : E-4 09 . ... : E-4 00 . ... : ... .. . ... : ... .. . ... : ... .. . ...
ROW 0F : G-4 09 . ... : G-4 00 . ... : ... .. . ... : ... .. . ... : ... .. . ...
ROW 10 : A-4 01 . ... : A-4 00 . ... : ... .. . ... : ... .. . ... : ... .. . ...
ROW 11 : F#4 01 . ... : F#4 00 . ... : ... .. . ... : ... .. . ... : ... .. . ...
ROW 12 : D-4 01 . ... : D-4 00 . ... : ... .. . ... : ... .. . ... : ... .. . ...
ROW 13 : F#4 01 . ... : F#4 00 . ... : ... .. . ... : ... .. . ... : ... .. . ...
ROW 14 : A-4 01 . ... : A-4 00 . ... : ... .. . ... : ... .. . ... : ... .. . ...
ROW 15 : F#4 01 . ... : F#4 00 . ... : ... .. . ... : ... .. . ... : ... .. . ...
ROW 16 : D-4 01 . ... : D-4 00 . ... : ... .. . ... : ... .. . ... : ... .. . ...
ROW 17 : F#4 01 . ... : F#4 00 . ... : ... .. . ... : ... .. . ... : ... .. . ...
ROW 18 : G-4 09 . ... : G-4 00 . ... : ... .. . ... : ... .. . ... : ... .. . ...
ROW 19 : E-4 09 . ... : E-4 00 . ... : ... .. . ... : ... .. . ... : ... .. . ...
ROW 1A : C-4 09 . ... : C-4 00 . ... : ... .. . ... : ... .. . ... : ... .. . ...
ROW 1B : E-4 09 . ... : E-4 00 . ... : ... .. . ... : ... .. . ... : ... .. . ...
ROW 1C : G-4 09 . ... : G-4 00 . ... : ... .. . ... : ... .. . ... : ... .. . ...
ROW 1D : E-4 09 . ... : E-4 00 . ... : ... .. . ... : ... .. . ... : ... .. . ...
ROW 1E : C-4 09 . ... : C-4 00 . ... : ... .. . ... : ... .. . ... : ... .. . ...
ROW 1F : E-4 09 . ... : E-4 00 . ... : ... .. . ... : ... .. . ... : ... .. . ...
ROW 20 : G-4 04 . ... : G-4 00 . ... : ... .. . ... : ... .. . ... : ... .. . ...
ROW 21 : F#4 04 . ... : F#4 00 . ... : ... .. . ... : ... .. . ... : ... .. . ...
ROW 22 : D-4 04 . ... : D-4 00 . ... : ... .. . ... : ... .. . ... : ... .. . ...
ROW 23 : E-4 04 . ... : E-4 00 . ... : ... .. . ... : ... .. . ... : ... .. . ...
ROW 24 : G-4 04 . ... : G-4 00 . ... : ... .. . ... : ... .. . ... : ... .. . ...
ROW 25 : F#4 04 . ... : F#4 00 . ... : ... .. . ... : ... .. . ... : ... .. . ...
ROW 26 : D-4 04 . ... : D-4 00 . ... : ... .. . ... : ... .. . ... : ... .. . ...
ROW 27 : C-4 04 . ... : C-4 00 . ... : ... .. . ... : ... .. . ... : ... .. . ...
ROW 28 : B-4 09 . ... : B-4 00 . ... : ... .. . ... : ... .. . ... : ... .. . ...
ROW 29 : G-4 09 . ... : G-4 00 . ... : ... .. . ... : ... .. . ... : ... .. . ...
ROW 2A : E-4 09 . ... : E-4 00 . ... : ... .. . ... : ... .. . ... : ... .. . ...
ROW 2B : G-4 09 . ... : G-4 00 . ... : ... .. . ... : ... .. . ... : ... .. . ...
ROW 2C : B-4 09 . ... : B-4 00 . ... : ... .. . ... : ... .. . ... : ... .. . ...
ROW 2D : G-4 09 . ... : G-4 00 . ... : ... .. . ... : ... .. . ... : ... .. . ...
ROW 2E : E-4 09 . ... : E-4 00 . ... : ... .. . ... : ... .. . ... : ... .. . ...
ROW 2F : G-4 09 . ... : G-4 00 . ... : ... .. . ... : ... .. . ... : ... .. . ...
ROW 30 : A-4 01 . ... : A-4 00 . ... : ... .. . ... : ... .. . ... : ... .. . ...
ROW 31 : F#4 01 . ... : F#4 00 . ... : ... .. . ... : ... .. . ... : ... .. . ...
ROW 32 : D-4 01 . ... : D-4 00 . ... : ... .. . ... : ... .. . ... : ... .. . ...
ROW 33 : F#4 01 . ... : F#4 00 . ... : ... .. . ... : ... .. . ... : ... .. . ...
ROW 34 : A-4 01 . ... : A-4 00 . ... : ... .. . ... : ... .. . ... : ... .. . ...
ROW 35 : F#4 01 . ... : F#4 00 . ... : ... .. . ... : ... .. . ... : ... .. . ...
ROW 36 : D-4 01 . ... : D-4 00 . ... : ... .. . ... : ... .. . ... : ... .. . ...
ROW 37 : F#4 01 . ... : F#4 00 . ... : ... .. . ... : ... .. . ... : ... .. . ...
ROW 38 : G-4 09 . ... : G-4 00 . ... : ... .. . ... : ... .. . ... : ... .. . ...
ROW 39 : E-4 09 . ... : E-4 00 . ... : ... .. . ... : ... .. . ... : ... .. . ...
ROW 3A : C-4 09 . ... : C-4 00 . ... : ... .. . ... : ... .. . ... : ... .. . ...
ROW 3B : E-4 09 . ... : E-4 00 . ... : ... .. . ... : ... .. . ... : ... .. . ...
ROW 3C : G-4 09 . ... : G-4 00 . ... : ... .. . ... : ... .. . ... : ... .. . ...
ROW 3D : E-4 09 . ... : E-4 00 . ... : ... .. . ... : ... .. . ... : ... .. . ...
ROW 3E : C-4 09 . ... : C-4 00 . ... : ... .. . ... : ... .. . ... : ... .. . ...
ROW 3F : E-4 09 . ... : E-4 00 . ... : ... .. . ... : ... .. . ... : ... .. . ...

PATTERN 02
ROW 00 : G-5 03 . ... : ... .. . ... : --- .. . ... : D-# 05 . ... : ... .. . ...
ROW 01 : ... .. . ... : ... .. . ... : ... .. . ... : ... .. . ... : ... .. . ...
ROW 02 : F#5 03 . ... : ... .. . ... : ... .. . ... : D-# 05 . ... : ... .. . ...
ROW 03 : E-5 03 . ... : ... .. . ... : ... .. . ... : ... .. . ... : ... .. . ...
ROW 04 : ... .. . ... : ... .. . ... : ... .. . ... : D-# 05 . ... : ... .. . ...
ROW 05 : ... .. . ... : ... .. . ... : ... .. . ... : ... .. . ... : ... .. . ...
ROW 06 : G-4 03 . ... : ... .. . ... : ... .. . ... : D-# 05 . ... : ... .. . ...
ROW 07 : ... .. . ... : ... .. . ... : ... .. . ... : ... .. . ... : ... .. . ...
ROW 08 : C-5 03 . ... : ... .. . ... : ... .. . ... : D-# 05 . ... : ... .. . ...
ROW 09 : D-5 03 . ... : ... .. . ... : ... .. . ... : ... .. . ... : ... .. . ...
ROW 0A : E-5 03 . ... : ... .. . ... : ... .. . ... : D-# 05 . ... : ... .. . ...
ROW 0B : ... .. . ... : ... .. . ... : ... .. . ... : ... .. . ... : ... .. . ...
ROW 0C : ... .. . ... : ... .. . ... : ... .. . ... : D-# 05 . ... : ... .. . ...
ROW 0D : F#5 03 . ... : ... .. . ... : ... .. . ... : ... .. . ... : ... .. . ...
ROW 0E : ... .. . ... : ... .. . ... : ... .. . ... : D-# 05 . ... : ... .. . ...
ROW 0F : G-5 03 . ... : ... .. . ... : ... .. . ... : ... .. . ... : ... .. . ...
ROW 10 : F#5 03 . ... : ... .. . ... : ... .. . ... : C-# 05 . ... : ... .. . ...
ROW 11 : G-5 03 . ... : ... .. . ... : ... .. . ... : ... .. . ... : ... .. . ...
ROW 12 : E-5 03 . ... : ... .. . ... : ... .. . ... : C-# 05 . ... : ... .. . ...
ROW 13 : A-4 03 . ... : ... .. . ... : ... .. . ... : ... .. . ... : ... .. . ...
ROW 14 : ... .. . ... : ... .. . ... : ... .. . ... : C-# 05 . ... : ... .. . ...
ROW 15 : ... .. . ... : ... .. . ... : ... .. . ... : ... .. . ... : ... .. . ...
ROW 16 : ... .. . ... : ... .. . ... : ... .. . ... : C-# 05 . ... : ... .. . ...
ROW 17 : ... .. . ... : ... .. . ... : ... .. . ... : ... .. . ... : ... .. . ...
ROW 18 : --- 02 . ... : C-5 02 . ... : C-6 03 . ... : C-# 05 . ... : ... .. . ...
ROW 19 : ... .. . ... : ... .. . ... : ... .. . ... : ... .. . ... : ... .. . ...
ROW 1A : ... .. . ... : ... .. . ... : ... .. . ... : C-# 05 . ... : ... .. . ...
ROW 1B : ... .. . ... : ... .. . ... : ... .. . ... : ... .. . ... : ... .. . ...
ROW 1C : ... .. . ... : D-5 02 . ... : D-6 03 . ... : C-# 05 . ... : ... .. . ...
ROW 1D : ... .. . ... : ... .. . ... : ... .. . ... : ... .. . ... : ... .. . ...
ROW 1E : ... .. . ... : ... .. . ... : ... .. . ... : C-# 05 . ... : ... .. . ...
ROW 1F : ... .. . ... : ... .. . ... : ... .. . ... : ... .. . ... : ... .. . ...
ROW 20 : G-5 03 . ... : ... .. . ... : --- .. . ... : D-# 05 . ... : ... .. . ...
ROW 21 : F#5 03 . ... : ... .. . ... : ... .. . ... : ... .. . ... : ... .. . ...
ROW 22 : E-5 03 . ... : ... .. . ... : ... .. . ... : D-# 05 . ... : ... .. . ...
ROW 23 : D-5 03 . ... : ... .. . ... : ... .. . ... : ... .. . ... : ... .. . ...
ROW 24 : C-5 03 . ... : ... .. . ... : ... .. . ... : D-# 05 . ... : ... .. . ...
ROW 25 : ... .. . ... : ... .. . ... : ... .. . ... : ... .. . ... : ... .. . ...
ROW 26 : ... .. . ... : ... .. . ... : ... .. . ... : D-# 05 . ... : ... .. . ...
ROW 27 : ... .. . ... : ... .. . ... : ... .. . ... : ... .. . ... : ... .. . ...
ROW 28 : ... .. . ... : ... .. . ... : ... .. . ... : D-# 05 . ... : ... .. . ...
ROW 29 : ... .. . ... : ... .. . ... : ... .. . ... : ... .. . ... : ... .. . ...
ROW 2A : C-5 03 . ... : ... .. . ... : ... .. . ... : D-# 05 . ... : ... .. . ...
ROW 2B : ... .. . ... : ... .. . ... : ... .. . ... : ... .. . ... : ... .. . ...
ROW 2C : A-5 03 . ... : ... .. . ... : ... .. . ... : D-# 05 . ... : ... .. . ...
ROW 2D : ... .. . ... : ... .. . ... : ... .. . ... : ... .. . ... : ... .. . ...
ROW 2E : G-5 03 . ... : ... .. . ... : ... .. . ... : D-# 05 . ... : ... .. . ...
ROW 2F : ... .. . ... : ... .. . ... : ... .. . ... : ... .. . ... : ... .. . ...
ROW 30 : F#5 03 . ... : ... .. . ... : ... .. . ... : C-# 05 . ... : ... .. . ...
ROW 31 : G-5 03 . ... : ... .. . ... : ... .. . ... : ... .. . ... : ... .. . ...
ROW 32 : F#5 03 . ... : ... .. . ... : ... .. . ... : C-# 05 . ... : ... .. . ...
ROW 33 : B-4 03 . ... : ... .. . ... : ... .. . ... : ... .. . ... : ... .. . ...
ROW 34 : D-5 03 . ... : ... .. . ... : ... .. . ... : C-# 05 . ... : ... .. . ...
ROW 35 : ... .. . ... : ... .. . ... : ... .. . ... : ... .. . ... : ... .. . ...
ROW 36 : ... .. . ... : ... .. . ... : ... .. . ... : C-# 05 . ... : ... .. . ...
ROW 37 : ... .. . ... : ... .. . ... : ... .. . ... : ... .. . ... : ... .. . ...
ROW 38 : ... .. . ... : C-5 02 . ... : C-6 03 . ... : C-# 05 . ... : ... .. . ...
ROW 39 : ... .. . ... : ... .. . ... : ... .. . ... : ... .. . ... : ... .. . ...
ROW 3A : ... .. . ... : ... .. . ... : ... .. . ... : C-# 05 . ... : ... .. . ...
ROW 3B : ... .. . ... : ... .. . ... : ... .. . ... : ... .. . ... : ... .. . ...
ROW 3C : ... .. . ... : D-5 02 . ... : D-6 03 . ... : C-# 05 . ... : ... .. . ...
ROW 3D : ... .. . ... : ... .. . ... : ... .. . ... : ... .. . ... : ... .. . ...
ROW 3E : ... .. . ... : ... .. . ... : ... .. . ... : C-# 05 . ... : ... .. . ...
ROW 3F : ... .. . ... : ... .. . ... : ... .. . ... : ... .. . ... : ... .. . ...

PATTERN 03
ROW 00 : G-5 03 . ... : G-5 0D . ... : G-5 0E . ... : ... .. . ... : ... .. . ...
ROW 01 : F#5 03 . ... : F#5 0D . ... : F#5 0E . ... : ... .. . ... : ... .. . ...
ROW 02 : G-5 03 . ... : D-5 0D . ... : D-5 0E . ... : ... .. . ... : ... .. . ...
ROW 03 : A-5 03 . ... : B-4 0D . ... : B-4 0E . ... : ... .. . ... : ... .. . ...
ROW 04 : G-5 03 . ... : E-5 0D . ... : E-5 0E . ... : ... .. . ... : ... .. . ...
ROW 05 : F#5 03 . ... : D-5 0D . ... : D-5 0E . ... : ... .. . ... : ... .. . ...
ROW 06 : E-5 03 . ... : B-4 0D . ... : B-4 0E . ... : ... .. . ... : ... .. . ...
ROW 07 : F#5 03 . ... : E-5 0D . ... : E-5 0E . ... : ... .. . ... : ... .. . ...
ROW 08 : G-5 03 . ... : G-5 0D . ... : G-5 0E . ... : ... .. . ... : ... .. . ...
ROW 09 : F#5 03 . ... : F#5 0D . ... : F#5 0E . ... : ... .. . ... : ... .. . ...
ROW 0A : G-5 03 . ... : D-5 0D . ... : D-5 0E . ... : ... .. . ... : ... .. . ...
ROW 0B : A-5 03 . ... : B-4 0D . ... : B-4 0E . ... : ... .. . ... : ... .. . ...
ROW 0C : G-5 03 . ... : E-5 0D . ... : E-5 0E . ... : ... .. . ... : ... .. . ...
ROW 0D : F#5 03 . ... : D-5 0D . ... : D-5 0E . ... : ... .. . ... : ... .. . ...
ROW 0E : E-5 03 . ... : B-4 0D . ... : B-4 0E . ... : ... .. . ... : ... .. . ...
ROW 0F : F#5 03 . ... : E-5 0D . ... : E-5 0E . ... : ... .. . ... : ... .. . ...
ROW 10 : ... .. . ... : ... .. . ... : ... .. . ... : ... .. . ... : ... .. . ...
ROW 11 : ... .. . ... : ... .. . ... : ... .. . ... : ... .. . ... : ... .. . ...
ROW 12 : ... .. . ... : E-5 0D . ... : E-5 0E . ... : ... .. . ... : ... .. . ...
ROW 13 : ... .. . ... : ... .. . ... : ... .. . ... : ... .. . ... : ... .. . ...
ROW 14 : ... .. . ... : E-5 0D . ... : E-5 0E . ... : ... .. . ... : ... .. . ...
ROW 15 : ... .. . ... : ... .. . ... : ... .. . ... : ... .. . ... : ... .. . ...
ROW 16 : ... .. . ... : E-5 0D . ... : E-5 0E . ... : ... .. . ... : ... .. . ...
ROW 17 : ... .. . ... : D-5 0D . ... : D-5 0E . ... : ... .. . ... : ... .. . ...
ROW 18 : ... .. . ... : ... .. . ... : ... .. . ... : ... .. . ... : ... .. . ...
ROW 19 : ... .. . ... : ... .. . ... : ... .. . ... : ... .. . ... : ... .. . ...
ROW 1A : ... .. . ... : D-5 0D . ... : D-5 0E . ... : ... .. . ... : ... .. . ...
ROW 1B : ... .. . ... : ... .. . ... : ... .. . ... : ... .. . ... : ... .. . ...
ROW 1C : ... .. . ... : D-5 0D . ... : D-5 0E . ... : ... .. . ... : ... .. . ...
ROW 1D : ... .. . ... : ... .. . ... : ... .. . ... : ... .. . ... : ... .. . ...
ROW 1E : ... .. . ... : D-5 0D . ... : D-5 0E . ... : ... .. . ... : ... .. . ...
ROW 1F : ... .. . ... : F#5 0D . ... : F#5 0E . ... : ... .. . ... : ... .. . ...
ROW 20 : ... .. . ... : G-5 0D . ... : G-5 0E . ... : ... .. . ... : ... .. . ...
ROW 21 : ... .. . ... : F#5 0D . ... : F#5 0E . ... : ... .. . ... : ... .. . ...
ROW 22 : ... .. . ... : D-5 0D . ... : D-5 0E . ... : ... .. . ... : ... .. . ...
ROW 23 : ... .. . ... : B-4 0D . ... : B-4 0E . ... : ... .. . ... : ... .. . ...
ROW 24 : ... .. . ... : E-5 0D . ... : E-5 0E . ... : ... .. . ... : ... .. . ...
ROW 25 : ... .. . ... : D-5 0D . ... : D-5 0E . ... : ... .. . ... : ... .. . ...
ROW 26 : ... .. . ... : B-4 0D . ... : B-4 0E . ... : ... .. . ... : ... .. . ...
ROW 27 : ... .. . ... : E-5 0D . ... : E-5 0E . ... : ... .. . ... : ... .. . ...
ROW 28 : ... .. . ... : G-5 0D . ... : G-5 0E . ... : ... .. . ... : ... .. . ...
ROW 29 : ... .. . ... : F#5 0D . ... : F#5 0E . ... : ... .. . ... : ... .. . ...
ROW 2A : ... .. . ... : D-5 0D . ... : D-5 0E . ... : ... .. . ... : ... .. . ...
ROW 2B : ... .. . ... : B-4 0D . ... : B-4 0E . ... : ... .. . ... : ... .. . ...
ROW 2C : ... .. . ... : E-5 0D . ... : E-5 0E . ... : ... .. . ... : ... .. . ...
ROW 2D : ... .. . ... : D-5 0D . ... : D-5 0E . ... : ... .. . ... : ... .. . ...
ROW 2E : ... .. . ... : B-4 0D . ... : B-4 0E . ... : ... .. . ... : ... .. . ...
ROW 2F : ... .. . ... : G-5 0D . ... : G-5 0E . ... : ... .. . ... : ... .. . ...
ROW 30 : ... .. . ... : ... .. . ... : ... .. . ... : ... .. . ... : ... .. . ...
ROW 31 : ... .. . ... : ... .. . ... : ... .. . ... : ... .. . ... : ... .. . ...
ROW 32 : ... .. . ... : G-5 0D . ... : G-5 0E . ... : ... .. . ... : ... .. . ...
ROW 33 : ... .. . ... : ... .. . ... : ... .. . ... : ... .. . ... : ... .. . ...
ROW 34 : ... .. . ... : G-5 0D . ... : G-5 0E . ... : ... .. . ... : ... .. . ...
ROW 35 : ... .. . ... : ... .. . ... : ... .. . ... : ... .. . ... : ... .. . ...
ROW 36 : ... .. . ... : G-5 0D . ... : G-5 0E . ... : ... .. . ... : ... .. . ...
ROW 37 : ... .. . ... : A-5 0D . ... : A-5 0E . ... : ... .. . ... : ... .. . ...
ROW 38 : ... .. . ... : ... .. . ... : ... .. . ... : ... .. . ... : ... .. . ...
ROW 39 : ... .. . ... : ... .. . ... : ... .. . ... : ... .. . ... : ... .. . ...
ROW 3A : ... .. . ... : A-5 0D . ... : A-5 0E . ... : ... .. . ... : ... .. . ...
ROW 3B : ... .. . ... : ... .. . ... : ... .. . ... : ... .. . ... : ... .. . ...
ROW 3C : ... .. . ... : A-5 0D . ... : A-5 0E . ... : ... .. . ... : ... .. . ...
ROW 3D : ... .. . ... : ... .. . ... : ... .. . ... : ... .. . ... : ... .. . ...
ROW 3E : ... .. . ... : A-5 0D . ... : A-5 0E . ... : ... .. . ... : ... .. . ...
ROW 3F : ... .. . ... : ... .. . ... : ... .. . ... : ... .. . ... : ... .. . ...

PATTERN 04
ROW 00 : G-4 01 . ... : G-5 02 . ... : G-5 02 . ... : D-# 05 . ... : ... .. . ...
ROW 01 : ... .. . ... : ... .. . ... : ... .. . ... : ... .. . ... : ... .. . ...
ROW 02 : F#4 01 . ... : F#5 02 . ... : F#5 02 . ... : D-# 05 . ... : ... .. . ...
ROW 03 : E-4 01 . ... : E-5 02 . ... : E-5 02 . ... : ... .. . ... : ... .. . ...
ROW 04 : ... .. . ... : ... .. . ... : ... .. . ... : D-# 05 . ... : ... .. . ...
ROW 05 : ... .. . ... : ... .. . ... : ... .. . ... : ... .. . ... : ... .. . ...
ROW 06 : G-3 01 . ... : ... .. . ... : ... .. . ... : D-# 05 . ... : ... .. . ...
ROW 07 : ... .. . ... : ... .. . ... : ... .. . ... : ... .. . ... : ... .. . ...
ROW 08 : C-4 01 . ... : ... .. . ... : ... .. . ... : D-# 05 . ... : ... .. . ...
ROW 09 : D-4 01 . ... : ... .. . ... : ... .. . ... : ... .. . ... : ... .. . ...
ROW 0A : E-4 01 . ... : ... .. . ... : ... .. . ... : D-# 05 . ... : ... .. . ...
ROW 0B : ... .. . ... : ... .. . ... : ... .. . ... : ... .. . ... : ... .. . ...
ROW 0C : ... .. . ... : ... .. . ... : ... .. . ... : D-# 05 . ... : ... .. . ...
ROW 0D : F#4 01 . ... : F#5 02 . ... : F#5 02 . ... : ... .. . ... : ... .. . ...
ROW 0E : ... .. . ... : ... .. . ... : ... .. . ... : D-# 05 . ... : ... .. . ...
ROW 0F : G-4 01 . ... : G-5 02 . ... : G-5 02 . ... : ... .. . ... : ... .. . ...
ROW 10 : F#4 01 . ... : F#5 02 . ... : F#5 02 . ... : C-# 05 . ... : ... .. . ...
ROW 11 : G-4 01 . ... : G-5 02 . ... : G-5 02 . ... : ... .. . ... : ... .. . ...
ROW 12 : E-4 01 . ... : E-5 02 . ... : E-5 02 . ... : C-# 05 . ... : ... .. . ...
ROW 13 : A-3 01 . ... : A-4 02 . ... : A-4 02 . ... : ... .. . ... : ... .. . ...
ROW 14 : ... .. . ... : ... .. . ... : ... .. . ... : C-# 05 . ... : ... .. . ...
ROW 15 : ... .. . ... : ... .. . ... : ... .. . ... : ... .. . ... : ... .. . ...
ROW 16 : ... .. . ... : ... .. . ... : ... .. . ... : C-# 05 . ... : ... .. . ...
ROW 17 : ... .. . ... : ... .. . ... : ... .. . ... : ... .. . ... : ... .. . ...
ROW 18 : --- 02 . ... : C-5 02 . ... : C-6 03 . ... : C-# 05 . ... : ... .. . ...
ROW 19 : ... .. . ... : ... .. . ... : ... .. . ... : ... .. . ... : ... .. . ...
ROW 1A : ... .. . ... : ... .. . ... : ... .. . ... : C-# 05 . ... : ... .. . ...
ROW 1B : ... .. . ... : ... .. . ... : ... .. . ... : ... .. . ... : ... .. . ...
ROW 1C : ... .. . ... : D-5 02 . ... : D-6 03 . ... : C-# 05 . ... : ... .. . ...
ROW 1D : ... .. . ... : ... .. . ... : ... .. . ... : ... .. . ... : ... .. . ...
ROW 1E : ... .. . ... : ... .. . ... : ... .. . ... : C-# 05 . ... : ... .. . ...
ROW 1F : ... .. . ... : ... .. . ... : ... .. . ... : ... .. . ... : ... .. . ...
ROW 20 : G-5 03 . ... : ... .. . ... : --- .. . ... : D-# 05 . ... : ... .. . ...
ROW 21 : F#5 03 . ... : ... .. . ... : ... .. . ... : ... .. . ... : ... .. . ...
ROW 22 : E-5 03 . ... : ... .. . ... : ... .. . ... : D-# 05 . ... : ... .. . ...
ROW 23 : D-5 03 . ... : ... .. . ... : ... .. . ... : ... .. . ... : ... .. . ...
ROW 24 : C-5 03 . ... : ... .. . ... : ... .. . ... : D-# 05 . ... : ... .. . ...
ROW 25 : ... .. . ... : ... .. . ... : ... .. . ... : ... .. . ... : ... .. . ...
ROW 26 : ... .. . ... : ... .. . ... : ... .. . ... : D-# 05 . ... : ... .. . ...
ROW 27 : ... .. . ... : ... .. . ... : ... .. . ... : ... .. . ... : ... .. . ...
ROW 28 : ... .. . ... : ... .. . ... : ... .. . ... : D-# 05 . ... : ... .. . ...
ROW 29 : ... .. . ... : ... .. . ... : ... .. . ... : ... .. . ... : ... .. . ...
ROW 2A : C-5 03 . ... : ... .. . ... : ... .. . ... : D-# 05 . ... : ... .. . ...
ROW 2B : ... .. . ... : ... .. . ... : ... .. . ... : ... .. . ... : ... .. . ...
ROW 2C : A-5 03 . ... : ... .. . ... : ... .. . ... : D-# 05 . ... : ... .. . ...
ROW 2D : ... .. . ... : ... .. . ... : ... .. . ... : ... .. . ... : ... .. . ...
ROW 2E : G-5 03 . ... : ... .. . ... : ... .. . ... : D-# 05 . ... : ... .. . ...
ROW 2F : ... .. . ... : ... .. . ... : ... .. . ... : ... .. . ... : ... .. . ...
ROW 30 : F#5 03 . ... : ... .. . ... : ... .. . ... : C-# 05 . ... : ... .. . ...
ROW 31 : G-5 03 . ... : ... .. . ... : ... .. . ... : ... .. . ... : ... .. . ...
ROW 32 : F#5 03 . ... : ... .. . ... : ... .. . ... : C-# 05 . ... : ... .. . ...
ROW 33 : B-4 03 . ... : ... .. . ... : ... .. . ... : ... .. . ... : ... .. . ...
ROW 34 : D-5 03 . ... : ... .. . ... : ... .. . ... : C-# 05 . ... : ... .. . ...
ROW 35 : ... .. . ... : ... .. . ... : ... .. . ... : ... .. . ... : ... .. . ...
ROW 36 : ... .. . ... : ... .. . ... : ... .. . ... : C-# 05 . ... : ... .. . ...
ROW 37 : ... .. . ... : ... .. . ... : ... .. . ... : ... .. . ... : ... .. . ...
ROW 38 : ... .. . ... : C-5 02 . ... : C-6 03 . ... : C-# 05 . ... : ... .. . ...
ROW 39 : ... .. . ... : ... .. . ... : ... .. . ... : ... .. . ... : ... .. . ...
ROW 3A : ... .. . ... : ... .. . ... : ... .. . ... : C-# 05 . ... : ... .. . ...
ROW 3B : ... .. . ... : ... .. . ... : ... .. . ... : ... .. . ... : ... .. . ...
ROW 3C : ... .. . ... : D-5 02 . ... : D-6 03 . ... : C-# 05 . ... : ... .. . ...
ROW 3D : ... .. . ... : ... .. . ... : ... .. . ... : ... .. . ... : ... .. . ...
ROW 3E : ... .. . ... : ... .. . ... : ... .. . ... : C-# 05 . ... : ... .. . ...
ROW 3F : ... .. . ... : ... .. . ... : ... .. . ... : ... .. . ... : ... .. . ...

PATTERN 05
ROW 00 : G-4 04 . ... : B-4 02 . ... : B-5 03 . ... : ... .. . ... : ... .. . ...
ROW 01 : F#4 04 . ... : ... .. . ... : ... .. . ... : ... .. . ... : ... .. . ...
ROW 02 : D-4 04 . ... : ... .. . ... : ... .. . ... : ... .. . ... : ... .. . ...
ROW 03 : E-4 04 . ... : ... .. . ... : ... .. . ... : ... .. . ... : ... .. . ...
ROW 04 : G-4 04 . ... : ... .. . ... : ... .. . ... : ... .. . ... : ... .. . ...
ROW 05 : F#4 04 . ... : ... .. . ... : ... .. . ... : ... .. . ... : ... .. . ...
ROW 06 : D-4 04 . ... : ... .. . ... : ... .. . ... : ... .. . ... : ... .. . ...
ROW 07 : C-4 04 . ... : ... .. . ... : ... .. . ... : ... .. . ... : ... .. . ...
ROW 08 : B-4 09 . ... : D-4 02 . ... : D-5 03 . ... : ... .. . ... : ... .. . ...
ROW 09 : G-4 09 . ... : ... .. . ... : ... .. . ... : ... .. . ... : ... .. . ...
ROW 0A : E-4 09 . ... : ... .. . ... : ... .. . ... : ... .. . ... : ... .. . ...
ROW 0B : G-4 09 . ... : ... .. . ... : ... .. . ... : ... .. . ... : ... .. . ...
ROW 0C : B-4 09 . ... : ... .. . ... : ... .. . ... : ... .. . ... : ... .. . ...
ROW 0D : G-4 09 . ... : ... .. . ... : ... .. . ... : ... .. . ... : ... .. . ...
ROW 0E : E-4 09 . ... : ... .. . ... : ... .. . ... : ... .. . ... : ... .. . ...
ROW 0F : G-4 09 . ... : ... .. . ... : ... .. . ... : ... .. . ... : ... .. . ...
ROW 10 : A-4 01 . ... : A-4 02 . ... : A-5 03 . ... : ... .. . ... : ... .. . ...
ROW 11 : F#4 01 . ... : ... .. . ... : ... .. . ... : ... .. . ... : ... .. . ...
ROW 12 : D-4 01 . ... : ... .. . ... : ... .. . ... : ... .. . ... : ... .. . ...
ROW 13 : F#4 01 . ... : ... .. . ... : ... .. . ... : ... .. . ... : ... .. . ...
ROW 14 : A-4 01 . ... : ... .. . ... : ... .. . ... : ... .. . ... : ... .. . ...
ROW 15 : F#4 01 . ... : ... .. . ... : ... .. . ... : ... .. . ... : ... .. . ...
ROW 16 : D-4 01 . ... : ... .. . ... : ... .. . ... : ... .. . ... : ... .. . ...
ROW 17 : F#4 01 . ... : ... .. . ... : ... .. . ... : ... .. . ... : ... .. . ...
ROW 18 : G-4 09 . ... : C-5 02 . ... : C-6 03 . ... : ... .. . ... : ... .. . ...
ROW 19 : E-4 09 . ... : ... .. . ... : ... .. . ... : ... .. . ... : ... .. . ...
ROW 1A : C-4 09 . ... : ... .. . ... : ... .. . ... : ... .. . ... : ... .. . ...
ROW 1B : E-4 09 . ... : ... .. . ... : ... .. . ... : ... .. . ... : ... .. . ...
ROW 1C : G-4 09 . ... : D-5 02 . ... : D-6 03 . ... : ... .. . ... : ... .. . ...
ROW 1D : E-4 09 . ... : ... .. . ... : ... .. . ... : ... .. . ... : ... .. . ...
ROW 1E : C-4 09 . ... : ... .. . ... : ... .. . ... : ... .. . ... : ... .. . ...
ROW 1F : E-4 09 . ... : ... .. . ... : ... .. . ... : ... .. . ... : ... .. . ...
ROW 20 : G-4 01 . ... : B-4 02 . ... : B-5 03 . ... : ... .. . ... : ... .. . ...
ROW 21 : F#4 01 . ... : ... .. . ... : ... .. . ... : ... .. . ... : ... .. . ...
ROW 22 : D-4 01 . ... : ... .. . ... : ... .. . ... : ... .. . ... : ... .. . ...
ROW 23 : E-4 01 . ... : ... .. . ... : ... .. . ... : ... .. . ... : ... .. . ...
ROW 24 : G-4 01 . ... : ... .. . ... : B-5 03 . ... : ... .. . ... : ... .. . ...
ROW 25 : F#4 01 . ... : ... .. . ... : ... .. . ... : ... .. . ... : ... .. . ...
ROW 26 : D-4 01 . ... : ... .. . ... : F#5 03 . ... : ... .. . ... : ... .. . ...
ROW 27 : C-4 01 . ... : ... .. . ... : E-5 03 . ... : ... .. . ... : ... .. . ...
ROW 28 : B-4 01 . ... : D-4 02 . ... : D-5 03 . ... : ... .. . ... : ... .. . ...
ROW 29 : G-4 01 . ... : ... .. . ... : ... .. . ... : ... .. . ... : ... .. . ...
ROW 2A : E-4 01 . ... : ... .. . ... : ... .. . ... : ... .. . ... : ... .. . ...
ROW 2B : G-4 01 . ... : ... .. . ... : ... .. . ... : ... .. . ... : ... .. . ...
ROW 2C : B-4 01 . ... : ... .. . ... : ... .. . ... : ... .. . ... : ... .. . ...
ROW 2D : G-4 01 . ... : ... .. . ... : ... .. . ... : ... .. . ... : ... .. . ...
ROW 2E : E-4 01 . ... : ... .. . ... : ... .. . ... : ... .. . ... : ... .. . ...
ROW 2F : G-4 01 . ... : ... .. . ... : ... .. . ... : ... .. . ... : ... .. . ...
ROW 30 : A-4 01 . ... : A-4 02 . ... : A-5 03 . ... : ... .. . ... : ... .. . ...
ROW 31 : F#4 01 . ... : ... .. . ... : ... .. . ... : ... .. . ... : ... .. . ...
ROW 32 : D-4 01 . ... : ... .. . ... : ... .. . ... : ... .. . ... : ... .. . ...
ROW 33 : F#4 01 . ... : ... .. . ... : ... .. . ... : ... .. . ... : ... .. . ...
ROW 34 : A-4 01 . ... : ... .. . ... : B-5 03 . ... : ... .. . ... : ... .. . ...
ROW 35 : F#4 01 . ... : ... .. . ... : ... .. . ... : ... .. . ... : ... .. . ...
ROW 36 : D-4 01 . ... : ... .. . ... : A-5 03 . ... : ... .. . ... : ... .. . ...
ROW 37 : F#4 01 . ... : ... .. . ... : ... .. . ... : ... .. . ... : ... .. . ...
ROW 38 : G-4 01 . ... : C-5 02 . ... : C-6 03 . ... : ... .. . ... : ... .. . ...
ROW 39 : E-4 01 . ... : ... .. . ... : ... .. . ... : ... .. . ... : ... .. . ...
ROW 3A : C-4 01 . ... : ... .. . ... : ... .. . ... : ... .. . ... : ... .. . ...
ROW 3B : E-4 01 . ... : ... .. . ... : ... .. . ... : ... .. . ... : ... .. . ...
ROW 3C : G-4 01 . ... : D-5 02 . ... : D-6 03 . ... : ... .. . ... : ... .. . ...
ROW 3D : E-4 01 . ... : ... .. . ... : ... .. . ... : ... .. . ... : ... .. . ...
ROW 3E : C-4 01 . ... : ... .. . ... : ... .. . ... : ... .. . ... : ... .. . ...
ROW 3F : E-4 01 . ... : G-4 0A . ... : G-4 0A . ... : ... .. . ... : ... .. . ...

PATTERN 06
ROW 00 : G-4 03 . ... : ... .. . ... : --- .. . ... : ... .. . ... : ... .. . ...
ROW 01 : ... .. . ... : ... .. . ... : ... .. . ... : ... .. . ... : ... .. . ...
ROW 02 : A-4 03 . ... : ... .. . ... : ... .. . ... : ... .. . ... : ... .. . ...
ROW 03 : B-4 03 . ... : ... .. . ... : ... .. . ... : ... .. . ... : ... .. . ...
ROW 04 : ... .. . ... : ... .. . ... : ... .. . ... : ... .. . ... : ... .. . ...
ROW 05 : ... .. . ... : ... .. . ... : ... .. . ... : ... .. . ... : ... .. . ...
ROW 06 : G-4 03 . ... : ... .. . ... : ... .. . ... : ... .. . ... : ... .. . ...
ROW 07 : ... .. . ... : ... .. . ... : ... .. . ... : ... .. . ... : ... .. . ...
ROW 08 : F#4 03 . ... : ... .. . ... : ... .. . ... : ... .. . ... : ... .. . ...
ROW 09 : E-4 03 . ... : ... .. . ... : ... .. . ... : ... .. . ... : ... .. . ...
ROW 0A : D-4 03 . ... : ... .. . ... : ... .. . ... : ... .. . ... : ... .. . ...
ROW 0B : ... .. . ... : ... .. . ... : ... .. . ... : ... .. . ... : ... .. . ...
ROW 0C : G-4 03 . ... : ... .. . ... : ... .. . ... : ... .. . ... : ... .. . ...
ROW 0D : E-4 03 . ... : ... .. . ... : ... .. . ... : ... .. . ... : ... .. . ...
ROW 0E : C-4 01 . ... : C-4 03 . ... : ... .. . ... : ... .. . ... : ... .. . ...
ROW 0F : ... .. . ... : ... .. . ... : ... .. . ... : ... .. . ... : ... .. . ...
ROW 10 : G-4 00 . ... : G-4 03 . ... : ... .. . ... : ... .. . ... : ... .. . ...
ROW 11 : F#4 00 . ... : ... .. . ... : ... .. . ... : ... .. . ... : ... .. . ...
ROW 12 : D-4 00 . ... : ... .. . ... : ... .. . ... : ... .. . ... : ... .. . ...
ROW 13 : E-4 00 . ... : ... .. . ... : ... .. . ... : ... .. . ... : ... .. . ...
ROW 14 : G-4 00 . ... : ... .. . ... : ... .. . ... : ... .. . ... : ... .. . ...
ROW 15 : F#4 00 . ... : ... .. . ... : ... .. . ... : ... .. . ... : ... .. . ...
ROW 16 : D-4 00 . ... : ... .. . ... : ... .. . ... : ... .. . ... : ... .. . ...
ROW 17 : C-4 00 . ... : ... .. . ... : ... .. . ... : ... .. . ... : ... .. . ...
ROW 18 : B-4 00 . ... : ... .. . ... : ... .. . ... : ... .. . ... : ... .. . ...
ROW 19 : G-4 00 . ... : ... .. . ... : ... .. . ... : ... .. . ... : ... .. . ...
ROW 1A : E-4 00 . ... : ... .. . ... : ... .. . ... : ... .. . ... : ... .. . ...
ROW 1B : G-4 00 . ... : ... .. . ... : ... .. . ... : ... .. . ... : ... .. . ...
ROW 1C : B-4 00 . ... : C-4 03 . ... : ... .. . ... : ... .. . ... : ... .. . ...
ROW 1D : G-4 00 . ... : ... .. . ... : ... .. . ... : ... .. . ... : ... .. . ...
ROW 1E : E-4 00 . ... : G-4 03 . ... : ... .. . ... : ... .. . ... : ... .. . ...
ROW 1F : G-4 00 . D00 : ... .. . ... : ... .. . ... : ... .. . ... : ... .. . ...
ROW 20 : ... .. . ... : ... .. . ... : ... .. . ... : ... .. . ... : ... .. . ...
ROW 21 : ... .. . ... : ... .. . ... : ... .. . ... : ... .. . ... : ... .. . ...
ROW 22 : ... .. . ... : ... .. . ... : ... .. . ... : ... .. . ... : ... .. . ...
ROW 23 : ... .. . ... : ... .. . ... : ... .. . ... : ... .. . ... : ... .. . ...
ROW 24 : ... .. . ... : ... .. . ... : ... .. . ... : ... .. . ... : ... .. . ...
ROW 25 : ... .. . ... : ... .. . ... : ... .. . ... : ... .. . ... : ... .. . ...
ROW 26 : ... .. . ... : ... .. . ... : ... .. . ... : ... .. . ... : ... .. . ...
ROW 27 : ... .. . ... : ... .. . ... : ... .. . ... : ... .. . ... : ... .. . ...
ROW 28 : ... .. . ... : ... .. . ... : ... .. . ... : ... .. . ... : ... .. . ...
ROW 29 : ... .. . ... : ... .. . ... : ... .. . ... : ... .. . ... : ... .. . ...
ROW 2A : ... .. . ... : ... .. . ... : ... .. . ... : ... .. . ... : ... .. . ...
ROW 2B : ... .. . ... : ... .. . ... : ... .. . ... : ... .. . ... : ... .. . ...
ROW 2C : ... .. . ... : ... .. . ... : ... .. . ... : ... .. . ... : ... .. . ...
ROW 2D : ... .. . ... : ... .. . ... : ... .. . ... : ... .. . ... : ... .. . ...
ROW 2E : ... .. . ... : ... .. . ... : ... .. . ... : ... .. . ... : ... .. . ...
ROW 2F : ... .. . ... : ... .. . ... : ... .. . ... : ... .. . ... : ... .. . ...
ROW 30 : ... .. . ... : ... .. . ... : ... .. . ... : ... .. . ... : ... .. . ...
ROW 31 : ... .. . ... : ... .. . ... : ... .. . ... : ... .. . ... : ... .. . ...
ROW 32 : ... .. . ... : ... .. . ... : ... .. . ... : ... .. . ... : ... .. . ...
ROW 33 : ... .. . ... : ... .. . ... : ... .. . ... : ... .. . ... : ... .. . ...
ROW 34 : ... .. . ... : ... .. . ... : ... .. . ... : ... .. . ... : ... .. . ...
ROW 35 : ... .. . ... : ... .. . ... : ... .. . ... : ... .. . ... : ... .. . ...
ROW 36 : ... .. . ... : ... .. . ... : ... .. . ... : ... .. . ... : ... .. . ...
ROW 37 : ... .. . ... : ... .. . ... : ... .. . ... : ... .. . ... : ... .. . ...
ROW 38 : ... .. . ... : ... .. . ... : ... .. . ... : ... .. . ... : ... .. . ...
ROW 39 : ... .. . ... : ... .. . ... : ... .. . ... : ... .. . ... : ... .. . ...
ROW 3A : ... .. . ... : ... .. . ... : ... .. . ... : ... .. . ... : ... .. . ...
ROW 3B : ... .. . ... : ... .. . ... : ... .. . ... : ... .. . ... : ... .. . ...
ROW 3C : ... .. . ... : ... .. . ... : ... .. . ... : ... .. . ... : ... .. . ...
ROW 3D : ... .. . ... : ... .. . ... : ... .. . ... : ... .. . ... : ... .. . ...
ROW 3E : ... .. . ... : ... .. . ... : ... .. . ... : ... .. . ... : ... .. . ...
ROW 3F : ... .. . ... : ... .. . ... : ... .. . ... : ... .. . ... : ... .. . ...

PATTERN 07
ROW 00 : G-4 02 . ... : G-4 00 . ... : ... .. . ... : ... .. . ... : ... .. . ...
ROW 01 : F#4 02 . ... : F#4 00 . ... : ... .. . ... : ... .. . ... : ... .. . ...
ROW 02 : D-4 02 . ... : D-4 00 . ... : ... .. . ... : ... .. . ... : ... .. . ...
ROW 03 : B-3 02 . ... : E-4 00 . ... : ... .. . ... : ... .. . ... : ... .. . ...
ROW 04 : E-4 02 . ... : G-4 00 . ... : ... .. . ... : ... .. . ... : ... .. . ...
ROW 05 : D-4 02 . ... : F#4 00 . ... : ... .. . ... : ... .. . ... : ... .. . ...
ROW 06 : B-3 02 . ... : D-4 00 . ... : ... .. . ... : ... .. . ... : ... .. . ...
ROW 07 : E-4 02 . ... : C-4 00 . ... : ... .. . ... : ... .. . ... : ... .. . ...
ROW 08 : G-4 02 . ... : B-4 00 . ... : ... .. . ... : ... .. . ... : ... .. . ...
ROW 09 : F#4 02 . ... : G-4 00 . ... : ... .. . ... : ... .. . ... : ... .. . ...
ROW 0A : D-4 02 . ... : E-4 00 . ... : ... .. . ... : ... .. . ... : ... .. . ...
ROW 0B : B-3 02 . ... : G-4 00 . ... : ... .. . ... : ... .. . ... : ... .. . ...
ROW 0C : E-4 02 . ... : B-4 00 . ... : ... .. . ... : ... .. . ... : ... .. . ...
ROW 0D : D-4 02 . ... : G-4 00 . ... : ... .. . ... : ... .. . ... : ... .. . ...
ROW 0E : B-3 02 . ... : E-4 00 . ... : ... .. . ... : ... .. . ... : ... .. . ...
ROW 0F : E-4 02 . ... : G-4 00 . ... : ... .. . ... : ... .. . ... : ... .. . ...
ROW 10 : ... .. . ... : A-4 00 . ... : ... .. . ... : ... .. . ... : ... .. . ...
ROW 11 : ... .. . ... : F#4 00 . ... : ... .. . ... : ... .. . ... : ... .. . ...
ROW 12 : ... .. . ... : D-4 00 . ... : ... .. . ... : ... .. . ... : ... .. . ...
ROW 13 : ... .. . ... : F#4 00 . ... : ... .. . ... : ... .. . ... : ... .. . ...
ROW 14 : ... .. . ... : A-4 00 . ... : ... .. . ... : ... .. . ... : ... .. . ...
ROW 15 : ... .. . ... : F#4 00 . ... : ... .. . ... : ... .. . ... : ... .. . ...
ROW 16 : ... .. . ... : D-4 00 . ... : ... .. . ... : ... .. . ... : ... .. . ...
ROW 17 : D-4 02 . ... : F#4 00 . ... : ... .. . ... : ... .. . ... : ... .. . ...
ROW 18 : ... .. . ... : G-4 00 . ... : ... .. . ... : ... .. . ... : ... .. . ...
ROW 19 : ... .. . ... : E-4 00 . ... : ... .. . ... : ... .. . ... : ... .. . ...
ROW 1A : ... .. . ... : C-4 00 . ... : ... .. . ... : ... .. . ... : ... .. . ...
ROW 1B : ... .. . ... : E-4 00 . ... : ... .. . ... : ... .. . ... : ... .. . ...
ROW 1C : ... .. . ... : G-4 00 . ... : ... .. . ... : ... .. . ... : ... .. . ...
ROW 1D : ... .. . ... : E-4 00 . ... : ... .. . ... : ... .. . ... : ... .. . ...
ROW 1E : ... .. . ... : C-4 00 . ... : ... .. . ... : ... .. . ... : ... .. . ...
ROW 1F : F#4 02 . ... : E-4 00 . ... : ... .. . ... : ... .. . ... : ... .. . ...
ROW 20 : G-4 02 . ... : G-4 00 . ... : ... .. . ... : ... .. . ... : ... .. . ...
ROW 21 : F#4 02 . ... : F#4 00 . ... : ... .. . ... : ... .. . ... : ... .. . ...
ROW 22 : D-4 02 . ... : D-4 00 . ... : ... .. . ... : ... .. . ... : ... .. . ...
ROW 23 : B-3 02 . ... : E-4 00 . ... : ... .. . ... : ... .. . ... : ... .. . ...
ROW 24 : E-4 02 . ... : G-4 00 . ... : ... .. . ... : ... .. . ... : ... .. . ...
ROW 25 : D-4 02 . ... : F#4 00 . ... : ... .. . ... : ... .. . ... : ... .. . ...
ROW 26 : B-3 02 . ... : D-4 00 . ... : ... .. . ... : ... .. . ... : ... .. . ...
ROW 27 : E-4 02 . ... : C-4 00 . ... : ... .. . ... : ... .. . ... : ... .. . ...
ROW 28 : G-4 02 . ... : B-4 00 . ... : ... .. . ... : ... .. . ... : ... .. . ...
ROW 29 : F#4 02 . ... : G-4 00 . ... : ... .. . ... : ... .. . ... : ... .. . ...
ROW 2A : D-4 02 . ... : E-4 00 . ... : ... .. . ... : ... .. . ... : ... .. . ...
ROW 2B : B-3 02 . ... : G-4 00 . ... : ... .. . ... : ... .. . ... : ... .. . ...
ROW 2C : E-4 02 . ... : B-4 00 . ... : ... .. . ... : ... .. . ... : ... .. . ...
ROW 2D : D-4 02 . ... : G-4 00 . ... : ... .. . ... : ... .. . ... : ... .. . ...
ROW 2E : B-3 02 . ... : E-4 00 . ... : ... .. . ... : ... .. . ... : ... .. . ...
ROW 2F : G-4 02 . ... : G-4 00 . ... : ... .. . ... : ... .. . ... : ... .. . ...
ROW 30 : ... .. . ... : A-4 00 . ... : ... .. . ... : ... .. . ... : ... .. . ...
ROW 31 : ... .. . ... : F#4 00 . ... : ... .. . ... : ... .. . ... : ... .. . ...
ROW 32 : ... .. . ... : D-4 00 . ... : ... .. . ... : ... .. . ... : ... .. . ...
ROW 33 : ... .. . ... : F#4 00 . ... : ... .. . ... : ... .. . ... : ... .. . ...
ROW 34 : ... .. . ... : A-4 00 . ... : ... .. . ... : ... .. . ... : ... .. . ...
ROW 35 : ... .. . ... : F#4 00 . ... : ... .. . ... : ... .. . ... : ... .. . ...
ROW 36 : ... .. . ... : D-4 00 . ... : ... .. . ... : ... .. . ... : ... .. . ...
ROW 37 : A-4 02 . ... : F#4 00 . ... : ... .. . ... : ... .. . ... : ... .. . ...
ROW 38 : ... .. . ... : G-4 00 . ... : ... .. . ... : ... .. . ... : ... .. . ...
ROW 39 : ... .. . ... : E-4 00 . ... : ... .. . ... : ... .. . ... : ... .. . ...
ROW 3A : ... .. . ... : C-4 00 . ... : ... .. . ... : ... .. . ... : ... .. . ...
ROW 3B : ... .. . ... : E-4 00 . ... : ... .. . ... : ... .. . ... : ... .. . ...
ROW 3C : ... .. . ... : G-4 00 . ... : ... .. . ... : ... .. . ... : ... .. . ...
ROW 3D : ... .. . ... : E-4 00 . ... : ... .. . ... : ... .. . ... : ... .. . ...
ROW 3E : ... .. . ... : C-4 00 . ... : ... .. . ... : ... .. . ... : ... .. . ...
ROW 3F : F#4 02 . ... : E-4 00 . ... : ... .. . ... : ... .. . ... : ... .. . ...

PATTERN 08
ROW 00 : G-4 01 . ... : G-4 00 . ... : G-4 0B . ... : ... .. . ... : ... .. . ...
ROW 01 : F#4 09 . ... : F#4 00 . ... : ... .. . ... : ... .. . ... : ... .. . ...
ROW 02 : D-4 09 . ... : D-4 00 . ... : ... .. . ... : ... .. . ... : ... .. . ...
ROW 03 : B-3 09 . ... : B-3 00 . ... : ... .. . ... : ... .. . ... : ... .. . ...
ROW 04 : ... .. . ... : ... .. . ... : ... .. . ... : ... .. . ... : ... .. . ...
ROW 05 : C-4 01 . ... : C-4 00 . ... : ... .. . ... : ... .. . ... : ... .. . ...
ROW 06 : ... .. . ... : ... .. . ... : ... .. . ... : ... .. . ... : ... .. . ...
ROW 07 : G-4 01 . ... : G-4 00 . ... : ... .. . ... : ... .. . ... : ... .. . ...
ROW 08 : F#4 01 . ... : F#4 00 . ... : ... .. . ... : ... .. . ... : ... .. . ...
ROW 09 : E-4 01 . ... : E-4 00 . ... : ... .. . ... : ... .. . ... : ... .. . ...
ROW 0A : G-4 01 . ... : G-4 00 . ... : ... .. . ... : ... .. . ... : ... .. . ...
ROW 0B : A-4 01 . ... : A-4 00 . ... : ... .. . ... : ... .. . ... : ... .. . ...
ROW 0C : ... .. . ... : ... .. . ... : ... .. . ... : ... .. . ... : ... .. . ...
ROW 0D : ... .. . ... : ... .. . ... : ... .. . ... : ... .. . ... : ... .. . ...
ROW 0E : G-4 01 . ... : G-4 00 . ... : ... .. . ... : ... .. . ... : ... .. . ...
ROW 0F : G-4 01 . ... : G-4 00 . ... : ... .. . ... : ... .. . ... : ... .. . ...
ROW 10 : F#4 01 . ... : F#4 00 . ... : G-1 0A . ... : ... .. . ... : ... .. . ...
ROW 11 : D-4 01 . ... : D-4 00 . ... : ... .. . ... : ... .. . ... : ... .. . ...
ROW 12 : F#4 01 . ... : F#4 00 . ... : ... .. . ... : ... .. . ... : ... .. . ...
ROW 13 : ... .. . ... : ... .. . ... : ... .. . ... : ... .. . ... : ... .. . ...
ROW 14 : D-4 01 . ... : D-4 00 . ... : ... .. . ... : ... .. . ... : ... .. . ...
ROW 15 : ... .. . ... : ... .. . ... : ... .. . ... : ... .. . ... : ... .. . ...
ROW 16 : G-4 01 . ... : G-4 00 . ... : ... .. . ... : ... .. . ... : ... .. . ...
ROW 17 : F#4 01 . ... : F#4 00 . ... : ... .. . ... : ... .. . ... : ... .. . ...
ROW 18 : G-4 01 . ... : G-4 00 . ... : ... .. . ... : ... .. . ... : ... .. . ...
ROW 19 : G-4 01 . ... : G-4 00 . ... : ... .. . ... : ... .. . ... : ... .. . ...
ROW 1A : A-4 01 . ... : A-4 00 . ... : ... .. . ... : ... .. . ... : ... .. . ...
ROW 1B : B-4 01 . ... : B-4 00 . ... : ... .. . ... : ... .. . ... : ... .. . ...
ROW 1C : ... .. . ... : ... .. . ... : ... .. . ... : ... .. . ... : ... .. . ...
ROW 1D : ... .. . ... : ... .. . ... : ... .. . ... : ... .. . ... : ... .. . ...
ROW 1E : ... .. . ... : ... .. . ... : G-4 0B . ... : ... .. . ... : ... .. . ...
ROW 1F : F#4 04 . ... : F#4 00 . ... : G-4 0B . ... : ... .. . ... : ... .. . ...
ROW 20 : G-4 01 . ... : G-4 00 . ... : G-4 0B . ... : ... .. . ... : ... .. . ...
ROW 21 : F#4 09 . ... : F#4 00 . ... : ... .. . ... : ... .. . ... : ... .. . ...
ROW 22 : D-4 09 . ... : D-4 00 . ... : ... .. . ... : ... .. . ... : ... .. . ...
ROW 23 : B-3 09 . ... : B-3 00 . ... : ... .. . ... : ... .. . ... : ... .. . ...
ROW 24 : ... .. . ... : ... .. . ... : ... .. . ... : ... .. . ... : ... .. . ...
ROW 25 : C-4 01 . ... : C-4 00 . ... : ... .. . ... : ... .. . ... : ... .. . ...
ROW 26 : ... .. . ... : ... .. . ... : ... .. . ... : ... .. . ... : ... .. . ...
ROW 27 : G-4 01 . ... : G-4 00 . ... : ... .. . ... : ... .. . ... : ... .. . ...
ROW 28 : F#4 01 . ... : F#4 00 . ... : ... .. . ... : ... .. . ... : ... .. . ...
ROW 29 : E-4 01 . ... : E-4 00 . ... : ... .. . ... : ... .. . ... : ... .. . ...
ROW 2A : G-4 01 . ... : G-4 00 . ... : ... .. . ... : ... .. . ... : ... .. . ...
ROW 2B : A-4 01 . ... : A-4 00 . ... : ... .. . ... : ... .. . ... : ... .. . ...
ROW 2C : ... .. . ... : ... .. . ... : ... .. . ... : ... .. . ... : ... .. . ...
ROW 2D : ... .. . ... : ... .. . ... : ... .. . ... : ... .. . ... : ... .. . ...
ROW 2E : B-4 01 . ... : B-4 00 . ... : ... .. . ... : ... .. . ... : ... .. . ...
ROW 2F : C-5 01 . ... : C-5 00 . ... : ... .. . ... : ... .. . ... : ... .. . ...
ROW 30 : D-5 01 . ... : D-5 00 . ... : G-1 0A . ... : ... .. . ... : ... .. . ...
ROW 31 : B-4 01 . ... : B-4 00 . ... : ... .. . ... : ... .. . ... : ... .. . ...
ROW 32 : F#5 01 . ... : F#5 00 . ... : ... .. . ... : ... .. . ... : ... .. . ...
ROW 33 : G-5 01 . ... : G-5 00 . ... : ... .. . ... : ... .. . ... : ... .. . ...
ROW 34 : ... .. . ... : ... .. . ... : G-2 0A . ... : ... .. . ... : ... .. . ...
ROW 35 : G-5 01 . ... : G-5 00 . ... : ... .. . ... : ... .. . ... : ... .. . ...
ROW 36 : F#5 01 . ... : F#5 00 . ... : ... .. . ... : ... .. . ... : ... .. . ...
ROW 37 : E-5 01 . ... : E-5 00 . ... : ... .. . ... : ... .. . ... : ... .. . ...
ROW 38 : G-4 01 . ... : G-4 00 . ... : G-3 0A . ... : ... .. . ... : ... .. . ...
ROW 39 : B-4 01 . ... : B-4 00 . ... : ... .. . ... : ... .. . ... : ... .. . ...
ROW 3A : C-5 01 . ... : C-5 00 . ... : ... .. . ... : ... .. . ... : ... .. . ...
ROW 3B : E-5 01 . ... : E-5 00 . ... : ... .. . ... : ... .. . ... : ... .. . ...
ROW 3C : ... .. . ... : ... .. . ... : G-4 0A . ... : ... .. . ... : ... .. . ...
ROW 3D : ... .. . ... : ... .. . ... : ... .. . ... : ... .. . ... : ... .. . ...
ROW 3E : ... .. . ... : ... .. . ... : G-5 0A . ... : ... .. . ... : ... .. . ...
ROW 3F : ... .. . ... : ... .. . ... : ... .. . ... : ... .. . ... : ... .. . ...

PATTERN 09
ROW 00 : G-4 02 . ... : G-4 0B . ... : --- .. . ... : ... .. . ... : ... .. . ...
ROW 01 : F#4 02 . ... : ... .. . ... : ... .. . ... : ... .. . ... : ... .. . ...
ROW 02 : D-4 02 . ... : ... .. . ... : ... .. . ... : ... .. . ... : ... .. . ...
ROW 03 : B-3 02 . ... : ... .. . ... : ... .. . ... : ... .. . ... : ... .. . ...
ROW 04 : E-4 02 . ... : ... .. . ... : ... .. . ... : ... .. . ... : ... .. . ...
ROW 05 : D-4 02 . ... : ... .. . ... : ... .. . ... : ... .. . ... : ... .. . ...
ROW 06 : B-3 02 . ... : ... .. . ... : ... .. . ... : ... .. . ... : ... .. . ...
ROW 07 : E-4 02 . ... : ... .. . ... : ... .. . ... : ... .. . ... : ... .. . ...
ROW 08 : G-4 02 . ... : ... .. . ... : ... .. . ... : ... .. . ... : ... .. . ...
ROW 09 : F#4 02 . ... : ... .. . ... : ... .. . ... : ... .. . ... : ... .. . ...
ROW 0A : D-4 02 . ... : ... .. . ... : ... .. . ... : ... .. . ... : ... .. . ...
ROW 0B : B-3 02 . ... : ... .. . ... : ... .. . ... : ... .. . ... : ... .. . ...
ROW 0C : E-4 02 . ... : ... .. . ... : ... .. . ... : ... .. . ... : ... .. . ...
ROW 0D : D-4 02 . ... : ... .. . ... : ... .. . ... : ... .. . ... : ... .. . ...
ROW 0E : B-3 02 . ... : ... .. . ... : ... .. . ... : ... .. . ... : ... .. . ...
ROW 0F : E-4 02 . ... : ... .. . ... : ... .. . ... : ... .. . ... : ... .. . ...
ROW 10 : ... .. . ... : G-1 0A . ... : ... .. . ... : ... .. . ... : ... .. . ...
ROW 11 : ... .. . ... : ... .. . ... : ... .. . ... : ... .. . ... : ... .. . ...
ROW 12 : ... .. . ... : ... .. . ... : ... .. . ... : ... .. . ... : ... .. . ...
ROW 13 : ... .. . ... : ... .. . ... : ... .. . ... : ... .. . ... : ... .. . ...
ROW 14 : ... .. . ... : ... .. . ... : ... .. . ... : ... .. . ... : ... .. . ...
ROW 15 : ... .. . ... : ... .. . ... : ... .. . ... : ... .. . ... : ... .. . ...
ROW 16 : ... .. . ... : ... .. . ... : ... .. . ... : ... .. . ... : ... .. . ...
ROW 17 : D-4 02 . ... : ... .. . ... : ... .. . ... : ... .. . ... : ... .. . ...
ROW 18 : ... .. . ... : G-2 0A . ... : ... .. . ... : ... .. . ... : ... .. . ...
ROW 19 : ... .. . ... : ... .. . ... : ... .. . ... : ... .. . ... : ... .. . ...
ROW 1A : ... .. . ... : ... .. . ... : ... .. . ... : ... .. . ... : ... .. . ...
ROW 1B : ... .. . ... : ... .. . ... : ... .. . ... : ... .. . ... : ... .. . ...
ROW 1C : ... .. . ... : ... .. . ... : ... .. . ... : ... .. . ... : ... .. . ...
ROW 1D : ... .. . ... : ... .. . ... : ... .. . ... : ... .. . ... : ... .. . ...
ROW 1E : ... .. . ... : G-4 0B . ... : ... .. . ... : ... .. . ... : ... .. . ...
ROW 1F : F#4 02 . ... : G-4 0B . ... : ... .. . ... : ... .. . ... : ... .. . ...
ROW 20 : G-4 02 . ... : G-4 0B . ... : ... .. . ... : ... .. . ... : ... .. . ...
ROW 21 : F#4 02 . ... : ... .. . ... : ... .. . ... : ... .. . ... : ... .. . ...
ROW 22 : D-4 02 . ... : ... .. . ... : ... .. . ... : ... .. . ... : ... .. . ...
ROW 23 : B-3 02 . ... : ... .. . ... : ... .. . ... : ... .. . ... : ... .. . ...
ROW 24 : E-4 02 . ... : ... .. . ... : ... .. . ... : ... .. . ... : ... .. . ...
ROW 25 : D-4 02 . ... : ... .. . ... : ... .. . ... : ... .. . ... : ... .. . ...
ROW 26 : B-3 02 . ... : ... .. . ... : ... .. . ... : ... .. . ... : ... .. . ...
ROW 27 : E-4 02 . ... : ... .. . ... : ... .. . ... : ... .. . ... : ... .. . ...
ROW 28 : G-4 02 . ... : ... .. . ... : ... .. . ... : ... .. . ... : ... .. . ...
ROW 29 : F#4 02 . ... : ... .. . ... : ... .. . ... : ... .. . ... : ... .. . ...
ROW 2A : D-4 02 . ... : ... .. . ... : ... .. . ... : ... .. . ... : ... .. . ...
ROW 2B : B-3 02 . ... : ... .. . ... : ... .. . ... : ... .. . ... : ... .. . ...
ROW 2C : E-4 02 . ... : ... .. . ... : ... .. . ... : ... .. . ... : ... .. . ...
ROW 2D : D-4 02 . ... : ... .. . ... : ... .. . ... : ... .. . ... : ... .. . ...
ROW 2E : B-3 02 . ... : ... .. . ... : ... .. . ... : ... .. . ... : ... .. . ...
ROW 2F : G-4 02 . ... : ... .. . ... : ... .. . ... : ... .. . ... : ... .. . ...
ROW 30 : ... .. . ... : G-1 0A . ... : ... .. . ... : ... .. . ... : ... .. . ...
ROW 31 : ... .. . ... : ... .. . ... : ... .. . ... : ... .. . ... : ... .. . ...
ROW 32 : ... .. . ... : ... .. . ... : ... .. . ... : ... .. . ... : ... .. . ...
ROW 33 : ... .. . ... : ... .. . ... : ... .. . ... : ... .. . ... : ... .. . ...
ROW 34 : ... .. . ... : G-2 0A . ... : ... .. . ... : ... .. . ... : ... .. . ...
ROW 35 : ... .. . ... : ... .. . ... : ... .. . ... : ... .. . ... : ... .. . ...
ROW 36 : ... .. . ... : ... .. . ... : ... .. . ... : ... .. . ... : ... .. . ...
ROW 37 : A-4 02 . ... : ... .. . ... : ... .. . ... : ... .. . ... : ... .. . ...
ROW 38 : ... .. . ... : G-3 0A . ... : ... .. . ... : ... .. . ... : ... .. . ...
ROW 39 : ... .. . ... : ... .. . ... : ... .. . ... : ... .. . ... : ... .. . ...
ROW 3A : ... .. . ... : ... .. . ... : ... .. . ... : ... .. . ... : ... .. . ...
ROW 3B : ... .. . ... : ... .. . ... : ... .. . ... : ... .. . ... : ... .. . ...
ROW 3C : ... .. . ... : G-4 0A . ... : ... .. . ... : ... .. . ... : ... .. . ...
ROW 3D : ... .. . ... : ... .. . ... : ... .. . ... : ... .. . ... : ... .. . ...
ROW 3E : ... .. . ... : G-5 0A . ... : ... .. . ... : ... .. . ... : ... .. . ...
ROW 3F : F#4 02 . ... : ... .. . ... : ... .. . ... : ... .. . ... : ... .. . ...

PATTERN 0A
ROW 00 : G-4 13 . ... : G-4 0D . ... : G-5 11 . ... : ... .. . ... : ... .. . ...
ROW 01 : F#4 13 . ... : F#4 0D . ... : --- 11 . ... : ... .. . ... : ... .. . ...
ROW 02 : D-4 13 . ... : D-4 0D . ... : D-5 11 . ... : ... .. . ... : ... .. . ...
ROW 03 : E-4 13 . ... : B-3 0D . ... : B-4 11 . ... : ... .. . ... : ... .. . ...
ROW 04 : G-4 13 . ... : ... .. . ... : ... .. . ... : ... .. . ... : ... .. . ...
ROW 05 : F#4 13 . ... : C-4 0D . ... : C-5 11 . ... : ... .. . ... : ... .. . ...
ROW 06 : D-4 13 . ... : ... .. . ... : ... .. . ... : ... .. . ... : ... .. . ...
ROW 07 : C-4 13 . ... : G-4 0D . ... : G-5 11 . ... : ... .. . ... : ... .. . ...
ROW 08 : B-4 13 . ... : F#4 0D . ... : F#5 11 . ... : ... .. . ... : ... .. . ...
ROW 09 : G-4 13 . ... : E-4 0D . ... : E-5 11 . ... : ... .. . ... : ... .. . ...
ROW 0A : E-4 13 . ... : G-4 0D . ... : G-5 11 . ... : ... .. . ... : ... .. . ...
ROW 0B : G-4 13 . ... : A-4 0D . ... : A-5 11 . ... : ... .. . ... : ... .. . ...
ROW 0C : B-4 13 . ... : ... .. . ... : ... .. . ... : ... .. . ... : ... .. . ...
ROW 0D : G-4 13 . ... : ... .. . ... : ... .. . ... : ... .. . ... : ... .. . ...
ROW 0E : E-4 13 . ... : G-4 0D . ... : G-5 11 . ... : ... .. . ... : ... .. . ...
ROW 0F : G-4 13 . ... : G-4 0D . ... : --- 11 . ... : ... .. . ... : ... .. . ...
ROW 10 : A-4 13 . ... : F#4 0D . ... : F#5 11 . ... : ... .. . ... : ... .. . ...
ROW 11 : F#4 13 . ... : D-4 0D . ... : D-5 11 . ... : ... .. . ... : ... .. . ...
ROW 12 : D-4 13 . ... : F#4 0D . ... : F#5 11 . ... : ... .. . ... : ... .. . ...
ROW 13 : F#4 13 . ... : ... .. . ... : ... .. . ... : ... .. . ... : ... .. . ...
ROW 14 : A-4 13 . ... : D-4 0D . ... : D-5 11 . ... : ... .. . ... : ... .. . ...
ROW 15 : F#4 13 . ... : ... .. . ... : ... .. . ... : ... .. . ... : ... .. . ...
ROW 16 : D-4 13 . ... : G-4 0D . ... : G-5 11 . ... : ... .. . ... : ... .. . ...
ROW 17 : F#4 13 . ... : F#4 0D . ... : --- 11 . ... : ... .. . ... : ... .. . ...
ROW 18 : G-4 13 . ... : G-4 0D . ... : G-5 11 . ... : ... .. . ... : ... .. . ...
ROW 19 : E-4 13 . ... : G-4 0D . ... : G-5 11 . ... : ... .. . ... : ... .. . ...
ROW 1A : C-4 13 . ... : A-4 0D . ... : A-5 11 . ... : ... .. . ... : ... .. . ...
ROW 1B : E-4 13 . ... : B-4 0D . ... : B-5 11 . ... : ... .. . ... : ... .. . ...
ROW 1C : G-4 13 . ... : ... .. . ... : ... .. . ... : ... .. . ... : ... .. . ...
ROW 1D : E-4 13 . ... : ... .. . ... : ... .. . ... : ... .. . ... : ... .. . ...
ROW 1E : C-4 13 . ... : ... .. . ... : ... .. . ... : ... .. . ... : ... .. . ...
ROW 1F : E-4 13 . ... : F#4 0D . ... : F#5 11 . ... : ... .. . ... : ... .. . ...
ROW 20 : G-4 13 . ... : G-4 0D . ... : G-5 11 . ... : ... .. . ... : ... .. . ...
ROW 21 : F#4 13 . ... : F#4 0D . ... : F#5 11 . ... : ... .. . ... : ... .. . ...
ROW 22 : D-4 13 . ... : D-4 0D . ... : D-5 11 . ... : ... .. . ... : ... .. . ...
ROW 23 : E-4 13 . ... : B-3 0D . ... : B-4 11 . ... : ... .. . ... : ... .. . ...
ROW 24 : G-4 13 . ... : ... .. . ... : ... .. . ... : ... .. . ... : ... .. . ...
ROW 25 : F#4 13 . ... : C-4 0D . ... : C-5 11 . ... : ... .. . ... : ... .. . ...
ROW 26 : D-4 13 . ... : ... .. . ... : ... .. . ... : ... .. . ... : ... .. . ...
ROW 27 : C-4 13 . ... : G-4 0D . ... : G-5 11 . ... : ... .. . ... : ... .. . ...
ROW 28 : B-4 13 . ... : F#4 0D . ... : F#5 11 . ... : ... .. . ... : ... .. . ...
ROW 29 : G-4 13 . ... : E-4 0D . ... : E-5 11 . ... : ... .. . ... : ... .. . ...
ROW 2A : E-4 13 . ... : G-4 0D . ... : G-5 11 . ... : ... .. . ... : ... .. . ...
ROW 2B : G-4 13 . ... : A-4 0D . ... : A-5 11 . ... : ... .. . ... : ... .. . ...
ROW 2C : B-4 13 . ... : ... .. . ... : ... .. . ... : ... .. . ... : ... .. . ...
ROW 2D : G-4 13 . ... : ... .. . ... : ... .. . ... : ... .. . ... : ... .. . ...
ROW 2E : E-4 13 . ... : B-4 0D . ... : B-5 11 . ... : ... .. . ... : ... .. . ...
ROW 2F : G-4 13 . ... : C-5 0D . ... : --- 11 . ... : ... .. . ... : ... .. . ...
ROW 30 : A-4 13 . ... : D-5 0D . ... : D-6 11 . ... : ... .. . ... : ... .. . ...
ROW 31 : F#4 13 . ... : B-4 0D . ... : B-5 11 . ... : ... .. . ... : ... .. . ...
ROW 32 : D-4 13 . ... : F#5 0D . ... : F#6 11 . ... : ... .. . ... : ... .. . ...
ROW 33 : F#4 13 . ... : G-5 0D . ... : G-6 11 . ... : ... .. . ... : ... .. . ...
ROW 34 : A-4 13 . ... : ... .. . ... : ... .. . ... : ... .. . ... : ... .. . ...
ROW 35 : F#4 13 . ... : G-5 0D . ... : G-6 11 . ... : ... .. . ... : ... .. . ...
ROW 36 : D-4 13 . ... : F#5 0D . ... : --- 11 . ... : ... .. . ... : ... .. . ...
ROW 37 : F#4 13 . ... : E-5 0D . ... : E-6 11 . ... : ... .. . ... : ... .. . ...
ROW 38 : G-4 13 . ... : G-4 0D . ... : G-5 11 . ... : ... .. . ... : ... .. . ...
ROW 39 : E-4 13 . ... : B-4 0D . ... : B-5 11 . ... : ... .. . ... : ... .. . ...
ROW 3A : C-4 13 . ... : C-5 0D . ... : C-6 11 . ... : ... .. . ... : ... .. . ...
ROW 3B : E-4 13 . ... : E-5 0D . ... : E-6 11 . ... : ... .. . ... : ... .. . ...
ROW 3C : G-4 13 . ... : ... .. . ... : ... .. . ... : ... .. . ... : ... .. . ...
ROW 3D : E-4 13 . ... : ... .. . ... : ... .. . ... : ... .. . ... : ... .. . ...
ROW 3E : C-4 13 . ... : ... .. . ... : ... .. . ... : ... .. . ... : ... .. . ...
ROW 3F : E-4 13 . ... : ... .. . ... : ... .. . ... : ... .. . ... : ... .. . ...

PATTERN 0B
ROW 00 : G-4 13 . ... : B-4 02 . ... : B-5 03 . ... : ... .. . ... : ... .. . ...
ROW 01 : F#4 13 . ... : ... .. . ... : ... .. . ... : ... .. . ... : ... .. . ...
ROW 02 : D-4 13 . ... : ... .. . ... : ... .. . ... : ... .. . ... : ... .. . ...
ROW 03 : E-4 13 . ... : ... .. . ... : ... .. . ... : ... .. . ... : ... .. . ...
ROW 04 : G-4 13 . ... : ... .. . ... : ... .. . ... : ... .. . ... : ... .. . ...
ROW 05 : F#4 13 . ... : ... .. . ... : ... .. . ... : ... .. . ... : ... .. . ...
ROW 06 : D-4 13 . ... : ... .. . ... : ... .. . ... : ... .. . ... : ... .. . ...
ROW 07 : C-4 13 . ... : ... .. . ... : ... .. . ... : ... .. . ... : ... .. . ...
ROW 08 : B-4 13 . ... : D-4 02 . ... : D-5 03 . ... : ... .. . ... : ... .. . ...
ROW 09 : G-4 13 . ... : ... .. . ... : ... .. . ... : ... .. . ... : ... .. . ...
ROW 0A : E-4 13 . ... : ... .. . ... : ... .. . ... : ... .. . ... : ... .. . ...
ROW 0B : G-4 13 . ... : ... .. . ... : ... .. . ... : ... .. . ... : ... .. . ...
ROW 0C : B-4 13 . ... : ... .. . ... : ... .. . ... : ... .. . ... : ... .. . ...
ROW 0D : G-4 13 . ... : ... .. . ... : ... .. . ... : ... .. . ... : ... .. . ...
ROW 0E : E-4 13 . ... : ... .. . ... : ... .. . ... : ... .. . ... : ... .. . ...
ROW 0F : G-4 13 . ... : ... .. . ... : ... .. . ... : ... .. . ... : ... .. . ...
ROW 10 : A-4 13 . ... : A-4 02 . ... : A-5 03 . ... : ... .. . ... : ... .. . ...
ROW 11 : F#4 13 . ... : ... .. . ... : ... .. . ... : ... .. . ... : ... .. . ...
ROW 12 : D-4 13 . ... : ... .. . ... : ... .. . ... : ... .. . ... : ... .. . ...
ROW 13 : F#4 13 . ... : ... .. . ... : ... .. . ... : ... .. . ... : ... .. . ...
ROW 14 : A-4 13 . ... : ... .. . ... : ... .. . ... : ... .. . ... : ... .. . ...
ROW 15 : F#4 13 . ... : ... .. . ... : ... .. . ... : ... .. . ... : ... .. . ...
ROW 16 : D-4 13 . ... : ... .. . ... : ... .. . ... : ... .. . ... : ... .. . ...
ROW 17 : F#4 13 . ... : ... .. . ... : ... .. . ... : ... .. . ... : ... .. . ...
ROW 18 : G-4 13 . ... : C-5 02 . ... : C-6 03 . ... : ... .. . ... : ... .. . ...
ROW 19 : E-4 13 . ... : ... .. . ... : ... .. . ... : ... .. . ... : ... .. . ...
ROW 1A : C-4 13 . ... : ... .. . ... : ... .. . ... : ... .. . ... : ... .. . ...
ROW 1B : E-4 13 . ... : ... .. . ... : ... .. . ... : ... .. . ... : ... .. . ...
ROW 1C : G-4 13 . ... : D-5 02 . ... : D-6 03 . ... : ... .. . ... : ... .. . ...
ROW 1D : E-4 13 . ... : ... .. . ... : ... .. . ... : ... .. . ... : ... .. . ...
ROW 1E : C-4 13 . ... : ... .. . ... : ... .. . ... : ... .. . ... : ... .. . ...
ROW 1F : E-4 13 . D00 : ... .. . ... : ... .. . ... : ... .. . ... : ... .. . ...
ROW 20 : G-2 13 . ... : B-4 02 . ... : B-5 03 . ... : ... .. . ... : ... .. . ...
ROW 21 : F#2 13 . ... : ... .. . ... : ... .. . ... : ... .. . ... : ... .. . ...
ROW 22 : D-2 13 . ... : ... .. . ... : ... .. . ... : ... .. . ... : ... .. . ...
ROW 23 : E-2 13 . ... : ... .. . ... : ... .. . ... : ... .. . ... : ... .. . ...
ROW 24 : G-2 13 . ... : ... .. . ... : B-5 03 . ... : ... .. . ... : ... .. . ...
ROW 25 : F#2 13 . ... : ... .. . ... : ... .. . ... : ... .. . ... : ... .. . ...
ROW 26 : D-2 13 . ... : ... .. . ... : F#5 03 . ... : ... .. . ... : ... .. . ...
ROW 27 : C-2 13 . ... : ... .. . ... : E-5 03 . ... : ... .. . ... : ... .. . ...
ROW 28 : B-2 13 . ... : D-4 02 . ... : D-5 03 . ... : ... .. . ... : ... .. . ...
ROW 29 : G-2 13 . ... : ... .. . ... : ... .. . ... : ... .. . ... : ... .. . ...
ROW 2A : E-2 13 . ... : ... .. . ... : ... .. . ... : ... .. . ... : ... .. . ...
ROW 2B : G-2 13 . ... : ... .. . ... : ... .. . ... : ... .. . ... : ... .. . ...
ROW 2C : B-2 13 . ... : ... .. . ... : ... .. . ... : ... .. . ... : ... .. . ...
ROW 2D : G-2 13 . ... : ... .. . ... : ... .. . ... : ... .. . ... : ... .. . ...
ROW 2E : E-2 13 . ... : ... .. . ... : ... .. . ... : ... .. . ... : ... .. . ...
ROW 2F : G-2 13 . ... : ... .. . ... : ... .. . ... : ... .. . ... : ... .. . ...
ROW 30 : A-2 13 . ... : A-4 02 . ... : A-5 03 . ... : ... .. . ... : ... .. . ...
ROW 31 : F#2 13 . ... : ... .. . ... : ... .. . ... : ... .. . ... : ... .. . ...
ROW 32 : D-2 13 . ... : ... .. . ... : ... .. . ... : ... .. . ... : ... .. . ...
ROW 33 : F#2 13 . ... : ... .. . ... : ... .. . ... : ... .. . ... : ... .. . ...
ROW 34 : A-2 13 . ... : ... .. . ... : B-5 03 . ... : ... .. . ... : ... .. . ...
ROW 35 : F#2 13 . ... : ... .. . ... : ... .. . ... : ... .. . ... : ... .. . ...
ROW 36 : D-2 13 . ... : ... .. . ... : A-5 03 . ... : ... .. . ... : ... .. . ...
ROW 37 : F#2 13 . ... : ... .. . ... : ... .. . ... : ... .. . ... : ... .. . ...
ROW 38 : G-2 13 . ... : C-5 02 . ... : C-6 03 . ... : ... .. . ... : ... .. . ...
ROW 39 : E-2 13 . ... : ... .. . ... : ... .. . ... : ... .. . ... : ... .. . ...
ROW 3A : C-2 13 . ... : ... .. . ... : ... .. . ... : ... .. . ... : ... .. . ...
ROW 3B : E-2 13 . ... : ... .. . ... : ... .. . ... : ... .. . ... : ... .. . ...
ROW 3C : G-2 13 . ... : D-5 02 . ... : D-6 03 . ... : ... .. . ... : ... .. . ...
ROW 3D : E-2 13 . ... : ... .. . ... : ... .. . ... : ... .. . ... : ... .. . ...
ROW 3E : C-2 13 . ... : ... .. . ... : ... .. . ... : ... .. . ... : ... .. . ...
ROW 3F : E-2 13 . ... : ... .. . ... : ... .. . ... : ... .. . ... : ... .. . ...

PATTERN 0C
ROW 00 : G-4 01 . ... : ... .. . ... : ... .. . ... : ... .. . ... : ... .. . ...
ROW 01 : F#4 09 . ... : ... .. . ... : ... .. . ... : ... .. . ... : ... .. . ...
ROW 02 : D-4 09 . ... : ... .. . ... : ... .. . ... : ... .. . ... : ... .. . ...
ROW 03 : B-3 09 . ... : ... .. . ... : ... .. . ... : ... .. . ... : ... .. . ...
ROW 04 : ... .. . ... : ... .. . ... : ... .. . ... : ... .. . ... : ... .. . ...
ROW 05 : C-4 01 . ... : ... .. . ... : ... .. . ... : ... .. . ... : ... .. . ...
ROW 06 : ... .. . ... : ... .. . ... : ... .. . ... : ... .. . ... : ... .. . ...
ROW 07 : G-4 01 . ... : ... .. . ... : ... .. . ... : ... .. . ... : ... .. . ...
ROW 08 : F#4 01 . ... : ... .. . ... : ... .. . ... : ... .. . ... : ... .. . ...
ROW 09 : E-4 01 . ... : ... .. . ... : ... .. . ... : ... .. . ... : ... .. . ...
ROW 0A : G-4 01 . ... : ... .. . ... : ... .. . ... : ... .. . ... : ... .. . ...
ROW 0B : A-4 01 . ... : ... .. . ... : ... .. . ... : ... .. . ... : ... .. . ...
ROW 0C : ... .. . ... : ... .. . ... : ... .. . ... : ... .. . ... : ... .. . ...
ROW 0D : ... .. . ... : ... .. . ... : ... .. . ... : ... .. . ... : ... .. . ...
ROW 0E : G-4 01 . ... : ... .. . ... : ... .. . ... : ... .. . ... : ... .. . ...
ROW 0F : G-4 01 . ... : ... .. . ... : ... .. . ... : ... .. . ... : ... .. . ...
ROW 10 : F#4 01 . ... : ... .. . ... : ... .. . ... : ... .. . ... : ... .. . ...
ROW 11 : D-4 01 . ... : ... .. . ... : ... .. . ... : ... .. . ... : ... .. . ...
ROW 12 : F#4 01 . ... : ... .. . ... : ... .. . ... : ... .. . ... : ... .. . ...
ROW 13 : ... .. . ... : ... .. . ... : ... .. . ... : ... .. . ... : ... .. . ...
ROW 14 : D-4 01 . ... : ... .. . ... : ... .. . ... : ... .. . ... : ... .. . ...
ROW 15 : ... .. . ... : ... .. . ... : ... .. . ... : ... .. . ... : ... .. . ...
ROW 16 : G-4 01 . ... : ... .. . ... : ... .. . ... : ... .. . ... : ... .. . ...
ROW 17 : F#4 01 . ... : ... .. . ... : ... .. . ... : ... .. . ... : ... .. . ...
ROW 18 : G-4 01 . ... : ... .. . ... : ... .. . ... : ... .. . ... : ... .. . ...
ROW 19 : G-4 01 . ... : ... .. . ... : ... .. . ... : ... .. . ... : ... .. . ...
ROW 1A : A-4 01 . ... : ... .. . ... : ... .. . ... : ... .. . ... : ... .. . ...
ROW 1B : B-4 01 . ... : ... .. . ... : ... .. . ... : ... .. . ... : ... .. . ...
ROW 1C : ... .. . ... : ... .. . ... : ... .. . ... : ... .. . ... : ... .. . ...
ROW 1D : ... .. . ... : ... .. . ... : ... .. . ... : ... .. . ... : ... .. . ...
ROW 1E : ... .. . ... : ... .. . ... : ... .. . ... : ... .. . ... : ... .. . ...
ROW 1F : F#4 04 . ... : ... .. . ... : ... .. . ... : ... .. . ... : ... .. . ...
ROW 20 : G-4 01 . ... : ... .. . ... : ... .. . ... : ... .. . ... : ... .. . ...
ROW 21 : F#4 09 . ... : ... .. . ... : ... .. . ... : ... .. . ... : ... .. . ...
ROW 22 : D-4 09 . ... : ... .. . ... : ... .. . ... : ... .. . ... : ... .. . ...
ROW 23 : B-3 09 . ... : ... .. . ... : ... .. . ... : ... .. . ... : ... .. . ...
ROW 24 : ... .. . ... : ... .. . ... : ... .. . ... : ... .. . ... : ... .. . ...
ROW 25 : C-4 01 . ... : ... .. . ... : ... .. . ... : ... .. . ... : ... .. . ...
ROW 26 : ... .. . ... : ... .. . ... : ... .. . ... : ... .. . ... : ... .. . ...
ROW 27 : G-4 01 . ... : ... .. . ... : ... .. . ... : ... .. . ... : ... .. . ...
ROW 28 : F#4 01 . ... : ... .. . ... : ... .. . ... : ... .. . ... : ... .. . ...
ROW 29 : E-4 01 . ... : ... .. . ... : ... .. . ... : ... .. . ... : ... .. . ...
ROW 2A : G-4 01 . ... : ... .. . ... : ... .. . ... : ... .. . ... : ... .. . ...
ROW 2B : A-4 01 . ... : ... .. . ... : ... .. . ... : ... .. . ... : ... .. . ...
ROW 2C : ... .. . ... : ... .. . ... : ... .. . ... : ... .. . ... : ... .. . ...
ROW 2D : ... .. . ... : ... .. . ... : ... .. . ... : ... .. . ... : ... .. . ...
ROW 2E : B-4 01 . ... : ... .. . ... : ... .. . ... : ... .. . ... : ... .. . ...
ROW 2F : C-5 01 . ... : ... .. . ... : ... .. . ... : ... .. . ... : ... .. . ...
ROW 30 : D-5 01 . ... : ... .. . ... : ... .. . ... : ... .. . ... : ... .. . ...
ROW 31 : B-4 01 . ... : ... .. . ... : ... .. . ... : ... .. . ... : ... .. . ...
ROW 32 : F#5 01 . ... : ... .. . ... : ... .. . ... : ... .. . ... : ... .. . ...
ROW 33 : G-5 01 . ... : ... .. . ... : ... .. . ... : ... .. . ... : ... .. . ...
ROW 34 : ... .. . ... : ... .. . ... : ... .. . ... : ... .. . ... : ... .. . ...
ROW 35 : G-5 01 . ... : ... .. . ... : ... .. . ... : ... .. . ... : ... .. . ...
ROW 36 : F#5 01 . ... : ... .. . ... : ... .. . ... : ... .. . ... : ... .. . ...
ROW 37 : E-5 01 . ... : ... .. . ... : ... .. . ... : ... .. . ... : ... .. . ...
ROW 38 : G-4 01 . ... : ... .. . ... : ... .. . ... : ... .. . ... : ... .. . ...
ROW 39 : B-4 01 . ... : ... .. . ... : ... .. . ... : ... .. . ... : ... .. . ...
ROW 3A : C-5 01 . ... : ... .. . ... : ... .. . ... : ... .. . ... : ... .. . ...
ROW 3B : E-5 01 . ... : ... .. . ... : ... .. . ... : ... .. . ... : ... .. . ...
ROW 3C : ... .. . ... : ... .. . ... : ... .. . ... : ... .. . ... : ... .. . ...
ROW 3D : ... .. . ... : ... .. . ... : ... .. . ... : ... .. . ... : ... .. . ...
ROW 3E : ... .. . ... : ... .. . ... : ... .. . ... : ... .. . ... : ... .. . ...
ROW 3F : ... .. . ... : ... .. . ... : ... .. . ... : ... .. . ... : ... .. . ...

PATTERN 0D
ROW 00 : G-4 04 . ... : ... .. . ... : ... .. . ... : ... .. . ... : ... .. . ...
ROW 01 : F#4 04 . ... : ... .. . ... : ... .. . ... : ... .. . ... : ... .. . ...
ROW 02 : D-4 04 . ... : ... .. . ... : ... .. . ... : ... .. . ... : ... .. . ...
ROW 03 : E-4 04 . ... : ... .. . ... : ... .. . ... : ... .. . ... : ... .. . ...
ROW 04 : G-4 04 . ... : ... .. . ... : ... .. . ... : ... .. . ... : ... .. . ...
ROW 05 : F#4 04 . ... : ... .. . ... : ... .. . ... : ... .. . ... : ... .. . ...
ROW 06 : D-4 04 . ... : ... .. . ... : ... .. . ... : ... .. . ... : ... .. . ...
ROW 07 : C-4 04 . ... : ... .. . ... : ... .. . ... : ... .. . ... : ... .. . ...
ROW 08 : B-4 09 . ... : ... .. . ... : ... .. . ... : ... .. . ... : ... .. . ...
ROW 09 : G-4 09 . ... : ... .. . ... : ... .. . ... : ... .. . ... : ... .. . ...
ROW 0A : E-4 09 . ... : ... .. . ... : ... .. . ... : ... .. . ... : ... .. . ...
ROW 0B : G-4 09 . ... : ... .. . ... : ... .. . ... : ... .. . ... : ... .. . ...
ROW 0C : B-4 09 . ... : ... .. . ... : ... .. . ... : ... .. . ... : ... .. . ...
ROW 0D : G-4 09 . ... : ... .. . ... : ... .. . ... : ... .. . ... : ... .. . ...
ROW 0E : E-4 09 . ... : ... .. . ... : ... .. . ... : ... .. . ... : ... .. . ...
ROW 0F : G-4 09 . ... : ... .. . ... : ... .. . ... : ... .. . ... : ... .. . ...
ROW 10 : A-4 01 . ... : ... .. . ... : ... .. . ... : ... .. . ... : ... .. . ...
ROW 11 : F#4 01 . ... : ... .. . ... : ... .. . ... : ... .. . ... : ... .. . ...
ROW 12 : D-4 01 . ... : ... .. . ... : ... .. . ... : ... .. . ... : ... .. . ...
ROW 13 : F#4 01 . ... : ... .. . ... : ... .. . ... : ... .. . ... : ... .. . ...
ROW 14 : A-4 01 . ... : ... .. . ... : ... .. . ... : ... .. . ... : ... .. . ...
ROW 15 : F#4 01 . ... : ... .. . ... : ... .. . ... : ... .. . ... : ... .. . ...
ROW 16 : D-4 01 . ... : ... .. . ... : ... .. . ... : ... .. . ... : ... .. . ...
ROW 17 : F#4 01 . ... : ... .. . ... : ... .. . ... : ... .. . ... : ... .. . ...
ROW 18 : G-4 09 . ... : ... .. . ... : ... .. . ... : ... .. . ... : ... .. . ...
ROW 19 : E-4 09 . ... : ... .. . ... : ... .. . ... : ... .. . ... : ... .. . ...
ROW 1A : C-4 09 . ... : ... .. . ... : ... .. . ... : ... .. . ... : ... .. . ...
ROW 1B : E-4 09 . ... : ... .. . ... : ... .. . ... : ... .. . ... : ... .. . ...
ROW 1C : G-4 09 . ... : ... .. . ... : ... .. . ... : ... .. . ... : ... .. . ...
ROW 1D : E-4 09 . ... : ... .. . ... : ... .. . ... : ... .. . ... : ... .. . ...
ROW 1E : C-4 09 . ... : ... .. . ... : ... .. . ... : ... .. . ... : ... .. . ...
ROW 1F : E-4 09 . ... : ... .. . ... : ... .. . ... : ... .. . ... : ... .. . ...
ROW 20 : G-4 01 . ... : ... .. . ... : ... .. . ... : ... .. . ... : ... .. . ...
ROW 21 : F#4 01 . ... : ... .. . ... : ... .. . ... : ... .. . ... : ... .. . ...
ROW 22 : D-4 01 . ... : ... .. . ... : ... .. . ... : ... .. . ... : ... .. . ...
ROW 23 : E-4 01 . ... : ... .. . ... : ... .. . ... : ... .. . ... : ... .. . ...
ROW 24 : G-4 01 . ... : ... .. . ... : ... .. . ... : ... .. . ... : ... .. . ...
ROW 25 : F#4 01 . ... : ... .. . ... : ... .. . ... : ... .. . ... : ... .. . ...
ROW 26 : D-4 01 . ... : ... .. . ... : ... .. . ... : ... .. . ... : ... .. . ...
ROW 27 : C-4 01 . ... : ... .. . ... : ... .. . ... : ... .. . ... : ... .. . ...
ROW 28 : B-4 01 . ... : ... .. . ... : ... .. . ... : ... .. . ... : ... .. . ...
ROW 29 : G-4 01 . ... : ... .. . ... : ... .. . ... : ... .. . ... : ... .. . ...
ROW 2A : E-4 01 . ... : ... .. . ... : ... .. . ... : ... .. . ... : ... .. . ...
ROW 2B : G-4 01 . ... : ... .. . ... : ... .. . ... : ... .. . ... : ... .. . ...
ROW 2C : B-4 01 . ... : ... .. . ... : ... .. . ... : ... .. . ... : ... .. . ...
ROW 2D : G-4 01 . ... : ... .. . ... : ... .. . ... : ... .. . ... : ... .. . ...
ROW 2E : E-4 01 . ... : ... .. . ... : ... .. . ... : ... .. . ... : ... .. . ...
ROW 2F : G-4 01 . ... : ... .. . ... : ... .. . ... : ... .. . ... : ... .. . ...
ROW 30 : A-4 01 . ... : ... .. . ... : ... .. . ... : ... .. . ... : ... .. . ...
ROW 31 : F#4 01 . ... : ... .. . ... : ... .. . ... : ... .. . ... : ... .. . ...
ROW 32 : D-4 01 . ... : ... .. . ... : ... .. . ... : ... .. . ... : ... .. . ...
ROW 33 : F#4 01 . ... : ... .. . ... : ... .. . ... : ... .. . ... : ... .. . ...
ROW 34 : A-4 01 . ... : ... .. . ... : ... .. . ... : ... .. . ... : ... .. . ...
ROW 35 : F#4 01 . ... : ... .. . ... : ... .. . ... : ... .. . ... : ... .. . ...
ROW 36 : D-4 01 . ... : ... .. . ... : ... .. . ... : ... .. . ... : ... .. . ...
ROW 37 : F#4 01 . ... : ... .. . ... : ... .. . ... : ... .. . ... : ... .. . ...
ROW 38 : G-4 01 . ... : ... .. . ... : ... .. . ... : ... .. . ... : ... .. . ...
ROW 39 : E-4 01 . ... : ... .. . ... : ... .. . ... : ... .. . ... : ... .. . ...
ROW 3A : C-4 01 . ... : ... .. . ... : ... .. . ... : ... .. . ... : ... .. . ...
ROW 3B : E-4 01 . ... : ... .. . ... : ... .. . ... : ... .. . ... : ... .. . ...
ROW 3C : G-4 01 . ... : ... .. . ... : ... .. . ... : ... .. . ... : ... .. . ...
ROW 3D : E-4 01 . ... : ... .. . ... : ... .. . ... : ... .. . ... : ... .. . ...
ROW 3E : C-4 01 . ... : ... .. . ... : ... .. . ... : ... .. . ... : ... .. . ...
ROW 3F : E-4 01 . ... : ... .. . ... : ... .. . ... : ... .. . ... : ... .. . ...

TRACK  48   5 150 "dicey"
COLUMNS : 1 1 1 1 1

ORDER 00 : 09 09 09 09 09
ORDER 01 : 0B 0B 0B 0A 0A
ORDER 02 : 0D 0D 0D 0C 0C
ORDER 03 : 16 16 16 05 05
ORDER 04 : 00 00 00 00 00
ORDER 05 : 02 02 02 02 02
ORDER 06 : 01 01 01 01 01
ORDER 07 : 0F 0F 0F 0D 0D
ORDER 08 : 17 17 17 06 06
ORDER 09 : 18 18 18 07 07
ORDER 0A : 15 15 15 10 10
ORDER 0B : 12 12 12 0E 0E
ORDER 0C : 08 08 08 08 08
ORDER 0D : 0C 0C 0C 0B 0B
ORDER 0E : 03 03 03 03 03
ORDER 0F : 14 14 14 0F 0F
ORDER 10 : 1A 1A 1A 12 12
ORDER 11 : 1B 19 19 04 04

PATTERN 00
ROW 00 : C-3 00 . ... : C-2 00 . ... : C-6 14 . ... : ... .. . ... : ... .. . ...
ROW 01 : ... .. . ... : ... .. . ... : ... .. . ... : ... .. . ... : ... .. . ...
ROW 02 : E-3 00 . ... : C-3 00 . ... : E-6 14 . ... : ... .. . ... : ... .. . ...
ROW 03 : ... .. . ... : ... .. . ... : ... .. . ... : ... .. . ... : ... .. . ...
ROW 04 : G-3 00 . ... : C-2 00 . ... : G-6 14 . ... : ... .. . ... : ... .. . ...
ROW 05 : ... .. . ... : ... .. . ... : ... .. . ... : ... .. . ... : ... .. . ...
ROW 06 : C-4 00 . ... : C-3 00 . ... : G-6 14 . ... : ... .. . ... : ... .. . ...
ROW 07 : ... .. . ... : ... .. . ... : ... .. . ... : ... .. . ... : ... .. . ...
ROW 08 : G-3 00 . ... : C-2 00 . ... : ... .. . ... : ... .. . ... : ... .. . ...
ROW 09 : ... .. . ... : ... .. . ... : ... .. . ... : ... .. . ... : ... .. . ...
ROW 0A : E-3 00 . ... : C-3 00 . ... : ... .. . ... : ... .. . ... : ... .. . ...
ROW 0B : ... .. . ... : ... .. . ... : ... .. . ... : ... .. . ... : ... .. . ...
ROW 0C : C-3 00 . ... : A-1 00 . ... : A-6 14 . ... : ... .. . ... : ... .. . ...
ROW 0D : ... .. . ... : ... .. . ... : ... .. . ... : ... .. . ... : ... .. . ...
ROW 0E : E-3 00 . ... : A-2 00 . ... : ... .. . ... : ... .. . ... : ... .. . ...
ROW 0F : ... .. . ... : ... .. . ... : ... .. . ... : ... .. . ... : ... .. . ...
ROW 10 : A-3 00 . ... : A-1 00 . ... : ... .. . ... : ... .. . ... : ... .. . ...
ROW 11 : ... .. . ... : ... .. . ... : ... .. . ... : ... .. . ... : ... .. . ...
ROW 12 : C-4 00 . ... : A-2 00 . ... : ... .. . ... : ... .. . ... : ... .. . ...
ROW 13 : ... .. . ... : ... .. . ... : ... .. . ... : ... .. . ... : ... .. . ...
ROW 14 : A-3 00 . ... : A-1 00 . ... : ... .. . ... : ... .. . ... : ... .. . ...
ROW 15 : ... .. . ... : ... .. . ... : --- .. . ... : ... .. . ... : ... .. . ...
ROW 16 : E-3 00 . ... : A-2 00 . ... : G-6 14 . ... : ... .. . ... : ... .. . ...
ROW 17 : ... .. . ... : ... .. . ... : ... .. . ... : ... .. . ... : ... .. . ...
ROW 18 : C-3 00 . ... : F-1 00 . ... : F-6 14 . ... : ... .. . ... : ... .. . ...
ROW 19 : ... .. . ... : ... .. . ... : ... .. . ... : ... .. . ... : ... .. . ...
ROW 1A : F-3 00 . ... : F-2 00 . ... : G-6 14 . ... : ... .. . ... : ... .. . ...
ROW 1B : ... .. . ... : ... .. . ... : ... .. . ... : ... .. . ... : ... .. . ...
ROW 1C : A-3 00 . ... : F-1 00 . ... : F-6 14 . ... : ... .. . ... : ... .. . ...
ROW 1D : ... .. . ... : ... .. . ... : ... .. . ... : ... .. . ... : ... .. . ...
ROW 1E : C-4 00 . ... : F-2 00 . ... : D-6 14 . ... : ... .. . ... : ... .. . ...
ROW 1F : ... .. . ... : ... .. . ... : ... .. . ... : ... .. . ... : ... .. . ...
ROW 20 : A-3 00 . ... : F-1 00 . ... : ... .. . ... : ... .. . ... : ... .. . ...
ROW 21 : ... .. . ... : ... .. . ... : ... .. . ... : ... .. . ... : ... .. . ...
ROW 22 : F-3 00 . ... : F-2 00 . ... : E-6 14 . ... : ... .. . ... : ... .. . ...
ROW 23 : ... .. . ... : ... .. . ... : --- .. . ... : ... .. . ... : ... .. . ...
ROW 24 : D-3 00 . ... : G-1 00 . ... : G-6 14 . ... : ... .. . ... : ... .. . ...
ROW 25 : ... .. . ... : ... .. . ... : ... .. . ... : ... .. . ... : ... .. . ...
ROW 26 : G-3 00 . ... : G-2 00 . ... : ... .. . ... : ... .. . ... : ... .. . ...
ROW 27 : ... .. . ... : ... .. . ... : ... .. . ... : ... .. . ... : ... .. . ...
ROW 28 : B-3 00 . ... : G-1 00 . ... : ... .. . ... : ... .. . ... : ... .. . ...
ROW 29 : ... .. . ... : ... .. . ... : ... .. . ... : ... .. . ... : ... .. . ...
ROW 2A : D-4 00 . ... : G-2 00 . ... : ... .. . ... : ... .. . ... : ... .. . ...
ROW 2B : ... .. . ... : ... .. . ... : ... .. . ... : ... .. . ... : ... .. . ...
ROW 2C : B-3 00 . ... : G-1 00 . ... : ... .. . ... : ... .. . ... : ... .. . ...
ROW 2D : ... .. . ... : ... .. . ... : ... .. . ... : ... .. . ... : ... .. . ...
ROW 2E : G-3 00 . ... : G-2 00 . ... : E-6 14 . ... : ... .. . ... : ... .. . ...
ROW 2F : ... .. . ... : ... .. . ... : D-6 14 . ... : ... .. . ... : ... .. . ...

PATTERN 01
ROW 00 : C-3 00 . ... : C-2 00 . ... : C-6 14 . ... : ... .. . ... : ... .. . ...
ROW 01 : ... .. . ... : ... .. . ... : ... .. . ... : ... .. . ... : ... .. . ...
ROW 02 : E-3 00 . ... : C-3 00 . ... : ... .. . ... : ... .. . ... : ... .. . ...
ROW 03 : ... .. . ... : ... .. . ... : ... .. . ... : ... .. . ... : ... .. . ...
ROW 04 : G-3 00 . ... : C-2 00 . ... : ... .. . ... : ... .. . ... : ... .. . ...
ROW 05 : ... .. . ... : ... .. . ... : ... .. . ... : ... .. . ... : ... .. . ...
ROW 06 : C-4 00 . ... : C-3 00 . ... : C-7 14 . ... : ... .. . ... : ... .. . ...
ROW 07 : ... .. . ... : ... .. . ... : ... .. . ... : ... .. . ... : ... .. . ...
ROW 08 : G-3 00 . ... : C-2 00 . ... : D-7 14 . ... : ... .. . ... : ... .. . ...
ROW 09 : ... .. . ... : ... .. . ... : ... .. . ... : ... .. . ... : ... .. . ...
ROW 0A : E-3 00 . ... : C-3 00 . ... : B-6 14 . ... : ... .. . ... : ... .. . ...
ROW 0B : ... .. . ... : ... .. . ... : --- .. . ... : ... .. . ... : ... .. . ...
ROW 0C : C-3 00 . ... : A-1 00 . ... : A-6 14 . ... : ... .. . ... : ... .. . ...
ROW 0D : ... .. . ... : ... .. . ... : ... .. . ... : ... .. . ... : ... .. . ...
ROW 0E : E-3 00 . ... : A-2 00 . ... : ... .. . ... : ... .. . ... : ... .. . ...
ROW 0F : ... .. . ... : ... .. . ... : ... .. . ... : ... .. . ... : ... .. . ...
ROW 10 : A-3 00 . ... : A-1 00 . ... : ... .. . ... : ... .. . ... : ... .. . ...
ROW 11 : ... .. . ... : ... .. . ... : ... .. . ... : ... .. . ... : ... .. . ...
ROW 12 : C-4 00 . ... : A-2 00 . ... : A-5 14 . ... : ... .. . ... : ... .. . ...
ROW 13 : ... .. . ... : ... .. . ... : ... .. . ... : ... .. . ... : ... .. . ...
ROW 14 : A-3 00 . ... : A-1 00 . ... : ... .. . ... : ... .. . ... : ... .. . ...
ROW 15 : ... .. . ... : ... .. . ... : ... .. . ... : ... .. . ... : ... .. . ...
ROW 16 : E-3 00 . ... : A-2 00 . ... : ... .. . ... : ... .. . ... : ... .. . ...
ROW 17 : ... .. . ... : ... .. . ... : ... .. . ... : ... .. . ... : ... .. . ...
ROW 18 : C-3 00 . ... : F-1 00 . ... : F-6 14 . ... : ... .. . ... : ... .. . ...
ROW 19 : ... .. . ... : ... .. . ... : ... .. . ... : ... .. . ... : ... .. . ...
ROW 1A : F-3 00 . ... : F-2 00 . ... : --- .. . ... : ... .. . ... : ... .. . ...
ROW 1B : ... .. . ... : ... .. . ... : F-6 14 . ... : ... .. . ... : ... .. . ...
ROW 1C : A-3 00 . ... : F-1 00 . ... : D-6 14 . ... : ... .. . ... : ... .. . ...
ROW 1D : ... .. . ... : ... .. . ... : ... .. . ... : ... .. . ... : ... .. . ...
ROW 1E : C-4 00 . ... : F-2 00 . ... : C-6 14 . ... : ... .. . ... : ... .. . ...
ROW 1F : ... .. . ... : ... .. . ... : ... .. . ... : ... .. . ... : ... .. . ...
ROW 20 : A-3 00 . ... : F-1 00 . ... : E-6 14 . ... : ... .. . ... : ... .. . ...
ROW 21 : ... .. . ... : ... .. . ... : ... .. . ... : ... .. . ... : ... .. . ...
ROW 22 : F-3 00 . ... : F-2 00 . ... : F-6 14 . ... : ... .. . ... : ... .. . ...
ROW 23 : ... .. . ... : ... .. . ... : ... .. . ... : ... .. . ... : ... .. . ...
ROW 24 : D-3 00 . ... : G-1 00 . ... : G-6 14 . ... : ... .. . ... : ... .. . ...
ROW 25 : ... .. . ... : ... .. . ... : ... .. . ... : ... .. . ... : ... .. . ...
ROW 26 : G-3 00 . ... : G-2 00 . ... : ... .. . ... : ... .. . ... : ... .. . ...
ROW 27 : ... .. . ... : ... .. . ... : ... .. . ... : ... .. . ... : ... .. . ...
ROW 28 : B-3 00 . ... : G-1 00 . ... : ... .. . ... : ... .. . ... : ... .. . ...
ROW 29 : ... .. . ... : ... .. . ... : ... .. . ... : ... .. . ... : ... .. . ...
ROW 2A : D-4 00 . ... : G-2 00 . ... : B-6 14 . ... : ... .. . ... : ... .. . ...
ROW 2B : ... .. . ... : ... .. . ... : ... .. . ... : ... .. . ... : ... .. . ...
ROW 2C : B-3 00 . ... : G-1 00 . ... : ... .. . ... : ... .. . ... : ... .. . ...
ROW 2D : ... .. . ... : ... .. . ... : ... .. . ... : ... .. . ... : ... .. . ...
ROW 2E : G-3 00 . ... : G-2 00 . ... : C-7 14 . ... : ... .. . ... : ... .. . ...
ROW 2F : ... .. . ... : ... .. . ... : ... .. . ... : ... .. . ... : ... .. . ...

PATTERN 02
ROW 00 : C-3 00 . ... : C-2 00 . ... : C-6 14 . ... : ... .. . ... : ... .. . ...
ROW 01 : ... .. . ... : ... .. . ... : ... .. . ... : ... .. . ... : ... .. . ...
ROW 02 : E-3 00 . ... : C-3 00 . ... : ... .. . ... : ... .. . ... : ... .. . ...
ROW 03 : ... .. . ... : ... .. . ... : ... .. . ... : ... .. . ... : ... .. . ...
ROW 04 : G-3 00 . ... : C-2 00 . ... : ... .. . ... : ... .. . ... : ... .. . ...
ROW 05 : ... .. . ... : ... .. . ... : ... .. . ... : ... .. . ... : ... .. . ...
ROW 06 : C-4 00 . ... : C-3 00 . ... : ... .. . ... : ... .. . ... : ... .. . ...
ROW 07 : ... .. . ... : ... .. . ... : ... .. . ... : ... .. . ... : ... .. . ...
ROW 08 : G-3 00 . ... : C-2 00 . ... : ... .. . ... : ... .. . ... : ... .. . ...
ROW 09 : ... .. . ... : ... .. . ... : ... .. . ... : ... .. . ... : ... .. . ...
ROW 0A : E-3 00 . ... : C-3 00 . ... : ... .. . ... : ... .. . ... : ... .. . ...
ROW 0B : ... .. . ... : ... .. . ... : ... .. . ... : ... .. . ... : ... .. . ...
ROW 0C : C-3 00 . ... : A-1 00 . ... : ... .. . ... : ... .. . ... : ... .. . ...
ROW 0D : ... .. . ... : ... .. . ... : ... .. . ... : ... .. . ... : ... .. . ...
ROW 0E : E-3 00 . ... : A-2 00 . ... : ... .. . ... : ... .. . ... : ... .. . ...
ROW 0F : ... .. . ... : ... .. . ... : ... .. . ... : ... .. . ... : ... .. . ...
ROW 10 : A-3 00 . ... : A-1 00 . ... : ... .. . ... : ... .. . ... : ... .. . ...
ROW 11 : ... .. . ... : ... .. . ... : ... .. . ... : ... .. . ... : ... .. . ...
ROW 12 : C-4 00 . ... : A-2 00 . ... : ... .. . ... : ... .. . ... : ... .. . ...
ROW 13 : ... .. . ... : ... .. . ... : ... .. . ... : ... .. . ... : ... .. . ...
ROW 14 : A-3 00 . ... : A-1 00 . ... : ... .. . ... : ... .. . ... : ... .. . ...
ROW 15 : ... .. . ... : ... .. . ... : --- .. . ... : ... .. . ... : ... .. . ...
ROW 16 : E-3 00 . ... : A-2 00 . ... : G-5 14 . ... : ... .. . ... : ... .. . ...
ROW 17 : ... .. . ... : ... .. . ... : --- .. . ... : ... .. . ... : ... .. . ...
ROW 18 : C-3 00 . ... : F-1 00 . ... : F-5 14 . ... : ... .. . ... : ... .. . ...
ROW 19 : ... .. . ... : ... .. . ... : ... .. . ... : ... .. . ... : ... .. . ...
ROW 1A : F-3 00 . ... : F-2 00 . ... : ... .. . ... : ... .. . ... : ... .. . ...
ROW 1B : ... .. . ... : ... .. . ... : ... .. . ... : ... .. . ... : ... .. . ...
ROW 1C : A-3 00 . ... : F-1 00 . ... : C-5 14 . ... : ... .. . ... : ... .. . ...
ROW 1D : ... .. . ... : ... .. . ... : ... .. . ... : ... .. . ... : ... .. . ...
ROW 1E : C-4 00 . ... : F-2 00 . ... : D-5 14 . ... : ... .. . ... : ... .. . ...
ROW 1F : ... .. . ... : ... .. . ... : ... .. . ... : ... .. . ... : ... .. . ...
ROW 20 : A-3 00 . ... : F-1 00 . ... : E-5 14 . ... : ... .. . ... : ... .. . ...
ROW 21 : ... .. . ... : ... .. . ... : ... .. . ... : ... .. . ... : ... .. . ...
ROW 22 : F-3 00 . ... : F-2 00 . ... : F-5 14 . ... : ... .. . ... : ... .. . ...
ROW 23 : ... .. . ... : ... .. . ... : ... .. . ... : ... .. . ... : ... .. . ...
ROW 24 : D-3 00 . ... : G-1 00 . ... : G-5 14 . ... : ... .. . ... : ... .. . ...
ROW 25 : ... .. . ... : ... .. . ... : ... .. . ... : ... .. . ... : ... .. . ...
ROW 26 : G-3 00 . ... : G-2 00 . ... : ... .. . ... : ... .. . ... : ... .. . ...
ROW 27 : ... .. . ... : ... .. . ... : ... .. . ... : ... .. . ... : ... .. . ...
ROW 28 : B-3 00 . ... : G-1 00 . ... : ... .. . ... : ... .. . ... : ... .. . ...
ROW 29 : ... .. . ... : ... .. . ... : --- .. . ... : ... .. . ... : ... .. . ...
ROW 2A : D-4 00 . ... : G-2 00 . ... : B-5 14 . ... : ... .. . ... : ... .. . ...
ROW 2B : ... .. . ... : ... .. . ... : ... .. . ... : ... .. . ... : ... .. . ...
ROW 2C : B-3 00 . ... : G-1 00 . ... : ... .. . ... : ... .. . ... : ... .. . ...
ROW 2D : ... .. . ... : ... .. . ... : ... .. . ... : ... .. . ... : ... .. . ...
ROW 2E : G-3 00 . ... : G-2 00 . ... : D-6 14 . ... : ... .. . ... : ... .. . ...
ROW 2F : ... .. . ... : ... .. . ... : ... .. . ... : ... .. . ... : ... .. . ...

PATTERN 03
ROW 00 : C-3 00 . ... : C-2 00 . ... : C-5 14 . ... : ... .. . ... : ... .. . ...
ROW 01 : ... .. . ... : ... .. . ... : ... .. . ... : ... .. . ... : ... .. . ...
ROW 02 : G-3 00 . ... : C-3 00 . ... : ... .. . ... : ... .. . ... : ... .. . ...
ROW 03 : ... .. . ... : ... .. . ... : ... .. . ... : ... .. . ... : ... .. . ...
ROW 04 : C-3 00 . ... : C-2 00 . ... : C-5 14 . ... : ... .. . ... : ... .. . ...
ROW 05 : ... .. . ... : ... .. . ... : --- .. . ... : ... .. . ... : ... .. . ...
ROW 06 : G-3 00 . ... : C-3 00 . ... : C-6 14 . ... : ... .. . ... : ... .. . ...
ROW 07 : ... .. . ... : ... .. . ... : ... .. . ... : ... .. . ... : ... .. . ...
ROW 08 : C-3 00 . ... : C-2 00 . ... : D-6 14 . ... : ... .. . ... : ... .. . ...
ROW 09 : ... .. . ... : ... .. . ... : ... .. . ... : ... .. . ... : ... .. . ...
ROW 0A : ... .. . ... : C-3 00 . ... : B-5 14 . ... : ... .. . ... : ... .. . ...
ROW 0B : ... .. . ... : ... .. . ... : --- .. . ... : ... .. . ... : ... .. . ...
ROW 0C : A-2 00 . ... : A-1 00 . ... : A-5 14 . ... : ... .. . ... : ... .. . ...
ROW 0D : ... .. . ... : ... .. . ... : ... .. . ... : ... .. . ... : ... .. . ...
ROW 0E : E-3 00 . ... : A-2 00 . ... : ... .. . ... : ... .. . ... : ... .. . ...
ROW 0F : ... .. . ... : ... .. . ... : ... .. . ... : ... .. . ... : ... .. . ...
ROW 10 : A-2 00 . ... : A-1 00 . ... : ... .. . ... : ... .. . ... : ... .. . ...
ROW 11 : ... .. . ... : ... .. . ... : ... .. . ... : ... .. . ... : ... .. . ...
ROW 12 : E-3 00 . ... : A-2 00 . ... : A-4 14 . ... : ... .. . ... : ... .. . ...
ROW 13 : ... .. . ... : ... .. . ... : ... .. . ... : ... .. . ... : ... .. . ...
ROW 14 : A-2 00 . ... : A-1 00 . ... : ... .. . ... : ... .. . ... : ... .. . ...
ROW 15 : ... .. . ... : ... .. . ... : ... .. . ... : ... .. . ... : ... .. . ...
ROW 16 : ... .. . ... : A-2 00 . ... : ... .. . ... : ... .. . ... : ... .. . ...
ROW 17 : ... .. . ... : ... .. . ... : ... .. . ... : ... .. . ... : ... .. . ...
ROW 18 : F-2 00 . ... : F-1 00 . ... : F-5 14 . ... : ... .. . ... : ... .. . ...
ROW 19 : ... .. . ... : ... .. . ... : ... .. . ... : ... .. . ... : ... .. . ...
ROW 1A : C-3 00 . ... : F-2 00 . ... : --- .. . ... : ... .. . ... : ... .. . ...
ROW 1B : ... .. . ... : ... .. . ... : F-5 14 . ... : ... .. . ... : ... .. . ...
ROW 1C : F-2 00 . ... : F-1 00 . ... : D-5 14 . ... : ... .. . ... : ... .. . ...
ROW 1D : ... .. . ... : ... .. . ... : ... .. . ... : ... .. . ... : ... .. . ...
ROW 1E : C-3 00 . ... : F-2 00 . ... : C-5 14 . ... : ... .. . ... : ... .. . ...
ROW 1F : ... .. . ... : ... .. . ... : ... .. . ... : ... .. . ... : ... .. . ...
ROW 20 : F-2 00 . ... : F-1 00 . ... : E-5 14 . ... : ... .. . ... : ... .. . ...
ROW 21 : ... .. . ... : ... .. . ... : ... .. . ... : ... .. . ... : ... .. . ...
ROW 22 : ... .. . ... : F-2 00 . ... : F-5 14 . ... : ... .. . ... : ... .. . ...
ROW 23 : ... .. . ... : ... .. . ... : ... .. . ... : ... .. . ... : ... .. . ...
ROW 24 : G-2 00 . ... : G-1 00 . ... : G-5 14 . ... : ... .. . ... : ... .. . ...
ROW 25 : ... .. . ... : ... .. . ... : ... .. . ... : ... .. . ... : ... .. . ...
ROW 26 : D-3 00 . ... : G-2 00 . ... : ... .. . ... : ... .. . ... : ... .. . ...
ROW 27 : ... .. . ... : ... .. . ... : ... .. . ... : ... .. . ... : ... .. . ...
ROW 28 : G-2 00 . ... : G-1 00 . ... : ... .. . ... : ... .. . ... : ... .. . ...
ROW 29 : ... .. . ... : ... .. . ... : ... .. . ... : ... .. . ... : ... .. . ...
ROW 2A : D-3 00 . ... : G-2 00 . ... : B-5 14 . ... : ... .. . ... : ... .. . ...
ROW 2B : ... .. . ... : ... .. . ... : ... .. . ... : ... .. . ... : ... .. . ...
ROW 2C : G-2 00 . ... : G-1 00 . ... : ... .. . ... : ... .. . ... : ... .. . ...
ROW 2D : ... .. . ... : ... .. . ... : ... .. . ... : ... .. . ... : ... .. . ...
ROW 2E : ... .. . ... : G-2 00 . ... : C-6 14 . ... : ... .. . ... : ... .. . ...
ROW 2F : ... .. . ... : ... .. . ... : ... .. . ... : ... .. . ... : ... .. . ...

PATTERN 04
ROW 00 : C-3 00 . ... : C-2 00 . ... : C-4 14 . ... : ... .. . ... : ... .. . ...
ROW 01 : ... .. . ... : ... .. . ... : ... .. . ... : ... .. . ... : ... .. . ...
ROW 02 : G-3 00 . ... : ... .. . ... : ... .. . ... : ... .. . ... : ... .. . ...
ROW 03 : ... .. . ... : ... .. . ... : ... .. . ... : ... .. . ... : ... .. . ...
ROW 04 : C-3 00 . ... : C-2 00 . ... : ... .. . ... : ... .. . ... : ... .. . ...
ROW 05 : ... .. . ... : ... .. . ... : ... .. . ... : ... .. . ... : ... .. . ...
ROW 06 : G-3 00 . ... : ... .. . ... : ... .. . ... : ... .. . ... : ... .. . ...
ROW 07 : ... .. . ... : ... .. . ... : ... .. . ... : ... .. . ... : ... .. . ...
ROW 08 : C-3 00 . ... : C-2 00 . ... : ... .. . ... : ... .. . ... : ... .. . ...
ROW 09 : ... .. . ... : ... .. . ... : ... .. . ... : ... .. . ... : ... .. . ...
ROW 0A : ... .. . ... : ... .. . ... : ... .. . ... : ... .. . ... : ... .. . ...
ROW 0B : ... .. . ... : ... .. . ... : ... .. . ... : ... .. . ... : ... .. . ...
ROW 0C : A-2 00 . ... : A-1 00 . ... : ... .. . ... : ... .. . ... : ... .. . ...
ROW 0D : ... .. . ... : ... .. . ... : ... .. . ... : ... .. . ... : ... .. . ...
ROW 0E : E-3 00 . ... : ... .. . ... : ... .. . ... : ... .. . ... : ... .. . ...
ROW 0F : ... .. . ... : ... .. . ... : ... .. . ... : ... .. . ... : ... .. . ...
ROW 10 : A-2 00 . ... : A-1 00 . ... : ... .. . ... : ... .. . ... : ... .. . ...
ROW 11 : ... .. . ... : ... .. . ... : ... .. . ... : ... .. . ... : ... .. . ...
ROW 12 : E-3 00 . ... : ... .. . ... : ... .. . ... : ... .. . ... : ... .. . ...
ROW 13 : ... .. . ... : ... .. . ... : ... .. . ... : ... .. . ... : ... .. . ...
ROW 14 : A-2 00 . ... : A-1 00 . ... : ... .. . ... : ... .. . ... : ... .. . ...
ROW 15 : ... .. . ... : ... .. . ... : ... .. . ... : ... .. . ... : ... .. . ...
ROW 16 : ... .. . ... : ... .. . ... : ... .. . ... : ... .. . ... : ... .. . ...
ROW 17 : ... .. . ... : ... .. . ... : ... .. . ... : ... .. . ... : ... .. . ...
ROW 18 : F-3 00 . ... : F-1 00 . ... : --- .. . ... : ... .. . ... : ... .. . ...
ROW 19 : ... .. . ... : ... .. . ... : ... .. . ... : ... .. . ... : ... .. . ...
ROW 1A : ... .. . ... : ... .. . ... : ... .. . ... : ... .. . ... : ... .. . ...
ROW 1B : ... .. . ... : ... .. . ... : ... .. . ... : ... .. . ... : ... .. . ...
ROW 1C : F-3 00 . ... : F-1 00 . ... : ... .. . ... : ... .. . ... : ... .. . ...
ROW 1D : ... .. . ... : ... .. . ... : ... .. . ... : ... .. . ... : ... .. . ...
ROW 1E : ... .. . ... : ... .. . ... : ... .. . ... : ... .. . ... : ... .. . ...
ROW 1F : ... .. . ... : ... .. . ... : ... .. . ... : ... .. . ... : ... .. . ...
ROW 20 : F-3 00 . ... : F-1 00 . ... : ... .. . ... : ... .. . ... : ... .. . ...
ROW 21 : ... .. . ... : ... .. . ... : ... .. . ... : ... .. . ... : ... .. . ...
ROW 22 : ... .. . ... : ... .. . ... : ... .. . ... : ... .. . ... : ... .. . ...
ROW 23 : ... .. . ... : ... .. . ... : ... .. . ... : ... .. . ... : ... .. . ...
ROW 24 : G-3 00 . ... : G-1 00 . ... : ... .. . ... : ... .. . ... : ... .. . ...
ROW 25 : ... .. . ... : ... .. . ... : ... .. . ... : ... .. . ... : ... .. . ...
ROW 26 : ... .. . ... : ... .. . ... : ... .. . ... : ... .. . ... : ... .. . ...
ROW 27 : ... .. . ... : ... .. . ... : ... .. . ... : ... .. . ... : ... .. . ...
ROW 28 : G-3 00 . ... : G-1 00 . ... : ... .. . ... : ... .. . ... : ... .. . ...
ROW 29 : ... .. . ... : ... .. . ... : ... .. . ... : ... .. . ... : ... .. . ...
ROW 2A : ... .. . ... : ... .. . ... : ... .. . ... : ... .. . ... : ... .. . ...
ROW 2B : ... .. . ... : ... .. . ... : ... .. . ... : ... .. . ... : ... .. . ...
ROW 2C : G-3 00 . ... : G-1 00 . ... : ... .. . ... : ... .. . ... : ... .. . ...
ROW 2D : ... .. . ... : ... .. . ... : ... .. . ... : ... .. . ... : ... .. . ...
ROW 2E : ... .. . ... : ... .. . ... : ... .. . ... : ... .. . ... : ... .. . ...
ROW 2F : ... .. . ... : ... .. . ... : ... .. . ... : ... .. . ... : ... .. . ...

PATTERN 05
ROW 00 : C-4 00 . ... : C-2 00 . ... : C-5 14 . ... : ... .. . ... : ... .. . ...
ROW 01 : ... .. . ... : ... .. . ... : ... .. . ... : ... .. . ... : ... .. . ...
ROW 02 : G-4 00 . ... : C-3 00 . ... : ... .. . ... : ... .. . ... : ... .. . ...
ROW 03 : ... .. . ... : ... .. . ... : ... .. . ... : ... .. . ... : ... .. . ...
ROW 04 : C-4 00 . ... : C-2 00 . ... : ... .. . ... : ... .. . ... : ... .. . ...
ROW 05 : ... .. . ... : ... .. . ... : ... .. . ... : ... .. . ... : ... .. . ...
ROW 06 : G-4 00 . ... : C-3 00 . ... : C-6 14 . ... : ... .. . ... : ... .. . ...
ROW 07 : ... .. . ... : ... .. . ... : ... .. . ... : ... .. . ... : ... .. . ...
ROW 08 : C-4 00 . ... : C-2 00 . ... : D-6 14 . ... : ... .. . ... : ... .. . ...
ROW 09 : ... .. . ... : ... .. . ... : ... .. . ... : ... .. . ... : ... .. . ...
ROW 0A : C-5 00 . ... : C-3 00 . ... : B-5 14 . ... : ... .. . ... : ... .. . ...
ROW 0B : ... .. . ... : ... .. . ... : --- .. . ... : ... .. . ... : ... .. . ...
ROW 0C : A-3 00 . ... : A-1 00 . ... : A-5 14 . ... : ... .. . ... : ... .. . ...
ROW 0D : ... .. . ... : ... .. . ... : ... .. . ... : ... .. . ... : ... .. . ...
ROW 0E : E-4 00 . ... : A-2 00 . ... : ... .. . ... : ... .. . ... : ... .. . ...
ROW 0F : ... .. . ... : ... .. . ... : ... .. . ... : ... .. . ... : ... .. . ...
ROW 10 : A-3 00 . ... : A-1 00 . ... : ... .. . ... : ... .. . ... : ... .. . ...
ROW 11 : ... .. . ... : ... .. . ... : ... .. . ... : ... .. . ... : ... .. . ...
ROW 12 : E-4 00 . ... : A-2 00 . ... : A-4 14 . ... : ... .. . ... : ... .. . ...
ROW 13 : ... .. . ... : ... .. . ... : ... .. . ... : ... .. . ... : ... .. . ...
ROW 14 : A-3 00 . ... : A-1 00 . ... : ... .. . ... : ... .. . ... : ... .. . ...
ROW 15 : ... .. . ... : ... .. . ... : ... .. . ... : ... .. . ... : ... .. . ...
ROW 16 : A-4 00 . ... : A-2 00 . ... : ... .. . ... : ... .. . ... : ... .. . ...
ROW 17 : ... .. . ... : ... .. . ... : ... .. . ... : ... .. . ... : ... .. . ...
ROW 18 : F-3 00 . ... : F-1 00 . ... : F-5 14 . ... : ... .. . ... : ... .. . ...
ROW 19 : ... .. . ... : ... .. . ... : ... .. . ... : ... .. . ... : ... .. . ...
ROW 1A : C-4 00 . ... : F-2 00 . ... : --- .. . ... : ... .. . ... : ... .. . ...
ROW 1B : ... .. . ... : ... .. . ... : F-5 14 . ... : ... .. . ... : ... .. . ...
ROW 1C : F-3 00 . ... : F-1 00 . ... : D-5 14 . ... : ... .. . ... : ... .. . ...
ROW 1D : ... .. . ... : ... .. . ... : ... .. . ... : ... .. . ... : ... .. . ...
ROW 1E : C-4 00 . ... : F-2 00 . ... : C-5 14 . ... : ... .. . ... : ... .. . ...
ROW 1F : ... .. . ... : ... .. . ... : ... .. . ... : ... .. . ... : ... .. . ...
ROW 20 : F-3 00 . ... : F-1 00 . ... : E-5 14 . ... : ... .. . ... : ... .. . ...
ROW 21 : ... .. . ... : ... .. . ... : ... .. . ... : ... .. . ... : ... .. . ...
ROW 22 : F-4 00 . ... : F-2 00 . ... : F-5 14 . ... : ... .. . ... : ... .. . ...
ROW 23 : ... .. . ... : ... .. . ... : ... .. . ... : ... .. . ... : ... .. . ...
ROW 24 : G-3 00 . ... : G-1 00 . ... : G-5 14 . ... : ... .. . ... : ... .. . ...
ROW 25 : ... .. . ... : ... .. . ... : ... .. . ... : ... .. . ... : ... .. . ...
ROW 26 : D-4 00 . ... : G-2 00 . ... : ... .. . ... : ... .. . ... : ... .. . ...
ROW 27 : ... .. . ... : ... .. . ... : ... .. . ... : ... .. . ... : ... .. . ...
ROW 28 : G-3 00 . ... : G-1 00 . ... : ... .. . ... : ... .. . ... : ... .. . ...
ROW 29 : ... .. . ... : ... .. . ... : ... .. . ... : ... .. . ... : ... .. . ...
ROW 2A : D-4 00 . ... : G-2 00 . ... : B-5 14 . ... : ... .. . ... : ... .. . ...
ROW 2B : ... .. . ... : ... .. . ... : ... .. . ... : ... .. . ... : ... .. . ...
ROW 2C : G-3 00 . ... : G-1 00 . ... : ... .. . ... : ... .. . ... : ... .. . ...
ROW 2D : ... .. . ... : ... .. . ... : ... .. . ... : ... .. . ... : ... .. . ...
ROW 2E : G-4 00 . ... : G-2 00 . ... : ... .. . ... : ... .. . ... : ... .. . ...
ROW 2F : ... .. . ... : ... .. . ... : ... .. . ... : ... .. . ... : ... .. . ...

PATTERN 06
ROW 00 : C-3 00 . ... : C-2 00 . ... : C-5 14 . ... : ... .. . ... : ... .. . ...
ROW 01 : ... .. . ... : ... .. . ... : ... .. . ... : ... .. . ... : ... .. . ...
ROW 02 : E-3 00 . ... : C-3 00 . ... : ... .. . ... : ... .. . ... : ... .. . ...
ROW 03 : ... .. . ... : ... .. . ... : ... .. . ... : ... .. . ... : ... .. . ...
ROW 04 : G-3 00 . ... : C-2 00 . ... : ... .. . ... : ... .. . ... : ... .. . ...
ROW 05 : ... .. . ... : ... .. . ... : ... .. . ... : ... .. . ... : ... .. . ...
ROW 06 : C-4 00 . ... : C-3 00 . ... : C-5 14 . ... : ... .. . ... : ... .. . ...
ROW 07 : ... .. . ... : ... .. . ... : ... .. . ... : ... .. . ... : ... .. . ...
ROW 08 : G-3 00 . ... : C-2 00 . ... : D-5 14 . ... : ... .. . ... : ... .. . ...
ROW 09 : ... .. . ... : ... .. . ... : ... .. . ... : ... .. . ... : ... .. . ...
ROW 0A : E-3 00 . ... : C-3 00 . ... : E-5 14 . ... : ... .. . ... : ... .. . ...
ROW 0B : ... .. . ... : ... .. . ... : --- .. . ... : ... .. . ... : ... .. . ...
ROW 0C : C-3 00 . ... : F-1 00 . ... : F-5 14 . ... : ... .. . ... : ... .. . ...
ROW 0D : ... .. . ... : ... .. . ... : ... .. . ... : ... .. . ... : ... .. . ...
ROW 0E : F-3 00 . ... : F-2 00 . ... : ... .. . ... : ... .. . ... : ... .. . ...
ROW 0F : ... .. . ... : ... .. . ... : ... .. . ... : ... .. . ... : ... .. . ...
ROW 10 : A-3 00 . ... : F-1 00 . ... : ... .. . ... : ... .. . ... : ... .. . ...
ROW 11 : ... .. . ... : ... .. . ... : ... .. . ... : ... .. . ... : ... .. . ...
ROW 12 : C-4 00 . ... : F-2 00 . ... : F-4 14 . ... : ... .. . ... : ... .. . ...
ROW 13 : ... .. . ... : ... .. . ... : ... .. . ... : ... .. . ... : ... .. . ...
ROW 14 : A-3 00 . ... : F-1 00 . ... : ... .. . ... : ... .. . ... : ... .. . ...
ROW 15 : ... .. . ... : ... .. . ... : ... .. . ... : ... .. . ... : ... .. . ...
ROW 16 : F-3 00 . ... : F-2 00 . ... : G-5 14 . ... : ... .. . ... : ... .. . ...
ROW 17 : ... .. . ... : ... .. . ... : --- .. . ... : ... .. . ... : ... .. . ...
ROW 18 : C-3 00 . ... : A-1 00 . ... : A-5 14 . ... : ... .. . ... : ... .. . ...
ROW 19 : ... .. . ... : ... .. . ... : ... .. . ... : ... .. . ... : ... .. . ...
ROW 1A : E-3 00 . ... : A-2 00 . ... : --- .. . ... : ... .. . ... : ... .. . ...
ROW 1B : ... .. . ... : ... .. . ... : F-5 14 . ... : ... .. . ... : ... .. . ...
ROW 1C : A-3 00 . ... : A-1 00 . ... : D-5 14 . ... : ... .. . ... : ... .. . ...
ROW 1D : ... .. . ... : ... .. . ... : ... .. . ... : ... .. . ... : ... .. . ...
ROW 1E : C-4 00 . ... : A-2 00 . ... : C-5 14 . ... : ... .. . ... : ... .. . ...
ROW 1F : ... .. . ... : ... .. . ... : ... .. . ... : ... .. . ... : ... .. . ...
ROW 20 : A-3 00 . ... : A-1 00 . ... : E-5 14 . ... : ... .. . ... : ... .. . ...
ROW 21 : ... .. . ... : ... .. . ... : ... .. . ... : ... .. . ... : ... .. . ...
ROW 22 : E-3 00 . ... : A-2 00 . ... : F-5 14 . ... : ... .. . ... : ... .. . ...
ROW 23 : ... .. . ... : ... .. . ... : ... .. . ... : ... .. . ... : ... .. . ...
ROW 24 : D-3 00 . ... : G-1 00 . ... : G-5 14 . ... : ... .. . ... : ... .. . ...
ROW 25 : ... .. . ... : ... .. . ... : ... .. . ... : ... .. . ... : ... .. . ...
ROW 26 : G-3 00 . ... : G-2 00 . ... : ... .. . ... : ... .. . ... : ... .. . ...
ROW 27 : ... .. . ... : ... .. . ... : ... .. . ... : ... .. . ... : ... .. . ...
ROW 28 : B-3 00 . ... : G-1 00 . ... : ... .. . ... : ... .. . ... : ... .. . ...
ROW 29 : ... .. . ... : ... .. . ... : ... .. . ... : ... .. . ... : ... .. . ...
ROW 2A : D-4 00 . ... : G-2 00 . ... : ... .. . ... : ... .. . ... : ... .. . ...
ROW 2B : ... .. . ... : ... .. . ... : ... .. . ... : ... .. . ... : ... .. . ...
ROW 2C : B-3 00 . ... : G-1 00 . ... : ... .. . ... : ... .. . ... : ... .. . ...
ROW 2D : ... .. . ... : ... .. . ... : ... .. . ... : ... .. . ... : ... .. . ...
ROW 2E : G-3 00 . ... : G-2 00 . ... : B-4 14 . ... : ... .. . ... : ... .. . ...
ROW 2F : ... .. . ... : ... .. . ... : ... .. . ... : ... .. . ... : ... .. . ...

PATTERN 07
ROW 00 : C-3 00 . ... : C-2 00 . ... : C-5 14 . ... : ... .. . ... : ... .. . ...
ROW 01 : ... .. . ... : ... .. . ... : ... .. . ... : ... .. . ... : ... .. . ...
ROW 02 : C-4 00 . ... : C-3 00 . ... : ... .. . ... : ... .. . ... : ... .. . ...
ROW 03 : ... .. . ... : ... .. . ... : ... .. . ... : ... .. . ... : ... .. . ...
ROW 04 : C-3 00 . ... : C-2 00 . ... : ... .. . ... : ... .. . ... : ... .. . ...
ROW 05 : ... .. . ... : ... .. . ... : ... .. . ... : ... .. . ... : ... .. . ...
ROW 06 : C-4 00 . ... : C-3 00 . ... : C-6 14 . ... : ... .. . ... : ... .. . ...
ROW 07 : ... .. . ... : ... .. . ... : ... .. . ... : ... .. . ... : ... .. . ...
ROW 08 : C-3 00 . ... : C-2 00 . ... : D-6 14 . ... : ... .. . ... : ... .. . ...
ROW 09 : ... .. . ... : ... .. . ... : ... .. . ... : ... .. . ... : ... .. . ...
ROW 0A : C-4 00 . ... : C-3 00 . ... : B-5 14 . ... : ... .. . ... : ... .. . ...
ROW 0B : ... .. . ... : ... .. . ... : --- .. . ... : ... .. . ... : ... .. . ...
ROW 0C : A-2 00 . ... : A-1 00 . ... : A-5 14 . ... : ... .. . ... : ... .. . ...
ROW 0D : ... .. . ... : ... .. . ... : ... .. . ... : ... .. . ... : ... .. . ...
ROW 0E : A-3 00 . ... : A-2 00 . ... : ... .. . ... : ... .. . ... : ... .. . ...
ROW 0F : ... .. . ... : ... .. . ... : ... .. . ... : ... .. . ... : ... .. . ...
ROW 10 : A-2 00 . ... : A-1 00 . ... : ... .. . ... : ... .. . ... : ... .. . ...
ROW 11 : ... .. . ... : ... .. . ... : ... .. . ... : ... .. . ... : ... .. . ...
ROW 12 : A-3 00 . ... : A-2 00 . ... : A-4 14 . ... : ... .. . ... : ... .. . ...
ROW 13 : ... .. . ... : ... .. . ... : ... .. . ... : ... .. . ... : ... .. . ...
ROW 14 : A-2 00 . ... : A-1 00 . ... : ... .. . ... : ... .. . ... : ... .. . ...
ROW 15 : ... .. . ... : ... .. . ... : ... .. . ... : ... .. . ... : ... .. . ...
ROW 16 : A-3 00 . ... : A-2 00 . ... : ... .. . ... : ... .. . ... : ... .. . ...
ROW 17 : ... .. . ... : ... .. . ... : ... .. . ... : ... .. . ... : ... .. . ...
ROW 18 : F-2 00 . ... : F-1 00 . ... : F-5 14 . ... : ... .. . ... : ... .. . ...
ROW 19 : ... .. . ... : ... .. . ... : ... .. . ... : ... .. . ... : ... .. . ...
ROW 1A : F-3 00 . ... : F-2 00 . ... : --- .. . ... : ... .. . ... : ... .. . ...
ROW 1B : ... .. . ... : ... .. . ... : F-5 14 . ... : ... .. . ... : ... .. . ...
ROW 1C : F-2 00 . ... : F-1 00 . ... : D-5 14 . ... : ... .. . ... : ... .. . ...
ROW 1D : ... .. . ... : ... .. . ... : ... .. . ... : ... .. . ... : ... .. . ...
ROW 1E : F-3 00 . ... : F-2 00 . ... : C-5 14 . ... : ... .. . ... : ... .. . ...
ROW 1F : ... .. . ... : ... .. . ... : ... .. . ... : ... .. . ... : ... .. . ...
ROW 20 : F-2 00 . ... : F-1 00 . ... : E-5 14 . ... : ... .. . ... : ... .. . ...
ROW 21 : ... .. . ... : ... .. . ... : ... .. . ... : ... .. . ... : ... .. . ...
ROW 22 : F-3 00 . ... : F-2 00 . ... : F-5 14 . ... : ... .. . ... : ... .. . ...
ROW 23 : ... .. . ... : ... .. . ... : ... .. . ... : ... .. . ... : ... .. . ...
ROW 24 : G-2 00 . ... : G-1 00 . ... : G-5 14 . ... : ... .. . ... : ... .. . ...
ROW 25 : ... .. . ... : ... .. . ... : ... .. . ... : ... .. . ... : ... .. . ...
ROW 26 : G-3 00 . ... : G-2 00 . ... : ... .. . ... : ... .. . ... : ... .. . ...
ROW 27 : ... .. . ... : ... .. . ... : ... .. . ... : ... .. . ... : ... .. . ...
ROW 28 : G-2 00 . ... : G-1 00 . ... : ... .. . ... : ... .. . ... : ... .. . ...
ROW 29 : ... .. . ... : ... .. . ... : ... .. . ... : ... .. . ... : ... .. . ...
ROW 2A : G-3 00 . ... : G-2 00 . ... : B-5 14 . ... : ... .. . ... : ... .. . ...
ROW 2B : ... .. . ... : ... .. . ... : ... .. . ... : ... .. . ... : ... .. . ...
ROW 2C : G-2 00 . ... : G-1 00 . ... : ... .. . ... : ... .. . ... : ... .. . ...
ROW 2D : ... .. . ... : ... .. . ... : ... .. . ... : ... .. . ... : ... .. . ...
ROW 2E : G-3 00 . ... : G-2 00 . ... : ... .. . ... : ... .. . ... : ... .. . ...
ROW 2F : ... .. . ... : ... .. . ... : ... .. . ... : ... .. . ... : ... .. . ...

PATTERN 08
ROW 00 : C-3 00 . ... : C-2 00 . ... : C-5 14 . ... : ... .. . ... : ... .. . ...
ROW 01 : ... .. . ... : ... .. . ... : ... .. . ... : ... .. . ... : ... .. . ...
ROW 02 : E-3 00 . ... : C-3 00 . ... : ... .. . ... : ... .. . ... : ... .. . ...
ROW 03 : ... .. . ... : ... .. . ... : ... .. . ... : ... .. . ... : ... .. . ...
ROW 04 : G-3 00 . ... : C-2 00 . ... : G-5 14 . ... : ... .. . ... : ... .. . ...
ROW 05 : ... .. . ... : ... .. . ... : --- .. . ... : ... .. . ... : ... .. . ...
ROW 06 : C-4 00 . ... : C-3 00 . ... : C-6 14 . ... : ... .. . ... : ... .. . ...
ROW 07 : ... .. . ... : ... .. . ... : ... .. . ... : ... .. . ... : ... .. . ...
ROW 08 : G-3 00 . ... : C-2 00 . ... : ... .. . ... : ... .. . ... : ... .. . ...
ROW 09 : ... .. . ... : ... .. . ... : ... .. . ... : ... .. . ... : ... .. . ...
ROW 0A : E-3 00 . ... : C-3 00 . ... : --- .. . ... : ... .. . ... : ... .. . ...
ROW 0B : ... .. . ... : ... .. . ... : ... .. . ... : ... .. . ... : ... .. . ...
ROW 0C : C-3 00 . ... : F-1 00 . ... : F-5 14 . ... : ... .. . ... : ... .. . ...
ROW 0D : ... .. . ... : ... .. . ... : ... .. . ... : ... .. . ... : ... .. . ...
ROW 0E : F-3 00 . ... : F-2 00 . ... : ... .. . ... : ... .. . ... : ... .. . ...
ROW 0F : ... .. . ... : ... .. . ... : ... .. . ... : ... .. . ... : ... .. . ...
ROW 10 : A-3 00 . ... : F-1 00 . ... : ... .. . ... : ... .. . ... : ... .. . ...
ROW 11 : ... .. . ... : ... .. . ... : ... .. . ... : ... .. . ... : ... .. . ...
ROW 12 : C-4 00 . ... : F-2 00 . ... : E-5 14 . ... : ... .. . ... : ... .. . ...
ROW 13 : ... .. . ... : ... .. . ... : --- .. . ... : ... .. . ... : ... .. . ...
ROW 14 : A-3 00 . ... : F-1 00 . ... : F-5 14 . ... : ... .. . ... : ... .. . ...
ROW 15 : ... .. . ... : ... .. . ... : --- 00 . ... : ... .. . ... : ... .. . ...
ROW 16 : F-3 00 . ... : F-2 00 . ... : G-5 14 . ... : ... .. . ... : ... .. . ...
ROW 17 : ... .. . ... : ... .. . ... : --- .. . ... : ... .. . ... : ... .. . ...
ROW 18 : C-3 00 . ... : A-1 00 . ... : A-5 14 . ... : ... .. . ... : ... .. . ...
ROW 19 : ... .. . ... : ... .. . ... : ... .. . ... : ... .. . ... : ... .. . ...
ROW 1A : E-3 00 . ... : A-2 00 . ... : ... .. . ... : ... .. . ... : ... .. . ...
ROW 1B : ... .. . ... : ... .. . ... : ... .. . ... : ... .. . ... : ... .. . ...
ROW 1C : A-3 00 . ... : A-1 00 . ... : ... .. . ... : ... .. . ... : ... .. . ...
ROW 1D : ... .. . ... : ... .. . ... : --- .. . ... : ... .. . ... : ... .. . ...
ROW 1E : C-4 00 . ... : A-2 00 . ... : A-5 14 . ... : ... .. . ... : ... .. . ...
ROW 1F : ... .. . ... : ... .. . ... : ... .. . ... : ... .. . ... : ... .. . ...
ROW 20 : A-3 00 . ... : A-1 00 . ... : ... .. . ... : ... .. . ... : ... .. . ...
ROW 21 : ... .. . ... : ... .. . ... : --- .. . ... : ... .. . ... : ... .. . ...
ROW 22 : E-3 00 . ... : A-2 00 . ... : A-5 14 . ... : ... .. . ... : ... .. . ...
ROW 23 : ... .. . ... : ... .. . ... : --- .. . ... : ... .. . ... : ... .. . ...
ROW 24 : D-3 00 . ... : G-1 00 . ... : G-5 14 . ... : ... .. . ... : ... .. . ...
ROW 25 : ... .. . ... : ... .. . ... : ... .. . ... : ... .. . ... : ... .. . ...
ROW 26 : G-3 00 . ... : G-2 00 . ... : E-5 14 . ... : ... .. . ... : ... .. . ...
ROW 27 : ... .. . ... : ... .. . ... : ... .. . ... : ... .. . ... : ... .. . ...
ROW 28 : B-3 00 . ... : G-1 00 . ... : D-5 14 . ... : ... .. . ... : ... .. . ...
ROW 29 : ... .. . ... : ... .. . ... : ... .. . ... : ... .. . ... : ... .. . ...
ROW 2A : D-4 00 . ... : G-2 00 . ... : E-5 14 . ... : ... .. . ... : ... .. . ...
ROW 2B : ... .. . ... : ... .. . ... : ... .. . ... : ... .. . ... : ... .. . ...
ROW 2C : B-3 00 . ... : G-1 00 . ... : ... .. . ... : ... .. . ... : ... .. . ...
ROW 2D : ... .. . ... : ... .. . ... : --- .. . ... : ... .. . ... : ... .. . ...
ROW 2E : G-3 00 . ... : G-2 00 . ... : B-4 14 . ... : ... .. . ... : ... .. . ...
ROW 2F : ... .. . ... : ... .. . ... : ... .. . ... : ... .. . ... : ... .. . ...

PATTERN 09
ROW 00 : C-3 00 . ... : C-2 00 . ... : C-4 14 . ... : ... .. . ... : ... .. . ...
ROW 01 : ... .. . ... : ... .. . ... : ... .. . ... : ... .. . ... : ... .. . ...
ROW 02 : ... .. . ... : ... .. . ... : ... .. . ... : ... .. . ... : ... .. . ...
ROW 03 : ... .. . ... : ... .. . ... : ... .. . ... : ... .. . ... : ... .. . ...
ROW 04 : G-3 00 . ... : C-2 00 . ... : ... .. . ... : ... .. . ... : ... .. . ...
ROW 05 : ... .. . ... : ... .. . ... : ... .. . ... : ... .. . ... : ... .. . ...
ROW 06 : ... .. . ... : ... .. . ... : ... .. . ... : ... .. . ... : ... .. . ...
ROW 07 : ... .. . ... : ... .. . ... : --- .. . ... : ... .. . ... : ... .. . ...
ROW 08 : G-3 00 . ... : C-2 00 . ... : E-4 14 . ... : ... .. . ... : ... .. . ...
ROW 09 : ... .. . ... : ... .. . ... : ... .. . ... : ... .. . ... : ... .. . ...
ROW 0A : E-3 00 . ... : ... .. . ... : ... .. . ... : ... .. . ... : ... .. . ...
ROW 0B : ... .. . ... : ... .. . ... : ... .. . ... : ... .. . ... : ... .. . ...
ROW 0C : C-3 00 . ... : A-1 00 . ... : A-4 14 . ... : ... .. . ... : ... .. . ...
ROW 0D : ... .. . ... : ... .. . ... : ... .. . ... : ... .. . ... : ... .. . ...
ROW 0E : ... .. . ... : ... .. . ... : ... .. . ... : ... .. . ... : ... .. . ...
ROW 0F : ... .. . ... : ... .. . ... : ... .. . ... : ... .. . ... : ... .. . ...
ROW 10 : A-3 00 . ... : A-1 00 . ... : ... .. . ... : ... .. . ... : ... .. . ...
ROW 11 : ... .. . ... : ... .. . ... : ... .. . ... : ... .. . ... : ... .. . ...
ROW 12 : ... .. . ... : ... .. . ... : ... .. . ... : ... .. . ... : ... .. . ...
ROW 13 : ... .. . ... : ... .. . ... : --- .. . ... : ... .. . ... : ... .. . ...
ROW 14 : A-3 00 . ... : A-1 00 . ... : G-4 14 . ... : ... .. . ... : ... .. . ...
ROW 15 : ... .. . ... : ... .. . ... : ... .. . ... : ... .. . ... : ... .. . ...
ROW 16 : E-3 00 . ... : ... .. . ... : ... .. . ... : ... .. . ... : ... .. . ...
ROW 17 : ... .. . ... : ... .. . ... : ... .. . ... : ... .. . ... : ... .. . ...
ROW 18 : C-3 00 . ... : F-1 00 . ... : F-4 14 . ... : ... .. . ... : ... .. . ...
ROW 19 : ... .. . ... : ... .. . ... : ... .. . ... : ... .. . ... : ... .. . ...
ROW 1A : F-3 00 . ... : ... .. . ... : ... .. . ... : ... .. . ... : ... .. . ...
ROW 1B : ... .. . ... : ... .. . ... : ... .. . ... : ... .. . ... : ... .. . ...
ROW 1C : A-3 00 . ... : F-1 00 . ... : ... .. . ... : ... .. . ... : ... .. . ...
ROW 1D : ... .. . ... : ... .. . ... : ... .. . ... : ... .. . ... : ... .. . ...
ROW 1E : C-4 00 . ... : ... .. . ... : ... .. . ... : ... .. . ... : ... .. . ...
ROW 1F : ... .. . ... : ... .. . ... : --- .. . ... : ... .. . ... : ... .. . ...
ROW 20 : A-3 00 . ... : F-1 00 . ... : A-4 14 . ... : ... .. . ... : ... .. . ...
ROW 21 : ... .. . ... : ... .. . ... : ... .. . ... : ... .. . ... : ... .. . ...
ROW 22 : F-3 00 . ... : ... .. . ... : ... .. . ... : ... .. . ... : ... .. . ...
ROW 23 : ... .. . ... : ... .. . ... : ... .. . ... : ... .. . ... : ... .. . ...
ROW 24 : D-3 00 . ... : G-1 00 . ... : G-4 14 . ... : ... .. . ... : ... .. . ...
ROW 25 : ... .. . ... : ... .. . ... : ... .. . ... : ... .. . ... : ... .. . ...
ROW 26 : G-3 00 . ... : ... .. . ... : ... .. . ... : ... .. . ... : ... .. . ...
ROW 27 : ... .. . ... : ... .. . ... : ... .. . ... : ... .. . ... : ... .. . ...
ROW 28 : B-3 00 . ... : G-1 00 . ... : A-4 14 . ... : ... .. . ... : ... .. . ...
ROW 29 : ... .. . ... : ... .. . ... : --- .. . ... : ... .. . ... : ... .. . ...
ROW 2A : D-4 00 . ... : ... .. . ... : B-4 14 . ... : ... .. . ... : ... .. . ...
ROW 2B : ... .. . ... : ... .. . ... : ... .. . ... : ... .. . ... : ... .. . ...
ROW 2C : B-3 00 . ... : G-1 00 . ... : ... .. . ... : ... .. . ... : ... .. . ...
ROW 2D : ... .. . ... : ... .. . ... : ... .. . ... : ... .. . ... : ... .. . ...
ROW 2E : G-3 00 . ... : ... .. . ... : ... .. . ... : ... .. . ... : ... .. . ...
ROW 2F : ... .. . ... : ... .. . ... : ... .. . ... : ... .. . ... : ... .. . ...

PATTERN 0A
ROW 00 : C-3 00 . ... : C-2 00 . ... : C-5 14 . ... : ... .. . ... : ... .. . ...
ROW 01 : ... .. . ... : ... .. . ... : ... .. . ... : ... .. . ... : ... .. . ...
ROW 02 : E-3 00 . ... : C-3 00 . ... : ... .. . ... : ... .. . ... : ... .. . ...
ROW 03 : ... .. . ... : ... .. . ... : ... .. . ... : ... .. . ... : ... .. . ...
ROW 04 : G-3 00 . ... : C-2 00 . ... : ... .. . ... : ... .. . ... : ... .. . ...
ROW 05 : ... .. . ... : ... .. . ... : ... .. . ... : ... .. . ... : ... .. . ...
ROW 06 : C-4 00 . ... : C-3 00 . ... : ... .. . ... : ... .. . ... : ... .. . ...
ROW 07 : ... .. . ... : ... .. . ... : ... .. . ... : ... .. . ... : ... .. . ...
ROW 08 : G-3 00 . ... : C-2 00 . ... : ... .. . ... : ... .. . ... : ... .. . ...
ROW 09 : ... .. . ... : ... .. . ... : ... .. . ... : ... .. . ... : ... .. . ...
ROW 0A : E-3 00 . ... : C-3 00 . ... : ... .. . ... : ... .. . ... : ... .. . ...
ROW 0B : ... .. . ... : ... .. . ... : ... .. . ... : ... .. . ... : ... .. . ...
ROW 0C : C-3 00 . ... : A-1 00 . ... : ... .. . ... : ... .. . ... : ... .. . ...
ROW 0D : ... .. . ... : ... .. . ... : ... .. . ... : ... .. . ... : ... .. . ...
ROW 0E : E-3 00 . ... : A-2 00 . ... : ... .. . ... : ... .. . ... : ... .. . ...
ROW 0F : ... .. . ... : ... .. . ... : ... .. . ... : ... .. . ... : ... .. . ...
ROW 10 : A-3 00 . ... : A-1 00 . ... : ... .. . ... : ... .. . ... : ... .. . ...
ROW 11 : ... .. . ... : ... .. . ... : ... .. . ... : ... .. . ... : ... .. . ...
ROW 12 : C-4 00 . ... : A-2 00 . ... : ... .. . ... : ... .. . ... : ... .. . ...
ROW 13 : ... .. . ... : ... .. . ... : ... .. . ... : ... .. . ... : ... .. . ...
ROW 14 : A-3 00 . ... : A-1 00 . ... : ... .. . ... : ... .. . ... : ... .. . ...
ROW 15 : ... .. . ... : ... .. . ... : ... .. . ... : ... .. . ... : ... .. . ...
ROW 16 : E-3 00 . ... : A-2 00 . ... : ... .. . ... : ... .. . ... : ... .. . ...
ROW 17 : ... .. . ... : ... .. . ... : --- .. . ... : ... .. . ... : ... .. . ...
ROW 18 : C-3 00 . ... : F-1 00 . ... : F-4 14 . ... : ... .. . ... : ... .. . ...
ROW 19 : ... .. . ... : ... .. . ... : ... .. . ... : ... .. . ... : ... .. . ...
ROW 1A : F-3 00 . ... : F-2 00 . ... : ... .. . ... : ... .. . ... : ... .. . ...
ROW 1B : ... .. . ... : ... .. . ... : ... .. . ... : ... .. . ... : ... .. . ...
ROW 1C : A-3 00 . ... : F-1 00 . ... : C-4 14 . ... : ... .. . ... : ... .. . ...
ROW 1D : ... .. . ... : ... .. . ... : ... .. . ... : ... .. . ... : ... .. . ...
ROW 1E : C-4 00 . ... : F-2 00 . ... : D-4 14 . ... : ... .. . ... : ... .. . ...
ROW 1F : ... .. . ... : ... .. . ... : ... .. . ... : ... .. . ... : ... .. . ...
ROW 20 : A-3 00 . ... : F-1 00 . ... : E-4 14 . ... : ... .. . ... : ... .. . ...
ROW 21 : ... .. . ... : ... .. . ... : ... .. . ... : ... .. . ... : ... .. . ...
ROW 22 : F-3 00 . ... : F-2 00 . ... : F-4 14 . ... : ... .. . ... : ... .. . ...
ROW 23 : ... .. . ... : ... .. . ... : ... .. . ... : ... .. . ... : ... .. . ...
ROW 24 : D-3 00 . ... : G-1 00 . ... : G-4 14 . ... : ... .. . ... : ... .. . ...
ROW 25 : ... .. . ... : ... .. . ... : ... .. . ... : ... .. . ... : ... .. . ...
ROW 26 : G-3 00 . ... : G-2 00 . ... : ... .. . ... : ... .. . ... : ... .. . ...
ROW 27 : ... .. . ... : ... .. . ... : ... .. . ... : ... .. . ... : ... .. . ...
ROW 28 : B-3 00 . ... : G-1 00 . ... : ... .. . ... : ... .. . ... : ... .. . ...
ROW 29 : ... .. . ... : ... .. . ... : ... .. . ... : ... .. . ... : ... .. . ...
ROW 2A : D-4 00 . ... : G-2 00 . ... : B-4 14 . ... : ... .. . ... : ... .. . ...
ROW 2B : ... .. . ... : ... .. . ... : ... .. . ... : ... .. . ... : ... .. . ...
ROW 2C : B-3 00 . ... : G-1 00 . ... : ... .. . ... : ... .. . ... : ... .. . ...
ROW 2D : ... .. . ... : ... .. . ... : ... .. . ... : ... .. . ... : ... .. . ...
ROW 2E : G-3 00 . ... : G-2 00 . ... : ... .. . ... : ... .. . ... : ... .. . ...
ROW 2F : ... .. . ... : ... .. . ... : ... .. . ... : ... .. . ... : ... .. . ...

PATTERN 0B
ROW 00 : C-3 00 . ... : C-2 00 . ... : C-5 14 . ... : ... .. . ... : ... .. . ...
ROW 01 : ... .. . ... : ... .. . ... : ... .. . ... : ... .. . ... : ... .. . ...
ROW 02 : E-3 00 . ... : C-3 00 . ... : ... .. . ... : ... .. . ... : ... .. . ...
ROW 03 : ... .. . ... : ... .. . ... : ... .. . ... : ... .. . ... : ... .. . ...
ROW 04 : G-3 00 . ... : C-2 00 . ... : C-5 14 . ... : ... .. . ... : ... .. . ...
ROW 05 : ... .. . ... : ... .. . ... : --- .. . ... : ... .. . ... : ... .. . ...
ROW 06 : C-4 00 . ... : C-3 00 . ... : D-5 14 . ... : ... .. . ... : ... .. . ...
ROW 07 : ... .. . ... : ... .. . ... : --- .. . ... : ... .. . ... : ... .. . ...
ROW 08 : G-3 00 . ... : C-2 00 . ... : E-5 14 . ... : ... .. . ... : ... .. . ...
ROW 09 : ... .. . ... : ... .. . ... : ... .. . ... : ... .. . ... : ... .. . ...
ROW 0A : E-3 00 . ... : C-3 00 . ... : ... .. . ... : ... .. . ... : ... .. . ...
ROW 0B : ... .. . ... : ... .. . ... : ... .. . ... : ... .. . ... : ... .. . ...
ROW 0C : C-3 00 . ... : A-1 00 . ... : A-5 14 . ... : ... .. . ... : ... .. . ...
ROW 0D : ... .. . ... : ... .. . ... : ... .. . ... : ... .. . ... : ... .. . ...
ROW 0E : E-3 00 . ... : A-2 00 . ... : ... .. . ... : ... .. . ... : ... .. . ...
ROW 0F : ... .. . ... : ... .. . ... : ... .. . ... : ... .. . ... : ... .. . ...
ROW 10 : A-3 00 . ... : A-1 00 . ... : ... .. . ... : ... .. . ... : ... .. . ...
ROW 11 : ... .. . ... : ... .. . ... : ... .. . ... : ... .. . ... : ... .. . ...
ROW 12 : C-4 00 . ... : A-2 00 . ... : ... .. . ... : ... .. . ... : ... .. . ...
ROW 13 : ... .. . ... : ... .. . ... : --- .. . ... : ... .. . ... : ... .. . ...
ROW 14 : A-3 00 . ... : A-1 00 . ... : G-5 14 . ... : ... .. . ... : ... .. . ...
ROW 15 : ... .. . ... : ... .. . ... : ... .. . ... : ... .. . ... : ... .. . ...
ROW 16 : E-3 00 . ... : A-2 00 . ... : ... .. . ... : ... .. . ... : ... .. . ...
ROW 17 : ... .. . ... : ... .. . ... : ... .. . ... : ... .. . ... : ... .. . ...
ROW 18 : C-3 00 . ... : F-1 00 . ... : F-5 14 . ... : ... .. . ... : ... .. . ...
ROW 19 : ... .. . ... : ... .. . ... : ... .. . ... : ... .. . ... : ... .. . ...
ROW 1A : F-3 00 . ... : F-2 00 . ... : ... .. . ... : ... .. . ... : ... .. . ...
ROW 1B : ... .. . ... : ... .. . ... : ... .. . ... : ... .. . ... : ... .. . ...
ROW 1C : A-3 00 . ... : F-1 00 . ... : E-5 14 . ... : ... .. . ... : ... .. . ...
ROW 1D : ... .. . ... : ... .. . ... : ... .. . ... : ... .. . ... : ... .. . ...
ROW 1E : C-4 00 . ... : F-2 00 . ... : ... .. . ... : ... .. . ... : ... .. . ...
ROW 1F : ... .. . ... : ... .. . ... : --- .. . ... : ... .. . ... : ... .. . ...
ROW 20 : A-3 00 . ... : F-1 00 . ... : A-5 14 . ... : ... .. . ... : ... .. . ...
ROW 21 : ... .. . ... : ... .. . ... : ... .. . ... : ... .. . ... : ... .. . ...
ROW 22 : F-3 00 . ... : F-2 00 . ... : ... .. . ... : ... .. . ... : ... .. . ...
ROW 23 : ... .. . ... : ... .. . ... : ... .. . ... : ... .. . ... : ... .. . ...
ROW 24 : D-3 00 . ... : G-1 00 . ... : G-5 14 . ... : ... .. . ... : ... .. . ...
ROW 25 : ... .. . ... : ... .. . ... : ... .. . ... : ... .. . ... : ... .. . ...
ROW 26 : G-3 00 . ... : G-2 00 . ... : ... .. . ... : ... .. . ... : ... .. . ...
ROW 27 : ... .. . ... : ... .. . ... : ... .. . ... : ... .. . ... : ... .. . ...
ROW 28 : B-3 00 . ... : G-1 00 . ... : A-5 14 . ... : ... .. . ... : ... .. . ...
ROW 29 : ... .. . ... : ... .. . ... : --- .. . ... : ... .. . ... : ... .. . ...
ROW 2A : D-4 00 . ... : G-2 00 . ... : B-5 14 . ... : ... .. . ... : ... .. . ...
ROW 2B : ... .. . ... : ... .. . ... : ... .. . ... : ... .. . ... : ... .. . ...
ROW 2C : B-3 00 . ... : G-1 00 . ... : ... .. . ... : ... .. . ... : ... .. . ...
ROW 2D : ... .. . ... : ... .. . ... : ... .. . ... : ... .. . ... : ... .. . ...
ROW 2E : G-3 00 . ... : G-2 00 . ... : ... .. . ... : ... .. . ... : ... .. . ...
ROW 2F : ... .. . ... : ... .. . ... : ... .. . ... : ... .. . ... : ... .. . ...

PATTERN 0C
ROW 00 : C-3 00 . ... : C-2 00 . ... : C-5 14 . ... : ... .. . ... : ... .. . ...
ROW 01 : ... .. . ... : ... .. . ... : ... .. . ... : ... .. . ... : ... .. . ...
ROW 02 : E-3 00 . ... : C-3 00 . ... : ... .. . ... : ... .. . ... : ... .. . ...
ROW 03 : ... .. . ... : ... .. . ... : ... .. . ... : ... .. . ... : ... .. . ...
ROW 04 : G-3 00 . ... : C-2 00 . ... : ... .. . ... : ... .. . ... : ... .. . ...
ROW 05 : ... .. . ... : ... .. . ... : ... .. . ... : ... .. . ... : ... .. . ...
ROW 06 : C-4 00 . ... : C-3 00 . ... : ... .. . ... : ... .. . ... : ... .. . ...
ROW 07 : ... .. . ... : ... .. . ... : ... .. . ... : ... .. . ... : ... .. . ...
ROW 08 : G-3 00 . ... : C-2 00 . ... : ... .. . ... : ... .. . ... : ... .. . ...
ROW 09 : ... .. . ... : ... .. . ... : ... .. . ... : ... .. . ... : ... .. . ...
ROW 0A : E-3 00 . ... : C-3 00 . ... : ... .. . ... : ... .. . ... : ... .. . ...
ROW 0B : ... .. . ... : ... .. . ... : ... .. . ... : ... .. . ... : ... .. . ...
ROW 0C : C-3 00 . ... : A-1 00 . ... : ... .. . ... : ... .. . ... : ... .. . ...
ROW 0D : ... .. . ... : ... .. . ... : ... .. . ... : ... .. . ... : ... .. . ...
ROW 0E : E-3 00 . ... : A-2 00 . ... : ... .. . ... : ... .. . ... : ... .. . ...
ROW 0F : ... .. . ... : ... .. . ... : ... .. . ... : ... .. . ... : ... .. . ...
ROW 10 : A-3 00 . ... : A-1 00 . ... : ... .. . ... : ... .. . ... : ... .. . ...
ROW 11 : ... .. . ... : ... .. . ... : ... .. . ... : ... .. . ... : ... .. . ...
ROW 12 : C-4 00 . ... : A-2 00 . ... : ... .. . ... : ... .. . ... : ... .. . ...
ROW 13 : ... .. . ... : ... .. . ... : ... .. . ... : ... .. . ... : ... .. . ...
ROW 14 : A-3 00 . ... : A-1 00 . ... : ... .. . ... : ... .. . ... : ... .. . ...
ROW 15 : ... .. . ... : ... .. . ... : ... .. . ... : ... .. . ... : ... .. . ...
ROW 16 : E-3 00 . ... : A-2 00 . ... : ... .. . ... : ... .. . ... : ... .. . ...
ROW 17 : ... .. . ... : ... .. . ... : ... .. . ... : ... .. . ... : ... .. . ...
ROW 18 : C-3 00 . ... : F-1 00 . ... : F-4 14 . ... : ... .. . ... : ... .. . ...
ROW 19 : ... .. . ... : ... .. . ... : ... .. . ... : ... .. . ... : ... .. . ...
ROW 1A : F-3 00 . ... : F-2 00 . ... : ... .. . ... : ... .. . ... : ... .. . ...
ROW 1B : ... .. . ... : ... .. . ... : ... .. . ... : ... .. . ... : ... .. . ...
ROW 1C : A-3 00 . ... : F-1 00 . ... : ... .. . ... : ... .. . ... : ... .. . ...
ROW 1D : ... .. . ... : ... .. . ... : --- .. . ... : ... .. . ... : ... .. . ...
ROW 1E : C-4 00 . ... : F-2 00 . ... : A-4 14 . ... : ... .. . ... : ... .. . ...
ROW 1F : ... .. . ... : ... .. . ... : ... .. . ... : ... .. . ... : ... .. . ...
ROW 20 : A-3 00 . ... : F-1 00 . ... : ... .. . ... : ... .. . ... : ... .. . ...
ROW 21 : ... .. . ... : ... .. . ... : ... .. . ... : ... .. . ... : ... .. . ...
ROW 22 : F-3 00 . ... : F-2 00 . ... : ... .. . ... : ... .. . ... : ... .. . ...
ROW 23 : ... .. . ... : ... .. . ... : --- .. . ... : ... .. . ... : ... .. . ...
ROW 24 : D-3 00 . ... : G-1 00 . ... : G-4 14 . ... : ... .. . ... : ... .. . ...
ROW 25 : ... .. . ... : ... .. . ... : ... .. . ... : ... .. . ... : ... .. . ...
ROW 26 : G-3 00 . ... : G-2 00 . ... : ... .. . ... : ... .. . ... : ... .. . ...
ROW 27 : ... .. . ... : ... .. . ... : ... .. . ... : ... .. . ... : ... .. . ...
ROW 28 : B-3 00 . ... : G-1 00 . ... : ... .. . ... : ... .. . ... : ... .. . ...
ROW 29 : ... .. . ... : ... .. . ... : --- .. . ... : ... .. . ... : ... .. . ...
ROW 2A : D-4 00 . ... : G-2 00 . ... : B-4 14 . ... : ... .. . ... : ... .. . ...
ROW 2B : ... .. . ... : ... .. . ... : ... .. . ... : ... .. . ... : ... .. . ...
ROW 2C : B-3 00 . ... : G-1 00 . ... : ... .. . ... : ... .. . ... : ... .. . ...
ROW 2D : ... .. . ... : ... .. . ... : ... .. . ... : ... .. . ... : ... .. . ...
ROW 2E : G-3 00 . ... : G-2 00 . ... : D-5 14 . ... : ... .. . ... : ... .. . ...
ROW 2F : ... .. . ... : ... .. . ... : --- .. . ... : ... .. . ... : ... .. . ...

PATTERN 0D
ROW 00 : C-3 00 . ... : C-2 00 . ... : C-6 14 . ... : ... .. . ... : ... .. . ...
ROW 01 : ... .. . ... : ... .. . ... : ... .. . ... : ... .. . ... : ... .. . ...
ROW 02 : E-3 00 . ... : C-3 00 . ... : ... .. . ... : ... .. . ... : ... .. . ...
ROW 03 : ... .. . ... : ... .. . ... : ... .. . ... : ... .. . ... : ... .. . ...
ROW 04 : G-3 00 . ... : C-2 00 . ... : ... .. . ... : ... .. . ... : ... .. . ...
ROW 05 : ... .. . ... : ... .. . ... : ... .. . ... : ... .. . ... : ... .. . ...
ROW 06 : C-4 00 . ... : C-3 00 . ... : ... .. . ... : ... .. . ... : ... .. . ...
ROW 07 : ... .. . ... : ... .. . ... : ... .. . ... : ... .. . ... : ... .. . ...
ROW 08 : G-3 00 . ... : C-2 00 . ... : ... .. . ... : ... .. . ... : ... .. . ...
ROW 09 : ... .. . ... : ... .. . ... : ... .. . ... : ... .. . ... : ... .. . ...
ROW 0A : E-3 00 . ... : C-3 00 . ... : ... .. . ... : ... .. . ... : ... .. . ...
ROW 0B : ... .. . ... : ... .. . ... : ... .. . ... : ... .. . ... : ... .. . ...
ROW 0C : C-3 00 . ... : A-1 00 . ... : ... .. . ... : ... .. . ... : ... .. . ...
ROW 0D : ... .. . ... : ... .. . ... : ... .. . ... : ... .. . ... : ... .. . ...
ROW 0E : E-3 00 . ... : A-2 00 . ... : ... .. . ... : ... .. . ... : ... .. . ...
ROW 0F : ... .. . ... : ... .. . ... : ... .. . ... : ... .. . ... : ... .. . ...
ROW 10 : A-3 00 . ... : A-1 00 . ... : ... .. . ... : ... .. . ... : ... .. . ...
ROW 11 : ... .. . ... : ... .. . ... : ... .. . ... : ... .. . ... : ... .. . ...
ROW 12 : C-4 00 . ... : A-2 00 . ... : ... .. . ... : ... .. . ... : ... .. . ...
ROW 13 : ... .. . ... : ... .. . ... : ... .. . ... : ... .. . ... : ... .. . ...
ROW 14 : A-3 00 . ... : A-1 00 . ... : ... .. . ... : ... .. . ... : ... .. . ...
ROW 15 : ... .. . ... : ... .. . ... : --- .. . ... : ... .. . ... : ... .. . ...
ROW 16 : E-3 00 . ... : A-2 00 . ... : G-5 14 . ... : ... .. . ... : ... .. . ...
ROW 17 : ... .. . ... : ... .. . ... : --- .. . ... : ... .. . ... : ... .. . ...
ROW 18 : C-3 00 . ... : F-1 00 . ... : F-5 14 . ... : ... .. . ... : ... .. . ...
ROW 19 : ... .. . ... : ... .. . ... : ... .. . ... : ... .. . ... : ... .. . ...
ROW 1A : F-3 00 . ... : F-2 00 . ... : ... .. . ... : ... .. . ... : ... .. . ...
ROW 1B : ... .. . ... : ... .. . ... : ... .. . ... : ... .. . ... : ... .. . ...
ROW 1C : A-3 00 . ... : F-1 00 . ... : ... .. . ... : ... .. . ... : ... .. . ...
ROW 1D : ... .. . ... : ... .. . ... : ... .. . ... : ... .. . ... : ... .. . ...
ROW 1E : C-4 00 . ... : F-2 00 . ... : C-5 14 . ... : ... .. . ... : ... .. . ...
ROW 1F : ... .. . ... : ... .. . ... : ... .. . ... : ... .. . ... : ... .. . ...
ROW 20 : A-3 00 . ... : F-1 00 . ... : ... .. . ... : ... .. . ... : ... .. . ...
ROW 21 : ... .. . ... : ... .. . ... : ... .. . ... : ... .. . ... : ... .. . ...
ROW 22 : F-3 00 . ... : F-2 00 . ... : ... .. . ... : ... .. . ... : ... .. . ...
ROW 23 : ... .. . ... : ... .. . ... : --- .. . ... : ... .. . ... : ... .. . ...
ROW 24 : D-3 00 . ... : G-1 00 . ... : G-4 14 . ... : ... .. . ... : ... .. . ...
ROW 25 : ... .. . ... : ... .. . ... : ... .. . ... : ... .. . ... : ... .. . ...
ROW 26 : G-3 00 . ... : G-2 00 . ... : ... .. . ... : ... .. . ... : ... .. . ...
ROW 27 : ... .. . ... : ... .. . ... : ... .. . ... : ... .. . ... : ... .. . ...
ROW 28 : B-3 00 . ... : G-1 00 . ... : A-4 14 . ... : ... .. . ... : ... .. . ...
ROW 29 : ... .. . ... : ... .. . ... : --- .. . ... : ... .. . ... : ... .. . ...
ROW 2A : D-4 00 . ... : G-2 00 . ... : B-4 14 . ... : ... .. . ... : ... .. . ...
ROW 2B : ... .. . ... : ... .. . ... : ... .. . ... : ... .. . ... : ... .. . ...
ROW 2C : B-3 00 . ... : G-1 00 . ... : ... .. . ... : ... .. . ... : ... .. . ...
ROW 2D : ... .. . ... : ... .. . ... : ... .. . ... : ... .. . ... : ... .. . ...
ROW 2E : G-3 00 . ... : G-2 00 . ... : ... .. . ... : ... .. . ... : ... .. . ...
ROW 2F : ... .. . ... : ... .. . ... : --- .. . ... : ... .. . ... : ... .. . ...

PATTERN 0E
ROW 00 : C-3 00 . ... : C-2 00 . ... : C-5 14 . ... : ... .. . ... : ... .. . ...
ROW 01 : ... .. . ... : ... .. . ... : ... .. . ... : ... .. . ... : ... .. . ...
ROW 02 : E-3 00 . ... : C-3 00 . ... : ... .. . ... : ... .. . ... : ... .. . ...
ROW 03 : ... .. . ... : ... .. . ... : ... .. . ... : ... .. . ... : ... .. . ...
ROW 04 : G-3 00 . ... : C-2 00 . ... : ... .. . ... : ... .. . ... : ... .. . ...
ROW 05 : ... .. . ... : ... .. . ... : ... .. . ... : ... .. . ... : ... .. . ...
ROW 06 : C-4 00 . ... : C-3 00 . ... : C-5 14 . ... : ... .. . ... : ... .. . ...
ROW 07 : ... .. . ... : ... .. . ... : ... .. . ... : ... .. . ... : ... .. . ...
ROW 08 : G-3 00 . ... : C-2 00 . ... : D-5 14 . ... : ... .. . ... : ... .. . ...
ROW 09 : ... .. . ... : ... .. . ... : ... .. . ... : ... .. . ... : ... .. . ...
ROW 0A : E-3 00 . ... : C-3 00 . ... : E-5 14 . ... : ... .. . ... : ... .. . ...
ROW 0B : ... .. . ... : ... .. . ... : --- .. . ... : ... .. . ... : ... .. . ...
ROW 0C : C-3 00 . ... : F-1 00 . ... : F-5 14 . ... : ... .. . ... : ... .. . ...
ROW 0D : ... .. . ... : ... .. . ... : ... .. . ... : ... .. . ... : ... .. . ...
ROW 0E : F-3 00 . ... : F-2 00 . ... : ... .. . ... : ... .. . ... : ... .. . ...
ROW 0F : ... .. . ... : ... .. . ... : ... .. . ... : ... .. . ... : ... .. . ...
ROW 10 : A-3 00 . ... : F-1 00 . ... : ... .. . ... : ... .. . ... : ... .. . ...
ROW 11 : ... .. . ... : ... .. . ... : ... .. . ... : ... .. . ... : ... .. . ...
ROW 12 : C-4 00 . ... : F-2 00 . ... : F-4 14 . ... : ... .. . ... : ... .. . ...
ROW 13 : ... .. . ... : ... .. . ... : ... .. . ... : ... .. . ... : ... .. . ...
ROW 14 : A-3 00 . ... : F-1 00 . ... : ... .. . ... : ... .. . ... : ... .. . ...
ROW 15 : ... .. . ... : ... .. . ... : ... .. . ... : ... .. . ... : ... .. . ...
ROW 16 : F-3 00 . ... : F-2 00 . ... : G-5 14 . ... : ... .. . ... : ... .. . ...
ROW 17 : ... .. . ... : ... .. . ... : --- .. . ... : ... .. . ... : ... .. . ...
ROW 18 : C-3 00 . ... : A-1 00 . ... : A-5 14 . ... : ... .. . ... : ... .. . ...
ROW 19 : ... .. . ... : ... .. . ... : ... .. . ... : ... .. . ... : ... .. . ...
ROW 1A : E-3 00 . ... : A-2 00 . ... : --- .. . ... : ... .. . ... : ... .. . ...
ROW 1B : ... .. . ... : ... .. . ... : F-5 14 . ... : ... .. . ... : ... .. . ...
ROW 1C : A-3 00 . ... : A-1 00 . ... : D-5 14 . ... : ... .. . ... : ... .. . ...
ROW 1D : ... .. . ... : ... .. . ... : ... .. . ... : ... .. . ... : ... .. . ...
ROW 1E : C-4 00 . ... : A-2 00 . ... : C-5 14 . ... : ... .. . ... : ... .. . ...
ROW 1F : ... .. . ... : ... .. . ... : ... .. . ... : ... .. . ... : ... .. . ...
ROW 20 : A-3 00 . ... : A-1 00 . ... : E-5 14 . ... : ... .. . ... : ... .. . ...
ROW 21 : ... .. . ... : ... .. . ... : ... .. . ... : ... .. . ... : ... .. . ...
ROW 22 : E-3 00 . ... : A-2 00 . ... : F-5 14 . ... : ... .. . ... : ... .. . ...
ROW 23 : ... .. . ... : ... .. . ... : ... .. . ... : ... .. . ... : ... .. . ...
ROW 24 : D-3 00 . ... : G-1 00 . ... : G-5 14 . ... : ... .. . ... : ... .. . ...
ROW 25 : ... .. . ... : ... .. . ... : ... .. . ... : ... .. . ... : ... .. . ...
ROW 26 : G-3 00 . ... : G-2 00 . ... : ... .. . ... : ... .. . ... : ... .. . ...
ROW 27 : ... .. . ... : ... .. . ... : ... .. . ... : ... .. . ... : ... .. . ...
ROW 28 : B-3 00 . ... : G-1 00 . ... : ... .. . ... : ... .. . ... : ... .. . ...
ROW 29 : ... .. . ... : ... .. . ... : ... .. . ... : ... .. . ... : ... .. . ...
ROW 2A : D-4 00 . ... : G-2 00 . ... : ... .. . ... : ... .. . ... : ... .. . ...
ROW 2B : ... .. . ... : ... .. . ... : ... .. . ... : ... .. . ... : ... .. . ...
ROW 2C : B-3 00 . ... : G-1 00 . ... : ... .. . ... : ... .. . ... : ... .. . ...
ROW 2D : ... .. . ... : ... .. . ... : ... .. . ... : ... .. . ... : ... .. . ...
ROW 2E : G-3 00 . ... : G-2 00 . ... : B-4 14 . ... : ... .. . ... : ... .. . ...
ROW 2F : ... .. . ... : ... .. . ... : ... .. . ... : ... .. . ... : ... .. . ...

PATTERN 0F
ROW 00 : C-3 00 . ... : C-2 00 . ... : C-6 14 . ... : ... .. . ... : ... .. . ...
ROW 01 : ... .. . ... : ... .. . ... : ... .. . ... : ... .. . ... : ... .. . ...
ROW 02 : E-3 00 . ... : C-3 00 . ... : ... .. . ... : ... .. . ... : ... .. . ...
ROW 03 : ... .. . ... : ... .. . ... : ... .. . ... : ... .. . ... : ... .. . ...
ROW 04 : G-3 00 . ... : C-2 00 . ... : ... .. . ... : ... .. . ... : ... .. . ...
ROW 05 : ... .. . ... : ... .. . ... : ... .. . ... : ... .. . ... : ... .. . ...
ROW 06 : C-4 00 . ... : C-3 00 . ... : C-7 14 . ... : ... .. . ... : ... .. . ...
ROW 07 : ... .. . ... : ... .. . ... : ... .. . ... : ... .. . ... : ... .. . ...
ROW 08 : G-3 00 . ... : C-2 00 . ... : D-7 14 . ... : ... .. . ... : ... .. . ...
ROW 09 : ... .. . ... : ... .. . ... : ... .. . ... : ... .. . ... : ... .. . ...
ROW 0A : E-3 00 . ... : C-3 00 . ... : B-6 14 . ... : ... .. . ... : ... .. . ...
ROW 0B : ... .. . ... : ... .. . ... : --- .. . ... : ... .. . ... : ... .. . ...
ROW 0C : C-3 00 . ... : A-1 00 . ... : A-6 14 . ... : ... .. . ... : ... .. . ...
ROW 0D : ... .. . ... : ... .. . ... : ... .. . ... : ... .. . ... : ... .. . ...
ROW 0E : E-3 00 . ... : A-2 00 . ... : ... .. . ... : ... .. . ... : ... .. . ...
ROW 0F : ... .. . ... : ... .. . ... : ... .. . ... : ... .. . ... : ... .. . ...
ROW 10 : A-3 00 . ... : A-1 00 . ... : ... .. . ... : ... .. . ... : ... .. . ...
ROW 11 : ... .. . ... : ... .. . ... : ... .. . ... : ... .. . ... : ... .. . ...
ROW 12 : C-4 00 . ... : A-2 00 . ... : A-5 14 . ... : ... .. . ... : ... .. . ...
ROW 13 : ... .. . ... : ... .. . ... : ... .. . ... : ... .. . ... : ... .. . ...
ROW 14 : A-3 00 . ... : A-1 00 . ... : ... .. . ... : ... .. . ... : ... .. . ...
ROW 15 : ... .. . ... : ... .. . ... : ... .. . ... : ... .. . ... : ... .. . ...
ROW 16 : E-3 00 . ... : A-2 00 . ... : ... .. . ... : ... .. . ... : ... .. . ...
ROW 17 : ... .. . ... : ... .. . ... : ... .. . ... : ... .. . ... : ... .. . ...
ROW 18 : C-3 00 . ... : F-1 00 . ... : F-6 14 . ... : ... .. . ... : ... .. . ...
ROW 19 : ... .. . ... : ... .. . ... : ... .. . ... : ... .. . ... : ... .. . ...
ROW 1A : F-3 00 . ... : F-2 00 . ... : --- .. . ... : ... .. . ... : ... .. . ...
ROW 1B : ... .. . ... : ... .. . ... : F-6 14 . ... : ... .. . ... : ... .. . ...
ROW 1C : A-3 00 . ... : F-1 00 . ... : D-6 14 . ... : ... .. . ... : ... .. . ...
ROW 1D : ... .. . ... : ... .. . ... : ... .. . ... : ... .. . ... : ... .. . ...
ROW 1E : C-4 00 . ... : F-2 00 . ... : C-6 14 . ... : ... .. . ... : ... .. . ...
ROW 1F : ... .. . ... : ... .. . ... : ... .. . ... : ... .. . ... : ... .. . ...
ROW 20 : A-3 00 . ... : F-1 00 . ... : E-6 14 . ... : ... .. . ... : ... .. . ...
ROW 21 : ... .. . ... : ... .. . ... : ... .. . ... : ... .. . ... : ... .. . ...
ROW 22 : F-3 00 . ... : F-2 00 . ... : F-6 14 . ... : ... .. . ... : ... .. . ...
ROW 23 : ... .. . ... : ... .. . ... : ... .. . ... : ... .. . ... : ... .. . ...
ROW 24 : D-3 00 . ... : G-1 00 . ... : G-6 14 . ... : ... .. . ... : ... .. . ...
ROW 25 : ... .. . ... : ... .. . ... : ... .. . ... : ... .. . ... : ... .. . ...
ROW 26 : G-3 00 . ... : G-2 00 . ... : ... .. . ... : ... .. . ... : ... .. . ...
ROW 27 : ... .. . ... : ... .. . ... : ... .. . ... : ... .. . ... : ... .. . ...
ROW 28 : B-3 00 . ... : G-1 00 . ... : ... .. . ... : ... .. . ... : ... .. . ...
ROW 29 : ... .. . ... : ... .. . ... : ... .. . ... : ... .. . ... : ... .. . ...
ROW 2A : D-4 00 . ... : G-2 00 . ... : ... .. . ... : ... .. . ... : ... .. . ...
ROW 2B : ... .. . ... : ... .. . ... : ... .. . ... : ... .. . ... : ... .. . ...
ROW 2C : B-3 00 . ... : G-1 00 . ... : ... .. . ... : ... .. . ... : ... .. . ...
ROW 2D : ... .. . ... : ... .. . ... : ... .. . ... : ... .. . ... : ... .. . ...
ROW 2E : G-3 00 . ... : G-2 00 . ... : B-4 14 . ... : ... .. . ... : ... .. . ...
ROW 2F : ... .. . ... : ... .. . ... : ... .. . ... : ... .. . ... : ... .. . ...

PATTERN 10
ROW 00 : C-3 00 . ... : C-2 00 . ... : C-5 14 . ... : ... .. . ... : ... .. . ...
ROW 01 : ... .. . ... : ... .. . ... : ... .. . ... : ... .. . ... : ... .. . ...
ROW 02 : E-3 00 . ... : C-3 00 . ... : ... .. . ... : ... .. . ... : ... .. . ...
ROW 03 : ... .. . ... : ... .. . ... : ... .. . ... : ... .. . ... : ... .. . ...
ROW 04 : G-3 00 . ... : C-2 00 . ... : ... .. . ... : ... .. . ... : ... .. . ...
ROW 05 : ... .. . ... : ... .. . ... : ... .. . ... : ... .. . ... : ... .. . ...
ROW 06 : C-4 00 . ... : C-3 00 . ... : ... .. . ... : ... .. . ... : ... .. . ...
ROW 07 : ... .. . ... : ... .. . ... : ... .. . ... : ... .. . ... : ... .. . ...
ROW 08 : G-3 00 . ... : C-2 00 . ... : ... .. . ... : ... .. . ... : ... .. . ...
ROW 09 : ... .. . ... : ... .. . ... : ... .. . ... : ... .. . ... : ... .. . ...
ROW 0A : E-3 00 . ... : C-3 00 . ... : ... .. . ... : ... .. . ... : ... .. . ...
ROW 0B : ... .. . ... : ... .. . ... : ... .. . ... : ... .. . ... : ... .. . ...
ROW 0C : C-3 00 . ... : A-1 00 . ... : A-5 14 . ... : ... .. . ... : ... .. . ...
ROW 0D : ... .. . ... : ... .. . ... : ... .. . ... : ... .. . ... : ... .. . ...
ROW 0E : E-3 00 . ... : A-2 00 . ... : ... .. . ... : ... .. . ... : ... .. . ...
ROW 0F : ... .. . ... : ... .. . ... : ... .. . ... : ... .. . ... : ... .. . ...
ROW 10 : A-3 00 . ... : A-1 00 . ... : ... .. . ... : ... .. . ... : ... .. . ...
ROW 11 : ... .. . ... : ... .. . ... : ... .. . ... : ... .. . ... : ... .. . ...
ROW 12 : C-4 00 . ... : A-2 00 . ... : A-4 14 . ... : ... .. . ... : ... .. . ...
ROW 13 : ... .. . ... : ... .. . ... : ... .. . ... : ... .. . ... : ... .. . ...
ROW 14 : A-3 00 . ... : A-1 00 . ... : ... .. . ... : ... .. . ... : ... .. . ...
ROW 15 : ... .. . ... : ... .. . ... : ... .. . ... : ... .. . ... : ... .. . ...
ROW 16 : E-3 00 . ... : A-2 00 . ... : ... .. . ... : ... .. . ... : ... .. . ...
ROW 17 : ... .. . ... : ... .. . ... : ... .. . ... : ... .. . ... : ... .. . ...
ROW 18 : C-3 00 . ... : F-1 00 . ... : F-5 14 . ... : ... .. . ... : ... .. . ...
ROW 19 : ... .. . ... : ... .. . ... : ... .. . ... : ... .. . ... : ... .. . ...
ROW 1A : F-3 00 . ... : F-2 00 . ... : --- .. . ... : ... .. . ... : ... .. . ...
ROW 1B : ... .. . ... : ... .. . ... : F-5 14 . ... : ... .. . ... : ... .. . ...
ROW 1C : A-3 00 . ... : F-1 00 . ... : D-5 14 . ... : ... .. . ... : ... .. . ...
ROW 1D : ... .. . ... : ... .. . ... : ... .. . ... : ... .. . ... : ... .. . ...
ROW 1E : C-4 00 . ... : F-2 00 . ... : C-5 14 . ... : ... .. . ... : ... .. . ...
ROW 1F : ... .. . ... : ... .. . ... : ... .. . ... : ... .. . ... : ... .. . ...
ROW 20 : A-3 00 . ... : F-1 00 . ... : E-5 14 . ... : ... .. . ... : ... .. . ...
ROW 21 : ... .. . ... : ... .. . ... : ... .. . ... : ... .. . ... : ... .. . ...
ROW 22 : F-3 00 . ... : F-2 00 . ... : F-5 14 . ... : ... .. . ... : ... .. . ...
ROW 23 : ... .. . ... : ... .. . ... : ... .. . ... : ... .. . ... : ... .. . ...
ROW 24 : D-3 00 . ... : G-1 00 . ... : G-5 14 . ... : ... .. . ... : ... .. . ...
ROW 25 : ... .. . ... : ... .. . ... : ... .. . ... : ... .. . ... : ... .. . ...
ROW 26 : G-3 00 . ... : G-2 00 . ... : ... .. . ... : ... .. . ... : ... .. . ...
ROW 27 : ... .. . ... : ... .. . ... : ... .. . ... : ... .. . ... : ... .. . ...
ROW 28 : B-3 00 . ... : G-1 00 . ... : ... .. . ... : ... .. . ... : ... .. . ...
ROW 29 : ... .. . ... : ... .. . ... : ... .. . ... : ... .. . ... : ... .. . ...
ROW 2A : D-4 00 . ... : G-2 00 . ... : B-5 14 . ... : ... .. . ... : ... .. . ...
ROW 2B : ... .. . ... : ... .. . ... : ... .. . ... : ... .. . ... : ... .. . ...
ROW 2C : B-3 00 . ... : G-1 00 . ... : ... .. . ... : ... .. . ... : ... .. . ...
ROW 2D : ... .. . ... : ... .. . ... : ... .. . ... : ... .. . ... : ... .. . ...
ROW 2E : G-3 00 . ... : G-2 00 . ... : ... .. . ... : ... .. . ... : ... .. . ...
ROW 2F : ... .. . ... : ... .. . ... : ... .. . ... : ... .. . ... : ... .. . ...

PATTERN 11
ROW 00 : C-3 00 . ... : C-2 00 . ... : C-5 14 . ... : ... .. . ... : ... .. . ...
ROW 01 : ... .. . ... : ... .. . ... : ... .. . ... : ... .. . ... : ... .. . ...
ROW 02 : E-3 00 . ... : C-3 00 . ... : ... .. . ... : ... .. . ... : ... .. . ...
ROW 03 : ... .. . ... : ... .. . ... : ... .. . ... : ... .. . ... : ... .. . ...
ROW 04 : G-3 00 . ... : C-2 00 . ... : ... .. . ... : ... .. . ... : ... .. . ...
ROW 05 : ... .. . ... : ... .. . ... : ... .. . ... : ... .. . ... : ... .. . ...
ROW 06 : C-4 00 . ... : C-3 00 . ... : D-5 14 . ... : ... .. . ... : ... .. . ...
ROW 07 : ... .. . ... : ... .. . ... : ... .. . ... : ... .. . ... : ... .. . ...
ROW 08 : G-3 00 . ... : C-2 00 . ... : E-5 14 . ... : ... .. . ... : ... .. . ...
ROW 09 : ... .. . ... : ... .. . ... : ... .. . ... : ... .. . ... : ... .. . ...
ROW 0A : E-3 00 . ... : C-3 00 . ... : F-5 14 . ... : ... .. . ... : ... .. . ...
ROW 0B : ... .. . ... : ... .. . ... : ... .. . ... : ... .. . ... : ... .. . ...
ROW 0C : C-3 00 . ... : A-1 00 . ... : A-5 14 . ... : ... .. . ... : ... .. . ...
ROW 0D : ... .. . ... : ... .. . ... : ... .. . ... : ... .. . ... : ... .. . ...
ROW 0E : E-3 00 . ... : A-2 00 . ... : ... .. . ... : ... .. . ... : ... .. . ...
ROW 0F : ... .. . ... : ... .. . ... : ... .. . ... : ... .. . ... : ... .. . ...
ROW 10 : A-3 00 . ... : A-1 00 . ... : ... .. . ... : ... .. . ... : ... .. . ...
ROW 11 : ... .. . ... : ... .. . ... : ... .. . ... : ... .. . ... : ... .. . ...
ROW 12 : C-4 00 . ... : A-2 00 . ... : A-4 14 . ... : ... .. . ... : ... .. . ...
ROW 13 : ... .. . ... : ... .. . ... : ... .. . ... : ... .. . ... : ... .. . ...
ROW 14 : A-3 00 . ... : A-1 00 . ... : ... .. . ... : ... .. . ... : ... .. . ...
ROW 15 : ... .. . ... : ... .. . ... : ... .. . ... : ... .. . ... : ... .. . ...
ROW 16 : E-3 00 . ... : A-2 00 . ... : ... .. . ... : ... .. . ... : ... .. . ...
ROW 17 : ... .. . ... : ... .. . ... : ... .. . ... : ... .. . ... : ... .. . ...
ROW 18 : C-3 00 . ... : F-1 00 . ... : F-5 14 . ... : ... .. . ... : ... .. . ...
ROW 19 : ... .. . ... : ... .. . ... : ... .. . ... : ... .. . ... : ... .. . ...
ROW 1A : F-3 00 . ... : F-2 00 . ... : --- .. . ... : ... .. . ... : ... .. . ...
ROW 1B : ... .. . ... : ... .. . ... : F-5 14 . ... : ... .. . ... : ... .. . ...
ROW 1C : A-3 00 . ... : F-1 00 . ... : D-5 14 . ... : ... .. . ... : ... .. . ...
ROW 1D : ... .. . ... : ... .. . ... : ... .. . ... : ... .. . ... : ... .. . ...
ROW 1E : C-4 00 . ... : F-2 00 . ... : C-5 14 . ... : ... .. . ... : ... .. . ...
ROW 1F : ... .. . ... : ... .. . ... : ... .. . ... : ... .. . ... : ... .. . ...
ROW 20 : A-3 00 . ... : F-1 00 . ... : E-5 14 . ... : ... .. . ... : ... .. . ...
ROW 21 : ... .. . ... : ... .. . ... : ... .. . ... : ... .. . ... : ... .. . ...
ROW 22 : F-3 00 . ... : F-2 00 . ... : F-5 14 . ... : ... .. . ... : ... .. . ...
ROW 23 : ... .. . ... : ... .. . ... : ... .. . ... : ... .. . ... : ... .. . ...
ROW 24 : D-3 00 . ... : G-1 00 . ... : G-5 14 . ... : ... .. . ... : ... .. . ...
ROW 25 : ... .. . ... : ... .. . ... : ... .. . ... : ... .. . ... : ... .. . ...
ROW 26 : G-3 00 . ... : G-2 00 . ... : ... .. . ... : ... .. . ... : ... .. . ...
ROW 27 : ... .. . ... : ... .. . ... : ... .. . ... : ... .. . ... : ... .. . ...
ROW 28 : B-3 00 . ... : G-1 00 . ... : ... .. . ... : ... .. . ... : ... .. . ...
ROW 29 : ... .. . ... : ... .. . ... : ... .. . ... : ... .. . ... : ... .. . ...
ROW 2A : D-4 00 . ... : G-2 00 . ... : B-5 14 . ... : ... .. . ... : ... .. . ...
ROW 2B : ... .. . ... : ... .. . ... : ... .. . ... : ... .. . ... : ... .. . ...
ROW 2C : B-3 00 . ... : G-1 00 . ... : ... .. . ... : ... .. . ... : ... .. . ...
ROW 2D : ... .. . ... : ... .. . ... : ... .. . ... : ... .. . ... : ... .. . ...
ROW 2E : G-3 00 . ... : G-2 00 . ... : ... .. . ... : ... .. . ... : ... .. . ...
ROW 2F : ... .. . ... : ... .. . ... : ... .. . ... : ... .. . ... : ... .. . ...

PATTERN 12
ROW 00 : C-3 00 . ... : C-2 00 . ... : C-5 14 . ... : ... .. . ... : ... .. . ...
ROW 01 : ... .. . ... : ... .. . ... : ... .. . ... : ... .. . ... : ... .. . ...
ROW 02 : E-3 00 . ... : C-3 00 . ... : ... .. . ... : ... .. . ... : ... .. . ...
ROW 03 : ... .. . ... : ... .. . ... : ... .. . ... : ... .. . ... : ... .. . ...
ROW 04 : G-3 00 . ... : C-2 00 . ... : ... .. . ... : ... .. . ... : ... .. . ...
ROW 05 : ... .. . ... : ... .. . ... : --- .. . ... : ... .. . ... : ... .. . ...
ROW 06 : C-4 00 . ... : C-3 00 . ... : C-5 14 . ... : ... .. . ... : ... .. . ...
ROW 07 : ... .. . ... : ... .. . ... : ... .. . ... : ... .. . ... : ... .. . ...
ROW 08 : G-3 00 . ... : C-2 00 . ... : ... .. . ... : ... .. . ... : ... .. . ...
ROW 09 : ... .. . ... : ... .. . ... : ... .. . ... : ... .. . ... : ... .. . ...
ROW 0A : E-3 00 . ... : C-3 00 . ... : G-5 14 . ... : ... .. . ... : ... .. . ...
ROW 0B : ... .. . ... : ... .. . ... : --- .. . ... : ... .. . ... : ... .. . ...
ROW 0C : C-3 00 . ... : F-1 00 . ... : F-5 14 . ... : ... .. . ... : ... .. . ...
ROW 0D : ... .. . ... : ... .. . ... : ... .. . ... : ... .. . ... : ... .. . ...
ROW 0E : F-3 00 . ... : F-2 00 . ... : ... .. . ... : ... .. . ... : ... .. . ...
ROW 0F : ... .. . ... : ... .. . ... : ... .. . ... : ... .. . ... : ... .. . ...
ROW 10 : A-3 00 . ... : F-1 00 . ... : ... .. . ... : ... .. . ... : ... .. . ...
ROW 11 : ... .. . ... : ... .. . ... : --- .. . ... : ... .. . ... : ... .. . ...
ROW 12 : C-4 00 . ... : F-2 00 . ... : F-5 14 . ... : ... .. . ... : ... .. . ...
ROW 13 : ... .. . ... : ... .. . ... : ... .. . ... : ... .. . ... : ... .. . ...
ROW 14 : A-3 00 . ... : F-1 00 . ... : ... .. . ... : ... .. . ... : ... .. . ...
ROW 15 : ... .. . ... : ... .. . ... : ... .. . ... : ... .. . ... : ... .. . ...
ROW 16 : F-3 00 . ... : F-2 00 . ... : G-5 14 . ... : ... .. . ... : ... .. . ...
ROW 17 : ... .. . ... : ... .. . ... : --- .. . ... : ... .. . ... : ... .. . ...
ROW 18 : C-3 00 . ... : A-1 00 . ... : A-5 14 . ... : ... .. . ... : ... .. . ...
ROW 19 : ... .. . ... : ... .. . ... : ... .. . ... : ... .. . ... : ... .. . ...
ROW 1A : E-3 00 . ... : A-2 00 . ... : --- .. . ... : ... .. . ... : ... .. . ...
ROW 1B : ... .. . ... : ... .. . ... : F-5 14 . ... : ... .. . ... : ... .. . ...
ROW 1C : A-3 00 . ... : A-1 00 . ... : D-5 14 . ... : ... .. . ... : ... .. . ...
ROW 1D : ... .. . ... : ... .. . ... : ... .. . ... : ... .. . ... : ... .. . ...
ROW 1E : C-4 00 . ... : A-2 00 . ... : C-5 14 . ... : ... .. . ... : ... .. . ...
ROW 1F : ... .. . ... : ... .. . ... : ... .. . ... : ... .. . ... : ... .. . ...
ROW 20 : A-3 00 . ... : A-1 00 . ... : E-5 14 . ... : ... .. . ... : ... .. . ...
ROW 21 : ... .. . ... : ... .. . ... : ... .. . ... : ... .. . ... : ... .. . ...
ROW 22 : E-3 00 . ... : A-2 00 . ... : F-5 14 . ... : ... .. . ... : ... .. . ...
ROW 23 : ... .. . ... : ... .. . ... : ... .. . ... : ... .. . ... : ... .. . ...
ROW 24 : D-3 00 . ... : G-1 00 . ... : G-5 14 . ... : ... .. . ... : ... .. . ...
ROW 25 : ... .. . ... : ... .. . ... : ... .. . ... : ... .. . ... : ... .. . ...
ROW 26 : G-3 00 . ... : G-2 00 . ... : ... .. . ... : ... .. . ... : ... .. . ...
ROW 27 : ... .. . ... : ... .. . ... : ... .. . ... : ... .. . ... : ... .. . ...
ROW 28 : B-3 00 . ... : G-1 00 . ... : ... .. . ... : ... .. . ... : ... .. . ...
ROW 29 : ... .. . ... : ... .. . ... : ... .. . ... : ... .. . ... : ... .. . ...
ROW 2A : D-4 00 . ... : G-2 00 . ... : ... .. . ... : ... .. . ... : ... .. . ...
ROW 2B : ... .. . ... : ... .. . ... : ... .. . ... : ... .. . ... : ... .. . ...
ROW 2C : B-3 00 . ... : G-1 00 . ... : ... .. . ... : ... .. . ... : ... .. . ...
ROW 2D : ... .. . ... : ... .. . ... : --- .. . ... : ... .. . ... : ... .. . ...
ROW 2E : G-3 00 . ... : G-2 00 . ... : D-5 14 . ... : ... .. . ... : ... .. . ...
ROW 2F : ... .. . ... : ... .. . ... : ... .. . ... : ... .. . ... : ... .. . ...

PATTERN 13
ROW 00 : C-3 00 . ... : C-2 00 . ... : C-5 14 . ... : ... .. . ... : ... .. . ...
ROW 01 : ... .. . ... : ... .. . ... : ... .. . ... : ... .. . ... : ... .. . ...
ROW 02 : E-3 00 . ... : C-3 00 . ... : ... .. . ... : ... .. . ... : ... .. . ...
ROW 03 : ... .. . ... : ... .. . ... : ... .. . ... : ... .. . ... : ... .. . ...
ROW 04 : G-3 00 . ... : C-2 00 . ... : ... .. . ... : ... .. . ... : ... .. . ...
ROW 05 : ... .. . ... : ... .. . ... : --- .. . ... : ... .. . ... : ... .. . ...
ROW 06 : C-4 00 . ... : C-3 00 . ... : C-5 14 . ... : ... .. . ... : ... .. . ...
ROW 07 : ... .. . ... : ... .. . ... : ... .. . ... : ... .. . ... : ... .. . ...
ROW 08 : G-3 00 . ... : C-2 00 . ... : ... .. . ... : ... .. . ... : ... .. . ...
ROW 09 : ... .. . ... : ... .. . ... : ... .. . ... : ... .. . ... : ... .. . ...
ROW 0A : E-3 00 . ... : C-3 00 . ... : G-5 14 . ... : ... .. . ... : ... .. . ...
ROW 0B : ... .. . ... : ... .. . ... : --- .. . ... : ... .. . ... : ... .. . ...
ROW 0C : C-3 00 . ... : A-1 00 . ... : A-5 14 . ... : ... .. . ... : ... .. . ...
ROW 0D : ... .. . ... : ... .. . ... : ... .. . ... : ... .. . ... : ... .. . ...
ROW 0E : E-3 00 . ... : A-2 00 . ... : ... .. . ... : ... .. . ... : ... .. . ...
ROW 0F : ... .. . ... : ... .. . ... : ... .. . ... : ... .. . ... : ... .. . ...
ROW 10 : A-3 00 . ... : A-1 00 . ... : ... .. . ... : ... .. . ... : ... .. . ...
ROW 11 : ... .. . ... : ... .. . ... : --- .. . ... : ... .. . ... : ... .. . ...
ROW 12 : C-4 00 . ... : A-2 00 . ... : A-4 14 . ... : ... .. . ... : ... .. . ...
ROW 13 : ... .. . ... : ... .. . ... : ... .. . ... : ... .. . ... : ... .. . ...
ROW 14 : A-3 00 . ... : A-1 00 . ... : ... .. . ... : ... .. . ... : ... .. . ...
ROW 15 : ... .. . ... : ... .. . ... : ... .. . ... : ... .. . ... : ... .. . ...
ROW 16 : E-3 00 . ... : A-2 00 . ... : ... .. . ... : ... .. . ... : ... .. . ...
ROW 17 : ... .. . ... : ... .. . ... : ... .. . ... : ... .. . ... : ... .. . ...
ROW 18 : C-3 00 . ... : F-1 00 . ... : F-5 14 . ... : ... .. . ... : ... .. . ...
ROW 19 : ... .. . ... : ... .. . ... : ... .. . ... : ... .. . ... : ... .. . ...
ROW 1A : F-3 00 . ... : F-2 00 . ... : --- .. . ... : ... .. . ... : ... .. . ...
ROW 1B : ... .. . ... : ... .. . ... : F-5 14 . ... : ... .. . ... : ... .. . ...
ROW 1C : A-3 00 . ... : F-1 00 . ... : D-5 14 . ... : ... .. . ... : ... .. . ...
ROW 1D : ... .. . ... : ... .. . ... : ... .. . ... : ... .. . ... : ... .. . ...
ROW 1E : C-4 00 . ... : F-2 00 . ... : C-5 14 . ... : ... .. . ... : ... .. . ...
ROW 1F : ... .. . ... : ... .. . ... : ... .. . ... : ... .. . ... : ... .. . ...
ROW 20 : A-3 00 . ... : F-1 00 . ... : E-5 14 . ... : ... .. . ... : ... .. . ...
ROW 21 : ... .. . ... : ... .. . ... : ... .. . ... : ... .. . ... : ... .. . ...
ROW 22 : F-3 00 . ... : F-2 00 . ... : F-5 14 . ... : ... .. . ... : ... .. . ...
ROW 23 : ... .. . ... : ... .. . ... : ... .. . ... : ... .. . ... : ... .. . ...
ROW 24 : D-3 00 . ... : G-1 00 . ... : G-5 14 . ... : ... .. . ... : ... .. . ...
ROW 25 : ... .. . ... : ... .. . ... : ... .. . ... : ... .. . ... : ... .. . ...
ROW 26 : G-3 00 . ... : G-2 00 . ... : ... .. . ... : ... .. . ... : ... .. . ...
ROW 27 : ... .. . ... : ... .. . ... : ... .. . ... : ... .. . ... : ... .. . ...
ROW 28 : B-3 00 . ... : G-1 00 . ... : ... .. . ... : ... .. . ... : ... .. . ...
ROW 29 : ... .. . ... : ... .. . ... : ... .. . ... : ... .. . ... : ... .. . ...
ROW 2A : D-4 00 . ... : G-2 00 . ... : B-5 14 . ... : ... .. . ... : ... .. . ...
ROW 2B : ... .. . ... : ... .. . ... : ... .. . ... : ... .. . ... : ... .. . ...
ROW 2C : B-3 00 . ... : G-1 00 . ... : ... .. . ... : ... .. . ... : ... .. . ...
ROW 2D : ... .. . ... : ... .. . ... : ... .. . ... : ... .. . ... : ... .. . ...
ROW 2E : G-3 00 . ... : G-2 00 . ... : ... .. . ... : ... .. . ... : ... .. . ...
ROW 2F : ... .. . ... : ... .. . ... : ... .. . ... : ... .. . ... : ... .. . ...

PATTERN 14
ROW 00 : C-3 00 . ... : C-2 00 . ... : C-5 14 . ... : ... .. . ... : ... .. . ...
ROW 01 : ... .. . ... : ... .. . ... : ... .. . ... : ... .. . ... : ... .. . ...
ROW 02 : E-3 00 . ... : C-3 00 . ... : ... .. . ... : ... .. . ... : ... .. . ...
ROW 03 : ... .. . ... : ... .. . ... : ... .. . ... : ... .. . ... : ... .. . ...
ROW 04 : G-3 00 . ... : C-2 00 . ... : C-5 14 . ... : ... .. . ... : ... .. . ...
ROW 05 : ... .. . ... : ... .. . ... : --- .. . ... : ... .. . ... : ... .. . ...
ROW 06 : C-4 00 . ... : C-3 00 . ... : C-6 14 . ... : ... .. . ... : ... .. . ...
ROW 07 : ... .. . ... : ... .. . ... : ... .. . ... : ... .. . ... : ... .. . ...
ROW 08 : G-3 00 . ... : C-2 00 . ... : D-6 14 . ... : ... .. . ... : ... .. . ...
ROW 09 : ... .. . ... : ... .. . ... : ... .. . ... : ... .. . ... : ... .. . ...
ROW 0A : E-3 00 . ... : C-3 00 . ... : B-5 14 . ... : ... .. . ... : ... .. . ...
ROW 0B : ... .. . ... : ... .. . ... : --- .. . ... : ... .. . ... : ... .. . ...
ROW 0C : C-3 00 . ... : A-1 00 . ... : A-5 14 . ... : ... .. . ... : ... .. . ...
ROW 0D : ... .. . ... : ... .. . ... : ... .. . ... : ... .. . ... : ... .. . ...
ROW 0E : E-3 00 . ... : A-2 00 . ... : ... .. . ... : ... .. . ... : ... .. . ...
ROW 0F : ... .. . ... : ... .. . ... : ... .. . ... : ... .. . ... : ... .. . ...
ROW 10 : A-3 00 . ... : A-1 00 . ... : ... .. . ... : ... .. . ... : ... .. . ...
ROW 11 : ... .. . ... : ... .. . ... : ... .. . ... : ... .. . ... : ... .. . ...
ROW 12 : C-4 00 . ... : A-2 00 . ... : A-4 14 . ... : ... .. . ... : ... .. . ...
ROW 13 : ... .. . ... : ... .. . ... : ... .. . ... : ... .. . ... : ... .. . ...
ROW 14 : A-3 00 . ... : A-1 00 . ... : ... .. . ... : ... .. . ... : ... .. . ...
ROW 15 : ... .. . ... : ... .. . ... : ... .. . ... : ... .. . ... : ... .. . ...
ROW 16 : E-3 00 . ... : A-2 00 . ... : ... .. . ... : ... .. . ... : ... .. . ...
ROW 17 : ... .. . ... : ... .. . ... : ... .. . ... : ... .. . ... : ... .. . ...
ROW 18 : C-3 00 . ... : F-1 00 . ... : F-5 14 . ... : ... .. . ... : ... .. . ...
ROW 19 : ... .. . ... : ... .. . ... : ... .. . ... : ... .. . ... : ... .. . ...
ROW 1A : F-3 00 . ... : F-2 00 . ... : --- .. . ... : ... .. . ... : ... .. . ...
ROW 1B : ... .. . ... : ... .. . ... : F-5 14 . ... : ... .. . ... : ... .. . ...
ROW 1C : A-3 00 . ... : F-1 00 . ... : D-5 14 . ... : ... .. . ... : ... .. . ...
ROW 1D : ... .. . ... : ... .. . ... : ... .. . ... : ... .. . ... : ... .. . ...
ROW 1E : C-4 00 . ... : F-2 00 . ... : C-5 14 . ... : ... .. . ... : ... .. . ...
ROW 1F : ... .. . ... : ... .. . ... : ... .. . ... : ... .. . ... : ... .. . ...
ROW 20 : A-3 00 . ... : F-1 00 . ... : E-5 14 . ... : ... .. . ... : ... .. . ...
ROW 21 : ... .. . ... : ... .. . ... : ... .. . ... : ... .. . ... : ... .. . ...
ROW 22 : F-3 00 . ... : F-2 00 . ... : F-5 14 . ... : ... .. . ... : ... .. . ...
ROW 23 : ... .. . ... : ... .. . ... : ... .. . ... : ... .. . ... : ... .. . ...
ROW 24 : D-3 00 . ... : G-1 00 . ... : G-5 14 . ... : ... .. . ... : ... .. . ...
ROW 25 : ... .. . ... : ... .. . ... : ... .. . ... : ... .. . ... : ... .. . ...
ROW 26 : G-3 00 . ... : G-2 00 . ... : ... .. . ... : ... .. . ... : ... .. . ...
ROW 27 : ... .. . ... : ... .. . ... : ... .. . ... : ... .. . ... : ... .. . ...
ROW 28 : B-3 00 . ... : G-1 00 . ... : ... .. . ... : ... .. . ... : ... .. . ...
ROW 29 : ... .. . ... : ... .. . ... : ... .. . ... : ... .. . ... : ... .. . ...
ROW 2A : D-4 00 . ... : G-2 00 . ... : ... .. . ... : ... .. . ... : ... .. . ...
ROW 2B : ... .. . ... : ... .. . ... : ... .. . ... : ... .. . ... : ... .. . ...
ROW 2C : B-3 00 . ... : G-1 00 . ... : ... .. . ... : ... .. . ... : ... .. . ...
ROW 2D : ... .. . ... : ... .. . ... : ... .. . ... : ... .. . ... : ... .. . ...
ROW 2E : G-3 00 . ... : G-2 00 . ... : B-3 14 . ... : ... .. . ... : ... .. . ...
ROW 2F : ... .. . ... : ... .. . ... : ... .. . ... : ... .. . ... : ... .. . ...

PATTERN 15
ROW 00 : C-3 00 . ... : C-2 00 . ... : C-5 14 . ... : ... .. . ... : ... .. . ...
ROW 01 : ... .. . ... : ... .. . ... : ... .. . ... : ... .. . ... : ... .. . ...
ROW 02 : G-3 00 . ... : C-3 00 . ... : ... .. . ... : ... .. . ... : ... .. . ...
ROW 03 : ... .. . ... : ... .. . ... : ... .. . ... : ... .. . ... : ... .. . ...
ROW 04 : C-3 00 . ... : C-2 00 . ... : ... .. . ... : ... .. . ... : ... .. . ...
ROW 05 : ... .. . ... : ... .. . ... : --- .. . ... : ... .. . ... : ... .. . ...
ROW 06 : G-3 00 . ... : C-3 00 . ... : C-5 14 . ... : ... .. . ... : ... .. . ...
ROW 07 : ... .. . ... : ... .. . ... : ... .. . ... : ... .. . ... : ... .. . ...
ROW 08 : C-3 00 . ... : C-2 00 . ... : ... .. . ... : ... .. . ... : ... .. . ...
ROW 09 : ... .. . ... : ... .. . ... : ... .. . ... : ... .. . ... : ... .. . ...
ROW 0A : ... .. . ... : C-3 00 . ... : G-5 14 . ... : ... .. . ... : ... .. . ...
ROW 0B : ... .. . ... : ... .. . ... : --- .. . ... : ... .. . ... : ... .. . ...
ROW 0C : F-2 00 . ... : F-1 00 . ... : F-5 14 . ... : ... .. . ... : ... .. . ...
ROW 0D : ... .. . ... : ... .. . ... : ... .. . ... : ... .. . ... : ... .. . ...
ROW 0E : C-3 00 . ... : F-2 00 . ... : ... .. . ... : ... .. . ... : ... .. . ...
ROW 0F : ... .. . ... : ... .. . ... : ... .. . ... : ... .. . ... : ... .. . ...
ROW 10 : F-2 00 . ... : F-1 00 . ... : ... .. . ... : ... .. . ... : ... .. . ...
ROW 11 : ... .. . ... : ... .. . ... : --- .. . ... : ... .. . ... : ... .. . ...
ROW 12 : C-3 00 . ... : F-2 00 . ... : F-5 14 . ... : ... .. . ... : ... .. . ...
ROW 13 : ... .. . ... : ... .. . ... : ... .. . ... : ... .. . ... : ... .. . ...
ROW 14 : F-2 00 . ... : F-1 00 . ... : ... .. . ... : ... .. . ... : ... .. . ...
ROW 15 : ... .. . ... : ... .. . ... : ... .. . ... : ... .. . ... : ... .. . ...
ROW 16 : ... .. . ... : F-2 00 . ... : G-5 14 . ... : ... .. . ... : ... .. . ...
ROW 17 : ... .. . ... : ... .. . ... : --- .. . ... : ... .. . ... : ... .. . ...
ROW 18 : A-2 00 . ... : A-1 00 . ... : A-5 14 . ... : ... .. . ... : ... .. . ...
ROW 19 : ... .. . ... : ... .. . ... : ... .. . ... : ... .. . ... : ... .. . ...
ROW 1A : E-3 00 . ... : A-2 00 . ... : --- .. . ... : ... .. . ... : ... .. . ...
ROW 1B : ... .. . ... : ... .. . ... : F-5 14 . ... : ... .. . ... : ... .. . ...
ROW 1C : A-2 00 . ... : A-1 00 . ... : D-5 14 . ... : ... .. . ... : ... .. . ...
ROW 1D : ... .. . ... : ... .. . ... : ... .. . ... : ... .. . ... : ... .. . ...
ROW 1E : E-3 00 . ... : A-2 00 . ... : C-5 14 . ... : ... .. . ... : ... .. . ...
ROW 1F : ... .. . ... : ... .. . ... : ... .. . ... : ... .. . ... : ... .. . ...
ROW 20 : A-2 00 . ... : A-1 00 . ... : E-5 14 . ... : ... .. . ... : ... .. . ...
ROW 21 : ... .. . ... : ... .. . ... : ... .. . ... : ... .. . ... : ... .. . ...
ROW 22 : ... .. . ... : A-2 00 . ... : F-5 14 . ... : ... .. . ... : ... .. . ...
ROW 23 : ... .. . ... : ... .. . ... : ... .. . ... : ... .. . ... : ... .. . ...
ROW 24 : G-2 00 . ... : G-1 00 . ... : G-5 14 . ... : ... .. . ... : ... .. . ...
ROW 25 : ... .. . ... : ... .. . ... : ... .. . ... : ... .. . ... : ... .. . ...
ROW 26 : D-3 00 . ... : G-2 00 . ... : ... .. . ... : ... .. . ... : ... .. . ...
ROW 27 : ... .. . ... : ... .. . ... : ... .. . ... : ... .. . ... : ... .. . ...
ROW 28 : G-2 00 . ... : G-1 00 . ... : ... .. . ... : ... .. . ... : ... .. . ...
ROW 29 : ... .. . ... : ... .. . ... : --- .. . ... : ... .. . ... : ... .. . ...
ROW 2A : D-3 00 . ... : G-2 00 . ... : G-5 14 . ... : ... .. . ... : ... .. . ...
ROW 2B : ... .. . ... : ... .. . ... : ... .. . ... : ... .. . ... : ... .. . ...
ROW 2C : G-2 00 . ... : G-1 00 . ... : ... .. . ... : ... .. . ... : ... .. . ...
ROW 2D : ... .. . ... : ... .. . ... : ... .. . ... : ... .. . ... : ... .. . ...
ROW 2E : ... .. . ... : G-2 00 . ... : B-4 14 . ... : ... .. . ... : ... .. . ...
ROW 2F : ... .. . ... : ... .. . ... : ... .. . ... : ... .. . ... : ... .. . ...

PATTERN 16
ROW 00 : C-3 00 . ... : C-2 00 . ... : C-5 14 . ... : ... .. . ... : ... .. . ...
ROW 01 : ... .. . ... : ... .. . ... : ... .. . ... : ... .. . ... : ... .. . ...
ROW 02 : E-3 00 . ... : C-3 00 . ... : ... .. . ... : ... .. . ... : ... .. . ...
ROW 03 : ... .. . ... : ... .. . ... : ... .. . ... : ... .. . ... : ... .. . ...
ROW 04 : G-3 00 . ... : C-2 00 . ... : ... .. . ... : ... .. . ... : ... .. . ...
ROW 05 : ... .. . ... : ... .. . ... : ... .. . ... : ... .. . ... : ... .. . ...
ROW 06 : C-4 00 . ... : C-3 00 . ... : ... .. . ... : ... .. . ... : ... .. . ...
ROW 07 : ... .. . ... : ... .. . ... : ... .. . ... : ... .. . ... : ... .. . ...
ROW 08 : G-3 00 . ... : C-2 00 . ... : ... .. . ... : ... .. . ... : ... .. . ...
ROW 09 : ... .. . ... : ... .. . ... : ... .. . ... : ... .. . ... : ... .. . ...
ROW 0A : E-3 00 . ... : C-3 00 . ... : ... .. . ... : ... .. . ... : ... .. . ...
ROW 0B : ... .. . ... : ... .. . ... : ... .. . ... : ... .. . ... : ... .. . ...
ROW 0C : C-3 00 . ... : A-1 00 . ... : ... .. . ... : ... .. . ... : ... .. . ...
ROW 0D : ... .. . ... : ... .. . ... : ... .. . ... : ... .. . ... : ... .. . ...
ROW 0E : E-3 00 . ... : A-2 00 . ... : ... .. . ... : ... .. . ... : ... .. . ...
ROW 0F : ... .. . ... : ... .. . ... : ... .. . ... : ... .. . ... : ... .. . ...
ROW 10 : A-3 00 . ... : A-1 00 . ... : ... .. . ... : ... .. . ... : ... .. . ...
ROW 11 : ... .. . ... : ... .. . ... : ... .. . ... : ... .. . ... : ... .. . ...
ROW 12 : C-4 00 . ... : A-2 00 . ... : ... .. . ... : ... .. . ... : ... .. . ...
ROW 13 : ... .. . ... : ... .. . ... : ... .. . ... : ... .. . ... : ... .. . ...
ROW 14 : A-3 00 . ... : A-1 00 . ... : ... .. . ... : ... .. . ... : ... .. . ...
ROW 15 : ... .. . ... : ... .. . ... : --- .. . ... : ... .. . ... : ... .. . ...
ROW 16 : E-3 00 . ... : A-2 00 . ... : E-5 14 . ... : ... .. . ... : ... .. . ...
ROW 17 : ... .. . ... : ... .. . ... : ... .. . ... : ... .. . ... : ... .. . ...
ROW 18 : C-3 00 . ... : F-1 00 . ... : F-5 14 . ... : ... .. . ... : ... .. . ...
ROW 19 : ... .. . ... : ... .. . ... : ... .. . ... : ... .. . ... : ... .. . ...
ROW 1A : F-3 00 . ... : F-2 00 . ... : ... .. . ... : ... .. . ... : ... .. . ...
ROW 1B : ... .. . ... : ... .. . ... : ... .. . ... : ... .. . ... : ... .. . ...
ROW 1C : A-3 00 . ... : F-1 00 . ... : ... .. . ... : ... .. . ... : ... .. . ...
ROW 1D : ... .. . ... : ... .. . ... : ... .. . ... : ... .. . ... : ... .. . ...
ROW 1E : C-4 00 . ... : F-2 00 . ... : C-5 14 . ... : ... .. . ... : ... .. . ...
ROW 1F : ... .. . ... : ... .. . ... : ... .. . ... : ... .. . ... : ... .. . ...
ROW 20 : A-3 00 . ... : F-1 00 . ... : ... .. . ... : ... .. . ... : ... .. . ...
ROW 21 : ... .. . ... : ... .. . ... : ... .. . ... : ... .. . ... : ... .. . ...
ROW 22 : F-3 00 . ... : F-2 00 . ... : ... .. . ... : ... .. . ... : ... .. . ...
ROW 23 : ... .. . ... : ... .. . ... : ... .. . ... : ... .. . ... : ... .. . ...
ROW 24 : D-3 00 . ... : G-1 00 . ... : G-5 14 . ... : ... .. . ... : ... .. . ...
ROW 25 : ... .. . ... : ... .. . ... : ... .. . ... : ... .. . ... : ... .. . ...
ROW 26 : G-3 00 . ... : G-2 00 . ... : ... .. . ... : ... .. . ... : ... .. . ...
ROW 27 : ... .. . ... : ... .. . ... : ... .. . ... : ... .. . ... : ... .. . ...
ROW 28 : B-3 00 . ... : G-1 00 . ... : ... .. . ... : ... .. . ... : ... .. . ...
ROW 29 : ... .. . ... : ... .. . ... : ... .. . ... : ... .. . ... : ... .. . ...
ROW 2A : D-4 00 . ... : G-2 00 . ... : ... .. . ... : ... .. . ... : ... .. . ...
ROW 2B : ... .. . ... : ... .. . ... : ... .. . ... : ... .. . ... : ... .. . ...
ROW 2C : B-3 00 . ... : G-1 00 . ... : ... .. . ... : ... .. . ... : ... .. . ...
ROW 2D : ... .. . ... : ... .. . ... : --- .. . ... : ... .. . ... : ... .. . ...
ROW 2E : G-3 00 . ... : G-2 00 . ... : A-5 14 . ... : ... .. . ... : ... .. . ...
ROW 2F : ... .. . ... : ... .. . ... : B-5 14 . ... : ... .. . ... : ... .. . ...

PATTERN 17
ROW 00 : C-3 00 . ... : C-2 00 . ... : C-5 14 . ... : ... .. . ... : ... .. . ...
ROW 01 : ... .. . ... : ... .. . ... : ... .. . ... : ... .. . ... : ... .. . ...
ROW 02 : E-3 00 . ... : C-3 00 . ... : E-5 14 . ... : ... .. . ... : ... .. . ...
ROW 03 : ... .. . ... : ... .. . ... : ... .. . ... : ... .. . ... : ... .. . ...
ROW 04 : G-3 00 . ... : C-2 00 . ... : G-5 14 . ... : ... .. . ... : ... .. . ...
ROW 05 : ... .. . ... : ... .. . ... : ... .. . ... : ... .. . ... : ... .. . ...
ROW 06 : C-4 00 . ... : C-3 00 . ... : G-5 14 . ... : ... .. . ... : ... .. . ...
ROW 07 : ... .. . ... : ... .. . ... : ... .. . ... : ... .. . ... : ... .. . ...
ROW 08 : G-3 00 . ... : C-2 00 . ... : ... .. . ... : ... .. . ... : ... .. . ...
ROW 09 : ... .. . ... : ... .. . ... : ... .. . ... : ... .. . ... : ... .. . ...
ROW 0A : E-3 00 . ... : C-3 00 . ... : ... .. . ... : ... .. . ... : ... .. . ...
ROW 0B : ... .. . ... : ... .. . ... : ... .. . ... : ... .. . ... : ... .. . ...
ROW 0C : C-3 00 . ... : A-1 00 . ... : A-5 14 . ... : ... .. . ... : ... .. . ...
ROW 0D : ... .. . ... : ... .. . ... : ... .. . ... : ... .. . ... : ... .. . ...
ROW 0E : E-3 00 . ... : A-2 00 . ... : ... .. . ... : ... .. . ... : ... .. . ...
ROW 0F : ... .. . ... : ... .. . ... : ... .. . ... : ... .. . ... : ... .. . ...
ROW 10 : A-3 00 . ... : A-1 00 . ... : ... .. . ... : ... .. . ... : ... .. . ...
ROW 11 : ... .. . ... : ... .. . ... : ... .. . ... : ... .. . ... : ... .. . ...
ROW 12 : C-4 00 . ... : A-2 00 . ... : ... .. . ... : ... .. . ... : ... .. . ...
ROW 13 : ... .. . ... : ... .. . ... : ... .. . ... : ... .. . ... : ... .. . ...
ROW 14 : A-3 00 . ... : A-1 00 . ... : ... .. . ... : ... .. . ... : ... .. . ...
ROW 15 : ... .. . ... : ... .. . ... : --- .. . ... : ... .. . ... : ... .. . ...
ROW 16 : E-3 00 . ... : A-2 00 . ... : G-5 14 . ... : ... .. . ... : ... .. . ...
ROW 17 : ... .. . ... : ... .. . ... : ... .. . ... : ... .. . ... : ... .. . ...
ROW 18 : C-3 00 . ... : F-1 00 . ... : F-5 14 . ... : ... .. . ... : ... .. . ...
ROW 19 : ... .. . ... : ... .. . ... : ... .. . ... : ... .. . ... : ... .. . ...
ROW 1A : F-3 00 . ... : F-2 00 . ... : G-5 14 . ... : ... .. . ... : ... .. . ...
ROW 1B : ... .. . ... : ... .. . ... : ... .. . ... : ... .. . ... : ... .. . ...
ROW 1C : A-3 00 . ... : F-1 00 . ... : F-5 14 . ... : ... .. . ... : ... .. . ...
ROW 1D : ... .. . ... : ... .. . ... : ... .. . ... : ... .. . ... : ... .. . ...
ROW 1E : C-4 00 . ... : F-2 00 . ... : D-5 14 . ... : ... .. . ... : ... .. . ...
ROW 1F : ... .. . ... : ... .. . ... : ... .. . ... : ... .. . ... : ... .. . ...
ROW 20 : A-3 00 . ... : F-1 00 . ... : ... .. . ... : ... .. . ... : ... .. . ...
ROW 21 : ... .. . ... : ... .. . ... : ... .. . ... : ... .. . ... : ... .. . ...
ROW 22 : F-3 00 . ... : F-2 00 . ... : E-5 14 . ... : ... .. . ... : ... .. . ...
ROW 23 : ... .. . ... : ... .. . ... : --- .. . ... : ... .. . ... : ... .. . ...
ROW 24 : D-3 00 . ... : G-1 00 . ... : G-5 14 . ... : ... .. . ... : ... .. . ...
ROW 25 : ... .. . ... : ... .. . ... : ... .. . ... : ... .. . ... : ... .. . ...
ROW 26 : G-3 00 . ... : G-2 00 . ... : ... .. . ... : ... .. . ... : ... .. . ...
ROW 27 : ... .. . ... : ... .. . ... : ... .. . ... : ... .. . ... : ... .. . ...
ROW 28 : B-3 00 . ... : G-1 00 . ... : ... .. . ... : ... .. . ... : ... .. . ...
ROW 29 : ... .. . ... : ... .. . ... : ... .. . ... : ... .. . ... : ... .. . ...
ROW 2A : D-4 00 . ... : G-2 00 . ... : ... .. . ... : ... .. . ... : ... .. . ...
ROW 2B : ... .. . ... : ... .. . ... : ... .. . ... : ... .. . ... : ... .. . ...
ROW 2C : B-3 00 . ... : G-1 00 . ... : ... .. . ... : ... .. . ... : ... .. . ...
ROW 2D : ... .. . ... : ... .. . ... : ... .. . ... : ... .. . ... : ... .. . ...
ROW 2E : G-3 00 . ... : G-2 00 . ... : E-5 14 . ... : ... .. . ... : ... .. . ...
ROW 2F : ... .. . ... : ... .. . ... : D-5 14 . ... : ... .. . ... : ... .. . ...

PATTERN 18
ROW 00 : C-3 00 . ... : C-2 00 . ... : C-5 14 . ... : ... .. . ... : ... .. . ...
ROW 01 : ... .. . ... : ... .. . ... : ... .. . ... : ... .. . ... : ... .. . ...
ROW 02 : E-3 00 . ... : C-3 00 . ... : ... .. . ... : ... .. . ... : ... .. . ...
ROW 03 : ... .. . ... : ... .. . ... : ... .. . ... : ... .. . ... : ... .. . ...
ROW 04 : G-3 00 . ... : C-2 00 . ... : ... .. . ... : ... .. . ... : ... .. . ...
ROW 05 : ... .. . ... : ... .. . ... : ... .. . ... : ... .. . ... : ... .. . ...
ROW 06 : C-4 00 . ... : C-3 00 . ... : ... .. . ... : ... .. . ... : ... .. . ...
ROW 07 : ... .. . ... : ... .. . ... : ... .. . ... : ... .. . ... : ... .. . ...
ROW 08 : G-3 00 . ... : C-2 00 . ... : ... .. . ... : ... .. . ... : ... .. . ...
ROW 09 : ... .. . ... : ... .. . ... : ... .. . ... : ... .. . ... : ... .. . ...
ROW 0A : E-3 00 . ... : C-3 00 . ... : ... .. . ... : ... .. . ... : ... .. . ...
ROW 0B : ... .. . ... : ... .. . ... : ... .. . ... : ... .. . ... : ... .. . ...
ROW 0C : C-3 00 . ... : A-1 00 . ... : ... .. . ... : ... .. . ... : ... .. . ...
ROW 0D : ... .. . ... : ... .. . ... : ... .. . ... : ... .. . ... : ... .. . ...
ROW 0E : E-3 00 . ... : A-2 00 . ... : ... .. . ... : ... .. . ... : ... .. . ...
ROW 0F : ... .. . ... : ... .. . ... : ... .. . ... : ... .. . ... : ... .. . ...
ROW 10 : A-3 00 . ... : A-1 00 . ... : ... .. . ... : ... .. . ... : ... .. . ...
ROW 11 : ... .. . ... : ... .. . ... : ... .. . ... : ... .. . ... : ... .. . ...
ROW 12 : C-4 00 . ... : A-2 00 . ... : ... .. . ... : ... .. . ... : ... .. . ...
ROW 13 : ... .. . ... : ... .. . ... : ... .. . ... : ... .. . ... : ... .. . ...
ROW 14 : A-3 00 . ... : A-1 00 . ... : ... .. . ... : ... .. . ... : ... .. . ...
ROW 15 : ... .. . ... : ... .. . ... : --- .. . ... : ... .. . ... : ... .. . ...
ROW 16 : E-3 00 . ... : A-2 00 . ... : E-4 14 . ... : ... .. . ... : ... .. . ...
ROW 17 : ... .. . ... : ... .. . ... : ... .. . ... : ... .. . ... : ... .. . ...
ROW 18 : C-3 00 . ... : F-1 00 . ... : F-4 14 . ... : ... .. . ... : ... .. . ...
ROW 19 : ... .. . ... : ... .. . ... : ... .. . ... : ... .. . ... : ... .. . ...
ROW 1A : F-3 00 . ... : F-2 00 . ... : ... .. . ... : ... .. . ... : ... .. . ...
ROW 1B : ... .. . ... : ... .. . ... : ... .. . ... : ... .. . ... : ... .. . ...
ROW 1C : A-3 00 . ... : F-1 00 . ... : ... .. . ... : ... .. . ... : ... .. . ...
ROW 1D : ... .. . ... : ... .. . ... : ... .. . ... : ... .. . ... : ... .. . ...
ROW 1E : C-4 00 . ... : F-2 00 . ... : C-4 14 . ... : ... .. . ... : ... .. . ...
ROW 1F : ... .. . ... : ... .. . ... : ... .. . ... : ... .. . ... : ... .. . ...
ROW 20 : A-3 00 . ... : F-1 00 . ... : ... .. . ... : ... .. . ... : ... .. . ...
ROW 21 : ... .. . ... : ... .. . ... : ... .. . ... : ... .. . ... : ... .. . ...
ROW 22 : F-3 00 . ... : F-2 00 . ... : ... .. . ... : ... .. . ... : ... .. . ...
ROW 23 : ... .. . ... : ... .. . ... : --- .. . ... : ... .. . ... : ... .. . ...
ROW 24 : D-3 00 . ... : G-1 00 . ... : G-4 14 . ... : ... .. . ... : ... .. . ...
ROW 25 : ... .. . ... : ... .. . ... : ... .. . ... : ... .. . ... : ... .. . ...
ROW 26 : G-3 00 . ... : G-2 00 . ... : ... .. . ... : ... .. . ... : ... .. . ...
ROW 27 : ... .. . ... : ... .. . ... : ... .. . ... : ... .. . ... : ... .. . ...
ROW 28 : B-3 00 . ... : G-1 00 . ... : ... .. . ... : ... .. . ... : ... .. . ...
ROW 29 : ... .. . ... : ... .. . ... : --- .. . ... : ... .. . ... : ... .. . ...
ROW 2A : D-4 00 . ... : G-2 00 . ... : B-4 14 . ... : ... .. . ... : ... .. . ...
ROW 2B : ... .. . ... : ... .. . ... : ... .. . ... : ... .. . ... : ... .. . ...
ROW 2C : B-3 00 . ... : G-1 00 . ... : ... .. . ... : ... .. . ... : ... .. . ...
ROW 2D : ... .. . ... : ... .. . ... : ... .. . ... : ... .. . ... : ... .. . ...
ROW 2E : G-3 00 . ... : G-2 00 . ... : D-5 14 . ... : ... .. . ... : ... .. . ...
ROW 2F : ... .. . ... : ... .. . ... : --- .. . ... : ... .. . ... : ... .. . ...

PATTERN 19
ROW 00 : C-4 00 . ... : C-2 00 . ... : C-4 14 . ... : ... .. . ... : ... .. . ...
ROW 01 : ... .. . ... : ... .. . ... : ... .. . ... : ... .. . ... : ... .. . ...
ROW 02 : G-4 00 . ... : ... .. . ... : ... .. . ... : ... .. . ... : ... .. . ...
ROW 03 : ... .. . ... : ... .. . ... : ... .. . ... : ... .. . ... : ... .. . ...
ROW 04 : C-4 00 . ... : C-2 00 . ... : ... .. . ... : ... .. . ... : ... .. . ...
ROW 05 : ... .. . ... : ... .. . ... : ... .. . ... : ... .. . ... : ... .. . ...
ROW 06 : G-4 00 . ... : ... .. . ... : ... .. . ... : ... .. . ... : ... .. . ...
ROW 07 : ... .. . ... : ... .. . ... : ... .. . ... : ... .. . ... : ... .. . ...
ROW 08 : C-4 00 . ... : C-2 00 . ... : ... .. . ... : ... .. . ... : ... .. . ...
ROW 09 : ... .. . ... : ... .. . ... : ... .. . ... : ... .. . ... : ... .. . ...
ROW 0A : C-5 00 . ... : ... .. . ... : ... .. . ... : ... .. . ... : ... .. . ...
ROW 0B : ... .. . ... : ... .. . ... : ... .. . ... : ... .. . ... : ... .. . ...
ROW 0C : A-3 00 . ... : A-1 00 . ... : ... .. . ... : ... .. . ... : ... .. . ...
ROW 0D : ... .. . ... : ... .. . ... : ... .. . ... : ... .. . ... : ... .. . ...
ROW 0E : E-4 00 . ... : ... .. . ... : ... .. . ... : ... .. . ... : ... .. . ...
ROW 0F : ... .. . ... : ... .. . ... : ... .. . ... : ... .. . ... : ... .. . ...
ROW 10 : A-3 00 . ... : A-1 00 . ... : ... .. . ... : ... .. . ... : ... .. . ...
ROW 11 : ... .. . ... : ... .. . ... : ... .. . ... : ... .. . ... : ... .. . ...
ROW 12 : E-4 00 . ... : ... .. . ... : ... .. . ... : ... .. . ... : ... .. . ...
ROW 13 : ... .. . ... : ... .. . ... : ... .. . ... : ... .. . ... : ... .. . ...
ROW 14 : A-3 00 . ... : A-1 00 . ... : ... .. . ... : ... .. . ... : ... .. . ...
ROW 15 : ... .. . ... : ... .. . ... : ... .. . ... : ... .. . ... : ... .. . ...
ROW 16 : A-4 00 . ... : ... .. . ... : ... .. . ... : ... .. . ... : ... .. . ...
ROW 17 : ... .. . ... : ... .. . ... : ... .. . ... : ... .. . ... : ... .. . ...
ROW 18 : F-3 00 . ... : F-1 00 . ... : --- .. . ... : ... .. . ... : ... .. . ...
ROW 19 : ... .. . ... : ... .. . ... : ... .. . ... : ... .. . ... : ... .. . ...
ROW 1A : C-4 00 . ... : ... .. . ... : ... .. . ... : ... .. . ... : ... .. . ...
ROW 1B : ... .. . ... : ... .. . ... : ... .. . ... : ... .. . ... : ... .. . ...
ROW 1C : F-3 00 . ... : F-1 00 . ... : ... .. . ... : ... .. . ... : ... .. . ...
ROW 1D : ... .. . ... : ... .. . ... : ... .. . ... : ... .. . ... : ... .. . ...
ROW 1E : C-4 00 . ... : ... .. . ... : ... .. . ... : ... .. . ... : ... .. . ...
ROW 1F : ... .. . ... : ... .. . ... : ... .. . ... : ... .. . ... : ... .. . ...
ROW 20 : F-3 00 . ... : F-1 00 . ... : ... .. . ... : ... .. . ... : ... .. . ...
ROW 21 : ... .. . ... : ... .. . ... : ... .. . ... : ... .. . ... : ... .. . ...
ROW 22 : F-4 00 . ... : ... .. . ... : ... .. . ... : ... .. . ... : ... .. . ...
ROW 23 : ... .. . ... : ... .. . ... : ... .. . ... : ... .. . ... : ... .. . ...
ROW 24 : G-3 00 . ... : G-1 00 . ... : ... .. . ... : ... .. . ... : ... .. . ...
ROW 25 : ... .. . ... : ... .. . ... : ... .. . ... : ... .. . ... : ... .. . ...
ROW 26 : D-4 00 . ... : ... .. . ... : ... .. . ... : ... .. . ... : ... .. . ...
ROW 27 : ... .. . ... : ... .. . ... : ... .. . ... : ... .. . ... : ... .. . ...
ROW 28 : G-3 00 . ... : G-1 00 . ... : ... .. . ... : ... .. . ... : ... .. . ...
ROW 29 : ... .. . ... : ... .. . ... : ... .. . ... : ... .. . ... : ... .. . ...
ROW 2A : D-4 00 . ... : ... .. . ... : ... .. . ... : ... .. . ... : ... .. . ...
ROW 2B : ... .. . ... : ... .. . ... : ... .. . ... : ... .. . ... : ... .. . ...
ROW 2C : G-3 00 . ... : G-1 00 . ... : ... .. . ... : ... .. . ... : ... .. . ...
ROW 2D : ... .. . ... : ... .. . ... : ... .. . ... : ... .. . ... : ... .. . ...
ROW 2E : G-4 00 . ... : ... .. . ... : ... .. . ... : ... .. . ... : ... .. . ...
ROW 2F : ... .. . ... : ... .. . ... : ... .. . ... : ... .. . ... : ... .. . ...

PATTERN 1A
ROW 00 : C-3 00 . ... : C-2 00 . ... : C-4 14 . ... : ... .. . ... : ... .. . ...
ROW 01 : ... .. . ... : ... .. . ... : ... .. . ... : ... .. . ... : ... .. . ...
ROW 02 : E-3 00 . ... : C-3 00 . ... : E-4 14 . ... : ... .. . ... : ... .. . ...
ROW 03 : ... .. . ... : ... .. . ... : ... .. . ... : ... .. . ... : ... .. . ...
ROW 04 : G-3 00 . ... : C-2 00 . ... : G-4 14 . ... : ... .. . ... : ... .. . ...
ROW 05 : ... .. . ... : ... .. . ... : ... .. . ... : ... .. . ... : ... .. . ...
ROW 06 : C-4 00 . ... : C-3 00 . ... : G-4 14 . ... : ... .. . ... : ... .. . ...
ROW 07 : ... .. . ... : ... .. . ... : ... .. . ... : ... .. . ... : ... .. . ...
ROW 08 : G-3 00 . ... : C-2 00 . ... : ... .. . ... : ... .. . ... : ... .. . ...
ROW 09 : ... .. . ... : ... .. . ... : ... .. . ... : ... .. . ... : ... .. . ...
ROW 0A : E-3 00 . ... : C-3 00 . ... : ... .. . ... : ... .. . ... : ... .. . ...
ROW 0B : ... .. . ... : ... .. . ... : ... .. . ... : ... .. . ... : ... .. . ...
ROW 0C : C-3 00 . ... : A-1 00 . ... : A-4 14 . ... : ... .. . ... : ... .. . ...
ROW 0D : ... .. . ... : ... .. . ... : ... .. . ... : ... .. . ... : ... .. . ...
ROW 0E : E-3 00 . ... : A-2 00 . ... : ... .. . ... : ... .. . ... : ... .. . ...
ROW 0F : ... .. . ... : ... .. . ... : ... .. . ... : ... .. . ... : ... .. . ...
ROW 10 : A-3 00 . ... : A-1 00 . ... : ... .. . ... : ... .. . ... : ... .. . ...
ROW 11 : ... .. . ... : ... .. . ... : ... .. . ... : ... .. . ... : ... .. . ...
ROW 12 : C-4 00 . ... : A-2 00 . ... : ... .. . ... : ... .. . ... : ... .. . ...
ROW 13 : ... .. . ... : ... .. . ... : ... .. . ... : ... .. . ... : ... .. . ...
ROW 14 : A-3 00 . ... : A-1 00 . ... : ... .. . ... : ... .. . ... : ... .. . ...
ROW 15 : ... .. . ... : ... .. . ... : --- .. . ... : ... .. . ... : ... .. . ...
ROW 16 : E-3 00 . ... : A-2 00 . ... : G-4 14 . ... : ... .. . ... : ... .. . ...
ROW 17 : ... .. . ... : ... .. . ... : ... .. . ... : ... .. . ... : ... .. . ...
ROW 18 : C-3 00 . ... : F-1 00 . ... : F-4 14 . ... : ... .. . ... : ... .. . ...
ROW 19 : ... .. . ... : ... .. . ... : ... .. . ... : ... .. . ... : ... .. . ...
ROW 1A : F-3 00 . ... : F-2 00 . ... : G-4 14 . ... : ... .. . ... : ... .. . ...
ROW 1B : ... .. . ... : ... .. . ... : ... .. . ... : ... .. . ... : ... .. . ...
ROW 1C : A-3 00 . ... : F-1 00 . ... : F-4 14 . ... : ... .. . ... : ... .. . ...
ROW 1D : ... .. . ... : ... .. . ... : ... .. . ... : ... .. . ... : ... .. . ...
ROW 1E : C-4 00 . ... : F-2 00 . ... : D-4 14 . ... : ... .. . ... : ... .. . ...
ROW 1F : ... .. . ... : ... .. . ... : ... .. . ... : ... .. . ... : ... .. . ...
ROW 20 : A-3 00 . ... : F-1 00 . ... : ... .. . ... : ... .. . ... : ... .. . ...
ROW 21 : ... .. . ... : ... .. . ... : ... .. . ... : ... .. . ... : ... .. . ...
ROW 22 : F-3 00 . ... : F-2 00 . ... : E-4 14 . ... : ... .. . ... : ... .. . ...
ROW 23 : ... .. . ... : ... .. . ... : --- .. . ... : ... .. . ... : ... .. . ...
ROW 24 : D-3 00 . ... : G-1 00 . ... : G-4 14 . ... : ... .. . ... : ... .. . ...
ROW 25 : ... .. . ... : ... .. . ... : ... .. . ... : ... .. . ... : ... .. . ...
ROW 26 : G-3 00 . ... : G-2 00 . ... : ... .. . ... : ... .. . ... : ... .. . ...
ROW 27 : ... .. . ... : ... .. . ... : ... .. . ... : ... .. . ... : ... .. . ...
ROW 28 : B-3 00 . ... : G-1 00 . ... : ... .. . ... : ... .. . ... : ... .. . ...
ROW 29 : ... .. . ... : ... .. . ... : ... .. . ... : ... .. . ... : ... .. . ...
ROW 2A : D-4 00 . ... : G-2 00 . ... : ... .. . ... : ... .. . ... : ... .. . ...
ROW 2B : ... .. . ... : ... .. . ... : ... .. . ... : ... .. . ... : ... .. . ...
ROW 2C : B-3 00 . ... : G-1 00 . ... : ... .. . ... : ... .. . ... : ... .. . ...
ROW 2D : ... .. . ... : ... .. . ... : ... .. . ... : ... .. . ... : ... .. . ...
ROW 2E : G-3 00 . ... : G-2 00 . ... : E-4 14 . ... : ... .. . ... : ... .. . ...
ROW 2F : ... .. . ... : ... .. . ... : D-4 14 . ... : ... .. . ... : ... .. . ...

PATTERN 1B
ROW 00 : C-3 00 . ... : ... .. . ... : ... .. . ... : ... .. . ... : ... .. . ...
ROW 01 : ... .. . ... : ... .. . ... : ... .. . ... : ... .. . ... : ... .. . ...
ROW 02 : E-3 00 . ... : ... .. . ... : ... .. . ... : ... .. . ... : ... .. . ...
ROW 03 : ... .. . ... : ... .. . ... : ... .. . ... : ... .. . ... : ... .. . ...
ROW 04 : G-3 00 . ... : ... .. . ... : ... .. . ... : ... .. . ... : ... .. . ...
ROW 05 : ... .. . ... : ... .. . ... : ... .. . ... : ... .. . ... : ... .. . ...
ROW 06 : C-4 00 . ... : ... .. . ... : ... .. . ... : ... .. . ... : ... .. . ...
ROW 07 : ... .. . ... : ... .. . ... : ... .. . ... : ... .. . ... : ... .. . ...
ROW 08 : G-3 00 . ... : ... .. . ... : ... .. . ... : ... .. . ... : ... .. . ...
ROW 09 : ... .. . ... : ... .. . ... : ... .. . ... : ... .. . ... : ... .. . ...
ROW 0A : E-3 00 . ... : ... .. . ... : ... .. . ... : ... .. . ... : ... .. . ...
ROW 0B : ... .. . ... : ... .. . ... : ... .. . ... : ... .. . ... : ... .. . ...
ROW 0C : C-3 00 . ... : ... .. . ... : ... .. . ... : ... .. . ... : ... .. . ...
ROW 0D : ... .. . ... : ... .. . ... : ... .. . ... : ... .. . ... : ... .. . ...
ROW 0E : E-3 00 . ... : ... .. . ... : ... .. . ... : ... .. . ... : ... .. . ...
ROW 0F : ... .. . ... : ... .. . ... : ... .. . ... : ... .. . ... : ... .. . ...
ROW 10 : A-3 00 . ... : ... .. . ... : ... .. . ... : ... .. . ... : ... .. . ...
ROW 11 : ... .. . ... : ... .. . ... : ... .. . ... : ... .. . ... : ... .. . ...
ROW 12 : C-4 00 . ... : ... .. . ... : ... .. . ... : ... .. . ... : ... .. . ...
ROW 13 : ... .. . ... : ... .. . ... : ... .. . ... : ... .. . ... : ... .. . ...
ROW 14 : A-3 00 . ... : ... .. . ... : ... .. . ... : ... .. . ... : ... .. . ...
ROW 15 : ... .. . ... : ... .. . ... : ... .. . ... : ... .. . ... : ... .. . ...
ROW 16 : E-3 00 . ... : ... .. . ... : ... .. . ... : ... .. . ... : ... .. . ...
ROW 17 : ... .. . ... : ... .. . ... : ... .. . ... : ... .. . ... : ... .. . ...
ROW 18 : C-3 00 . ... : ... .. . ... : ... .. . ... : ... .. . ... : ... .. . ...
ROW 19 : ... .. . ... : ... .. . ... : ... .. . ... : ... .. . ... : ... .. . ...
ROW 1A : ... .. . ... : ... .. . ... : ... .. . ... : ... .. . ... : ... .. . ...
ROW 1B : ... .. . ... : ... .. . ... : ... .. . ... : ... .. . ... : ... .. . ...
ROW 1C : A-3 00 . ... : ... .. . ... : ... .. . ... : ... .. . ... : ... .. . ...
ROW 1D : ... .. . ... : ... .. . ... : ... .. . ... : ... .. . ... : ... .. . ...
ROW 1E : C-4 00 . ... : ... .. . ... : ... .. . ... : ... .. . ... : ... .. . ...
ROW 1F : ... .. . ... : ... .. . ... : ... .. . ... : ... .. . ... : ... .. . ...
ROW 20 : A-3 00 . ... : ... .. . ... : ... .. . ... : ... .. . ... : ... .. . ...
ROW 21 : ... .. . ... : ... .. . ... : ... .. . ... : ... .. . ... : ... .. . ...
ROW 22 : F-3 00 . ... : ... .. . ... : ... .. . ... : ... .. . ... : ... .. . ...
ROW 23 : ... .. . ... : ... .. . ... : ... .. . ... : ... .. . ... : ... .. . ...
ROW 24 : D-3 00 . ... : ... .. . ... : ... .. . ... : ... .. . ... : ... .. . ...
ROW 25 : ... .. . ... : ... .. . ... : ... .. . ... : ... .. . ... : ... .. . ...
ROW 26 : ... .. . ... : ... .. . ... : ... .. . ... : ... .. . ... : ... .. . ...
ROW 27 : ... .. . ... : ... .. . ... : ... .. . ... : ... .. . ... : ... .. . ...
ROW 28 : B-3 00 . ... : ... .. . ... : ... .. . ... : ... .. . ... : ... .. . ...
ROW 29 : ... .. . ... : ... .. . ... : ... .. . ... : ... .. . ... : ... .. . ...
ROW 2A : D-4 00 . ... : ... .. . ... : ... .. . ... : ... .. . ... : ... .. . ...
ROW 2B : ... .. . ... : ... .. . ... : ... .. . ... : ... .. . ... : ... .. . ...
ROW 2C : B-3 00 . ... : ... .. . ... : ... .. . ... : ... .. . ... : ... .. . ...
ROW 2D : ... .. . ... : ... .. . ... : ... .. . ... : ... .. . ... : ... .. . ...
ROW 2E : G-3 00 . ... : ... .. . ... : ... .. . ... : ... .. . ... : ... .. . ...
ROW 2F : ... .. . ... : ... .. . ... : ... .. . ... : ... .. . ... : ... .. . ...

# End of export
